<svg width="16" height="16" viewBox="0 0 16 16" fill="none" xmlns="http://www.w3.org/2000/svg">
    <path d="M0.628906 5.48047H3.78125V15.6172H0.628906V5.48047ZM2.21094 0.441406C3.21875 0.441406 4.03906 1.26172 4.03906 2.26953C4.03906 3.27734 3.21875 4.09766 2.21094 4.09766C1.19727 4.09766 0.382812 3.27734 0.382812 2.26953C0.382812 1.26172 1.19727 0.441406 2.21094 0.441406Z" fill="white"/>
    <path d="M5.76172 5.44531H8.7793V6.83398C9.20118 6.03711 10.3262 5.19922 11.8613 5.19922C15.0488 5.19922 15.582 7.29688 15.582 10.0273V15.582H12.4356V10.6543C12.4356 7.30484 8.91407 7.22697 8.91407 10.5664V15.582H5.76758L5.76172 5.44531Z" fill="white"/>
</svg>
