<svg width="17" height="13" viewBox="0 0 17 13" fill="none" xmlns="http://www.w3.org/2000/svg">
    <path d="M15.3219 11.4143L16.5 12.5679V12.6286H10.4232V12.5679L11.6634 11.4143C11.7874 11.2929 11.8494 11.1714 11.8494 10.9893V3.825C11.8494 3.52143 11.8494 3.09643 11.9114 2.73214L7.8189 12.75H7.75689L3.54035 3.52143C3.47835 3.27857 3.41634 3.27857 3.35433 3.15714V9.22857C3.29232 9.65357 3.35433 10.0179 3.54035 10.3821L5.21457 12.5679V12.6286H0.75V12.5679L2.42421 10.3214C2.61024 9.95714 2.67224 9.53214 2.61024 9.16786V2.48929C2.61024 2.18571 2.54823 1.82143 2.3002 1.57857L1.18406 0.0607143V0H5.52461L9.12106 7.83214L12.2835 0H16.5V0.0607143L15.3219 1.39643C15.1978 1.51786 15.1358 1.7 15.1358 1.82143V11.05C15.1358 11.1714 15.1978 11.3536 15.3219 11.4143Z" fill="white"/>
</svg>
