<svg width="20" height="17" viewBox="0 0 20 17" fill="none" xmlns="http://www.w3.org/2000/svg">
    <path d="M19.75 8.36463C19.75 7.17186 18.7424 6.2014 17.5038 6.2014C16.9529 6.2014 16.4333 6.39335 16.0232 6.74088C14.5378 5.82543 12.5558 5.24865 10.3695 5.18652L11.7072 0.780032L14.9917 1.36773C14.9916 1.39343 14.9864 1.41795 14.9878 1.44392C15.0277 2.19673 15.6959 2.77784 16.4776 2.73944C17.2593 2.70104 17.8627 2.05742 17.8229 1.30465C17.783 0.551843 17.1147 -0.0292744 16.333 0.00912457C15.8283 0.0339128 15.4012 0.312705 15.1702 0.708594L15.1691 0.708138L11.2111 0L9.63464 5.18531C7.44308 5.24157 5.45479 5.81501 3.963 6.72879C3.555 6.38875 3.0409 6.2014 2.4962 6.2014C1.25773 6.2014 0.25 7.17183 0.25 8.36463C0.25 9.10238 0.644374 9.78269 1.28299 10.1796C1.24419 10.3955 1.22204 10.6147 1.22204 10.8372C1.22204 13.9595 5.15212 16.5 9.9833 16.5C14.8145 16.5 18.7445 13.9595 18.7445 10.8372C18.7445 10.6211 18.7239 10.4082 18.6872 10.1983C19.3435 9.80447 19.75 9.11398 19.75 8.36463ZM5.81948 9.83694C5.81948 9.10325 6.43729 8.50796 7.20018 8.50796C7.96236 8.50796 8.58018 9.10325 8.58018 9.83694C8.58018 10.5713 7.96236 11.1663 7.20018 11.1663C6.43729 11.1663 5.81948 10.5713 5.81948 9.83694ZM13.2371 13.4325C13.196 13.4739 12.2055 14.4443 9.96716 14.4443C7.71729 14.4443 6.81726 13.4604 6.78019 13.4187C6.65335 13.276 6.67064 13.0612 6.81876 12.9395C6.96612 12.8184 7.187 12.834 7.31419 12.9745C7.33436 12.9957 8.08557 13.7648 9.9672 13.7648C11.8815 13.7648 12.7209 12.9685 12.7293 12.9607C12.8649 12.8277 13.088 12.8245 13.2273 12.9551C13.3658 13.0853 13.3709 13.2976 13.2371 13.4325ZM12.9626 11.1663C12.1997 11.1663 11.5819 10.5713 11.5819 9.83694C11.5819 9.10325 12.1997 8.50796 12.9626 8.50796C13.7248 8.50796 14.3426 9.10325 14.3426 9.83694C14.3426 10.5713 13.7248 11.1663 12.9626 11.1663Z" fill="white"/>
</svg>
