<svg width="20" height="16" viewBox="0 0 20 16" fill="none" xmlns="http://www.w3.org/2000/svg">
    <path d="M17.4496 4.22422C17.4483 4.20408 17.4573 4.18423 17.4736 4.1723C18.1581 3.67069 18.754 3.06609 19.2431 2.37198C19.277 2.32399 19.2259 2.26249 19.1716 2.28493C18.6121 2.51645 18.0246 2.68093 17.4239 2.77253C17.3616 2.78204 17.331 2.69702 17.3827 2.66092C18.0283 2.21036 18.5193 1.57524 18.7914 0.834008C18.81 0.783337 18.7549 0.73865 18.7079 0.765261C18.0034 1.16446 17.2356 1.45165 16.4421 1.61278C16.4223 1.61679 16.4015 1.6098 16.3875 1.59523C13.7581 -1.14999 9.09094 1.40675 9.86575 5.04026C9.87387 5.07835 9.84412 5.11529 9.80525 5.11309C6.78094 4.94186 3.96602 3.51259 2.03828 1.18083C2.01219 1.14926 1.96239 1.15332 1.94256 1.18916C1.01273 2.87017 1.47549 4.97187 3.00194 6.11294C3.04904 6.14815 3.02356 6.22402 2.96496 6.21918C2.44187 6.17597 1.93188 6.02462 1.46889 5.77268C1.45046 5.76265 1.42786 5.77591 1.42786 5.79689C1.42786 7.5362 2.60222 9.04597 4.26312 9.49572C4.32276 9.51187 4.32383 9.59744 4.26328 9.60973C3.80643 9.70249 3.33501 9.71185 2.87319 9.63482C2.8292 9.62748 2.79249 9.66928 2.80729 9.71136C3.31949 11.1671 4.65245 12.1774 6.19085 12.2709C6.24589 12.2742 6.2689 12.3446 6.22478 12.3777C4.71411 13.5102 2.81164 14.0501 0.934195 13.8958C0.872377 13.8908 0.845401 13.9734 0.898345 14.0057C7.95784 18.3142 18.0181 12.8504 17.4496 4.22422Z" fill="white"/>
</svg>
