<svg width="16" height="12" viewBox="0 0 16 12" fill="none" xmlns="http://www.w3.org/2000/svg">
    <path fill-rule="evenodd" clip-rule="evenodd" d="M15.614 3.10772C15.614 3.10772 15.4621 2.03694 14.9961 1.56526C14.4054 0.946476 13.743 0.943541 13.4393 0.907285C11.2649 0.75 8.0032 0.75 8.0032 0.75H7.99629C7.99629 0.75 4.73475 0.75 2.56022 0.907285C2.25652 0.943541 1.59441 0.946476 1.00343 1.56526C0.537442 2.03694 0.385854 3.10772 0.385854 3.10772C0.385854 3.10772 0.230469 4.36513 0.230469 5.62255V6.80158C0.230469 8.05882 0.385854 9.31623 0.385854 9.31623C0.385854 9.31623 0.537442 10.387 1.00343 10.8587C1.59441 11.4776 2.37082 11.4578 2.71664 11.5227C3.9599 11.642 7.99975 11.679 7.99975 11.679C7.99975 11.679 11.2649 11.674 13.4393 11.5168C13.743 11.4806 14.4054 11.4776 14.9961 10.8587C15.4621 10.387 15.614 9.31623 15.614 9.31623C15.614 9.31623 15.769 8.05882 15.769 6.80158V5.62255C15.769 4.36513 15.614 3.10772 15.614 3.10772ZM6.39565 8.22992L6.39496 3.8641L10.5935 6.05452L6.39565 8.22992Z" fill="white"/>
</svg>
