<svg width="500" height="320" viewBox="0 0 500 320" fill="none" xmlns="http://www.w3.org/2000/svg">
<rect width="500" height="320" fill="url(#paint0_linear)"/>
<g opacity="0.7181">
<path opacity="0.7181" fill-rule="evenodd" clip-rule="evenodd" d="M412.316 95.4552L418.599 91.7836L414.975 85.4312L408.693 89.1027L412.316 95.4552Z" fill="#073AB2"/>
</g>
<g opacity="0.0638919">
<path opacity="0.0638919" fill-rule="evenodd" clip-rule="evenodd" d="M291.69 71.443L297.099 76.2882L301.982 70.8937L296.573 66.0486L291.69 71.443Z" fill="#073AB2"/>
<path opacity="0.0638919" fill-rule="evenodd" clip-rule="evenodd" d="M291.69 71.443L297.099 76.2882L301.982 70.8937L296.573 66.0486L291.69 71.443Z" fill="#073AB2"/>
<path opacity="0.0638919" fill-rule="evenodd" clip-rule="evenodd" d="M291.69 71.443L297.099 76.2882L301.982 70.8937L296.573 66.0486L291.69 71.443Z" fill="#073AB2"/>
<path opacity="0.0638919" fill-rule="evenodd" clip-rule="evenodd" d="M291.69 71.443L297.099 76.2882L301.982 70.8937L296.573 66.0486L291.69 71.443Z" fill="#073AB2"/>
</g>
<g opacity="0.333995">
<path opacity="0.333995" fill-rule="evenodd" clip-rule="evenodd" d="M222.532 55.0128L219.596 61.6546L226.235 64.6312L229.172 57.9894L222.532 55.0128Z" fill="#073AB2"/>
<path opacity="0.333995" fill-rule="evenodd" clip-rule="evenodd" d="M222.532 55.0128L219.596 61.6546L226.235 64.6312L229.172 57.9894L222.532 55.0128Z" fill="#073AB2"/>
<path opacity="0.333995" fill-rule="evenodd" clip-rule="evenodd" d="M222.532 55.0128L219.596 61.6546L226.235 64.6312L229.172 57.9894L222.532 55.0128Z" fill="#073AB2"/>
<path opacity="0.333995" fill-rule="evenodd" clip-rule="evenodd" d="M222.532 55.0128L219.596 61.6546L226.235 64.6312L229.172 57.9894L222.532 55.0128Z" fill="#073AB2"/>
</g>
<g opacity="0.0942477">
<path opacity="0.0942477" fill-rule="evenodd" clip-rule="evenodd" d="M145.969 81.6359L138.745 80.8956L137.966 88.1297L145.19 88.8699L145.969 81.6359Z" fill="#073AB2"/>
<path opacity="0.0942477" fill-rule="evenodd" clip-rule="evenodd" d="M145.969 81.6359L138.745 80.8956L137.966 88.1297L145.19 88.8699L145.969 81.6359Z" fill="#073AB2"/>
<path opacity="0.0942477" fill-rule="evenodd" clip-rule="evenodd" d="M145.969 81.6359L138.745 80.8956L137.966 88.1297L145.19 88.8699L145.969 81.6359Z" fill="#073AB2"/>
<path opacity="0.0942477" fill-rule="evenodd" clip-rule="evenodd" d="M145.969 81.6359L138.745 80.8956L137.966 88.1297L145.19 88.8699L145.969 81.6359Z" fill="#073AB2"/>
</g>
<g opacity="0.258594">
<path opacity="0.258594" fill-rule="evenodd" clip-rule="evenodd" d="M436.129 166.073L434.6 158.974L427.479 160.468L429.008 167.567L436.129 166.073Z" fill="#073AB2"/>
<path opacity="0.258594" fill-rule="evenodd" clip-rule="evenodd" d="M436.129 166.073L434.6 158.974L427.479 160.468L429.008 167.567L436.129 166.073Z" fill="#073AB2"/>
<path opacity="0.258594" fill-rule="evenodd" clip-rule="evenodd" d="M436.129 166.073L434.6 158.974L427.479 160.468L429.008 167.567L436.129 166.073Z" fill="#073AB2"/>
<path opacity="0.258594" fill-rule="evenodd" clip-rule="evenodd" d="M436.129 166.073L434.6 158.974L427.479 160.468L429.008 167.567L436.129 166.073Z" fill="#073AB2"/>
</g>
<g opacity="0.987637">
<path opacity="0.987637" fill-rule="evenodd" clip-rule="evenodd" d="M189.201 122.997L194.61 127.842L199.493 122.447L194.084 117.602L189.201 122.997Z" fill="#073AB2"/>
<path opacity="0.987637" fill-rule="evenodd" clip-rule="evenodd" d="M189.201 122.997L194.61 127.842L199.493 122.447L194.084 117.602L189.201 122.997Z" fill="#073AB2"/>
<path opacity="0.987637" fill-rule="evenodd" clip-rule="evenodd" d="M149.98 180.621L155.389 185.466L160.272 180.071L154.862 175.226L149.98 180.621Z" fill="#073AB2"/>
</g>
<g opacity="0.126778">
<path opacity="0.126778" fill-rule="evenodd" clip-rule="evenodd" d="M104.658 136.633L96.8764 154.234L114.47 162.122L122.252 144.521L104.658 136.633Z" fill="#073AB2"/>
<path opacity="0.126778" fill-rule="evenodd" clip-rule="evenodd" d="M120.043 106.566L117.107 113.208L123.746 116.185L126.682 109.543L120.043 106.566Z" fill="#073AB2"/>
<path opacity="0.126778" fill-rule="evenodd" clip-rule="evenodd" d="M120.043 106.566L117.107 113.208L123.746 116.185L126.682 109.543L120.043 106.566Z" fill="#073AB2"/>
<path opacity="0.126778" fill-rule="evenodd" clip-rule="evenodd" d="M120.043 106.566L117.107 113.208L123.746 116.185L126.682 109.543L120.043 106.566Z" fill="#073AB2"/>
<path opacity="0.126778" fill-rule="evenodd" clip-rule="evenodd" d="M120.043 106.566L117.107 113.208L123.746 116.185L126.682 109.543L120.043 106.566Z" fill="#073AB2"/>
</g>
<g opacity="0.0573566">
<path opacity="0.0573566" fill-rule="evenodd" clip-rule="evenodd" d="M453.437 184.742L446.213 184.002L445.433 191.236L452.657 191.976L453.437 184.742Z" fill="#073AB2"/>
<path opacity="0.0573566" fill-rule="evenodd" clip-rule="evenodd" d="M453.437 184.742L446.213 184.002L445.433 191.236L452.657 191.976L453.437 184.742Z" fill="#073AB2"/>
<path opacity="0.0573566" fill-rule="evenodd" clip-rule="evenodd" d="M453.437 184.742L446.213 184.002L445.433 191.236L452.657 191.976L453.437 184.742Z" fill="#073AB2"/>
<path opacity="0.0573566" fill-rule="evenodd" clip-rule="evenodd" d="M453.437 184.742L446.213 184.002L445.433 191.236L452.657 191.976L453.437 184.742Z" fill="#073AB2"/>
</g>
<g opacity="0.77071">
<path opacity="0.77071" fill-rule="evenodd" clip-rule="evenodd" d="M330.688 151.771L329.159 144.671L322.038 146.166L323.567 153.265L330.688 151.771Z" fill="#073AB2"/>
</g>
<g opacity="0.0849513">
<path opacity="0.0849513" fill-rule="evenodd" clip-rule="evenodd" d="M224.369 195.812L241.018 186.083L231.416 169.249L214.766 178.978L224.369 195.812Z" fill="#073AB2"/>
<path opacity="0.0849513" fill-rule="evenodd" clip-rule="evenodd" d="M194.233 211.195L200.516 207.524L196.892 201.171L190.61 204.843L194.233 211.195Z" fill="#073AB2"/>
<path opacity="0.0849513" fill-rule="evenodd" clip-rule="evenodd" d="M194.233 211.195L200.516 207.524L196.892 201.171L190.61 204.843L194.233 211.195Z" fill="#073AB2"/>
<path opacity="0.0849513" fill-rule="evenodd" clip-rule="evenodd" d="M194.233 211.195L200.516 207.524L196.892 201.171L190.61 204.843L194.233 211.195Z" fill="#073AB2"/>
<path opacity="0.0849513" fill-rule="evenodd" clip-rule="evenodd" d="M194.233 211.195L200.516 207.524L196.892 201.171L190.61 204.843L194.233 211.195Z" fill="#073AB2"/>
</g>
<g opacity="0.491178">
<path opacity="0.491178" fill-rule="evenodd" clip-rule="evenodd" d="M86.7119 174.55L92.1212 179.395L97.0038 174.001L91.5944 169.156L86.7119 174.55Z" fill="#073AB2"/>
<path opacity="0.491178" fill-rule="evenodd" clip-rule="evenodd" d="M86.7119 174.55L92.1212 179.395L97.0038 174.001L91.5944 169.156L86.7119 174.55Z" fill="#073AB2"/>
<path opacity="0.491178" fill-rule="evenodd" clip-rule="evenodd" d="M86.7119 174.55L92.1212 179.395L97.0038 174.001L91.5944 169.156L86.7119 174.55Z" fill="#073AB2"/>
<path opacity="0.491178" fill-rule="evenodd" clip-rule="evenodd" d="M86.7119 174.55L92.1212 179.395L97.0038 174.001L91.5944 169.156L86.7119 174.55Z" fill="#073AB2"/>
</g>
<g opacity="0.0214092">
<path opacity="0.0214092" fill-rule="evenodd" clip-rule="evenodd" d="M412.125 239.739L404.344 257.34L421.938 265.228L429.719 247.628L412.125 239.739Z" fill="#073AB2"/>
<path opacity="0.0214092" fill-rule="evenodd" clip-rule="evenodd" d="M427.51 209.673L424.574 216.315L431.213 219.291L434.15 212.65L427.51 209.673Z" fill="#073AB2"/>
<path opacity="0.0214092" fill-rule="evenodd" clip-rule="evenodd" d="M427.51 209.673L424.574 216.315L431.213 219.291L434.15 212.65L427.51 209.673Z" fill="#073AB2"/>
<path opacity="0.0214092" fill-rule="evenodd" clip-rule="evenodd" d="M427.51 209.673L424.574 216.315L431.213 219.291L434.15 212.65L427.51 209.673Z" fill="#073AB2"/>
<path opacity="0.0214092" fill-rule="evenodd" clip-rule="evenodd" d="M427.51 209.673L424.574 216.315L431.213 219.291L434.15 212.65L427.51 209.673Z" fill="#073AB2"/>
</g>
<g opacity="0.7181">
<path opacity="0.7181" fill-rule="evenodd" clip-rule="evenodd" d="M255.169 102.997L262.36 98.8456L258.213 91.6629L251.022 95.8143L255.169 102.997Z" fill="#073AB2"/>
<path opacity="0.7181" fill-rule="evenodd" clip-rule="evenodd" d="M242.153 109.56L244.867 107.994L243.302 105.283L240.588 106.85L242.153 109.56Z" fill="#073AB2"/>
<path opacity="0.7181" fill-rule="evenodd" clip-rule="evenodd" d="M242.153 109.56L244.867 107.994L243.302 105.283L240.588 106.85L242.153 109.56Z" fill="#073AB2"/>
<path opacity="0.7181" fill-rule="evenodd" clip-rule="evenodd" d="M242.153 109.56L244.867 107.994L243.302 105.283L240.588 106.85L242.153 109.56Z" fill="#073AB2"/>
<path opacity="0.7181" fill-rule="evenodd" clip-rule="evenodd" d="M242.153 109.56L244.867 107.994L243.302 105.283L240.588 106.85L242.153 109.56Z" fill="#073AB2"/>
</g>
<g opacity="0.0638919">
<path opacity="0.0638919" fill-rule="evenodd" clip-rule="evenodd" d="M205.786 104.267L211.955 109.834L217.496 103.667L211.327 98.1005L205.786 104.267Z" fill="#073AB2"/>
<path opacity="0.0638919" fill-rule="evenodd" clip-rule="evenodd" d="M195.522 93.8982L197.851 95.9988L199.941 93.6717L197.613 91.5711L195.522 93.8982Z" fill="#073AB2"/>
<path opacity="0.0638919" fill-rule="evenodd" clip-rule="evenodd" d="M195.522 93.8982L197.851 95.9988L199.941 93.6717L197.613 91.5711L195.522 93.8982Z" fill="#073AB2"/>
<path opacity="0.0638919" fill-rule="evenodd" clip-rule="evenodd" d="M195.522 93.8982L197.851 95.9988L199.941 93.6717L197.613 91.5711L195.522 93.8982Z" fill="#073AB2"/>
<path opacity="0.0638919" fill-rule="evenodd" clip-rule="evenodd" d="M195.522 93.8982L197.851 95.9988L199.941 93.6717L197.613 91.5711L195.522 93.8982Z" fill="#073AB2"/>
</g>
<g opacity="0.333995">
<path opacity="0.333995" fill-rule="evenodd" clip-rule="evenodd" d="M158.878 99.8435L155.491 107.431L163.068 110.795L166.456 103.208L158.878 99.8435Z" fill="#073AB2"/>
<path opacity="0.333995" fill-rule="evenodd" clip-rule="evenodd" d="M165.568 86.8781L164.29 89.7413L167.149 91.0108L168.428 88.1476L165.568 86.8781Z" fill="#073AB2"/>
<path opacity="0.333995" fill-rule="evenodd" clip-rule="evenodd" d="M165.568 86.8781L164.29 89.7413L167.149 91.0108L168.428 88.1476L165.568 86.8781Z" fill="#073AB2"/>
<path opacity="0.333995" fill-rule="evenodd" clip-rule="evenodd" d="M165.568 86.8781L164.29 89.7413L167.149 91.0108L168.428 88.1476L165.568 86.8781Z" fill="#073AB2"/>
<path opacity="0.333995" fill-rule="evenodd" clip-rule="evenodd" d="M165.568 86.8781L164.29 89.7413L167.149 91.0108L168.428 88.1476L165.568 86.8781Z" fill="#073AB2"/>
</g>
<g opacity="0.0942477">
<path opacity="0.0942477" fill-rule="evenodd" clip-rule="evenodd" d="M117.947 96.0424L109.684 95.1652L108.826 103.411L117.089 104.288L117.947 96.0424Z" fill="#073AB2"/>
<path opacity="0.0942477" fill-rule="evenodd" clip-rule="evenodd" d="M132.345 98.3984L129.227 98.0674L128.903 101.179L132.021 101.51L132.345 98.3984Z" fill="#073AB2"/>
<path opacity="0.0942477" fill-rule="evenodd" clip-rule="evenodd" d="M132.345 98.3984L129.227 98.0674L128.903 101.179L132.021 101.51L132.345 98.3984Z" fill="#073AB2"/>
<path opacity="0.0942477" fill-rule="evenodd" clip-rule="evenodd" d="M132.345 98.3984L129.227 98.0674L128.903 101.179L132.021 101.51L132.345 98.3984Z" fill="#073AB2"/>
<path opacity="0.0942477" fill-rule="evenodd" clip-rule="evenodd" d="M132.345 98.3984L129.227 98.0674L128.903 101.179L132.021 101.51L132.345 98.3984Z" fill="#073AB2"/>
</g>
<g opacity="0.258594">
<path opacity="0.258594" fill-rule="evenodd" clip-rule="evenodd" d="M255.661 120.237L253.942 112.108L245.834 113.84L247.553 121.969L255.661 120.237Z" fill="#073AB2"/>
<path opacity="0.258594" fill-rule="evenodd" clip-rule="evenodd" d="M257.869 134.659L257.221 131.591L254.161 132.244L254.81 135.312L257.869 134.659Z" fill="#073AB2"/>
<path opacity="0.258594" fill-rule="evenodd" clip-rule="evenodd" d="M257.869 134.659L257.221 131.591L254.161 132.244L254.81 135.312L257.869 134.659Z" fill="#073AB2"/>
<path opacity="0.258594" fill-rule="evenodd" clip-rule="evenodd" d="M257.869 134.659L257.221 131.591L254.161 132.244L254.81 135.312L257.869 134.659Z" fill="#073AB2"/>
<path opacity="0.258594" fill-rule="evenodd" clip-rule="evenodd" d="M257.869 134.659L257.221 131.591L254.161 132.244L254.81 135.312L257.869 134.659Z" fill="#073AB2"/>
</g>
<g opacity="0.86701">
<path opacity="0.86701" fill-rule="evenodd" clip-rule="evenodd" d="M167.88 67.9069L175.071 63.7555L170.923 56.5728L163.732 60.7242L167.88 67.9069Z" fill="#073AB2"/>
<path opacity="0.86701" fill-rule="evenodd" clip-rule="evenodd" d="M197.967 131.629L200.68 130.063L199.115 127.352L196.402 128.919L197.967 131.629Z" fill="#073AB2"/>
<path opacity="0.86701" fill-rule="evenodd" clip-rule="evenodd" d="M197.967 131.629L200.68 130.063L199.115 127.352L196.402 128.919L197.967 131.629Z" fill="#073AB2"/>
<path opacity="0.86701" fill-rule="evenodd" clip-rule="evenodd" d="M197.967 131.629L200.68 130.063L199.115 127.352L196.402 128.919L197.967 131.629Z" fill="#073AB2"/>
<path opacity="0.86701" fill-rule="evenodd" clip-rule="evenodd" d="M197.967 131.629L200.68 130.063L199.115 127.352L196.402 128.919L197.967 131.629Z" fill="#073AB2"/>
</g>
<g opacity="0.987637">
<path opacity="0.987637" fill-rule="evenodd" clip-rule="evenodd" d="M161.438 126.387L167.608 131.954L173.148 125.787L166.979 120.221L161.438 126.387Z" fill="#073AB2"/>
<path opacity="0.987637" fill-rule="evenodd" clip-rule="evenodd" d="M151.175 116.019L153.503 118.119L155.594 115.792L153.266 113.691L151.175 116.019Z" fill="#073AB2"/>
<path opacity="0.987637" fill-rule="evenodd" clip-rule="evenodd" d="M151.175 116.019L153.503 118.119L155.594 115.792L153.266 113.691L151.175 116.019Z" fill="#073AB2"/>
<path opacity="0.987637" fill-rule="evenodd" clip-rule="evenodd" d="M151.175 116.019L153.503 118.119L155.594 115.792L153.266 113.691L151.175 116.019Z" fill="#073AB2"/>
<path opacity="0.987637" fill-rule="evenodd" clip-rule="evenodd" d="M151.175 116.019L153.503 118.119L155.594 115.792L153.266 113.691L151.175 116.019Z" fill="#073AB2"/>
</g>
<g opacity="0.126778">
<path opacity="0.126778" fill-rule="evenodd" clip-rule="evenodd" d="M114.531 121.963L111.143 129.551L118.72 132.915L122.108 125.328L114.531 121.963Z" fill="#073AB2"/>
<path opacity="0.126778" fill-rule="evenodd" clip-rule="evenodd" d="M121.221 108.998L119.942 111.861L122.802 113.131L124.08 110.267L121.221 108.998Z" fill="#073AB2"/>
<path opacity="0.126778" fill-rule="evenodd" clip-rule="evenodd" d="M121.221 108.998L119.942 111.861L122.802 113.131L124.08 110.267L121.221 108.998Z" fill="#073AB2"/>
<path opacity="0.126778" fill-rule="evenodd" clip-rule="evenodd" d="M121.221 108.998L119.942 111.861L122.802 113.131L124.08 110.267L121.221 108.998Z" fill="#073AB2"/>
<path opacity="0.126778" fill-rule="evenodd" clip-rule="evenodd" d="M121.221 108.998L119.942 111.861L122.802 113.131L124.08 110.267L121.221 108.998Z" fill="#073AB2"/>
</g>
<g opacity="0.0573566">
<path opacity="0.0573566" fill-rule="evenodd" clip-rule="evenodd" d="M250.99 140.283L242.727 139.406L241.869 147.652L250.132 148.529L250.99 140.283Z" fill="#073AB2"/>
<path opacity="0.0573566" fill-rule="evenodd" clip-rule="evenodd" d="M265.388 142.639L262.27 142.308L261.946 145.42L265.064 145.751L265.388 142.639Z" fill="#073AB2"/>
<path opacity="0.0573566" fill-rule="evenodd" clip-rule="evenodd" d="M265.388 142.639L262.27 142.308L261.946 145.42L265.064 145.751L265.388 142.639Z" fill="#073AB2"/>
<path opacity="0.0573566" fill-rule="evenodd" clip-rule="evenodd" d="M265.388 142.639L262.27 142.308L261.946 145.42L265.064 145.751L265.388 142.639Z" fill="#073AB2"/>
<path opacity="0.0573566" fill-rule="evenodd" clip-rule="evenodd" d="M265.388 142.639L262.27 142.308L261.946 145.42L265.064 145.751L265.388 142.639Z" fill="#073AB2"/>
</g>
<g opacity="0.77071">
<path opacity="0.77071" fill-rule="evenodd" clip-rule="evenodd" d="M211.313 142.357L209.594 134.228L201.487 135.96L203.206 144.09L211.313 142.357Z" fill="#073AB2"/>
<path opacity="0.77071" fill-rule="evenodd" clip-rule="evenodd" d="M213.522 156.779L212.873 153.711L209.814 154.365L210.462 157.433L213.522 156.779Z" fill="#073AB2"/>
<path opacity="0.77071" fill-rule="evenodd" clip-rule="evenodd" d="M213.522 156.779L212.873 153.711L209.814 154.365L210.462 157.433L213.522 156.779Z" fill="#073AB2"/>
<path opacity="0.77071" fill-rule="evenodd" clip-rule="evenodd" d="M213.522 156.779L212.873 153.711L209.814 154.365L210.462 157.433L213.522 156.779Z" fill="#073AB2"/>
<path opacity="0.77071" fill-rule="evenodd" clip-rule="evenodd" d="M213.522 156.779L212.873 153.711L209.814 154.365L210.462 157.433L213.522 156.779Z" fill="#073AB2"/>
</g>
<g opacity="0.0849513">
<path opacity="0.0849513" fill-rule="evenodd" clip-rule="evenodd" d="M166.229 147.7L173.421 143.549L169.273 136.366L162.082 140.518L166.229 147.7Z" fill="#073AB2"/>
<path opacity="0.0849513" fill-rule="evenodd" clip-rule="evenodd" d="M153.213 154.264L155.927 152.697L154.362 149.987L151.648 151.553L153.213 154.264Z" fill="#073AB2"/>
<path opacity="0.0849513" fill-rule="evenodd" clip-rule="evenodd" d="M153.213 154.264L155.927 152.697L154.362 149.987L151.648 151.553L153.213 154.264Z" fill="#073AB2"/>
<path opacity="0.0849513" fill-rule="evenodd" clip-rule="evenodd" d="M153.213 154.264L155.927 152.697L154.362 149.987L151.648 151.553L153.213 154.264Z" fill="#073AB2"/>
<path opacity="0.0849513" fill-rule="evenodd" clip-rule="evenodd" d="M153.213 154.264L155.927 152.697L154.362 149.987L151.648 151.553L153.213 154.264Z" fill="#073AB2"/>
</g>
<g opacity="0.491178">
<path opacity="0.491178" fill-rule="evenodd" clip-rule="evenodd" d="M117.091 148.508L123.26 154.074L128.801 147.907L122.632 142.341L117.091 148.508Z" fill="#073AB2"/>
<path opacity="0.491178" fill-rule="evenodd" clip-rule="evenodd" d="M106.827 138.139L109.155 140.239L111.246 137.912L108.918 135.812L106.827 138.139Z" fill="#073AB2"/>
<path opacity="0.491178" fill-rule="evenodd" clip-rule="evenodd" d="M106.827 138.139L109.155 140.239L111.246 137.912L108.918 135.812L106.827 138.139Z" fill="#073AB2"/>
<path opacity="0.491178" fill-rule="evenodd" clip-rule="evenodd" d="M106.827 138.139L109.155 140.239L111.246 137.912L108.918 135.812L106.827 138.139Z" fill="#073AB2"/>
<path opacity="0.491178" fill-rule="evenodd" clip-rule="evenodd" d="M106.827 138.139L109.155 140.239L111.246 137.912L108.918 135.812L106.827 138.139Z" fill="#073AB2"/>
</g>
<g opacity="0.0214092">
<path opacity="0.0214092" fill-rule="evenodd" clip-rule="evenodd" d="M247.574 166.205L244.186 173.792L251.763 177.156L255.151 169.569L247.574 166.205Z" fill="#073AB2"/>
<path opacity="0.0214092" fill-rule="evenodd" clip-rule="evenodd" d="M254.264 153.239L252.985 156.102L255.845 157.372L257.123 154.509L254.264 153.239Z" fill="#073AB2"/>
<path opacity="0.0214092" fill-rule="evenodd" clip-rule="evenodd" d="M254.264 153.239L252.985 156.102L255.845 157.372L257.123 154.509L254.264 153.239Z" fill="#073AB2"/>
<path opacity="0.0214092" fill-rule="evenodd" clip-rule="evenodd" d="M254.264 153.239L252.985 156.102L255.845 157.372L257.123 154.509L254.264 153.239Z" fill="#073AB2"/>
<path opacity="0.0214092" fill-rule="evenodd" clip-rule="evenodd" d="M254.264 153.239L252.985 156.102L255.845 157.372L257.123 154.509L254.264 153.239Z" fill="#073AB2"/>
</g>
<g opacity="0.0967655">
<path opacity="0.0967655" fill-rule="evenodd" clip-rule="evenodd" d="M206.642 162.403L198.379 161.526L197.521 169.772L205.784 170.649L206.642 162.403Z" fill="#073AB2"/>
<path opacity="0.0967655" fill-rule="evenodd" clip-rule="evenodd" d="M221.04 164.759L217.922 164.428L217.598 167.54L220.717 167.871L221.04 164.759Z" fill="#073AB2"/>
<path opacity="0.0967655" fill-rule="evenodd" clip-rule="evenodd" d="M221.04 164.759L217.922 164.428L217.598 167.54L220.717 167.871L221.04 164.759Z" fill="#073AB2"/>
<path opacity="0.0967655" fill-rule="evenodd" clip-rule="evenodd" d="M221.04 164.759L217.922 164.428L217.598 167.54L220.717 167.871L221.04 164.759Z" fill="#073AB2"/>
<path opacity="0.0967655" fill-rule="evenodd" clip-rule="evenodd" d="M221.04 164.759L217.922 164.428L217.598 167.54L220.717 167.871L221.04 164.759Z" fill="#073AB2"/>
</g>
<g opacity="0.966525">
<path opacity="0.966525" fill-rule="evenodd" clip-rule="evenodd" d="M166.966 164.478L165.246 156.348L157.139 158.08L158.858 166.21L166.966 164.478Z" fill="#073AB2"/>
<path opacity="0.966525" fill-rule="evenodd" clip-rule="evenodd" d="M169.174 178.899L168.525 175.832L165.466 176.485L166.115 179.553L169.174 178.899Z" fill="#073AB2"/>
<path opacity="0.966525" fill-rule="evenodd" clip-rule="evenodd" d="M169.174 178.899L168.525 175.832L165.466 176.485L166.115 179.553L169.174 178.899Z" fill="#073AB2"/>
<path opacity="0.966525" fill-rule="evenodd" clip-rule="evenodd" d="M169.174 178.899L168.525 175.832L165.466 176.485L166.115 179.553L169.174 178.899Z" fill="#073AB2"/>
<path opacity="0.966525" fill-rule="evenodd" clip-rule="evenodd" d="M169.174 178.899L168.525 175.832L165.466 176.485L166.115 179.553L169.174 178.899Z" fill="#073AB2"/>
</g>
<g opacity="0.919239">
<path opacity="0.919239" fill-rule="evenodd" clip-rule="evenodd" d="M122.043 169.77L129.234 165.619L125.087 158.436L117.895 162.587L122.043 169.77Z" fill="#073AB2"/>
<path opacity="0.919239" fill-rule="evenodd" clip-rule="evenodd" d="M109.027 176.334L111.74 174.767L110.175 172.057L107.462 173.623L109.027 176.334Z" fill="#073AB2"/>
<path opacity="0.919239" fill-rule="evenodd" clip-rule="evenodd" d="M109.027 176.334L111.74 174.767L110.175 172.057L107.462 173.623L109.027 176.334Z" fill="#073AB2"/>
<path opacity="0.919239" fill-rule="evenodd" clip-rule="evenodd" d="M109.027 176.334L111.74 174.767L110.175 172.057L107.462 173.623L109.027 176.334Z" fill="#073AB2"/>
<path opacity="0.919239" fill-rule="evenodd" clip-rule="evenodd" d="M109.027 176.334L111.74 174.767L110.175 172.057L107.462 173.623L109.027 176.334Z" fill="#073AB2"/>
</g>
<g opacity="0.731771">
<g opacity="0.731771">
<g opacity="0.7181">
<path opacity="0.7181" fill-rule="evenodd" clip-rule="evenodd" d="M382.294 59.4286L388.577 55.757L384.953 49.4046L378.67 53.0761L382.294 59.4286Z" fill="#073AB2"/>
</g>
<g opacity="0.0638919">
<path opacity="0.0638919" fill-rule="evenodd" clip-rule="evenodd" d="M261.668 35.4164L267.077 40.2615L271.959 34.8671L266.55 30.022L261.668 35.4164Z" fill="#073AB2"/>
<path opacity="0.0638919" fill-rule="evenodd" clip-rule="evenodd" d="M261.668 35.4164L267.077 40.2615L271.959 34.8671L266.55 30.022L261.668 35.4164Z" fill="#073AB2"/>
<path opacity="0.0638919" fill-rule="evenodd" clip-rule="evenodd" d="M261.668 35.4164L267.077 40.2615L271.959 34.8671L266.55 30.022L261.668 35.4164Z" fill="#073AB2"/>
<path opacity="0.0638919" fill-rule="evenodd" clip-rule="evenodd" d="M261.668 35.4164L267.077 40.2615L271.959 34.8671L266.55 30.022L261.668 35.4164Z" fill="#073AB2"/>
</g>
<g opacity="0.333995">
<path opacity="0.333995" fill-rule="evenodd" clip-rule="evenodd" d="M192.51 18.9859L189.573 25.6277L196.213 28.6044L199.149 21.9626L192.51 18.9859Z" fill="#073AB2"/>
<path opacity="0.333995" fill-rule="evenodd" clip-rule="evenodd" d="M192.51 18.9859L189.573 25.6277L196.213 28.6044L199.149 21.9626L192.51 18.9859Z" fill="#073AB2"/>
<path opacity="0.333995" fill-rule="evenodd" clip-rule="evenodd" d="M192.51 18.9859L189.573 25.6277L196.213 28.6044L199.149 21.9626L192.51 18.9859Z" fill="#073AB2"/>
<path opacity="0.333995" fill-rule="evenodd" clip-rule="evenodd" d="M192.51 18.9859L189.573 25.6277L196.213 28.6044L199.149 21.9626L192.51 18.9859Z" fill="#073AB2"/>
</g>
<g opacity="0.0942477">
<path opacity="0.0942477" fill-rule="evenodd" clip-rule="evenodd" d="M115.947 45.609L108.723 44.8688L107.943 52.1028L115.168 52.8431L115.947 45.609Z" fill="#073AB2"/>
<path opacity="0.0942477" fill-rule="evenodd" clip-rule="evenodd" d="M115.947 45.609L108.723 44.8688L107.943 52.1028L115.168 52.8431L115.947 45.609Z" fill="#073AB2"/>
<path opacity="0.0942477" fill-rule="evenodd" clip-rule="evenodd" d="M115.947 45.609L108.723 44.8688L107.943 52.1028L115.168 52.8431L115.947 45.609Z" fill="#073AB2"/>
<path opacity="0.0942477" fill-rule="evenodd" clip-rule="evenodd" d="M115.947 45.609L108.723 44.8688L107.943 52.1028L115.168 52.8431L115.947 45.609Z" fill="#073AB2"/>
</g>
<g opacity="0.258594">
<path opacity="0.258594" fill-rule="evenodd" clip-rule="evenodd" d="M406.106 130.046L404.578 122.947L397.457 124.441L398.985 131.541L406.106 130.046Z" fill="#073AB2"/>
<path opacity="0.258594" fill-rule="evenodd" clip-rule="evenodd" d="M406.106 130.046L404.578 122.947L397.457 124.441L398.985 131.541L406.106 130.046Z" fill="#073AB2"/>
<path opacity="0.258594" fill-rule="evenodd" clip-rule="evenodd" d="M406.106 130.046L404.578 122.947L397.457 124.441L398.985 131.541L406.106 130.046Z" fill="#073AB2"/>
<path opacity="0.258594" fill-rule="evenodd" clip-rule="evenodd" d="M406.106 130.046L404.578 122.947L397.457 124.441L398.985 131.541L406.106 130.046Z" fill="#073AB2"/>
</g>
<g opacity="0.987637">
<path opacity="0.987637" fill-rule="evenodd" clip-rule="evenodd" d="M159.178 86.9697L164.588 91.8148L169.47 86.4204L164.061 81.5753L159.178 86.9697Z" fill="#073AB2"/>
<path opacity="0.987637" fill-rule="evenodd" clip-rule="evenodd" d="M159.178 86.9697L164.588 91.8148L169.47 86.4204L164.061 81.5753L159.178 86.9697Z" fill="#073AB2"/>
<path opacity="0.987637" fill-rule="evenodd" clip-rule="evenodd" d="M119.957 144.594L125.367 149.439L130.249 144.045L124.84 139.2L119.957 144.594Z" fill="#073AB2"/>
</g>
<g opacity="0.126778">
<path opacity="0.126778" fill-rule="evenodd" clip-rule="evenodd" d="M74.6355 100.606L66.854 118.207L84.4479 126.095L92.2293 108.494L74.6355 100.606Z" fill="#073AB2"/>
<path opacity="0.126778" fill-rule="evenodd" clip-rule="evenodd" d="M90.0207 70.5394L87.0843 77.1812L93.7235 80.1578L96.6599 73.516L90.0207 70.5394Z" fill="#073AB2"/>
<path opacity="0.126778" fill-rule="evenodd" clip-rule="evenodd" d="M90.0207 70.5394L87.0843 77.1812L93.7235 80.1578L96.6599 73.516L90.0207 70.5394Z" fill="#073AB2"/>
<path opacity="0.126778" fill-rule="evenodd" clip-rule="evenodd" d="M90.0207 70.5394L87.0843 77.1812L93.7235 80.1578L96.6599 73.516L90.0207 70.5394Z" fill="#073AB2"/>
<path opacity="0.126778" fill-rule="evenodd" clip-rule="evenodd" d="M90.0207 70.5394L87.0843 77.1812L93.7235 80.1578L96.6599 73.516L90.0207 70.5394Z" fill="#073AB2"/>
</g>
<g opacity="0.0573566">
<path opacity="0.0573566" fill-rule="evenodd" clip-rule="evenodd" d="M423.414 148.716L416.19 147.975L415.411 155.21L422.635 155.95L423.414 148.716Z" fill="#073AB2"/>
<path opacity="0.0573566" fill-rule="evenodd" clip-rule="evenodd" d="M423.414 148.716L416.19 147.975L415.411 155.21L422.635 155.95L423.414 148.716Z" fill="#073AB2"/>
<path opacity="0.0573566" fill-rule="evenodd" clip-rule="evenodd" d="M423.414 148.716L416.19 147.975L415.411 155.21L422.635 155.95L423.414 148.716Z" fill="#073AB2"/>
<path opacity="0.0573566" fill-rule="evenodd" clip-rule="evenodd" d="M423.414 148.716L416.19 147.975L415.411 155.21L422.635 155.95L423.414 148.716Z" fill="#073AB2"/>
</g>
<g opacity="0.77071">
<path opacity="0.77071" fill-rule="evenodd" clip-rule="evenodd" d="M300.665 115.744L299.137 108.644L292.016 110.139L293.544 117.238L300.665 115.744Z" fill="#073AB2"/>
</g>
<g opacity="0.0849513">
<path opacity="0.0849513" fill-rule="evenodd" clip-rule="evenodd" d="M194.346 159.785L210.995 150.056L201.393 133.222L184.744 142.951L194.346 159.785Z" fill="#073AB2"/>
<path opacity="0.0849513" fill-rule="evenodd" clip-rule="evenodd" d="M164.211 175.168L170.493 171.497L166.87 165.144L160.587 168.816L164.211 175.168Z" fill="#073AB2"/>
<path opacity="0.0849513" fill-rule="evenodd" clip-rule="evenodd" d="M164.211 175.168L170.493 171.497L166.87 165.144L160.587 168.816L164.211 175.168Z" fill="#073AB2"/>
<path opacity="0.0849513" fill-rule="evenodd" clip-rule="evenodd" d="M164.211 175.168L170.493 171.497L166.87 165.144L160.587 168.816L164.211 175.168Z" fill="#073AB2"/>
<path opacity="0.0849513" fill-rule="evenodd" clip-rule="evenodd" d="M164.211 175.168L170.493 171.497L166.87 165.144L160.587 168.816L164.211 175.168Z" fill="#073AB2"/>
</g>
<g opacity="0.491178">
<path opacity="0.491178" fill-rule="evenodd" clip-rule="evenodd" d="M56.6893 138.523L62.0987 143.368L66.9812 137.974L61.5719 133.129L56.6893 138.523Z" fill="#073AB2"/>
<path opacity="0.491178" fill-rule="evenodd" clip-rule="evenodd" d="M56.6893 138.523L62.0987 143.368L66.9812 137.974L61.5719 133.129L56.6893 138.523Z" fill="#073AB2"/>
<path opacity="0.491178" fill-rule="evenodd" clip-rule="evenodd" d="M56.6893 138.523L62.0987 143.368L66.9812 137.974L61.5719 133.129L56.6893 138.523Z" fill="#073AB2"/>
<path opacity="0.491178" fill-rule="evenodd" clip-rule="evenodd" d="M56.6893 138.523L62.0987 143.368L66.9812 137.974L61.5719 133.129L56.6893 138.523Z" fill="#073AB2"/>
</g>
<g opacity="0.0214092">
<path opacity="0.0214092" fill-rule="evenodd" clip-rule="evenodd" d="M382.103 203.713L374.321 221.314L391.915 229.202L399.696 211.601L382.103 203.713Z" fill="#073AB2"/>
<path opacity="0.0214092" fill-rule="evenodd" clip-rule="evenodd" d="M397.488 173.646L394.552 180.288L401.191 183.265L404.127 176.623L397.488 173.646Z" fill="#073AB2"/>
<path opacity="0.0214092" fill-rule="evenodd" clip-rule="evenodd" d="M397.488 173.646L394.552 180.288L401.191 183.265L404.127 176.623L397.488 173.646Z" fill="#073AB2"/>
<path opacity="0.0214092" fill-rule="evenodd" clip-rule="evenodd" d="M397.488 173.646L394.552 180.288L401.191 183.265L404.127 176.623L397.488 173.646Z" fill="#073AB2"/>
<path opacity="0.0214092" fill-rule="evenodd" clip-rule="evenodd" d="M397.488 173.646L394.552 180.288L401.191 183.265L404.127 176.623L397.488 173.646Z" fill="#073AB2"/>
</g>
</g>
<g opacity="0.731771">
<g opacity="0.7181">
<path opacity="0.7181" fill-rule="evenodd" clip-rule="evenodd" d="M225.147 66.9701L232.338 62.8187L228.191 55.636L220.999 59.7874L225.147 66.9701Z" fill="#073AB2"/>
<path opacity="0.7181" fill-rule="evenodd" clip-rule="evenodd" d="M212.131 73.5338L214.844 71.9672L213.279 69.2567L210.566 70.8233L212.131 73.5338Z" fill="#073AB2"/>
<path opacity="0.7181" fill-rule="evenodd" clip-rule="evenodd" d="M212.131 73.5338L214.844 71.9672L213.279 69.2567L210.566 70.8233L212.131 73.5338Z" fill="#073AB2"/>
<path opacity="0.7181" fill-rule="evenodd" clip-rule="evenodd" d="M212.131 73.5338L214.844 71.9672L213.279 69.2567L210.566 70.8233L212.131 73.5338Z" fill="#073AB2"/>
<path opacity="0.7181" fill-rule="evenodd" clip-rule="evenodd" d="M212.131 73.5338L214.844 71.9672L213.279 69.2567L210.566 70.8233L212.131 73.5338Z" fill="#073AB2"/>
</g>
<g opacity="0.0638919">
<path opacity="0.0638919" fill-rule="evenodd" clip-rule="evenodd" d="M175.763 68.24L181.933 73.8066L187.474 67.6397L181.304 62.0732L175.763 68.24Z" fill="#073AB2"/>
<path opacity="0.0638919" fill-rule="evenodd" clip-rule="evenodd" d="M165.5 57.8714L167.828 59.972L169.919 57.6449L167.591 55.5443L165.5 57.8714Z" fill="#073AB2"/>
<path opacity="0.0638919" fill-rule="evenodd" clip-rule="evenodd" d="M165.5 57.8714L167.828 59.972L169.919 57.6449L167.591 55.5443L165.5 57.8714Z" fill="#073AB2"/>
<path opacity="0.0638919" fill-rule="evenodd" clip-rule="evenodd" d="M165.5 57.8714L167.828 59.972L169.919 57.6449L167.591 55.5443L165.5 57.8714Z" fill="#073AB2"/>
<path opacity="0.0638919" fill-rule="evenodd" clip-rule="evenodd" d="M165.5 57.8714L167.828 59.972L169.919 57.6449L167.591 55.5443L165.5 57.8714Z" fill="#073AB2"/>
</g>
<g opacity="0.333995">
<path opacity="0.333995" fill-rule="evenodd" clip-rule="evenodd" d="M128.856 63.8164L125.468 71.404L133.046 74.7681L136.433 67.1805L128.856 63.8164Z" fill="#073AB2"/>
<path opacity="0.333995" fill-rule="evenodd" clip-rule="evenodd" d="M135.546 50.8512L134.268 53.7145L137.127 54.9839L138.405 52.1207L135.546 50.8512Z" fill="#073AB2"/>
<path opacity="0.333995" fill-rule="evenodd" clip-rule="evenodd" d="M135.546 50.8512L134.268 53.7145L137.127 54.9839L138.405 52.1207L135.546 50.8512Z" fill="#073AB2"/>
<path opacity="0.333995" fill-rule="evenodd" clip-rule="evenodd" d="M135.546 50.8512L134.268 53.7145L137.127 54.9839L138.405 52.1207L135.546 50.8512Z" fill="#073AB2"/>
<path opacity="0.333995" fill-rule="evenodd" clip-rule="evenodd" d="M135.546 50.8512L134.268 53.7145L137.127 54.9839L138.405 52.1207L135.546 50.8512Z" fill="#073AB2"/>
</g>
<g opacity="0.0942477">
<path opacity="0.0942477" fill-rule="evenodd" clip-rule="evenodd" d="M87.9247 60.0153L79.6616 59.1381L78.8037 67.3841L87.0667 68.2613L87.9247 60.0153Z" fill="#073AB2"/>
<path opacity="0.0942477" fill-rule="evenodd" clip-rule="evenodd" d="M102.323 62.3713L99.2045 62.0403L98.8807 65.152L101.999 65.483L102.323 62.3713Z" fill="#073AB2"/>
<path opacity="0.0942477" fill-rule="evenodd" clip-rule="evenodd" d="M102.323 62.3713L99.2045 62.0403L98.8807 65.152L101.999 65.483L102.323 62.3713Z" fill="#073AB2"/>
<path opacity="0.0942477" fill-rule="evenodd" clip-rule="evenodd" d="M102.323 62.3713L99.2045 62.0403L98.8807 65.152L101.999 65.483L102.323 62.3713Z" fill="#073AB2"/>
<path opacity="0.0942477" fill-rule="evenodd" clip-rule="evenodd" d="M102.323 62.3713L99.2045 62.0403L98.8807 65.152L101.999 65.483L102.323 62.3713Z" fill="#073AB2"/>
</g>
<g opacity="0.258594">
<path opacity="0.258594" fill-rule="evenodd" clip-rule="evenodd" d="M225.638 84.2104L223.919 76.0807L215.812 77.8129L217.531 85.9426L225.638 84.2104Z" fill="#073AB2"/>
<path opacity="0.258594" fill-rule="evenodd" clip-rule="evenodd" d="M227.847 98.6318L227.198 95.564L224.139 96.2176L224.788 99.2854L227.847 98.6318Z" fill="#073AB2"/>
<path opacity="0.258594" fill-rule="evenodd" clip-rule="evenodd" d="M227.847 98.6318L227.198 95.564L224.139 96.2176L224.788 99.2854L227.847 98.6318Z" fill="#073AB2"/>
<path opacity="0.258594" fill-rule="evenodd" clip-rule="evenodd" d="M227.847 98.6318L227.198 95.564L224.139 96.2176L224.788 99.2854L227.847 98.6318Z" fill="#073AB2"/>
<path opacity="0.258594" fill-rule="evenodd" clip-rule="evenodd" d="M227.847 98.6318L227.198 95.564L224.139 96.2176L224.788 99.2854L227.847 98.6318Z" fill="#073AB2"/>
</g>
<g opacity="0.86701">
<path opacity="0.86701" fill-rule="evenodd" clip-rule="evenodd" d="M137.857 31.8798L145.048 27.7284L140.901 20.5457L133.71 24.6971L137.857 31.8798Z" fill="#073AB2"/>
<path opacity="0.86701" fill-rule="evenodd" clip-rule="evenodd" d="M167.944 95.6021L170.658 94.0355L169.093 91.3251L166.379 92.8917L167.944 95.6021Z" fill="#073AB2"/>
<path opacity="0.86701" fill-rule="evenodd" clip-rule="evenodd" d="M167.944 95.6021L170.658 94.0355L169.093 91.3251L166.379 92.8917L167.944 95.6021Z" fill="#073AB2"/>
<path opacity="0.86701" fill-rule="evenodd" clip-rule="evenodd" d="M167.944 95.6021L170.658 94.0355L169.093 91.3251L166.379 92.8917L167.944 95.6021Z" fill="#073AB2"/>
<path opacity="0.86701" fill-rule="evenodd" clip-rule="evenodd" d="M167.944 95.6021L170.658 94.0355L169.093 91.3251L166.379 92.8917L167.944 95.6021Z" fill="#073AB2"/>
</g>
<g opacity="0.987637">
<path opacity="0.987637" fill-rule="evenodd" clip-rule="evenodd" d="M131.416 90.3599L137.585 95.9264L143.126 89.7596L136.957 84.193L131.416 90.3599Z" fill="#073AB2"/>
<path opacity="0.987637" fill-rule="evenodd" clip-rule="evenodd" d="M121.152 79.9912L123.48 82.0918L125.571 79.7647L123.243 77.6641L121.152 79.9912Z" fill="#073AB2"/>
<path opacity="0.987637" fill-rule="evenodd" clip-rule="evenodd" d="M121.152 79.9912L123.48 82.0918L125.571 79.7647L123.243 77.6641L121.152 79.9912Z" fill="#073AB2"/>
<path opacity="0.987637" fill-rule="evenodd" clip-rule="evenodd" d="M121.152 79.9912L123.48 82.0918L125.571 79.7647L123.243 77.6641L121.152 79.9912Z" fill="#073AB2"/>
<path opacity="0.987637" fill-rule="evenodd" clip-rule="evenodd" d="M121.152 79.9912L123.48 82.0918L125.571 79.7647L123.243 77.6641L121.152 79.9912Z" fill="#073AB2"/>
</g>
<g opacity="0.126778">
<path opacity="0.126778" fill-rule="evenodd" clip-rule="evenodd" d="M84.5086 85.9368L81.1209 93.5243L88.6981 96.8885L92.0858 89.3009L84.5086 85.9368Z" fill="#073AB2"/>
<path opacity="0.126778" fill-rule="evenodd" clip-rule="evenodd" d="M91.1985 72.9713L89.9201 75.8346L92.7794 77.104L94.0578 74.2408L91.1985 72.9713Z" fill="#073AB2"/>
<path opacity="0.126778" fill-rule="evenodd" clip-rule="evenodd" d="M91.1985 72.9713L89.9201 75.8346L92.7794 77.104L94.0578 74.2408L91.1985 72.9713Z" fill="#073AB2"/>
<path opacity="0.126778" fill-rule="evenodd" clip-rule="evenodd" d="M91.1985 72.9713L89.9201 75.8346L92.7794 77.104L94.0578 74.2408L91.1985 72.9713Z" fill="#073AB2"/>
<path opacity="0.126778" fill-rule="evenodd" clip-rule="evenodd" d="M91.1985 72.9713L89.9201 75.8346L92.7794 77.104L94.0578 74.2408L91.1985 72.9713Z" fill="#073AB2"/>
</g>
<g opacity="0.0573566">
<path opacity="0.0573566" fill-rule="evenodd" clip-rule="evenodd" d="M220.968 104.256L212.704 103.379L211.847 111.625L220.11 112.502L220.968 104.256Z" fill="#073AB2"/>
<path opacity="0.0573566" fill-rule="evenodd" clip-rule="evenodd" d="M235.366 106.612L232.247 106.281L231.924 109.393L235.042 109.724L235.366 106.612Z" fill="#073AB2"/>
<path opacity="0.0573566" fill-rule="evenodd" clip-rule="evenodd" d="M235.366 106.612L232.247 106.281L231.924 109.393L235.042 109.724L235.366 106.612Z" fill="#073AB2"/>
<path opacity="0.0573566" fill-rule="evenodd" clip-rule="evenodd" d="M235.366 106.612L232.247 106.281L231.924 109.393L235.042 109.724L235.366 106.612Z" fill="#073AB2"/>
<path opacity="0.0573566" fill-rule="evenodd" clip-rule="evenodd" d="M235.366 106.612L232.247 106.281L231.924 109.393L235.042 109.724L235.366 106.612Z" fill="#073AB2"/>
</g>
<g opacity="0.77071">
<path opacity="0.77071" fill-rule="evenodd" clip-rule="evenodd" d="M181.291 106.33L179.572 98.2006L171.464 99.9328L173.183 108.062L181.291 106.33Z" fill="#073AB2"/>
<path opacity="0.77071" fill-rule="evenodd" clip-rule="evenodd" d="M183.499 120.752L182.851 117.684L179.791 118.338L180.44 121.406L183.499 120.752Z" fill="#073AB2"/>
<path opacity="0.77071" fill-rule="evenodd" clip-rule="evenodd" d="M183.499 120.752L182.851 117.684L179.791 118.338L180.44 121.406L183.499 120.752Z" fill="#073AB2"/>
<path opacity="0.77071" fill-rule="evenodd" clip-rule="evenodd" d="M183.499 120.752L182.851 117.684L179.791 118.338L180.44 121.406L183.499 120.752Z" fill="#073AB2"/>
<path opacity="0.77071" fill-rule="evenodd" clip-rule="evenodd" d="M183.499 120.752L182.851 117.684L179.791 118.338L180.44 121.406L183.499 120.752Z" fill="#073AB2"/>
</g>
<g opacity="0.0849513">
<path opacity="0.0849513" fill-rule="evenodd" clip-rule="evenodd" d="M136.207 111.673L143.398 107.522L139.251 100.339L132.06 104.491L136.207 111.673Z" fill="#073AB2"/>
<path opacity="0.0849513" fill-rule="evenodd" clip-rule="evenodd" d="M123.191 118.237L125.905 116.671L124.34 113.96L121.626 115.527L123.191 118.237Z" fill="#073AB2"/>
<path opacity="0.0849513" fill-rule="evenodd" clip-rule="evenodd" d="M123.191 118.237L125.905 116.671L124.34 113.96L121.626 115.527L123.191 118.237Z" fill="#073AB2"/>
<path opacity="0.0849513" fill-rule="evenodd" clip-rule="evenodd" d="M123.191 118.237L125.905 116.671L124.34 113.96L121.626 115.527L123.191 118.237Z" fill="#073AB2"/>
<path opacity="0.0849513" fill-rule="evenodd" clip-rule="evenodd" d="M123.191 118.237L125.905 116.671L124.34 113.96L121.626 115.527L123.191 118.237Z" fill="#073AB2"/>
</g>
<g opacity="0.491178">
<path opacity="0.491178" fill-rule="evenodd" clip-rule="evenodd" d="M87.0682 112.48L93.2375 118.047L98.7785 111.88L92.6092 106.314L87.0682 112.48Z" fill="#073AB2"/>
<path opacity="0.491178" fill-rule="evenodd" clip-rule="evenodd" d="M76.8048 102.112L79.1329 104.212L81.2238 101.885L78.8957 99.7845L76.8048 102.112Z" fill="#073AB2"/>
<path opacity="0.491178" fill-rule="evenodd" clip-rule="evenodd" d="M76.8048 102.112L79.1329 104.212L81.2238 101.885L78.8957 99.7845L76.8048 102.112Z" fill="#073AB2"/>
<path opacity="0.491178" fill-rule="evenodd" clip-rule="evenodd" d="M76.8048 102.112L79.1329 104.212L81.2238 101.885L78.8957 99.7845L76.8048 102.112Z" fill="#073AB2"/>
<path opacity="0.491178" fill-rule="evenodd" clip-rule="evenodd" d="M76.8048 102.112L79.1329 104.212L81.2238 101.885L78.8957 99.7845L76.8048 102.112Z" fill="#073AB2"/>
</g>
<g opacity="0.0214092">
<path opacity="0.0214092" fill-rule="evenodd" clip-rule="evenodd" d="M217.551 130.177L214.164 137.765L221.741 141.129L225.129 133.541L217.551 130.177Z" fill="#073AB2"/>
<path opacity="0.0214092" fill-rule="evenodd" clip-rule="evenodd" d="M224.241 117.212L222.963 120.075L225.822 121.345L227.101 118.482L224.241 117.212Z" fill="#073AB2"/>
<path opacity="0.0214092" fill-rule="evenodd" clip-rule="evenodd" d="M224.241 117.212L222.963 120.075L225.822 121.345L227.101 118.482L224.241 117.212Z" fill="#073AB2"/>
<path opacity="0.0214092" fill-rule="evenodd" clip-rule="evenodd" d="M224.241 117.212L222.963 120.075L225.822 121.345L227.101 118.482L224.241 117.212Z" fill="#073AB2"/>
<path opacity="0.0214092" fill-rule="evenodd" clip-rule="evenodd" d="M224.241 117.212L222.963 120.075L225.822 121.345L227.101 118.482L224.241 117.212Z" fill="#073AB2"/>
</g>
<g opacity="0.0967655">
<path opacity="0.0967655" fill-rule="evenodd" clip-rule="evenodd" d="M176.62 126.376L168.357 125.499L167.499 133.745L175.762 134.622L176.62 126.376Z" fill="#073AB2"/>
<path opacity="0.0967655" fill-rule="evenodd" clip-rule="evenodd" d="M191.018 128.732L187.9 128.401L187.576 131.513L190.694 131.844L191.018 128.732Z" fill="#073AB2"/>
<path opacity="0.0967655" fill-rule="evenodd" clip-rule="evenodd" d="M191.018 128.732L187.9 128.401L187.576 131.513L190.694 131.844L191.018 128.732Z" fill="#073AB2"/>
<path opacity="0.0967655" fill-rule="evenodd" clip-rule="evenodd" d="M191.018 128.732L187.9 128.401L187.576 131.513L190.694 131.844L191.018 128.732Z" fill="#073AB2"/>
<path opacity="0.0967655" fill-rule="evenodd" clip-rule="evenodd" d="M191.018 128.732L187.9 128.401L187.576 131.513L190.694 131.844L191.018 128.732Z" fill="#073AB2"/>
</g>
<g opacity="0.966525">
<path opacity="0.966525" fill-rule="evenodd" clip-rule="evenodd" d="M136.943 128.451L135.224 120.321L127.117 122.053L128.836 130.183L136.943 128.451Z" fill="#073AB2"/>
<path opacity="0.966525" fill-rule="evenodd" clip-rule="evenodd" d="M139.152 142.872L138.503 139.804L135.444 140.458L136.092 143.526L139.152 142.872Z" fill="#073AB2"/>
<path opacity="0.966525" fill-rule="evenodd" clip-rule="evenodd" d="M139.152 142.872L138.503 139.804L135.444 140.458L136.092 143.526L139.152 142.872Z" fill="#073AB2"/>
<path opacity="0.966525" fill-rule="evenodd" clip-rule="evenodd" d="M139.152 142.872L138.503 139.804L135.444 140.458L136.092 143.526L139.152 142.872Z" fill="#073AB2"/>
<path opacity="0.966525" fill-rule="evenodd" clip-rule="evenodd" d="M139.152 142.872L138.503 139.804L135.444 140.458L136.092 143.526L139.152 142.872Z" fill="#073AB2"/>
</g>
<g opacity="0.919239">
<path opacity="0.919239" fill-rule="evenodd" clip-rule="evenodd" d="M92.0204 133.743L99.2115 129.591L95.0642 122.409L87.873 126.56L92.0204 133.743Z" fill="#073AB2"/>
<path opacity="0.919239" fill-rule="evenodd" clip-rule="evenodd" d="M79.0044 140.306L81.718 138.74L80.153 136.029L77.4394 137.596L79.0044 140.306Z" fill="#073AB2"/>
<path opacity="0.919239" fill-rule="evenodd" clip-rule="evenodd" d="M79.0044 140.306L81.718 138.74L80.153 136.029L77.4394 137.596L79.0044 140.306Z" fill="#073AB2"/>
<path opacity="0.919239" fill-rule="evenodd" clip-rule="evenodd" d="M79.0044 140.306L81.718 138.74L80.153 136.029L77.4394 137.596L79.0044 140.306Z" fill="#073AB2"/>
<path opacity="0.919239" fill-rule="evenodd" clip-rule="evenodd" d="M79.0044 140.306L81.718 138.74L80.153 136.029L77.4394 137.596L79.0044 140.306Z" fill="#073AB2"/>
</g>
</g>
</g>
<path opacity="0.49" fill-rule="evenodd" clip-rule="evenodd" d="M339.071 73.8625C339.071 73.796 339.071 73.7296 339.071 73.6631C339.138 73.6631 339.138 73.7296 339.204 73.7296C339.138 73.796 339.138 73.796 339.071 73.8625Z" fill="#808080"/>
<path fill-rule="evenodd" clip-rule="evenodd" d="M41.973 90.6226L181.947 49.0826L199.496 108.126L59.5219 149.666L41.973 90.6226Z" fill="white"/>
<path fill-rule="evenodd" clip-rule="evenodd" d="M199.875 135.441L211.427 98.7217L298.481 126.067L286.929 162.787L199.875 135.441Z" fill="white"/>
<path fill-rule="evenodd" clip-rule="evenodd" d="M308.201 74.1367L415.821 60.918L421.405 106.314L313.786 119.533L308.201 74.1367Z" fill="white"/>
<path fill-rule="evenodd" clip-rule="evenodd" d="M393.492 219.96L394.637 246.75L391.243 292.363L386.153 292.744L380.001 251.329L371.474 216.272L393.492 219.96Z" fill="#5D66D3"/>
<path fill-rule="evenodd" clip-rule="evenodd" d="M386.364 294.863L392.049 297.237L394.594 294.27L391.625 291.727L386.152 292.108L386.364 294.863Z" fill="#292949"/>
<path fill-rule="evenodd" clip-rule="evenodd" d="M357.559 210.464L356.414 230.727L359.723 291.006L364.814 291.26L372.45 251.71L379.153 208.345L357.559 210.464Z" fill="#5D66D3"/>
<path fill-rule="evenodd" clip-rule="evenodd" d="M364.687 293.422L359.044 295.881L356.457 292.998L359.341 290.37L364.814 290.667L364.687 293.422Z" fill="#292949"/>
<path fill-rule="evenodd" clip-rule="evenodd" d="M387.086 150.736L371.22 149.041C371.22 149.041 362.396 149.973 356.414 170.914C353.063 182.572 352.087 200.927 351.832 214.916C352.214 216.908 354.378 225.64 363.583 224.157C379.407 221.613 387.807 219.07 394.679 220.341C400.534 221.613 400.067 213.559 399.388 207.412L397.055 188.379L387.086 150.736Z" fill="white"/>
<path fill-rule="evenodd" clip-rule="evenodd" d="M384.031 130.982C380.043 130.092 375.928 129.329 371.898 130.092C371.007 130.262 370.074 130.558 369.607 131.321C369.438 131.618 369.31 131.957 369.226 132.296C368.207 136.027 366.935 141.622 369.395 145.056C369.862 145.734 370.498 146.243 371.177 146.667C372.068 147.218 373.086 147.642 374.147 147.811C373.934 148.744 373.638 149.676 373.256 150.524C374.189 151.923 378.431 152.05 379.237 150.736C379.28 149.592 379.322 148.447 379.365 147.303C379.874 147.091 380.383 146.836 380.849 146.539C382.674 145.353 383.861 143.53 384.583 141.495C385.346 139.291 386.407 137.171 387.128 134.882C387.383 134.077 387.595 133.102 387.128 132.381C386.661 131.576 385.686 131.321 384.752 131.109C384.54 131.109 384.286 131.067 384.031 130.982Z" fill="#FFCFB7"/>
<path fill-rule="evenodd" clip-rule="evenodd" d="M370.71 133.144C372.704 131.872 375.631 131.321 377.498 131.449C383.098 131.872 385.177 135.984 385.474 141.156C387.001 139.206 389.928 136.705 390.098 134.204C390.225 132.127 389.97 129.329 388.783 127.506C387.68 125.853 384.922 124.92 383.268 123.945C381.698 123.013 380.171 122.123 378.601 121.19C378.262 121.02 377.965 120.809 377.583 120.724C377.159 120.639 376.692 120.766 376.268 120.851C372.577 121.784 368.929 122.759 365.238 123.691C364.517 123.861 363.711 124.157 363.456 124.836C363.286 125.26 363.371 125.726 363.499 126.15C363.923 128.057 364.729 130.007 364.898 131.957C365.111 133.059 365.789 138.824 367.783 138.189C368.377 137.214 368.462 136.069 368.929 135.052C369.268 134.289 369.947 133.653 370.71 133.144Z" fill="#3C4047"/>
<path fill-rule="evenodd" clip-rule="evenodd" d="M371.22 149.041L365.365 150.821L343.942 173.203L342.669 180.622L352.935 197.493L355.693 191.304L351.366 178.841L358.238 173.966L367.401 153.365L371.22 149.041Z" fill="white"/>
<path fill-rule="evenodd" clip-rule="evenodd" d="M383.734 152.093L394.637 140.308L392.049 108.431L396.843 106.311L403.376 138.655L401.382 146.752L389.164 163.58L383.734 152.093Z" fill="white"/>
<path fill-rule="evenodd" clip-rule="evenodd" d="M395.825 106.777V103.852L392.473 99.4014L390.182 101.436L391.667 105.378L390.734 106.777L392.049 108.431L395.825 106.777Z" fill="#FFCFB7"/>
<path fill-rule="evenodd" clip-rule="evenodd" d="M340.763 99.6762L339.462 89.0763L337.176 89.9449L336.259 87.588L340 85.9528L342.028 85.7038L343.7 99.3157L340.763 99.6762ZM356.639 95.9434C355.682 97.4068 354.314 98.2476 352.537 98.4658C350.76 98.684 349.236 98.1982 347.966 97.0084C346.695 95.8186 345.937 94.2197 345.69 92.2117C345.445 90.2166 345.801 88.4841 346.758 87.0143C347.715 85.5445 349.082 84.7005 350.859 84.4823C352.624 84.2656 354.144 84.7518 355.421 85.9408C356.698 87.1299 357.46 88.7284 357.706 90.7364C357.951 92.7315 357.596 94.4672 356.639 95.9434ZM349.933 94.8266C350.587 95.5695 351.358 95.8864 352.246 95.7773C353.135 95.6682 353.797 95.1786 354.233 94.3085C354.668 93.4383 354.809 92.3726 354.654 91.1111C354.502 89.8754 354.099 88.8829 353.445 88.1335C352.791 87.3842 352.026 87.0633 351.15 87.1708C350.275 87.2783 349.616 87.7675 349.173 88.6384C348.731 89.5093 348.588 90.5755 348.743 91.8369C348.896 93.0855 349.293 94.082 349.933 94.8266ZM370.741 94.2119C369.784 95.6753 368.416 96.5161 366.639 96.7343C364.862 96.9525 363.338 96.4667 362.068 95.2769C360.797 94.0871 360.039 92.4882 359.792 90.4802C359.547 88.4851 359.903 86.7526 360.86 85.2828C361.817 83.813 363.184 82.969 364.961 82.7508C366.726 82.5341 368.246 83.0203 369.523 84.2093C370.8 85.3984 371.562 86.9968 371.808 89.0049C372.053 91 371.698 92.7357 370.741 94.2119ZM364.035 93.095C364.689 93.838 365.46 94.1549 366.348 94.0458C367.237 93.9367 367.899 93.4471 368.335 92.5769C368.77 91.7068 368.911 90.6411 368.756 89.3796C368.604 88.1439 368.201 87.1514 367.547 86.402C366.893 85.6527 366.128 85.3318 365.252 85.4393C364.377 85.5468 363.718 86.036 363.276 86.9069C362.833 87.7778 362.69 88.844 362.845 90.1054C362.998 91.354 363.395 92.3505 364.035 93.095ZM384.843 92.4804C383.886 93.9438 382.518 94.7846 380.741 95.0028C378.964 95.221 377.44 94.7352 376.17 93.5454C374.899 92.3556 374.141 90.7567 373.894 88.7487C373.649 86.7536 374.005 85.0211 374.962 83.5513C375.919 82.0815 377.286 81.2375 379.063 81.0193C380.828 80.8026 382.348 81.2888 383.625 82.4778C384.902 83.6668 385.664 85.2653 385.91 87.2733C386.155 89.2685 385.8 91.0042 384.843 92.4804ZM378.137 91.3635C378.791 92.1065 379.562 92.4234 380.45 92.3143C381.339 92.2052 382.001 91.7156 382.437 90.8454C382.872 89.9753 383.013 88.9096 382.858 87.6481C382.706 86.4124 382.303 85.4199 381.649 84.6705C380.995 83.9212 380.23 83.6002 379.354 83.7078C378.479 83.8153 377.82 84.3045 377.378 85.1754C376.935 86.0463 376.792 87.1125 376.947 88.3739C377.1 89.6225 377.497 90.619 378.137 91.3635Z" fill="black"/>
<path fill-rule="evenodd" clip-rule="evenodd" d="M403.108 84.1487L395.592 78.8889L390.329 86.4006L397.845 91.6604L403.108 84.1487Z" fill="#003EFF" fill-opacity="0.76"/>
<path fill-rule="evenodd" clip-rule="evenodd" d="M271.875 174.178L271.578 177.103L266.148 178.332L263.475 175.661L263.899 172.27L266.784 172.482L266.996 171.719L268.014 171.253L271.875 174.178Z" fill="#FFCFB7"/>
<path fill-rule="evenodd" clip-rule="evenodd" d="M322.909 285.41C323.461 284.817 324.097 284.478 324.818 284.605C325.497 284.732 326.134 285.198 326.388 285.792C326.6 286.216 326.643 286.682 326.643 287.148C326.855 289.522 326.812 295.203 323.631 296.05C322.273 296.389 321.17 295.457 320.831 294.228C320.279 292.447 321.085 287.403 322.909 285.41Z" fill="#292949"/>
<path fill-rule="evenodd" clip-rule="evenodd" d="M321.764 249.336L321.934 263.918C321.722 270.404 322.74 276.932 322.57 283.418C322.528 284.902 322.146 286.47 322.528 287.954C322.909 289.395 324.055 289.649 325.285 288.929C326.897 287.954 326.643 285.665 326.897 283.969C327.618 279.391 328.509 274.813 329.273 270.234C329.655 267.988 328.891 264.851 329.061 262.562L331.436 250.311L321.764 249.336Z" fill="#FFCFB7"/>
<path fill-rule="evenodd" clip-rule="evenodd" d="M338.436 225.725L332.115 253.957L330.758 280.62L320.661 280.366L317.946 205.844L337.46 206.183L338.436 225.725Z" fill="#5D66D3"/>
<path fill-rule="evenodd" clip-rule="evenodd" d="M308.486 284.902C309.037 284.351 309.716 284.054 310.395 284.223C311.073 284.393 311.667 284.859 311.922 285.495C312.092 285.919 312.134 286.385 312.134 286.852C312.219 289.268 311.964 294.948 308.74 295.584C307.383 295.838 306.322 294.821 306.025 293.592C305.601 291.769 306.577 286.767 308.486 284.902Z" fill="#323643"/>
<path fill-rule="evenodd" clip-rule="evenodd" d="M313.788 251.371L312.94 265.953C312.855 270.022 312.346 274.007 311.922 278.034C311.54 281.765 312.134 285.664 310.182 289.056C309.589 290.115 308.316 290.836 307.467 289.522C306.789 288.505 307.213 286.851 307.086 285.749C306.576 281.129 305.898 276.508 305.346 271.93C305.092 269.683 305.983 266.546 305.94 264.257L304.158 251.922L313.788 251.371Z" fill="#FFCFB7"/>
<path fill-rule="evenodd" clip-rule="evenodd" d="M301.062 224.029L300.213 251.413L304.54 279.094L314.764 279.391L314.34 249.421L319.77 224.58L321.552 208.302L305.304 206.395L301.062 224.029Z" fill="#5D66D3"/>
<path fill-rule="evenodd" clip-rule="evenodd" d="M313.916 150.312L331.436 149.931L341.618 168.794L337.969 186.471L337.333 207.666L312.346 208.006L304.116 206.649L306.322 184.055L305.049 153.831L313.916 150.312Z" fill="white"/>
<path fill-rule="evenodd" clip-rule="evenodd" d="M311.158 162.775L304.837 182.147L295.377 185.538L269.541 178.586L273.02 173.245L295.716 173.966L305.092 154.678L311.158 162.775Z" fill="white"/>
<path fill-rule="evenodd" clip-rule="evenodd" d="M315.019 135.645C317.649 127.972 327.788 130.855 329.909 137.679C331.267 142.13 327.83 147.938 323.206 149.21C323.206 149.379 323.164 149.549 323.164 149.676C323.164 150.397 323.079 151.117 322.952 151.795C322.909 152.05 318.879 151.287 318.413 151.202C318.243 151.16 318.073 151.117 317.988 150.99C317.819 150.736 318.073 149.973 318.116 149.718C318.158 149.379 318.2 149.04 318.2 148.701C315.91 147.599 314.467 145.225 314.085 142.809C313.704 140.435 314.213 137.976 315.019 135.645Z" fill="#FFCFB7"/>
<path fill-rule="evenodd" clip-rule="evenodd" d="M321.637 128.735C322.188 129.286 322.4 130.049 322.57 130.812C322.655 131.236 322.74 131.702 322.655 132.126C322.273 133.864 320.534 133.779 319.219 134.331C317.564 135.009 316.164 136.28 315.231 137.764C313.788 140.053 314.425 143.021 315.019 145.564C315.231 146.454 315.655 147.768 314.934 148.574C314.213 149.379 312.601 149.252 311.752 148.828C310.989 148.447 310.352 147.726 309.504 147.599C308.613 147.429 307.383 147.853 306.958 147.005C306.831 146.793 306.831 146.497 306.704 146.285C306.195 145.564 304.964 146.412 304.286 145.903C303.861 145.606 303.861 144.928 303.989 144.419C304.116 143.911 304.371 143.36 304.286 142.851C304.201 142.385 303.861 142.046 303.649 141.622C303.268 140.816 303.395 139.757 303.989 139.078C305.092 137.807 307.213 138.061 308.401 136.832C309.037 136.196 309.249 135.306 309.504 134.458C309.716 133.61 310.013 132.72 310.649 132.126C311.455 131.406 312.643 131.533 313.449 130.685C313.916 130.176 314.255 129.54 314.764 129.117C315.443 128.565 316.843 128.099 317.691 127.802C319.049 127.379 320.576 127.675 321.637 128.735Z" fill="#292949"/>
<path fill-rule="evenodd" clip-rule="evenodd" d="M328.042 140.986C328.085 143.529 326.855 146.242 328 148.447C329.188 150.693 332.115 151.075 334.618 151.202C335.042 151.202 340.303 151.668 340.303 151.584C340.685 149.803 341.109 148.023 342.042 146.497C342.975 144.971 344.503 143.657 346.284 143.572C345.775 143.487 345.521 142.851 345.563 142.342C345.606 141.834 345.903 141.325 346.03 140.859C346.412 139.629 346.03 138.188 345.096 137.298C343.23 135.56 339.836 136.281 338.266 134.288C337.291 133.059 337.376 131.279 336.866 129.752C335.848 126.828 332.667 126.234 330.291 124.92C327.788 123.521 325.37 122.758 322.485 123.267C318.879 123.86 316.207 127.548 317.564 130.982C319.346 135.433 326.473 135.051 327.83 139.545C327.958 139.969 328.042 140.477 328.042 140.986Z" fill="#3C4047"/>
<path fill-rule="evenodd" clip-rule="evenodd" d="M326.261 150.227L320.831 157.9L318.243 157.688L314.001 149.931L326.261 150.227Z" fill="#E3E3E4"/>
<path fill-rule="evenodd" clip-rule="evenodd" d="M127.255 156.755L146.261 170.617L162.848 163.453L165.266 167.904L152.709 176.467L145.667 179.095L127.255 170.235V156.755Z" fill="white"/>
<path fill-rule="evenodd" clip-rule="evenodd" d="M154.52 289.141L154.096 292.235L159.908 296.135L163.429 293.422L160.714 289.946L154.902 286.046L154.52 289.141Z" fill="#292949"/>
<path fill-rule="evenodd" clip-rule="evenodd" d="M154.308 288.081L158.805 248.531L153.417 204.275L154.605 194.864L178.701 193.932L179.549 209.277L175.519 248.616L160.332 290.116L154.308 288.081Z" fill="#5D66D3"/>
<path fill-rule="evenodd" clip-rule="evenodd" d="M196.349 198.383L196.391 238.272L188.373 289.65L182.604 289.607L179.422 242.087L171.956 194.525L196.349 198.383Z" fill="#292949"/>
<path fill-rule="evenodd" clip-rule="evenodd" d="M182.604 292.023L188.84 295.203L191.979 292.108L188.882 288.971L182.646 288.886L182.604 292.023Z" fill="#292949"/>
<path fill-rule="evenodd" clip-rule="evenodd" d="M150.914 211.948C150.956 210.21 151.084 208.768 151.084 208.26C151.211 203.639 151.635 198.976 152.187 194.398C152.696 190.286 153.374 180.028 154.053 175.916C154.647 172.525 156.683 164.089 158.126 160.952C161.774 153.152 160.671 152.432 176.707 150.1C183.749 149.083 185.404 153.449 191.173 158.493C191.725 159.002 191.725 161.969 191.852 162.732C192.064 164.131 192.319 165.488 192.616 166.844C192.828 167.904 193.082 169.006 193.379 170.066C193.379 170.066 198.215 192.024 201.397 196.687C204.579 201.35 211.197 207.878 200.167 211.863C198.215 212.499 196.264 213.092 194.228 213.431C194.228 213.431 185.192 212.414 180.567 212.456C176.283 212.499 171.998 212.923 167.798 213.643C164.998 214.11 162.114 214.788 159.611 216.102C157.192 217.374 155.496 219.196 153.035 220.511C152.823 220.638 152.568 220.765 152.271 220.723C150.871 220.511 150.787 215.593 150.914 211.948Z" fill="white"/>
<path fill-rule="evenodd" clip-rule="evenodd" d="M163.429 153.067L153.417 161.842L142.217 185.284L156.344 202.071L158.762 192.702L163.429 153.067Z" fill="white"/>
<path fill-rule="evenodd" clip-rule="evenodd" d="M126.296 224.749L104.83 217.543L110.26 254.592L108.648 286.767L108.605 286.978H108.648V287.063L112.848 287.318L112.975 287.36L121.544 258.492L125.617 227.886L126.296 224.749Z" fill="#5D66D3"/>
<path fill-rule="evenodd" clip-rule="evenodd" d="M112.678 288.801H108.308L107.29 292.489L107.417 292.531H107.375L114.714 296.601L118.108 296.855L118.447 292.955L117.514 292.319L112.678 288.801Z" fill="#292949"/>
<path fill-rule="evenodd" clip-rule="evenodd" d="M143.01 224.961L138.429 288.801L134.229 289.141L129.011 254.889L120.738 220.85L143.01 224.961Z" fill="#5D66D3"/>
<path fill-rule="evenodd" clip-rule="evenodd" d="M138.471 290.285L144.113 293.295L143.689 295.923L133.677 294.736L134.186 290.921L138.471 290.285Z" fill="#292949"/>
<path fill-rule="evenodd" clip-rule="evenodd" d="M98.9753 235.432C98.5086 224.665 108.181 190.328 108.181 190.328C109.199 187.107 109.963 183.843 110.429 180.536C110.769 178.205 117.769 151.584 117.302 151.541C122.138 151.88 131.471 150.736 135.035 154.169C135.12 154.254 135.247 154.381 135.332 154.466C138.132 157.645 139.574 164.089 140.889 168.074C142.628 173.288 143.943 178.629 144.877 184.055C145.683 188.802 146.149 193.593 146.489 198.34C146.786 202.452 146.531 206.564 146.701 210.591C146.871 215.084 148.186 219.917 149.204 224.283C150.222 228.692 151.495 233.016 153.277 237.17C148.483 239.289 143.137 239.883 137.877 239.883C132.617 239.883 127.399 239.417 122.138 239.459C117.684 239.544 113.187 240.01 108.86 239.12C105.381 238.484 102.199 236.958 98.9753 235.432Z" fill="white"/>
<path fill-rule="evenodd" clip-rule="evenodd" d="M133.889 140.265C136.095 141.367 138.386 144.165 138.259 146.793C138.174 148.065 137.495 149.04 137.453 150.396C137.41 153.067 133.38 155.865 135.841 158.408C137.113 159.722 139.107 159.976 140.932 160.188C141.144 160.231 141.398 160.231 141.61 160.146C141.95 160.019 142.119 159.595 142.119 159.256C142.119 158.874 141.95 158.535 141.865 158.196C140.719 154.55 142.459 150.311 142.671 146.581C142.883 142.893 141.992 138.866 138.938 136.45C136.901 137.086 135.374 137.933 134.356 139.799L133.889 140.265Z" fill="#3C4047"/>
<path fill-rule="evenodd" clip-rule="evenodd" d="M132.489 156.077C134.992 155.78 137.156 153.915 138.301 151.668C139.489 149.422 139.786 146.836 139.829 144.292C139.871 135.857 129.435 135.306 125.235 141.325C121.587 146.539 125.193 157.009 132.489 156.077Z" fill="#FFCFB7"/>
<path fill-rule="evenodd" clip-rule="evenodd" d="M119.89 157.094C121.205 156.713 122.478 156.331 123.453 155.229C125.065 153.449 125.574 150.142 126.338 147.938C127.144 145.607 128.077 143.106 130.199 141.834C131.598 141.028 132.956 141.071 134.483 141.325C135.501 141.495 135.501 141.919 136.477 141.537C137.241 141.24 138.047 140.096 138.344 139.375C138.853 138.188 138.598 136.747 137.962 135.645C136.986 133.907 135.629 132.847 133.72 132.423C127.017 130.939 121.205 133.949 118.023 140.138C116.496 143.106 116.496 146.751 114.926 149.591C113.951 151.329 112.508 152.347 111.617 154.254C109.326 159.171 105.169 165.233 104.321 170.659C104.278 170.871 104.278 171.083 104.405 171.253C104.66 171.592 105.169 171.338 105.508 171.083C107.417 169.6 109.284 168.116 111.193 166.632C111.914 166.039 112.678 165.445 113.229 164.682C114.587 162.775 114.629 159.977 116.496 158.536C117.472 157.773 118.66 157.433 119.89 157.094Z" fill="#292949"/>
<path fill-rule="evenodd" clip-rule="evenodd" d="M88.5393 146.878C87.2666 147.132 84 146.242 83.2364 145.055C81.4971 142.385 85.6121 143.19 87.1393 143.148C86.9696 142.639 86.7999 142.13 86.7151 141.622C86.6727 141.155 91.0846 142.385 91.5089 142.851C92.527 143.953 92.0604 144.801 91.9755 146.242C90.8301 146.454 89.6847 146.666 88.5393 146.878Z" fill="#FFCFB7"/>
<path fill-rule="evenodd" clip-rule="evenodd" d="M123.496 173.838L99.1874 169.811L88.0302 147.132L92.4421 143.487L104.278 159.171L116.666 158.663L128.12 159.129L123.496 173.838Z" fill="white"/>
<path fill-rule="evenodd" clip-rule="evenodd" d="M225.578 145.013L229.269 140.392L227.36 138.697L224.136 141.325L223.584 140.138L220.912 144.462L222.693 146.454L225.578 145.013Z" fill="#FFCFB7"/>
<path fill-rule="evenodd" clip-rule="evenodd" d="M178.574 151.499L206.573 153.194L220.912 144.462L223.457 146.921L212.851 162.139L192.573 166.463L178.574 151.499Z" fill="white"/>
<path d="M308.528 178.968H167.302V298H308.528V178.968Z" fill="#EAEAEA"/>
<path d="M310.904 178.968H164.884V209.022H310.904V178.968Z" fill="#EAEAEA"/>
<path opacity="0.1" d="M308.528 209.022H167.26V213.388H308.528V209.022Z" fill="black"/>
<path fill-rule="evenodd" clip-rule="evenodd" d="M168.647 205.759L173.78 208.684L175.137 206.564L172.041 203.766L173.186 203.046L168.477 201.053L166.78 203.088L168.647 205.759Z" fill="#FFCFB7"/>
<path fill-rule="evenodd" clip-rule="evenodd" d="M282.168 198.273L347.043 186.097L352.188 213.469L287.313 225.645L282.168 198.273Z" fill="white"/>
<path fill-rule="evenodd" clip-rule="evenodd" d="M340.854 208.006L343.824 208.218L345.139 213.601L342.594 216.357L339.157 215.975L339.285 213.092L338.563 212.923L338.054 211.906L340.854 208.006Z" fill="#FFCFB7"/>
<path fill-rule="evenodd" clip-rule="evenodd" d="M329.4 149.973L337.672 153.83L352.181 179.731L346.242 208.345L339.921 208.175L341.618 182.995L332.158 168.498L329.4 149.973Z" fill="white"/>
<path fill-rule="evenodd" clip-rule="evenodd" d="M298.222 213.921L297.933 212.432L300.324 209.55C300.796 208.977 301.11 208.53 301.267 208.208C301.424 207.886 301.469 207.554 301.403 207.213C301.335 206.863 301.176 206.611 300.927 206.457C300.677 206.303 300.381 206.259 300.04 206.326C299.722 206.387 299.452 206.531 299.23 206.755C299.008 206.98 298.77 207.332 298.517 207.812L296.992 207.007C297.321 206.31 297.696 205.773 298.117 205.395C298.538 205.018 299.11 204.759 299.834 204.618C300.721 204.446 301.481 204.55 302.112 204.929C302.743 205.309 303.137 205.901 303.293 206.706C303.383 207.17 303.375 207.604 303.268 208.009C303.161 208.414 302.992 208.784 302.762 209.12C302.531 209.456 302.174 209.899 301.69 210.449L300.507 211.793L304.23 211.069L304.545 212.692L298.222 213.921ZM308.98 211.982C307.743 212.222 306.594 212.002 305.533 211.322L306.405 209.748C307.209 210.233 307.948 210.41 308.624 210.278C309.071 210.191 309.401 210.018 309.612 209.757C309.823 209.497 309.891 209.175 309.817 208.793C309.748 208.435 309.554 208.18 309.237 208.026C308.92 207.872 308.534 207.84 308.078 207.928C307.623 208.017 307.167 208.215 306.712 208.523L305.486 208.015L304.912 203.758L310.16 202.738L310.48 204.385L306.843 205.092L307.032 206.587C307.404 206.414 307.769 206.292 308.127 206.222C309.014 206.05 309.778 206.138 310.42 206.486C311.062 206.834 311.473 207.471 311.653 208.398C311.829 209.301 311.673 210.076 311.187 210.724C310.7 211.371 309.965 211.79 308.98 211.982ZM319.892 208.557C319.347 209.532 318.513 210.129 317.39 210.347C316.267 210.565 315.274 210.324 314.412 209.622C313.549 208.92 312.994 207.935 312.748 206.666C312.503 205.406 312.652 204.285 313.197 203.306C313.741 202.327 314.575 201.728 315.698 201.51C316.813 201.293 317.803 201.535 318.67 202.236C319.537 202.937 320.093 203.922 320.34 205.19C320.585 206.451 320.436 207.573 319.892 208.557ZM315.569 208.144C316.018 208.588 316.524 208.756 317.085 208.646C317.646 208.537 318.047 208.196 318.286 207.622C318.524 207.048 318.566 206.362 318.412 205.565C318.26 204.784 317.959 204.17 317.508 203.721C317.058 203.273 316.556 203.103 316.003 203.21C315.45 203.318 315.051 203.659 314.808 204.234C314.566 204.808 314.521 205.494 314.676 206.291C314.83 207.08 315.127 207.698 315.569 208.144Z" fill="black"/>
<path fill-rule="evenodd" clip-rule="evenodd" d="M227.244 131.205L236.545 122.195L230.252 120.271L231.029 117.728L240.671 120.675L239.993 122.893L230.572 132.223L227.244 131.205ZM243.242 136.347C241.304 135.754 239.838 134.574 238.844 132.807L241.272 131.229C242.047 132.525 242.964 133.335 244.022 133.659C244.724 133.873 245.323 133.875 245.819 133.665C246.316 133.454 246.656 133.049 246.839 132.45C247.011 131.889 246.929 131.38 246.595 130.922C246.261 130.465 245.737 130.127 245.022 129.909C244.308 129.69 243.512 129.628 242.632 129.721L241.275 128.073L243.674 121.594L251.9 124.108L251.11 126.69L245.41 124.947L244.55 127.213C245.208 127.248 245.818 127.35 246.38 127.522C247.77 127.947 248.789 128.649 249.438 129.628C250.087 130.607 250.19 131.823 249.745 133.276C249.313 134.691 248.506 135.674 247.327 136.226C246.147 136.779 244.785 136.819 243.242 136.347ZM261.329 139.723C259.818 140.697 258.182 140.915 256.422 140.377C254.663 139.839 253.435 138.745 252.74 137.097C252.044 135.449 252 133.631 252.608 131.642C253.212 129.667 254.271 128.189 255.784 127.209C257.296 126.229 258.933 126.008 260.693 126.546C262.44 127.08 263.664 128.172 264.366 129.822C265.068 131.472 265.115 133.292 264.507 135.28C263.903 137.256 262.843 138.737 261.329 139.723ZM255.499 135.871C255.802 136.842 256.393 137.462 257.273 137.731C258.153 138 258.98 137.817 259.752 137.182C260.525 136.547 261.103 135.605 261.484 134.356C261.859 133.132 261.895 132.032 261.594 131.055C261.293 130.078 260.709 129.457 259.842 129.192C258.975 128.927 258.152 129.111 257.372 129.743C256.593 130.376 256.013 131.317 255.631 132.566C255.253 133.803 255.209 134.904 255.499 135.871Z" fill="black"/>
<path fill-rule="evenodd" clip-rule="evenodd" d="M85.6172 121.034L81.1071 106.282L78.0736 108.091L76.1782 104.968L81.0891 101.704L83.912 100.841L89.7037 119.784L85.6172 121.034ZM100.476 116.844C97.7512 117.677 95.1157 117.454 92.5691 116.176L94.1575 112.429C96.0793 113.33 97.784 113.553 99.2716 113.098C100.257 112.797 100.957 112.328 101.37 111.693C101.783 111.057 101.861 110.318 101.604 109.476C101.363 108.688 100.868 108.159 100.119 107.888C99.3697 107.618 98.4934 107.636 97.4897 107.943C96.486 108.25 95.5087 108.803 94.5578 109.603L91.6803 108.749L89.3838 99.3147L100.944 95.7803L102.053 99.4078L94.0416 101.857L94.8206 105.174C95.6152 104.696 96.4068 104.337 97.1954 104.096C99.149 103.498 100.889 103.515 102.414 104.146C103.939 104.776 105.014 106.113 105.639 108.155C106.247 110.143 106.08 111.923 105.14 113.493C104.199 115.064 102.644 116.181 100.476 116.844ZM124.202 106.563C123.207 108.885 121.472 110.424 118.999 111.181C116.526 111.937 114.236 111.628 112.131 110.254C110.025 108.88 108.545 106.796 107.691 104.001C106.842 101.225 106.914 98.6711 107.906 96.3403C108.899 94.0095 110.632 92.466 113.105 91.7098C115.561 90.9591 117.845 91.2693 119.96 92.6404C122.074 94.0115 123.559 96.0943 124.413 98.8889C125.262 101.666 125.192 104.224 124.202 106.563ZM114.382 106.657C115.498 107.55 116.674 107.807 117.911 107.429C119.148 107.051 119.967 106.188 120.368 104.841C120.77 103.494 120.702 101.943 120.165 100.188C119.64 98.4679 118.817 97.1571 117.699 96.2552C116.581 95.3533 115.412 95.0886 114.193 95.4612C112.974 95.8339 112.16 96.695 111.749 98.0448C111.339 99.3945 111.402 100.947 111.939 102.703C112.47 104.44 113.284 105.758 114.382 106.657ZM143.828 100.563C142.833 102.885 141.098 104.424 138.625 105.18C136.151 105.937 133.862 105.628 131.757 104.254C129.651 102.88 128.171 100.796 127.317 98.0012C126.468 95.2246 126.54 92.6709 127.532 90.3401C128.525 88.0093 130.257 86.4658 132.731 85.7096C135.186 84.9589 137.471 85.2691 139.586 86.6402C141.7 88.0113 143.185 90.0941 144.039 92.8887C144.888 95.6653 144.817 98.2235 143.828 100.563ZM134.008 100.657C135.124 101.55 136.3 101.807 137.537 101.429C138.773 101.051 139.592 100.188 139.994 98.8412C140.396 97.4942 140.328 95.9429 139.791 94.1874C139.265 92.4676 138.443 91.1568 137.325 90.2549C136.206 89.353 135.038 89.0884 133.819 89.461C132.6 89.8336 131.786 90.6948 131.375 92.0446C130.965 93.3943 131.028 94.947 131.564 96.7025C132.096 98.4402 132.91 99.7582 134.008 100.657Z" fill="black"/>
<path fill-rule="evenodd" clip-rule="evenodd" d="M271.421 255.232L242.399 226.21L213.378 255.232L242.399 284.253L271.421 255.232Z" fill="#003EFF" fill-opacity="0.76"/>
<path fill-rule="evenodd" clip-rule="evenodd" d="M167.447 84.561L155.223 79.1217L149.781 91.3386L162.004 96.7779L167.447 84.561Z" fill="#003EFF" fill-opacity="0.76"/>
<path fill-rule="evenodd" clip-rule="evenodd" d="M332.131 203.102L327.121 199.595L323.613 204.603L328.623 208.11L332.131 203.102Z" fill="#003EFF" fill-opacity="0.76"/>
<path fill-rule="evenodd" clip-rule="evenodd" d="M280.928 140.232L275.535 132.813L268.113 138.203L273.505 145.622L280.928 140.232Z" fill="#003EFF" fill-opacity="0.76"/>
<path fill-rule="evenodd" clip-rule="evenodd" d="M176.925 152.816C175.148 152.558 173.334 152.301 171.558 152.044C171.595 150.61 171.78 149.176 172.039 147.78C172.002 147.963 169.299 146.162 169.077 145.795C168.448 144.729 168.522 143.074 168.337 141.861C167.967 139.288 167.634 136.458 169.188 134.362C170.817 132.23 173.853 131.753 176.555 131.936C179.924 132.194 183.589 133.554 185.032 136.605C186.328 139.362 183.959 142.964 183.107 145.648C182.7 146.971 182.108 148.478 180.775 148.919C180.072 149.14 179.257 149.029 178.628 149.397C177.481 150.059 177.555 151.676 176.925 152.816Z" fill="#FFCFB7"/>
<path fill-rule="evenodd" clip-rule="evenodd" d="M190.844 132.892C191.251 131.054 191.622 129.253 192.029 127.415C192.177 126.753 192.325 126.018 192.177 125.356C191.918 124.217 190.881 123.445 189.808 123.041C188.734 122.636 187.55 122.489 186.439 122.122C185.254 121.717 184.144 121.092 182.922 121.019C180.553 120.872 178.554 122.857 176.185 122.967C172.927 123.151 170.114 121.386 167.819 124.915C167.375 125.577 167.226 126.349 166.819 127.011C166.301 127.893 165.524 128.518 164.857 129.29C161.933 132.635 162.192 138.185 164.931 141.567C166.264 143.185 166.745 144.618 168.744 145.28C168.004 143.295 170.04 135.869 172.705 135.281C173.409 135.134 175.371 136.164 176.111 136.347C177.777 136.752 179.369 137.193 180.849 138.001C183.07 139.215 172.706 129.861 181.664 133.145C181.997 133.219 183.07 133.219 189.03 140.501C189.289 140.317 189.364 139.986 189.438 139.692C189.845 137.45 190.363 135.171 190.844 132.892Z" fill="#3C4047"/>
<defs>
<linearGradient id="paint0_linear" x1="250" y1="0" x2="250" y2="320" gradientUnits="userSpaceOnUse">
<stop offset="0.237621" stop-color="white"/>
<stop offset="0.704342" stop-color="#F5F5F5"/>
<stop offset="1" stop-color="white"/>
</linearGradient>
</defs>
</svg>
