<svg width="500" height="320" viewBox="0 0 500 320" fill="none" xmlns="http://www.w3.org/2000/svg">
<path d="M500 0H0V320H500V0Z" fill="white"/>
<path d="M58 222.5H466.906" stroke="#E6E6F6" stroke-linecap="square"/>
<path d="M58 187.5H466.906" stroke="#E6E6F6" stroke-linecap="square"/>
<path d="M58 153.5H466.906" stroke="#E6E6F6" stroke-linecap="square"/>
<path d="M58 118.5H466.906" stroke="#E6E6F6" stroke-linecap="square"/>
<path d="M58 83.5H466.906" stroke="#E6E6F6" stroke-linecap="square"/>
<path d="M58 48.5H466.906" stroke="#E6E6F6" stroke-linecap="square"/>
<path d="M58.998 254.751L99.3438 240L172.574 188.355L267.156 119.211L354.738 96.0909L443 50.4688" stroke="#4D49FF" stroke-width="6" stroke-linecap="round" stroke-linejoin="round"/>
<path d="M56.2705 257.5H465.177" stroke="#4D49FF" stroke-linecap="square"/>
<path d="M56.5 257L56.5 48.2656" stroke="#4D49FF" stroke-linecap="square"/>
<path d="M175.5 196.75C181.161 196.75 185.75 192.161 185.75 186.5C185.75 180.839 181.161 176.25 175.5 176.25C169.839 176.25 165.25 180.839 165.25 186.5C165.25 192.161 169.839 196.75 175.5 196.75Z" fill="white" stroke="#4D49FF" stroke-width="0.5"/>
<path d="M175.5 190C173.567 190 172 188.433 172 186.5C172 184.567 173.567 183 175.5 183C177.433 183 179 184.567 179 186.5C179 188.433 177.433 190 175.5 190Z" fill="#4D49FF"/>
<path d="M96.5 249.75C102.161 249.75 106.75 245.161 106.75 239.5C106.75 233.839 102.161 229.25 96.5 229.25C90.8391 229.25 86.25 233.839 86.25 239.5C86.25 245.161 90.8391 249.75 96.5 249.75Z" fill="white" stroke="#4D49FF" stroke-width="0.5"/>
<path d="M96.5 243C94.567 243 93 241.433 93 239.5C93 237.567 94.567 236 96.5 236C98.433 236 100 237.567 100 239.5C100 241.433 98.433 243 96.5 243Z" fill="#4D49FF"/>
<path d="M266.5 129.75C272.161 129.75 276.75 125.161 276.75 119.5C276.75 113.839 272.161 109.25 266.5 109.25C260.839 109.25 256.25 113.839 256.25 119.5C256.25 125.161 260.839 129.75 266.5 129.75Z" fill="white" stroke="#4D49FF" stroke-width="0.5"/>
<path d="M266.5 123C264.567 123 263 121.433 263 119.5C263 117.567 264.567 116 266.5 116C268.433 116 270 117.567 270 119.5C270 121.433 268.433 123 266.5 123Z" fill="#4D49FF"/>
<path d="M359.5 103.75C365.161 103.75 369.75 99.1609 369.75 93.5C369.75 87.8391 365.161 83.25 359.5 83.25C353.839 83.25 349.25 87.8391 349.25 93.5C349.25 99.1609 353.839 103.75 359.5 103.75Z" fill="white" stroke="#4D49FF" stroke-width="0.5"/>
<path d="M359.5 97C357.567 97 356 95.433 356 93.5C356 91.567 357.567 90 359.5 90C361.433 90 363 91.567 363 93.5C363 95.433 361.433 97 359.5 97Z" fill="#4D49FF"/>
<path d="M441.5 62.75C447.161 62.75 451.75 58.1609 451.75 52.5C451.75 46.8391 447.161 42.25 441.5 42.25C435.839 42.25 431.25 46.8391 431.25 52.5C431.25 58.1609 435.839 62.75 441.5 62.75Z" fill="white" stroke="#4D49FF" stroke-width="0.5"/>
<path d="M441.5 56C439.567 56 438 54.433 438 52.5C438 50.567 439.567 49 441.5 49C443.433 49 445 50.567 445 52.5C445 54.433 443.433 56 441.5 56Z" fill="#4D49FF"/>
</svg>
