<svg fill="none" height="320" viewBox="0 0 500 320" width="500" xmlns="http://www.w3.org/2000/svg" xmlns:xlink="http://www.w3.org/1999/xlink"><linearGradient id="a" gradientUnits="userSpaceOnUse" x1="470.7" x2="83.6177" y1=".420155" y2="320.574"><stop offset=".585478" stop-color="#fff"/><stop offset="1" stop-color="#f3f3f3"/></linearGradient><linearGradient id="b"><stop offset="0" stop-color="#747474"/><stop offset="1" stop-color="#bfbfbf" stop-opacity=".3"/></linearGradient><linearGradient id="c" gradientUnits="userSpaceOnUse" x1="262.5" x2="-55.5535" xlink:href="#b" y1=".000006" y2="191.911"/><linearGradient id="d" gradientUnits="userSpaceOnUse" x1="322.066" x2="53.6699" xlink:href="#b" y1="229.778" y2="-113.277"/><linearGradient id="e" gradientUnits="userSpaceOnUse" x1="501.724" x2="287.319" y1=".420155" y2="63.85"><stop offset=".585478" stop-color="#f5f5f5"/><stop offset="1" stop-color="#f3f3f3"/></linearGradient><linearGradient id="f" gradientUnits="userSpaceOnUse" x1="495.155" x2="415.372" xlink:href="#b" y1="156.305" y2="322.462"/><clipPath id="g"><path d="m0 0h500v320h-500z"/></clipPath><g clip-path="url(#g)"><path d="m-19 0h538v320h-538z" fill="url(#a)"/><g fill="url(#c)" opacity=".15"><path d="m190.02 0h-209.02v11.8863l135 41.1136z"/><path d="m61.815 320h229.048l-22.363-40.5-89-18z"/></g><g fill="url(#d)" opacity=".15"><path d="m170.02 0h-110.3904l56.3704 52.9999z"/><path d="m269.82 320h-168.005l77.685-58.5 79 38z"/></g><path d="m458.337 0h60.663v320h-115.735l-76.701-166.231z" fill="url(#e)" opacity=".5"/><path d="m519 234.363v85.637h-71.3l-121.136-166.23 189.936 80.593z" fill="url(#f)" opacity=".15"/><g fill="#000"><path d="m41.0078 131.984h7.0215v1.016h-8.2324v-14.219h1.2109z"/><path d="m49.4258 127.561c0-1.016.1953-1.931.5859-2.745.3972-.813.9538-1.445 1.6699-1.894.7227-.456 1.5398-.684 2.4512-.684 1.4063 0 2.5456.495 3.418 1.485.8724.983 1.3086 2.288 1.3086 3.916v.244c0 1.022-.1986 1.943-.5957 2.763-.3907.814-.944 1.443-1.6602 1.885-.7161.443-1.5332.664-2.4512.664-1.3997 0-2.539-.491-3.4179-1.474-.8724-.99-1.3086-2.298-1.3086-3.926zm1.1719.322c0 1.263.3255 2.301.9765 3.115.6576.807 1.5169 1.211 2.5781 1.211 1.0547 0 1.9076-.404 2.5586-1.211.6576-.814.9864-1.885.9864-3.213v-.224c0-.808-.1498-1.547-.4493-2.217-.2994-.671-.7194-1.188-1.2597-1.553-.5404-.371-1.1589-.557-1.8555-.557-1.0417 0-1.8913.411-2.5488 1.231-.6576.814-.9863 1.881-.9863 3.203z"/><path d="m67.9512 133c-.1172-.332-.1921-.824-.2246-1.475-.4102.534-.9343.948-1.5723 1.241-.6315.286-1.3021.429-2.0117.429-1.0156 0-1.8392-.283-2.4707-.849-.625-.567-.9375-1.283-.9375-2.149 0-1.028.4264-1.842 1.2793-2.441.8593-.599 2.054-.899 3.584-.899h2.1191v-1.201c0-.755-.2344-1.347-.7031-1.777-.4623-.436-1.1394-.654-2.0313-.654-.8138 0-1.4876.208-2.0215.625-.5338.416-.8007.918-.8007 1.504l-1.1719-.01c0-.84.3906-1.566 1.1719-2.178.7812-.618 1.7415-.928 2.8808-.928 1.1784 0 2.1061.297 2.7832.889.6836.586 1.0352 1.406 1.0547 2.461v5c0 1.022.1074 1.787.3223 2.295v.117zm-3.6719-.84c.7812 0 1.4779-.189 2.0898-.566.6185-.378 1.0677-.882 1.3477-1.514v-2.324h-2.0898c-1.1654.013-2.0769.228-2.7344.644-.6576.411-.9864.977-.9864 1.7 0 .592.2181 1.084.6543 1.474.4428.391 1.0157.586 1.7188.586z"/><path d="m71.5352 127.619c0-1.64.3645-2.946 1.0937-3.916.7357-.976 1.7318-1.465 2.9883-1.465 1.4258 0 2.513.563 3.2617 1.69v-5.928h1.1621v15h-1.0937l-.0489-1.406c-.7487 1.067-1.8489 1.601-3.3007 1.601-1.2175 0-2.2006-.488-2.9493-1.465-.7422-.983-1.1132-2.307-1.1132-3.974zm1.1816.205c0 1.348.2702 2.412.8105 3.194.5404.774 1.3021 1.162 2.2852 1.162 1.4388 0 2.4609-.635 3.0664-1.905v-4.961c-.6055-1.373-1.6211-2.06-3.0469-2.06-.983 0-1.748.387-2.2949 1.162-.5469.768-.8203 1.904-.8203 3.408z"/><path d="m84.4258 133h-1.1719v-10.566h1.1719zm-1.377-13.623c0-.221.0716-.407.2149-.557.1432-.156.3385-.234.5859-.234s.4427.078.5859.234c.1498.15.2247.336.2247.557s-.0749.407-.2247.557c-.1432.149-.3385.224-.5859.224s-.4427-.075-.5859-.224c-.1433-.15-.2149-.336-.2149-.557z"/><path d="m88.7227 122.434.039 1.806c.3972-.651.8919-1.146 1.4844-1.484.5924-.345 1.2467-.518 1.9629-.518 1.1328 0 1.9759.319 2.5293.957s.8333 1.595.8398 2.871v6.934h-1.1621v-6.943c-.0065-.944-.2083-1.647-.6055-2.11-.3906-.462-1.0188-.693-1.8847-.693-.7227 0-1.364.228-1.9238.684-.5534.449-.9636 1.057-1.2305 1.826v7.236h-1.1621v-10.566z"/><path d="m98.1367 127.619c0-1.654.3646-2.962 1.0938-3.926.7356-.97 1.7315-1.455 2.9885-1.455 1.439 0 2.532.573 3.281 1.719l.059-1.523h1.093v10.351c0 1.361-.381 2.438-1.142 3.233-.762.794-1.794 1.191-3.096 1.191-.736 0-1.439-.166-2.109-.498-.6644-.326-1.1885-.762-1.5726-1.309l.6543-.703c.8273 1.016 1.8103 1.524 2.9493 1.524.976 0 1.738-.29 2.285-.869.547-.573.83-1.371.85-2.393v-1.328c-.749 1.041-1.839 1.562-3.272 1.562-1.224 0-2.2068-.488-2.949-1.465-.7422-.976-1.1133-2.294-1.1133-3.955zm1.1817.205c0 1.348.2701 2.412.8106 3.194.54.774 1.302 1.162 2.285 1.162 1.439 0 2.458-.645 3.057-1.934v-4.912c-.274-.677-.668-1.191-1.182-1.543-.514-.358-1.133-.537-1.855-.537-.983 0-1.748.387-2.295 1.162-.5472.768-.8206 1.904-.8206 3.408z"/><path d="m109.592 132.297c0-.228.071-.42.215-.576.149-.163.354-.244.615-.244.26 0 .465.081.615.244.15.156.225.348.225.576s-.075.417-.225.566c-.15.144-.355.215-.615.215-.261 0-.466-.071-.615-.215-.144-.149-.215-.338-.215-.566z"/><path d="m114.377 132.297c0-.228.072-.42.215-.576.15-.163.355-.244.615-.244s.466.081.615.244c.15.156.225.348.225.576s-.075.417-.225.566c-.149.144-.355.215-.615.215s-.465-.071-.615-.215c-.143-.149-.215-.338-.215-.566z"/><path d="m119.162 132.297c0-.228.072-.42.215-.576.15-.163.355-.244.615-.244.261 0 .466.081.615.244.15.156.225.348.225.576s-.075.417-.225.566c-.149.144-.354.215-.615.215-.26 0-.465-.071-.615-.215-.143-.149-.215-.338-.215-.566z"/></g></g></svg>
