<svg width="520" height="370" viewBox="0 0 520 370" fill="none" xmlns="http://www.w3.org/2000/svg">
    <path fill-rule="evenodd" clip-rule="evenodd" d="M10 0C4.47715 0 0 4.47715 0 9.99999V360C0 365.523 4.47716 370 10 370H510C515.523 370 520 365.523 520 360V10C520 4.47715 515.523 0 510 0H10ZM22 23C22 26.3137 19.3137 29 16 29C12.6863 29 10 26.3137 10 23C10 19.6863 12.6863 17 16 17C19.3137 17 22 19.6863 22 23ZM42 23C42 26.3137 39.3137 29 36 29C32.6863 29 30 26.3137 30 23C30 19.6863 32.6863 17 36 17C39.3137 17 42 19.6863 42 23ZM56 29C59.3137 29 62 26.3137 62 23C62 19.6863 59.3137 17 56 17C52.6863 17 50 19.6863 50 23C50 26.3137 52.6863 29 56 29ZM10 50C10 44.4771 14.4772 40 20 40H500C505.523 40 510 44.4771 510 50V350C510 355.523 505.523 360 500 360H20C14.4771 360 10 355.523 10 350V50Z" fill="#434343"/>
</svg>
