<svg width="360" height="238" viewBox="0 0 360 238" fill="none" xmlns="http://www.w3.org/2000/svg">
    <path fill-rule="evenodd" clip-rule="evenodd" d="M6.92308 0C3.09957 0 0 2.87989 0 6.43243V231.568C0 235.12 3.09957 238 6.92308 238H353.077C356.9 238 360 235.12 360 231.568V6.43243C360 2.8799 356.9 0 353.077 0H6.92308ZM15.2308 14.7946C15.2308 16.9261 13.371 18.6541 11.0769 18.6541C8.78282 18.6541 6.92308 16.9261 6.92308 14.7946C6.92308 12.6631 8.78282 10.9351 11.0769 10.9351C13.371 10.9351 15.2308 12.6631 15.2308 14.7946ZM29.0769 14.7946C29.0769 16.9261 27.2172 18.6541 24.9231 18.6541C22.629 18.6541 20.7692 16.9261 20.7692 14.7946C20.7692 12.6631 22.629 10.9351 24.9231 10.9351C27.2172 10.9351 29.0769 12.6631 29.0769 14.7946ZM38.7692 18.6541C41.0633 18.6541 42.9231 16.9261 42.9231 14.7946C42.9231 12.6631 41.0633 10.9351 38.7692 10.9351C36.4751 10.9351 34.6154 12.6631 34.6154 14.7946C34.6154 16.9261 36.4751 18.6541 38.7692 18.6541ZM6.92308 32.1622C6.92308 28.6096 10.0226 25.7297 13.8462 25.7297H346.154C349.977 25.7297 353.077 28.6096 353.077 32.1622V225.135C353.077 228.688 349.977 231.568 346.154 231.568H13.8461C10.0226 231.568 6.92308 228.688 6.92308 225.135V32.1622Z" fill="#434343"/>
</svg>
