<svg width="38" height="38" viewBox="0 0 38 38" fill="none" xmlns="http://www.w3.org/2000/svg">
<g clip-path="url(#clip0)">
<path d="M14.0664 27.668H23.8343C23.8343 27.668 23.8343 33.9601 23.8343 36.2783C23.8343 38.5965 14.0664 38.5551 14.0664 36.2783C14.0664 34.0015 14.0664 27.668 14.0664 27.668Z" fill="url(#paint0_linear)"/>
<mask id="mask0" mask-type="alpha" maskUnits="userSpaceOnUse" x="14" y="27" width="10" height="12">
<path d="M14.0664 27.668H23.8343C23.8343 27.668 23.8343 33.9601 23.8343 36.2783C23.8343 38.5965 14.0664 38.5551 14.0664 36.2783C14.0664 34.0015 14.0664 27.668 14.0664 27.668Z" fill="url(#paint1_radial)"/>
</mask>
<g mask="url(#mask0)">
<path opacity="0.5" d="M14.0664 27.668H23.8343C23.8343 27.668 23.8343 33.9601 23.8343 36.2783C23.8343 38.5965 14.0664 38.5551 14.0664 36.2783C14.0664 34.0015 14.0664 27.668 14.0664 27.668Z" fill="url(#paint2_linear)"/>
</g>
<path d="M13.7578 27.5176H14.7578C14.7578 27.5176 14.7578 32.3049 14.7578 34.0686C14.7578 35.8324 13.7578 35.8009 13.7578 34.0686C13.7578 32.3364 13.7578 27.5176 13.7578 27.5176Z" fill="url(#paint3_linear)"/>
<path d="M23.5859 27.5176H24.5859C24.5859 27.5176 24.5859 32.3049 24.5859 34.0686C24.5859 35.8324 23.5859 35.8009 23.5859 34.0686C23.5859 32.3364 23.5859 27.5176 23.5859 27.5176Z" fill="url(#paint4_linear)"/>
<path d="M20.6035 1.4365C20.6248 1.46313 20.65 1.49459 20.6789 1.5307C21.15 2.11838 22.6095 3.93906 24.0541 6.28383C25.5942 8.78366 27.0849 11.8285 27.3759 14.5818C27.6185 16.8764 27.9441 21.1528 27.9221 23.7147C27.9086 25.2907 27.667 26.4571 27.2524 27.3249C26.8419 28.1842 26.2533 28.769 25.5058 29.1749C24.7494 29.5857 23.817 29.8203 22.7154 29.9496C21.6141 30.0788 20.3701 30.1 18.9993 30.1C16.2392 30.1 14.029 29.9669 12.4958 29.115C11.746 28.6983 11.1561 28.1071 10.7453 27.2542C10.3309 26.3938 10.09 25.248 10.0768 23.7147C10.0548 21.153 10.3847 16.8768 10.6273 14.5818C10.9184 11.8284 12.408 8.78353 13.9469 6.28371C15.3928 3.93502 16.8536 2.11213 17.322 1.52773C17.3499 1.49286 17.3743 1.4624 17.395 1.4365C17.4644 1.34958 17.5257 1.26147 17.5828 1.16474C18.1849 0.145087 19.8137 0.145087 20.4157 1.16474C20.4729 1.26147 20.5342 1.34958 20.6035 1.4365Z" fill="white" stroke="#0500FF" stroke-width="0.8" stroke-linecap="round" stroke-linejoin="round"/>
<path d="M17.877 30.0001L17.731 29.5649C17.2122 28.0183 16.6678 26.3369 16.2536 24.9146C16.0463 24.2031 15.8729 23.5606 15.7516 23.0343C15.6277 22.4966 15.5665 22.1139 15.5665 21.9048C15.5665 20.2665 17.062 18.8663 19.0008 18.8663C20.9396 18.8663 22.4351 20.2665 22.4351 21.9048C22.4351 22.1139 22.3738 22.4966 22.2499 23.0343C22.1287 23.5606 21.9552 24.2031 21.748 24.9146C21.3338 26.3369 20.7894 28.0183 20.2705 29.5649L20.1245 30.0001H20.1242L20.0321 30.2716C19.6529 31.3896 19.3022 32.3958 19.0456 33.1244C19.0452 33.1255 19.0449 33.1262 19.0447 33.1266C19.0444 33.1271 19.0444 33.127 19.0448 33.1266C19.0452 33.1261 19.0447 33.1268 19.0422 33.1284C19.0362 33.1322 19.0217 33.138 19.0008 33.138C18.9799 33.138 18.9654 33.1322 18.9593 33.1284C18.9568 33.1268 18.9564 33.1261 18.9568 33.1266C18.9574 33.1273 18.9569 33.1272 18.956 33.1244C18.6994 32.3958 18.3487 31.3896 17.9695 30.2716L17.8774 30.0001H17.877ZM27.583 26.6442L27.3024 26.6356C27.3911 26.3173 27.4431 25.9843 27.4537 25.6399C27.5086 23.8561 27.5422 21.7601 27.5043 19.6907L27.6657 19.7995C28.5532 20.398 30.0545 21.4918 31.3294 22.8165C32.6217 24.1592 33.5996 25.6557 33.5996 27.0626L33.5996 33.0554C33.5933 33.0597 33.5818 33.066 33.5641 33.0704C33.5376 33.0771 33.5124 33.0755 33.4953 33.0702C33.4811 33.0659 33.4747 33.0602 33.4695 33.0527C32.7298 31.985 31.6118 30.4235 30.5338 29.1216C29.9958 28.4718 29.4595 27.8766 28.9795 27.4383C28.7399 27.2195 28.5053 27.0313 28.2841 26.8945C28.0718 26.7631 27.8294 26.6518 27.583 26.6442ZM10.3358 19.7995L10.4973 19.6907C10.4594 21.7601 10.493 23.8561 10.5479 25.6399C10.5585 25.9843 10.6104 26.3173 10.6992 26.6356L10.4185 26.6442C10.1722 26.6518 9.92975 26.7631 9.71742 26.8945C9.49631 27.0313 9.26168 27.2195 9.02204 27.4383C8.54209 27.8766 8.00578 28.4718 7.46771 29.1216C6.38972 30.4235 5.27175 31.985 4.53209 33.0527C4.5269 33.0602 4.52042 33.0659 4.50631 33.0702C4.48916 33.0755 4.464 33.0771 4.43749 33.0704C4.41971 33.066 4.40823 33.0597 4.40196 33.0554L4.40195 27.0626C4.40195 25.6557 5.37984 24.1592 6.67214 22.8165C7.94711 21.4918 9.44835 20.398 10.3358 19.7995Z" fill="white" stroke="#0500FF" stroke-width="0.8"/>
<path d="M22.0997 10.0707C22.0997 11.5414 20.7557 12.8059 19.0038 12.8059C17.2518 12.8059 15.9078 11.5414 15.9078 10.0707C15.9078 8.59998 17.2518 7.33555 19.0038 7.33555C20.7557 7.33555 22.0997 8.59998 22.0997 10.0707Z" fill="white" stroke="#0500FF" stroke-width="0.8"/>
<path d="M15.168 4.40887C18.1188 4.01704 19.773 3.9918 22.7238 4.40887" stroke="#0500FF" stroke-width="0.8"/>
<path d="M16.9727 15.3301C18.6446 15.7134 19.5229 15.6661 21.0325 15.3301" stroke="#0500FF" stroke-width="0.8" stroke-linecap="round"/>
<path d="M10.4417 35.0493C10.3767 34.6164 9.74184 34.6164 9.67683 35.0493L9.61199 35.4811C9.58708 35.6469 9.45467 35.7772 9.28604 35.8017L8.84708 35.8654C8.40694 35.9294 8.40694 36.5538 8.84708 36.6178L9.28604 36.6816C9.45467 36.7061 9.58708 36.8363 9.61199 37.0022L9.67683 37.4339C9.74184 37.8669 10.3767 37.8669 10.4417 37.4339L10.5065 37.0022C10.5315 36.8363 10.6639 36.7061 10.8325 36.6816L11.2715 36.6178C11.7116 36.5538 11.7116 35.9294 11.2715 35.8654L10.8325 35.8017C10.6639 35.7772 10.5315 35.6469 10.5065 35.4811L10.4417 35.0493Z" fill="#C4C4C4"/>
<path d="M10.4423 0.324692C10.3773 -0.108231 9.74244 -0.10823 9.67743 0.324692L9.61259 0.756455C9.58769 0.922322 9.45527 1.05257 9.28664 1.07707L8.84768 1.14084C8.40754 1.20478 8.40754 1.82924 8.84768 1.89318L9.28664 1.95695C9.45527 1.98145 9.58769 2.1117 9.61259 2.27756L9.67743 2.70933C9.74244 3.14225 10.3773 3.14225 10.4423 2.70933L10.5071 2.27756C10.5321 2.1117 10.6645 1.98145 10.8331 1.95695L11.2721 1.89318C11.7122 1.82924 11.7122 1.20478 11.2721 1.14084L10.8331 1.07707C10.6645 1.05257 10.5321 0.922322 10.5071 0.756455L10.4423 0.324692Z" fill="#C4C4C4"/>
<path d="M3.07147 12.3111C2.96773 11.6203 1.95462 11.6203 1.85088 12.3111L1.74742 13.0001C1.70767 13.2648 1.49636 13.4726 1.22726 13.5117L0.526775 13.6135C-0.175592 13.7155 -0.175591 14.712 0.526776 14.8141L1.22726 14.9159C1.49636 14.955 1.70767 15.1628 1.74742 15.4275L1.85088 16.1165C1.95462 16.8073 2.96773 16.8073 3.07147 16.1165L3.17494 15.4275C3.21468 15.1628 3.42599 14.955 3.69509 14.9159L4.39558 14.8141C5.09795 14.712 5.09794 13.7155 4.39558 13.6135L3.69509 13.5117C3.42599 13.4726 3.21468 13.2648 3.17494 13.0001L3.07147 12.3111Z" fill="#C4C4C4"/>
<path d="M32.7171 14.0825C32.6521 13.6496 32.0172 13.6496 31.9522 14.0825L31.8874 14.5143C31.8625 14.6801 31.7301 14.8104 31.5614 14.8349L31.1225 14.8987C30.6823 14.9626 30.6823 15.5871 31.1225 15.651L31.5614 15.7148C31.7301 15.7393 31.8625 15.8695 31.8874 16.0354L31.9522 16.4671C32.0172 16.9001 32.6521 16.9001 32.7171 16.4671L32.7819 16.0354C32.8068 15.8695 32.9393 15.7393 33.1079 15.7148L33.5469 15.651C33.987 15.5871 33.987 14.9626 33.5468 14.8987L33.1079 14.8349C32.9393 14.8104 32.8068 14.6801 32.7819 14.5143L32.7171 14.0825Z" fill="#C4C4C4"/>
<ellipse rx="0.719737" ry="0.707938" transform="matrix(-1 0 0 1 1.37401 3.32903)" fill="#C4C4C4"/>
<ellipse rx="0.719737" ry="0.707938" transform="matrix(-1 0 0 1 5.30565 21.0185)" fill="#C4C4C4"/>
<ellipse rx="1.18242" ry="1.16304" transform="matrix(-1 0 0 1 36.5617 24.0947)" fill="#C4C4C4"/>
<ellipse rx="0.719736" ry="0.707939" transform="matrix(-1 0 0 1 28.8916 35.4325)" fill="#C4C4C4"/>
<path d="M36.5533 2.76658C37.8589 4.98528 37.1012 7.81273 34.8609 9.08182C32.6205 10.3509 29.7459 9.58096 28.4403 7.36226C27.1347 5.14356 27.8924 2.31611 30.1328 1.04702C32.3732 -0.222071 35.2477 0.547876 36.5533 2.76658Z" fill="white" stroke="url(#paint5_linear)" stroke-width="0.8"/>
<path d="M32.5422 3.28906L33.4347 4.23159L34.3929 5.10947L33.4347 5.98736L32.5422 6.92989L31.6496 5.98736L30.6914 5.10947L31.6496 4.23159L32.5422 3.28906Z" fill="url(#paint6_linear)"/>
</g>
<defs>
<linearGradient id="paint0_linear" x1="18.9503" y1="27.668" x2="18.9503" y2="38.0014" gradientUnits="userSpaceOnUse">
<stop offset="0.817791" stop-color="white"/>
<stop offset="0.963488" stop-color="white" stop-opacity="0"/>
</linearGradient>
<radialGradient id="paint1_radial" cx="0" cy="0" r="1" gradientUnits="userSpaceOnUse" gradientTransform="translate(18.9981 29.4838) rotate(90.3214) scale(8.51781 8.05157)">
<stop offset="0.592378" stop-color="white"/>
<stop offset="1" stop-color="white" stop-opacity="0"/>
</radialGradient>
<linearGradient id="paint2_linear" x1="21.8231" y1="26.9564" x2="11.4112" y2="34.2876" gradientUnits="userSpaceOnUse">
<stop stop-color="#3CE700"/>
<stop offset="0.567708" stop-color="#0BC91E"/>
</linearGradient>
<linearGradient id="paint3_linear" x1="14.5519" y1="26.9762" x2="12.9717" y2="27.1259" gradientUnits="userSpaceOnUse">
<stop stop-color="#3CE700"/>
<stop offset="0.567708" stop-color="#0BC91E"/>
</linearGradient>
<linearGradient id="paint4_linear" x1="24.38" y1="26.9762" x2="22.7998" y2="27.1259" gradientUnits="userSpaceOnUse">
<stop stop-color="#3CE700"/>
<stop offset="0.567708" stop-color="#0BC91E"/>
</linearGradient>
<linearGradient id="paint5_linear" x1="32.1672" y1="-1.36609" x2="27.1129" y2="10.4393" gradientUnits="userSpaceOnUse">
<stop stop-color="#EAED4F"/>
<stop offset="0.567708" stop-color="#C4B000"/>
</linearGradient>
<linearGradient id="paint6_linear" x1="33.6308" y1="3.03834" x2="29.8801" y2="5.87875" gradientUnits="userSpaceOnUse">
<stop stop-color="#EAED4F"/>
<stop offset="0.567708" stop-color="#C4B000"/>
</linearGradient>
<clipPath id="clip0">
<rect width="38" height="38" fill="white"/>
</clipPath>
</defs>
</svg>
