<svg width="38" height="38" viewBox="0 0 38 38" fill="none" xmlns="http://www.w3.org/2000/svg">
    <g clip-path="url(#clip0)">
        <path d="M20.6054 5.4364C20.6266 5.46303 20.6518 5.49449 20.6808 5.5306C21.1519 6.11828 22.6113 7.93896 24.0559 10.2837C25.596 12.7836 27.0867 15.8284 27.3778 18.5817C27.6204 20.8763 27.946 25.1527 27.924 27.7146C27.9105 29.2906 27.6689 30.457 27.2543 31.3248C26.8437 32.1841 26.2551 32.7689 25.5076 33.1748C24.7513 33.5856 23.8188 33.8202 22.7173 33.9495C21.616 34.0787 20.372 34.0999 19.0011 34.0999C16.241 34.0999 14.0308 33.9668 12.4977 33.1149C11.7478 32.6982 11.1579 32.107 10.7472 31.2541C10.3328 30.3937 10.0918 29.2479 10.0787 27.7146C10.0567 25.1529 10.3866 20.8767 10.6292 18.5817C10.9203 15.8283 12.4098 12.7834 13.9488 10.2836C15.3946 7.93492 16.8555 6.11203 17.3238 5.52763C17.3518 5.49276 17.3762 5.4623 17.3969 5.4364C17.4662 5.34948 17.5275 5.26137 17.5846 5.16464C18.1867 4.14499 19.8155 4.14499 20.4176 5.16464C20.4747 5.26137 20.536 5.34948 20.6054 5.4364Z" fill="white" stroke="#0500FF" stroke-width="0.8" stroke-linecap="round" stroke-linejoin="round"/>
        <path d="M17.8769 34L17.7309 33.5648C17.2121 32.0182 16.6677 30.3368 16.2535 28.9145C16.0462 28.203 15.8728 27.5605 15.7515 27.0342C15.6276 26.4965 15.5664 26.1138 15.5664 25.9047C15.5664 24.2664 17.0619 22.8662 19.0007 22.8662C20.9395 22.8662 22.435 24.2664 22.435 25.9047C22.435 26.1138 22.3737 26.4965 22.2498 27.0342C22.1286 27.5605 21.9551 28.203 21.7479 28.9145C21.3337 30.3368 20.7893 32.0182 20.2704 33.5648L20.1244 34H20.1241L20.032 34.2715C19.6528 35.3895 19.3021 36.3957 19.0455 37.1243C19.0445 37.1271 19.0441 37.1272 19.0447 37.1265C19.0451 37.126 19.0446 37.1267 19.0421 37.1283C19.0361 37.1321 19.0216 37.1379 19.0007 37.1379C18.9798 37.1379 18.9653 37.1321 18.9592 37.1283C18.9567 37.1267 18.9563 37.126 18.9567 37.1265C18.9573 37.1272 18.9568 37.1271 18.9559 37.1243C18.6993 36.3957 18.3486 35.3895 17.9694 34.2715L17.8773 34H17.8769ZM27.5829 30.6441L27.3023 30.6355C27.391 30.3172 27.443 29.9842 27.4536 29.6398C27.5085 27.856 27.5421 25.76 27.5042 23.6906L27.6656 23.7994C28.5531 24.3979 30.0544 25.4917 31.3293 26.8164C32.6216 28.1591 33.5995 29.6556 33.5995 31.0625V37.0553C33.5932 37.0596 33.5817 37.0659 33.564 37.0703C33.5375 37.077 33.5123 37.0754 33.4952 37.0701C33.481 37.0658 33.4746 37.0601 33.4694 37.0526C32.7297 35.9849 31.6117 34.4234 30.5337 33.1215C29.9957 32.4717 29.4594 31.8765 28.9794 31.4382C28.7398 31.2194 28.5052 31.0312 28.284 30.8944C28.0717 30.763 27.8293 30.6517 27.5829 30.6441ZM10.3357 23.7994L10.4972 23.6906C10.4593 25.76 10.4929 27.856 10.5478 29.6398C10.5584 29.9842 10.6103 30.3172 10.6991 30.6355L10.4184 30.6441C10.1721 30.6517 9.92966 30.763 9.71733 30.8944C9.49622 31.0312 9.26159 31.2194 9.02195 31.4382C8.542 31.8765 8.00569 32.4717 7.46762 33.1215C6.38963 34.4234 5.27166 35.9849 4.532 37.0526C4.52681 37.0601 4.52033 37.0658 4.50622 37.0701C4.48907 37.0754 4.46391 37.077 4.4374 37.0703C4.41962 37.0659 4.40814 37.0596 4.40187 37.0553L4.40186 31.0625C4.40186 29.6556 5.37975 28.1591 6.67205 26.8164C7.94702 25.4917 9.44826 24.3979 10.3357 23.7994Z" fill="white" stroke="#0500FF" stroke-width="0.8"/>
        <path d="M22.0996 14.0706C22.0996 15.5413 20.7556 16.8059 19.0037 16.8059C17.2517 16.8059 15.9077 15.5413 15.9077 14.0706C15.9077 12.5999 17.2517 11.3354 19.0037 11.3354C20.7556 11.3354 22.0996 12.5999 22.0996 14.0706Z" fill="white" stroke="#0500FF" stroke-width="0.8"/>
        <path d="M15.168 8.40888C18.1188 8.01705 19.773 7.99181 22.7238 8.40888" stroke="#0500FF" stroke-width="0.8"/>
        <path d="M16.9727 19.3301C18.6446 19.7134 19.5229 19.6661 21.0325 19.3301" stroke="#0500FF" stroke-width="0.8" stroke-linecap="round"/>
        <path d="M10.4423 0.324692C10.3773 -0.108231 9.74244 -0.10823 9.67743 0.324692L9.61259 0.756455C9.58769 0.922322 9.45527 1.05257 9.28664 1.07707L8.84768 1.14084C8.40754 1.20478 8.40754 1.82924 8.84768 1.89318L9.28664 1.95695C9.45527 1.98145 9.58769 2.1117 9.61259 2.27756L9.67743 2.70933C9.74244 3.14225 10.3773 3.14225 10.4423 2.70933L10.5071 2.27756C10.5321 2.1117 10.6645 1.98145 10.8331 1.95695L11.2721 1.89318C11.7122 1.82924 11.7122 1.20478 11.2721 1.14084L10.8331 1.07707C10.6645 1.05257 10.5321 0.922322 10.5071 0.756455L10.4423 0.324692Z" fill="#C4C4C4"/>
        <path d="M3.07147 12.3111C2.96773 11.6203 1.95462 11.6203 1.85088 12.3111L1.74742 13.0001C1.70767 13.2648 1.49636 13.4726 1.22726 13.5117L0.526775 13.6135C-0.175592 13.7155 -0.175591 14.712 0.526776 14.8141L1.22726 14.9159C1.49636 14.955 1.70767 15.1628 1.74742 15.4275L1.85088 16.1165C1.95462 16.8073 2.96773 16.8073 3.07147 16.1165L3.17494 15.4275C3.21468 15.1628 3.42599 14.955 3.69509 14.9159L4.39558 14.8141C5.09795 14.712 5.09794 13.7155 4.39558 13.6135L3.69509 13.5117C3.42599 13.4726 3.21468 13.2648 3.17494 13.0001L3.07147 12.3111Z" fill="#C4C4C4"/>
        <path d="M33.9242 13.3247C33.8592 12.8918 33.2244 12.8918 33.1594 13.3247L33.0945 13.7565C33.0696 13.9223 32.9372 14.0526 32.7686 14.0771L32.3296 14.1408C31.8895 14.2048 31.8895 14.8292 32.3296 14.8932L32.7686 14.957C32.9372 14.9815 33.0696 15.1117 33.0945 15.2776L33.1594 15.7093C33.2244 16.1423 33.8592 16.1423 33.9242 15.7093L33.9891 15.2776C34.014 15.1117 34.1464 14.9815 34.315 14.957L34.754 14.8932C35.1941 14.8292 35.1941 14.2048 34.754 14.1408L34.315 14.0771C34.1464 14.0526 34.014 13.9223 33.9891 13.7565L33.9242 13.3247Z" fill="#C4C4C4"/>
        <path d="M1.37401 4.03697C0.976513 4.03697 0.654276 3.72002 0.654276 3.32903C0.654276 2.93805 0.976513 2.62109 1.37401 2.62109C1.77151 2.62109 2.09375 2.93805 2.09375 3.32903C2.09375 3.72002 1.77151 4.03697 1.37401 4.03697Z" fill="#C4C4C4"/>
        <path d="M5.30565 21.7264C4.90815 21.7264 4.58592 21.4095 4.58592 21.0185C4.58592 20.6275 4.90815 20.3105 5.30565 20.3105C5.70315 20.3105 6.02539 20.6275 6.02539 21.0185C6.02539 21.4095 5.70315 21.7264 5.30565 21.7264Z" fill="#C4C4C4"/>
        <path d="M36.5617 25.2577C35.9087 25.2577 35.3793 24.737 35.3793 24.0947C35.3793 23.4524 35.9087 22.9316 36.5617 22.9316C37.2148 22.9316 37.7441 23.4524 37.7441 24.0947C37.7441 24.737 37.2148 25.2577 36.5617 25.2577Z" fill="#C4C4C4"/>
        <path d="M24.7197 3.41588C24.3222 3.41588 24 3.09892 24 2.70794C24 2.31696 24.3222 2 24.7197 2C25.1172 2 25.4395 2.31696 25.4395 2.70794C25.4395 3.09892 25.1172 3.41588 24.7197 3.41588Z" fill="#C4C4C4"/>
        <path d="M37.6214 4.98916C37.6214 7.5356 35.5571 9.5999 33.0106 9.5999C30.4642 9.5999 28.3999 7.5356 28.3999 4.98916C28.3999 2.44271 30.4642 0.378418 33.0106 0.378418C35.5571 0.378418 37.6214 2.44271 37.6214 4.98916Z" fill="white" stroke="url(#paint0_linear)" stroke-width="0.8"/>
        <path d="M32.7655 6.60479L35.5701 3.80213L35.041 3.27344L32.7375 5.58754L31.4906 4.61756L31.0273 5.16029L32.7655 6.60479Z" fill="url(#paint1_linear)"/>
    </g>
    <defs>
        <linearGradient id="paint0_linear" x1="35.958" y1="-0.711699" x2="25.6816" y2="6.94309" gradientUnits="userSpaceOnUse">
            <stop stop-color="#3CE700"/>
            <stop offset="0.567708" stop-color="#0BC91E"/>
        </linearGradient>
        <linearGradient id="paint1_linear" x1="34.6348" y1="3.04403" x2="31.0699" y2="6.66509" gradientUnits="userSpaceOnUse">
            <stop stop-color="#3CE700"/>
            <stop offset="0.567708" stop-color="#0BC91E"/>
        </linearGradient>
        <clipPath id="clip0">
            <rect width="38" height="38" fill="white"/>
        </clipPath>
    </defs>
</svg>
