<svg width="213" height="120" viewBox="0 0 213 120" fill="none" xmlns="http://www.w3.org/2000/svg">
<g clip-path="url(#clip0)">
<path d="M32.6464 94.2517C24.5225 88.715 16.6898 81.0086 10.9699 72.882C9.01444 66.0475 4.60092 59.6191 26.6439 50.8838C28.7782 59.4192 43.6518 72.882 52.0275 76.7261C47.7284 88.6322 41.0954 101.415 32.6464 94.2517Z" fill="url(#paint0_linear)"/>
<path d="M32.6455 94.2517C33.3995 94.7656 34.16 95.2608 34.925 95.7359C42.2921 99.0766 48.1219 87.5398 52.0266 76.7261C54.4606 69.9853 56.1465 63.5255 56.9904 61.1257C58.8579 55.815 59.7695 45.9333 59.9918 41.6563C77.9926 39.1723 83.7078 44.4321 84.1366 48.1807C82.9586 66.378 76.678 88.6961 65.6609 98.9653C58.7225 105.433 46.3228 102.814 34.925 95.7359C34.1808 95.3984 33.4208 94.909 32.6455 94.2517Z" fill="url(#paint1_linear)"/>
<path opacity="0.3" d="M10.9705 72.8836C10.8006 72.2898 10.6122 71.699 10.4241 71.1095C8.44789 64.9147 6.51696 58.8619 26.6436 50.8857C26.6444 50.8888 26.6456 50.8921 26.6471 50.8955C27.7445 55.2657 32.1765 60.925 37.3646 65.9235L18.7745 82.3667C15.9106 79.3493 13.2699 76.1504 10.9705 72.8836Z" fill="url(#paint2_radial)"/>
<path opacity="0.3" fill-rule="evenodd" clip-rule="evenodd" d="M20.1982 83.8336C24.0822 87.7455 28.3233 91.3067 32.6468 94.2533C33.4228 94.9112 34.1836 95.4009 34.9286 95.7385L34.9251 95.7363C42.2921 99.077 48.1218 87.5405 52.0265 76.727C48.1064 74.9275 42.7633 71.0215 37.9692 66.5C33.6894 72.812 26.1246 79.3054 20.1982 83.8336ZM34.9251 95.7363C34.1808 95.3988 33.4209 94.9095 32.6456 94.2521C33.3996 94.766 34.1601 95.2612 34.9251 95.7363Z" fill="url(#paint3_radial)"/>
<path opacity="0.3" d="M68.555 41.0117C66.0709 41.0112 63.2298 41.2074 59.991 41.6543C59.7826 45.6628 58.9688 54.5943 57.3301 60.0719C65.4806 60.4925 75.3284 62.0215 81.5443 65.9675C82.897 59.9769 83.7638 53.8951 84.1335 48.2137C84.1342 48.2016 84.1348 48.1899 84.1356 48.1785C83.7839 45.1045 79.8769 41.0143 68.555 41.0117Z" fill="url(#paint4_radial)"/>
<path d="M8.29998 36.7758C23.3076 25.4904 46.3184 18.3078 70.6628 19.9684C79.6459 20.5812 84.4617 28.9761 84.3361 42.8705C84.3206 44.5888 84.2538 46.3643 84.1362 48.1809C83.7074 44.4323 77.9922 39.1725 59.9914 41.6565C55.1464 42.325 49.4114 43.5545 42.65 45.5255C36.1802 47.4115 30.9145 49.191 26.6425 50.884C4.59961 59.6193 9.01312 66.0477 10.9686 72.8822C10.0181 71.5318 9.12591 70.1698 8.30044 68.8042C0.623167 56.1033 -1.90167 44.4471 8.29998 36.7758Z" fill="url(#paint5_linear)"/>
<g opacity="0.12">
<path d="M1.56706 49.3604C1.43706 55.2062 4.09615 61.8483 8.30044 68.8036C9.12591 70.1692 10.0181 71.5313 10.9686 72.8817C10.8271 72.3873 10.6728 71.895 10.5165 71.4038C9.7341 70.2667 8.99375 69.1222 8.30044 67.9752C4.2935 61.3464 1.69009 55.0021 1.56706 49.3604Z" fill="black"/>
<path d="M10.5165 71.4038C10.6724 71.8939 10.8264 72.3851 10.9676 72.8783L10.9702 72.8819C16.6901 81.0085 24.523 88.7153 32.6469 94.2519C33.423 94.9099 34.1836 95.3996 34.9286 95.7371C46.3255 102.814 58.7234 105.431 65.6611 98.9644C73.2325 91.907 78.5669 79.1588 81.5454 65.9684C82.8981 59.9778 83.7651 53.8957 84.1348 48.2143L84.1352 48.2059C83.7646 53.878 82.8962 59.1579 81.5454 65.14C78.5669 78.3304 73.2325 91.0786 65.6611 98.136C58.7234 104.603 46.3255 101.986 34.9286 94.9087C34.1836 94.5712 33.423 94.0815 32.6469 93.4235C24.523 87.8869 16.6901 80.1801 10.9702 72.0535L10.9686 72.0533C10.8174 71.8385 10.6648 71.6192 10.5165 71.4038Z" fill="black"/>
</g>
<g opacity="0.12">
<path d="M1.56706 49.362C1.43706 55.2079 4.09615 61.8499 8.30044 68.8053C9.12591 70.1709 10.0181 71.5329 10.9686 72.8833C10.8271 72.3889 10.6728 71.8966 10.5165 71.4054C9.7341 70.2683 8.99375 69.1238 8.30044 67.9769C4.2935 61.348 1.69009 55.0037 1.56706 49.362Z" fill="black"/>
<path d="M9.2595 65.1523C9.46115 60.8535 12.9406 56.315 26.6425 50.8851C30.9145 49.1921 36.1802 47.4126 42.65 45.5266C49.4114 43.5556 55.1464 42.3261 59.9914 41.6575C77.9922 39.1736 83.7074 44.4334 84.1362 48.182C84.2538 46.3654 84.3206 44.5899 84.3361 42.8715C84.339 42.5552 84.3393 42.2418 84.337 41.9312C84.3368 41.9685 84.3364 42.0058 84.3361 42.0431C84.3206 43.7615 84.2538 45.537 84.1362 47.3536C83.7074 43.605 77.9922 38.3452 59.9914 40.8291C55.1464 41.4977 49.4114 42.7272 42.65 44.6982C36.1802 46.5842 30.9145 48.3637 26.6425 50.0567C12.0574 55.8365 9.05508 60.6065 9.2595 65.1523Z" fill="black"/>
</g>
<rect width="19.376" height="19.376" transform="matrix(0.708769 0.705441 -0.708769 0.705441 105.207 0.769531)" fill="url(#paint6_linear)"/>
<path opacity="0.12" d="M118.222 13.7236L105.207 26.6778L92.1914 13.7236L91.4736 14.4381L105.207 28.1067L118.94 14.4381L118.222 13.7236Z" fill="black"/>
<path d="M141.357 48.6292C144.416 48.6292 147.06 49.1929 149.287 50.3202C151.541 51.4213 153.259 53.0075 154.439 55.0787C155.647 57.1498 156.251 59.588 156.251 62.3933C156.251 65.1985 155.647 67.6367 154.439 69.7079C153.259 71.7528 151.541 73.3259 149.287 74.427C147.06 75.5019 144.416 76.0393 141.357 76.0393H132.622V48.6292H141.357ZM141.357 73.0899C144.98 73.0899 147.744 72.1592 149.649 70.2978C151.555 68.4101 152.507 65.7753 152.507 62.3933C152.507 58.985 151.541 56.324 149.609 54.4101C147.704 52.4963 144.953 51.5393 141.357 51.5393H136.285V73.0899H141.357Z" fill="white"/>
<path d="M175.654 69.9438H163.417L161.163 76.0393H157.299L167.443 48.7865H171.669L181.773 76.0393H177.909L175.654 69.9438ZM174.608 67.0337L169.536 53.191L164.464 67.0337H174.608Z" fill="white"/>
<path d="M196.901 76.3146C194.298 76.3146 191.923 75.7247 189.776 74.545C187.63 73.339 185.925 71.6742 184.664 69.5506C183.43 67.4008 182.813 64.9888 182.813 62.3146C182.813 59.6405 183.43 57.2416 184.664 55.118C185.925 52.9682 187.63 51.3034 189.776 50.1236C191.923 48.9176 194.298 48.3146 196.901 48.3146C199.531 48.3146 201.92 48.9176 204.066 50.1236C206.213 51.3034 207.904 52.9551 209.138 55.0787C210.373 57.2022 210.99 59.6142 210.99 62.3146C210.99 65.015 210.373 67.427 209.138 69.5506C207.904 71.6742 206.213 73.339 204.066 74.545C201.92 75.7247 199.531 76.3146 196.901 76.3146ZM196.901 73.2079C198.86 73.2079 200.618 72.7622 202.174 71.8708C203.758 70.9794 204.992 69.7079 205.878 68.0562C206.79 66.4045 207.246 64.4906 207.246 62.3146C207.246 60.1124 206.79 58.1985 205.878 56.573C204.992 54.9214 203.771 53.6498 202.215 52.7584C200.658 51.867 198.887 51.4213 196.901 51.4213C194.915 51.4213 193.144 51.867 191.588 52.7584C190.031 53.6498 188.797 54.9214 187.884 56.573C186.999 58.1985 186.556 60.1124 186.556 62.3146C186.556 64.4906 186.999 66.4045 187.884 68.0562C188.797 69.7079 190.031 70.9794 191.588 71.8708C193.171 72.7622 194.942 73.2079 196.901 73.2079Z" fill="white"/>
</g>
<defs>
<linearGradient id="paint0_linear" x1="28.1571" y1="70.9514" x2="14.4681" y2="91.0351" gradientUnits="userSpaceOnUse">
<stop stop-color="#5E5E5E"/>
<stop offset="1" stop-color="#C4C4C4"/>
</linearGradient>
<linearGradient id="paint1_linear" x1="58.3912" y1="40.1678" x2="71.0469" y2="99.3849" gradientUnits="userSpaceOnUse">
<stop stop-color="#A1A1A1"/>
<stop offset="1" stop-color="#C4C4C4"/>
</linearGradient>
<radialGradient id="paint2_radial" cx="0" cy="0" r="1" gradientUnits="userSpaceOnUse" gradientTransform="translate(27.692 74.911) rotate(-106.017) scale(21.1155 31.148)">
<stop offset="0.527274" stop-opacity="0"/>
<stop offset="1"/>
</radialGradient>
<radialGradient id="paint3_radial" cx="0" cy="0" r="1" gradientUnits="userSpaceOnUse" gradientTransform="translate(34.7661 75.3252) rotate(65.5575) scale(19.1091 38.3457)">
<stop offset="0.427131" stop-opacity="0"/>
<stop offset="1"/>
</radialGradient>
<radialGradient id="paint4_radial" cx="0" cy="0" r="1" gradientUnits="userSpaceOnUse" gradientTransform="translate(69.7221 61.6538) rotate(-86.2511) scale(19.0941 35.6264)">
<stop offset="0.365766" stop-opacity="0"/>
<stop offset="1"/>
</radialGradient>
<linearGradient id="paint5_linear" x1="77.5979" y1="26.9206" x2="40.0634" y2="91.3669" gradientUnits="userSpaceOnUse">
<stop stop-color="#F4F4F4"/>
<stop offset="1" stop-color="#D3D3D3"/>
</linearGradient>
<linearGradient id="paint6_linear" x1="6.72843" y1="4.58005" x2="10.7606" y2="14.8763" gradientUnits="userSpaceOnUse">
<stop stop-color="#848484"/>
<stop offset="1" stop-color="#A1A1A1"/>
</linearGradient>
<clipPath id="clip0">
<rect width="213" height="120" fill="white"/>
</clipPath>
</defs>
</svg>
