<svg width="18" height="13" viewBox="0 0 18 13" fill="none" xmlns="http://www.w3.org/2000/svg">
    <path d="M14 4.33333H4V2.88889H14V4.33333ZM14 7.22222H4V5.77778H14V7.22222ZM11 10.1111H4V8.66667H11V10.1111ZM16 0C10.8798 0 7.3865 0 2 0C1.46957 0 0.960859 0.152182 0.585786 0.423068C0.210714 0.693954 0 1.06135 0 1.44444V11.5556C0 11.9386 0.210714 12.306 0.585786 12.5769C0.960859 12.8478 1.46957 13 2 13H16C16.5304 13 17.0391 12.8478 17.4142 12.5769C17.7893 12.306 18 11.9386 18 11.5556V1.44444C18 1.06135 17.7893 0.693954 17.4142 0.423068C17.0391 0.152182 16.5304 0 16 0Z" fill="#0BC91F"/>
</svg>
