<svg width="40" height="40" viewBox="0 0 40 40" fill="none" xmlns="http://www.w3.org/2000/svg">
<path d="M22.9031 21V19H20.9976V17H19.0036V19H17.0981L17.0981 21H19.0036V23H20.9976V21H22.9031Z" fill="#ABB3AC"/>
<path fill-rule="evenodd" clip-rule="evenodd" d="M20 27C23.866 27 27 23.866 27 20C27 16.134 23.866 13 20 13C16.134 13 13 16.134 13 20C13 23.866 16.134 27 20 27ZM20 25C22.7614 25 25 22.7614 25 20C25 17.2386 22.7614 15 20 15C17.2386 15 15 17.2386 15 20C15 22.7614 17.2386 25 20 25Z" fill="#ABB3AC"/>
</svg>
