<svg width="69" height="69" viewBox="0 0 69 69" fill="none" xmlns="http://www.w3.org/2000/svg">
<circle r="34" transform="matrix(-1 0 0 1 34.5 34.5)" stroke="#D1D1D1" stroke-dasharray="3.2 3.2"/>
<ellipse opacity="0.15" rx="23.1452" ry="22.7685" transform="matrix(-1 0 0 1 33.8275 34.4989)" fill="url(#paint0_linear)"/>
<path d="M4.8313 62.5503C4.73208 61.8895 3.7631 61.8895 3.66387 62.5503L3.56492 63.2093C3.5269 63.4624 3.3248 63.6612 3.06742 63.6986L2.39744 63.796C1.72567 63.8936 1.72567 64.8467 2.39744 64.9443L3.06742 65.0416C3.3248 65.079 3.5269 65.2778 3.56492 65.531L3.66387 66.19C3.7631 66.8508 4.73208 66.8508 4.8313 66.19L4.93026 65.531C4.96827 65.2778 5.17038 65.079 5.42776 65.0416L6.09773 64.9443C6.76951 64.8467 6.76951 63.8936 6.09773 63.796L5.42776 63.6986C5.17038 63.6612 4.96827 63.4624 4.93026 63.2093L4.8313 62.5503Z" fill="#C4C4C4"/>
<path d="M66.0571 62.3807C65.8987 61.3262 64.3524 61.3262 64.1941 62.3807L64.0362 63.4323C63.9755 63.8363 63.653 64.1536 63.2423 64.2132L62.1731 64.3686C61.1011 64.5243 61.1011 66.0453 62.1731 66.201L63.2423 66.3564C63.653 66.416 63.9755 66.7333 64.0362 67.1373L64.1941 68.1889C64.3524 69.2434 65.8987 69.2434 66.0571 68.1889L66.215 67.1373C66.2757 66.7333 66.5982 66.416 67.0089 66.3564L68.078 66.201C69.15 66.0453 69.15 64.5243 68.078 64.3686L67.0089 64.2132C66.5982 64.1536 66.2757 63.8363 66.215 63.4323L66.0571 62.3807Z" fill="#C4C4C4"/>
<ellipse rx="1.09852" ry="1.08054" transform="matrix(-1 0 0 1 28.5675 6.17429)" fill="#C4C4C4"/>
<ellipse rx="1.80471" ry="1.77517" transform="matrix(-1 0 0 1 17.9785 46.2322)" fill="#C4C4C4"/>
<ellipse rx="1.80471" ry="1.77517" transform="matrix(-1 0 0 1 4.17185 3.31814)" fill="#C4C4C4"/>
<ellipse rx="1.09852" ry="1.08054" transform="matrix(-1 0 0 1 66.3898 6.17429)" fill="#C4C4C4"/>
<path d="M5.38477 15.2787C5.38477 13.8575 6.55824 12.6914 8.02317 12.6914H37.4405C38.9054 12.6914 40.0789 13.8575 40.0789 15.2787V30.4944C40.0789 31.9156 38.9054 33.0816 37.4405 33.0816H22.9431C22.7466 33.0816 22.5541 33.1408 22.3915 33.2522L12.096 40.3051C11.5853 40.6549 10.9101 40.2878 10.9058 39.7095L10.8631 34.0375C10.8591 33.5008 10.418 33.0816 9.89237 33.0816H8.02317C6.55824 33.0816 5.38477 31.9156 5.38477 30.4944V15.2787Z" fill="white" stroke="#0500FF" stroke-linecap="round" stroke-linejoin="round"/>
<path d="M12.5915 27.3272C12.5915 28.2692 11.8128 29.0469 10.8348 29.0469C9.85681 29.0469 9.07812 28.2692 9.07812 27.3272C9.07812 26.3851 9.85681 25.6074 10.8348 25.6074C11.8128 25.6074 12.5915 26.3851 12.5915 27.3272Z" stroke="#0500FF"/>
<path d="M21.613 27.3272C21.613 28.2692 20.8343 29.0469 19.8563 29.0469C18.8783 29.0469 18.0996 28.2692 18.0996 27.3272C18.0996 26.3851 18.8783 25.6074 19.8563 25.6074C20.8343 25.6074 21.613 26.3851 21.613 27.3272Z" stroke="#0500FF"/>
<path d="M30.6423 27.3272C30.6423 28.2692 29.8636 29.0469 28.8856 29.0469C27.9076 29.0469 27.1289 28.2692 27.1289 27.3272C27.1289 26.3851 27.9076 25.6074 28.8856 25.6074C29.8636 25.6074 30.6423 26.3851 30.6423 27.3272Z" stroke="#0500FF"/>
<line x1="42.7734" y1="13.9219" x2="56.5187" y2="13.9219" stroke="#D1D1D1"/>
<line x1="42.7734" y1="18.3633" x2="52.4156" y2="18.3633" stroke="#D1D1D1"/>
<line x1="42.7734" y1="22.5996" x2="48.3126" y2="22.5996" stroke="#D1D1D1"/>
<path d="M54.0616 22.377C55.5265 22.377 56.7 23.543 56.7 24.9642V40.1799C56.7 41.6011 55.5265 42.7672 54.0616 42.7672H52.1924C51.6667 42.7672 51.2257 43.1864 51.2216 43.7231L51.1789 49.3952C51.1746 49.9734 50.4995 50.3406 49.9888 49.9907L39.693 42.9377C39.5304 42.8263 39.3379 42.7672 39.1414 42.7672L24.6443 42.7672C23.1793 42.7672 22.0059 41.6011 22.0059 40.1799V24.9642C22.0059 23.543 23.1793 22.377 24.6443 22.377H54.0616Z" fill="white" stroke="#0500FF" stroke-linecap="round" stroke-linejoin="round"/>
<path d="M29.2126 37.0127C29.2126 37.9547 28.4339 38.7324 27.4559 38.7324C26.4779 38.7324 25.6992 37.9547 25.6992 37.0127C25.6992 36.0707 26.4779 35.293 27.4559 35.293C28.4339 35.293 29.2126 36.0707 29.2126 37.0127Z" stroke="#0500FF"/>
<path d="M38.236 37.0127C38.236 37.9547 37.4573 38.7324 36.4793 38.7324C35.5013 38.7324 34.7227 37.9547 34.7227 37.0127C34.7227 36.0707 35.5013 35.293 36.4793 35.293C37.4573 35.293 38.236 36.0707 38.236 37.0127Z" stroke="#0500FF"/>
<path d="M47.2634 37.0127C47.2634 37.9547 46.4847 38.7324 45.5067 38.7324C44.5287 38.7324 43.75 37.9547 43.75 37.0127C43.75 36.0707 44.5287 35.293 45.5067 35.293C46.4847 35.293 47.2634 36.0707 47.2634 37.0127Z" stroke="#0500FF"/>
<line x1="59.334" y1="23.5801" x2="68.9068" y2="23.5801" stroke="#D1D1D1"/>
<line x1="59.334" y1="28.0566" x2="68.9068" y2="28.0566" stroke="#D1D1D1"/>
<line x1="59.3984" y1="32.2832" x2="64.9376" y2="32.2832" stroke="#D1D1D1"/>
<path d="M21.8728 52.1733L22.3546 53.6081C22.5305 54.132 23.0247 54.4787 23.5736 54.4787H25.1049C25.399 54.4787 25.4793 54.8247 25.2735 54.9694L24.0571 55.8245C23.5989 56.1466 23.4027 56.7293 23.5818 57.2627L24.0517 58.662C24.0924 58.7833 24.0515 58.8899 23.9526 58.9615C23.8527 59.0338 23.7269 59.0445 23.6121 58.9638L22.3455 58.0734C21.9001 57.7603 21.3034 57.7603 20.858 58.0734L19.5914 58.9638C19.4766 59.0445 19.3507 59.0338 19.2509 58.9615C19.152 58.8899 19.111 58.7833 19.1518 58.662L19.6216 57.2627C19.8008 56.7293 19.6046 56.1466 19.1464 55.8245L17.93 54.9694C17.7242 54.8247 17.8045 54.4787 18.0986 54.4787H19.6299C20.1788 54.4787 20.6729 54.132 20.8489 53.6081L21.3307 52.1733C21.4153 51.9214 21.7882 51.9214 21.8728 52.1733ZM34.2841 52.2115L34.7434 53.6022C34.9175 54.1292 35.4132 54.4787 35.9644 54.4787H37.4508C37.7437 54.4787 37.825 54.8225 37.6213 54.9681L36.4187 55.8276C35.9679 56.1498 35.7751 56.7255 35.9497 57.2541L36.409 58.6447C36.4492 58.7664 36.4075 58.8729 36.308 58.944C36.2074 59.0159 36.0814 59.0257 35.9671 58.944L34.7646 58.0846C34.3157 57.7637 33.7096 57.7637 33.2607 58.0846L32.0582 58.944C31.9439 59.0257 31.8178 59.0159 31.7173 58.944C31.6177 58.8729 31.5761 58.7664 31.6163 58.6447L32.0756 57.2541C32.2502 56.7255 32.0574 56.1498 31.6066 55.8276L30.404 54.9681C30.2003 54.8225 30.2816 54.4787 30.5745 54.4787H32.0609C32.6121 54.4787 33.1078 54.1292 33.2819 53.6022L33.7412 52.2115C33.825 51.958 34.2003 51.958 34.2841 52.2115ZM46.4893 52.1733L46.9712 53.6081C47.1471 54.132 47.6412 54.4787 48.1902 54.4787H49.7215C50.0155 54.4787 50.0958 54.8247 49.8901 54.9694L48.6737 55.8245C48.2155 56.1466 48.0193 56.7293 48.1984 57.2627L48.6683 58.662C48.709 58.7833 48.668 58.8899 48.5692 58.9615C48.4693 59.0338 48.3434 59.0445 48.2286 58.9638L46.962 58.0734C46.5167 57.7603 45.92 57.7603 45.4746 58.0734L44.208 58.9638C44.0932 59.0445 43.9673 59.0338 43.8674 58.9615C43.7686 58.8899 43.7276 58.7833 43.7683 58.662L44.2382 57.2627C44.4173 56.7293 44.2212 56.1466 43.7629 55.8245L42.5465 54.9694C42.3408 54.8247 42.4211 54.4787 42.7152 54.4787H44.2465C44.7954 54.4787 45.2895 54.132 45.4655 53.6081L45.9473 52.1733C46.0319 51.9214 46.4048 51.9214 46.4893 52.1733Z" fill="white" stroke="url(#paint1_linear)"/>
<defs>
<linearGradient id="paint0_linear" x1="36.7593" y1="-3.13584" x2="-10.1498" y2="32.3847" gradientUnits="userSpaceOnUse">
<stop stop-color="#3CE700"/>
<stop offset="0.567708" stop-color="#0BC91E"/>
</linearGradient>
<linearGradient id="paint1_linear" x1="43.6728" y1="50.931" x2="38.617" y2="66.4882" gradientUnits="userSpaceOnUse">
<stop stop-color="#3CE700"/>
<stop offset="0.567708" stop-color="#0BC91E"/>
</linearGradient>
</defs>
</svg>
