<svg width="14" height="14" viewBox="0 0 14 14" fill="none" xmlns="http://www.w3.org/2000/svg">
    <path d="M14 14C14 6.26801 7.73199 0 0 0V2.33333C6.44332 2.33333 11.6667 7.55668 11.6667 14H14Z" fill="#0BC91F"/>
    <path d="M9.33333 14C9.33333 8.84534 5.15466 4.66667 0 4.66667V7C3.86596 7.00004 6.99992 10.134 6.99992 14H9.33333Z" fill="#0BC91F"/>
    <path d="M2.1 14C3.2598 14 4.2 13.0598 4.2 11.9C4.2 10.7402 3.2598 9.8 2.1 9.8C0.940202 9.8 0 10.7402 0 11.9C0 13.0598 0.940202 14 2.1 14Z" fill="#0BC91F"/>
</svg>
