<svg width="240" height="240" viewBox="0 0 240 240" fill="none" xmlns="http://www.w3.org/2000/svg">
    <path d="M223.392 88.0554C223.224 86.9138 221.577 86.9138 221.409 88.0554L221.24 89.1938C221.176 89.6312 220.832 89.9746 220.395 90.0392L219.257 90.2073C218.115 90.3759 218.115 92.0225 219.257 92.1911L220.395 92.3592C220.832 92.4238 221.176 92.7673 221.24 93.2046L221.409 94.3431C221.577 95.4846 223.224 95.4846 223.392 94.3431L223.56 93.2046C223.625 92.7673 223.968 92.4238 224.406 92.3592L225.544 92.1911C226.686 92.0225 226.686 90.3759 225.544 90.2073L224.406 90.0392C223.968 89.9746 223.625 89.6312 223.56 89.1938L223.392 88.0554Z" fill="#C4C4C4"/>
    <path d="M18.5915 187.257C18.4229 186.115 16.7763 186.115 16.6077 187.257L16.4396 188.395C16.375 188.832 16.0316 189.176 15.5942 189.24L14.4557 189.409C13.3142 189.577 13.3142 191.224 14.4557 191.392L15.5942 191.56C16.0316 191.625 16.375 191.968 16.4396 192.406L16.6077 193.544C16.7763 194.686 18.4229 194.686 18.5915 193.544L18.7596 192.406C18.8242 191.968 19.1677 191.625 19.605 191.56L20.7435 191.392C21.885 191.224 21.885 189.577 20.7435 189.409L19.605 189.24C19.1677 189.176 18.8242 188.832 18.7596 188.395L18.5915 187.257Z" fill="#C4C4C4"/>
    <path d="M167.992 201.856C167.823 200.715 166.177 200.715 166.008 201.856L165.84 202.995C165.775 203.432 165.432 203.775 164.995 203.84L163.856 204.008C162.715 204.177 162.715 205.823 163.856 205.992L164.995 206.16C165.432 206.225 165.775 206.568 165.84 207.005L166.008 208.144C166.177 209.285 167.823 209.285 167.992 208.144L168.16 207.005C168.225 206.568 168.568 206.225 169.005 206.16L170.144 205.992C171.285 205.823 171.285 204.177 170.144 204.008L169.005 203.84C168.568 203.775 168.225 203.432 168.16 202.995L167.992 201.856Z" fill="#C4C4C4"/>
    <path d="M189.587 10.8838C189.317 9.17154 186.682 9.17154 186.413 10.8838L186.144 12.5915C186.04 13.2475 185.491 13.7627 184.791 13.8596L182.969 14.1118C181.143 14.3647 181.143 16.8345 182.969 17.0874L184.791 17.3397C185.491 17.4365 186.04 17.9517 186.144 18.6077L186.413 20.3154C186.682 22.0277 189.317 22.0277 189.587 20.3154L189.856 18.6077C189.959 17.9517 190.508 17.4365 191.208 17.3397L193.03 17.0874C194.856 16.8345 194.856 14.3647 193.03 14.1118L191.208 13.8596C190.508 13.7627 189.959 13.2475 189.856 12.5915L189.587 10.8838Z" fill="#C4C4C4"/>
    <path d="M59.987 219.284C59.7172 217.572 57.0828 217.572 56.813 219.284L56.544 220.992C56.4406 221.648 55.8911 222.163 55.1914 222.26L53.3698 222.512C51.5434 222.765 51.5434 225.235 53.3698 225.488L55.1914 225.74C55.8911 225.837 56.4406 226.352 56.544 227.008L56.813 228.716C57.0828 230.428 59.7172 230.428 59.987 228.716L60.256 227.008C60.3594 226.352 60.9089 225.837 61.6086 225.74L63.4302 225.488C65.2566 225.235 65.2566 222.765 63.4302 222.512L61.6086 222.26C60.9089 222.163 60.3594 221.648 60.256 220.992L59.987 219.284Z" fill="#C4C4C4"/>
    <path d="M7.987 31.2842C7.71724 29.5719 5.08276 29.5719 4.813 31.2842L4.54395 32.9919C4.4406 33.6479 3.89111 34.1631 3.19135 34.26L1.36982 34.5122C-0.456607 34.7651 -0.456605 37.2349 1.36982 37.4878L3.19135 37.74C3.89111 37.8369 4.4406 38.3521 4.54395 39.0081L4.813 40.7158C5.08276 42.4281 7.71724 42.4281 7.987 40.7158L8.25605 39.0081C8.3594 38.3521 8.90888 37.8369 9.60865 37.74L11.4302 37.4878C13.2566 37.2349 13.2566 34.7651 11.4302 34.5122L9.60865 34.26C8.90888 34.1631 8.3594 33.6479 8.25605 32.9919L7.987 31.2842Z" fill="#C4C4C4"/>
    <path d="M235.186 175.685C234.916 173.972 232.282 173.972 232.012 175.685L231.743 177.392C231.64 178.048 231.09 178.563 230.391 178.66L228.569 178.913C226.743 179.165 226.743 181.635 228.569 181.888L230.391 182.14C231.09 182.237 231.64 182.752 231.743 183.408L232.012 185.116C232.282 186.828 234.916 186.828 235.186 185.116L235.455 183.408C235.559 182.752 236.108 182.237 236.808 182.14L238.629 181.888C240.456 181.635 240.456 179.165 238.629 178.913L236.808 178.66C236.108 178.563 235.559 178.048 235.455 177.392L235.186 175.685Z" fill="#C4C4C4"/>
    <path d="M38.8008 11.1992C37.6962 11.1992 36.8008 10.3038 36.8008 9.19922C36.8008 8.09465 37.6962 7.19922 38.8008 7.19922C39.9054 7.19922 40.8008 8.09465 40.8008 9.19922C40.8008 10.3038 39.9054 11.1992 38.8008 11.1992Z" fill="#C4C4C4"/>
    <path d="M162.801 38.4004C161.696 38.4004 160.801 37.505 160.801 36.4004C160.801 35.2958 161.696 34.4004 162.801 34.4004C163.906 34.4004 164.801 35.2958 164.801 36.4004C164.801 37.505 163.906 38.4004 162.801 38.4004Z" fill="#C4C4C4"/>
    <path d="M234.801 44C233.696 44 232.801 43.1046 232.801 42C232.801 40.8954 233.696 40 234.801 40C235.906 40 236.801 40.8954 236.801 42C236.801 43.1046 235.906 44 234.801 44Z" fill="#C4C4C4"/>
    <path d="M215.2 221.4C213.433 221.4 212 219.967 212 218.2C212 216.433 213.433 215 215.2 215C216.967 215 218.4 216.433 218.4 218.2C218.4 219.967 216.967 221.4 215.2 221.4Z" fill="#C4C4C4"/>
    <path d="M7.20039 146.4C5.43308 146.4 4.00039 144.967 4.00039 143.2C4.00039 141.433 5.43308 140 7.20039 140C8.9677 140 10.4004 141.433 10.4004 143.2C10.4004 144.967 8.9677 146.4 7.20039 146.4Z" fill="#C4C4C4"/>
    <path d="M237.2 140C235.654 140 234.4 138.747 234.4 137.2C234.4 135.654 235.654 134.4 237.2 134.4C238.746 134.4 240 135.654 240 137.2C240 138.747 238.746 140 237.2 140Z" fill="#C4C4C4"/>
    <path d="M133.2 9.6C131.654 9.6 130.4 8.3464 130.4 6.8C130.4 5.2536 131.654 4 133.2 4C134.746 4 136 5.2536 136 6.8C136 8.3464 134.746 9.6 133.2 9.6Z" fill="#C4C4C4"/>
    <path d="M2 92.8008C0.895431 92.8008 0 91.9054 0 90.8008C0 89.6962 0.895431 88.8008 2 88.8008C3.10457 88.8008 4 89.6962 4 90.8008C4 91.9054 3.10457 92.8008 2 92.8008Z" fill="#C4C4C4"/>
    <path d="M196 171C194.895 171 194 170.105 194 169C194 167.895 194.895 167 196 167C197.105 167 198 167.895 198 169C198 170.105 197.105 171 196 171Z" fill="#C4C4C4"/>
    <path d="M144 240C142.895 240 142 239.105 142 238C142 236.895 142.895 236 144 236C145.105 236 146 236.895 146 238C146 239.105 145.105 240 144 240Z" fill="#C4C4C4"/>
    <path d="M119.5 187C157.884 187 189 155.884 189 117.5C189 79.1162 157.884 48 119.5 48C81.1162 48 50 79.1162 50 117.5C50 155.884 81.1162 187 119.5 187Z" stroke="#D1D1D1" stroke-width="2" stroke-dasharray="3.2 3.2"/>
    <path d="M57.7504 55.5889C57.9531 54.2386 59.9333 54.2386 60.136 55.5889L60.3383 56.9356C60.416 57.4529 60.829 57.8591 61.3549 57.9355L62.724 58.1344C64.0968 58.3339 64.0968 60.2816 62.724 60.481L61.3549 60.6799C60.829 60.7563 60.416 61.1625 60.3383 61.6799L60.136 63.0265C59.9333 64.3768 57.9531 64.3768 57.7504 63.0265L57.5482 61.6799C57.4705 61.1625 57.0575 60.7563 56.5315 60.6799L55.1624 60.481C53.7896 60.2816 53.7896 58.3339 55.1624 58.1344L56.5315 57.9355C57.0575 57.8591 57.4705 57.4529 57.5482 56.9356L57.7504 55.5889Z" fill="#C4C4C4"/>
    <path d="M183.7 58.9923C184.94 58.9923 185.945 58.0037 185.945 56.7842C185.945 55.5647 184.94 54.5762 183.7 54.5762C182.46 54.5762 181.455 55.5647 181.455 56.7842C181.455 58.0037 182.46 58.9923 183.7 58.9923Z" fill="#C4C4C4"/>
    <path d="M61.1863 178.535C62.4261 178.535 63.4312 177.547 63.4312 176.327C63.4312 175.108 62.4261 174.119 61.1863 174.119C59.9465 174.119 58.9415 175.108 58.9415 176.327C58.9415 177.547 59.9465 178.535 61.1863 178.535Z" fill="#C4C4C4"/>
    <path d="M177.754 185.792C179.791 185.792 181.442 184.168 181.442 182.165C181.442 180.161 179.791 178.537 177.754 178.537C175.717 178.537 174.066 180.161 174.066 182.165C174.066 184.168 175.717 185.792 177.754 185.792Z" fill="#C4C4C4"/>
    <path d="M100.632 88.6368C101.872 88.6368 102.877 87.6482 102.877 86.4288C102.877 85.2093 101.872 84.2207 100.632 84.2207C99.3922 84.2207 98.3871 85.2093 98.3871 86.4288C98.3871 87.6482 99.3922 88.6368 100.632 88.6368Z" fill="#C4C4C4"/>
    <path d="M142.639 146.996C143.879 146.996 144.884 146.008 144.884 144.788C144.884 143.569 143.879 142.58 142.639 142.58C141.399 142.58 140.394 143.569 140.394 144.788C140.394 146.008 141.399 146.996 142.639 146.996Z" fill="#C4C4C4"/>
    <path d="M170.143 95.3535C168.932 94.3878 167.467 92.8778 165.653 91.0086L165.453 90.8029C163.569 88.8614 161.36 86.5985 158.802 84.3306C153.688 79.795 147.137 75.1984 138.85 73.0145C130.936 70.9287 123.359 71.4962 116.895 72.7572C113.662 73.3877 110.697 74.1938 108.107 74.9318C107.608 75.0738 107.126 75.2127 106.659 75.347C104.677 75.9173 102.978 76.4061 101.562 76.7052C100.869 76.8515 100.434 76.762 100.184 76.6338C99.9474 76.5127 99.7817 76.311 99.6965 76.0097C99.5129 75.3601 99.732 74.2182 100.748 73.1246C104.324 69.2732 110.84 64.0371 118.562 60.3288C126.293 56.6164 135.096 54.4996 143.321 56.6671C151.842 58.9127 158.56 65.4454 163.406 72.7669C168.248 80.0821 171.126 88.0426 172.029 92.8919C172.235 93.9957 171.932 94.9433 171.519 95.3996C171.325 95.6134 171.138 95.6923 170.976 95.7032C170.814 95.7141 170.535 95.6661 170.143 95.3535ZM141.249 164.6C142.23 163.409 143.765 161.968 145.666 160.183L145.875 159.987C147.849 158.134 150.149 155.961 152.455 153.445C157.066 148.415 161.742 141.969 163.965 133.809C166.088 126.015 165.51 118.555 164.227 112.192C163.586 109.011 162.766 106.093 162.015 103.545C161.871 103.054 161.73 102.579 161.593 102.12C161.013 100.17 160.517 98.5013 160.213 97.1099C160.066 96.4367 160.157 96.0207 160.283 95.7839C160.402 95.5585 160.607 95.3904 160.925 95.3033C161.608 95.1164 162.783 95.3436 163.895 96.3422C167.811 99.8608 173.133 106.268 176.901 113.86C180.674 121.462 182.821 130.108 180.621 138.183C178.342 146.552 171.706 153.158 164.257 157.928C156.818 162.692 148.72 165.525 143.783 166.415C142.647 166.62 141.67 166.318 141.202 165.907C140.982 165.715 140.91 165.537 140.9 165.393C140.89 165.25 140.932 164.985 141.249 164.6ZM69.2915 138.072C70.5027 139.038 71.968 140.548 73.782 142.417L73.9812 142.622C75.8655 144.564 78.0749 146.827 80.6322 149.095C85.7466 153.63 92.2971 158.227 100.584 160.411C108.499 162.497 116.075 161.929 122.54 160.668C125.772 160.038 128.737 159.232 131.328 158.494C131.826 158.352 132.309 158.213 132.775 158.078C134.757 157.508 136.456 157.019 137.873 156.72C138.566 156.574 139 156.663 139.251 156.792C139.487 156.913 139.653 157.114 139.738 157.416C139.922 158.065 139.702 159.207 138.687 160.301C135.11 164.152 128.595 169.388 120.872 173.097C113.142 176.809 104.338 178.926 96.1133 176.758C87.5923 174.513 80.8749 167.98 76.0288 160.658C71.1869 153.343 68.309 145.383 67.4054 140.533C67.1997 139.43 67.5023 138.482 67.9155 138.026C68.1092 137.812 68.2962 137.733 68.4581 137.722C68.6201 137.711 68.8995 137.759 69.2915 138.072ZM98.1871 68.1929C97.2056 69.3789 95.6705 70.8142 93.7695 72.5916C93.7005 72.6561 93.6311 72.721 93.5612 72.7863C91.5874 74.6322 89.2866 76.7966 86.9808 79.3019C82.3702 84.3114 77.6927 90.7323 75.4697 98.8602C73.3464 106.624 73.9243 114.055 75.2071 120.392C75.8485 123.561 76.6684 126.467 77.4188 129.005C77.5635 129.494 77.7049 129.968 77.8417 130.426C78.4212 132.366 78.9173 134.028 79.221 135.413C79.3677 136.082 79.2774 136.496 79.1528 136.731C79.0342 136.955 78.83 137.122 78.5114 137.21C77.8287 137.397 76.6557 137.172 75.547 136.181C71.6318 132.68 66.3074 126.298 62.5369 118.736C58.7615 111.163 56.6134 102.551 58.8128 94.5088C61.0926 86.1733 67.7309 79.5927 75.1834 74.8413C82.6257 70.0963 90.7256 67.2757 95.66 66.3916C96.7945 66.1883 97.7693 66.4895 98.2363 66.8981C98.4548 67.0891 98.526 67.2655 98.5356 67.406C98.5453 67.5462 98.5042 67.8097 98.1871 68.1929Z" fill="white" stroke="#0500FF" stroke-width="2" stroke-linejoin="round"/>
    <path d="M129.94 96.6193C138.763 96.6193 145.915 89.5848 145.915 80.9073C145.915 72.2298 138.763 65.1953 129.94 65.1953C121.117 65.1953 113.965 72.2298 113.965 80.9073C113.965 89.5848 121.117 96.6193 129.94 96.6193Z" fill="white"/>
    <path d="M139.779 80.9128C139.779 86.237 135.386 90.5814 129.931 90.5814C124.477 90.5814 120.084 86.237 120.084 80.9128C120.084 75.5885 124.477 71.2441 129.931 71.2441C135.386 71.2441 139.779 75.5885 139.779 80.9128Z" fill="white" stroke="#0500FF" stroke-width="2"/>
    <path d="M139.976 125.036C139.976 133.714 147.128 140.749 155.95 140.749C164.772 140.749 171.924 133.714 171.924 125.036C171.924 116.357 164.772 109.322 155.95 109.322C147.128 109.322 139.976 116.357 139.976 125.036Z" fill="white"/>
    <path d="M155.948 134.706C150.495 134.706 146.102 130.362 146.102 125.037C146.102 119.712 150.495 115.367 155.948 115.367C161.402 115.367 165.795 119.712 165.795 125.037C165.795 130.362 161.402 134.706 155.948 134.706Z" fill="white" stroke="#0500FF" stroke-width="2"/>
    <path d="M109.491 136.805C100.668 136.805 93.5157 143.839 93.5157 152.517C93.5157 161.194 100.668 168.229 109.491 168.229C118.314 168.229 125.466 161.194 125.466 152.517C125.466 143.839 118.314 136.805 109.491 136.805Z" fill="white"/>
    <path d="M99.6391 152.515C99.6391 147.191 104.032 142.846 109.487 142.846C114.941 142.846 119.334 147.191 119.334 152.515C119.334 157.839 114.941 162.184 109.487 162.184C104.032 162.184 99.6391 157.839 99.6391 152.515Z" fill="white" stroke="#0500FF" stroke-width="2"/>
    <path d="M99.4419 107.598C99.4419 98.9554 92.2901 91.9488 83.468 91.9488C74.6458 91.9488 67.4941 98.9554 67.4941 107.598C67.4941 116.241 74.6458 123.248 83.468 123.248C92.2901 123.248 99.4419 116.241 99.4419 107.598Z" fill="white"/>
    <path d="M83.4734 97.9736C88.9309 97.9736 93.3198 102.303 93.3198 107.6C93.3198 112.898 88.9309 117.227 83.4734 117.227C78.0159 117.227 73.627 112.898 73.627 107.6C73.627 102.303 78.0159 97.9736 83.4734 97.9736Z" fill="white" stroke="#0500FF" stroke-width="2"/>
    <path opacity="0.3" d="M118.912 136.897C129.893 136.897 138.795 128.141 138.795 117.34C138.795 106.539 129.893 97.7832 118.912 97.7832C107.931 97.7832 99.029 106.539 99.029 117.34C99.029 128.141 107.931 136.897 118.912 136.897Z" fill="url(#paint0_linear)"/>
    <defs>
        <linearGradient id="paint0_linear" x1="130.608" y1="95.0899" x2="90.3136" y2="125.605" gradientUnits="userSpaceOnUse">
            <stop stop-color="#3CE700"/>
            <stop offset="0.567708" stop-color="#0BC91E"/>
        </linearGradient>
    </defs>
</svg>
