<svg width="38" height="38" viewBox="0 0 38 38" fill="none" xmlns="http://www.w3.org/2000/svg">
<g clip-path="url(#clip0)">
<path d="M1.92413 35.0493C1.85912 34.6164 1.22426 34.6164 1.15925 35.0493L1.09441 35.4811C1.06951 35.6469 0.937092 35.7772 0.768461 35.8017L0.329501 35.8654C-0.110637 35.9294 -0.110636 36.5538 0.329501 36.6178L0.768461 36.6816C0.937092 36.7061 1.06951 36.8363 1.09441 37.0022L1.15925 37.4339C1.22426 37.8669 1.85912 37.8669 1.92413 37.4339L1.98897 37.0022C2.01387 36.8363 2.14629 36.7061 2.31492 36.6816L2.75388 36.6178C3.19402 36.5538 3.19402 35.9294 2.75388 35.8654L2.31492 35.8017C2.14629 35.7772 2.01387 35.6469 1.98897 35.4811L1.92413 35.0493Z" fill="#C4C4C4"/>
<path d="M2.57903 6.22118C2.51402 5.78825 1.87916 5.78825 1.81415 6.22118L1.74931 6.65294C1.72441 6.81881 1.59199 6.94905 1.42336 6.97355L0.9844 7.03732C0.544262 7.10127 0.544263 7.72572 0.9844 7.78967L1.42336 7.85344C1.59199 7.87794 1.72441 8.00818 1.74931 8.17405L1.81415 8.60581C1.87916 9.03874 2.51402 9.03874 2.57903 8.60581L2.64387 8.17405C2.66877 8.00818 2.80119 7.87794 2.96982 7.85344L3.40878 7.78967C3.84892 7.72572 3.84892 7.10127 3.40878 7.03732L2.96982 6.97355C2.80119 6.94905 2.66877 6.81881 2.64387 6.65294L2.57903 6.22118Z" fill="#C4C4C4"/>
<path d="M21.4172 1.17244C21.3134 0.481583 20.3003 0.481584 20.1966 1.17244L20.0931 1.86144C20.0534 2.12613 19.8421 2.33397 19.573 2.37307L18.8725 2.47484C18.1701 2.57688 18.1701 3.57338 18.8725 3.67542L19.573 3.77718C19.8421 3.81628 20.0534 4.02412 20.0931 4.28881L20.1966 4.97782C20.3003 5.66867 21.3134 5.66867 21.4172 4.97782L21.5206 4.28881C21.5604 4.02412 21.7717 3.81628 22.0408 3.77718L22.7413 3.67542C23.4436 3.57338 23.4436 2.57688 22.7413 2.47484L22.0408 2.37307C21.7717 2.33397 21.5604 2.12613 21.5206 1.86144L21.4172 1.17244Z" fill="#C4C4C4"/>
<path d="M36.6487 12.1177C36.5837 11.6847 35.9489 11.6847 35.8839 12.1177L35.819 12.5494C35.7941 12.7153 35.6617 12.8455 35.4931 12.87L35.0541 12.9338C34.614 12.9978 34.614 13.6222 35.0541 13.6862L35.4931 13.7499C35.6617 13.7744 35.7941 13.9047 35.819 14.0705L35.8839 14.5023C35.9489 14.9352 36.5837 14.9352 36.6487 14.5023L36.7136 14.0705C36.7385 13.9047 36.8709 13.7744 37.0395 13.7499L37.4785 13.6862C37.9186 13.6222 37.9186 12.9978 37.4785 12.9338L37.0395 12.87C36.8709 12.8455 36.7385 12.7153 36.7136 12.5494L36.6487 12.1177Z" fill="#C4C4C4"/>
<ellipse rx="0.719737" ry="0.707938" transform="matrix(-1 0 0 1 8.58104 0.707938)" fill="#C4C4C4"/>
<ellipse rx="0.719737" ry="0.707938" transform="matrix(-1 0 0 1 5.30565 21.0185)" fill="#C4C4C4"/>
<ellipse rx="1.18242" ry="1.16304" transform="matrix(-1 0 0 1 34.5949 33.9209)" fill="#C4C4C4"/>
<ellipse rx="0.719736" ry="0.707938" transform="matrix(-1 0 0 1 27.581 17.0868)" fill="#C4C4C4"/>
<path d="M36.5533 2.76658C37.8589 4.98528 37.1012 7.81273 34.8609 9.08182C32.6205 10.3509 29.7459 9.58096 28.4403 7.36226C27.1347 5.14356 27.8924 2.31611 30.1328 1.04702C32.3732 -0.222071 35.2477 0.547876 36.5533 2.76658Z" fill="white" stroke="url(#paint0_linear)" stroke-width="0.8"/>
<path d="M32.5422 3.28906L33.4347 4.23159L34.3929 5.10947L33.4347 5.98736L32.5422 6.92989L31.6496 5.98736L30.6914 5.10947L31.6496 4.23159L32.5422 3.28906Z" fill="url(#paint1_linear)"/>
<path d="M15.5806 35.3893C12.7326 35.1336 9.65614 33.6469 7.00699 31.9626C4.36717 30.2842 2.19704 28.4392 1.16916 27.5185C1.07267 27.4321 1.08322 27.2665 1.2266 27.1978C1.69052 26.9756 1.90553 26.4488 1.76194 25.9707C1.43287 24.8751 1.31104 24.0526 1.39626 23.1947C1.46809 22.4716 1.25692 21.7533 1.0723 21.1254C1.0621 21.0907 1.05199 21.0563 1.04201 21.0222C0.840741 20.3344 0.687584 19.7496 0.783601 19.1915C1.19422 16.8047 2.19593 15.334 3.55043 14.2979C4.92688 13.2451 6.68775 12.6235 8.66683 11.9873C10.9342 11.2583 12.8103 11.2487 14.5588 11.7996C16.3191 12.3541 17.9855 13.4876 19.8117 15.1096C20.9613 16.1307 21.5248 17.4791 22.0674 18.8948C22.1005 18.981 22.1335 19.0675 22.1666 19.1543C22.6649 20.4619 23.1865 21.8306 24.2241 22.8353C25.1997 23.78 26.2285 24.5907 27.3368 24.9391C28.4778 25.2978 29.6651 25.1547 30.8972 24.2771C31.4717 23.8679 31.8297 23.261 32.064 22.6295C32.2985 21.9973 32.4209 21.3074 32.5031 20.6941C32.5388 20.4272 32.5662 20.1837 32.5911 19.9629C32.626 19.6529 32.6558 19.3878 32.6966 19.166C32.7034 19.1291 32.7101 19.096 32.7166 19.0663C32.7399 19.0969 32.7652 19.1337 32.7924 19.1781C32.894 19.344 32.9875 19.5531 33.1033 19.8123C33.119 19.8474 33.1351 19.8834 33.1516 19.9203C33.4142 20.5055 33.7746 21.274 34.488 21.7739C35.0467 22.1654 35.7298 22.3006 36.2699 22.4075C36.3125 22.416 36.3542 22.4242 36.3949 22.4324C36.6902 22.4919 36.9312 22.5461 37.1258 22.6242C37.1768 22.6447 37.2219 22.6658 37.2619 22.6876C37.2139 22.7165 37.1589 22.7483 37.0965 22.783C36.8733 22.9073 36.6002 23.0458 36.2932 23.2016C36.0915 23.304 35.8751 23.4138 35.6484 23.5319C35.0911 23.8224 34.4913 24.1537 33.9915 24.5076C33.5082 24.8496 33.0475 25.2604 32.8593 25.7307C30.78 30.9247 28.2183 33.462 25.3501 34.6513C22.4552 35.8517 19.1796 35.7124 15.5806 35.3893Z" fill="white" stroke="#0500FF" stroke-width="0.8"/>
<path opacity="0.15" d="M10.0269 13.3943C13.9009 12.5314 17.1554 13.6974 19.8798 16.6143C21.6992 18.5622 21.995 21.6071 23.5042 23.3692C24.9204 25.0227 26.7077 26.0315 28.96 25.8768C31.3355 25.7137 32.7186 22.8639 32.7186 22.8639C32.7186 22.8639 32.7886 21.1831 33.7115 21.9674C34.4941 22.6323 35.5763 22.8609 34.9401 23.2461C33.3717 24.1958 32.5415 25.6435 31.871 26.6826C27.0888 34.0939 22.1134 34.4263 15.9216 33.8786V33.8786C12.1291 33.5432 13.6516 27.1462 15.2461 23.6889C15.4221 23.3074 15.5923 22.9018 15.7592 22.4713C16.0408 21.7448 16.0124 20.8444 15.2433 20.7199C13.1589 20.3825 8.1473 21.8524 5.59285 20.798C5.47637 20.7499 5.36526 20.693 5.26092 20.6224C4.91955 20.3912 4.16581 19.763 4.33011 18.8079C5.02192 14.7867 6.75217 14.1237 10.0269 13.3943Z" fill="#0500FF"/>
<ellipse rx="0.713807" ry="0.826504" transform="matrix(0.985521 0.169552 -0.169559 0.98552 11.5106 20.2754)" fill="#0500FF"/>
<path d="M0.791706 19.6011C0.625352 19.4557 0.372658 19.4727 0.227299 19.6391C0.0819401 19.8054 0.0989599 20.0581 0.265314 20.2035L0.791706 19.6011ZM0.645903 27.0623C0.513393 27.2391 0.549264 27.4898 0.726024 27.6223C0.902784 27.7548 1.1535 27.7189 1.28601 27.5422L0.645903 27.0623ZM0.265314 20.2035C4.71782 24.0941 9.38727 23.1519 12.2869 22.297C13.031 22.0776 13.609 21.8803 14.0944 21.7485C14.3305 21.6843 14.5161 21.6443 14.658 21.6292C14.8104 21.613 14.8565 21.6325 14.8522 21.6305C14.8091 21.6098 14.7988 21.5637 14.8007 21.5801C14.8062 21.6262 14.799 21.7387 14.7302 21.9549C14.5949 22.3798 14.2777 23.0389 13.7266 24.0259L14.4251 24.4159C14.976 23.4292 15.3302 22.7074 15.4925 22.1976C15.5725 21.9463 15.6207 21.7031 15.5952 21.4865C15.5662 21.2403 15.4387 21.0249 15.1991 20.9096C14.9984 20.8131 14.7689 20.8129 14.5735 20.8337C14.3677 20.8555 14.1334 20.9089 13.8847 20.9764C13.4005 21.1079 12.749 21.3267 12.0606 21.5297C9.23029 22.3641 4.92209 23.2102 0.791706 19.6011L0.265314 20.2035ZM13.7266 24.0259C12.6601 25.9361 11.4949 26.8535 10.3447 27.2462C9.18389 27.6425 7.97463 27.5269 6.77619 27.244C6.1773 27.1026 5.59421 26.9228 5.02446 26.7501C4.46137 26.5794 3.90595 26.4138 3.38922 26.3133C2.36498 26.1142 1.33522 26.1428 0.645903 27.0623L1.28601 27.5422C1.68514 27.0098 2.28735 26.9141 3.23657 27.0986C3.70656 27.19 4.22324 27.3431 4.79236 27.5157C5.35482 27.6862 5.96405 27.8742 6.59235 28.0226C7.84829 28.3191 9.23284 28.4711 10.6032 28.0033C11.9843 27.5317 13.2877 26.4532 14.4251 24.4159L13.7266 24.0259Z" fill="#0500FF"/>
<path d="M14.2109 32.0684C14.9436 31.8033 15.3118 31.6852 15.5617 31.5135C16.236 31.0501 16.8869 30.4488 17.6236 30.8049C17.9554 30.9652 18.2678 31.1606 18.5745 31.3771C19.3264 31.9077 20.3561 31.6025 20.6953 30.747V30.747C21.1392 29.6277 20.155 28.0317 18.951 28.0497C18.9044 28.0504 18.8578 28.0508 18.8111 28.0508C17.9603 28.0521 17.4693 27.1353 18.0366 26.5011C18.3271 26.1762 18.3935 26.07 18.083 25.0723" stroke="#0500FF" stroke-width="0.8" stroke-linecap="round" stroke-linejoin="round"/>
</g>
<defs>
<linearGradient id="paint0_linear" x1="32.1672" y1="-1.36609" x2="27.1129" y2="10.4393" gradientUnits="userSpaceOnUse">
<stop stop-color="#EAED4F"/>
<stop offset="0.567708" stop-color="#C4B000"/>
</linearGradient>
<linearGradient id="paint1_linear" x1="33.6308" y1="3.03834" x2="29.8801" y2="5.87875" gradientUnits="userSpaceOnUse">
<stop stop-color="#EAED4F"/>
<stop offset="0.567708" stop-color="#C4B000"/>
</linearGradient>
<clipPath id="clip0">
<rect width="38" height="38" fill="white"/>
</clipPath>
</defs>
</svg>
