<svg width="12" height="14" viewBox="0 0 12 14" fill="none" xmlns="http://www.w3.org/2000/svg">
    <path d="M6.67498 5.0199H10.3875L6.67498 1.3899V5.0199ZM1.94998 0.399902H7.34998L11.4 4.3599V12.2799C11.4 12.63 11.2577 12.9657 11.0046 13.2133C10.7514 13.4608 10.408 13.5999 10.05 13.5999H1.94998C1.20073 13.5999 0.599976 13.0059 0.599976 12.2799V1.7199C0.599976 0.987302 1.20073 0.399902 1.94998 0.399902ZM1.94998 12.2799H8.02498H10.05V6.9999L7.34998 9.6399L5.99998 8.3199L1.94998 12.2799ZM3.29998 5.0199C2.94193 5.0199 2.59856 5.15897 2.34538 5.40652C2.09221 5.65407 1.94998 5.98982 1.94998 6.3399C1.94998 6.68999 2.09221 7.02573 2.34538 7.27328C2.59856 7.52083 2.94193 7.6599 3.29998 7.6599C3.65802 7.6599 4.0014 7.52083 4.25457 7.27328C4.50774 7.02573 4.64998 6.68999 4.64998 6.3399C4.64998 5.98982 4.50774 5.65407 4.25457 5.40652C4.0014 5.15897 3.65802 5.0199 3.29998 5.0199Z" fill="#0BC91F"/>
</svg>
