<svg width="12" height="14" viewBox="0 0 12 14" fill="none" xmlns="http://www.w3.org/2000/svg">
    <path d="M6.6751 5.0199H10.3876L6.6751 1.3899V5.0199ZM1.9501 0.399902H7.3501L11.4001 4.3599V12.2799C11.4001 12.63 11.2579 12.9657 11.0047 13.2133C10.7515 13.4608 10.4081 13.5999 10.0501 13.5999H1.9501C1.20085 13.5999 0.600098 13.0059 0.600098 12.2799V1.7199C0.600098 0.987302 1.20085 0.399902 1.9501 0.399902ZM1.9501 12.2799H8.0251H10.0501V6.9999L7.3501 9.6399L6.0001 8.3199L1.9501 12.2799ZM3.3001 5.0199C2.94206 5.0199 2.59868 5.15897 2.3455 5.40652C2.09233 5.65407 1.9501 5.98982 1.9501 6.3399C1.9501 6.68999 2.09233 7.02573 2.3455 7.27328C2.59868 7.52083 2.94206 7.6599 3.3001 7.6599C3.65814 7.6599 4.00152 7.52083 4.25469 7.27328C4.50787 7.02573 4.6501 6.68999 4.6501 6.3399C4.6501 5.98982 4.50787 5.65407 4.25469 5.40652C4.00152 5.15897 3.65814 5.0199 3.3001 5.0199Z" fill="#ABB3AC"/>
</svg>
