<svg width="17" height="15" viewBox="0 0 17 15" fill="none" xmlns="http://www.w3.org/2000/svg">
    <path d="M6.44641 0C5.59157 0 4.77173 0.34241 4.16726 0.951903C3.56279 1.5614 3.22321 2.38805 3.22321 3.25C3.22321 4.11195 3.56279 4.9386 4.16726 5.5481C4.77173 6.15759 5.59157 6.5 6.44641 6.5C7.30126 6.5 8.1211 6.15759 8.72557 5.5481C9.33003 4.9386 9.66962 4.11195 9.66962 3.25C9.66962 2.38805 9.33003 1.5614 8.72557 0.951903C8.1211 0.34241 7.30126 0 6.44641 0ZM6.44641 8.125C4.29492 8.125 0 9.20563 0 11.375V13H8.92828C8.88799 12.7319 8.86382 12.4637 8.86382 12.1875C8.86382 10.9688 9.26672 9.75 10 8.775C8.76712 8.3525 7.39726 8.125 6.44641 8.125Z" fill="#ABB3AC"/>
    <path d="M10 10.625H12.625V8H14.375V10.625H17V12.375H14.375V15H12.625V12.375H10V10.625Z" fill="#ABB3AC"/>
</svg>
