<svg width="69" height="69" viewBox="0 0 69 69" fill="none" xmlns="http://www.w3.org/2000/svg">
<circle cx="34.5" cy="34.5" r="34" stroke="#D1D1D1" stroke-dasharray="3.2 3.2"/>
<path d="M4.28202 4.20261C4.38124 3.54184 5.35025 3.54184 5.44947 4.20261L5.54843 4.86162C5.58645 5.11479 5.78856 5.31358 6.04594 5.35097L6.71593 5.44831C7.38772 5.54591 7.38772 6.49903 6.71593 6.59662L6.04594 6.69396C5.78856 6.73135 5.58645 6.93015 5.54843 7.18331L5.44947 7.84232C5.35025 8.5031 4.38124 8.5031 4.28202 7.84232L4.18306 7.18331C4.14504 6.93015 3.94294 6.73135 3.68555 6.69396L3.01556 6.59662C2.34377 6.49903 2.34377 5.54591 3.01556 5.44831L3.68555 5.35097C3.94294 5.31358 4.14504 5.11479 4.18306 4.86162L4.28202 4.20261Z" fill="#C4C4C4"/>
<ellipse cx="65.9169" cy="4.78757" rx="1.09855" ry="1.08054" fill="#C4C4C4"/>
<ellipse cx="5.96378" cy="63.2876" rx="1.09855" ry="1.08054" fill="#C4C4C4"/>
<ellipse cx="63.0079" cy="66.1443" rx="1.80475" ry="1.77517" fill="#C4C4C4"/>
<ellipse cx="25.2665" cy="19.2954" rx="1.09855" ry="1.08054" fill="#C4C4C4"/>
<ellipse cx="45.8232" cy="47.854" rx="1.09855" ry="1.08054" fill="#C4C4C4"/>
<path d="M59.2887 23.6541C58.6966 23.1819 57.9799 22.4433 57.0919 21.5281L56.9948 21.4281C56.0727 20.478 54.9912 19.3703 53.7395 18.2602C51.236 16.0401 48.029 13.7896 43.9714 12.7202C40.0961 11.699 36.3869 11.9769 33.2223 12.5942C31.64 12.9028 30.1889 13.2974 28.9211 13.6586C28.6771 13.7281 28.4408 13.796 28.2123 13.8618C27.2425 14.1408 26.4116 14.3799 25.7189 14.5262C25.3815 14.5974 25.1713 14.5535 25.0516 14.4922C24.9388 14.4344 24.8595 14.3382 24.8186 14.1934C24.73 13.8801 24.8352 13.325 25.3305 12.7916C27.08 10.9079 30.2673 8.34629 34.045 6.53223C37.827 4.71607 42.1323 3.68121 46.1539 4.74102C50.3201 5.83896 53.6054 9.03342 55.9762 12.6152C58.3449 16.1938 59.7527 20.0881 60.1946 22.4597C60.2948 22.9973 60.1471 23.4575 59.9476 23.6778C59.8543 23.7808 59.7652 23.8178 59.6892 23.8229C59.6132 23.828 59.479 23.8058 59.2887 23.6541ZM45.1506 57.5555C45.6305 56.9732 46.3814 56.2683 47.312 55.3946L47.4135 55.2993C48.3794 54.3924 49.5055 53.3287 50.6342 52.0974C52.891 49.6353 55.1809 46.4792 56.2691 42.4839C57.3086 38.6676 57.0256 35.0151 56.3976 31.9004C56.0836 30.343 55.6823 28.915 55.315 27.6678C55.2443 27.4276 55.1752 27.1951 55.1083 26.9703C54.8246 26.0164 54.5819 25.2001 54.4333 24.5196C54.3618 24.1919 54.4063 23.9911 54.4662 23.878C54.5231 23.7706 54.6207 23.69 54.7742 23.648C55.104 23.5578 55.6754 23.6671 56.2174 24.1541C58.1328 25.8751 60.7363 29.0096 62.5798 32.7236C64.4255 36.4424 65.4749 40.6708 64.3996 44.6185C63.285 48.7103 60.0402 51.9413 56.3959 54.275C52.7566 56.6055 48.7952 57.9913 46.3809 58.4266C45.8272 58.5264 45.3527 58.3789 45.1264 58.1806C45.0207 58.088 44.9868 58.0032 44.9822 57.9364C44.9775 57.8697 44.9966 57.7423 45.1506 57.5555ZM9.92264 44.5753C10.5148 45.0475 11.2314 45.786 12.1195 46.7012L12.2166 46.8013C13.1387 47.7514 14.2201 48.8591 15.4719 49.9691C17.9754 52.1893 21.1824 54.4398 25.24 55.5091C29.1153 56.5304 32.8245 56.2525 35.989 55.6352C37.5713 55.3266 39.0225 54.932 40.2903 54.5708C40.5343 54.5013 40.7706 54.4333 40.9992 54.3676C41.9689 54.0885 42.7998 53.8495 43.4925 53.7032C43.8298 53.632 44.04 53.6758 44.1598 53.7372C44.2725 53.7949 44.3519 53.8911 44.3928 54.036C44.4814 54.3493 44.3762 54.9044 43.8809 55.4377C42.1314 57.3215 38.9441 59.8831 35.1664 61.6971C31.3843 63.5133 27.0791 64.5482 23.0575 63.4883C18.8913 62.3904 15.6059 59.196 13.2351 55.6142C10.8664 52.0355 9.45863 48.1413 9.01672 45.7697C8.91654 45.232 9.0643 44.7719 9.26379 44.5516C9.35708 44.4486 9.44615 44.4116 9.52213 44.4065C9.59816 44.4014 9.73235 44.4236 9.92264 44.5753ZM24.0615 10.3642C23.5816 10.9441 22.8308 11.646 21.9002 12.5162C21.8666 12.5476 21.8327 12.5792 21.7987 12.6111C20.8328 13.5144 19.7066 14.5738 18.5779 15.8001C16.3211 18.2522 14.0309 21.3958 12.9424 25.3756C11.9027 29.177 12.1858 32.8151 12.8137 35.9174C13.1277 37.4685 13.529 38.8908 13.8963 40.1329C13.9671 40.3724 14.0363 40.6043 14.1033 40.8285C14.3868 41.7781 14.6295 42.5907 14.778 43.2681C14.8494 43.594 14.8051 43.7935 14.7456 43.9057C14.6891 44.0124 14.5918 44.0928 14.4383 44.1349C14.1087 44.2254 13.5382 44.1171 12.9975 43.6336C11.0826 41.9212 8.47786 38.7994 6.63333 35.0998C4.78639 31.3955 3.7363 27.1836 4.81166 23.2518C5.92628 19.1764 9.1723 15.958 12.8182 13.6334C16.4591 11.3121 20.4216 9.93241 22.8349 9.49999C23.3877 9.40095 23.8612 9.54806 24.0868 9.74538C24.192 9.83744 24.2251 9.92126 24.2296 9.98664C24.2341 10.0519 24.2154 10.1782 24.0615 10.3642Z" fill="white" stroke="#0500FF" stroke-linejoin="round"/>
<ellipse cx="39.6087" cy="16.5931" rx="7.81772" ry="7.68885" fill="white"/>
<path d="M44.4135 16.5958C44.4135 19.1953 42.2686 21.3166 39.6052 21.3166C36.9418 21.3166 34.7969 19.1953 34.7969 16.5958C34.7969 13.9964 36.9418 11.875 39.6052 11.875C42.2686 11.875 44.4135 13.9964 44.4135 16.5958Z" fill="white" stroke="#0500FF"/>
<ellipse cx="52.3373" cy="38.1876" rx="7.68956" ry="7.81699" transform="rotate(90 52.3373 38.1876)" fill="white"/>
<path d="M52.3367 42.9094C49.6736 42.9094 47.5289 40.7879 47.5289 38.1881C47.5289 35.5883 49.6736 33.4668 52.3367 33.4668C54.9998 33.4668 57.1445 35.5883 57.1445 38.1881C57.1445 40.7879 54.9998 42.9094 52.3367 42.9094Z" fill="white" stroke="#0500FF"/>
<ellipse cx="29.6022" cy="51.6354" rx="7.81772" ry="7.68884" transform="rotate(-180 29.6022 51.6354)" fill="white"/>
<path d="M24.7915 51.6346C24.7915 49.0352 26.9364 46.9138 29.5999 46.9138C32.2633 46.9138 34.4082 49.0352 34.4082 51.6346C34.4082 54.2341 32.2633 56.3555 29.5999 56.3555C26.9364 56.3555 24.7915 54.2341 24.7915 51.6346Z" fill="white" stroke="#0500FF"/>
<ellipse cx="16.8678" cy="29.6542" rx="7.65831" ry="7.81699" transform="rotate(-90 16.8678 29.6542)" fill="white"/>
<path d="M16.8703 24.9553C19.5353 24.9553 21.6782 27.0692 21.6782 29.6554C21.6782 32.2416 19.5353 34.3555 16.8703 34.3555C14.2053 34.3555 12.0625 32.2416 12.0625 29.6554C12.0625 27.0692 14.2053 24.9553 16.8703 24.9553Z" fill="white" stroke="#0500FF"/>
<ellipse opacity="0.15" cx="34.2124" cy="34.422" rx="9.72998" ry="9.57047" fill="url(#paint0_linear)"/>
<defs>
<linearGradient id="paint0_linear" x1="39.9356" y1="23.5334" x2="20.2173" y2="38.4664" gradientUnits="userSpaceOnUse">
<stop stop-color="#3CE700"/>
<stop offset="0.567708" stop-color="#0BC91E"/>
</linearGradient>
</defs>
</svg>
