<svg width="120" height="120" viewBox="0 0 120 120" fill="none" xmlns="http://www.w3.org/2000/svg">
<path d="M119.248 59.9998C119.248 92.7227 92.7209 119.25 59.998 119.25C27.2752 119.25 0.748047 92.7227 0.748047 59.9998C0.748047 27.2769 27.2752 0.749756 59.998 0.749756C92.7209 0.749756 119.248 27.2769 119.248 59.9998Z" fill="white" stroke="#D1D1D1" stroke-width="1.5"/>
<path d="M60.521 105.684C86.0401 105.684 106.727 84.9969 106.727 59.4777C106.727 33.9586 86.0401 13.2712 60.521 13.2712C35.0018 13.2712 14.3145 33.9586 14.3145 59.4777C14.3145 84.9969 35.0018 105.684 60.521 105.684Z" stroke="#D1D1D1" stroke-width="1.5" stroke-dasharray="4 3"/>
<path opacity="0.05" d="M60.5 94.9998C80.1061 94.9998 96 79.1059 96 59.4998C96 39.8936 80.1061 23.9998 60.5 23.9998C40.8939 23.9998 25 39.8936 25 59.4998C25 79.1059 40.8939 94.9998 60.5 94.9998Z" fill="url(#paint0_linear)"/>
<path d="M108 62.9998C111.866 62.9998 115 59.8657 115 55.9998C115 52.1338 111.866 48.9998 108 48.9998C104.134 48.9998 101 52.1338 101 55.9998C101 59.8657 104.134 62.9998 108 62.9998Z" fill="white"/>
<path d="M47.5 18.9998C49.433 18.9998 51 17.4328 51 15.4998C51 13.5668 49.433 11.9998 47.5 11.9998C45.567 11.9998 44 13.5668 44 15.4998C44 17.4328 45.567 18.9998 47.5 18.9998Z" fill="white"/>
<path d="M106.89 52.8223C107.052 51.7256 108.634 51.7256 108.796 52.8223L108.957 53.916C109.019 54.3361 109.349 54.666 109.769 54.7281L110.863 54.8896C111.96 55.0516 111.96 56.6334 110.863 56.7954L109.769 56.9569C109.349 57.019 109.019 57.3489 108.957 57.769L108.796 58.8627C108.634 59.9594 107.052 59.9593 106.89 58.8627L106.728 57.769C106.666 57.3489 106.336 57.019 105.916 56.9569L104.822 56.7954C103.726 56.6334 103.726 55.0516 104.822 54.8896L105.916 54.7281C106.336 54.666 106.666 54.3361 106.728 53.916L106.89 52.8223Z" fill="#C4C4C4"/>
<path d="M105.89 0.822222C106.052 -0.2744 107.634 -0.274399 107.796 0.822223L107.957 1.91591C108.019 2.33606 108.349 2.66598 108.769 2.72804L109.863 2.88958C110.96 3.05155 110.96 4.63335 109.863 4.79532L108.769 4.95686C108.349 5.01891 108.019 5.34883 107.957 5.76899L107.796 6.86267C107.634 7.95929 106.052 7.95929 105.89 6.86267L105.728 5.76899C105.666 5.34883 105.336 5.01891 104.916 4.95686L103.822 4.79532C102.726 4.63335 102.726 3.05155 103.822 2.88958L104.916 2.72804C105.336 2.66598 105.666 2.33606 105.728 1.91591L105.89 0.822222Z" fill="#C4C4C4"/>
<path d="M54.8898 29.8223C55.0518 28.7256 56.6336 28.7256 56.7956 29.8223L56.9571 30.916C57.0192 31.3361 57.3491 31.666 57.7693 31.7281L58.8629 31.8896C59.9596 32.0516 59.9596 33.6334 58.8629 33.7954L57.7693 33.9569C57.3491 34.019 57.0192 34.3489 56.9571 34.769L56.7956 35.8627C56.6336 36.9593 55.0518 36.9593 54.8898 35.8627L54.7283 34.769C54.6662 34.3489 54.3363 34.019 53.9162 33.9569L52.8225 33.7954C51.7258 33.6334 51.7258 32.0516 52.8225 31.8896L53.9162 31.7281C54.3363 31.666 54.6662 31.3361 54.7283 30.916L54.8898 29.8223Z" fill="#C4C4C4"/>
<path d="M9.81091 106.515C9.91241 105.828 10.9036 105.828 11.0051 106.515L11.1064 107.201C11.1453 107.464 11.352 107.671 11.6153 107.71L12.3007 107.811C12.9879 107.912 12.9879 108.904 12.3007 109.005L11.6153 109.106C11.352 109.145 11.1453 109.352 11.1064 109.615L11.0051 110.301C10.9036 110.988 9.91241 110.988 9.81091 110.301L9.70968 109.615C9.67079 109.352 9.46405 109.145 9.20076 109.106L8.5154 109.005C7.8282 108.904 7.8282 107.912 8.5154 107.811L9.20076 107.71C9.46405 107.671 9.67079 107.464 9.70968 107.201L9.81091 106.515Z" fill="#C4C4C4"/>
<path d="M117.124 16.2472C117.745 16.2472 118.248 15.7441 118.248 15.1235C118.248 14.5029 117.745 13.9998 117.124 13.9998C116.503 13.9998 116 14.5029 116 15.1235C116 15.7441 116.503 16.2472 117.124 16.2472Z" fill="#C4C4C4"/>
<path d="M111.846 118.692C112.866 118.692 113.692 117.865 113.692 116.846C113.692 115.826 112.866 115 111.846 115C110.826 115 110 115.826 110 116.846C110 117.865 110.826 118.692 111.846 118.692Z" fill="#C4C4C4"/>
<path d="M84.8462 46.6921C85.8658 46.6921 86.6923 45.8655 86.6923 44.8459C86.6923 43.8263 85.8658 42.9998 84.8462 42.9998C83.8266 42.9998 83 43.8263 83 44.8459C83 45.8655 83.8266 46.6921 84.8462 46.6921Z" fill="#C4C4C4"/>
<path d="M47.1237 16.2472C47.7444 16.2472 48.2475 15.7441 48.2475 15.1235C48.2475 14.5029 47.7444 13.9998 47.1237 13.9998C46.5031 13.9998 46 14.5029 46 15.1235C46 15.7441 46.5031 16.2472 47.1237 16.2472Z" fill="#C4C4C4"/>
<path d="M91.7441 19.5505L93.0283 19.5376C93.0283 19.5376 93.042 19.9869 93.0406 20.2748C93.0391 20.5586 93.0212 21.0014 93.0212 21.0014L91.7586 20.9952L91.7441 19.5505Z" fill="white"/>
<path d="M91.7441 22.0856L93.0283 22.0728C93.0283 22.0728 93.042 22.522 93.0406 22.8099C93.0391 23.0938 93.0212 23.5365 93.0212 23.5365L91.7586 23.5304L91.7441 22.0856Z" fill="white"/>
<path d="M8.24448 1.39056C7.96602 -0.463845 5.24662 -0.463843 4.96815 1.39056L4.69044 3.23999C4.58375 3.95047 4.01655 4.50836 3.29423 4.6133L1.41398 4.88647C-0.471328 5.16036 -0.471325 7.83518 1.41398 8.10907L3.29423 8.38225C4.01655 8.48719 4.58375 9.04508 4.69044 9.75556L4.96815 11.605C5.24662 13.4594 7.96602 13.4594 8.24448 11.605L8.5222 9.75556C8.62888 9.04508 9.19608 8.48719 9.9184 8.38225L11.7987 8.10907C13.684 7.83518 13.684 5.16036 11.7987 4.88647L9.9184 4.6133C9.19608 4.50836 8.62888 3.95047 8.5222 3.23999L8.24448 1.39056Z" fill="#C4C4C4"/>
<path d="M27.8109 47.5152C27.9124 46.828 28.9036 46.828 29.0051 47.5152L29.1064 48.2006C29.1453 48.4638 29.352 48.6706 29.6153 48.7095L30.3007 48.8107C30.9879 48.9122 30.9879 49.9034 30.3007 50.0049L29.6153 50.1062C29.352 50.1451 29.1453 50.3518 29.1064 50.6151L29.0051 51.3005C28.9036 51.9876 27.9124 51.9876 27.8109 51.3004L27.7097 50.6151C27.6708 50.3518 27.464 50.1451 27.2008 50.1062L26.5154 50.0049C25.8282 49.9034 25.8282 48.9122 26.5154 48.8107L27.2008 48.7095C27.464 48.6706 27.6708 48.4638 27.7097 48.2006L27.8109 47.5152Z" fill="#C4C4C4"/>
<path d="M81.1379 11.9998L84.0979 15.1777L87.2759 18.1377L84.0979 21.0977L81.1379 24.2757L78.1779 21.0977L75 18.1377L78.1779 15.1777L81.1379 11.9998Z" fill="url(#paint1_linear)"/>
<path d="M7 28.9998L8.92899 31.0708L11 32.9998L8.92899 34.9288L7 36.9998L5.07101 34.9288L3 32.9998L5.07101 31.0708L7 28.9998Z" fill="url(#paint2_linear)"/>
<path d="M117.5 101L118.706 102.294L120 103.5L118.706 104.706L117.5 106L116.294 104.706L115 103.5L116.294 102.294L117.5 101Z" fill="url(#paint3_linear)"/>
<path d="M56.8076 108.179C50.1376 107.58 42.95 104.102 36.7791 100.178C30.6256 96.2658 25.5683 91.9661 23.1729 89.8205C22.8475 89.5291 22.9053 88.9894 23.349 88.7768C24.345 88.2996 24.8091 87.1671 24.4996 86.1367C23.7301 83.5749 23.4406 81.6359 23.642 79.6079C23.8055 77.9618 23.3238 76.3224 22.8922 74.8538C22.8694 74.7761 22.8466 74.6987 22.8242 74.622C22.3577 73.0276 21.9867 71.6271 22.2183 70.2811C23.181 64.6856 25.5345 61.2223 28.724 58.7827C31.9548 56.3115 36.0808 54.8575 40.6826 53.378C45.9879 51.6724 50.3917 51.6466 54.5007 52.941C58.632 54.2425 62.5317 56.8989 66.7881 60.6796C69.4995 63.0879 70.8232 66.2647 72.0852 69.5568C72.161 69.7547 72.2367 69.9533 72.3126 70.1523C73.4757 73.2031 74.6759 76.3513 77.06 78.6598C79.3255 80.8535 81.6939 82.7147 84.2305 83.5121C86.8286 84.3287 89.5326 84.0078 92.3555 81.997C93.6517 81.0737 94.4675 79.6986 95.0056 78.2479C95.544 76.796 95.8268 75.2069 96.0175 73.7838C96.0993 73.1734 96.1627 72.6101 96.2206 72.0966C96.3026 71.3684 96.3734 70.7403 96.4691 70.2197C96.5147 69.9718 96.5601 69.7876 96.6018 69.6551C96.7247 69.7596 96.8643 69.9259 97.0238 70.1862C97.2668 70.5829 97.4895 71.0815 97.7578 71.6821C97.7944 71.764 97.8319 71.8478 97.8704 71.9336C98.4825 73.2977 99.3042 75.0411 100.919 76.1723C102.186 77.0601 103.738 77.3679 105.001 77.618C105.098 77.6373 105.194 77.6563 105.287 77.6751C105.973 77.8132 106.549 77.942 107.019 78.1309C107.258 78.2269 107.452 78.3314 107.607 78.4474C107.445 78.5538 107.234 78.6798 106.972 78.8258C106.45 79.1163 105.809 79.4416 105.091 79.8058C104.623 80.0437 104.121 80.2983 103.598 80.5707C102.303 81.2458 100.916 82.0121 99.7639 82.8279C98.6426 83.6217 97.6101 84.5517 97.193 85.5935C92.3434 97.7081 86.3546 103.657 79.6232 106.449C72.8418 109.261 65.1787 108.93 56.8076 108.179ZM96.7042 69.4139C96.7043 69.4139 96.7037 69.4148 96.7024 69.4163C96.7036 69.4147 96.7042 69.4139 96.7042 69.4139Z" fill="white" stroke="#0500FF" stroke-width="1.5"/>
<path opacity="0.15" d="M43.902 56.8233C52.9154 54.8156 60.4875 57.5287 66.8263 64.3152C71.0595 68.8473 71.7475 75.9316 75.259 80.0315C78.554 83.8786 82.7125 86.2257 87.9528 85.8659C93.4798 85.4864 96.6978 78.8559 96.6978 78.8559C96.6978 78.8559 96.8606 74.9453 99.0079 76.7699C100.829 78.3171 103.347 78.8489 101.866 79.7451C98.2174 81.9547 96.2858 85.3229 94.7257 87.7407C83.5992 104.984 72.0232 105.758 57.6171 104.483C48.7932 103.703 52.3355 88.8193 56.0454 80.7753C56.4547 79.8878 56.8509 78.9439 57.2391 77.9423C57.8942 76.2521 57.8283 74.1571 56.0389 73.8675C51.1259 73.0723 39.2236 76.5923 33.356 73.9502C33.2411 73.8984 33.1326 73.8433 33.0252 73.7775C32.4039 73.3965 30.2259 71.8704 30.6476 69.419C32.2572 60.0631 36.2829 58.5205 43.902 56.8233Z" fill="#0500FF"/>
<path d="M47.0276 74.7279C47.9315 74.8834 48.8103 74.161 48.9904 73.1143C49.1705 72.0677 48.5836 71.0931 47.6797 70.9376C46.7758 70.7821 45.897 71.5045 45.7169 72.5512C45.5368 73.5978 46.1236 74.5724 47.0276 74.7279Z" fill="#0500FF"/>
<path d="M22.2953 71.4001C21.9834 71.1275 21.5096 71.1594 21.237 71.4713C20.9645 71.7832 20.9964 72.257 21.3083 72.5296L22.2953 71.4001ZM22.2195 88.7321C21.971 89.0635 22.0383 89.5336 22.3697 89.7821C22.7012 90.0305 23.1712 89.9633 23.4197 89.6318L22.2195 88.7321ZM21.3083 72.5296C31.595 81.518 42.3776 79.3477 49.1083 77.3633C50.8271 76.8565 52.1885 76.3925 53.3175 76.0859C53.8698 75.9359 54.3125 75.8397 54.6571 75.8031C55.0213 75.7644 55.17 75.8055 55.2065 75.823C55.2102 75.8248 55.1934 75.8158 55.1794 75.7948C55.1682 75.778 55.1804 75.7851 55.1877 75.8474C55.2049 75.9931 55.179 76.2845 55.0164 76.7952C54.6955 77.803 53.9491 79.3507 52.667 81.6471L53.9767 82.3784C55.2585 80.0825 56.0741 78.4173 56.4457 77.2503C56.6293 76.6737 56.7322 76.1372 56.6774 75.6719C56.6161 75.151 56.3504 74.7088 55.8568 74.4713C55.4362 74.2689 54.9435 74.2643 54.4988 74.3115C54.0342 74.3608 53.5002 74.4819 52.9244 74.6383C51.7975 74.9443 50.2983 75.4486 48.6841 75.9245C42.0833 77.8706 31.978 79.8607 22.2953 71.4001L21.3083 72.5296ZM52.667 81.6471C50.1696 86.1202 47.4272 88.2911 44.6991 89.2225C41.9509 90.1607 39.0978 89.8836 36.2965 89.2222C34.8964 88.8916 33.5339 88.4716 32.2099 88.0702C30.8984 87.6726 29.6149 87.2901 28.4232 87.0584C26.0571 86.5985 23.7578 86.6801 22.2195 88.7321L23.4197 89.6318C24.4139 88.3057 25.9116 88.0983 28.137 88.5308C29.2411 88.7455 30.4519 89.1046 31.7747 89.5056C33.085 89.9029 34.4966 90.3385 35.9518 90.682C38.8609 91.3689 42.0427 91.7144 45.1838 90.642C48.3449 89.5628 51.3462 87.0897 53.9767 82.3784L52.667 81.6471Z" fill="#0500FF"/>
<path d="M53.6367 100.271C55.3413 99.6545 56.1979 99.3798 56.7794 98.9802C58.3484 97.9021 59.8627 96.5032 61.5767 97.3316C62.3487 97.7047 63.0755 98.1593 63.7891 98.6629C65.5386 99.8975 67.9344 99.1875 68.7237 97.1971C69.7564 94.5927 67.4664 90.8794 64.6651 90.9213C64.5568 90.9229 64.4484 90.9238 64.3398 90.9239C62.3601 90.9267 61.2179 88.7939 62.5376 87.3183C63.2137 86.5624 63.3681 86.3151 62.6457 83.9939" stroke="#0500FF" stroke-width="1.5" stroke-linecap="round" stroke-linejoin="round"/>
<defs>
<linearGradient id="paint0_linear" x1="81.3813" y1="19.1105" x2="8.57565" y2="73.3431" gradientUnits="userSpaceOnUse">
<stop stop-color="#3CE700"/>
<stop offset="0.567708" stop-color="#0BC91E"/>
</linearGradient>
<linearGradient id="paint1_linear" x1="84.7483" y1="11.1544" x2="72.1602" y2="20.5312" gradientUnits="userSpaceOnUse">
<stop stop-color="#3CE700"/>
<stop offset="0.567708" stop-color="#0BC91E"/>
</linearGradient>
<linearGradient id="paint2_linear" x1="9.35282" y1="28.4489" x2="1.14937" y2="34.5596" gradientUnits="userSpaceOnUse">
<stop stop-color="#3CE700"/>
<stop offset="0.567708" stop-color="#0BC91E"/>
</linearGradient>
<linearGradient id="paint3_linear" x1="118.971" y1="100.656" x2="113.843" y2="104.475" gradientUnits="userSpaceOnUse">
<stop stop-color="#3CE700"/>
<stop offset="0.567708" stop-color="#0BC91E"/>
</linearGradient>
</defs>
</svg>
