<svg width="120" height="120" viewBox="0 0 120 120" fill="none" xmlns="http://www.w3.org/2000/svg">
<g clip-path="url(#clip0)">
<path d="M119.248 60C119.248 92.7229 92.7209 119.25 59.998 119.25C27.2752 119.25 0.748047 92.7229 0.748047 60C0.748047 27.2771 27.2752 0.75 59.998 0.75C92.7209 0.75 119.248 27.2771 119.248 60Z" fill="white" stroke="#D1D1D1" stroke-width="1.5"/>
<circle cx="60.521" cy="59.478" r="46.2065" stroke="#D1D1D1" stroke-width="1.5" stroke-dasharray="4 3"/>
<circle opacity="0.05" cx="60.5" cy="59.5" r="35.5" fill="url(#paint0_linear)"/>
<circle cx="106" cy="69" r="7" fill="white"/>
<circle cx="47.5" cy="15.5" r="3.5" fill="white"/>
<path d="M104.89 65.8225C105.052 64.7258 106.634 64.7258 106.796 65.8225L106.957 66.9162C107.019 67.3363 107.349 67.6662 107.769 67.7283L108.863 67.8898C109.96 68.0518 109.96 69.6336 108.863 69.7956L107.769 69.9571C107.349 70.0192 107.019 70.3491 106.957 70.7692L106.796 71.8629C106.634 72.9596 105.052 72.9595 104.89 71.8629L104.728 70.7692C104.666 70.3491 104.336 70.0192 103.916 69.9571L102.822 69.7956C101.726 69.6336 101.726 68.0518 102.822 67.8898L103.916 67.7283C104.336 67.6662 104.666 67.3363 104.728 66.9162L104.89 65.8225Z" fill="#C4C4C4"/>
<path d="M2.88983 112.822C3.05181 111.726 4.63361 111.726 4.79558 112.822L4.95712 113.916C5.01918 114.336 5.3491 114.666 5.76925 114.728L6.86294 114.89C7.95957 115.052 7.95957 116.634 6.86294 116.796L5.76925 116.957C5.3491 117.019 5.01918 117.349 4.95712 117.769L4.79558 118.863C4.63361 119.96 3.05181 119.96 2.88983 118.863L2.72829 117.769C2.66624 117.349 2.33631 117.019 1.91616 116.957L0.82247 116.796C-0.274157 116.634 -0.274156 115.052 0.822471 114.89L1.91616 114.728C2.33631 114.666 2.66624 114.336 2.72829 113.916L2.88983 112.822Z" fill="#C4C4C4"/>
<path d="M23.8898 46.8225C24.0518 45.7258 25.6336 45.7258 25.7956 46.8225L25.9571 47.9162C26.0192 48.3363 26.3491 48.6662 26.7693 48.7283L27.8629 48.8898C28.9596 49.0518 28.9596 50.6336 27.8629 50.7956L26.7693 50.9571C26.3491 51.0192 26.0192 51.3491 25.9571 51.7692L25.7956 52.8629C25.6336 53.9595 24.0518 53.9595 23.8898 52.8629L23.7283 51.7692C23.6662 51.3491 23.3363 51.0192 22.9162 50.9571L21.8225 50.7956C20.7258 50.6336 20.7258 49.0518 21.8225 48.8898L22.9162 48.7283C23.3363 48.6662 23.6662 48.3363 23.7283 47.9162L23.8898 46.8225Z" fill="#C4C4C4"/>
<path d="M11.8109 0.515399C11.9124 -0.1718 12.9036 -0.171799 13.0051 0.5154L13.1064 1.20076C13.1453 1.46405 13.352 1.67079 13.6153 1.70968L14.3007 1.81091C14.9879 1.91241 14.9879 2.90364 14.3007 3.00514L13.6153 3.10637C13.352 3.14526 13.1453 3.352 13.1064 3.61529L13.0051 4.30065C12.9036 4.98785 11.9124 4.98785 11.8109 4.30065L11.7097 3.61529C11.6708 3.352 11.464 3.14526 11.2008 3.10637L10.5154 3.00514C9.8282 2.90364 9.8282 1.91241 10.5154 1.81091L11.2008 1.70968C11.464 1.67079 11.6708 1.46405 11.7097 1.20076L11.8109 0.515399Z" fill="#C4C4C4"/>
<ellipse cx="3.12374" cy="99.1237" rx="1.12374" ry="1.12374" fill="#C4C4C4"/>
<ellipse cx="91.8462" cy="1.84616" rx="1.84616" ry="1.84616" fill="#C4C4C4"/>
<circle cx="1.84616" cy="21.8462" r="1.84616" fill="#C4C4C4"/>
<circle cx="89.8462" cy="58.8462" r="1.84616" fill="#C4C4C4"/>
<ellipse cx="47.1237" cy="15.1237" rx="1.12375" ry="1.12374" fill="#C4C4C4"/>
<path d="M91.7441 19.5508L93.0283 19.5379C93.0283 19.5379 93.042 19.9872 93.0406 20.2751C93.0391 20.5589 93.0212 21.0017 93.0212 21.0017L91.7586 20.9955L91.7441 19.5508Z" fill="white"/>
<path d="M91.7441 22.0859L93.0283 22.0731C93.0283 22.0731 93.042 22.5223 93.0406 22.8102C93.0391 23.0941 93.0212 23.5368 93.0212 23.5368L91.7586 23.5307L91.7441 22.0859Z" fill="white"/>
<path d="M51.8654 82.4385C52.1215 79.5488 52.0233 77.5322 52.0233 74.8917C50.7425 74.2051 48.4477 69.8275 48.06 66.1294C47.0529 66.0451 45.4651 65.0413 45.0002 61.0778C44.7493 58.95 45.7458 57.7526 46.3529 57.3761C44.7142 52.3407 41.3106 36.763 52.6479 35.1532C53.8146 33.0594 56.8024 32 60.685 32C76.2189 32.2922 78.0927 43.9854 74.6873 57.3761C75.2926 57.7526 76.2891 58.95 76.04 61.0778C75.5733 65.0413 73.9872 66.0451 72.9802 66.1294C72.5942 69.8258 70.2082 74.2051 68.9239 74.8917C68.9239 77.5322 68.8274 79.5488 69.0836 82.4385C71.9718 90.3719 90.4567 88.7586 93.473 102.044C93.8349 103.637 92.7895 105.149 91.2613 105.637C65.3815 113.9 50.962 114.3 29.5183 105.749C28.1197 105.192 27.2034 103.748 27.521 102.249C30.3825 88.7419 48.9624 90.4125 51.8654 82.4385Z" fill="white" stroke="#0500FF" stroke-width="1.5" stroke-miterlimit="10" stroke-linecap="round"/>
<g opacity="0.15">
<path d="M72.5734 49.365C72.3798 49.8965 71.7993 48.9833 70.9398 47.6315C69.5004 45.3673 67.2784 41.8722 64.7812 41.8722C62.3184 41.0228 57.1935 38.7961 57.7114 37.3744C58.2293 35.9527 64.0306 36.876 66.4934 37.7253C71.6784 38.6966 73.0913 47.9433 72.5734 49.365Z" fill="#0500FF"/>
<path d="M64.5768 69.5208C64.5768 69.8815 63.0566 71.2599 61.0793 71.2599C59.1021 71.2599 57.6011 69.8815 57.6011 69.5208C57.9881 69.5208 59.1021 69.5208 61.0793 69.5208C63.0566 69.5208 63.9779 69.5208 64.5768 69.5208Z" fill="#0500FF"/>
<path d="M56.4137 59.0664C55.8085 59.3512 55.0491 59.5207 54.2247 59.5207C52.2474 59.5207 50.6445 58.5459 50.6445 57.3435C50.6445 56.141 52.2474 55.1663 54.2247 55.1663C54.7227 55.1663 55.2238 55.1973 55.7251 55.2284C56.4817 55.2754 57.239 55.3223 57.9881 55.2626C58.7717 55.2002 59.6135 55.1663 60.4899 55.1663C61.2393 55.1663 61.9633 55.1911 62.6472 55.2373C63.2876 55.2806 63.9324 55.2462 64.5768 55.2119C65.0052 55.1891 65.4335 55.1663 65.8601 55.1663C67.8374 55.1663 69.4403 56.141 69.4403 57.3435C69.4403 58.5459 67.8374 59.5207 65.8601 59.5207C64.7292 59.5207 63.7207 59.2017 63.0646 58.7037C62.9507 58.6172 62.8134 58.5674 62.6693 58.5773C62.3689 58.5978 62.1416 58.8577 62.1704 59.1493C62.2409 59.864 62.28 60.6521 62.28 61.4801C62.28 62.5169 62.417 63.269 62.5159 63.8124C62.7268 64.9707 62.7651 65.1814 60.9375 65.1814C60.3988 65.1814 60.4066 64.9414 60.4512 63.5654C60.4679 63.0473 60.4899 62.3682 60.4899 61.4801C60.4899 60.7013 60.473 59.9578 60.4575 59.2775C60.4496 58.9287 60.157 58.6501 59.7985 58.6427C59.2888 58.6322 58.7935 58.6101 58.3177 58.5777C57.6561 58.5327 57.0108 58.7854 56.4137 59.0664Z" fill="#0500FF"/>
<path d="M57.2247 93.2148C56.6195 93.4996 54.9472 94.028 54.1228 94.028C52.1455 94.028 52.1441 92.0302 52.1441 90.8278C52.1441 89.6254 51.5658 87.6512 53.5431 87.6512C54.0411 87.6512 55.6287 87.6836 57.0213 88.2309C57.6315 88.4707 58.0114 89.45 58.7605 89.3903C59.544 89.3279 58.1808 88.6506 61.0793 88.6506C64.327 88.6506 63.294 89.3441 63.9779 89.3903C64.6182 89.4336 65.4862 88.5278 66.2967 88.2309C67.3036 87.8621 68.1889 87.6512 68.6155 87.6512C70.5928 87.6512 70.9398 89.6254 70.9398 90.8278C70.9344 94.6077 69.2917 93.8916 67.4561 93.4483C66.3505 93.1813 65.2202 92.6861 64.5641 92.1881C63.7342 91.5581 63.251 92.9316 62.2913 93.005C61.1287 93.0939 59.9199 93.4483 59.3402 92.2889C58.9969 91.6023 57.8218 92.9339 57.2247 93.2148Z" fill="#0500FF"/>
<path d="M61.659 96.3469C61.1409 96.3086 60.5222 96.4809 60.5 97C60.4773 97.5324 61.0649 98.0661 61.659 98C62.2164 97.938 62.6733 97.3779 62.5862 96.9033C62.5099 96.488 62.0802 96.378 61.659 96.3469Z" fill="#0500FF"/>
<path d="M62.2913 100.5C61.7138 99.9446 60.3515 100.713 60.5 101.5C60.6342 102.212 61.691 102.618 62.2387 102.144C62.4443 101.966 62.5958 101.813 62.5862 101.541C62.5766 101.269 62.5958 100.793 62.2913 100.5Z" fill="#0500FF"/>
<path d="M61.659 105.22C61.1365 105.225 60.696 105.682 60.7499 106.202C60.7986 106.672 61.1866 106.995 61.659 107C62.1367 107.005 62.5369 106.677 62.5862 106.202C62.6406 105.677 62.1863 105.215 61.659 105.22Z" fill="#0500FF"/>
</g>
<path d="M115.244 2.3908C114.966 0.5364 112.247 0.536402 111.968 2.3908L111.69 4.24023C111.584 4.95071 111.017 5.5086 110.294 5.61354L108.414 5.88671C106.529 6.1606 106.529 8.83543 108.414 9.10932L110.294 9.38249C111.017 9.48743 111.584 10.0453 111.69 10.7558L111.968 12.6052C112.247 14.4596 114.966 14.4596 115.244 12.6052L115.522 10.7558C115.629 10.0453 116.196 9.48743 116.918 9.38249L118.799 9.10932C120.684 8.83543 120.684 6.1606 118.799 5.88671L116.918 5.61354C116.196 5.5086 115.629 4.95071 115.522 4.24023L115.244 2.3908Z" fill="#C4C4C4"/>
<path d="M115.811 102.515C115.912 101.828 116.904 101.828 117.005 102.515L117.106 103.201C117.145 103.464 117.352 103.671 117.615 103.71L118.301 103.811C118.988 103.912 118.988 104.904 118.301 105.005L117.615 105.106C117.352 105.145 117.145 105.352 117.106 105.615L117.005 106.301C116.904 106.988 115.912 106.988 115.811 106.301L115.71 105.615C115.671 105.352 115.464 105.145 115.201 105.106L114.515 105.005C113.828 104.904 113.828 103.912 114.515 103.811L115.201 103.71C115.464 103.671 115.671 103.464 115.71 103.201L115.811 102.515Z" fill="#C4C4C4"/>
<path d="M85.8109 30.5154C85.9124 29.8282 86.9036 29.8282 87.0051 30.5154L87.1064 31.2008C87.1453 31.464 87.352 31.6708 87.6153 31.7097L88.3007 31.8109C88.9879 31.9124 88.9879 32.9036 88.3007 33.0051L87.6153 33.1064C87.352 33.1453 87.1453 33.352 87.1064 33.6153L87.0051 34.3007C86.9036 34.9878 85.9124 34.9878 85.8109 34.3006L85.7097 33.6153C85.6708 33.352 85.464 33.1453 85.2008 33.1064L84.5154 33.0051C83.8282 32.9036 83.8282 31.9124 84.5154 31.8109L85.2008 31.7097C85.464 31.6708 85.6708 31.464 85.7097 31.2008L85.8109 30.5154Z" fill="#C4C4C4"/>
<path d="M31.1379 17L34.0979 20.1779L37.2759 23.1379L34.0979 26.0979L31.1379 29.2759L28.1779 26.0979L25 23.1379L28.1779 20.1779L31.1379 17Z" fill="url(#paint1_linear)"/>
<path d="M110 26L111.929 28.071L114 30L111.929 31.929L110 34L108.071 31.929L106 30L108.071 28.071L110 26Z" fill="url(#paint2_linear)"/>
<path d="M106.5 115L107.706 116.294L109 117.5L107.706 118.706L106.5 120L105.294 118.706L104 117.5L105.294 116.294L106.5 115Z" fill="url(#paint3_linear)"/>
</g>
<defs>
<linearGradient id="paint0_linear" x1="81.3813" y1="19.1107" x2="8.57565" y2="73.3433" gradientUnits="userSpaceOnUse">
<stop stop-color="#3CE700"/>
<stop offset="0.567708" stop-color="#0BC91E"/>
</linearGradient>
<linearGradient id="paint1_linear" x1="34.7483" y1="16.1546" x2="22.1602" y2="25.5314" gradientUnits="userSpaceOnUse">
<stop stop-color="#3CE700"/>
<stop offset="0.567708" stop-color="#0BC91E"/>
</linearGradient>
<linearGradient id="paint2_linear" x1="112.353" y1="25.4491" x2="104.149" y2="31.5598" gradientUnits="userSpaceOnUse">
<stop stop-color="#3CE700"/>
<stop offset="0.567708" stop-color="#0BC91E"/>
</linearGradient>
<linearGradient id="paint3_linear" x1="107.971" y1="114.656" x2="102.843" y2="118.475" gradientUnits="userSpaceOnUse">
<stop stop-color="#3CE700"/>
<stop offset="0.567708" stop-color="#0BC91E"/>
</linearGradient>
<clipPath id="clip0">
<rect width="120" height="120" fill="white"/>
</clipPath>
</defs>
</svg>
