<svg width="70" height="69" viewBox="0 0 70 69" fill="none" xmlns="http://www.w3.org/2000/svg">
<circle cx="35.0508" cy="34.5" r="34" stroke="#D1D1D1" stroke-dasharray="3.2 3.2"/>
<ellipse opacity="0.15" cx="35.6252" cy="34.499" rx="23.3049" ry="22.9228" fill="url(#paint0_linear)"/>
<path d="M64.9422 63.7846C65.0414 63.1239 66.0104 63.1239 66.1096 63.7846L66.2086 64.4437C66.2466 64.6968 66.4487 64.8956 66.7061 64.933L67.3761 65.0303C68.0479 65.1279 68.0479 66.0811 67.3761 66.1787L66.7061 66.276C66.4487 66.3134 66.2466 66.5122 66.2086 66.7653L66.1096 67.4244C66.0104 68.0851 65.0414 68.0851 64.9422 67.4244L64.8432 66.7653C64.8052 66.5122 64.6031 66.3134 64.3457 66.276L63.6757 66.1787C63.0039 66.0811 63.0039 65.1279 63.6757 65.0303L64.3457 64.933C64.6031 64.8956 64.8052 64.6968 64.8432 64.4437L64.9422 63.7846Z" fill="#C4C4C4"/>
<path d="M5.57112 3.57014C5.72946 2.51568 7.27579 2.51568 7.43413 3.57014L7.59205 4.62178C7.65271 5.02578 7.97524 5.34301 8.38597 5.40268L9.45513 5.55801C10.5272 5.71376 10.5272 7.23474 9.45513 7.39048L8.38597 7.54581C7.97524 7.60548 7.65271 7.92272 7.59205 8.32671L7.43413 9.37835C7.27579 10.4328 5.72946 10.4328 5.57112 9.37835L5.4132 8.32671C5.35254 7.92272 5.03002 7.60548 4.61928 7.54581L3.55012 7.39048C2.47808 7.23474 2.47809 5.71376 3.55012 5.55801L4.61928 5.40268C5.03002 5.34301 5.35254 5.02578 5.4132 4.62178L5.57112 3.57014Z" fill="#C4C4C4"/>
<path d="M8.28593 32.9116C8.38515 32.2508 9.35415 32.2508 9.45338 32.9116L9.55234 33.5706C9.59035 33.8238 9.79246 34.0226 10.0498 34.06L10.7198 34.1573C11.3916 34.2549 11.3916 35.208 10.7198 35.3056L10.0498 35.4029C9.79246 35.4403 9.59035 35.6391 9.55234 35.8923L9.45338 36.5513C9.35415 37.2121 8.38515 37.2121 8.28593 36.5513L8.18697 35.8923C8.14895 35.6391 7.94684 35.4403 7.68946 35.4029L7.01947 35.3056C6.34768 35.208 6.34768 34.2549 7.01947 34.1573L7.68946 34.06C7.94684 34.0226 8.14895 33.8238 8.18697 33.5706L8.28593 32.9116Z" fill="#C4C4C4"/>
<ellipse cx="3.84464" cy="62.2075" rx="1.09855" ry="1.08054" fill="#C4C4C4"/>
<ellipse cx="67.1982" cy="5.68015" rx="1.09855" ry="1.08054" fill="#C4C4C4"/>
<ellipse cx="28.7188" cy="60.742" rx="1.80475" ry="1.77517" fill="#C4C4C4"/>
<ellipse cx="44.4911" cy="7.71726" rx="1.09855" ry="1.08054" fill="#C4C4C4"/>
<mask id="path-10-inside-1" fill="white">
<path fill-rule="evenodd" clip-rule="evenodd" d="M19.0617 53.023C20.4075 53.4654 21.9612 53.7178 23.6158 53.7178C25.268 53.7178 26.8196 53.4662 28.1641 53.0249C27.9277 50.292 25.9802 48.1602 23.6128 48.1602C21.2459 48.1602 19.2988 50.291 19.0617 53.023Z"/>
</mask>
<path fill-rule="evenodd" clip-rule="evenodd" d="M19.0617 53.023C20.4075 53.4654 21.9612 53.7178 23.6158 53.7178C25.268 53.7178 26.8196 53.4662 28.1641 53.0249C27.9277 50.292 25.9802 48.1602 23.6128 48.1602C21.2459 48.1602 19.2988 50.291 19.0617 53.023Z" fill="white"/>
<path d="M19.0617 53.023L18.7494 53.973L17.997 53.7256L18.0655 52.9365L19.0617 53.023ZM28.1641 53.0249L29.1603 52.9387L29.2286 53.728L28.4759 53.975L28.1641 53.0249ZM19.374 52.073C20.6128 52.4803 22.0605 52.7178 23.6158 52.7178V54.7178C21.8619 54.7178 20.2023 54.4506 18.7494 53.973L19.374 52.073ZM23.6158 52.7178C25.1689 52.7178 26.6146 52.4809 27.8522 52.0748L28.4759 53.975C27.0246 54.4514 25.3672 54.7178 23.6158 54.7178V52.7178ZM27.1678 53.1111C26.9631 50.7448 25.323 49.1602 23.6128 49.1602V47.1602C26.6374 47.1602 28.8923 49.8393 29.1603 52.9387L27.1678 53.1111ZM23.6128 49.1602C21.903 49.1602 20.2633 50.744 20.058 53.1095L18.0655 52.9365C18.3344 49.838 20.5889 47.1602 23.6128 47.1602V49.1602Z" fill="#D1D1D1" mask="url(#path-10-inside-1)"/>
<path fill-rule="evenodd" clip-rule="evenodd" d="M25.2007 33.7856C25.5444 33.1865 25.3334 32.4291 24.7296 32.094C24.1257 31.7588 23.3575 31.9728 23.0139 32.5719L20.7879 36.4521V36.4521C20.3023 37.2986 20.558 38.7036 20.327 39.6518C20.2639 39.9108 20.2264 40.1789 20.2171 40.4532L20.107 43.7028C20.0952 44.0486 20.1284 44.3944 20.2057 44.7316L20.4234 45.6819C20.4896 45.9708 20.5866 46.244 20.7101 46.4992C20.9097 46.9114 20.9499 47.3921 20.9499 47.8501V47.8501C20.9499 48.8731 21.7792 49.7024 22.8022 49.7024H24.4333C24.5608 49.7024 24.6854 49.6895 24.8056 49.665C26.2771 49.3648 27.2032 47.5828 27.7332 46.1777V46.1777L28.4692 44.2261C28.736 43.5186 28.7969 42.75 28.6447 42.0093L28.1852 39.7733C27.9824 38.7864 27.4258 37.9603 26.6747 37.3962C25.6263 36.6089 24.5483 34.9229 25.2007 33.7856V33.7856Z" fill="white"/>
<path d="M23.0139 32.5719L22.5802 32.3231L22.5802 32.3231L23.0139 32.5719ZM20.2171 40.4532L19.7174 40.4363L19.7174 40.4363L20.2171 40.4532ZM20.107 43.7028L19.6072 43.6859L19.6072 43.6859L20.107 43.7028ZM20.2057 44.7316L20.6931 44.6199L20.6931 44.6199L20.2057 44.7316ZM20.4234 45.6819L19.936 45.7935L19.936 45.7935L20.4234 45.6819ZM28.4692 44.2261L28.937 44.4025L28.937 44.4025L28.4692 44.2261ZM28.6447 42.0093L29.1345 41.9087L29.1345 41.9087L28.6447 42.0093ZM28.1852 39.7733L28.675 39.6726L28.1852 39.7733ZM20.7101 46.4992L21.1602 46.2813L20.7101 46.4992ZM24.9722 31.6568C25.8199 32.1273 26.1169 33.1934 25.6344 34.0344L24.767 33.5368C24.9719 33.1796 24.8469 32.731 24.4869 32.5312L24.9722 31.6568ZM22.5802 32.3231C23.0599 31.4868 24.1293 31.189 24.9722 31.6568L24.4869 32.5312C24.1221 32.3287 23.6552 32.4587 23.4476 32.8207L22.5802 32.3231ZM20.3542 36.2033L22.5802 32.3231L23.4476 32.8207L21.2216 36.7009L20.3542 36.2033ZM19.7174 40.4363C19.7278 40.1274 19.7701 39.8253 19.8412 39.5335L20.8128 39.7702C20.7577 39.9963 20.7249 40.2304 20.7168 40.4702L19.7174 40.4363ZM19.6072 43.6859L19.7174 40.4363L20.7168 40.4702L20.6067 43.7197L19.6072 43.6859ZM19.7183 44.8432C19.6314 44.4639 19.5941 44.0748 19.6072 43.6859L20.6067 43.7197C20.5964 44.0223 20.6255 44.3249 20.6931 44.6199L19.7183 44.8432ZM19.936 45.7935L19.7183 44.8432L20.6931 44.6199L20.9108 45.5702L19.936 45.7935ZM20.2601 46.717C20.1203 46.4282 20.0107 46.1193 19.936 45.7935L20.9108 45.5702C20.9685 45.8222 21.053 46.0598 21.1602 46.2813L20.2601 46.717ZM21.4499 47.8501C21.4499 48.597 22.0554 49.2024 22.8022 49.2024V50.2024C21.5031 50.2024 20.4499 49.1492 20.4499 47.8501H21.4499ZM22.8022 49.2024H24.4333V50.2024H22.8022V49.2024ZM24.4333 49.2024C24.5271 49.2024 24.6181 49.193 24.7057 49.1751L24.9056 50.1549C24.7526 50.1861 24.5946 50.2024 24.4333 50.2024V49.2024ZM28.937 44.4025L28.201 46.3541L27.2653 46.0012L28.0014 44.0496L28.937 44.4025ZM29.1345 41.9087C29.3057 42.7419 29.2372 43.6066 28.937 44.4025L28.0014 44.0496C28.2349 43.4306 28.2881 42.758 28.1549 42.11L29.1345 41.9087ZM28.675 39.6726L29.1345 41.9087L28.1549 42.11L27.6954 39.8739L28.675 39.6726ZM26.9749 36.9964C27.8188 37.6301 28.4464 38.5604 28.675 39.6726L27.6954 39.8739C27.5184 39.0123 27.0329 38.2905 26.3744 37.796L26.9749 36.9964ZM26.3744 37.796C25.7895 37.3568 25.2049 36.6769 24.8494 35.9392C24.4999 35.2138 24.3209 34.3145 24.767 33.5368L25.6344 34.0344C25.4282 34.3939 25.4618 34.9063 25.7503 35.5051C26.0329 36.0915 26.5114 36.6483 26.9749 36.9964L26.3744 37.796ZM24.7057 49.1751C25.2676 49.0604 25.7718 48.6518 26.2189 48.0405C26.6623 47.4341 27.0075 46.6849 27.2653 46.0012L28.201 46.3541C27.9289 47.0756 27.546 47.9199 27.026 48.6308C26.5097 49.3369 25.8151 49.9693 24.9056 50.1549L24.7057 49.1751ZM21.1602 46.2813C21.411 46.7995 21.4499 47.3751 21.4499 47.8501H20.4499C20.4499 47.4091 20.4083 47.0233 20.2601 46.717L21.1602 46.2813ZM21.2216 36.7009C21.0464 37.0064 20.9874 37.4536 20.9615 38.0361C20.938 38.5638 20.9435 39.2335 20.8128 39.7702L19.8412 39.5335C19.9414 39.122 19.9347 38.615 19.9625 37.9916C19.9878 37.4228 20.0439 36.7443 20.3542 36.2033L21.2216 36.7009Z" fill="#D1D1D1"/>
<rect width="3.1387" height="19.4497" transform="matrix(-1 0 0 1 26.5996 27.4746)" fill="#0500FF"/>
<rect width="2.4711" height="7.05847" rx="1.23555" transform="matrix(-0.180149 -0.983639 -0.984662 0.174472 29.8789 37.8926)" fill="white" stroke="#D1D1D1"/>
<rect width="2.4711" height="7.05847" rx="1.23555" transform="matrix(-0.180149 -0.983639 -0.984662 0.174472 29.7031 40.4336)" fill="white" stroke="#D1D1D1"/>
<rect width="2.4711" height="5.48992" rx="1.23555" transform="matrix(-0.180149 -0.983639 -0.984662 0.174472 29.2266 43.0293)" fill="white" stroke="#D1D1D1"/>
<rect width="2.4711" height="3.92137" rx="1.23555" transform="matrix(-0.180149 -0.983639 -0.984662 0.174472 28.5859 45.6504)" fill="white" stroke="#D1D1D1"/>
<path d="M16.7434 21.9179C16.7434 26.6639 20.6572 30.5253 25.5025 30.5253C30.3479 30.5253 34.2617 26.6639 34.2617 21.9179C34.2617 17.172 30.3479 13.3105 25.5025 13.3105C20.6572 13.3105 16.7434 17.172 16.7434 21.9179Z" fill="white" stroke="#0500FF"/>
<path d="M24.2611 25.4432L30.5213 19.2855L29.7446 18.5215L24.281 23.8955L21.4155 21.0769L20.6387 21.841L23.5042 24.6595L23.4843 24.6791L24.2611 25.4432Z" fill="url(#paint1_linear)"/>
<mask id="path-21-inside-2" fill="white">
<path fill-rule="evenodd" clip-rule="evenodd" d="M44.4895 51.3257C45.8353 51.7682 47.3889 52.0206 49.0435 52.0206C50.6958 52.0206 52.2473 51.7689 53.5918 51.3276C53.3554 48.5947 51.408 46.4629 49.0405 46.4629C46.6737 46.4629 44.7266 48.5938 44.4895 51.3257Z"/>
</mask>
<path fill-rule="evenodd" clip-rule="evenodd" d="M44.4895 51.3257C45.8353 51.7682 47.3889 52.0206 49.0435 52.0206C50.6958 52.0206 52.2473 51.7689 53.5918 51.3276C53.3554 48.5947 51.408 46.4629 49.0405 46.4629C46.6737 46.4629 44.7266 48.5938 44.4895 51.3257Z" fill="white"/>
<path d="M44.4895 51.3257L44.1772 52.2757L43.4247 52.0284L43.4932 51.2393L44.4895 51.3257ZM53.5918 51.3276L54.5881 51.2415L54.6563 52.0307L53.9036 52.2778L53.5918 51.3276ZM44.8018 50.3758C46.0405 50.783 47.4882 51.0206 49.0435 51.0206V53.0206C47.2896 53.0206 45.63 52.7533 44.1772 52.2757L44.8018 50.3758ZM49.0435 51.0206C50.5966 51.0206 52.0424 50.7837 53.28 50.3775L53.9036 52.2778C52.4523 52.7541 50.795 53.0206 49.0435 53.0206V51.0206ZM52.5955 51.4138C52.3908 49.0475 50.7508 47.4629 49.0405 47.4629V45.4629C52.0652 45.4629 54.32 48.142 54.5881 51.2415L52.5955 51.4138ZM49.0405 47.4629C47.3307 47.4629 45.691 49.0467 45.4857 51.4122L43.4932 51.2393C43.7621 48.1408 46.0167 45.4629 49.0405 45.4629V47.4629Z" fill="#D1D1D1" mask="url(#path-21-inside-2)"/>
<path fill-rule="evenodd" clip-rule="evenodd" d="M49.2148 29.9105C49.3365 29.2282 48.8814 28.5796 48.1985 28.4618C47.5155 28.344 46.8633 28.8016 46.7416 29.4839L45.9623 33.8551V33.8551C45.828 34.6086 46.0448 35.5861 45.815 36.3162C45.7094 36.6514 45.6474 37.0046 45.635 37.3686L45.5249 40.6182C45.5132 40.964 45.5464 41.3098 45.6236 41.647L45.8414 42.5973C45.8832 42.78 45.9375 42.9566 46.0029 43.1262C46.2958 43.8851 46.3679 44.7676 46.3679 45.581V45.581V45.8023C46.3679 47.2757 47.5623 48.4702 49.0357 48.4702C50.5092 48.4702 51.7036 47.2757 51.7036 45.8023V45.581V45.581C51.7036 45.2095 51.8491 44.8394 52.1257 44.5913C52.577 44.1865 52.9316 43.6751 53.1511 43.0931L53.8872 41.1415C54.154 40.434 54.2149 39.6654 54.0627 38.9247L53.6032 36.6887C53.1611 34.5377 51.0386 33.1509 48.8839 33.5748V33.5748C48.7271 33.6056 48.5798 33.4723 48.6079 33.3149L49.2148 29.9105Z" fill="white"/>
<path d="M48.1985 28.4618L48.1135 28.9546L48.1985 28.4618ZM49.2148 29.9105L48.7226 29.8228L48.7226 29.8228L49.2148 29.9105ZM46.7416 29.4839L46.2494 29.3962L46.2494 29.3962L46.7416 29.4839ZM45.635 37.3686L45.1353 37.3517L45.1353 37.3517L45.635 37.3686ZM45.5249 40.6182L45.0252 40.6013L45.0252 40.6013L45.5249 40.6182ZM45.6236 41.647L45.1363 41.7586L45.1363 41.7586L45.6236 41.647ZM45.8414 42.5973L45.354 42.7089L45.354 42.7089L45.8414 42.5973ZM53.1511 43.0931L52.6833 42.9166L52.6833 42.9166L53.1511 43.0931ZM53.8872 41.1415L54.355 41.3179L54.355 41.3179L53.8872 41.1415ZM54.0627 38.9247L54.5524 38.8241L54.5524 38.8241L54.0627 38.9247ZM53.6032 36.6887L53.1134 36.7893L53.6032 36.6887ZM48.6079 33.3149L49.1001 33.4027L48.6079 33.3149ZM52.1257 44.5913L51.7918 44.2191L52.1257 44.5913ZM46.0029 43.1262L46.4694 42.9462L46.0029 43.1262ZM45.815 36.3162L46.2919 36.4663L45.815 36.3162ZM48.2835 27.9691C49.2396 28.134 49.8774 29.0431 49.7071 29.9983L48.7226 29.8228C48.7956 29.4134 48.5232 29.0252 48.1135 28.9546L48.2835 27.9691ZM46.2494 29.3962C46.4193 28.4431 47.3295 27.8046 48.2835 27.9691L48.1135 28.9546C47.7016 28.8835 47.3072 29.1602 47.2339 29.5717L46.2494 29.3962ZM45.4701 33.7673L46.2494 29.3962L47.2339 29.5717L46.4546 33.9428L45.4701 33.7673ZM45.1353 37.3517C45.1492 36.9417 45.2191 36.5438 45.338 36.166L46.2919 36.4663C46.1997 36.7591 46.1455 37.0675 46.1348 37.3856L45.1353 37.3517ZM45.0252 40.6013L45.1353 37.3517L46.1348 37.3856L46.0246 40.6352L45.0252 40.6013ZM45.1363 41.7586C45.0494 41.3793 45.012 40.9902 45.0252 40.6013L46.0246 40.6352C46.0144 40.9377 46.0434 41.2403 46.111 41.5353L45.1363 41.7586ZM45.354 42.7089L45.1363 41.7586L46.111 41.5353L46.3287 42.4856L45.354 42.7089ZM45.5364 43.3062C45.4624 43.1144 45.4012 42.915 45.354 42.7089L46.3287 42.4856C46.3653 42.6451 46.4125 42.7988 46.4694 42.9462L45.5364 43.3062ZM46.8679 45.581V45.8023H45.8679V45.581H46.8679ZM46.8679 45.8023C46.8679 46.9996 47.8385 47.9702 49.0357 47.9702V48.9702C47.2862 48.9702 45.8679 47.5519 45.8679 45.8023H46.8679ZM49.0357 47.9702C50.233 47.9702 51.2036 46.9996 51.2036 45.8023H52.2036C52.2036 47.5519 50.7853 48.9702 49.0357 48.9702V47.9702ZM51.2036 45.8023V45.581H52.2036V45.8023H51.2036ZM53.619 43.2695C53.3708 43.9276 52.9698 44.5059 52.4595 44.9636L51.7918 44.2191C52.1842 43.8672 52.4925 43.4226 52.6833 42.9166L53.619 43.2695ZM54.355 41.3179L53.619 43.2695L52.6833 42.9166L53.4194 40.965L54.355 41.3179ZM54.5524 38.8241C54.7236 39.6573 54.6552 40.522 54.355 41.3179L53.4194 40.965C53.6528 40.346 53.7061 39.6734 53.5729 39.0254L54.5524 38.8241ZM54.0929 36.588L54.5524 38.8241L53.5729 39.0254L53.1134 36.7893L54.0929 36.588ZM48.7874 33.0842C51.2067 32.6082 53.5947 34.1635 54.0929 36.588L53.1134 36.7893C52.7276 34.9118 50.8705 33.6936 48.9804 34.0654L48.7874 33.0842ZM49.7071 29.9983L49.1001 33.4027L48.1157 33.2272L48.7226 29.8228L49.7071 29.9983ZM48.9804 34.0654C48.5111 34.1577 48.0202 33.7628 48.1157 33.2272L49.1001 33.4027C49.1189 33.2972 49.0754 33.2035 49.0169 33.1491C48.9603 33.0966 48.8763 33.0667 48.7874 33.0842L48.9804 34.0654ZM51.2036 45.581C51.2036 45.0858 51.3965 44.5736 51.7918 44.2191L52.4595 44.9636C52.3016 45.1052 52.2036 45.3331 52.2036 45.581H51.2036ZM46.4694 42.9462C46.7957 43.7917 46.8679 44.7479 46.8679 45.581H45.8679C45.8679 44.7873 45.7959 43.9785 45.5364 43.3062L46.4694 42.9462ZM46.4546 33.9428C46.3984 34.258 46.4151 34.6263 46.4244 35.0843C46.4329 35.5071 46.4347 36.0125 46.2919 36.4663L45.338 36.166C45.425 35.8897 45.4334 35.5413 45.4246 35.1045C45.4164 34.7029 45.3919 34.2057 45.4701 33.7673L46.4546 33.9428Z" fill="#D1D1D1"/>
<rect width="3.1387" height="19.4497" transform="matrix(-1 0 0 1 52.0215 27.4766)" fill="#0500FF"/>
<rect width="2.47554" height="7.04616" rx="1.23777" transform="matrix(-0.3775 -0.92601 -0.93026 0.366901 55.5879 33.6289)" fill="white" stroke="#D1D1D1"/>
<rect width="2.47554" height="7.04616" rx="1.23777" transform="matrix(-0.3775 -0.92601 -0.93026 0.366901 55.9434 36.1484)" fill="white" stroke="#D1D1D1"/>
<rect width="2.47554" height="5.48035" rx="1.23777" transform="matrix(-0.3775 -0.92601 -0.93026 0.366901 56.002 38.7852)" fill="white" stroke="#D1D1D1"/>
<rect width="2.47554" height="3.91453" rx="1.23777" transform="matrix(-0.3775 -0.92601 -0.93026 0.366901 55.916 41.4805)" fill="white" stroke="#D1D1D1"/>
<path d="M42.1652 21.9199C42.1652 26.6658 46.079 30.5273 50.9244 30.5273C55.7698 30.5273 59.6836 26.6658 59.6836 21.9199C59.6836 17.1739 55.7698 13.3125 50.9244 13.3125C46.079 13.3125 42.1652 17.1739 42.1652 21.9199Z" fill="white" stroke="#0500FF"/>
<rect width="2.50974" height="5.66062" rx="1.25487" transform="matrix(-0.985448 -0.169975 -0.175514 0.984477 49.4395 28.6738)" fill="white" stroke="#D1D1D1"/>
<rect width="1.39338" height="3.98801" rx="0.696692" transform="matrix(-0.985448 -0.169975 -0.175514 0.984477 48.1758 32.5742)" fill="white"/>
<path d="M50.8694 22.6261L53.5327 25.2456L54.3095 24.4816L51.6462 21.862L54.3095 19.2424L53.5327 18.4784L50.8694 21.098L48.0951 18.3691L47.3184 19.1332L50.0927 21.862L47.3184 24.5908L48.0952 25.3549L50.8694 22.6261Z" fill="url(#paint2_linear)"/>
<path d="M37.4316 28.875L38.4078 28.0984C38.4078 28.0984 38.691 28.4287 38.8647 28.6466C39.0359 28.8614 39.291 29.2057 39.291 29.2057L38.3199 29.9551L37.4316 28.875Z" fill="white"/>
<mask id="path-35-inside-3" fill="white">
<path fill-rule="evenodd" clip-rule="evenodd" d="M44.9674 60.1256C43.6215 60.5681 42.0678 60.8206 40.413 60.8206C38.7609 60.8206 37.2096 60.569 35.8652 60.1278C36.1018 57.3952 38.0492 55.2637 40.4164 55.2637C42.783 55.2637 44.73 57.3941 44.9674 60.1256Z"/>
</mask>
<path fill-rule="evenodd" clip-rule="evenodd" d="M44.9674 60.1256C43.6215 60.5681 42.0678 60.8206 40.413 60.8206C38.7609 60.8206 37.2096 60.569 35.8652 60.1278C36.1018 57.3952 38.0492 55.2637 40.4164 55.2637C42.783 55.2637 44.73 57.3941 44.9674 60.1256Z" fill="white"/>
<path d="M44.9674 60.1256L45.2798 61.0756L46.0323 60.8282L45.9637 60.039L44.9674 60.1256ZM35.8652 60.1278L34.869 60.0415L34.8006 60.8309L35.5534 61.078L35.8652 60.1278ZM44.6551 59.1756C43.4163 59.5829 41.9684 59.8206 40.413 59.8206V61.8206C42.1671 61.8206 43.8268 61.5533 45.2798 61.0756L44.6551 59.1756ZM40.413 59.8206C38.8601 59.8206 37.4145 59.5837 36.177 59.1777L35.5534 61.078C37.0046 61.5542 38.6618 61.8206 40.413 61.8206V59.8206ZM36.8615 60.2141C37.0664 57.848 38.7063 56.2637 40.4164 56.2637V54.2637C37.3921 54.2637 35.1373 56.9424 34.869 60.0415L36.8615 60.2141ZM40.4164 56.2637C42.1261 56.2637 43.7656 57.8472 43.9712 60.2122L45.9637 60.039C45.6943 56.941 43.44 54.2637 40.4164 54.2637V56.2637Z" fill="#D1D1D1" mask="url(#path-35-inside-3)"/>
<path fill-rule="evenodd" clip-rule="evenodd" d="M41.195 38.3024C41.195 37.609 41.7571 37.0469 42.4505 37.0469C43.1438 37.0469 43.7059 37.609 43.7059 38.3024V42.7377V42.7377C43.7059 43.4659 43.4228 44.4263 43.6402 45.1213C43.7445 45.4546 43.8058 45.8055 43.8181 46.1671L43.9282 49.4167C43.9399 49.7625 43.9067 50.1083 43.8295 50.4455L43.6118 51.3958C43.5699 51.5785 43.5157 51.7551 43.4502 51.9247C43.1574 52.6836 43.0853 53.5661 43.0853 54.3795V54.3795V54.6008C43.0853 56.0742 41.8908 57.2687 40.4174 57.2687C38.9439 57.2687 37.7495 56.0742 37.7495 54.6008V54.3795V54.3795C37.7495 54.008 37.604 53.6379 37.3275 53.3898C36.8761 52.985 36.5215 52.4736 36.302 51.8916L35.5659 49.94C35.2991 49.2325 35.2383 48.4639 35.3905 47.7232L35.85 45.4872C36.292 43.3361 38.4145 41.9494 40.5692 42.3733V42.3733C40.8787 42.4341 41.195 42.2143 41.195 41.8989V38.3024Z" fill="white"/>
<path d="M43.8181 46.1671L43.3184 46.1841L43.3184 46.1841L43.8181 46.1671ZM43.9282 49.4167L44.4279 49.3998L44.4279 49.3998L43.9282 49.4167ZM43.8295 50.4455L44.3168 50.5571L44.3168 50.5571L43.8295 50.4455ZM43.6118 51.3958L44.0991 51.5074L44.0991 51.5074L43.6118 51.3958ZM36.302 51.8916L36.7698 51.7151L36.7698 51.7151L36.302 51.8916ZM35.5659 49.94L36.0338 49.7635L36.0338 49.7635L35.5659 49.94ZM35.3905 47.7232L35.8802 47.8239L35.8802 47.8239L35.3905 47.7232ZM35.85 45.4872L36.3397 45.5878L36.3397 45.5878L35.85 45.4872ZM37.3275 53.3898L36.9936 53.7621L37.3275 53.3898ZM43.4502 51.9247L42.9837 51.7447L43.4502 51.9247ZM43.6402 45.1213L43.163 45.2706L43.6402 45.1213ZM42.4505 36.5469C41.4809 36.5469 40.695 37.3328 40.695 38.3024H41.695C41.695 37.8851 42.0332 37.5469 42.4505 37.5469V36.5469ZM44.2059 38.3024C44.2059 37.3328 43.42 36.5469 42.4505 36.5469V37.5469C42.8677 37.5469 43.2059 37.8851 43.2059 38.3024H44.2059ZM44.2059 42.7377V38.3024H43.2059V42.7377H44.2059ZM44.3178 46.1502C44.304 45.7429 44.2349 45.3475 44.1174 44.972L43.163 45.2706C43.2541 45.5616 43.3077 45.868 43.3184 46.1841L44.3178 46.1502ZM44.4279 49.3998L44.3178 46.1502L43.3184 46.1841L43.4285 49.4336L44.4279 49.3998ZM44.3168 50.5571C44.4038 50.1778 44.4411 49.7887 44.4279 49.3998L43.4285 49.4336C43.4387 49.7362 43.4097 50.0388 43.3421 50.3338L44.3168 50.5571ZM44.0991 51.5074L44.3168 50.5571L43.3421 50.3338L43.1244 51.2841L44.0991 51.5074ZM43.9167 52.1047C43.9907 51.9129 44.0519 51.7135 44.0991 51.5074L43.1244 51.2841C43.0878 51.4436 43.0406 51.5973 42.9837 51.7447L43.9167 52.1047ZM42.5853 54.3795V54.6008H43.5853V54.3795H42.5853ZM42.5853 54.6008C42.5853 55.7981 41.6147 56.7687 40.4174 56.7687V57.7687C42.167 57.7687 43.5853 56.3504 43.5853 54.6008H42.5853ZM40.4174 56.7687C39.2201 56.7687 38.2495 55.7981 38.2495 54.6008H37.2495C37.2495 56.3504 38.6678 57.7687 40.4174 57.7687V56.7687ZM38.2495 54.6008V54.3795H37.2495V54.6008H38.2495ZM35.8342 52.068C36.0824 52.7261 36.4833 53.3044 36.9936 53.7621L37.6613 53.0176C37.2689 52.6657 36.9607 52.2211 36.7698 51.7151L35.8342 52.068ZM35.0981 50.1164L35.8342 52.068L36.7698 51.7151L36.0338 49.7635L35.0981 50.1164ZM34.9007 47.6226C34.7295 48.4558 34.7979 49.3205 35.0981 50.1164L36.0338 49.7635C35.8003 49.1445 35.7471 48.4719 35.8802 47.8239L34.9007 47.6226ZM35.3602 45.3865L34.9007 47.6226L35.8802 47.8239L36.3397 45.5878L35.3602 45.3865ZM40.6657 41.8827C38.2464 41.4067 35.8584 42.962 35.3602 45.3865L36.3397 45.5878C36.7256 43.7103 38.5827 42.4921 40.4727 42.8639L40.6657 41.8827ZM40.695 38.3024V41.8989H41.695V38.3024H40.695ZM40.4727 42.8639C41.0352 42.9745 41.695 42.5837 41.695 41.8989H40.695C40.695 41.8962 40.6954 41.8924 40.6965 41.8881C40.6976 41.8838 40.6991 41.8802 40.7006 41.8774C40.7034 41.8721 40.705 41.8721 40.7015 41.8747C40.698 41.8773 40.692 41.8804 40.6845 41.8821C40.6774 41.8838 40.6711 41.8837 40.6657 41.8827L40.4727 42.8639ZM38.2495 54.3795C38.2495 53.8843 38.0566 53.3721 37.6613 53.0176L36.9936 53.7621C37.1515 53.9036 37.2495 54.1316 37.2495 54.3795H38.2495ZM42.9837 51.7447C42.6575 52.5902 42.5853 53.5464 42.5853 54.3795H43.5853C43.5853 53.5858 43.6572 52.777 43.9167 52.1047L42.9837 51.7447ZM43.2059 42.7377C43.2059 43.0677 43.1428 43.4245 43.0943 43.8901C43.0503 44.3118 43.021 44.8165 43.163 45.2706L44.1174 44.972C44.0421 44.7311 44.0456 44.4081 44.0889 43.9938C44.1275 43.6234 44.2059 43.1359 44.2059 42.7377H43.2059Z" fill="#D1D1D1"/>
<rect x="37.4355" y="33.1875" width="3.1387" height="19.4497" fill="#0500FF"/>
<rect width="2.47612" height="7.04454" rx="1.23806" transform="matrix(0.396065 -0.918223 0.922865 0.385123 34.5508 43.2246)" fill="white" stroke="#D1D1D1"/>
<rect width="2.47612" height="7.04454" rx="1.23806" transform="matrix(0.396065 -0.918223 0.922865 0.385123 34.1523 45.7402)" fill="white" stroke="#D1D1D1"/>
<rect width="2.47612" height="5.47909" rx="1.23806" transform="matrix(0.396065 -0.918223 0.922865 0.385123 34.0352 48.3711)" fill="white" stroke="#D1D1D1"/>
<rect width="2.47612" height="3.91364" rx="1.23806" transform="matrix(0.396065 -0.918223 0.922865 0.385123 34.0625 51.0703)" fill="white" stroke="#D1D1D1"/>
<path d="M47.2918 27.6308C47.2918 32.3768 43.378 36.2382 38.5326 36.2382C33.6872 36.2382 29.7734 32.3768 29.7734 27.6308C29.7734 22.8849 33.6872 19.0234 38.5326 19.0234C43.378 19.0234 47.2918 22.8849 47.2918 27.6308Z" fill="white" stroke="#0500FF"/>
<path d="M37.2884 31.1561L43.5487 24.9984L42.7719 24.2344L37.3083 29.6084L34.4428 26.7898L33.666 27.5539L36.5315 30.3724L36.5116 30.392L37.2884 31.1561Z" fill="url(#paint3_linear)"/>
<defs>
<linearGradient id="paint0_linear" x1="49.3332" y1="8.41907" x2="2.10461" y2="44.1858" gradientUnits="userSpaceOnUse">
<stop stop-color="#3CE700"/>
<stop offset="0.567708" stop-color="#0BC91E"/>
</linearGradient>
<linearGradient id="paint1_linear" x1="28.4865" y1="18.0448" x2="21.0928" y2="25.9084" gradientUnits="userSpaceOnUse">
<stop stop-color="#3CE700"/>
<stop offset="0.567708" stop-color="#0BC91E"/>
</linearGradient>
<linearGradient id="paint2_linear" x1="52.87" y1="17.8881" x2="45.7051" y2="23.2294" gradientUnits="userSpaceOnUse">
<stop stop-color="#FF6C4B"/>
<stop offset="0.567708" stop-color="#DD0000"/>
</linearGradient>
<linearGradient id="paint3_linear" x1="41.5139" y1="23.7577" x2="34.1201" y2="31.6213" gradientUnits="userSpaceOnUse">
<stop stop-color="#3CE700"/>
<stop offset="0.567708" stop-color="#0BC91E"/>
</linearGradient>
</defs>
</svg>
