<svg width="186" height="186" viewBox="0 0 186 186" fill="none" xmlns="http://www.w3.org/2000/svg">
    <path d="M72.8434 17.7136C72.7132 16.8289 71.4368 16.8289 71.3066 17.7136L71.1756 18.5959C71.126 18.9349 70.8594 19.201 70.5207 19.2511L69.6388 19.3813C68.7537 19.512 68.7537 20.7881 69.6388 20.9188L70.5207 21.0491C70.8594 21.0991 71.126 21.3653 71.1756 21.7042L71.3066 22.5866C71.4368 23.4712 72.7132 23.4712 72.8434 22.5866L72.9736 21.7042C73.024 21.3653 73.2898 21.0991 73.6292 21.0491L74.5112 20.9188C75.3962 20.7881 75.3962 19.512 74.5112 19.3813L73.6292 19.2511C73.2898 19.201 73.024 18.9349 72.9736 18.5959L72.8434 17.7136Z" fill="#C4C4C4"/>
    <path d="M14.4084 145.124C14.2777 144.239 13.0016 144.239 12.871 145.124L12.7407 146.006C12.6906 146.345 12.4245 146.611 12.0855 146.661L11.2032 146.792C10.3185 146.922 10.3185 148.199 11.2032 148.329L12.0855 148.459C12.4245 148.509 12.6906 148.775 12.7407 149.115L12.871 149.997C13.0016 150.882 14.2777 150.882 14.4084 149.997L14.5387 149.115C14.5888 148.775 14.855 148.509 15.1939 148.459L16.0762 148.329C16.9609 148.199 16.9609 146.922 16.0762 146.792L15.1939 146.661C14.855 146.611 14.5888 146.345 14.5387 146.006L14.4084 145.124Z" fill="#C4C4C4"/>
    <path d="M130.194 156.439C130.063 155.554 128.787 155.554 128.656 156.439L128.526 157.321C128.476 157.66 128.21 157.926 127.871 157.976L126.988 158.106C126.104 158.237 126.104 159.513 126.988 159.644L127.871 159.774C128.21 159.825 128.476 160.09 128.526 160.429L128.656 161.312C128.787 162.196 130.063 162.196 130.194 161.312L130.324 160.429C130.374 160.09 130.64 159.825 130.979 159.774L131.862 159.644C132.746 159.513 132.746 158.237 131.862 158.106L130.979 157.976C130.64 157.926 130.374 157.66 130.324 157.321L130.194 156.439Z" fill="#C4C4C4"/>
    <path d="M146.93 8.43495C146.721 7.10795 144.679 7.10795 144.47 8.43495L144.262 9.75842C144.181 10.2668 143.756 10.6661 143.213 10.7412L141.801 10.9366C140.386 11.1326 140.386 13.0467 141.801 13.2427L143.213 13.4383C143.756 13.5133 144.181 13.9126 144.262 14.421L144.47 15.7444C144.679 17.0715 146.721 17.0715 146.93 15.7444L147.138 14.421C147.218 13.9126 147.644 13.5133 148.186 13.4383L149.598 13.2427C151.013 13.0467 151.013 11.1326 149.598 10.9366L148.186 10.7412C147.644 10.6661 147.218 10.2668 147.138 9.75842L146.93 8.43495Z" fill="#C4C4C4"/>
    <path d="M46.4899 169.945C46.2808 168.618 44.2392 168.618 44.0301 169.945L43.8216 171.269C43.7415 171.777 43.3156 172.177 42.7733 172.252L41.3616 172.447C39.9461 172.643 39.9461 174.557 41.3616 174.753L42.7733 174.949C43.3156 175.024 43.7415 175.423 43.8216 175.931L44.0301 177.255C44.2392 178.582 46.2808 178.582 46.4899 177.255L46.6984 175.931C46.7785 175.423 47.2044 175.024 47.7467 174.949L49.1584 174.753C50.5739 174.557 50.5739 172.643 49.1584 172.447L47.7467 172.252C47.2044 172.177 46.7785 171.777 46.6984 171.269L46.4899 169.945Z" fill="#C4C4C4"/>
    <path d="M6.18992 24.2453C5.98086 22.9182 3.93914 22.9182 3.73007 24.2453L3.52156 25.5687C3.44146 26.0771 3.01561 26.4764 2.4733 26.5515L1.06161 26.747C-0.353871 26.943 -0.353869 28.8571 1.06161 29.0531L2.4733 29.2485C3.01561 29.3236 3.44146 29.7229 3.52156 30.2313L3.73007 31.5548C3.93914 32.8818 5.98086 32.8818 6.18992 31.5548L6.39844 30.2313C6.47853 29.7229 6.90438 29.3236 7.4467 29.2485L8.8584 29.0531C10.2739 28.8571 10.2739 26.943 8.8584 26.747L7.4467 26.5515C6.90438 26.4764 6.47853 26.0771 6.39844 25.5687L6.18992 24.2453Z" fill="#C4C4C4"/>
    <path d="M182.269 136.156C182.06 134.828 180.019 134.828 179.809 136.156L179.601 137.479C179.521 137.987 179.095 138.386 178.553 138.461L177.141 138.658C175.726 138.853 175.726 140.767 177.141 140.963L178.553 141.158C179.095 141.234 179.521 141.633 179.601 142.141L179.809 143.465C180.019 144.792 182.06 144.792 182.269 143.465L182.478 142.141C182.558 141.633 182.984 141.234 183.526 141.158L184.937 140.963C186.353 140.767 186.353 138.853 184.937 138.658L183.526 138.461C182.984 138.386 182.558 137.987 182.478 137.479L182.269 136.156Z" fill="#C4C4C4"/>
    <path d="M30.0706 8.67959C29.2146 8.67959 28.5206 7.98563 28.5206 7.12959C28.5206 6.27355 29.2146 5.57959 30.0706 5.57959C30.9266 5.57959 31.6206 6.27355 31.6206 7.12959C31.6206 7.98563 30.9266 8.67959 30.0706 8.67959Z" fill="#C4C4C4"/>
    <path d="M126.171 29.7604C125.315 29.7604 124.621 29.0664 124.621 28.2104C124.621 27.3544 125.315 26.6604 126.171 26.6604C127.027 26.6604 127.721 27.3544 127.721 28.2104C127.721 29.0664 127.027 29.7604 126.171 29.7604Z" fill="#C4C4C4"/>
    <path d="M181.971 34.1C181.115 34.1 180.421 33.406 180.421 32.55C180.421 31.694 181.115 31 181.971 31C182.827 31 183.521 31.694 183.521 32.55C183.521 33.406 182.827 34.1 181.971 34.1Z" fill="#C4C4C4"/>
    <path d="M35.0303 52.2351C33.6606 52.2351 32.5503 51.1248 32.5503 49.7551C32.5503 48.3855 33.6606 47.2751 35.0303 47.2751C36.4 47.2751 37.5103 48.3855 37.5103 49.7551C37.5103 51.1248 36.4 52.2351 35.0303 52.2351Z" fill="#C4C4C4"/>
    <path d="M166.78 171.585C165.41 171.585 164.3 170.475 164.3 169.105C164.3 167.735 165.41 166.625 166.78 166.625C168.15 166.625 169.26 167.735 169.26 169.105C169.26 170.475 168.15 171.585 166.78 171.585Z" fill="#C4C4C4"/>
    <path d="M47.43 115.785C46.0603 115.785 44.95 114.675 44.95 113.305C44.95 111.936 46.0603 110.825 47.43 110.825C48.7996 110.825 49.91 111.936 49.91 113.305C49.91 114.675 48.7996 115.785 47.43 115.785Z" fill="#C4C4C4"/>
    <path d="M5.5803 113.46C4.21064 113.46 3.1003 112.35 3.1003 110.98C3.1003 109.61 4.21064 108.5 5.5803 108.5C6.94997 108.5 8.0603 109.61 8.0603 110.98C8.0603 112.35 6.94997 113.46 5.5803 113.46Z" fill="#C4C4C4"/>
    <path d="M183.83 108.5C182.632 108.5 181.66 107.528 181.66 106.33C181.66 105.131 182.632 104.16 183.83 104.16C185.028 104.16 186 105.131 186 106.33C186 107.528 185.028 108.5 183.83 108.5Z" fill="#C4C4C4"/>
    <path d="M103.23 7.4401C102.032 7.4401 101.06 6.46856 101.06 5.2701C101.06 4.07164 102.032 3.1001 103.23 3.1001C104.428 3.1001 105.4 4.07164 105.4 5.2701C105.4 6.46856 104.428 7.4401 103.23 7.4401Z" fill="#C4C4C4"/>
    <path d="M1.54998 71.9208C0.693934 71.9208 -2.45571e-05 71.2268 -2.45571e-05 70.3708C-2.45571e-05 69.5148 0.693934 68.8208 1.54998 68.8208C2.40602 68.8208 3.09998 69.5148 3.09998 70.3708C3.09998 71.2268 2.40602 71.9208 1.54998 71.9208Z" fill="#C4C4C4"/>
    <path d="M151.9 132.525C151.044 132.525 150.35 131.831 150.35 130.975C150.35 130.119 151.044 129.425 151.9 129.425C152.756 129.425 153.45 130.119 153.45 130.975C153.45 131.831 152.756 132.525 151.9 132.525Z" fill="#C4C4C4"/>
    <path d="M111.6 186C110.744 186 110.05 185.306 110.05 184.45C110.05 183.594 110.744 182.9 111.6 182.9C112.456 182.9 113.15 183.594 113.15 184.45C113.15 185.306 112.456 186 111.6 186Z" fill="#C4C4C4"/>
    <path d="M96.4875 144.925C126.235 144.925 150.35 120.81 150.35 91.0624C150.35 61.315 126.235 37.2 96.4875 37.2C66.7401 37.2 42.625 61.315 42.625 91.0624C42.625 120.81 66.7401 144.925 96.4875 144.925Z" stroke="#D1D1D1" stroke-width="2" stroke-dasharray="3.2 3.2"/>
    <g clip-path="url(#clip0)">
        <path d="M85.7437 109.123C86.0632 105.518 85.9406 103.002 85.9406 99.7075C84.3428 98.851 81.4799 93.3896 80.9962 88.776C79.7398 88.6709 77.7589 87.4186 77.1789 82.4738C76.8659 79.8193 78.1091 78.3255 78.8665 77.8557C76.8221 71.5738 72.5759 52.1396 86.7199 50.1313C88.1754 47.5192 91.9029 46.1975 96.7466 46.1975C116.126 46.562 118.464 61.15 114.215 77.8557C114.971 78.3255 116.214 79.8193 115.903 82.4738C115.321 87.4186 113.342 88.6709 112.086 88.776C111.604 93.3875 108.627 98.851 107.025 99.7075C107.025 103.002 106.905 105.518 107.224 109.123C110.828 119.02 133.889 117.007 137.652 133.581C138.103 135.57 136.799 137.456 134.892 138.065C102.606 148.373 84.6166 148.872 57.8643 138.205C56.1195 137.509 54.9763 135.708 55.3725 133.837C58.9425 116.987 82.122 119.071 85.7437 109.123Z" fill="white" stroke="#0500FF" stroke-width="2" stroke-miterlimit="10" stroke-linecap="round"/>
    </g>
    <g opacity="0.15">
        <path d="M111.578 67.862C111.337 68.5251 110.612 67.3858 109.54 65.6993C107.744 62.8746 104.972 58.5142 101.857 58.5142C98.7844 57.4546 92.3908 54.6766 93.0369 52.903C93.683 51.1293 100.92 52.2812 103.993 53.3408C110.462 54.5525 112.224 66.0883 111.578 67.862Z" fill="#0500FF"/>
        <path d="M101.602 93.0081C101.602 93.4581 99.7053 95.1777 97.2385 95.1777C94.7718 95.1777 92.8992 93.4581 92.8992 93.0081C93.382 93.0081 94.7718 93.0081 97.2385 93.0081C99.7053 93.0081 100.855 93.0081 101.602 93.0081Z" fill="#0500FF"/>
        <path d="M91.4179 79.9652C90.6629 80.3205 89.7155 80.532 88.687 80.532C86.2202 80.532 84.2205 79.3159 84.2205 77.8158C84.2205 76.3156 86.2202 75.0996 88.687 75.0996C89.3083 75.0996 89.9335 75.1383 90.5589 75.1771C91.5028 75.2357 92.4476 75.2942 93.3821 75.2197C94.3597 75.1419 95.4099 75.0996 96.5033 75.0996C97.4382 75.0996 98.3414 75.1306 99.1946 75.1882C99.9936 75.2422 100.798 75.1993 101.602 75.1565C102.136 75.1281 102.671 75.0996 103.203 75.0996C105.67 75.0996 107.669 76.3156 107.669 77.8158C107.669 79.3159 105.67 80.532 103.203 80.532C101.792 80.532 100.534 80.134 99.7153 79.5127C99.5733 79.4048 99.402 79.3427 99.2222 79.355C98.8474 79.3806 98.5638 79.7049 98.5998 80.0686C98.6877 80.9603 98.7365 81.9435 98.7365 82.9765C98.7365 84.2699 98.9074 85.2082 99.0308 85.8862C99.2939 87.3312 99.3417 87.5941 97.0617 87.5941C96.3896 87.5941 96.3993 87.2946 96.455 85.578C96.4758 84.9316 96.5033 84.0844 96.5033 82.9765C96.5033 82.0049 96.4822 81.0773 96.4628 80.2286C96.453 79.7934 96.0879 79.4459 95.6407 79.4366C95.0048 79.4235 94.3869 79.396 93.7933 79.3555C92.9679 79.2994 92.1629 79.6147 91.4179 79.9652Z" fill="#0500FF"/>
        <path d="M92.4297 122.566C91.6746 122.922 89.5883 123.581 88.5599 123.581C86.0931 123.581 86.0913 121.089 86.0913 119.588C86.0913 118.088 85.3698 115.625 87.8366 115.625C88.4579 115.625 90.4386 115.666 92.1759 116.349C92.9372 116.648 93.4111 117.87 94.3457 117.795C95.3231 117.717 93.6225 116.872 97.2385 116.872C101.29 116.872 100.001 117.737 100.855 117.795C101.654 117.849 102.736 116.719 103.748 116.349C105.004 115.889 106.108 115.625 106.64 115.625C109.107 115.625 109.54 118.088 109.54 119.588C109.533 124.304 107.484 123.411 105.194 122.858C103.815 122.525 102.405 121.907 101.586 121.286C100.551 120.5 99.9478 122.213 98.7506 122.305C97.3001 122.416 95.7921 122.858 95.0689 121.411C94.6406 120.555 93.1746 122.216 92.4297 122.566Z" fill="#0500FF"/>
        <path d="M97.9617 126.474C97.3154 126.427 96.5435 126.642 96.5158 127.289C96.4875 127.953 97.2206 128.619 97.9617 128.537C98.6571 128.459 99.2271 127.761 99.1185 127.169C99.0233 126.65 98.4872 126.513 97.9617 126.474Z" fill="#0500FF"/>
        <path d="M98.7505 131.656C98.0301 130.963 96.3305 131.921 96.5158 132.903C96.6832 133.791 98.0016 134.298 98.6849 133.707C98.9414 133.485 99.1304 133.293 99.1184 132.954C99.1065 132.616 99.1304 132.021 98.7505 131.656Z" fill="#0500FF"/>
        <path d="M97.9618 137.546C97.31 137.552 96.7604 138.122 96.8277 138.771C96.8884 139.357 97.3725 139.761 97.9618 139.766C98.5578 139.772 99.0571 139.364 99.1186 138.771C99.1864 138.116 98.6197 137.539 97.9618 137.546Z" fill="#0500FF"/>
    </g>
    <path d="M152.086 55.3238C151.065 54.3029 149.41 54.3029 148.389 55.3238L133.6 70.1128C132.197 71.2527 132.589 73.2134 132.589 73.2134C132.589 73.2134 132.459 73.867 133.861 75.4542L148.65 90.2433C149.671 91.2642 151.326 91.2642 152.347 90.2433L167.137 75.4542C167.965 74.6257 167.883 72.4291 167.883 72.4291C167.883 72.4291 167.884 71.1219 166.875 70.1128L152.086 55.3238Z" fill="#DAD9FF"/>
    <path d="M133.775 70.3069L133.765 70.3152C133.134 70.8276 132.901 71.5286 132.828 72.1217C132.792 72.4174 132.797 72.6807 132.811 72.8697C132.818 72.9638 132.827 73.0389 132.834 73.0896C132.838 73.1147 132.841 73.134 132.843 73.1461C132.844 73.1523 132.845 73.1568 132.845 73.1594L132.846 73.1617L132.846 73.162H132.846L132.846 73.1623L132.856 73.213L132.848 73.254V73.2543C132.847 73.2619 132.847 73.2802 132.851 73.3105C132.857 73.3711 132.879 73.4802 132.943 73.6423C133.071 73.9667 133.368 74.4995 134.052 75.2747L148.835 90.058C149.754 90.9767 151.244 90.9767 152.163 90.058L166.952 75.2689C167.119 75.1016 167.253 74.8511 167.355 74.5479C167.456 74.2475 167.521 73.9136 167.561 73.5976C167.601 73.2823 167.616 72.9913 167.622 72.7785C167.624 72.6723 167.624 72.5863 167.624 72.5272C167.623 72.4977 167.623 72.475 167.623 72.46L167.622 72.4431V72.4391V72.4383L133.775 70.3069ZM133.775 70.3069L133.785 70.2972L148.574 55.5082C149.493 54.5894 150.982 54.5894 151.901 55.5082L166.69 70.2972L166.875 70.1124L166.69 70.2972C167.154 70.7615 167.388 71.2961 167.506 71.7189C167.564 71.9299 167.593 72.111 167.608 72.2381C167.615 72.3016 167.618 72.351 167.62 72.384C167.621 72.4004 167.621 72.4125 167.621 72.42L167.622 72.4279V72.4284L133.775 70.3069ZM133.775 70.3069L167.622 72.4284L133.775 70.3069ZM167.622 72.4284V72.4287V72.4289V72.4292V72.4334L167.622 72.4383L167.622 72.4284Z" stroke="#0500FF" stroke-opacity="0.15" stroke-width="2"/>
    <path d="M166.874 70.1127L152.085 55.3237C151.064 54.3028 149.409 54.3028 148.388 55.3237L133.599 70.1127C132.578 71.1337 132.578 72.789 133.599 73.81L148.388 88.599C149.409 89.6199 151.064 89.6199 152.085 88.599L166.874 73.81C167.895 72.789 167.895 71.1337 166.874 70.1127Z" fill="#DAD9FF"/>
    <path d="M166.689 70.2977L151.9 55.5087C150.981 54.5899 149.491 54.5899 148.572 55.5087L133.783 70.2977C132.865 71.2166 132.865 72.7064 133.783 73.6252L148.572 88.4142C149.491 89.3331 150.981 89.3331 151.9 88.4142L166.689 73.6252C167.608 72.7064 167.608 71.2166 166.689 70.2977Z" stroke="#0500FF" stroke-width="2"/>
    <path opacity="0.15" d="M163.214 70.1125L152.085 58.9836C151.064 57.9627 149.409 57.9627 148.388 58.9836L137.259 70.1125C136.238 71.1335 136.238 72.7888 137.259 73.8098L148.388 84.9387C149.409 85.9597 151.064 85.9597 152.085 84.9387L163.214 73.8098C164.235 72.7888 164.235 71.1335 163.214 70.1125Z" fill="#0500FF"/>
    <defs>
        <clipPath id="clip0">
            <rect width="86.0817" height="102.3" fill="white" transform="translate(53.475 44.95)"/>
        </clipPath>
    </defs>
</svg>
