<svg width="115" height="120" viewBox="0 0 115 120" fill="none" xmlns="http://www.w3.org/2000/svg">
<g clip-path="url(#clip0)">
<circle cx="57.5" cy="60.5" r="57" fill="white" stroke="#D1D1D1"/>
<circle opacity="0.05" cx="58" cy="60" r="37" fill="#0500FF"/>
<circle cx="58" cy="60" r="44.5" stroke="#D1D1D1" stroke-dasharray="4 3"/>
<path d="M43.8516 78H70.7632C70.7632 78 70.7632 104.564 70.7632 114.351C70.7632 124.137 43.8516 123.963 43.8516 114.351C43.8516 104.739 43.8516 78 43.8516 78Z" fill="url(#paint0_linear)"/>
<mask id="mask0" mask-type="alpha" maskUnits="userSpaceOnUse" x="43" y="78" width="28" height="44">
<path d="M43.8516 78H70.7632C70.7632 78 70.7632 104.564 70.7632 114.351C70.7632 124.137 43.8516 123.963 43.8516 114.351C43.8516 104.739 43.8516 78 43.8516 78Z" fill="url(#paint1_linear)"/>
</mask>
<g mask="url(#mask0)">
<path opacity="0.3" d="M43.8516 78H70.7632C70.7632 78 70.7632 104.564 70.7632 114.351C70.7632 124.137 43.8516 123.963 43.8516 114.351C43.8516 104.739 43.8516 78 43.8516 78Z" fill="url(#paint2_linear)"/>
</g>
<path d="M44 81H45.5C45.5 81 45.5 114.585 45.5 116.573C45.5 118.56 44 118.389 44 116.573C44 114.756 44 81 44 81Z" fill="url(#paint3_linear)"/>
<path d="M69 81H70.5C70.5 81 70.5 114.585 70.5 116.573C70.5 118.56 69 118.389 69 116.573C69 114.756 69 81 69 81Z" fill="url(#paint4_linear)"/>
<ellipse cx="33.0781" cy="36.3076" rx="4" ry="4.00001" fill="white"/>
<circle cx="101.31" cy="73.1538" r="6.15385" fill="white"/>
<ellipse cx="88.3104" cy="45.8465" rx="3.38461" ry="3.38461" fill="white"/>
<ellipse cx="24.4627" cy="71.2313" rx="3.38462" ry="3.38462" fill="white"/>
<path d="M53.0764 16.5011C53.1897 16.3392 53.2882 16.1775 53.3789 16.002V16.002C54.8987 13.0633 59.1013 13.0633 60.6211 16.002V16.002C60.7118 16.1775 60.8103 16.3392 60.9236 16.5011C62.3959 18.6066 73.184 34.4311 74.4207 47.7891C74.9862 53.8963 75.061 61.5198 74.9645 68.1945C74.8403 76.7837 67.2406 83.1757 58.7066 82.1959V82.1959C57.5726 82.0657 56.4274 82.0657 55.2934 82.1959V82.1959C46.7594 83.1757 39.1597 76.7837 39.0355 68.1945C38.939 61.5198 39.0138 53.8963 39.5793 47.7891C40.816 34.4311 51.6041 18.6066 53.0764 16.5011Z" fill="white"/>
<path opacity="0.15" d="M56.847 25.7979C60.7578 25.8047 64.1586 28.3994 65.5955 32.0366C67.6305 37.1877 68.8844 42.654 69.2811 48.1721C69.6448 53.2299 70.0823 59.111 70.4775 64.3631C71.0658 72.1806 64.8853 78.8529 57.0457 78.8529V78.8529C49.2061 78.8529 43.0256 72.1806 43.6139 64.3631C44.0092 59.111 44.4467 53.2299 44.8103 48.1721C45.2142 42.5544 46.5065 36.9904 48.6069 31.7579C49.999 28.2901 53.1102 25.7914 56.847 25.7979V25.7979Z" fill="#0500FF"/>
<mask id="path-15-inside-1" fill="white">
<path fill-rule="evenodd" clip-rule="evenodd" d="M54.1698 82.7605H50.2873C45.3205 82.7605 41.0594 79.603 39.5763 75.1329C37.2754 75.2119 31.2305 84.467 28.2234 89.3072C27.7293 90.1025 26.4727 89.754 26.4727 88.8177L26.4727 75.1752C26.4726 68.0227 35.2682 60.6649 38.9268 57.9137C38.9965 54.178 39.1602 50.4941 39.4695 47.2472C40.7174 34.1436 51.6054 18.6199 53.0868 16.5607C53.2003 16.4029 53.2998 16.2453 53.3922 16.0744C54.9616 13.1718 59.1264 13.1718 60.6957 16.0744C60.7882 16.2453 60.8877 16.4029 61.0012 16.5607C62.4825 18.6199 73.3705 34.1436 74.6185 47.2472C74.9277 50.4941 75.0915 54.178 75.1611 57.9137C78.8198 60.6649 87.6153 68.0227 87.6153 75.1752L87.6153 88.8177C87.6153 89.754 86.3587 90.1025 85.8645 89.3072C82.8574 84.467 76.8125 75.2119 74.5116 75.1329C73.0285 79.603 68.7675 82.7605 63.8006 82.7605H59.9181C59.1439 85.3057 58.428 87.5962 57.9043 89.2544C57.6357 90.1051 56.4523 90.1051 56.1836 89.2544C55.6599 87.5962 54.944 85.3057 54.1698 82.7605ZM53.683 81.1515H50.2873C45.0511 81.1515 40.7726 77.088 40.6297 71.9135C40.4254 64.5099 40.3681 54.7824 41.0712 47.3998C41.6647 41.1687 44.5776 34.2385 47.6121 28.5161C50.6284 22.8282 53.6755 18.4976 54.3929 17.5003C54.5442 17.29 54.6807 17.0744 54.8076 16.8396C55.7687 15.0621 58.3192 15.0621 59.2803 16.8396C59.4072 17.0744 59.5437 17.29 59.695 17.5003C60.4124 18.4976 63.4595 22.8282 66.4758 28.5161C69.5104 34.2385 72.4233 41.1687 73.0167 47.3998C73.7198 54.7824 73.6626 64.5099 73.4582 71.9135C73.3153 77.088 69.0368 81.1515 63.8006 81.1515H60.405C62.5228 74.1124 64.8592 65.8123 64.8592 63.4523C64.8592 59.1361 61.3602 55.6371 57.044 55.6371C52.7277 55.6371 49.2287 59.1361 49.2287 63.4523C49.2287 65.8123 51.5651 74.1124 53.683 81.1515Z"/>
</mask>
<path fill-rule="evenodd" clip-rule="evenodd" d="M54.1698 82.7605H50.2873C45.3205 82.7605 41.0594 79.603 39.5763 75.1329C37.2754 75.2119 31.2305 84.467 28.2234 89.3072C27.7293 90.1025 26.4727 89.754 26.4727 88.8177L26.4727 75.1752C26.4726 68.0227 35.2682 60.6649 38.9268 57.9137C38.9965 54.178 39.1602 50.4941 39.4695 47.2472C40.7174 34.1436 51.6054 18.6199 53.0868 16.5607C53.2003 16.4029 53.2998 16.2453 53.3922 16.0744C54.9616 13.1718 59.1264 13.1718 60.6957 16.0744C60.7882 16.2453 60.8877 16.4029 61.0012 16.5607C62.4825 18.6199 73.3705 34.1436 74.6185 47.2472C74.9277 50.4941 75.0915 54.178 75.1611 57.9137C78.8198 60.6649 87.6153 68.0227 87.6153 75.1752L87.6153 88.8177C87.6153 89.754 86.3587 90.1025 85.8645 89.3072C82.8574 84.467 76.8125 75.2119 74.5116 75.1329C73.0285 79.603 68.7675 82.7605 63.8006 82.7605H59.9181C59.1439 85.3057 58.428 87.5962 57.9043 89.2544C57.6357 90.1051 56.4523 90.1051 56.1836 89.2544C55.6599 87.5962 54.944 85.3057 54.1698 82.7605ZM53.683 81.1515H50.2873C45.0511 81.1515 40.7726 77.088 40.6297 71.9135C40.4254 64.5099 40.3681 54.7824 41.0712 47.3998C41.6647 41.1687 44.5776 34.2385 47.6121 28.5161C50.6284 22.8282 53.6755 18.4976 54.3929 17.5003C54.5442 17.29 54.6807 17.0744 54.8076 16.8396C55.7687 15.0621 58.3192 15.0621 59.2803 16.8396C59.4072 17.0744 59.5437 17.29 59.695 17.5003C60.4124 18.4976 63.4595 22.8282 66.4758 28.5161C69.5104 34.2385 72.4233 41.1687 73.0167 47.3998C73.7198 54.7824 73.6626 64.5099 73.4582 71.9135C73.3153 77.088 69.0368 81.1515 63.8006 81.1515H60.405C62.5228 74.1124 64.8592 65.8123 64.8592 63.4523C64.8592 59.1361 61.3602 55.6371 57.044 55.6371C52.7277 55.6371 49.2287 59.1361 49.2287 63.4523C49.2287 65.8123 51.5651 74.1124 53.683 81.1515Z" fill="white" stroke="#0500FF" stroke-width="2" mask="url(#path-15-inside-1)"/>
<path d="M63.6692 36.5583C63.6692 40.2175 60.7028 43.1839 57.0436 43.1839C53.3844 43.1839 50.418 40.2175 50.418 36.5583C50.418 32.899 53.3844 29.9326 57.0436 29.9326C60.7028 29.9326 63.6692 32.899 63.6692 36.5583Z" fill="white" stroke="#0500FF"/>
<path d="M49.2305 23.6867C55.2449 22.7961 58.6167 22.7387 64.6311 23.6867" stroke="#0500FF"/>
<path d="M52.9062 48.5117C56.3141 49.3831 58.1042 49.2755 61.1811 48.5117" stroke="#0500FF" stroke-linecap="round"/>
<ellipse cx="14.3846" cy="66.3846" rx="3.38461" ry="3.38462" fill="white"/>
<ellipse cx="43.6932" cy="19.077" rx="3.38461" ry="3.38462" fill="white"/>
<ellipse cx="35.3846" cy="22.4618" rx="3.38461" ry="3.38462" fill="white"/>
<ellipse cx="21.0799" cy="84.6151" rx="3.38462" ry="3.38461" fill="white"/>
<path d="M32.505 34.4939C32.6022 33.8354 33.5522 33.8354 33.6494 34.4939L33.7465 35.1507C33.7837 35.403 33.9818 35.6012 34.2342 35.6384L34.891 35.7355C35.5495 35.8327 35.5495 36.7827 34.891 36.8799L34.2342 36.9769C33.9818 37.0142 33.7837 37.2123 33.7465 37.4647L33.6494 38.1215C33.5522 38.78 32.6022 38.78 32.505 38.1215L32.408 37.4647C32.3707 37.2123 32.1726 37.0142 31.9203 36.9769L31.2635 36.8799C30.6049 36.7827 30.6049 35.8327 31.2635 35.7355L31.9203 35.6384C32.1726 35.6012 32.3707 35.403 32.408 35.1507L32.505 34.4939Z" fill="#C4C4C4"/>
<path d="M100.398 70.2589C100.554 69.208 102.069 69.208 102.225 70.2589L102.379 71.307C102.439 71.7097 102.755 72.0258 103.158 72.0853L104.206 72.2401C105.257 72.3953 105.257 73.9112 104.206 74.0665L103.158 74.2213C102.755 74.2807 102.439 74.5969 102.379 74.9996L102.225 76.0477C102.069 77.0986 100.554 77.0986 100.398 76.0477L100.244 74.9996C100.184 74.5969 99.8679 74.2807 99.4652 74.2213L98.4171 74.0665C97.3662 73.9112 97.3662 72.3953 98.4171 72.2401L99.4652 72.0853C99.8679 72.0258 100.184 71.7097 100.244 71.307L100.398 70.2589Z" fill="#C4C4C4"/>
<path d="M2.76942 97.7208C2.92465 96.6699 4.44054 96.6699 4.59576 97.7208L4.75057 98.7689C4.81005 99.1716 5.12622 99.4878 5.52887 99.5472L6.57699 99.702C7.62792 99.8573 7.62792 101.373 6.57699 101.528L5.52887 101.683C5.12622 101.743 4.81005 102.059 4.75057 102.461L4.59576 103.51C4.44054 104.561 2.92465 104.561 2.76942 103.51L2.61461 102.461C2.55514 102.059 2.23897 101.743 1.83632 101.683L0.7882 101.528C-0.262734 101.373 -0.262733 99.8573 0.788201 99.702L1.83632 99.5472C2.23897 99.4878 2.55514 99.1716 2.61461 98.7689L2.76942 97.7208Z" fill="#C4C4C4"/>
<path d="M6.96593 5.41678C7.0632 4.75821 8.01313 4.75821 8.1104 5.41678L8.20741 6.07358C8.24468 6.3259 8.44281 6.52403 8.69513 6.56129L9.35193 6.65831C10.0105 6.75558 10.0105 7.70551 9.35193 7.80278L8.69513 7.89979C8.44281 7.93706 8.24468 8.13519 8.20741 8.3875L8.1104 9.04431C8.01313 9.70287 7.0632 9.70287 6.96593 9.04431L6.86891 8.3875C6.83165 8.13519 6.63352 7.93706 6.3812 7.89979L5.72439 7.80278C5.06583 7.70551 5.06583 6.75558 5.72439 6.65831L6.3812 6.56129C6.63352 6.52403 6.83165 6.3259 6.86891 6.07358L6.96593 5.41678Z" fill="#C4C4C4"/>
<ellipse cx="32.155" cy="14.615" rx="1.07692" ry="1.07692" fill="#C4C4C4"/>
<ellipse cx="14.3855" cy="66.3845" rx="1.07693" ry="1.07692" fill="#C4C4C4"/>
<ellipse cx="113.234" cy="28.0769" rx="1.76923" ry="1.76924" fill="#C4C4C4"/>
<ellipse cx="7.76923" cy="46.7692" rx="1.76923" ry="1.76923" fill="#C4C4C4"/>
<circle cx="94.5418" cy="54.8455" r="1.07692" fill="#C4C4C4"/>
<path d="M87.9219 21.7373L89.1526 21.725C89.1526 21.725 89.1657 22.1555 89.1643 22.4314C89.1629 22.7035 89.1458 23.1278 89.1458 23.1278L87.9357 23.1219L87.9219 21.7373Z" fill="white"/>
<path d="M87.9219 24.166L89.1526 24.1537C89.1526 24.1537 89.1657 24.5842 89.1643 24.8601C89.1629 25.1322 89.1458 25.5565 89.1458 25.5565L87.9357 25.5506L87.9219 24.166Z" fill="white"/>
<ellipse cx="98.0016" cy="15" rx="12.4918" ry="12.4918" transform="rotate(-30 98.0016 15)" fill="white" stroke="url(#paint5_linear)"/>
<path d="M98.1121 10.584L100.297 12.9295L102.642 15.1141L100.297 17.2987L98.1121 19.6442L95.9275 17.2987L93.582 15.1141L95.9275 12.9295L98.1121 10.584Z" fill="url(#paint6_linear)"/>
</g>
<defs>
<linearGradient id="paint0_linear" x1="57.3074" y1="78" x2="57.3074" y2="121.625" gradientUnits="userSpaceOnUse">
<stop offset="0.817791" stop-color="white"/>
<stop offset="0.963488" stop-color="white" stop-opacity="0"/>
</linearGradient>
<linearGradient id="paint1_linear" x1="57.3074" y1="78" x2="57.3074" y2="121.625" gradientUnits="userSpaceOnUse">
<stop offset="0.817791" stop-color="white"/>
<stop offset="0.963488" stop-color="white" stop-opacity="0"/>
</linearGradient>
<linearGradient id="paint2_linear" x1="65.2222" y1="74.9958" x2="29.7945" y2="91.2753" gradientUnits="userSpaceOnUse">
<stop stop-color="#3CE700"/>
<stop offset="0.567708" stop-color="#0BC91E"/>
</linearGradient>
<linearGradient id="paint3_linear" x1="45.1912" y1="78.452" x2="42.8017" y2="78.5242" gradientUnits="userSpaceOnUse">
<stop stop-color="#3CE700"/>
<stop offset="0.567708" stop-color="#0BC91E"/>
</linearGradient>
<linearGradient id="paint4_linear" x1="70.1912" y1="78.452" x2="67.8017" y2="78.5242" gradientUnits="userSpaceOnUse">
<stop stop-color="#3CE700"/>
<stop offset="0.567708" stop-color="#0BC91E"/>
</linearGradient>
<linearGradient id="paint5_linear" x1="105.349" y1="0.787811" x2="79.7304" y2="19.8712" gradientUnits="userSpaceOnUse">
<stop stop-color="#EAED4F"/>
<stop offset="0.567708" stop-color="#C4B000"/>
</linearGradient>
<linearGradient id="paint6_linear" x1="100.777" y1="9.96006" x2="91.4861" y2="16.8806" gradientUnits="userSpaceOnUse">
<stop stop-color="#EAED4F"/>
<stop offset="0.567708" stop-color="#C4B000"/>
</linearGradient>
<clipPath id="clip0">
<rect width="115" height="120" fill="white"/>
</clipPath>
</defs>
</svg>
