<svg width="115" height="120" viewBox="0 0 115 120" fill="none" xmlns="http://www.w3.org/2000/svg">
<g clip-path="url(#clip0)">
<path d="M8.34277 55.6294C8.242 56.6256 8.17083 57.6306 8.13014 58.6434L8.62974 58.6634C8.60312 59.326 8.58968 59.992 8.58968 60.6612C8.58968 61.3304 8.60312 61.9964 8.62974 62.659L8.13014 62.6791C8.17083 63.6918 8.242 64.6968 8.34277 65.693L8.84023 65.6427C8.97517 66.9768 9.16373 68.295 9.40369 69.5951L8.912 69.6858C9.09573 70.6813 9.3093 71.6662 9.55175 72.6398L10.0369 72.5189C10.3601 73.8166 10.7351 75.0938 11.1596 76.3481L10.686 76.5084C11.01 77.466 11.3627 78.4104 11.7429 79.3407L12.2057 79.1515C12.7106 80.387 13.2647 81.5973 13.8654 82.7798L13.4196 83.0063C13.8769 83.9066 14.361 84.791 14.8709 85.6585L15.3019 85.4051C15.9772 86.5542 16.6981 87.6732 17.4622 88.7598L17.0532 89.0474C17.6335 89.8727 18.2384 90.6793 18.8669 91.4664L19.2576 91.1544C20.0883 92.1947 20.9606 93.2004 21.8719 94.1689L21.5078 94.5116C22.1985 95.2457 22.9115 95.9587 23.6457 96.6495L23.9883 96.2853C24.9568 97.1967 25.9625 98.0689 27.0028 98.8996L26.6908 99.2903C27.4779 99.9188 28.2846 100.524 29.1098 101.104L29.3974 100.695C30.484 101.459 31.603 102.18 32.7521 102.855L32.4987 103.286C33.3662 103.796 34.2506 104.28 35.151 104.738L35.3774 104.292C36.56 104.893 37.7702 105.447 39.0057 105.952L38.8166 106.414C39.7468 106.795 40.6912 107.147 41.6488 107.471L41.8091 106.998C43.0634 107.422 44.3406 107.797 45.6383 108.12L45.5175 108.605C46.491 108.848 47.476 109.062 48.4714 109.245L48.5621 108.754C49.8623 108.994 51.1805 109.182 52.5146 109.317L52.4642 109.814C53.4604 109.915 54.4654 109.986 55.4782 110.027L55.4982 109.527C56.1608 109.554 56.8268 109.568 57.496 109.568C58.1652 109.568 58.8312 109.554 59.4938 109.527L59.5139 110.027C60.5266 109.986 61.5316 109.915 62.5278 109.814L62.4775 109.317C63.8116 109.182 65.1298 108.994 66.4299 108.754L66.5206 109.245C67.5161 109.062 68.501 108.848 69.4746 108.605L69.3537 108.12C70.6514 107.797 71.9286 107.422 73.1829 106.998L73.3432 107.471C74.3008 107.147 75.2452 106.795 76.1754 106.414L75.9863 105.952C77.2218 105.447 78.432 104.893 79.6146 104.292L79.8411 104.738C80.7414 104.28 81.6258 103.796 82.4933 103.286L82.2399 102.855C83.389 102.18 84.508 101.459 85.5946 100.695L85.8822 101.104C86.7074 100.524 87.5141 99.9188 88.3012 99.2903L87.9892 98.8996C89.0295 98.0689 90.0352 97.1967 91.0037 96.2853L91.3463 96.6495C92.0805 95.9587 92.7935 95.2457 93.4843 94.5116L93.1201 94.1689C94.0315 93.2004 94.9037 92.1947 95.7344 91.1544L96.1251 91.4664C96.7536 90.6794 97.3585 89.8727 97.9388 89.0474L97.5298 88.7598C98.2939 87.6732 99.0148 86.5542 99.6901 85.4052L100.121 85.6585C100.631 84.791 101.115 83.9066 101.572 83.0063L101.127 82.7798C101.727 81.5973 102.281 80.387 102.786 79.1515L103.249 79.3406C103.629 78.4104 103.982 77.466 104.306 76.5084L103.832 76.3481C104.257 75.0938 104.632 73.8166 104.955 72.5189L105.44 72.6398C105.683 71.6662 105.896 70.6813 106.08 69.6858L105.588 69.5951C105.828 68.295 106.017 66.9768 106.152 65.6427L106.649 65.693C106.75 64.6968 106.821 63.6919 106.862 62.6791L106.362 62.659C106.389 61.9964 106.402 61.3304 106.402 60.6612C106.402 59.992 106.389 59.326 106.362 58.6634L106.862 58.6434C106.821 57.6306 106.75 56.6256 106.649 55.6294L106.152 55.6798C106.017 54.3457 105.828 53.0275 105.588 51.7274L106.08 51.6366C105.896 50.6412 105.683 49.6562 105.44 48.6827L104.955 48.8035C104.632 47.5058 104.257 46.2286 103.832 44.9743L104.306 44.814C103.982 43.8564 103.629 42.912 103.249 41.9818L102.786 42.1709C102.281 40.9354 101.727 39.7252 101.127 38.5426L101.572 38.3162C101.115 37.4158 100.631 36.5314 100.121 35.6639L99.6901 35.9173C99.0148 34.7682 98.2939 33.6492 97.5298 32.5626L97.9388 32.275C97.3585 31.4498 96.7536 30.6431 96.1251 29.856L95.7344 30.168C94.9037 29.1277 94.0315 28.122 93.1201 27.1535L93.4843 26.8109C92.7935 26.0767 92.0805 25.3637 91.3464 24.673L91.0037 25.0371C90.0352 24.1258 89.0295 23.2535 87.9892 22.4228L88.3012 22.0321C87.5141 21.4036 86.7075 20.7987 85.8822 20.2184L85.5946 20.6274C84.508 19.8633 83.389 19.1424 82.2399 18.4671L82.4933 18.0361C81.6258 17.5262 80.7414 17.0421 79.8411 16.5848L79.6146 17.0306C78.432 16.4299 77.2218 15.8758 75.9863 15.3709L76.1754 14.9081C75.2452 14.5279 74.3008 14.1752 73.3432 13.8512L73.1829 14.3248C71.9286 13.9003 70.6514 13.5253 69.3537 13.2021L69.4746 12.7169C68.501 12.4745 67.5161 12.2609 66.5206 12.0772L66.4299 12.5689C65.1298 12.3289 63.8116 12.1404 62.4775 12.0054L62.5278 11.508C61.5316 11.4072 60.5266 11.336 59.5139 11.2953L59.4938 11.7949C58.8312 11.7683 58.1652 11.7549 57.496 11.7549C56.8268 11.7549 56.1608 11.7683 55.4982 11.7949L55.4782 11.2953C54.4654 11.336 53.4604 11.4072 52.4642 11.508L52.5146 12.0054C51.1805 12.1404 49.8623 12.3289 48.5621 12.5689L48.4714 12.0772C47.476 12.2609 46.491 12.4745 45.5175 12.7169L45.6383 13.2021C44.3406 13.5253 43.0635 13.9003 41.8091 14.3248L41.6488 13.8512C40.6912 14.1752 39.7468 14.5279 38.8166 14.9081L39.0057 15.3709C37.7702 15.8758 36.56 16.4299 35.3774 17.0306L35.151 16.5848C34.2506 17.0421 33.3662 17.5262 32.4987 18.0361L32.7521 18.4671C31.603 19.1424 30.484 19.8633 29.3974 20.6274L29.1098 20.2184C28.2846 20.7987 27.4779 21.4036 26.6908 22.0321L27.0028 22.4228C25.9625 23.2535 24.9568 24.1258 23.9883 25.0371L23.6457 24.673C22.9115 25.3637 22.1985 26.0767 21.5078 26.8109L21.8719 27.1535C20.9606 28.122 20.0883 29.1277 19.2576 30.168L18.8669 29.856C18.2384 30.6431 17.6335 31.4498 17.0532 32.275L17.4622 32.5626C16.6982 33.6492 15.9772 34.7682 15.3019 35.9173L14.8709 35.6639C14.361 36.5314 13.8769 37.4158 13.4196 38.3162L13.8654 38.5426C13.2647 39.7252 12.7106 40.9354 12.2057 42.1709L11.7429 41.9818C11.3627 42.912 11.01 43.8564 10.686 44.814L11.1596 44.9743C10.7351 46.2287 10.3601 47.5058 10.0369 48.8035L9.55175 48.6827C9.3093 49.6562 9.09573 50.6412 8.912 51.6366L9.40369 51.7273C9.16373 53.0275 8.97517 54.3457 8.84023 55.6798L8.34277 55.6294Z" fill="white" stroke="#D1D1D1" stroke-dasharray="4 3"/>
<circle opacity="0.05" r="32.5" transform="matrix(-1 0 0 1 57.5 60.499)" fill="#0500FF"/>
<ellipse rx="4.49933" ry="4.49936" transform="matrix(-1 0 0 1 84.4069 33.7513)" fill="white"/>
<ellipse rx="6.92208" ry="6.92207" transform="matrix(-1 0 0 1 32.9217 17.9221)" fill="white"/>
<ellipse rx="3.80715" ry="3.80714" transform="matrix(-1 0 0 1 22.2788 44.481)" fill="white"/>
<circle r="3.80714" transform="matrix(-1 0 0 1 94.0991 73.0347)" fill="white"/>
<ellipse cx="80.9409" cy="24.1477" rx="7.96039" ry="8.21996" fill="white"/>
<circle cx="85.25" cy="19.7695" r="10.75" fill="white" stroke="url(#paint0_linear)"/>
<path d="M28.2393 39.5556C28.1299 38.8148 27.0614 38.8148 26.952 39.5556L26.8428 40.2944C26.8009 40.5782 26.578 40.8011 26.2942 40.843L25.5554 40.9521C24.8147 41.0615 24.8147 42.13 25.5554 42.2395L26.2942 42.3486C26.578 42.3905 26.8009 42.6134 26.8428 42.8972L26.952 43.636C27.0614 44.3768 28.1299 44.3768 28.2393 43.636L28.3484 42.8972C28.3903 42.6134 28.6132 42.3905 28.897 42.3486L29.6358 42.2395C30.3766 42.13 30.3766 41.0615 29.6358 40.9521L28.897 40.843C28.6132 40.8011 28.3903 40.5782 28.3484 40.2944L28.2393 39.5556Z" fill="#C4C4C4"/>
<path d="M33.9468 14.6659C33.7722 13.4838 32.0671 13.4838 31.8925 14.6659L31.7184 15.8449C31.6515 16.2978 31.2958 16.6534 30.8429 16.7203L29.6639 16.8944C28.4818 17.0691 28.4818 18.7742 29.6639 18.9488L30.8429 19.1229C31.2958 19.1898 31.6515 19.5455 31.7184 19.9984L31.8925 21.1773C32.0671 22.3595 33.7722 22.3595 33.9468 21.1773L34.121 19.9984C34.1879 19.5455 34.5435 19.1898 34.9964 19.1229L36.1754 18.9488C37.3575 18.7742 37.3575 17.0691 36.1754 16.8944L34.9964 16.7203C34.5435 16.6534 34.1879 16.2978 34.121 15.8449L33.9468 14.6659Z" fill="#C4C4C4"/>
<path d="M113.239 2.55559C113.13 1.8148 112.061 1.81481 111.952 2.55559L111.843 3.29438C111.801 3.5782 111.578 3.80107 111.294 3.84299L110.555 3.95211C109.815 4.06152 109.815 5.13004 110.555 5.23946L111.294 5.34858C111.578 5.3905 111.801 5.61336 111.843 5.89718L111.952 6.63598C112.061 7.37676 113.13 7.37676 113.239 6.63598L113.348 5.89718C113.39 5.61336 113.613 5.3905 113.897 5.34858L114.636 5.23946C115.377 5.13004 115.377 4.06152 114.636 3.95211L113.897 3.84299C113.613 3.80107 113.39 3.5782 113.348 3.29438L113.239 2.55559Z" fill="#C4C4C4"/>
<ellipse rx="1.21133" ry="1.21136" transform="matrix(-1 0 0 1 58.2105 1.21136)" fill="#C4C4C4"/>
<circle r="1.9901" transform="matrix(-1 0 0 1 108.99 103.99)" fill="#C4C4C4"/>
<ellipse rx="1.9901" ry="1.99011" transform="matrix(-1 0 0 1 4.99037 112.99)" fill="#C4C4C4"/>
<ellipse rx="1.21136" ry="1.21136" transform="matrix(-1 0 0 1 7.21051 10.2114)" fill="#C4C4C4"/>
<path d="M84.8262 23L91 17.1109L89.8354 16L84.7647 20.8625L82.0199 18.8243L81 19.9647L84.8262 23Z" fill="url(#paint1_linear)"/>
<path d="M94.6172 54.9062L95.985 54.6925C95.985 54.6925 96.0696 55.1695 96.1129 55.4768C96.1555 55.7798 96.2054 56.2549 96.2054 56.2549L94.8577 56.445L94.6172 54.9062Z" fill="white"/>
<mask id="path-18-inside-1" fill="white">
<path d="M36.531 55.7285C48.4983 52.6443 56.2868 56.7157 65.0765 65.5002C70.9464 71.3667 70.1797 80.3045 75.0644 85.6256C79.6479 90.6185 84.411 93.8032 90.3639 90.0703C95.4509 86.8803 94.3137 76.0581 96.195 76.7473C98.0763 77.4366 97.9762 82.0256 100.932 84.3677C103.439 86.3536 107.431 85.8838 108.568 87.8996C109.137 88.9075 98.1705 91.8214 96.5335 95.3021C84.3764 121.152 68.5502 120.302 50.5622 117.613C35.8208 115.41 19.8399 100.365 14.8986 95.3852C14.1363 94.6169 14.423 93.3527 15.425 92.9432V92.9432C16.1478 92.6478 16.5346 91.8605 16.3543 91.1008C15.6715 88.2229 15.4612 85.993 15.8309 83.67C16.3643 80.3185 14.1254 76.7403 14.8964 73.4353V73.4353C17.7796 61.0776 26.4148 58.3356 36.531 55.7285Z"/>
</mask>
<path d="M36.531 55.7285C48.4983 52.6443 56.2868 56.7157 65.0765 65.5002C70.9464 71.3667 70.1797 80.3045 75.0644 85.6256C79.6479 90.6185 84.411 93.8032 90.3639 90.0703C95.4509 86.8803 94.3137 76.0581 96.195 76.7473C98.0763 77.4366 97.9762 82.0256 100.932 84.3677C103.439 86.3536 107.431 85.8838 108.568 87.8996C109.137 88.9075 98.1705 91.8214 96.5335 95.3021C84.3764 121.152 68.5502 120.302 50.5622 117.613C35.8208 115.41 19.8399 100.365 14.8986 95.3852C14.1363 94.6169 14.423 93.3527 15.425 92.9432V92.9432C16.1478 92.6478 16.5346 91.8605 16.3543 91.1008C15.6715 88.2229 15.4612 85.993 15.8309 83.67C16.3643 80.3185 14.1254 76.7403 14.8964 73.4353V73.4353C17.7796 61.0776 26.4148 58.3356 36.531 55.7285Z" fill="white" stroke="#0500FF" stroke-width="2" mask="url(#path-18-inside-1)"/>
<path opacity="0.15" d="M39.9995 60.4475C49.8755 58.8503 57.892 62.2668 64.3152 70.0103C68.6047 75.1815 68.8976 82.8871 72.4341 87.5448C75.7526 91.9154 80.1005 94.7187 85.7909 94.6634C91.7926 94.605 95.6952 87.6391 95.6952 87.6391C95.6952 87.6391 96.1204 83.42 98.3266 85.5302C100.197 87.3195 102.886 88.055 101.228 88.93C97.1413 91.0872 94.8377 94.607 92.9965 97.1225C79.8647 115.063 67.2958 115.162 51.7966 112.866V112.866C42.3032 111.46 47.0823 95.5888 51.607 87.1254C52.1265 86.1536 52.6345 85.115 53.1374 84.0081C53.9112 82.3052 53.9945 80.1288 52.1772 79.6861C47.0047 78.426 33.7153 81.563 27.4891 78.2914C27.3775 78.2327 27.2724 78.1713 27.1688 78.0996C26.5387 77.663 24.2461 75.8674 24.8624 73.2256C27.1992 63.2096 31.6513 61.7977 39.9995 60.4475Z" fill="#0500FF"/>
<ellipse rx="1.79926" ry="2.08334" transform="matrix(0.973847 0.227205 -0.227211 0.973845 42.7124 77.9816)" fill="#0500FF"/>
<path d="M15.477 75.0619C15.2801 74.8683 14.9635 74.871 14.7699 75.0679C14.5763 75.2648 14.579 75.5814 14.7759 75.775L15.477 75.0619ZM14.7487 93.7809C14.5704 93.9917 14.5967 94.3072 14.8075 94.4856C15.0183 94.6639 15.3338 94.6376 15.5122 94.4268L14.7487 93.7809ZM14.7759 75.775C25.2093 86.0342 36.866 84.4029 44.2443 82.6919C46.1133 82.2585 47.6444 81.8367 48.8845 81.5771C49.4962 81.449 50.0005 81.3691 50.4006 81.3503C50.8139 81.3309 51.0441 81.3814 51.16 81.4458C51.2288 81.484 51.2873 81.5376 51.2984 81.726C51.3115 81.9516 51.246 82.3151 51.0324 82.8706C50.6086 83.9726 49.687 85.6224 48.1541 88.0242L48.9971 88.5622C50.5297 86.1608 51.502 84.4354 51.9657 83.2295C52.1959 82.631 52.3224 82.1074 52.2966 81.6676C52.2687 81.1905 52.0574 80.8005 51.6458 80.5717C51.2814 80.3692 50.8209 80.3294 50.3537 80.3514C49.8733 80.3739 49.3073 80.4669 48.6796 80.5983C47.4409 80.8576 45.8165 81.3007 44.0183 81.7177C36.728 83.4084 25.5292 84.9462 15.477 75.0619L14.7759 75.775ZM48.1541 88.0242C45.1376 92.7508 41.9759 94.9836 38.8742 95.8425C35.7589 96.7053 32.6233 96.2056 29.6137 95.3052C28.1093 94.8551 26.6524 94.3102 25.2489 93.7928C23.8535 93.2784 22.5046 92.7887 21.2485 92.4669C18.7478 91.8262 16.421 91.804 14.7487 93.7809L15.5122 94.4268C16.7939 92.9115 18.5921 92.8186 21.0003 93.4356C22.1987 93.7426 23.5002 94.214 24.903 94.7311C26.2976 95.2452 27.7865 95.8024 29.3271 96.2633C32.4075 97.1849 35.7591 97.7429 39.1411 96.8063C42.5368 95.8659 45.8827 93.4421 48.9971 88.5622L48.1541 88.0242Z" fill="#0500FF"/>
<path d="M47.7578 108.057C49.6406 107.498 50.5846 107.256 51.2389 106.861C53.0044 105.794 54.7313 104.378 56.5323 105.383C57.3434 105.836 58.1005 106.374 58.8402 106.964C60.6536 108.411 63.2899 107.795 64.2703 105.693V105.693C65.5532 102.942 63.3131 98.7801 60.2807 98.647C60.1635 98.6418 60.0462 98.6359 59.9287 98.6291C57.7875 98.5061 56.688 96.1266 58.2093 94.6148C58.9886 93.8403 59.1714 93.5828 58.538 91.0263" stroke="#0500FF" stroke-linecap="round" stroke-linejoin="round"/>
<path d="M87.1254 43.6276L81.5186 46.9378L82.1588 48.0718L87.7656 44.7616L87.1254 43.6276Z" fill="url(#paint2_linear)"/>
<path d="M84.9887 40.1374L78.8835 43.7418L79.5237 44.8758L85.6289 41.2713L84.9887 40.1374Z" fill="url(#paint3_linear)"/>
<path d="M74.7845 41.4101L82.1309 37.0728L82.7711 38.2067L75.4247 42.544L74.7845 41.4101Z" fill="url(#paint4_linear)"/>
<path d="M70 39.483L79.287 34L79.9272 35.1339L70.6402 40.6169L70 39.483Z" fill="url(#paint5_linear)"/>
<path d="M82.0728 60.866L91.3598 55.3831L92 56.517L82.713 62L82.0728 60.866Z" fill="url(#paint6_linear)"/>
<path d="M90.1794 51.3281L82.833 55.6654L83.4732 56.7994L90.8196 52.4621L90.1794 51.3281Z" fill="url(#paint7_linear)"/>
<path d="M82.9078 50.8695L89.0129 47.265L89.6532 48.399L83.548 52.0034L82.9078 50.8695Z" fill="url(#paint8_linear)"/>
<path d="M59.7617 81.6289L59.6646 80.2479C59.6646 80.2479 60.1471 80.204 60.457 80.1869C60.7625 80.1701 61.2401 80.1606 61.2401 80.1606L61.3153 81.5197L59.7617 81.6289Z" fill="#DAD9FF"/>
<path d="M107.183 25.9952C110.057 31.1644 108.276 37.8193 103.205 40.8595C98.1346 43.8997 91.6943 42.1742 88.8205 37.0051C85.9467 31.8359 87.7279 25.181 92.7985 22.1408C97.8691 19.1006 104.309 20.8261 107.183 25.9952Z" fill="white" stroke="url(#paint9_linear)"/>
<path d="M98.0987 27.4736L100.026 29.6122L102.096 31.604L100.026 33.5959L98.0987 35.7344L96.1711 33.5959L94.1016 31.604L96.1711 29.6122L98.0987 27.4736Z" fill="url(#paint10_linear)"/>
<path d="M113.11 40.7391C116.016 45.7718 114.292 52.207 109.259 55.1127C104.226 58.0183 97.7911 56.2939 94.8855 51.2613C91.9799 46.2286 93.7042 39.7934 98.7369 36.8878C103.77 33.9821 110.205 35.7065 113.11 40.7391Z" fill="white" stroke="url(#paint11_linear)"/>
<path d="M104.099 42.1035L106.026 44.1731L108.096 46.1007L106.026 48.0283L104.099 50.0978L102.171 48.0283L100.102 46.1007L102.171 44.1731L104.099 42.1035Z" fill="url(#paint12_linear)"/>
<path d="M113.11 58.7391C116.016 63.7718 114.292 70.207 109.259 73.1127C104.226 76.0183 97.7911 74.2939 94.8855 69.2613C91.9799 64.2286 93.7042 57.7934 98.7369 54.8878C103.77 51.9821 110.205 53.7065 113.11 58.7391Z" fill="white" stroke="url(#paint13_linear)"/>
<path d="M104.099 60.1035L106.026 62.1731L108.096 64.1007L106.026 66.0283L104.099 68.0978L102.171 66.0283L100.102 64.1007L102.171 62.1731L104.099 60.1035Z" fill="url(#paint14_linear)"/>
</g>
<defs>
<linearGradient id="paint0_linear" x1="91.8673" y1="6.9701" x2="68.7951" y2="24.1565" gradientUnits="userSpaceOnUse">
<stop stop-color="#3CE700"/>
<stop offset="0.567708" stop-color="#0BC91E"/>
</linearGradient>
<linearGradient id="paint1_linear" x1="88.941" y1="15.518" x2="81.4639" y2="23.4746" gradientUnits="userSpaceOnUse">
<stop stop-color="#3CE700"/>
<stop offset="0.567708" stop-color="#0BC91E"/>
</linearGradient>
<linearGradient id="paint2_linear" x1="87.4703" y1="32.0718" x2="61.343" y2="47.3635" gradientUnits="userSpaceOnUse">
<stop stop-color="#EAED4F"/>
<stop offset="0.567708" stop-color="#C4B000"/>
</linearGradient>
<linearGradient id="paint3_linear" x1="87.4703" y1="32.0718" x2="61.343" y2="47.3635" gradientUnits="userSpaceOnUse">
<stop stop-color="#EAED4F"/>
<stop offset="0.567708" stop-color="#C4B000"/>
</linearGradient>
<linearGradient id="paint4_linear" x1="87.4703" y1="32.0718" x2="61.343" y2="47.3635" gradientUnits="userSpaceOnUse">
<stop stop-color="#EAED4F"/>
<stop offset="0.567708" stop-color="#C4B000"/>
</linearGradient>
<linearGradient id="paint5_linear" x1="87.4703" y1="32.0718" x2="61.343" y2="47.3635" gradientUnits="userSpaceOnUse">
<stop stop-color="#EAED4F"/>
<stop offset="0.567708" stop-color="#C4B000"/>
</linearGradient>
<linearGradient id="paint6_linear" x1="87.4703" y1="32.0718" x2="61.343" y2="47.3635" gradientUnits="userSpaceOnUse">
<stop stop-color="#EAED4F"/>
<stop offset="0.567708" stop-color="#C4B000"/>
</linearGradient>
<linearGradient id="paint7_linear" x1="87.4703" y1="32.0718" x2="61.343" y2="47.3635" gradientUnits="userSpaceOnUse">
<stop stop-color="#EAED4F"/>
<stop offset="0.567708" stop-color="#C4B000"/>
</linearGradient>
<linearGradient id="paint8_linear" x1="87.4703" y1="32.0718" x2="61.343" y2="47.3635" gradientUnits="userSpaceOnUse">
<stop stop-color="#EAED4F"/>
<stop offset="0.567708" stop-color="#C4B000"/>
</linearGradient>
<linearGradient id="paint9_linear" x1="97.4582" y1="16.9653" x2="85.8119" y2="43.6358" gradientUnits="userSpaceOnUse">
<stop stop-color="#EAED4F"/>
<stop offset="0.567708" stop-color="#C4B000"/>
</linearGradient>
<linearGradient id="paint10_linear" x1="100.45" y1="26.9048" x2="92.0622" y2="32.9511" gradientUnits="userSpaceOnUse">
<stop stop-color="#EAED4F"/>
<stop offset="0.567708" stop-color="#C4B000"/>
</linearGradient>
<linearGradient id="paint11_linear" x1="103.343" y1="31.8984" x2="92.1853" y2="57.7833" gradientUnits="userSpaceOnUse">
<stop stop-color="#EAED4F"/>
<stop offset="0.567708" stop-color="#C4B000"/>
</linearGradient>
<linearGradient id="paint12_linear" x1="106.45" y1="41.553" x2="98.2522" y2="47.6594" gradientUnits="userSpaceOnUse">
<stop stop-color="#EAED4F"/>
<stop offset="0.567708" stop-color="#C4B000"/>
</linearGradient>
<linearGradient id="paint13_linear" x1="103.343" y1="49.8984" x2="92.1853" y2="75.7833" gradientUnits="userSpaceOnUse">
<stop stop-color="#EAED4F"/>
<stop offset="0.567708" stop-color="#C4B000"/>
</linearGradient>
<linearGradient id="paint14_linear" x1="106.45" y1="59.553" x2="98.2522" y2="65.6594" gradientUnits="userSpaceOnUse">
<stop stop-color="#EAED4F"/>
<stop offset="0.567708" stop-color="#C4B000"/>
</linearGradient>
<clipPath id="clip0">
<rect width="115" height="120" fill="white"/>
</clipPath>
</defs>
</svg>
