<?xml version="1.0" encoding="utf-8"?>
<!-- Generator: Adobe Illustrator 23.0.1, SVG Export Plug-In . SVG Version: 6.00 Build 0)  -->
<svg version="1.2" baseProfile="tiny" id="Layer_1" xmlns="http://www.w3.org/2000/svg" xmlns:xlink="http://www.w3.org/1999/xlink"
	 x="0px" y="0px" viewBox="0 0 1366 768" xml:space="preserve">
<g>
	<path d="M24.75,284.31v-38.25h162.43v38.25h-59.41v146.62H83.91V284.31H24.75z"/>
	<path d="M251.43,361.32v69.61h-43.6V246.06h71.14c47.94,0,83.89,11.22,83.89,57.12c0,27.28-15.04,42.84-36.21,51l45.64,76.75
		h-51.25l-40.03-69.61H251.43z M251.43,324.6h28.81c20.65,0,36.46-3.57,36.46-20.91c0-17.08-15.81-20.91-36.46-20.91h-28.81V324.6z"
		/>
	<path d="M492.4,246.06l69.87,184.87h-47.43l-11.22-32.89h-71.4l-10.96,32.89h-46.41l69.61-184.87H492.4z M491.89,362.59
		l-23.71-70.38l-23.97,70.38H491.89z"/>
	<path d="M749.42,338.37c0,70.63-47.68,92.56-108.12,92.56h-60.94V246.06h60.94C701.74,246.06,749.42,267.99,749.42,338.37z
		 M623.97,282.78v111.43h18.1c32.13,0,61.2-6.88,61.2-55.84c0-48.7-29.07-55.59-61.2-55.59H623.97z"/>
	<path fill="#8102CE" d="M774.16,430.93V246.06h15.77h27.83v184.87H774.16z"/>
	<path d="M889.15,295.79c0,9.18,8.67,15.81,21.42,18.61l25.24,5.1c29.83,6.12,67.57,15.3,67.57,54.06s-39.01,60.69-77.52,60.69
		c-47.43,0-78.54-23.71-85.17-63.49h43.35c4.84,19.38,20.14,28.3,42.84,28.3c14.79,0,31.62-4.85,31.62-20.15
		c0-11.98-14.28-17.85-34.42-22.18l-22.44-4.59c-30.09-6.37-57.37-20.65-57.37-53.8c0-37.74,40.54-55.33,76.75-55.33
		c36.21,0,70.63,15.81,77.01,56.61h-43.09c-4.33-13.77-17.85-21.67-36.46-21.67C901.65,277.94,889.15,284.31,889.15,295.79z"/>
	<path d="M1091.61,316.95l41.82-70.89h50.49l-71.4,113.47v71.4h-43.6v-71.91l-69.61-112.96h51L1091.61,316.95z"/>
	<path d="M1227.52,295.79c0,9.18,8.67,15.81,21.42,18.61l25.24,5.1c29.83,6.12,67.57,15.3,67.57,54.06s-39.01,60.69-77.52,60.69
		c-47.43,0-78.54-23.71-85.17-63.49h43.35c4.84,19.38,20.14,28.3,42.84,28.3c14.79,0,31.62-4.85,31.62-20.15
		c0-11.98-14.28-17.85-34.42-22.18l-22.44-4.59c-30.09-6.37-57.37-20.65-57.37-53.8c0-37.74,40.54-55.33,76.75-55.33
		c36.21,0,70.63,15.81,77.01,56.61h-43.09c-4.33-13.77-17.85-21.67-36.46-21.67C1240.01,277.94,1227.52,284.31,1227.52,295.79z"/>
</g>
<path fill="#8102CE" d="M732,58"/>
<path fill="#8102CE" d="M791,177"/>
<polyline fill="#8102CE" points="791.43,497 791.52,180 800.15,180 800.06,497 "/>
</svg>
