<svg xmlns="http://www.w3.org/2000/svg" xmlns:xlink="http://www.w3.org/1999/xlink" width="181px" height="24px" viewBox="0 0 181 24" version="1.1">
    <!-- Generator: Sketch 52.6 (67491) - http://www.bohemiancoding.com/sketch -->
    <title>waves_logo</title>
    <desc>Created with Sketch.</desc>
    <g id="Page-1" stroke="none" stroke-width="1" fill="none" fill-rule="evenodd">
        <g id="home" transform="translate(-140.000000, -32.000000)">
            <g id="header" transform="translate(140.000000, 31.000000)">
                <g id="waves_logo">
                    <polygon id="Rectangle" fill="#0055FF" transform="translate(109.943230, 7.121984) rotate(135.000000) translate(-109.943230, -7.121984) " points="105.668415 2.84716939 114.209856 2.8553587 114.218045 11.3967995 105.676605 11.3886102"/>
                    <g id="Group" transform="translate(0.000000, 7.000000)" fill="#000000">
                        <polygon id="Path" points="27.0448124 0.351219512 23.6335541 0.351219512 23.2768212 0.658536585 19.7763797 12.4902439 19.7540839 12.4902439 15.8300221 0.658536585 15.4732892 0.351219512 11.9059603 0.351219512 11.5492274 0.658536585 7.64746137 12.4243902 7.58057395 12.3804878 7.55827815 12.3585366 4.05783664 0.658536585 3.70110375 0.351219512 0.222958057 0.351219512 0 0.658536585 5.46247241 17.3195122 5.8415011 17.6487805 9.27505519 17.6487805 9.65408389 17.3195122 13.5558499 5.4 13.6450331 5.4 17.5690949 17.3195122 17.9481236 17.6487805 21.4262693 17.6487805 21.805298 17.3195122 27.2677704 0.658536585"/>
                        <polygon id="Path" points="65.6388521 0.351219512 62.205298 0.351219512 61.8262693 0.658536585 57.0326711 12.9731707 56.9880795 12.995122 52.2390728 0.658536585 51.8600442 0.351219512 48.3596026 0.351219512 48.1366446 0.658536585 54.981457 17.3195122 55.3827815 17.6487805 58.5487859 17.6487805 58.9501104 17.3195122 65.8618102 0.658536585"/>
                        <path d="M83.3417219,9.92195122 L83.6761589,9.61463415 L83.6761589,9.1097561 C83.6761589,6.4097561 82.8958057,4.08292683 81.3573951,2.45853659 C79.8189845,0.834146341 77.7454746,0 75.2037528,0 C72.7512141,0 70.7,0.9 69.1169978,2.65609756 C67.5339956,4.41219512 66.7536424,6.54146341 66.7536424,8.95609756 C66.7536424,11.5243902 67.5785872,13.6756098 69.206181,15.3658537 C70.8337748,17.0560976 72.9741722,17.9121951 75.5604857,17.9121951 C77.4333333,17.9121951 79.0386313,17.4731707 80.3317881,16.5731707 C81.6249448,15.695122 82.984989,14.2463415 83.4532009,12.2707317 L83.207947,11.9414634 L79.997351,11.9414634 L79.5514349,12.2707317 C78.7487859,13.8512195 77.5225166,14.597561 75.4935982,14.597561 C74.1781457,14.597561 72.996468,14.1365854 72.0154525,13.2365854 C71.0790287,12.3804878 70.5439294,11.3487805 70.4101545,9.87804878 L83.3417219,9.92195122 Z M70.6331126,6.84878049 C71.1905077,4.80731707 72.9295806,3.29268293 75.2037528,3.29268293 C78.2136865,3.29268293 79.4622517,5.4 79.8189845,6.84878049 L70.6331126,6.84878049 Z" id="Shape" fill-rule="nonzero"/>
                        <path d="M42.5626932,0.351219512 L42.2282561,0.680487805 L42.2282561,2.39268293 L42.1613687,2.45853659 C41.7154525,1.88780488 41.1134658,1.38292683 40.4,0.965853659 C40.2439294,0.87804878 40.0655629,0.790243902 39.8871965,0.702439024 C38.9284768,0.241463415 37.8359823,0.0219512195 36.6543046,0.0219512195 C34.4470199,0.0219512195 32.5072848,0.9 30.9019868,2.61219512 C29.2966887,4.32439024 28.4940397,6.47560976 28.4940397,9 C28.4940397,11.5243902 29.2966887,13.6756098 30.9019868,15.3878049 C32.5072848,17.1 34.4470199,17.9780488 36.6543046,17.9780488 C37.8359823,17.9780488 38.906181,17.7585366 39.8649007,17.297561 C40.0432671,17.2097561 40.2439294,17.1219512 40.4222958,17.0121951 C41.1134658,16.595122 41.6931567,16.1341463 42.1390728,15.5853659 C42.1613687,15.5634146 42.2282561,15.6073171 42.2505519,15.5853659 L42.2505519,17.3634146 L42.584989,17.6926829 L45.5057395,17.6926829 L45.8401766,17.3634146 L45.8401766,0.658536585 L45.5057395,0.329268293 L42.5626932,0.329268293 L42.5626932,0.351219512 Z M40.7567329,13.1268293 C39.7757174,14.1585366 38.5940397,14.6634146 37.1671082,14.6634146 C35.7847682,14.6634146 34.7591611,14.1585366 33.7558499,13.104878 C32.7525386,12.0731707 32.2620309,10.6902439 32.2620309,8.95609756 C32.2620309,7.24390244 32.7748344,5.86097561 33.7558499,4.80731707 C34.7591611,3.77560976 35.7624724,3.24878049 37.1671082,3.24878049 C38.5717439,3.24878049 39.7534216,3.75365854 40.7567329,4.78536585 C41.4033113,5.46585366 41.8269316,6.27804878 42.0721854,7.26585366 L42.0721854,10.602439 C41.8492274,11.6341463 41.4033113,12.4682927 40.7567329,13.1268293 Z" id="Shape" fill-rule="nonzero"/>
                        <path d="M95.715894,7.63902439 C95.715894,7.63902439 93.7984547,7.24390244 92.2154525,6.89268293 C90.7662252,6.56341463 90.0304636,6.14634146 90.0304636,5.13658537 C90.0304636,4.06097561 91.0783664,3.16097561 93.3302428,3.16097561 C95.5375276,3.16097561 96.7637969,4.12682927 96.7637969,4.98292683 L97.1428256,5.31219512 L100.353422,5.31219512 L100.598675,5.00487805 C100.598675,2.74390244 98.6143488,0.043902439 93.419426,0.043902439 C88.0015453,0.043902439 86.307064,3.18292683 86.307064,5.20243902 C86.307064,6.89268293 86.9313466,8.8902439 91.0783664,9.83414634 C91.0783664,9.83414634 93.0626932,10.2731707 94.6456954,10.6243902 C96.4516556,11.0195122 97.209713,11.6341463 97.209713,12.6658537 C97.209713,13.6097561 96.2509934,14.7512195 93.7538631,14.7512195 C91.4350993,14.7512195 90.0304636,13.6536585 89.9635762,12.3585366 L89.5622517,12.0292683 L86.2847682,12.0292683 L86.0395143,12.3585366 C86.3293598,15.2560976 88.5143488,17.9780488 93.7315673,17.9780488 C99.6399558,17.9780488 100.843929,14.4219512 100.843929,12.5560976 C100.843929,10.0536585 99.394702,8.42926829 95.715894,7.63902439 Z" id="Path"/>
                    </g>
                    <text id="Labs" font-family="Helvetica" font-size="25" font-weight="normal" fill="#000000">
                        <tspan x="127" y="24">Labs</tspan>
                    </text>
                </g>
            </g>
        </g>
    </g>
</svg>