<svg width="61" height="60" viewBox="0 0 61 60" fill="none" xmlns="http://www.w3.org/2000/svg">
<path d="M0.432823 24.9318C0.241817 26.0362 0.11216 27.1611 0.0474281 28.303L0.546627 28.3313C0.515324 28.8836 0.499458 29.4399 0.499458 30C0.499458 30.5601 0.515324 31.1164 0.546627 31.6687L0.0474281 31.697C0.11216 32.8389 0.241817 33.9638 0.432823 35.0682L0.925507 34.983C1.11657 36.0876 1.37008 37.1713 1.68233 38.2305L1.20274 38.3718C1.52443 39.463 1.9074 40.5285 2.34776 41.5645L2.80791 41.3689C3.24458 42.3962 3.73867 43.3941 4.28626 44.3588L3.85144 44.6056C4.41102 45.5914 5.0255 46.5429 5.6908 47.4561L6.09493 47.1617C6.75036 48.0614 7.456 48.9234 8.20782 49.7437L7.83922 50.0815C8.60307 50.915 9.41376 51.706 10.2672 52.4507L10.596 52.074C11.4329 52.8043 12.3116 53.4892 13.2282 54.1249L12.9432 54.5358C13.8701 55.1786 14.835 55.7719 15.8341 56.3118L16.0718 55.8719C17.0464 56.3986 18.054 56.8735 19.0908 57.293L18.9033 57.7565C19.9456 58.1782 21.0168 58.5448 22.1133 58.8525L22.2484 58.3711C23.3115 58.6694 24.3987 58.9115 25.5066 59.0939L25.4254 59.5872C26.5309 59.7692 27.6565 59.8927 28.7988 59.9543L28.8258 59.4551C29.3786 59.4849 29.9354 59.5 30.4958 59.5C31.0563 59.5 31.6131 59.4849 32.1659 59.4551L32.1928 59.9543C33.3352 59.8927 34.4608 59.7692 35.5662 59.5872L35.485 59.0939C36.5929 58.9115 37.6801 58.6694 38.7432 58.3711L38.8783 58.8525C39.9748 58.5448 41.0461 58.1782 42.0884 57.7565L41.9009 57.293C42.9376 56.8735 43.9452 56.3986 44.9199 55.8719L45.1576 56.3118C46.1566 55.7719 47.1215 55.1786 48.0484 54.5358L47.7635 54.1249C48.68 53.4892 49.5588 52.8043 50.3957 52.074L50.7244 52.4507C51.5779 51.706 52.3886 50.915 53.1524 50.0815L52.7838 49.7437C53.5357 48.9234 54.2413 48.0614 54.8967 47.1617L55.3008 47.4561C55.9661 46.5428 56.5806 45.5913 57.1402 44.6056L56.7054 44.3588C57.253 43.3941 57.7471 42.3962 58.1837 41.3689L58.6439 41.5645C59.0842 40.5285 59.4672 39.463 59.7889 38.3718L59.3093 38.2305C59.6216 37.1713 59.8751 36.0876 60.0661 34.983L60.5588 35.0682C60.7498 33.9638 60.8795 32.8389 60.9442 31.697L60.445 31.6687C60.4763 31.1164 60.4922 30.5601 60.4922 30C60.4922 29.4399 60.4763 28.8836 60.445 28.3313L60.9442 28.303C60.8795 27.1611 60.7498 26.0362 60.5588 24.9318L60.0661 25.017C59.8751 23.9124 59.6216 22.8287 59.3093 21.7695L59.7889 21.6282C59.4672 20.537 59.0842 19.4715 58.6439 18.4355L58.1837 18.6311C57.7471 17.6038 57.253 16.6059 56.7054 15.6412L57.1402 15.3944C56.5806 14.4086 55.9661 13.4571 55.3008 12.5439L54.8967 12.8383C54.2413 11.9386 53.5356 11.0766 52.7838 10.2563L53.1524 9.91849C52.3886 9.08504 51.5779 8.29396 50.7244 7.54926L50.3957 7.926C49.5588 7.19573 48.68 6.51079 47.7635 5.87509L48.0484 5.46423C47.1215 4.82138 46.1566 4.22807 45.1576 3.68822L44.9199 4.1281C43.9452 3.60141 42.9376 3.12645 41.9009 2.70698L42.0884 2.24348C41.0461 1.82176 39.9748 1.45521 38.8783 1.14751L38.7432 1.62892C37.6801 1.3306 36.5929 1.08851 35.485 0.906124L35.5662 0.412765C34.4608 0.230779 33.3352 0.107296 32.1928 0.0456613L32.1659 0.544935C31.6131 0.515111 31.0563 0.5 30.4958 0.5C29.9354 0.5 29.3786 0.515111 28.8258 0.544935L28.7988 0.0456612C27.6565 0.107296 26.5309 0.230779 25.4254 0.412765L25.5066 0.906124C24.3987 1.08851 23.3115 1.3306 22.2484 1.62892L22.1133 1.14751C21.0168 1.45521 19.9456 1.82177 18.9033 2.24348L19.0908 2.70698C18.054 3.12646 17.0464 3.60141 16.0718 4.1281L15.8341 3.68822C14.835 4.22808 13.8701 4.82138 12.9432 5.46424L13.2282 5.87509C12.3116 6.51079 11.4329 7.19574 10.596 7.926L10.2672 7.54926C9.41376 8.29397 8.60307 9.08505 7.83921 9.91849L8.20782 10.2563C7.45599 11.0766 6.75035 11.9386 6.09493 12.8383L5.6908 12.5439C5.0255 13.4572 4.41102 14.4087 3.85143 15.3944L4.28626 15.6412C3.73866 16.6059 3.24458 17.6038 2.80791 18.6311L2.34776 18.4355C1.9074 19.4715 1.52443 20.537 1.20274 21.6282L1.68233 21.7695C1.37008 22.8287 1.11657 23.9124 0.925507 25.017L0.432823 24.9318Z" stroke="#D1D1D1" stroke-dasharray="3.2 3.2"/>
<ellipse opacity="0.15" rx="20.1262" ry="19.7987" transform="matrix(-1 0 0 1 30.4949 29.9998)" fill="url(#paint0_linear)"/>
<path d="M5.28096 54.3909C5.19468 53.8163 4.35208 53.8163 4.2658 54.3909L4.17975 54.964C4.1467 55.1841 3.97095 55.357 3.74715 55.3895L3.16456 55.4741C2.58041 55.559 2.58041 56.3878 3.16456 56.4727L3.74715 56.5573C3.97095 56.5898 4.1467 56.7627 4.17975 56.9828L4.2658 57.5559C4.35208 58.1305 5.19468 58.1305 5.28096 57.5559L5.367 56.9828C5.40006 56.7627 5.5758 56.5898 5.79961 56.5573L6.3822 56.4727C6.96635 56.3878 6.96635 55.559 6.3822 55.4741L5.79961 55.3895C5.5758 55.357 5.40006 55.1841 5.367 54.964L5.28096 54.3909Z" fill="#C4C4C4"/>
<path d="M58.5218 54.2443C58.3841 53.3274 57.0395 53.3274 56.9018 54.2443L56.7645 55.1588C56.7117 55.5101 56.4313 55.786 56.0741 55.8378L55.1444 55.9729C54.2123 56.1083 54.2123 57.4309 55.1445 57.5664L56.0741 57.7014C56.4313 57.7533 56.7117 58.0292 56.7645 58.3805L56.9018 59.2949C57.0395 60.2119 58.3841 60.2119 58.5218 59.2949L58.6591 58.3805C58.7118 58.0292 58.9923 57.7533 59.3494 57.7014L60.2791 57.5664C61.2113 57.4309 61.2113 56.1083 60.2791 55.9729L59.3494 55.8378C58.9923 55.786 58.7118 55.5101 58.6591 55.1588L58.5218 54.2443Z" fill="#C4C4C4"/>
<ellipse rx="0.955236" ry="0.939597" transform="matrix(-1 0 0 1 25.9198 5.36928)" fill="#C4C4C4"/>
<ellipse rx="1.56932" ry="1.54362" transform="matrix(-1 0 0 1 16.7158 40.2018)" fill="#C4C4C4"/>
<ellipse rx="1.56932" ry="1.54362" transform="matrix(-1 0 0 1 4.70803 2.88542)" fill="#C4C4C4"/>
<ellipse rx="0.955236" ry="0.939597" transform="matrix(-1 0 0 1 58.8104 5.36928)" fill="#C4C4C4"/>
<path d="M5.82812 13.2852C5.82812 12.0864 6.81833 11.1006 8.05718 11.1006H33.6374C34.8763 11.1006 35.8665 12.0864 35.8665 13.2851V26.5162C35.8665 27.715 34.8763 28.7008 33.6374 28.7008H21.031C20.8471 28.7008 20.6669 28.7562 20.5145 28.8605L11.5619 34.9934C11.1593 35.2692 10.6324 34.9775 10.629 34.5289L10.5919 29.5967C10.5881 29.0932 10.1744 28.7008 9.68257 28.7008H8.05718C6.81833 28.7008 5.82812 27.715 5.82812 26.5162V13.2852Z" fill="white" stroke="#0500FF" stroke-linecap="round" stroke-linejoin="round"/>
<path d="M11.9637 23.7613C11.9637 24.5434 11.3168 25.1915 10.5014 25.1915C9.68596 25.1915 9.03906 24.5434 9.03906 23.7613C9.03906 22.9791 9.68596 22.3311 10.5014 22.3311C11.3168 22.3311 11.9637 22.9791 11.9637 23.7613Z" stroke="#0500FF"/>
<path d="M19.8114 23.7613C19.8114 24.5434 19.1645 25.1915 18.3491 25.1915C17.5336 25.1915 16.8867 24.5434 16.8867 23.7613C16.8867 22.9791 17.5336 22.3311 18.3491 22.3311C19.1645 22.3311 19.8114 22.9791 19.8114 23.7613Z" stroke="#0500FF"/>
<path d="M27.663 23.7613C27.663 24.5434 27.0161 25.1915 26.2006 25.1915C25.3852 25.1915 24.7383 24.5434 24.7383 23.7613C24.7383 22.9791 25.3852 22.3311 26.2006 22.3311C27.0161 22.3311 27.663 22.9791 27.663 23.7613Z" stroke="#0500FF"/>
<line x1="38.2734" y1="12.04" x2="50.2258" y2="12.04" stroke="#D1D1D1"/>
<line x1="38.2734" y1="15.9004" x2="46.658" y2="15.9004" stroke="#D1D1D1"/>
<line x1="38.2734" y1="19.5859" x2="43.0901" y2="19.5859" stroke="#D1D1D1"/>
<path d="M48.0906 19.5234C49.3294 19.5234 50.3196 20.5092 50.3196 21.708V34.9391C50.3196 36.1379 49.3294 37.1236 48.0906 37.1236H46.4652C45.9733 37.1236 45.5596 37.516 45.5558 38.0196L45.5187 42.9519C45.5153 43.4005 44.9884 43.6922 44.5859 43.4164L35.633 37.2834C35.4807 37.179 35.3005 37.1236 35.1165 37.1236L22.5103 37.1236C21.2715 37.1236 20.2812 36.1378 20.2812 34.9391V21.708C20.2812 20.5092 21.2715 19.5234 22.5103 19.5234H48.0906Z" fill="white" stroke="#0500FF" stroke-linecap="round" stroke-linejoin="round"/>
<path d="M26.4169 32.1841C26.4169 32.9662 25.77 33.6143 24.9545 33.6143C24.1391 33.6143 23.4922 32.9662 23.4922 32.1841C23.4922 31.402 24.1391 30.7539 24.9545 30.7539C25.77 30.7539 26.4169 31.402 26.4169 32.1841Z" stroke="#0500FF"/>
<path d="M34.2645 32.1841C34.2645 32.9662 33.6176 33.6143 32.8022 33.6143C31.9867 33.6143 31.3398 32.9662 31.3398 32.1841C31.3398 31.402 31.9867 30.7539 32.8022 30.7539C33.6176 30.7539 34.2645 31.402 34.2645 32.1841Z" stroke="#0500FF"/>
<path d="M42.1161 32.1841C42.1161 32.9662 41.4692 33.6143 40.6537 33.6143C39.8383 33.6143 39.1914 32.9662 39.1914 32.1841C39.1914 31.402 39.8383 30.7539 40.6537 30.7539C41.4692 30.7539 42.1161 31.402 42.1161 32.1841Z" stroke="#0500FF"/>
<line x1="52.6758" y1="20.4395" x2="61" y2="20.4395" stroke="#D1D1D1"/>
<line x1="52.6758" y1="24.332" x2="61" y2="24.332" stroke="#D1D1D1"/>
<line x1="52.7305" y1="28.0078" x2="57.5471" y2="28.0078" stroke="#D1D1D1"/>
<mask id="path-23-inside-1" fill="white">
<path d="M19.2187 45.2292C19.4249 44.615 20.3081 44.615 20.5143 45.2292L20.9333 46.4769C21.0256 46.7518 21.2868 46.9375 21.5811 46.9375H22.9127C23.5764 46.9375 23.8493 47.7751 23.3094 48.1547L22.2516 48.8983C22.0085 49.0691 21.9068 49.3757 22.0005 49.6548L22.4091 50.8715C22.6161 51.4879 21.9015 52.0055 21.3646 51.6281L20.2632 50.8538C20.0259 50.687 19.7071 50.687 19.4698 50.8538L18.3684 51.6281C17.8315 52.0055 17.1169 51.4879 17.3239 50.8715L17.7325 49.6548C17.8262 49.3757 17.7244 49.0691 17.4813 48.8983L16.4236 48.1547C15.8836 47.7751 16.1566 46.9375 16.8203 46.9375H18.1518C18.4462 46.9375 18.7074 46.7518 18.7997 46.4769L19.2187 45.2292Z"/>
<path d="M30.0097 45.2645C30.214 44.6462 31.1032 44.6462 31.3075 45.2645L31.7069 46.4737C31.7982 46.7503 32.0602 46.9375 32.3558 46.9375H33.6483C34.3092 46.9375 34.584 47.7695 34.0493 48.1516L33.0036 48.899C32.7645 49.0699 32.6645 49.3728 32.7558 49.6493L33.1552 50.8586C33.3595 51.4769 32.64 51.9911 32.1053 51.609L31.0596 50.8616C30.8205 50.6907 30.4967 50.6907 30.2576 50.8616L29.2119 51.6089C28.6772 51.9911 27.9577 51.4769 28.162 50.8586L28.5614 49.6493C28.6527 49.3728 28.5527 49.0699 28.3135 48.899L27.2678 48.1516C26.7331 47.7695 27.0079 46.9375 27.6689 46.9375H28.9614C29.257 46.9375 29.519 46.7503 29.6103 46.4737L30.0097 45.2645Z"/>
<path d="M40.6244 45.2292C40.8306 44.615 41.7138 44.615 41.92 45.2292L42.339 46.4769C42.4314 46.7518 42.6925 46.9375 42.9869 46.9375H44.3184C44.9821 46.9375 45.2551 47.7751 44.7151 48.1547L43.6574 48.8983C43.4143 49.0691 43.3125 49.3757 43.4062 49.6548L43.8148 50.8715C44.0218 51.4879 43.3072 52.0055 42.7703 51.6281L41.6689 50.8538C41.4316 50.687 41.1128 50.687 40.8755 50.8538L39.7741 51.6281C39.2373 52.0055 38.5226 51.4879 38.7296 50.8715L39.1382 49.6548C39.2319 49.3757 39.1302 49.0691 38.8871 48.8983L37.8293 48.1547C37.2894 47.7751 37.5624 46.9375 38.226 46.9375H39.5576C39.8519 46.9375 40.1131 46.7518 40.2054 46.4769L40.6244 45.2292Z"/>
</mask>
<path d="M18.1518 46.9375L18.1518 47.9375H18.1518L18.1518 46.9375ZM18.7997 46.4769L19.7477 46.7952L19.7477 46.7952L18.7997 46.4769ZM16.4236 48.1547L16.9987 47.3366L16.9987 47.3366L16.4236 48.1547ZM16.8203 46.9375L16.8203 45.9375H16.8203L16.8203 46.9375ZM17.7325 49.6548L16.7845 49.3365L17.7325 49.6548ZM17.4813 48.8983L16.9062 49.7163L16.9062 49.7163L17.4813 48.8983ZM18.3684 51.6281L17.7933 50.81L17.7933 50.81L18.3684 51.6281ZM17.3239 50.8715L18.2719 51.1899L17.3239 50.8715ZM20.2632 50.8538L19.6881 51.6719L19.6881 51.6719L20.2632 50.8538ZM19.4698 50.8538L20.0449 51.6719L20.0449 51.6719L19.4698 50.8538ZM22.4091 50.8715L23.3571 50.5532L23.3571 50.5532L22.4091 50.8715ZM21.3646 51.6281L21.9397 50.81L21.9397 50.81L21.3646 51.6281ZM22.2516 48.8983L22.8267 49.7163L22.8267 49.7163L22.2516 48.8983ZM22.0005 49.6548L21.0525 49.9731L21.0525 49.9731L22.0005 49.6548ZM22.9127 46.9375L22.9127 45.9375H22.9127V46.9375ZM23.3094 48.1547L22.7343 47.3366L22.7343 47.3366L23.3094 48.1547ZM20.9333 46.4769L21.8813 46.1585L20.9333 46.4769ZM21.5811 46.9375L21.5811 47.9375H21.5811V46.9375ZM20.5143 45.2292L19.5663 45.5475L19.5663 45.5475L20.5143 45.2292ZM19.2187 45.2292L18.2707 44.9108L18.2707 44.9108L19.2187 45.2292ZM28.9614 46.9375L28.9614 47.9375H28.9614L28.9614 46.9375ZM29.6103 46.4737L30.5598 46.7874L30.5598 46.7874L29.6103 46.4737ZM27.2678 48.1516L26.6864 48.9652L26.6864 48.9652L27.2678 48.1516ZM27.6689 46.9375L27.6689 45.9375H27.6689L27.6689 46.9375ZM28.5614 49.6493L29.5109 49.963L29.5109 49.963L28.5614 49.6493ZM28.3135 48.899L28.895 48.0854L28.895 48.0854L28.3135 48.899ZM29.2119 51.6089L28.6304 50.7954L28.6304 50.7954L29.2119 51.6089ZM28.162 50.8586L27.2124 50.545L27.2124 50.545L28.162 50.8586ZM31.0596 50.8616L31.6411 50.048L31.6411 50.048L31.0596 50.8616ZM30.2576 50.8616L30.839 51.6752L30.839 51.6752L30.2576 50.8616ZM33.1552 50.8586L34.1048 50.545L34.1048 50.545L33.1552 50.8586ZM32.1053 51.609L31.5239 52.4225L31.5239 52.4225L32.1053 51.609ZM33.0036 48.899L32.4222 48.0854L33.0036 48.899ZM32.7558 49.6493L31.8062 49.963L31.8062 49.963L32.7558 49.6493ZM33.6483 46.9375L33.6483 45.9375H33.6483V46.9375ZM34.0493 48.1516L34.6308 48.9652L34.6308 48.9652L34.0493 48.1516ZM31.7069 46.4737L32.6564 46.1601L32.6564 46.1601L31.7069 46.4737ZM32.3558 46.9375L32.3558 47.9375H32.3558V46.9375ZM31.3075 45.2645L30.3579 45.5781L30.3579 45.5781L31.3075 45.2645ZM30.0097 45.2645L29.0602 44.9508L29.0602 44.9508L30.0097 45.2645ZM39.5576 46.9375L39.5576 47.9375H39.5576L39.5576 46.9375ZM40.2054 46.4769L41.1534 46.7952L41.1534 46.7952L40.2054 46.4769ZM37.8293 48.1547L37.2542 48.9728L37.2542 48.9728L37.8293 48.1547ZM38.226 46.9375L38.226 45.9375H38.226L38.226 46.9375ZM39.1382 49.6548L40.0862 49.9731L40.0862 49.9731L39.1382 49.6548ZM38.8871 48.8983L39.4622 48.0802L39.4622 48.0802L38.8871 48.8983ZM39.7741 51.6281L39.199 50.81L39.199 50.81L39.7741 51.6281ZM38.7296 50.8715L37.7817 50.5532L37.7817 50.5532L38.7296 50.8715ZM41.6689 50.8538L42.244 50.0357L42.244 50.0357L41.6689 50.8538ZM40.8755 50.8538L41.4506 51.6719L41.4506 51.6719L40.8755 50.8538ZM43.8148 50.8715L44.7628 50.5532L44.7628 50.5532L43.8148 50.8715ZM42.7703 51.6281L42.1952 52.4462L42.1952 52.4462L42.7703 51.6281ZM43.6574 48.8983L43.0823 48.0802L43.0823 48.0802L43.6574 48.8983ZM43.4062 49.6548L42.4582 49.9731L42.4582 49.9731L43.4062 49.6548ZM44.3184 46.9375L44.3184 45.9375H44.3184V46.9375ZM44.7151 48.1547L45.2902 48.9728L45.2902 48.9728L44.7151 48.1547ZM42.339 46.4769L41.391 46.7952L41.391 46.7952L42.339 46.4769ZM42.9869 46.9375L42.9869 47.9375H42.9869V46.9375ZM41.92 45.2292L42.868 44.9108L42.868 44.9108L41.92 45.2292ZM40.6244 45.2292L39.6764 44.9108L39.6764 44.9108L40.6244 45.2292ZM19.5663 45.5475L19.9853 46.7952L21.8813 46.1585L21.4623 44.9108L19.5663 45.5475ZM21.5811 47.9375H22.9127V45.9375H21.5811V47.9375ZM22.7343 47.3366L21.6765 48.0802L22.8267 49.7163L23.8845 48.9728L22.7343 47.3366ZM21.0525 49.9731L21.4611 51.1899L23.3571 50.5532L22.9485 49.3365L21.0525 49.9731ZM21.9397 50.81L20.8383 50.0357L19.6881 51.6719L20.7895 52.4462L21.9397 50.81ZM18.8947 50.0357L17.7933 50.81L18.9435 52.4462L20.0449 51.6719L18.8947 50.0357ZM18.2719 51.1899L18.6805 49.9731L16.7845 49.3365L16.3759 50.5532L18.2719 51.1899ZM18.0564 48.0802L16.9987 47.3366L15.8485 48.9728L16.9062 49.7163L18.0564 48.0802ZM16.8203 47.9375H18.1518V45.9375H16.8203V47.9375ZM19.7477 46.7952L20.1666 45.5475L18.2707 44.9108L17.8517 46.1585L19.7477 46.7952ZM18.1518 47.9375C18.867 47.9375 19.5158 47.4857 19.7477 46.7952L17.8517 46.1585C17.8989 46.018 18.0253 45.9375 18.1518 45.9375L18.1518 47.9375ZM16.9987 47.3366C17.0454 47.3694 17.0963 47.4314 17.1215 47.5144C17.1444 47.5899 17.1391 47.6592 17.1214 47.7136C17.1036 47.768 17.0681 47.8241 17.0097 47.8688C16.9455 47.9178 16.8735 47.9375 16.8203 47.9375L16.8203 45.9375C15.2184 45.9375 14.4782 48.0094 15.8485 48.9728L16.9987 47.3366ZM18.6805 49.9731C18.9169 49.269 18.6569 48.5023 18.0564 48.0802L16.9062 49.7163C16.792 49.636 16.7355 49.4824 16.7845 49.3365L18.6805 49.9731ZM17.7933 50.81C17.8397 50.7774 17.9097 50.7537 17.9861 50.7564C18.0552 50.759 18.1117 50.7821 18.1538 50.8126C18.1958 50.8431 18.2396 50.8927 18.2658 50.9659C18.2948 51.0469 18.2921 51.1298 18.2719 51.1899L16.3759 50.5532C15.8423 52.1424 17.6662 53.3441 18.9435 52.4462L17.7933 50.81ZM20.8383 50.0357C20.256 49.6264 19.477 49.6264 18.8947 50.0357L20.0449 51.6719C19.9371 51.7477 19.7958 51.7477 19.6881 51.6719L20.8383 50.0357ZM21.4611 51.1899C21.4409 51.1298 21.4382 51.0469 21.4672 50.9659C21.4934 50.8927 21.5371 50.8431 21.5792 50.8126C21.6213 50.7821 21.6778 50.759 21.7469 50.7564C21.8233 50.7537 21.8932 50.7774 21.9397 50.81L20.7895 52.4462C22.0668 53.3441 23.8907 52.1424 23.3571 50.5532L21.4611 51.1899ZM21.6765 48.0802C21.0761 48.5023 20.8161 49.269 21.0525 49.9731L22.9485 49.3365C22.9975 49.4824 22.941 49.636 22.8267 49.7163L21.6765 48.0802ZM22.9127 47.9375C22.8595 47.9375 22.7875 47.9178 22.7233 47.8688C22.6649 47.8241 22.6293 47.768 22.6116 47.7136C22.5939 47.6592 22.5886 47.5899 22.6115 47.5144C22.6366 47.4314 22.6876 47.3694 22.7343 47.3366L23.8845 48.9728C25.2548 48.0094 24.5146 45.9375 22.9127 45.9375L22.9127 47.9375ZM19.9853 46.7952C20.2172 47.4857 20.8659 47.9375 21.5811 47.9375L21.5811 45.9375C21.7076 45.9375 21.8341 46.0179 21.8813 46.1585L19.9853 46.7952ZM21.4623 44.9108C20.9508 43.3878 18.7821 43.3878 18.2707 44.9108L20.1666 45.5475C20.1466 45.6073 20.1004 45.6713 20.0343 45.7155C19.9746 45.7553 19.9152 45.7686 19.8665 45.7686C19.8178 45.7686 19.7583 45.7553 19.6987 45.7155C19.6326 45.6713 19.5864 45.6073 19.5663 45.5475L21.4623 44.9108ZM30.3579 45.5781L30.7573 46.7874L32.6564 46.1601L32.257 44.9508L30.3579 45.5781ZM32.3558 47.9375H33.6483V45.9375H32.3558V47.9375ZM33.4679 47.338L32.4222 48.0854L33.5851 49.7125L34.6308 48.9652L33.4679 47.338ZM31.8062 49.963L32.2057 51.1722L34.1048 50.545L33.7053 49.3357L31.8062 49.963ZM32.6868 50.7954L31.6411 50.048L30.4782 51.6752L31.5239 52.4225L32.6868 50.7954ZM29.6761 50.048L28.6304 50.7954L29.7933 52.4225L30.839 51.6752L29.6761 50.048ZM29.1115 51.1722L29.5109 49.963L27.6118 49.3357L27.2124 50.545L29.1115 51.1722ZM28.895 48.0854L27.8493 47.338L26.6864 48.9652L27.7321 49.7125L28.895 48.0854ZM27.6689 47.9375H28.9614V45.9375H27.6689V47.9375ZM30.5598 46.7874L30.9593 45.5781L29.0602 44.9508L28.6607 46.1601L30.5598 46.7874ZM28.9614 47.9375C29.6796 47.9375 30.3304 47.4819 30.5598 46.7874L28.6607 46.1601C28.7075 46.0186 28.8344 45.9375 28.9614 45.9375L28.9614 47.9375ZM27.8493 47.338C27.8958 47.3713 27.9461 47.4334 27.9706 47.5161C27.993 47.5915 27.9875 47.6606 27.9695 47.7149C27.9516 47.7692 27.916 47.825 27.8577 47.8693C27.7938 47.9179 27.7221 47.9375 27.6689 47.9375L27.6689 45.9375C26.0735 45.9375 25.3292 47.9952 26.6864 48.9652L27.8493 47.338ZM29.5109 49.963C29.7414 49.2653 29.4858 48.5076 28.895 48.0854L27.7321 49.7125C27.6195 49.6321 27.5641 49.4803 27.6118 49.3357L29.5109 49.963ZM28.6304 50.7954C28.6766 50.7623 28.7465 50.738 28.8231 50.7403C28.8923 50.7424 28.949 50.7652 28.9913 50.7954C29.0334 50.8255 29.0775 50.8749 29.1042 50.948C29.1337 51.029 29.1314 51.112 29.1115 51.1722L27.2124 50.545C26.6858 52.1392 28.5212 53.3317 29.7933 52.4225L28.6304 50.7954ZM31.6411 50.048C31.0542 49.6285 30.263 49.6285 29.6761 50.048L30.839 51.6752C30.7304 51.7528 30.5868 51.7528 30.4782 51.6752L31.6411 50.048ZM32.2057 51.1722C32.1858 51.112 32.1835 51.029 32.213 50.948C32.2396 50.8749 32.2837 50.8255 32.3259 50.7954C32.3681 50.7652 32.4249 50.7424 32.4941 50.7403C32.5707 50.738 32.6406 50.7623 32.6868 50.7954L31.5239 52.4225C32.796 53.3317 34.6313 52.1392 34.1048 50.545L32.2057 51.1722ZM32.4222 48.0854C31.8314 48.5076 31.5758 49.2653 31.8062 49.963L33.7053 49.3357C33.7531 49.4803 33.6976 49.6321 33.5851 49.7125L32.4222 48.0854ZM33.6483 47.9375C33.5951 47.9375 33.5234 47.9179 33.4595 47.8693C33.4012 47.825 33.3656 47.7692 33.3476 47.7149C33.3297 47.6606 33.3242 47.5915 33.3465 47.5161C33.3711 47.4334 33.4213 47.3713 33.4679 47.338L34.6308 48.9652C35.988 47.9952 35.2436 45.9375 33.6483 45.9375L33.6483 47.9375ZM30.7573 46.7874C30.9867 47.4819 31.6376 47.9375 32.3558 47.9375L32.3558 45.9375C32.4828 45.9375 32.6097 46.0186 32.6564 46.1601L30.7573 46.7874ZM32.257 44.9508C31.7505 43.4174 29.5667 43.4174 29.0602 44.9508L30.9593 45.5781C30.9395 45.6381 30.8933 45.7027 30.8268 45.7473C30.7669 45.7874 30.7073 45.8007 30.6586 45.8007C30.6099 45.8007 30.5502 45.7874 30.4904 45.7473C30.4239 45.7027 30.3777 45.6381 30.3579 45.5781L32.257 44.9508ZM40.9721 45.5475L41.391 46.7952L43.287 46.1585L42.868 44.9108L40.9721 45.5475ZM42.9869 47.9375H44.3184V45.9375H42.9869V47.9375ZM44.14 47.3366L43.0823 48.0802L44.2325 49.7163L45.2902 48.9728L44.14 47.3366ZM42.4582 49.9731L42.8668 51.1899L44.7628 50.5532L44.3542 49.3365L42.4582 49.9731ZM43.3454 50.81L42.244 50.0357L41.0938 51.6719L42.1952 52.4462L43.3454 50.81ZM40.3004 50.0357L39.199 50.81L40.3492 52.4462L41.4506 51.6719L40.3004 50.0357ZM39.6776 51.1899L40.0862 49.9731L38.1902 49.3365L37.7817 50.5532L39.6776 51.1899ZM39.4622 48.0802L38.4044 47.3366L37.2542 48.9728L38.312 49.7163L39.4622 48.0802ZM38.226 47.9375H39.5576V45.9375H38.226V47.9375ZM41.1534 46.7952L41.5724 45.5475L39.6764 44.9108L39.2574 46.1585L41.1534 46.7952ZM39.5576 47.9375C40.2728 47.9375 40.9215 47.4856 41.1534 46.7952L39.2574 46.1585C39.3046 46.018 39.4311 45.9375 39.5576 45.9375L39.5576 47.9375ZM38.4044 47.3366C38.4511 47.3694 38.5021 47.4314 38.5272 47.5144C38.5501 47.5899 38.5448 47.6592 38.5271 47.7136C38.5094 47.768 38.4738 47.8241 38.4154 47.8688C38.3512 47.9178 38.2792 47.9375 38.226 47.9375L38.226 45.9375C36.6241 45.9375 35.8839 48.0094 37.2542 48.9728L38.4044 47.3366ZM40.0862 49.9731C40.3226 49.269 40.0626 48.5023 39.4622 48.0802L38.312 49.7163C38.1977 49.636 38.1412 49.4824 38.1902 49.3365L40.0862 49.9731ZM39.199 50.81C39.2455 50.7774 39.3154 50.7537 39.3918 50.7564C39.4609 50.759 39.5174 50.7821 39.5595 50.8126C39.6016 50.8431 39.6453 50.8927 39.6715 50.9659C39.7005 51.0469 39.6978 51.1298 39.6776 51.1899L37.7817 50.5532C37.248 52.1424 39.0719 53.3441 40.3492 52.4462L39.199 50.81ZM42.244 50.0357C41.6617 49.6264 40.8827 49.6264 40.3004 50.0357L41.4506 51.6719C41.3429 51.7477 41.2016 51.7477 41.0938 51.6719L42.244 50.0357ZM42.8668 51.1899C42.8466 51.1298 42.8439 51.0469 42.8729 50.9659C42.8991 50.8927 42.9429 50.8431 42.9849 50.8126C43.027 50.7821 43.0835 50.759 43.1526 50.7564C43.229 50.7537 43.299 50.7774 43.3454 50.81L42.1952 52.4462C43.4725 53.3441 45.2965 52.1424 44.7628 50.5532L42.8668 51.1899ZM43.0823 48.0802C42.4818 48.5023 42.2218 49.269 42.4582 49.9731L44.3542 49.3365C44.4032 49.4824 44.3467 49.636 44.2325 49.7163L43.0823 48.0802ZM44.3184 47.9375C44.2652 47.9375 44.1932 47.9178 44.129 47.8688C44.0706 47.8241 44.0351 47.768 44.0173 47.7136C43.9996 47.6592 43.9943 47.5899 44.0172 47.5144C44.0424 47.4314 44.0933 47.3694 44.14 47.3366L45.2902 48.9728C46.6605 48.0094 45.9203 45.9375 44.3184 45.9375L44.3184 47.9375ZM41.391 46.7952C41.6229 47.4857 42.2717 47.9375 42.9869 47.9375L42.9869 45.9375C43.1134 45.9375 43.2398 46.0179 43.287 46.1585L41.391 46.7952ZM42.868 44.9108C42.3566 43.3878 40.1879 43.3878 39.6764 44.9108L41.5724 45.5475C41.5523 45.6073 41.5061 45.6713 41.44 45.7155C41.3804 45.7553 41.3209 45.7686 41.2722 45.7686C41.2235 45.7686 41.1641 45.7553 41.1044 45.7155C41.0383 45.6713 40.9921 45.6073 40.9721 45.5475L42.868 44.9108Z" fill="url(#paint1_linear)" mask="url(#path-23-inside-1)"/>
<defs>
<linearGradient id="paint0_linear" x1="31.9646" y1="-2.72682" x2="-8.82589" y2="28.1606" gradientUnits="userSpaceOnUse">
<stop stop-color="#3CE700"/>
<stop offset="0.567708" stop-color="#0BC91E"/>
</linearGradient>
<linearGradient id="paint1_linear" x1="39.0587" y1="44.2874" x2="34.6623" y2="57.8154" gradientUnits="userSpaceOnUse">
<stop stop-color="#3CE700"/>
<stop offset="0.567708" stop-color="#0BC91E"/>
</linearGradient>
</defs>
</svg>
