<svg width="115" height="120" viewBox="0 0 115 120" fill="none" xmlns="http://www.w3.org/2000/svg">
<g clip-path="url(#clip0)">
<circle cx="57.5" cy="61.5" r="56" fill="white" stroke="#D1D1D1"/>
<path d="M101.73 56.5427C101.838 57.5235 101.914 58.5139 101.957 59.5129L101.457 59.5346C101.486 60.1861 101.5 60.8414 101.5 61.5C101.5 62.1586 101.486 62.8139 101.457 63.4654L101.957 63.4871C101.914 64.4861 101.838 65.4765 101.73 66.4573L101.233 66.4028C101.089 67.7144 100.889 69.0085 100.633 70.2825L101.124 70.3807C100.928 71.3597 100.7 72.327 100.441 73.2815L99.9588 73.1508C99.6148 74.4213 99.2159 75.6688 98.7649 76.8905L99.2339 77.0637C98.8888 77.9986 98.5134 78.9186 98.1091 79.8225L97.6527 79.6183C97.1162 80.8176 96.5282 81.9882 95.8913 83.1273L96.3278 83.3713C95.8422 84.2398 95.3286 85.0901 94.7882 85.9211L94.3691 85.6485C93.6539 86.7482 92.8912 87.8136 92.0841 88.8417L92.4774 89.1505C91.8636 89.9322 91.2244 90.6926 90.561 91.4304L90.1892 91.0961C89.3132 92.0703 88.3945 93.0046 87.4362 93.8959L87.7768 94.262C87.0496 94.9384 86.2999 95.5902 85.5289 96.2164L85.2137 95.8283C84.1982 96.653 83.1453 97.4326 82.058 98.164L82.3371 98.5789C81.5141 99.1325 80.6717 99.6589 79.811 100.157L79.5606 99.7238C78.4302 100.378 77.268 100.982 76.077 101.533L76.2869 101.987C75.3879 102.403 74.4726 102.789 73.5422 103.144L73.3638 102.677C72.1467 103.142 70.9036 103.553 69.6373 103.908L69.7722 104.389C68.8195 104.656 67.8539 104.892 66.8765 105.094L66.775 104.604C65.5029 104.868 64.2105 105.075 62.9004 105.224L62.9567 105.721C61.9762 105.832 60.9859 105.911 59.9869 105.955L59.9645 105.456C59.3133 105.485 58.6584 105.5 58 105.5C57.3416 105.5 56.6867 105.485 56.0355 105.456L56.0131 105.955C55.0141 105.911 54.0238 105.832 53.0433 105.721L53.0996 105.224C51.7895 105.075 50.4971 104.868 49.225 104.604L49.1235 105.094C48.1461 104.892 47.1805 104.656 46.2278 104.389L46.3627 103.908C45.0964 103.553 43.8533 103.142 42.6362 102.677L42.4578 103.144C41.5274 102.789 40.6121 102.403 39.7131 101.987L39.923 101.533C38.732 100.982 37.5698 100.378 36.4394 99.7238L36.189 100.157C35.3283 99.6589 34.4859 99.1325 33.6629 98.5789L33.942 98.164C32.8547 97.4326 31.8018 96.653 30.7863 95.8283L30.4711 96.2164C29.7001 95.5902 28.9504 94.9384 28.2232 94.262L28.5638 93.8959C27.6055 93.0046 26.6868 92.0703 25.8108 91.0961L25.439 91.4304C24.7756 90.6926 24.1364 89.9322 23.5226 89.1505L23.9159 88.8417C23.1088 87.8136 22.3461 86.7482 21.6309 85.6485L21.2118 85.9211C20.6714 85.0901 20.1578 84.2398 19.6722 83.3713L20.1087 83.1273C19.4718 81.9882 18.8838 80.8176 18.3473 79.6183L17.8909 79.8225C17.4866 78.9186 17.1112 77.9986 16.7661 77.0637L17.2352 76.8905C16.7841 75.6688 16.3852 74.4213 16.0412 73.1508L15.5586 73.2815C15.3002 72.327 15.0723 71.3597 14.8763 70.3807L15.3666 70.2825C15.1114 69.0085 14.9107 67.7144 14.767 66.4029L14.27 66.4573C14.1625 65.4765 14.0865 64.4861 14.0431 63.4871L14.5426 63.4654C14.5143 62.8139 14.5 62.1586 14.5 61.5C14.5 60.8414 14.5143 60.1861 14.5426 59.5346L14.0431 59.5129C14.0865 58.5139 14.1625 57.5235 14.2699 56.5427L14.767 56.5972C14.9107 55.2856 15.1114 53.9915 15.3666 52.7175L14.8763 52.6193C15.0723 51.6403 15.3001 50.673 15.5586 49.7185L16.0412 49.8492C16.3852 48.5787 16.7841 47.3312 17.2351 46.1095L16.7661 45.9363C17.1112 45.0014 17.4866 44.0814 17.8909 43.1775L18.3473 43.3817C18.8838 42.1824 19.4718 41.0118 20.1087 39.8727L19.6722 39.6287C20.1578 38.7602 20.6714 37.9099 21.2118 37.0789L21.6309 37.3515C22.3461 36.2518 23.1088 35.1864 23.9159 34.1583L23.5226 33.8495C24.1364 33.0678 24.7756 32.3074 25.439 31.5696L25.8108 31.9039C26.6868 30.9297 27.6055 29.9954 28.5638 29.1041L28.2232 28.738C28.9504 28.0616 29.7001 27.4098 30.4711 26.7836L30.7863 27.1717C31.8018 26.347 32.8547 25.5674 33.942 24.836L33.6629 24.4211C34.4859 23.8675 35.3283 23.3411 36.189 22.8433L36.4394 23.2762C37.5698 22.6224 38.732 22.0184 39.923 21.4672L39.7131 21.0135C40.6121 20.5974 41.5274 20.2111 42.4578 19.8558L42.6362 20.3229C43.8533 19.858 45.0964 19.4468 46.3627 19.0921L46.2278 18.6106C47.1805 18.3437 48.1461 18.1084 49.1235 17.9059L49.225 18.3955C50.4971 18.132 51.7895 17.9246 53.0996 17.776L53.0433 17.2792C54.0238 17.1681 55.0141 17.0895 56.0131 17.0446L56.0355 17.5441C56.6867 17.5148 57.3416 17.5 58 17.5C58.6584 17.5 59.3133 17.5148 59.9645 17.5441L59.9869 17.0446C60.9859 17.0895 61.9762 17.1681 62.9567 17.2792L62.9004 17.776C64.2105 17.9246 65.5029 18.132 66.775 18.3955L66.8765 17.9059C67.8539 18.1084 68.8195 18.3437 69.7722 18.6106L69.6373 19.0921C70.9036 19.4468 72.1467 19.858 73.3638 20.3229L73.5422 19.8558C74.4726 20.2111 75.3879 20.5974 76.2869 21.0135L76.077 21.4672C77.268 22.0184 78.4302 22.6224 79.5606 23.2762L79.811 22.8433C80.6717 23.3411 81.5141 23.8675 82.3371 24.4211L82.058 24.836C83.1453 25.5674 84.1982 26.347 85.2137 27.1717L85.5289 26.7836C86.2999 27.4098 87.0496 28.0616 87.7768 28.738L87.4362 29.1041C88.3945 29.9954 89.3132 30.9297 90.1892 31.9039L90.561 31.5696C91.2244 32.3074 91.8636 33.0678 92.4774 33.8495L92.0841 34.1583C92.8912 35.1864 93.6539 36.2518 94.3691 37.3515L94.7882 37.0789C95.3286 37.9099 95.8422 38.7602 96.3278 39.6287L95.8913 39.8727C96.5282 41.0118 97.1162 42.1824 97.6527 43.3817L98.1091 43.1775C98.5134 44.0814 98.8888 45.0014 99.2339 45.9363L98.7648 46.1095C99.2159 47.3312 99.6148 48.5787 99.9588 49.8492L100.441 49.7185C100.7 50.673 100.928 51.6403 101.124 52.6193L100.633 52.7175C100.889 53.9915 101.089 55.2856 101.233 56.5971L101.73 56.5427Z" stroke="#D1D1D1" stroke-dasharray="4 3"/>
<ellipse cx="26.5" cy="31" rx="5.5" ry="5" fill="white"/>
<ellipse cx="110.053" cy="44.7671" rx="5" ry="6.77245" transform="rotate(-11.1726 110.053 44.7671)" fill="white"/>
<ellipse cx="97.5" cy="43" rx="4.5" ry="4" fill="white"/>
<circle cx="24.5" cy="92.5" r="4.5" fill="white"/>
<circle r="4" transform="matrix(-1 0 0 1 74 9)" fill="white"/>
<ellipse cx="11.1137" cy="94.1137" rx="4.11365" ry="4.11366" fill="white"/>
<path d="M26.2561 28.6421C26.3825 27.786 27.6175 27.786 27.7439 28.6421L27.87 29.4959C27.9185 29.824 28.176 30.0815 28.5041 30.13L29.3579 30.2561C30.214 30.3825 30.214 31.6175 29.3579 31.7439L28.5041 31.87C28.176 31.9185 27.9185 32.176 27.87 32.5041L27.7439 33.3579C27.6175 34.214 26.3825 34.214 26.2561 33.3579L26.13 32.5041C26.0815 32.176 25.824 31.9185 25.4959 31.87L24.6421 31.7439C23.786 31.6175 23.786 30.3825 24.6421 30.2561L25.4959 30.13C25.824 30.0815 26.0815 29.824 26.13 29.4959L26.2561 28.6421Z" fill="#C4C4C4"/>
<path d="M109.384 40.9632C109.574 39.6789 111.426 39.6789 111.616 40.9632L111.805 42.2439C111.878 42.7359 112.264 43.1223 112.756 43.195L114.037 43.3841C115.321 43.5738 115.321 45.4262 114.037 45.6159L112.756 45.805C112.264 45.8777 111.878 46.2641 111.805 46.7561L111.616 48.0368C111.426 49.3211 109.574 49.321 109.384 48.0368L109.195 46.7561C109.122 46.2641 108.736 45.8777 108.244 45.805L106.963 45.6159C105.679 45.4262 105.679 43.5738 106.963 43.3841L108.244 43.195C108.736 43.1223 109.122 42.7359 109.195 42.2439L109.384 40.9632Z" fill="#C4C4C4"/>
<path d="M3.36595 17.958C3.55461 16.6807 5.39702 16.6807 5.58568 17.958L5.77383 19.2319C5.84612 19.7212 6.23039 20.1055 6.71977 20.1778L7.99365 20.3659C9.27095 20.5546 9.27095 22.397 7.99365 22.5857L6.71977 22.7738C6.23039 22.8461 5.84612 23.2304 5.77383 23.7198L5.58568 24.9936C5.39702 26.2709 3.55461 26.2709 3.36595 24.9936L3.1778 23.7198C3.10551 23.2304 2.72124 22.8461 2.23186 22.7738L0.957976 22.5857C-0.319326 22.397 -0.319325 20.5546 0.957977 20.3659L2.23186 20.1778C2.72124 20.1055 3.10551 19.7212 3.1778 19.2319L3.36595 17.958Z" fill="#C4C4C4"/>
<path d="M69.4257 -5.04617C69.5439 -5.84659 70.6984 -5.84659 70.8166 -5.04617L70.9345 -4.24789C70.9798 -3.94123 71.2206 -3.70042 71.5273 -3.65512L72.3256 -3.53722C73.126 -3.41899 73.126 -2.26445 72.3256 -2.14623L71.5273 -2.02832C71.2206 -1.98302 70.9798 -1.74222 70.9345 -1.43555L70.8166 -0.637271C70.6984 0.163148 69.5439 0.163147 69.4257 -0.637272L69.3077 -1.43555C69.2625 -1.74222 69.0216 -1.98302 68.715 -2.02832L67.9167 -2.14623C67.1163 -2.26445 67.1163 -3.41899 67.9167 -3.53722L68.715 -3.65512C69.0216 -3.70042 69.2625 -3.94123 69.3077 -4.24789L69.4257 -5.04617Z" fill="#C4C4C4"/>
<circle cx="24.5" cy="91.5" r="1.5" fill="#C4C4C4"/>
<ellipse cx="109.15" cy="115.15" rx="2.15032" ry="2.15032" fill="#C4C4C4"/>
<ellipse cx="7.15032" cy="114.15" rx="2.15032" ry="2.15032" fill="#C4C4C4"/>
<circle cx="112" cy="99" r="2" fill="#C4C4C4"/>
<circle cx="96.5" cy="43.5" r="1.5" fill="#C4C4C4"/>
<circle cx="107.5" cy="67.5" r="1.5" fill="#C4C4C4"/>
<circle cx="24.5" cy="7.5" r="1.5" fill="#C4C4C4"/>
<path d="M93.3128 41.9616C89.1218 47.412 80.1711 47.5604 74.0147 42.8265C67.8584 38.0927 65.2211 29.0339 69.4121 23.5835C73.6031 18.1331 70.876 10.1767 89.1917 23.0889C108.992 37.048 97.5038 36.5112 93.3128 41.9616Z" fill="white"/>
<circle opacity="0.05" cx="57.8712" cy="61.5744" r="33.9376" fill="#0500FF"/>
<path d="M55.996 61.2148C55.8707 59.8275 55.9187 58.8593 55.9187 57.5916C56.5453 57.262 57.668 55.1604 57.8577 53.385C58.3503 53.3446 59.1271 52.8626 59.3545 50.9598C59.4773 49.9383 58.9898 49.3634 58.6928 49.1827C59.4945 46.7653 61.1596 39.2866 55.6132 38.5138C55.0424 37.5086 53.5807 37 51.6812 37C44.0817 37.1403 43.165 42.754 44.831 49.1827C44.5349 49.3634 44.0474 49.9383 44.1693 50.9598C44.3976 52.8626 45.1735 53.3446 45.6662 53.385C45.855 55.1596 47.0223 57.262 47.6506 57.5916C47.6506 58.8593 47.6978 59.8275 47.5725 61.2148C46.1595 65.0235 37.1163 64.2489 35.6406 70.6269C35.4636 71.392 35.975 72.1179 36.7227 72.3522C49.3836 76.3192 56.4379 76.511 66.9286 72.406C67.6128 72.1383 68.0611 71.4451 67.9057 70.7254C66.5058 64.2409 57.4162 65.0429 55.996 61.2148Z" fill="white"/>
<path d="M55.996 61.2148L55.498 61.2597L55.504 61.3262L55.5272 61.3887L55.996 61.2148ZM55.9187 57.5916L55.6859 57.1491L55.4187 57.2897V57.5916H55.9187ZM57.8577 53.385L57.8167 52.8867L57.4044 52.9205L57.3605 53.3319L57.8577 53.385ZM59.3545 50.9598L58.8581 50.9002L58.8581 50.9005L59.3545 50.9598ZM58.6928 49.1827L58.2182 49.0253L58.093 49.403L58.4329 49.6098L58.6928 49.1827ZM55.6132 38.5138L55.1784 38.7607L55.3001 38.975L55.5442 39.009L55.6132 38.5138ZM51.6812 37V36.4999L51.672 36.5001L51.6812 37ZM44.831 49.1827L45.0915 49.6095L45.4081 49.4163L45.315 49.0573L44.831 49.1827ZM44.1693 50.9598L43.6728 51.0191L43.6728 51.0194L44.1693 50.9598ZM45.6662 53.385L46.1634 53.3321L46.1196 52.9205L45.7071 52.8867L45.6662 53.385ZM47.6506 57.5916H48.1506V57.2893L47.8829 57.1489L47.6506 57.5916ZM47.5725 61.2148L48.0413 61.3887L48.0644 61.3262L48.0704 61.2597L47.5725 61.2148ZM66.9286 72.406L67.1108 72.8716L66.9286 72.406ZM67.9057 70.7254L68.3945 70.6199L67.9057 70.7254ZM35.6406 70.6269L35.1535 70.5142L35.6406 70.6269ZM36.7227 72.3522L36.8722 71.875L36.7227 72.3522ZM56.4939 61.1698C56.3713 59.8121 56.4187 58.8812 56.4187 57.5916H55.4187C55.4187 58.8374 55.37 59.8428 55.498 61.2597L56.4939 61.1698ZM56.1515 58.0341C56.416 57.895 56.6599 57.6204 56.8643 57.3382C57.0814 57.0384 57.3008 56.663 57.5018 56.2488C57.9019 55.4245 58.2522 54.3987 58.3548 53.4381L57.3605 53.3319C57.2734 54.1467 56.9675 55.0594 56.6022 55.8122C56.4205 56.1865 56.2299 56.5093 56.0544 56.7517C55.8661 57.0117 55.7347 57.1235 55.6859 57.1491L56.1515 58.0341ZM57.8986 53.8833C58.7377 53.8144 59.6109 53.0283 59.851 51.0192L58.8581 50.9005C58.6433 52.697 57.9629 52.8747 57.8167 52.8867L57.8986 53.8833ZM59.851 51.0195C59.9973 49.8016 59.4156 49.0372 58.9527 48.7556L58.4329 49.6098C58.5639 49.6896 58.9573 50.075 58.8581 50.9002L59.851 51.0195ZM59.1674 49.3401C59.5771 48.1045 60.2163 45.5572 60.032 43.1927C59.9396 42.0074 59.6371 40.8235 58.9525 39.8744C58.2561 38.9089 57.1948 38.2293 55.6822 38.0186L55.5442 39.009C56.8048 39.1847 57.6152 39.7297 58.1415 40.4594C58.6795 41.2054 58.9506 42.1872 59.035 43.2704C59.2043 45.4427 58.6101 47.8434 58.2182 49.0253L59.1674 49.3401ZM56.048 38.2669C55.6875 37.632 55.0669 37.1915 54.321 36.9118C53.5747 36.632 52.6712 36.5 51.6812 36.5V37.5C52.5907 37.5 53.3677 37.6223 53.9699 37.8481C54.5724 38.074 54.9681 38.3904 55.1784 38.7607L56.048 38.2669ZM51.672 36.5001C49.7131 36.5362 48.1426 36.9257 46.922 37.6248C45.695 38.3277 44.8492 39.3281 44.3233 40.5332C43.2837 42.9153 43.5061 46.0632 44.347 49.3081L45.315 49.0573C44.49 45.8735 44.3377 43.0002 45.2398 40.9332C45.6847 39.9137 46.3889 39.0826 47.4191 38.4926C48.4557 37.8988 49.8496 37.5339 51.6905 37.4999L51.672 36.5001ZM44.5705 48.7559C44.1091 49.0375 43.5275 49.8014 43.6728 51.0191L44.6657 50.9006C44.5673 50.0752 44.9607 49.6893 45.0915 49.6095L44.5705 48.7559ZM43.6728 51.0194C43.9138 53.028 44.7859 53.8144 45.6252 53.8833L45.7071 52.8867C45.561 52.8747 44.8813 52.6972 44.6657 50.9003L43.6728 51.0194ZM45.169 53.4379C45.2715 54.4017 45.6346 55.4295 46.0463 56.2536C46.2533 56.668 46.4786 57.043 46.7001 57.3423C46.9089 57.6243 47.1555 57.8965 47.4183 58.0344L47.8829 57.1489C47.8315 57.1219 47.6966 57.0077 47.5039 56.7474C47.3239 56.5043 47.1278 56.181 46.9409 55.8067C46.5646 55.0536 46.2496 54.1429 46.1634 53.3321L45.169 53.4379ZM47.1506 57.5916C47.1506 58.8807 47.1971 59.8121 47.0745 61.1698L48.0704 61.2597C48.1984 59.8429 48.1506 58.8379 48.1506 57.5916H47.1506ZM47.1037 61.0408C46.8157 61.8172 46.1221 62.4082 45.0868 62.9528C44.0446 63.501 42.7875 63.94 41.4397 64.495C38.814 65.5763 35.9528 67.0596 35.1535 70.5142L36.1278 70.7397C36.8041 67.8163 39.2023 66.4979 41.8205 65.4197C43.0945 64.895 44.4554 64.4149 45.5523 63.8378C46.6561 63.2572 47.6228 62.5166 48.0413 61.3887L47.1037 61.0408ZM36.5732 72.8293C42.9228 74.8188 47.9063 75.8749 52.6362 75.9061C57.374 75.9373 61.8244 74.9402 67.1108 72.8716L66.7464 71.9404C61.5421 73.9768 57.22 74.9363 52.6428 74.9061C48.0576 74.8759 43.1835 73.8525 36.8722 71.875L36.5732 72.8293ZM68.3945 70.6199C67.6365 67.1088 64.7817 65.6035 62.15 64.5121C60.7991 63.9519 59.5392 63.5119 58.4918 62.9614C57.4521 62.4148 56.7545 61.8219 56.4647 61.0408L55.5272 61.3887C55.9475 62.5217 56.9187 63.2642 58.0265 63.8465C59.1266 64.4248 60.4929 64.9075 61.7669 65.4358C64.3851 66.5216 66.7751 67.8574 67.417 70.8309L68.3945 70.6199ZM67.1108 72.8716C67.9831 72.5303 68.6103 71.6195 68.3945 70.6199L67.417 70.8309C67.512 71.2708 67.2426 71.7462 66.7464 71.9404L67.1108 72.8716ZM35.1535 70.5142C34.9063 71.5825 35.6266 72.5327 36.5732 72.8293L36.8722 71.875C36.3234 71.7031 36.0209 71.2016 36.1278 70.7397L35.1535 70.5142Z" fill="#0500FF"/>
<path d="M29.4534 67.3709C29.5779 65.9915 29.5301 65.0287 29.5301 63.7682C28.9077 63.4405 27.7926 61.3508 27.6042 59.5854C27.1148 59.5452 26.3433 59.066 26.1173 57.1739C25.9954 56.1582 26.4797 55.5865 26.7747 55.4068C25.9784 53.003 24.3244 45.5667 29.8336 44.7982C30.4006 43.7987 31.8525 43.293 33.7392 43.293C41.2877 43.4325 42.1982 49.0144 40.5434 55.4068C40.8375 55.5865 41.3218 56.1582 41.2007 57.1739C40.9739 59.066 40.2032 59.5452 39.7139 59.5854C39.5263 61.3499 38.3668 63.4405 37.7428 63.7682C37.7428 65.0287 37.6959 65.9915 37.8203 67.3709C39.2238 71.1581 48.2063 70.3879 49.6721 76.7299C49.8479 77.4907 49.34 78.2124 48.5973 78.4454C36.0214 82.39 29.0144 82.5807 18.5941 78.4989C17.9145 78.2327 17.4692 77.5435 17.6235 76.8278C19.0141 70.3799 28.0427 71.1775 29.4534 67.3709Z" fill="white"/>
<path d="M29.4534 67.3709L29.9514 67.4158L29.9454 67.4822L29.9222 67.5447L29.4534 67.3709ZM29.5301 63.7682L29.7631 63.3258L30.0301 63.4665V63.7682H29.5301ZM27.6042 59.5854L27.6451 59.0871L28.0575 59.121L28.1014 59.5323L27.6042 59.5854ZM26.1173 57.1739L26.6138 57.1143L26.6138 57.1146L26.1173 57.1739ZM26.7747 55.4068L27.2493 55.2496L27.3743 55.627L27.0348 55.8338L26.7747 55.4068ZM29.8336 44.7982L30.2685 45.0449L30.1469 45.2594L29.9027 45.2934L29.8336 44.7982ZM33.7392 43.293V42.7929L33.7484 42.7931L33.7392 43.293ZM40.5434 55.4068L40.2827 55.8335L39.9665 55.6403L40.0594 55.2815L40.5434 55.4068ZM41.2007 57.1739L41.6972 57.2331L41.6972 57.2334L41.2007 57.1739ZM39.7139 59.5854L39.2167 59.5325L39.2604 59.121L39.6729 59.0871L39.7139 59.5854ZM37.7428 63.7682H37.2428V63.4661L37.5103 63.3256L37.7428 63.7682ZM37.8203 67.3709L37.3515 67.5447L37.3284 67.4822L37.3224 67.4158L37.8203 67.3709ZM18.5941 78.4989L18.4117 78.9645L18.5941 78.4989ZM17.6235 76.8278L17.1348 76.7224L17.6235 76.8278ZM49.6721 76.7299L50.1593 76.6173L49.6721 76.7299ZM48.5973 78.4454L48.4477 77.9683H48.4477L48.5973 78.4454ZM28.9554 67.326C29.0772 65.9761 29.0301 65.0506 29.0301 63.7682H30.0301C30.0301 65.0069 30.0785 66.0068 29.9514 67.4158L28.9554 67.326ZM29.2971 64.2106C29.0336 64.0719 28.791 63.7984 28.588 63.5177C28.3722 63.2194 28.1542 62.846 27.9545 62.4341C27.557 61.6142 27.209 60.5939 27.107 59.6385L28.1014 59.5323C28.1878 60.3422 28.4915 61.2495 28.8543 61.9978C29.0348 62.37 29.224 62.6908 29.3982 62.9316C29.5852 63.1901 29.7154 63.3007 29.7631 63.3258L29.2971 64.2106ZM27.5632 60.0837C26.7271 60.015 25.8594 59.2311 25.6209 57.2332L26.6138 57.1146C26.8271 58.9008 27.5025 59.0754 27.6451 59.0871L27.5632 60.0837ZM25.6209 57.2335C25.4755 56.0217 26.0536 55.2606 26.5145 54.9798L27.0348 55.8338C26.9057 55.9124 26.5154 56.2946 26.6138 57.1143L25.6209 57.2335ZM26.3 55.564C25.893 54.3353 25.258 51.8021 25.4411 49.4505C25.5329 48.2716 25.8334 47.094 26.5138 46.1497C27.206 45.189 28.2611 44.5127 29.7645 44.303L29.9027 45.2934C28.6515 45.4679 27.8474 46.0094 27.3252 46.7343C26.7911 47.4755 26.5219 48.4513 26.4381 49.5281C26.2699 51.6877 26.86 54.0745 27.2493 55.2496L26.3 55.564ZM29.3987 44.5515C29.7572 43.9195 30.3743 43.481 31.1158 43.2027C31.8576 42.9242 32.7555 42.793 33.7392 42.793V43.793C32.8361 43.793 32.0648 43.9146 31.4672 44.1389C30.8693 44.3633 30.477 44.6774 30.2685 45.0449L29.3987 44.5515ZM33.7484 42.7931C35.6946 42.829 37.2552 43.2164 38.4683 43.9119C39.6878 44.6112 40.5283 45.6065 41.0509 46.8052C42.0838 49.1746 41.8628 52.3054 41.0274 55.5321L40.0594 55.2815C40.8788 52.1159 41.0299 49.2594 40.1342 47.2049C39.6924 46.1916 38.9934 45.3658 37.9708 44.7794C36.9419 44.1894 35.558 43.8267 33.7299 43.7929L33.7484 42.7931ZM40.8041 54.9801C41.2635 55.2609 41.8416 56.0215 41.6972 57.2331L40.7042 57.1147C40.8019 56.2949 40.4115 55.9122 40.2827 55.8335L40.8041 54.9801ZM41.6972 57.2334C41.4577 59.2309 40.5911 60.015 39.7548 60.0837L39.6729 59.0871C39.8153 59.0754 40.4901 58.901 40.7043 57.1144L41.6972 57.2334ZM40.2111 59.6382C40.1092 60.5969 39.7484 61.6192 39.3394 62.4389C39.1337 62.851 38.9098 63.2241 38.6897 63.5218C38.4823 63.8023 38.237 64.0735 37.9752 64.2109L37.5103 63.3256C37.5606 63.2992 37.6942 63.1861 37.8856 62.9273C38.0642 62.6857 38.2589 62.3644 38.4446 61.9924C38.8182 61.2436 39.131 60.3384 39.2167 59.5325L40.2111 59.6382ZM38.2428 63.7682C38.2428 65.0501 38.1965 65.9761 38.3183 67.326L37.3224 67.4158C37.1952 66.0068 37.2428 65.0074 37.2428 63.7682H38.2428ZM38.2892 67.1972C38.5749 67.9682 39.2631 68.5553 40.2911 69.0967C41.3261 69.6418 42.5744 70.0781 43.9134 70.6301C46.5216 71.7053 49.365 73.1808 50.1593 76.6173L49.1849 76.8425C48.5134 73.9371 46.1327 72.6266 43.5323 71.5546C42.2671 71.033 40.915 70.5554 39.8252 69.9815C38.7285 69.404 37.7675 68.6672 37.3515 67.5447L38.2892 67.1972ZM48.747 78.9225C42.4398 80.9008 37.4893 81.951 32.7906 81.982C28.084 82.0131 23.6629 81.0214 18.4117 78.9645L18.7765 78.0333C23.9455 80.0582 28.2382 81.012 32.784 80.982C37.3379 80.952 42.1789 79.9346 48.4477 77.9683L48.747 78.9225ZM17.1348 76.7224C17.888 73.2298 20.725 71.7324 23.3392 70.6471C24.6813 70.0899 25.9324 69.6526 26.9725 69.1052C28.005 68.5619 28.6971 67.9728 28.9845 67.1972L29.9222 67.5447C29.5043 68.6723 28.5389 69.411 27.4382 69.9902C26.3453 70.5654 24.9878 71.0454 23.7226 71.5707C21.1222 72.6502 18.7496 73.9779 18.1123 76.9332L17.1348 76.7224ZM18.4117 78.9645C17.5438 78.6245 16.9202 77.7175 17.1348 76.7224L18.1123 76.9332C18.0182 77.3694 18.2852 77.8409 18.7765 78.0333L18.4117 78.9645ZM50.1593 76.6173C50.405 77.6808 49.6888 78.627 48.747 78.9225L48.4477 77.9683C48.9911 77.7978 49.2908 77.3006 49.1849 76.8425L50.1593 76.6173Z" fill="#0500FF"/>
<path d="M75.4651 62.5175C75.5896 61.1302 75.5418 60.162 75.5418 58.8944C74.9194 58.5647 73.8043 56.4632 73.6159 54.6877C73.1265 54.6473 72.355 54.1653 72.129 52.2626C72.0071 51.241 72.4914 50.6661 72.7864 50.4854C71.9901 48.068 70.3361 40.5894 75.8453 39.8165C76.4123 38.8114 77.8642 38.3027 79.7509 38.3027C87.2994 38.443 88.2099 44.0567 86.5551 50.4854C86.8492 50.6661 87.3335 51.241 87.2124 52.2626C86.9856 54.1653 86.2149 54.6473 85.7256 54.6877C85.538 56.4623 84.3785 58.5647 83.7545 58.8944C83.7545 60.162 83.7076 61.1302 83.832 62.5175C85.2355 66.3262 94.2181 65.5517 95.6838 71.9297C95.8596 72.6948 95.3517 73.4206 94.609 73.6549C82.0331 77.6219 75.0261 77.8137 64.6058 73.7087C63.9262 73.441 63.4809 72.7479 63.6352 72.0281C65.0257 65.5436 74.0544 66.3457 75.4651 62.5175Z" fill="white"/>
<path d="M75.4651 62.5175L75.9631 62.5622L75.9572 62.6282L75.9342 62.6904L75.4651 62.5175ZM75.5418 58.8944L75.7758 58.4525L76.0418 58.5934V58.8944H75.5418ZM73.6159 54.6877L73.6571 54.1894L74.0694 54.2235L74.1131 54.635L73.6159 54.6877ZM72.129 52.2626L72.6255 52.2033L72.6255 52.2036L72.129 52.2626ZM72.7864 50.4854L73.2613 50.329L73.3851 50.705L73.0476 50.9118L72.7864 50.4854ZM75.8453 39.8165L76.2808 40.0622L76.1594 40.2774L75.9148 40.3117L75.8453 39.8165ZM79.7509 38.3027V37.8026L79.7602 37.8028L79.7509 38.3027ZM86.5551 50.4854L86.2933 50.9114L85.9789 50.7182L86.0709 50.3608L86.5551 50.4854ZM87.2124 52.2626L87.709 52.3214L87.7089 52.3217L87.2124 52.2626ZM85.7256 54.6877L85.2283 54.6352L85.2718 54.2235L85.6844 54.1894L85.7256 54.6877ZM83.7545 58.8944H83.2545V58.593L83.521 58.4522L83.7545 58.8944ZM83.832 62.5175L83.3629 62.6904L83.34 62.6282L83.334 62.5622L83.832 62.5175ZM64.6058 73.7087L64.4225 74.1739L64.6058 73.7087ZM63.6352 72.0281L63.1463 71.9233L63.6352 72.0281ZM95.6838 71.9297L96.1711 71.8177L95.6838 71.9297ZM94.609 73.6549L94.4586 73.1781L94.609 73.6549ZM74.9671 62.4728C75.0889 61.115 75.0418 60.1838 75.0418 58.8944H76.0418C76.0418 60.1403 76.0902 61.1455 75.9631 62.5622L74.9671 62.4728ZM75.3078 59.3362C75.0442 59.1966 74.8018 58.9217 74.5989 58.6396C74.3832 58.3398 74.1653 57.9644 73.9657 57.5504C73.5684 56.7261 73.2206 55.7006 73.1187 54.7405L74.1131 54.635C74.1996 55.4503 74.5036 56.3633 74.8665 57.1161C75.047 57.4905 75.2364 57.8133 75.4107 58.0557C75.5979 58.3159 75.7282 58.4273 75.7758 58.4525L75.3078 59.3362ZM73.5747 55.186C72.737 55.1168 71.8708 54.3281 71.6325 52.3215L72.6255 52.2036C72.8391 54.0026 73.516 54.1778 73.6571 54.1894L73.5747 55.186ZM71.6326 52.3218C71.4874 51.1058 72.0641 50.3415 72.5251 50.0591L73.0476 50.9118C72.9186 50.9908 72.5268 51.3762 72.6255 52.2033L71.6326 52.3218ZM72.3115 50.6418C71.9045 49.4064 71.2698 46.8595 71.4528 44.4957C71.5445 43.3108 71.8448 42.1274 72.5247 41.1784C73.2165 40.2128 74.2715 39.5324 75.7759 39.3214L75.9148 40.3117C74.6645 40.4871 73.8603 41.0313 73.3376 41.7608C72.8031 42.507 72.5337 43.4892 72.4498 44.5728C72.2815 46.7459 72.8719 49.147 73.2613 50.329L72.3115 50.6418ZM75.4098 39.5709C75.7679 38.9361 76.3846 38.495 77.1266 38.2149C77.8687 37.9348 78.767 37.8027 79.7509 37.8027V38.8027C78.848 38.8027 78.0771 38.925 77.4798 39.1505C76.8824 39.376 76.4897 39.6918 76.2808 40.0622L75.4098 39.5709ZM79.7602 37.8028C81.7068 37.839 83.2678 38.2286 84.481 38.9283C85.7007 39.6316 86.5408 40.6324 87.063 41.837C88.0953 44.2183 87.8746 47.3653 87.0393 50.6101L86.0709 50.3608C86.8905 47.1768 87.0419 44.3026 86.1455 42.2348C85.7034 41.2149 85.0039 40.3842 83.9815 39.7946C82.9527 39.2013 81.5692 38.8366 79.7416 38.8026L79.7602 37.8028ZM86.8169 50.0594C87.2764 50.3418 87.853 51.1056 87.709 52.3214L86.7159 52.2037C86.8139 51.3765 86.422 50.9905 86.2933 50.9114L86.8169 50.0594ZM87.7089 52.3217C87.4698 54.3278 86.6046 55.1168 85.7668 55.186L85.6844 54.1894C85.8252 54.1778 86.5015 54.0029 86.7159 52.2034L87.7089 52.3217ZM86.2228 54.7403C86.121 55.7036 85.7605 56.7311 85.3516 57.5551C85.146 57.9694 84.9222 58.3445 84.7022 58.6438C84.495 58.9256 84.2498 59.1982 83.988 59.3365L83.521 58.4522C83.5712 58.4257 83.705 58.3119 83.8965 58.0514C84.0753 57.8083 84.2701 57.485 84.4558 57.1107C84.8296 56.3574 85.1426 55.4465 85.2283 54.6352L86.2228 54.7403ZM84.2545 58.8944C84.2545 60.1833 84.2082 61.1149 84.33 62.4728L83.334 62.5622C83.2069 61.1455 83.2545 60.1408 83.2545 58.8944H84.2545ZM84.3012 62.3446C84.5874 63.1214 85.2763 63.712 86.3039 64.2562C87.3388 64.8043 88.5869 65.243 89.9261 65.7982C92.5352 66.8799 95.3774 68.3638 96.1711 71.8177L95.1965 72.0417C94.5245 69.1176 92.1425 67.7997 89.5431 66.722C88.278 66.1975 86.9257 65.7171 85.8359 65.1399C84.7387 64.5588 83.7784 63.818 83.3629 62.6904L84.3012 62.3446ZM94.7594 74.1317C88.4523 76.1213 83.5015 77.1776 78.8024 77.2088C74.0952 77.24 69.6739 76.2426 64.4225 74.1739L64.7891 73.2435C69.958 75.2798 74.2503 76.239 78.7957 76.2088C83.3492 76.1786 88.1899 75.1555 94.4586 73.1781L94.7594 74.1317ZM63.1463 71.9233C63.8991 68.4131 66.7348 66.9072 69.35 65.8153C70.6922 65.2549 71.9431 64.8152 72.9832 64.2647C74.0152 63.7186 74.708 63.126 74.9959 62.3446L75.9342 62.6904C75.5168 63.8231 74.5521 64.5658 73.451 65.1486C72.3579 65.7271 71.0004 66.2099 69.7352 66.7381C67.1358 67.8234 64.7619 69.1587 64.1241 72.133L63.1463 71.9233ZM64.4225 74.1739C63.5535 73.8316 62.9326 72.9202 63.1463 71.9233L64.1241 72.133C64.0292 72.5755 64.2989 73.0504 64.7891 73.2435L64.4225 74.1739ZM96.1711 71.8177C96.4159 72.883 95.7029 73.8341 94.7594 74.1317L94.4586 73.1781C95.0004 73.0071 95.3034 72.5066 95.1965 72.0417L96.1711 71.8177Z" fill="#0500FF"/>
<g opacity="0.15">
<path d="M52.5135 39.9156C51.9448 39.8876 51.3835 39.8599 51.4678 39.634C51.6073 39.2603 53.3334 38.7186 53.8374 38.9067C54.1532 39.0246 54.6724 39.3311 54.9818 39.6354C55.1164 39.7679 55.3083 39.8545 55.4961 39.8756C55.9697 39.9288 56.6132 40.2021 56.9293 40.415C57.408 40.7374 57.9744 42.6383 57.7216 43.0136C57.5688 43.2404 57.2002 42.7592 56.8268 42.2716C56.5822 41.9522 56.3356 41.6302 56.1461 41.5026C55.8603 41.3101 55.4056 40.948 55.1394 40.6076C55.0121 40.4449 54.8088 40.3269 54.6031 40.3074C54.2157 40.2706 53.7424 40.132 53.461 40.0269C53.2615 39.9525 52.8859 39.934 52.5135 39.9156Z" fill="#0500FF"/>
<path d="M53.8321 54.1043C53.8321 54.2841 53.0549 54.4298 52.0962 54.4298C51.1375 54.4298 50.3603 54.2841 50.3603 54.1043C50.3603 53.9246 51.1375 53.7789 52.0962 53.7789C53.0549 53.7789 53.8321 53.9246 53.8321 54.1043Z" fill="#0500FF"/>
<path d="M49.9028 49.4296C49.6093 49.5716 49.2411 49.656 48.8414 49.656C47.8827 49.656 47.1055 49.1703 47.1055 48.5711C47.1055 47.9719 47.8827 47.4861 48.8414 47.4861C49.0829 47.4861 49.3258 47.5016 49.5689 47.5171C49.9357 47.5405 50.3029 47.5639 50.6662 47.5342C51.0461 47.503 51.4542 47.4861 51.8792 47.4861C52.2425 47.4861 52.5936 47.4985 52.9252 47.5215C53.2357 47.5431 53.5483 47.526 53.8608 47.5089C54.0685 47.4975 54.2762 47.4861 54.483 47.4861C55.4417 47.4861 56.2189 47.9719 56.2189 48.5711C56.2189 49.1703 55.4417 49.656 54.483 49.656C53.9347 49.656 53.4457 49.4971 53.1276 49.2489C53.0723 49.2058 53.0058 49.181 52.9359 49.1859C52.7903 49.1961 52.68 49.3257 52.694 49.471C52.7282 49.8271 52.7472 50.2198 52.7472 50.6325C52.7472 51.1491 52.8135 51.5239 52.8615 51.7947C52.9638 52.3719 52.9824 52.4768 52.0962 52.4768C51.835 52.4768 51.8388 52.3573 51.8604 51.6716C51.8685 51.4134 51.8792 51.075 51.8792 50.6325C51.8792 50.2443 51.871 49.8738 51.8635 49.5349C51.8596 49.3611 51.7178 49.2222 51.544 49.2185C51.2968 49.2133 51.0566 49.2023 50.826 49.1861C50.5051 49.1637 50.1923 49.2896 49.9028 49.4296Z" fill="#0500FF"/>
</g>
<g opacity="0.15">
<path d="M39.9926 51.1154C39.789 51.461 39.2633 50.6609 38.6645 49.7494C38.1411 48.9527 37.5617 48.0709 37.0926 47.7945C36.8104 47.6284 36.4046 47.4399 35.9752 47.2404C34.8734 46.7286 33.6157 46.1445 33.8902 45.6785C34.2717 45.0309 36.7555 45.9067 37.7613 46.4992C38.7672 47.0917 40.3741 50.4678 39.9926 51.1154Z" fill="#0500FF"/>
<path d="M35.8243 60.1796C35.8243 60.3594 35.0471 60.5051 34.0884 60.5051C33.1297 60.5051 32.3525 60.3594 32.3525 60.1796C32.3525 59.9999 33.1297 59.8542 34.0884 59.8542C35.0471 59.8542 35.8243 59.9999 35.8243 60.1796Z" fill="#0500FF"/>
<path d="M31.8949 55.505C31.6015 55.6469 31.2333 55.7313 30.8336 55.7313C29.8748 55.7313 29.0977 55.2456 29.0977 54.6464C29.0977 54.0472 29.8748 53.5614 30.8336 53.5614C31.075 53.5614 31.318 53.5769 31.5611 53.5924C31.9279 53.6158 32.2951 53.6392 32.6583 53.6095C33.0382 53.5784 33.4464 53.5614 33.8714 53.5614C34.2347 53.5614 34.5858 53.5738 34.9174 53.5968C35.2279 53.6184 35.5405 53.6013 35.853 53.5842C36.0607 53.5728 36.2683 53.5614 36.4752 53.5614C37.4339 53.5614 38.2111 54.0472 38.2111 54.6464C38.2111 55.2456 37.4339 55.7313 36.4752 55.7313C35.9268 55.7313 35.4379 55.5724 35.1197 55.3242C35.0645 55.2811 34.9979 55.2563 34.9281 55.2612C34.7824 55.2714 34.6722 55.401 34.6862 55.5463C34.7204 55.9024 34.7393 56.2951 34.7393 56.7078C34.7393 57.2244 34.8057 57.5992 34.8537 57.87C34.956 58.4472 34.9745 58.5522 34.0884 58.5522C33.8272 58.5522 33.831 58.4326 33.8526 57.7469C33.8607 57.4887 33.8714 57.1503 33.8714 56.7078C33.8714 56.3196 33.8632 55.9491 33.8557 55.6102C33.8518 55.4364 33.71 55.2975 33.5361 55.2938C33.289 55.2886 33.0488 55.2776 32.8181 55.2614C32.4973 55.239 32.1845 55.3649 31.8949 55.505Z" fill="#0500FF"/>
</g>
<path d="M61.9412 69.4599C61.8167 68.0726 61.8644 67.1044 61.8644 65.8367C62.4868 65.5071 63.6019 63.4055 63.7903 61.6301C64.2797 61.5897 65.0513 61.1077 65.2772 59.2049C65.3991 58.1834 64.9149 57.6085 64.6199 57.4278C65.4162 55.0104 67.0701 47.5317 61.5609 46.7589C60.994 45.7537 59.5421 45.2451 57.6554 45.2451C50.1069 45.3854 49.1963 50.9991 50.8511 57.4278C50.557 57.6085 50.0728 58.1834 50.1938 59.2049C50.4206 61.1077 51.1913 61.5897 51.6807 61.6301C51.8682 63.4047 53.0277 65.5071 53.6518 65.8367C53.6518 67.1044 53.6987 68.0726 53.5742 69.4599C52.1707 73.2686 43.1882 72.494 41.7224 78.872C41.5466 79.6371 42.0546 80.363 42.7972 80.5973C55.3732 84.5643 62.3801 84.7561 72.8004 80.6511C73.48 80.3834 73.9253 79.6902 73.771 78.9705C72.3805 72.486 63.3518 73.288 61.9412 69.4599Z" fill="white"/>
<path d="M61.9412 69.4599L61.4432 69.5045L61.4491 69.5706L61.472 69.6327L61.9412 69.4599ZM61.8644 65.8367L61.6304 65.3949L61.3644 65.5357V65.8367H61.8644ZM63.7903 61.6301L63.7492 61.1318L63.3368 61.1659L63.2931 61.5773L63.7903 61.6301ZM65.2772 59.2049L64.7807 59.1457L64.7807 59.146L65.2772 59.2049ZM64.6199 57.4278L64.145 57.2714L64.0211 57.6473L64.3587 57.8541L64.6199 57.4278ZM61.5609 46.7589L61.1254 47.0046L61.2468 47.2197L61.4915 47.2541L61.5609 46.7589ZM57.6554 45.2451V44.745L57.6461 44.7452L57.6554 45.2451ZM50.8511 57.4278L51.1129 57.8538L51.4274 57.6606L51.3354 57.3032L50.8511 57.4278ZM50.1938 59.2049L49.6973 59.2638L49.6973 59.2641L50.1938 59.2049ZM51.6807 61.6301L52.1779 61.5776L52.1344 61.1659L51.7219 61.1318L51.6807 61.6301ZM53.6518 65.8367H54.1518V65.5354L53.8853 65.3946L53.6518 65.8367ZM53.5742 69.4599L54.0434 69.6327L54.0663 69.5706L54.0722 69.5045L53.5742 69.4599ZM72.8004 80.6511L72.9837 81.1163L72.8004 80.6511ZM73.771 78.9705L74.2599 78.8657L73.771 78.9705ZM41.7224 78.872L41.2351 78.7601L41.7224 78.872ZM42.7972 80.5973L42.9476 80.1204L42.7972 80.5973ZM62.4392 69.4152C62.3173 68.0573 62.3644 67.1261 62.3644 65.8367H61.3644C61.3644 67.0827 61.316 68.0878 61.4432 69.5045L62.4392 69.4152ZM62.0984 66.2786C62.362 66.139 62.6045 65.864 62.8073 65.582C63.023 65.2822 63.2409 64.9068 63.4405 64.4927C63.8378 63.6685 64.1857 62.643 64.2876 61.6829L63.2931 61.5773C63.2066 62.3926 62.9026 63.3056 62.5397 64.0585C62.3592 64.4329 62.1699 64.7557 61.9955 64.9981C61.8083 65.2583 61.678 65.3697 61.6304 65.3949L62.0984 66.2786ZM63.8315 62.1284C64.6692 62.0592 65.5355 61.2704 65.7737 59.2639L64.7807 59.146C64.5671 60.945 63.8902 61.1202 63.7492 61.1318L63.8315 62.1284ZM65.7737 59.2642C65.9188 58.0482 65.3421 57.2839 64.8811 57.0014L64.3587 57.8541C64.4876 57.9331 64.8794 58.3186 64.7807 59.1457L65.7737 59.2642ZM65.0948 57.5842C65.5017 56.3488 66.1365 53.8019 65.9535 51.438C65.8617 50.2532 65.5614 49.0698 64.8815 48.1208C64.1897 47.1552 63.1347 46.4748 61.6304 46.2638L61.4915 47.2541C62.7417 47.4295 63.5459 47.9737 64.0686 48.7032C64.6032 49.4494 64.8726 50.4316 64.9564 51.5152C65.1247 53.6882 64.5343 56.0894 64.145 57.2714L65.0948 57.5842ZM61.9964 46.5133C61.6384 45.8785 61.0216 45.4374 60.2796 45.1573C59.5376 44.8772 58.6392 44.7451 57.6554 44.7451V45.7451C58.5582 45.7451 59.3292 45.8674 59.9265 46.0929C60.5239 46.3184 60.9165 46.6342 61.1254 47.0046L61.9964 46.5133ZM57.6461 44.7452C55.6995 44.7814 54.1384 45.171 52.9252 45.8707C51.7056 46.574 50.8655 47.5748 50.3433 48.7794C49.311 51.1607 49.5317 54.3077 50.3669 57.5524L51.3354 57.3032C50.5158 54.1192 50.3644 51.245 51.2608 49.1772C51.7029 48.1573 52.4023 47.3265 53.4248 46.7369C54.4535 46.1437 55.837 45.779 57.6647 45.745L57.6461 44.7452ZM50.5894 57.0018C50.1298 57.2842 49.5532 58.048 49.6973 59.2638L50.6903 59.1461C50.5923 58.3189 50.9842 57.9329 51.1129 57.8538L50.5894 57.0018ZM49.6973 59.2641C49.9364 61.2702 50.8016 62.0592 51.6395 62.1284L51.7219 61.1318C51.581 61.1202 50.9048 60.9453 50.6903 59.1458L49.6973 59.2641ZM51.1834 61.6827C51.2853 62.646 51.6458 63.6735 52.0546 64.4975C52.2602 64.9118 52.484 65.2869 52.7041 65.5861C52.9113 65.868 53.1565 66.1406 53.4183 66.2789L53.8853 65.3946C53.835 65.3681 53.7013 65.2543 53.5097 64.9938C53.331 64.7507 53.1362 64.4274 52.9504 64.053C52.5767 63.2998 52.2636 62.3888 52.1779 61.5776L51.1834 61.6827ZM53.1518 65.8367C53.1518 67.1257 53.198 68.0573 53.0762 69.4152L54.0722 69.5045C54.1993 68.0879 54.1518 67.0831 54.1518 65.8367H53.1518ZM53.105 69.287C52.8188 70.0637 52.13 70.6543 51.1024 71.1985C50.0675 71.7466 48.8194 72.1854 47.4802 72.7406C44.871 73.8223 42.0289 75.3061 41.2351 78.7601L42.2097 78.984C42.8817 76.06 45.2637 74.742 47.8632 73.6643C49.1282 73.1398 50.4805 72.6594 51.5704 72.0823C52.6676 71.5012 53.6278 70.7603 54.0434 69.6327L53.105 69.287ZM42.6468 81.0741C48.954 83.0637 53.9048 84.12 58.6039 84.1512C63.311 84.1824 67.7324 83.185 72.9837 81.1163L72.6172 80.1859C67.4482 82.2221 63.1559 83.1813 58.6105 83.1512C54.0571 83.121 49.2164 82.0979 42.9476 80.1204L42.6468 81.0741ZM74.2599 78.8657C73.5072 75.3554 70.6715 73.8495 68.0563 72.7577C66.7141 72.1973 65.4631 71.7576 64.423 71.2071C63.3911 70.6609 62.6983 70.0684 62.4103 69.287L61.472 69.6327C61.8894 70.7654 62.8542 71.5082 63.9553 72.091C65.0483 72.6694 66.4059 73.1523 67.671 73.6805C70.2704 74.7657 72.6443 76.101 73.2821 79.0753L74.2599 78.8657ZM72.9837 81.1163C73.8528 80.7739 74.4737 79.8626 74.2599 78.8657L73.2821 79.0753C73.377 79.5179 73.1073 79.9928 72.6172 80.1859L72.9837 81.1163ZM41.2351 78.7601C40.9903 79.8253 41.7033 80.7765 42.6468 81.0741L42.9476 80.1204C42.4058 79.9495 42.1029 79.4489 42.2097 78.984L41.2351 78.7601Z" fill="#0500FF"/>
<g opacity="0.15">
<path d="M56.0738 47.9023C55.9295 48.1768 56.6084 48.2861 57.2963 48.3969C57.7468 48.4695 58.2012 48.5427 58.4306 48.6633C58.9225 48.922 59.9404 49.3373 60.383 49.179C60.577 49.8756 61.5272 50.8763 62.0789 51.3597C62.3642 51.6098 62.703 52.1923 63.0389 52.7699C63.5518 53.6517 64.058 54.5221 64.3574 54.1805C64.8527 53.6153 64.3189 50.3641 63.5978 49.7322C62.8999 49.1206 61.0692 48.1469 60.5034 48.5979C60.2527 48.1189 59.5252 47.5219 59.0957 47.296C58.5162 46.9913 56.3128 47.4479 56.0738 47.9023Z" fill="#0500FF"/>
<path d="M58.3892 62.4566C59.3479 62.4566 60.1251 62.3109 60.1251 62.1311C60.1251 61.9514 59.3479 61.8056 58.3892 61.8056C57.4304 61.8056 56.6533 61.9514 56.6533 62.1311C56.6533 62.3109 57.4304 62.4566 58.3892 62.4566Z" fill="#0500FF"/>
<path d="M56.1957 57.4564C55.9023 57.5983 55.5341 57.6828 55.1343 57.6828C54.1756 57.6828 53.3984 57.1971 53.3984 56.5979C53.3984 55.9987 54.1756 55.5129 55.1343 55.5129C55.3758 55.5129 55.6188 55.5284 55.8619 55.5439C56.2287 55.5673 56.5959 55.5907 56.9591 55.5609C57.339 55.5298 57.7472 55.5129 58.1722 55.5129C58.5355 55.5129 58.8865 55.5253 59.2182 55.5483C59.5287 55.5699 59.8413 55.5528 60.1538 55.5357C60.3615 55.5243 60.5691 55.5129 60.776 55.5129C61.7347 55.5129 62.5119 55.9987 62.5119 56.5979C62.5119 57.1971 61.7347 57.6828 60.776 57.6828C60.2276 57.6828 59.7386 57.5239 59.4205 57.2757C59.3653 57.2326 59.2987 57.2078 59.2289 57.2127C59.0832 57.2229 58.973 57.3524 58.987 57.4978C59.0212 57.8539 59.0401 58.2466 59.0401 58.6592C59.0401 59.1759 59.1065 59.5506 59.1545 59.8215C59.2567 60.3987 59.2753 60.5036 58.3892 60.5036C58.128 60.5036 58.1318 60.3841 58.1534 59.6984C58.1615 59.4402 58.1722 59.1018 58.1722 58.6592C58.1722 58.2711 58.164 57.9006 58.1565 57.5616C58.1526 57.3878 58.0107 57.249 57.8369 57.2453C57.5898 57.24 57.3496 57.2291 57.1189 57.2129C56.7981 57.1905 56.4852 57.3164 56.1957 57.4564Z" fill="#0500FF"/>
</g>
<path d="M74.4491 74.8837C74.3238 73.4964 74.3719 72.5282 74.3719 71.2606C74.9984 70.931 76.1211 68.8294 76.3108 67.0539C76.8035 67.0135 77.5802 66.5316 77.8077 64.6288C77.9304 63.6072 77.4429 63.0323 77.1459 62.8516C77.9476 60.4342 79.6127 52.9556 74.0663 52.1827C73.4955 51.1776 72.0338 50.6689 70.1344 50.6689C62.5348 50.8092 61.6182 56.4229 63.2842 62.8516C62.988 63.0323 62.5005 63.6072 62.6224 64.6288C62.8507 66.5316 63.6266 67.0135 64.1193 67.0539C64.3081 68.8285 65.4754 70.931 66.1037 71.2606C66.1037 72.5282 66.1509 73.4964 66.0256 74.8837C64.6126 78.6924 55.5694 77.9179 54.0938 84.2959C53.9167 85.061 54.4281 85.7868 55.1758 86.0211C67.8367 89.9881 74.8911 90.1799 85.3818 86.0749C86.066 85.8072 86.5143 85.1141 86.3589 84.3943C84.959 77.9098 75.8693 78.7119 74.4491 74.8837Z" fill="white"/>
<path d="M74.4491 74.8837L73.9511 74.9287L73.9571 74.9951L73.9803 75.0576L74.4491 74.8837ZM74.3719 71.2606L74.1391 70.8181L73.8719 70.9586V71.2606H74.3719ZM76.3108 67.0539L76.2699 66.5556L75.8576 66.5895L75.8136 67.0008L76.3108 67.0539ZM77.8077 64.6288L77.3113 64.5691L77.3112 64.5694L77.8077 64.6288ZM77.1459 62.8516L76.6714 62.6942L76.5461 63.0719L76.886 63.2787L77.1459 62.8516ZM74.0663 52.1827L73.6315 52.4296L73.7532 52.6439L73.9973 52.678L74.0663 52.1827ZM70.1344 50.6689V50.1689L70.1251 50.169L70.1344 50.6689ZM63.2842 62.8516L63.5446 63.2784L63.8612 63.0852L63.7682 62.7262L63.2842 62.8516ZM62.6224 64.6288L62.1259 64.688L62.126 64.6883L62.6224 64.6288ZM64.1193 67.0539L64.6165 67.001L64.5727 66.5895L64.1602 66.5556L64.1193 67.0539ZM66.1037 71.2606H66.6037V70.9582L66.336 70.8178L66.1037 71.2606ZM66.0256 74.8837L66.4944 75.0576L66.5176 74.9951L66.5236 74.9287L66.0256 74.8837ZM85.3818 86.0749L85.564 86.5405L85.3818 86.0749ZM86.3589 84.3943L86.8477 84.2888L86.3589 84.3943ZM54.0938 84.2959L53.6066 84.1832L54.0938 84.2959ZM55.1758 86.0211L55.3253 85.544L55.1758 86.0211ZM74.9471 74.8387C74.8245 73.4811 74.8719 72.5501 74.8719 71.2606H73.8719C73.8719 72.5064 73.8232 73.5118 73.9511 74.9287L74.9471 74.8387ZM74.6047 71.7031C74.8692 71.5639 75.1131 71.2894 75.3175 71.0071C75.5346 70.7073 75.754 70.3319 75.955 69.9177C76.355 69.0935 76.7053 68.0676 76.808 67.1071L75.8136 67.0008C75.7266 67.8157 75.4207 68.7284 75.0553 69.4811C74.8736 69.8555 74.683 70.1782 74.5075 70.4206C74.3192 70.6806 74.1878 70.7924 74.1391 70.8181L74.6047 71.7031ZM76.3517 67.5523C77.1909 67.4834 78.064 66.6972 78.3042 64.6881L77.3112 64.5694C77.0965 66.3659 76.4161 66.5436 76.2699 66.5556L76.3517 67.5523ZM78.3041 64.6884C78.4505 63.4705 77.8687 62.7062 77.4059 62.4245L76.886 63.2787C77.0171 63.3585 77.4104 63.7439 77.3113 64.5691L78.3041 64.6884ZM77.6205 63.009C78.0303 61.7734 78.6695 59.2261 78.4851 56.8616C78.3928 55.6763 78.0902 54.4925 77.4057 53.5433C76.7093 52.5778 75.6479 51.8983 74.1353 51.6875L73.9973 52.678C75.2579 52.8536 76.0683 53.3987 76.5946 54.1283C77.1327 54.8743 77.4037 55.8562 77.4882 56.9393C77.6575 59.1117 77.0633 61.5124 76.6714 62.6942L77.6205 63.009ZM74.5011 51.9359C74.1406 51.301 73.5201 50.8604 72.7741 50.5807C72.0279 50.3009 71.1243 50.1689 70.1344 50.1689V51.1689C71.0439 51.1689 71.8209 51.2913 72.423 51.5171C73.0255 51.743 73.4212 52.0593 73.6315 52.4296L74.5011 51.9359ZM70.1251 50.169C68.1663 50.2052 66.5957 50.5946 65.3752 51.2938C64.1481 51.9966 63.3024 52.9971 62.7764 54.2021C61.7368 56.5842 61.9592 59.7321 62.8001 62.9771L63.7682 62.7262C62.9431 59.5424 62.7909 56.6691 63.693 54.6021C64.1379 53.5826 64.8421 52.7516 65.8722 52.1615C66.9088 51.5677 68.3027 51.2028 70.1436 51.1689L70.1251 50.169ZM63.0237 62.4248C62.5623 62.7064 61.9806 63.4703 62.1259 64.688L63.1189 64.5695C63.0204 63.7442 63.4138 63.3583 63.5446 63.2784L63.0237 62.4248ZM62.126 64.6883C62.367 66.697 63.2391 67.4834 64.0784 67.5523L64.1602 66.5556C64.0142 66.5436 63.3344 66.3662 63.1188 64.5692L62.126 64.6883ZM63.6221 67.1068C63.7247 68.0706 64.0877 69.0985 64.4994 69.9226C64.7064 70.3369 64.9317 70.712 65.1533 71.0113C65.362 71.2933 65.6087 71.5655 65.8714 71.7033L66.336 70.8178C66.2846 70.7908 66.1497 70.6766 65.957 70.4163C65.7771 70.1732 65.581 69.8499 65.394 69.4757C65.0178 68.7225 64.7028 67.8118 64.6165 67.001L63.6221 67.1068ZM65.6037 71.2606C65.6037 72.5496 65.6503 73.481 65.5276 74.8387L66.5236 74.9287C66.6516 73.5118 66.6037 72.5068 66.6037 71.2606H65.6037ZM65.5568 74.7098C65.2688 75.4862 64.5752 76.0771 63.5399 76.6217C62.4977 77.17 61.2407 77.6089 59.8928 78.164C57.2672 79.2452 54.4059 80.7285 53.6066 84.1832L54.5809 84.4086C55.2572 81.4853 57.6554 80.1668 60.2736 79.0886C61.5476 78.564 62.9085 78.0838 64.0055 77.5067C65.1093 76.9261 66.0759 76.1856 66.4944 75.0576L65.5568 74.7098ZM55.0263 86.4982C61.3759 88.4877 66.3594 89.5438 71.0893 89.575C75.8272 89.6062 80.2776 88.6091 85.564 86.5405L85.1996 85.6093C79.9953 87.6457 75.6732 88.6052 71.0959 88.575C66.5107 88.5448 61.6366 87.5215 55.3253 85.544L55.0263 86.4982ZM86.8477 84.2888C86.0897 80.7778 83.2348 79.2724 80.6032 78.181C79.2523 77.6208 77.9923 77.1809 76.945 76.6303C75.9052 76.0837 75.2076 75.4908 74.9179 74.7098L73.9803 75.0576C74.4007 76.1907 75.3719 76.9331 76.4796 77.5154C77.5798 78.0938 78.946 78.5764 80.2201 79.1047C82.8383 80.1905 85.2282 81.5264 85.8702 84.4998L86.8477 84.2888ZM85.564 86.5405C86.4362 86.1992 87.0635 85.2884 86.8477 84.2888L85.8702 84.4998C85.9651 84.9397 85.6957 85.4152 85.1996 85.6093L85.564 86.5405ZM53.6066 84.1832C53.3595 85.2514 54.0798 86.2016 55.0263 86.4982L55.3253 85.544C54.7765 85.372 54.474 84.8705 54.5809 84.4086L53.6066 84.1832Z" fill="#0500FF"/>
<path d="M46.2381 79.0067C46.1128 77.6195 46.1609 76.6513 46.1609 75.3836C46.7875 75.054 47.9101 72.9524 48.0998 71.177C48.5925 71.1365 49.3693 70.6546 49.5967 68.7518C49.7195 67.7303 49.2319 67.1554 48.935 66.9747C49.7366 64.5572 51.4018 57.0786 45.8553 56.3058C45.2846 55.3006 43.8228 54.792 41.9234 54.792C34.3239 54.9323 33.4072 60.546 35.0732 66.9747C34.7771 67.1554 34.2896 67.7303 34.4114 68.7518C34.6398 70.6546 35.4157 71.1365 35.9083 71.177C36.0972 72.9515 37.2645 75.054 37.8928 75.3836C37.8928 76.6513 37.94 77.6195 37.8147 79.0067C36.4017 82.8154 27.3585 82.0409 25.8828 88.4189C25.7058 89.184 26.2172 89.9099 26.9649 90.1441C39.6258 94.1111 46.6801 94.303 57.1708 90.198C57.855 89.9302 58.3033 89.2371 58.1479 88.5174C56.748 82.0329 47.6583 82.8349 46.2381 79.0067Z" fill="white"/>
<path d="M46.2381 79.0067L45.7402 79.0517L45.7462 79.1181L45.7694 79.1807L46.2381 79.0067ZM46.1609 75.3836L45.9281 74.9411L45.6609 75.0817V75.3836H46.1609ZM48.0998 71.177L48.0589 70.6787L47.6466 70.7125L47.6027 71.1239L48.0998 71.177ZM49.5967 68.7518L49.1003 68.6922L49.1003 68.6925L49.5967 68.7518ZM48.935 66.9747L48.4604 66.8173L48.3351 67.195L48.675 67.4018L48.935 66.9747ZM45.8553 56.3058L45.4205 56.5527L45.5422 56.767L45.7863 56.801L45.8553 56.3058ZM41.9234 54.792V54.2919L41.9142 54.2921L41.9234 54.792ZM35.0732 66.9747L35.3337 67.4015L35.6502 67.2083L35.5572 66.8492L35.0732 66.9747ZM34.4114 68.7518L33.915 68.811L33.915 68.8114L34.4114 68.7518ZM35.9083 71.177L36.4055 71.1241L36.3617 70.7125L35.9493 70.6787L35.9083 71.177ZM37.8928 75.3836H38.3928V75.0813L38.125 74.9408L37.8928 75.3836ZM37.8147 79.0067L38.2834 79.1807L38.3066 79.1181L38.3126 79.0517L37.8147 79.0067ZM57.1708 90.198L57.353 90.6636L57.1708 90.198ZM58.1479 88.5174L58.6367 88.4119L58.1479 88.5174ZM25.8828 88.4189L26.37 88.5316L25.8828 88.4189ZM26.9649 90.1441L27.1144 89.667L26.9649 90.1441ZM46.7361 78.9618C46.6135 77.6041 46.6609 76.6731 46.6609 75.3836H45.6609C45.6609 76.6294 45.6122 77.6348 45.7402 79.0517L46.7361 78.9618ZM46.3937 75.8261C46.6582 75.6869 46.9021 75.4124 47.1065 75.1302C47.3236 74.8304 47.543 74.4549 47.744 74.0408C48.1441 73.2165 48.4944 72.1907 48.597 71.2301L47.6027 71.1239C47.5156 71.9387 47.2097 72.8514 46.8444 73.6042C46.6627 73.9785 46.4721 74.3013 46.2965 74.5437C46.1083 74.8037 45.9768 74.9155 45.9281 74.9411L46.3937 75.8261ZM48.1407 71.6753C48.9799 71.6064 49.853 70.8203 50.0932 68.8112L49.1003 68.6925C48.8855 70.489 48.2051 70.6667 48.0589 70.6787L48.1407 71.6753ZM50.0932 68.8115C50.2395 67.5936 49.6578 66.8292 49.1949 66.5475L48.675 67.4018C48.8061 67.4816 49.1994 67.867 49.1003 68.6922L50.0932 68.8115ZM49.4095 67.1321C49.8193 65.8965 50.4585 63.3492 50.2742 60.9846C50.1818 59.7993 49.8793 58.6155 49.1947 57.6664C48.4983 56.7009 47.4369 56.0213 45.9243 55.8106L45.7863 56.801C47.047 56.9767 47.8574 57.5217 48.3836 58.2514C48.9217 58.9974 49.1928 59.9792 49.2772 61.0624C49.4465 63.2347 48.8523 65.6354 48.4604 66.8173L49.4095 67.1321ZM46.2901 56.0589C45.9296 55.424 45.3091 54.9835 44.5632 54.7038C43.8169 54.424 42.9133 54.292 41.9234 54.292V55.292C42.8329 55.292 43.6099 55.4143 44.2121 55.6401C44.8146 55.866 45.2103 56.1824 45.4205 56.5527L46.2901 56.0589ZM41.9142 54.2921C39.9553 54.3282 38.3848 54.7177 37.1642 55.4168C35.9372 56.1197 35.0914 57.1201 34.5655 58.3252C33.5259 60.7073 33.7483 63.8552 34.5892 67.1001L35.5572 66.8492C34.7321 63.6655 34.5799 60.7922 35.482 58.7252C35.9269 57.7057 36.6311 56.8746 37.6613 56.2845C38.6979 55.6908 40.0917 55.3259 41.9326 55.2919L41.9142 54.2921ZM34.8127 66.5479C34.3513 66.8295 33.7697 67.5933 33.915 68.811L34.9079 68.6926C34.8094 67.8672 35.2028 67.4813 35.3337 67.4015L34.8127 66.5479ZM33.915 68.8114C34.156 70.82 35.0281 71.6064 35.8674 71.6753L35.9493 70.6787C35.8032 70.6667 35.1235 70.4892 34.9079 68.6922L33.915 68.8114ZM35.4111 71.2299C35.5137 72.1937 35.8768 73.2215 36.2885 74.0456C36.4955 74.46 36.7208 74.835 36.9423 75.1343C37.1511 75.4163 37.3977 75.6885 37.6605 75.8264L38.125 74.9408C38.0737 74.9139 37.9388 74.7997 37.7461 74.5393C37.5661 74.2962 37.37 73.973 37.183 73.5987C36.8068 72.8455 36.4918 71.9349 36.4055 71.1241L35.4111 71.2299ZM37.3928 75.3836C37.3928 76.6727 37.4393 77.6041 37.3167 78.9618L38.3126 79.0517C38.4406 77.6348 38.3928 76.6299 38.3928 75.3836H37.3928ZM37.3459 78.8328C37.0579 79.6092 36.3643 80.2001 35.3289 80.7448C34.2868 81.293 33.0297 81.732 31.6819 82.287C29.0562 83.3683 26.195 84.8515 25.3957 88.3062L26.37 88.5316C27.0463 85.6083 29.4445 84.2898 32.0626 83.2117C33.3367 82.687 34.6976 82.2068 35.7945 81.6298C36.8983 81.0491 37.865 80.3086 38.2834 79.1807L37.3459 78.8328ZM26.8154 90.6213C33.165 92.6108 38.1485 93.6669 42.8784 93.698C47.6162 93.7293 52.0666 92.7321 57.353 90.6636L56.9886 89.7323C51.7843 91.7688 47.4622 92.7282 42.885 92.6981C38.2998 92.6678 33.4257 91.6445 27.1144 89.667L26.8154 90.6213ZM58.6367 88.4119C57.8787 84.9008 55.0238 83.3954 52.3922 82.3041C51.0413 81.7439 49.7813 81.3039 48.734 80.7533C47.6942 80.2067 46.9967 79.6138 46.7069 78.8328L45.7694 79.1807C46.1897 80.3137 47.1609 81.0561 48.2687 81.6385C49.3688 82.2168 50.735 82.6994 52.0091 83.2278C54.6273 84.3136 57.0172 85.6494 57.6592 88.6229L58.6367 88.4119ZM57.353 90.6636C58.2252 90.3223 58.8525 89.4115 58.6367 88.4119L57.6592 88.6229C57.7541 89.0628 57.4847 89.5382 56.9886 89.7323L57.353 90.6636ZM25.3957 88.3062C25.1485 89.3745 25.8688 90.3247 26.8154 90.6213L27.1144 89.667C26.5656 89.4951 26.2631 88.9936 26.37 88.5316L25.3957 88.3062Z" fill="#0500FF"/>
<path d="M56.5823 87.037C56.7068 85.6497 56.659 84.6815 56.659 83.4139C56.0366 83.0843 54.9215 80.9827 54.7331 79.2073C54.2437 79.1668 53.4722 78.6849 53.2462 76.7821C53.1243 75.7606 53.6086 75.1857 53.9036 75.0049C53.1073 72.5875 51.4533 65.1089 56.9625 64.3361C57.5295 63.3309 58.9814 62.8223 60.8681 62.8223C68.4166 62.9625 69.3271 68.5762 67.6723 75.0049C67.9664 75.1857 68.4507 75.7606 68.3296 76.7821C68.1028 78.6849 67.3321 79.1668 66.8428 79.2073C66.6552 80.9818 65.4957 83.0843 64.8717 83.4139C64.8717 84.6815 64.8248 85.6497 64.9492 87.037C66.3527 90.8457 75.3353 90.0712 76.801 96.4492C76.9768 97.2143 76.4689 97.9401 75.7262 98.1744C63.1503 102.141 56.1433 102.333 45.723 98.2282C45.0434 97.9605 44.5981 97.2674 44.7524 96.5476C46.143 90.0632 55.1716 90.8652 56.5823 87.037Z" fill="white"/>
<path d="M56.5823 87.037L57.0803 87.0817L57.0744 87.1477L57.0514 87.2099L56.5823 87.037ZM56.659 83.4139L56.893 82.972L57.159 83.1129V83.4139H56.659ZM54.7331 79.2073L54.7743 78.709L55.1866 78.743L55.2303 79.1545L54.7331 79.2073ZM53.2462 76.7821L53.7427 76.7228L53.7428 76.7231L53.2462 76.7821ZM53.9036 75.0049L54.3785 74.8485L54.5023 75.2245L54.1648 75.4313L53.9036 75.0049ZM56.9625 64.3361L57.398 64.5817L57.2767 64.7969L57.032 64.8312L56.9625 64.3361ZM60.8681 62.8223V62.3222L60.8774 62.3224L60.8681 62.8223ZM67.6723 75.0049L67.4105 75.431L67.0961 75.2377L67.1881 74.8803L67.6723 75.0049ZM68.3296 76.7821L68.8261 76.8409L68.8261 76.8413L68.3296 76.7821ZM66.8428 79.2073L66.3455 79.1547L66.389 78.7431L66.8016 78.709L66.8428 79.2073ZM64.8717 83.4139H64.3717V83.1125L64.6382 82.9718L64.8717 83.4139ZM64.9492 87.037L64.4801 87.2099L64.4572 87.1477L64.4512 87.0817L64.9492 87.037ZM45.723 98.2282L45.5397 98.6934L45.723 98.2282ZM44.7524 96.5476L44.2635 96.4428L44.7524 96.5476ZM76.801 96.4492L77.2883 96.3372L76.801 96.4492ZM75.7262 98.1744L75.5758 97.6976L75.7262 98.1744ZM56.0843 86.9923C56.2061 85.6345 56.159 84.7033 56.159 83.4139H57.159C57.159 84.6598 57.2074 85.665 57.0803 87.0817L56.0843 86.9923ZM56.425 83.8557C56.1614 83.7162 55.919 83.4412 55.7161 83.1592C55.5005 82.8593 55.2826 82.484 55.0829 82.0699C54.6856 81.2457 54.3378 80.2201 54.2359 79.26L55.2303 79.1545C55.3168 79.9698 55.6208 80.8828 55.9837 81.6356C56.1642 82.0101 56.3536 82.3329 56.5279 82.5753C56.7151 82.8355 56.8454 82.9468 56.893 82.972L56.425 83.8557ZM54.6919 79.7056C53.8542 79.6363 52.988 78.8476 52.7497 76.841L53.7428 76.7231C53.9564 78.5222 54.6332 78.6973 54.7743 78.709L54.6919 79.7056ZM52.7498 76.8413C52.6046 75.6253 53.1813 74.8611 53.6424 74.5786L54.1648 75.4313C54.0358 75.5103 53.644 75.8958 53.7427 76.7228L52.7498 76.8413ZM53.4287 75.1614C53.0217 73.9259 52.387 71.379 52.57 69.0152C52.6617 67.8304 52.962 66.6469 53.6419 65.698C54.3337 64.7324 55.3888 64.0519 56.8931 63.8409L57.032 64.8312C55.7817 65.0066 54.9775 65.5508 54.4548 66.2804C53.9203 67.0265 53.6509 68.0088 53.567 69.0924C53.3988 71.2654 53.9891 73.6665 54.3785 74.8485L53.4287 75.1614ZM56.527 64.0904C56.8851 63.4556 57.5018 63.0145 58.2438 62.7344C58.9859 62.4543 59.8842 62.3223 60.8681 62.3223V63.3223C59.9652 63.3223 59.1943 63.4445 58.597 63.67C57.9996 63.8955 57.6069 64.2113 57.398 64.5817L56.527 64.0904ZM60.8774 62.3224C62.824 62.3585 64.385 62.7482 65.5982 63.4478C66.8179 64.1511 67.658 65.1519 68.1802 66.3566C69.2125 68.7379 68.9917 71.8848 68.1565 75.1296L67.1881 74.8803C68.0077 71.6964 68.1591 68.8221 67.2627 66.7543C66.8206 65.7344 66.1211 64.9037 65.0987 64.3141C64.0699 63.7208 62.6864 63.3561 60.8588 63.3222L60.8774 62.3224ZM67.9341 74.5789C68.3936 74.8613 68.9702 75.6251 68.8261 76.8409L67.8331 76.7232C67.9311 75.896 67.5392 75.51 67.4105 75.431L67.9341 74.5789ZM68.8261 76.8413C68.587 78.8473 67.7218 79.6363 66.884 79.7056L66.8016 78.709C66.9424 78.6973 67.6187 78.5224 67.8331 76.7229L68.8261 76.8413ZM67.34 79.2598C67.2382 80.2231 66.8777 81.2506 66.4688 82.0747C66.2632 82.489 66.0394 82.864 65.8194 83.1633C65.6122 83.4451 65.367 83.7177 65.1052 83.856L64.6382 82.9718C64.6884 82.9452 64.8222 82.8314 65.0137 82.5709C65.1925 82.3278 65.3873 82.0045 65.573 81.6302C65.9468 80.8769 66.2598 79.966 66.3455 79.1547L67.34 79.2598ZM65.3717 83.4139C65.3717 84.7028 65.3254 85.6344 65.4472 86.9923L64.4512 87.0817C64.3241 85.665 64.3717 84.6603 64.3717 83.4139H65.3717ZM65.4184 86.8641C65.7046 87.6409 66.3935 88.2315 67.4211 88.7757C68.456 89.3238 69.7041 89.7625 71.0433 90.3177C73.6524 91.3995 76.4945 92.8833 77.2883 96.3372L76.3137 96.5612C75.6417 93.6371 73.2597 92.3192 70.6603 91.2415C69.3952 90.717 68.0429 90.2366 66.953 89.6594C65.8559 89.0783 64.8956 88.3375 64.4801 87.2099L65.4184 86.8641ZM75.8766 98.6512C69.5694 100.641 64.6187 101.697 59.9196 101.728C55.2124 101.76 50.7911 100.762 45.5397 98.6934L45.9063 97.763C51.0752 99.7993 55.3675 100.758 59.9129 100.728C64.4664 100.698 69.307 99.675 75.5758 97.6976L75.8766 98.6512ZM44.2635 96.4428C45.0163 92.9326 47.852 91.4267 50.4672 90.3348C51.8094 89.7744 53.0603 89.3347 54.1004 88.7843C55.1324 88.2381 55.8252 87.6455 56.1131 86.8641L57.0514 87.2099C56.6341 88.3426 55.6693 89.0853 54.5682 89.6681C53.4752 90.2466 52.1176 90.7294 50.8524 91.2576C48.253 92.3429 45.8791 93.6782 45.2413 96.6525L44.2635 96.4428ZM45.5397 98.6934C44.6707 98.3511 44.0498 97.4397 44.2635 96.4428L45.2413 96.6525C45.1464 97.095 45.4161 97.5699 45.9063 97.763L45.5397 98.6934ZM77.2883 96.3372C77.5331 97.4025 76.8201 98.3536 75.8766 98.6512L75.5758 97.6976C76.1176 97.5267 76.4206 97.0261 76.3137 96.5612L77.2883 96.3372Z" fill="#0500FF"/>
<g opacity="0.15">
<path d="M40.0192 57.3808C39.8748 57.6553 40.5537 57.7647 41.2416 57.8754C41.6922 57.948 42.1465 58.0212 42.3759 58.1418C42.8678 58.4005 43.8857 58.8158 44.3283 58.6576C44.5223 59.3541 45.4725 60.3548 46.0242 60.8383C46.3096 61.0883 46.6483 61.6708 46.9842 62.2484C47.4971 63.1302 48.0033 64.0006 48.3027 63.6591C48.798 63.0938 48.2642 59.8426 47.5431 59.2108C46.8452 58.5991 45.0146 57.6254 44.4487 58.0764C44.198 57.5974 43.4705 57.0004 43.041 56.7746C42.4615 56.4698 40.2581 56.9264 40.0192 57.3808Z" fill="#0500FF"/>
<path d="M42.3345 71.9351C43.2932 71.9351 44.0704 71.7894 44.0704 71.6096C44.0704 71.4299 43.2932 71.2842 42.3345 71.2842C41.3758 71.2842 40.5986 71.4299 40.5986 71.6096C40.5986 71.7894 41.3758 71.9351 42.3345 71.9351Z" fill="#0500FF"/>
<path d="M40.141 66.9349C39.8476 67.0769 39.4794 67.1613 39.0796 67.1613C38.1209 67.1613 37.3438 66.6756 37.3438 66.0764C37.3438 65.4772 38.1209 64.9914 39.0796 64.9914C39.3211 64.9914 39.5641 65.0069 39.8072 65.0224C40.174 65.0458 40.5412 65.0692 40.9044 65.0395C41.2843 65.0083 41.6925 64.9914 42.1175 64.9914C42.4808 64.9914 42.8319 65.0038 43.1635 65.0268C43.474 65.0484 43.7866 65.0313 44.0991 65.0142C44.3068 65.0028 44.5144 64.9914 44.7213 64.9914C45.68 64.9914 46.4572 65.4772 46.4572 66.0764C46.4572 66.6756 45.68 67.1613 44.7213 67.1613C44.1729 67.1613 43.684 67.0024 43.3658 66.7542C43.3106 66.7111 43.244 66.6863 43.1742 66.6912C43.0285 66.7014 42.9183 66.831 42.9323 66.9763C42.9665 67.3324 42.9854 67.7251 42.9854 68.1378C42.9854 68.6544 43.0518 69.0292 43.0998 69.3C43.2021 69.8772 43.2206 69.9821 42.3345 69.9821C42.0733 69.9821 42.0771 69.8626 42.0987 69.1769C42.1068 68.9187 42.1175 68.5803 42.1175 68.1378C42.1175 67.7496 42.1093 67.3791 42.1018 67.0402C42.0979 66.8664 41.9561 66.7275 41.7822 66.7238C41.5351 66.7186 41.2949 66.7076 41.0642 66.6914C40.7434 66.669 40.4306 66.7949 40.141 66.9349Z" fill="#0500FF"/>
</g>
<g opacity="0.15">
<path d="M66.6404 70.8505C66.5466 71.1154 66.2651 70.6604 65.8484 69.9867C65.1504 68.8584 64.0731 67.1168 62.8622 67.1168C61.6681 66.6935 59.1832 65.5838 59.4343 64.8754C59.6854 64.167 62.4983 64.627 63.6924 65.0503C66.2065 65.5343 66.8915 70.1421 66.6404 70.8505Z" fill="#0500FF"/>
<path d="M62.7344 80.3596C62.7344 80.5394 61.9572 80.6851 60.9985 80.6851C60.0398 80.6851 59.2626 80.5394 59.2626 80.3596C59.2626 80.1799 60.0398 80.0342 60.9985 80.0342C61.9572 80.0342 62.7344 80.1799 62.7344 80.3596Z" fill="#0500FF"/>
<path d="M58.8051 75.6849C58.5117 75.8269 58.1435 75.9113 57.7437 75.9113C56.785 75.9113 56.0078 75.4256 56.0078 74.8264C56.0078 74.2272 56.785 73.7414 57.7437 73.7414C57.9852 73.7414 58.2281 73.7569 58.4712 73.7724C58.8381 73.7958 59.2053 73.8192 59.5685 73.7895C59.9484 73.7583 60.3566 73.7414 60.7815 73.7414C61.1449 73.7414 61.4959 73.7538 61.8275 73.7768C62.138 73.7984 62.4507 73.7813 62.7632 73.7642C62.9709 73.7528 63.1785 73.7414 63.3854 73.7414C64.3441 73.7414 65.1213 74.2272 65.1213 74.8264C65.1213 75.4256 64.3441 75.9113 63.3854 75.9113C62.837 75.9113 62.348 75.7524 62.0299 75.5042C61.9747 75.4611 61.9081 75.4363 61.8382 75.4412C61.6926 75.4514 61.5824 75.5809 61.5963 75.7263C61.6305 76.0824 61.6495 76.4751 61.6495 76.8877C61.6495 77.4044 61.7159 77.7792 61.7639 78.05C61.8661 78.6272 61.8847 78.7321 60.9985 78.7321C60.7374 78.7321 60.7411 78.6126 60.7627 77.9269C60.7709 77.6687 60.7815 77.3303 60.7815 76.8877C60.7815 76.4996 60.7733 76.1291 60.7658 75.7901C60.762 75.6163 60.6201 75.4775 60.4463 75.4738C60.1991 75.4686 59.959 75.4576 59.7283 75.4414C59.4075 75.419 59.0946 75.5449 58.8051 75.6849Z" fill="#0500FF"/>
</g>
<g opacity="0.15">
<path d="M70.3588 53.9059C69.6623 53.8892 68.9748 53.8726 69.0807 53.5811C69.256 53.0986 71.3775 52.3483 71.9929 52.5719C72.4608 52.7419 73.2923 53.2566 73.587 53.7056C73.5929 53.7145 73.6047 53.7168 73.6138 53.7112C74.2556 53.3201 75.7922 54.8694 76.2911 55.6881C76.7899 56.5069 76.3261 59.7687 75.6843 60.1598C75.2964 60.3961 75.074 59.4141 74.8486 58.4192C74.7009 57.7675 74.552 57.1104 74.3546 56.7864C74.2446 56.6057 74.1157 56.3741 73.9887 56.1186C73.5469 55.2301 72.4512 54.3553 71.5187 54.0165C71.2751 53.928 70.8151 53.9169 70.3588 53.9059Z" fill="#0500FF"/>
<path d="M72.5 67.7737C72.5 67.9535 71.7229 68.0992 70.7641 68.0992C69.8054 68.0992 69.0282 67.9535 69.0282 67.7737C69.0282 67.5939 69.8054 67.4482 70.7641 67.4482C71.7229 67.4482 72.5 67.5939 72.5 67.7737Z" fill="#0500FF"/>
<path d="M68.5707 63.099C68.2773 63.2409 67.9091 63.3254 67.5093 63.3254C66.5506 63.3254 65.7734 62.8396 65.7734 62.2404C65.7734 61.6412 66.5506 61.1555 67.5093 61.1555C67.7508 61.1555 67.9938 61.171 68.2369 61.1865C68.6037 61.2099 68.9709 61.2333 69.3341 61.2035C69.714 61.1724 70.1222 61.1555 70.5472 61.1555C70.9105 61.1555 71.2615 61.1678 71.5932 61.1909C71.9036 61.2124 72.2163 61.1953 72.5288 61.1782C72.7365 61.1669 72.9441 61.1555 73.151 61.1555C74.1097 61.1555 74.8869 61.6412 74.8869 62.2404C74.8869 62.8396 74.1097 63.3254 73.151 63.3254C72.6026 63.3254 72.1136 63.1664 71.7955 62.9183C71.7403 62.8752 71.6737 62.8503 71.6039 62.8553C71.4582 62.8655 71.348 62.995 71.362 63.1403C71.3962 63.4964 71.4151 63.8892 71.4151 64.3018C71.4151 64.8184 71.4815 65.1932 71.5295 65.464C71.6317 66.0412 71.6503 66.1462 70.7642 66.1462C70.503 66.1462 70.5068 66.0266 70.5284 65.341C70.5365 65.0828 70.5472 64.7443 70.5472 64.3018C70.5472 63.9137 70.539 63.5432 70.5315 63.2042C70.5276 63.0304 70.3857 62.8915 70.2119 62.8879C69.9648 62.8826 69.7246 62.8716 69.4939 62.8555C69.1731 62.833 68.8602 62.959 68.5707 63.099Z" fill="#0500FF"/>
</g>
<g opacity="0.15">
<path d="M79.9751 39.8763C79.8132 40.0661 80.6323 40.5333 81.4622 41.0067C82.0058 41.3167 82.5539 41.6294 82.8341 41.8684C83.542 42.4725 85.1347 43.6758 85.4026 43.3617C85.6706 43.0477 84.2838 41.4988 83.5759 40.8948C82.8681 40.2907 80.2431 39.5623 79.9751 39.8763Z" fill="#0500FF"/>
<path d="M82.0391 56.0564C82.0391 56.2361 81.2619 56.3819 80.3032 56.3819C79.3445 56.3819 78.5673 56.2361 78.5673 56.0564C78.5673 55.8766 79.3445 55.7309 80.3032 55.7309C81.2619 55.7309 82.0391 55.8766 82.0391 56.0564Z" fill="#0500FF"/>
<path d="M78.1098 51.3816C77.8163 51.5236 77.4481 51.608 77.0484 51.608C76.0897 51.608 75.3125 51.1223 75.3125 50.5231C75.3125 49.9239 76.0897 49.4381 77.0484 49.4381C77.2899 49.4381 77.5328 49.4536 77.7759 49.4691C78.1428 49.4925 78.51 49.5159 78.8732 49.4862C79.2531 49.455 79.6613 49.4381 80.0862 49.4381C80.4495 49.4381 80.8006 49.4505 81.1322 49.4735C81.4427 49.4951 81.7553 49.478 82.0678 49.4609C82.2755 49.4495 82.4832 49.4381 82.6901 49.4381C83.6488 49.4381 84.426 49.9239 84.426 50.5231C84.426 51.1223 83.6488 51.608 82.6901 51.608C82.1417 51.608 81.6527 51.4491 81.3346 51.2009C81.2793 51.1578 81.2128 51.133 81.1429 51.1379C80.9973 51.1481 80.887 51.2776 80.901 51.423C80.9352 51.7791 80.9542 52.1718 80.9542 52.5844C80.9542 53.1011 81.0206 53.4759 81.0685 53.7467C81.1708 54.3239 81.1894 54.4288 80.3032 54.4288C80.042 54.4288 80.0458 54.3093 80.0674 53.6236C80.0756 53.3654 80.0862 53.027 80.0862 52.5844C80.0862 52.1963 80.078 51.8258 80.0705 51.4868C80.0667 51.313 79.9248 51.1742 79.751 51.1705C79.5038 51.1653 79.2637 51.1543 79.033 51.1381C78.7122 51.1157 78.3993 51.2416 78.1098 51.3816Z" fill="#0500FF"/>
</g>
<path d="M84.7285 35.932C84.5478 36.245 84.655 36.6453 84.968 36.826C85.281 37.0067 85.6813 36.8995 85.862 36.5865L87.8412 33.1584C87.8577 33.1299 87.9013 33.1415 87.9013 33.1745C87.9013 33.5359 88.1943 33.8289 88.5558 33.8289C88.9172 33.8289 89.2102 33.5359 89.2102 33.1745L89.2102 30.5848C89.2102 30.351 89.0855 30.135 88.883 30.0181C88.6805 29.9012 88.431 29.9012 88.2285 30.0181L85.9858 31.3129C85.6728 31.4936 85.5656 31.8939 85.7463 32.2069C85.927 32.5199 86.3273 32.6271 86.6403 32.4464C86.6817 32.4225 86.728 32.4688 86.7041 32.5102L84.7285 35.932Z" fill="url(#paint0_linear)"/>
<path d="M90.9039 38.9156C90.8104 39.2647 91.0176 39.6236 91.3667 39.7171C91.7158 39.8107 92.0747 39.6035 92.1682 39.2543L93.1928 35.4307C93.2012 35.3991 93.2461 35.3991 93.2545 35.4307C93.3481 35.7798 93.7069 35.987 94.0561 35.8935C94.4052 35.7999 94.6124 35.4411 94.5188 35.0919L93.8486 32.5905C93.7881 32.3647 93.6117 32.1883 93.3858 32.1278C93.16 32.0673 92.919 32.1318 92.7537 32.2972L90.9225 34.1283C90.6669 34.3839 90.6669 34.7983 90.9225 35.0538C91.1781 35.3094 91.5925 35.3094 91.848 35.0538C91.882 35.0199 91.939 35.0528 91.9266 35.0992L90.9039 38.9156Z" fill="url(#paint1_linear)"/>
<path d="M79.5628 31.9843C79.3072 32.2399 79.3072 32.6543 79.5628 32.9099C79.8183 33.1654 80.2327 33.1654 80.4883 32.9099L83.2874 30.1107C83.3105 30.0876 83.3493 30.11 83.3409 30.1416C83.2473 30.4907 83.4545 30.8496 83.8036 30.9432C84.1527 31.0367 84.5116 30.8295 84.6052 30.4804L85.2754 27.979C85.3359 27.7531 85.2714 27.5122 85.106 27.3468C84.9407 27.1815 84.6997 27.1169 84.4739 27.1775L81.9725 27.8477C81.6234 27.9413 81.4162 28.3001 81.5097 28.6492C81.6033 28.9984 81.9621 29.2055 82.3112 29.112C82.3576 29.0996 82.3905 29.1566 82.3566 29.1905L79.5628 31.9843Z" fill="url(#paint2_linear)"/>
<ellipse cx="98.0016" cy="18" rx="12.4918" ry="12.4918" transform="rotate(-30 98.0016 18)" fill="white" stroke="url(#paint3_linear)"/>
<path d="M98.1121 13.584L100.297 15.9295L102.642 18.1141L100.297 20.2987L98.1121 22.6442L95.9275 20.2987L93.582 18.1141L95.9275 15.9295L98.1121 13.584Z" fill="url(#paint4_linear)"/>
</g>
<defs>
<linearGradient id="paint0_linear" x1="83.6929" y1="36.7143" x2="89.4398" y2="37.6972" gradientUnits="userSpaceOnUse">
<stop stop-color="#3CE700"/>
<stop offset="0.567708" stop-color="#0BC91E"/>
</linearGradient>
<linearGradient id="paint1_linear" x1="88.9997" y1="38.9829" x2="94.6141" y2="39.9312" gradientUnits="userSpaceOnUse">
<stop stop-color="#3CE700"/>
<stop offset="0.567708" stop-color="#0BC91E"/>
</linearGradient>
<linearGradient id="paint2_linear" x1="79.4174" y1="33.4589" x2="85.0322" y2="34.4091" gradientUnits="userSpaceOnUse">
<stop stop-color="#3CE700"/>
<stop offset="0.567708" stop-color="#0BC91E"/>
</linearGradient>
<linearGradient id="paint3_linear" x1="105.349" y1="3.78781" x2="79.7304" y2="22.8712" gradientUnits="userSpaceOnUse">
<stop stop-color="#EAED4F"/>
<stop offset="0.567708" stop-color="#C4B000"/>
</linearGradient>
<linearGradient id="paint4_linear" x1="100.777" y1="12.9601" x2="91.4861" y2="19.8806" gradientUnits="userSpaceOnUse">
<stop stop-color="#EAED4F"/>
<stop offset="0.567708" stop-color="#C4B000"/>
</linearGradient>
<clipPath id="clip0">
<rect width="115" height="120" fill="white"/>
</clipPath>
</defs>
</svg>
