<svg width="61" height="60" viewBox="0 0 61 60" fill="none" xmlns="http://www.w3.org/2000/svg">
<path d="M0.433468 24.9315C0.242416 26.0359 0.112728 27.1609 0.0479813 28.3029L0.54718 28.3312C0.515869 28.8835 0.5 29.4399 0.5 30C0.5 30.5601 0.515869 31.1165 0.54718 31.6688L0.0479813 31.6971C0.112728 32.8391 0.242416 33.9641 0.433468 35.0685L0.926151 34.9832C1.11726 36.088 1.37082 37.1717 1.68315 38.2309L1.20356 38.3723C1.52532 39.4635 1.90837 40.529 2.34883 41.5651L2.80897 41.3694C3.24573 42.3968 3.73992 43.3947 4.28762 44.3594L3.85281 44.6063C4.41251 45.592 5.0271 46.5435 5.69252 47.4568L6.09663 47.1623C6.75217 48.062 7.45792 48.924 8.20987 49.7443L7.84129 50.0822C8.60526 50.9156 9.41608 51.7066 10.2697 52.4513L10.5984 52.0746C11.4354 52.8048 12.3142 53.4897 13.2309 54.1254L12.946 54.5362C13.873 55.1791 14.838 55.7723 15.8372 56.3121L16.0748 55.8722C17.0496 56.3989 18.0573 56.8738 19.0941 57.2932L18.9066 57.7568C19.949 58.1784 21.0204 58.5449 22.117 58.8526L22.252 58.3712C23.3152 58.6695 24.4025 58.9116 25.5105 59.0939L25.4293 59.5873C26.5348 59.7692 27.6605 59.8927 28.8029 59.9543L28.8299 59.4551C29.3827 59.4849 29.9395 59.5 30.5 59.5C31.0605 59.5 31.6173 59.4849 32.1701 59.4551L32.1971 59.9543C33.3395 59.8927 34.4652 59.7692 35.5707 59.5873L35.4895 59.0939C36.5975 58.9116 37.6848 58.6695 38.748 58.3712L38.883 58.8526C39.9796 58.5449 41.051 58.1784 42.0934 57.7568L41.9059 57.2932C42.9427 56.8738 43.9504 56.3989 44.9252 55.8722L45.1628 56.3121C46.162 55.7723 47.127 55.1791 48.054 54.5363L47.7691 54.1254C48.6858 53.4897 49.5646 52.8048 50.4016 52.0746L50.7303 52.4513C51.5839 51.7066 52.3947 50.9156 53.1587 50.0822L52.7901 49.7443C53.5421 48.924 54.2478 48.062 54.9034 47.1623L55.3075 47.4568C55.9729 46.5435 56.5875 45.592 57.1472 44.6063L56.7124 44.3594C57.2601 43.3947 57.7543 42.3968 58.191 41.3694L58.6512 41.5651C59.0916 40.529 59.4747 39.4635 59.7964 38.3723L59.3169 38.2309C59.6292 37.1717 59.8827 36.088 60.0739 34.9832L60.5665 35.0685C60.7576 33.9641 60.8873 32.8391 60.952 31.6971L60.4528 31.6688C60.4841 31.1165 60.5 30.5601 60.5 30C60.5 29.4399 60.4841 28.8835 60.4528 28.3312L60.952 28.3029C60.8873 27.1609 60.7576 26.0359 60.5665 24.9315L60.0739 25.0168C59.8827 23.912 59.6292 22.8283 59.3169 21.7691L59.7964 21.6277C59.4747 20.5365 59.0916 19.471 58.6512 18.4349L58.191 18.6306C57.7543 17.6032 57.2601 16.6053 56.7124 15.6406L57.1472 15.3937C56.5875 14.408 55.9729 13.4565 55.3075 12.5432L54.9034 12.8377C54.2478 11.938 53.5421 11.076 52.7901 10.2557L53.1587 9.91783C52.3947 9.08441 51.5839 8.29335 50.7303 7.54867L50.4016 7.92544C49.5646 7.19521 48.6858 6.5103 47.7691 5.87463L48.054 5.46375C47.127 4.82094 46.162 4.22767 45.1628 3.68786L44.9252 4.12776C43.9504 3.60111 42.9427 3.12619 41.9059 2.70675L42.0934 2.24324C41.051 1.82157 39.9796 1.45505 38.883 1.14739L38.748 1.6288C37.6848 1.33051 36.5975 1.08844 35.4895 0.906079L35.5707 0.412717C34.4652 0.230752 33.3395 0.107284 32.1971 0.0456559L32.1701 0.54493C31.6173 0.515109 31.0605 0.5 30.5 0.5C29.9395 0.5 29.3827 0.515109 28.8299 0.54493L28.8029 0.0456561C27.6605 0.107284 26.5348 0.230753 25.4293 0.412717L25.5105 0.906079C24.4025 1.08844 23.3152 1.33051 22.252 1.6288L22.117 1.14739C21.0204 1.45505 19.949 1.82157 18.9066 2.24324L19.0941 2.70675C18.0573 3.12619 17.0496 3.60111 16.0748 4.12776L15.8372 3.68786C14.838 4.22767 13.873 4.82094 12.946 5.46375L13.2309 5.87463C12.3142 6.5103 11.4354 7.19521 10.5984 7.92544L10.2697 7.54867C9.41608 8.29335 8.60526 9.08441 7.8413 9.91783L8.20987 10.2557C7.45792 11.076 6.75217 11.938 6.09663 12.8377L5.69252 12.5432C5.0271 13.4565 4.41251 14.408 3.85282 15.3937L4.28762 15.6406C3.73992 16.6053 3.24573 17.6032 2.80898 18.6306L2.34883 18.4349C1.90837 19.471 1.52532 20.5365 1.20356 21.6277L1.68315 21.7691C1.37082 22.8283 1.11726 23.912 0.926151 25.0168L0.433468 24.9315Z" stroke="#D1D1D1" stroke-dasharray="3.2 3.2"/>
<path d="M34.8981 4.86063C34.8118 4.28604 33.9692 4.28604 33.8829 4.86063L33.7969 5.43368C33.7638 5.65382 33.5881 5.82669 33.3643 5.8592L32.7817 5.94384C32.1975 6.02871 32.1975 6.85751 32.7817 6.94238L33.3643 7.02702C33.5881 7.05953 33.7638 7.2324 33.7969 7.45254L33.8829 8.02559C33.9692 8.60018 34.8118 8.60018 34.8981 8.02559L34.9842 7.45254C35.0172 7.2324 35.193 7.05953 35.4168 7.02702L35.9994 6.94238C36.5835 6.85751 36.5835 6.02871 35.9994 5.94384L35.4168 5.8592C35.193 5.82669 35.0172 5.65382 34.9842 5.43368L34.8981 4.86063Z" fill="#C4C4C4"/>
<path d="M58.3891 1.8957C58.2514 0.978777 56.9067 0.978778 56.769 1.8957L56.6317 2.81017C56.579 3.16147 56.2985 3.43733 55.9414 3.48921L55.0117 3.62428C54.0794 3.75971 54.0794 5.0823 55.0117 5.21773L55.9414 5.3528C56.2985 5.40469 56.579 5.68055 56.6317 6.03185L56.769 6.94632C56.9067 7.86324 58.2514 7.86324 58.3891 6.94632L58.5264 6.03185C58.5791 5.68055 58.8596 5.40469 59.2167 5.3528L60.1464 5.21773C61.0787 5.0823 61.0787 3.75971 60.1464 3.62428L59.2167 3.48921C58.8596 3.43733 58.5791 3.16147 58.5264 2.81017L58.3891 1.8957Z" fill="#C4C4C4"/>
<path d="M5.55826 52.9143C5.47198 52.3398 4.62937 52.3398 4.54309 52.9143L4.45704 53.4874C4.42398 53.7075 4.24823 53.8804 4.02442 53.9129L3.44182 53.9976C2.85766 54.0824 2.85766 54.9112 3.44182 54.9961L4.02442 55.0807C4.24823 55.1132 4.42398 55.2861 4.45704 55.5063L4.54309 56.0793C4.62937 56.6539 5.47198 56.6539 5.55826 56.0793L5.64432 55.5063C5.67737 55.2861 5.85312 55.1132 6.07693 55.0807L6.65953 54.9961C7.2437 54.9112 7.2437 54.0824 6.65953 53.9976L6.07693 53.9129C5.85312 53.8804 5.67737 53.7075 5.64432 53.4874L5.55826 52.9143Z" fill="#C4C4C4"/>
<ellipse rx="0.955257" ry="0.939597" transform="matrix(-1 0 0 1 53.9041 34.4962)" fill="#C4C4C4"/>
<ellipse rx="0.955257" ry="0.939597" transform="matrix(-1 0 0 1 4.09162 4.69839)" fill="#C4C4C4"/>
<ellipse rx="1.56935" ry="1.54362" transform="matrix(-1 0 0 1 23.6767 52.9528)" fill="#C4C4C4"/>
<ellipse rx="0.955257" ry="0.939597" transform="matrix(-1 0 0 1 12.4197 44.5636)" fill="#C4C4C4"/>
<ellipse opacity="0.15" rx="20.1286" ry="19.7987" transform="matrix(-1 0 0 1 30.4964 29.9998)" fill="url(#paint0_linear)"/>
<mask id="path-10-inside-1" fill="white">
<path fill-rule="evenodd" clip-rule="evenodd" d="M14.3869 11.5439C14.3842 11.6494 14.3828 11.7551 14.3828 11.8611C14.3828 19.8223 22.0264 26.2761 31.4551 26.2761C40.8839 26.2761 48.5275 19.8223 48.5275 11.8611C48.5275 11.7551 48.5261 11.6494 48.5234 11.5439H14.3869Z"/>
</mask>
<path d="M14.3869 11.5439V10.5439H13.4121L13.3872 11.5184L14.3869 11.5439ZM48.5234 11.5439L49.5231 11.5184L49.4982 10.5439H48.5234V11.5439ZM15.3828 11.8611C15.3828 11.7636 15.3841 11.6664 15.3865 11.5695L13.3872 11.5184C13.3843 11.6323 13.3828 11.7466 13.3828 11.8611H15.3828ZM31.4551 25.2761C22.4134 25.2761 15.3828 19.1181 15.3828 11.8611H13.3828C13.3828 20.5265 21.6393 27.2761 31.4551 27.2761V25.2761ZM47.5275 11.8611C47.5275 19.1181 40.4969 25.2761 31.4551 25.2761V27.2761C41.271 27.2761 49.5275 20.5265 49.5275 11.8611H47.5275ZM47.5238 11.5695C47.5262 11.6664 47.5275 11.7636 47.5275 11.8611H49.5275C49.5275 11.7466 49.526 11.6323 49.5231 11.5184L47.5238 11.5695ZM48.5234 10.5439H14.3869V12.5439H48.5234V10.5439Z" fill="#0500FF" mask="url(#path-10-inside-1)"/>
<path d="M22.6005 11.543C22.5986 11.701 22.5976 11.8594 22.5976 12.0182C22.5976 14.1077 19.5432 14.5435 19.8543 16.454C21.3147 25.4233 25.9561 33.5633 31.4559 33.5633C36.9557 33.5633 41.5971 25.4233 43.0575 16.454C43.3686 14.5435 40.3142 14.1077 40.3142 12.0182C40.3142 11.8594 40.3132 11.701 40.3113 11.543H22.6005Z" fill="#CEF4D2"/>
<mask id="path-13-inside-2" fill="white">
<path fill-rule="evenodd" clip-rule="evenodd" d="M21.6289 12.0182C21.6289 11.8591 21.6297 11.7003 21.6313 11.542H41.2758C41.2774 11.7003 41.2782 11.8591 41.2782 12.0182C41.2782 22.1511 38.0884 30.6502 33.7907 32.9499C38.0884 33.0391 41.2782 33.48 41.2782 35.3753C41.2782 35.4252 41.2361 37.0484 41.1854 37.0484H21.7217C21.671 37.0484 21.6289 35.4252 21.6289 35.3753C21.6289 33.48 24.8187 33.0391 29.1164 32.9499C24.8187 30.6502 21.6289 22.1511 21.6289 12.0182Z"/>
</mask>
<path fill-rule="evenodd" clip-rule="evenodd" d="M21.6289 12.0182C21.6289 11.8591 21.6297 11.7003 21.6313 11.542H41.2758C41.2774 11.7003 41.2782 11.8591 41.2782 12.0182C41.2782 22.1511 38.0884 30.6502 33.7907 32.9499C38.0884 33.0391 41.2782 33.48 41.2782 35.3753C41.2782 35.4252 41.2361 37.0484 41.1854 37.0484H21.7217C21.671 37.0484 21.6289 35.4252 21.6289 35.3753C21.6289 33.48 24.8187 33.0391 29.1164 32.9499C24.8187 30.6502 21.6289 22.1511 21.6289 12.0182Z" fill="white"/>
<path d="M21.6313 11.542V10.542C21.0828 10.542 20.6367 10.9837 20.6313 11.5321L21.6313 11.542ZM41.2758 11.542L42.2758 11.5321C42.2704 10.9837 41.8243 10.542 41.2758 10.542V11.542ZM33.7907 32.9499L33.3189 32.0682C32.918 32.2828 32.7123 32.7408 32.8183 33.1831C32.9243 33.6253 33.3153 33.9403 33.77 33.9497L33.7907 32.9499ZM29.1164 32.9499L29.1371 33.9497C29.5918 33.9403 29.9828 33.6253 30.0888 33.1831C30.1948 32.7408 29.9891 32.2828 29.5882 32.0682L29.1164 32.9499ZM20.6313 11.5321C20.6297 11.6937 20.6289 11.8558 20.6289 12.0182H22.6289C22.6289 11.8624 22.6297 11.7069 22.6312 11.5519L20.6313 11.5321ZM41.2758 10.542H21.6313V12.542H41.2758V10.542ZM42.2782 12.0182C42.2782 11.8558 42.2774 11.6937 42.2758 11.5321L40.2759 11.5519C40.2774 11.7069 40.2782 11.8624 40.2782 12.0182H42.2782ZM34.2625 33.8316C36.7367 32.5076 38.7215 29.524 40.0861 25.7625C41.4663 21.9582 42.2782 17.1824 42.2782 12.0182H40.2782C40.2782 16.9869 39.4952 21.5271 38.206 25.0804C36.9014 28.6767 35.1424 31.0924 33.3189 32.0682L34.2625 33.8316ZM33.77 33.9497C35.918 33.9943 37.681 34.1274 38.8868 34.4511C39.4906 34.6132 39.8623 34.8001 40.0674 34.9733C40.2362 35.1159 40.2782 35.2303 40.2782 35.3753H42.2782C42.2782 34.5727 41.9214 33.9213 41.3579 33.4453C40.8306 33 40.1362 32.7157 39.4054 32.5195C37.9419 32.1266 35.9612 31.9947 33.8115 31.9501L33.77 33.9497ZM40.2782 35.3753C40.2782 35.3688 40.2763 35.4597 40.2713 35.6281C40.2666 35.7849 40.2599 35.9885 40.2517 36.1897C40.2433 36.3933 40.2338 36.585 40.2239 36.7218C40.2187 36.7936 40.2147 36.8321 40.2129 36.8449C40.2113 36.8573 40.2145 36.8266 40.227 36.7787C40.2311 36.7626 40.2511 36.6841 40.2992 36.5898C40.3221 36.5448 40.3783 36.4416 40.4839 36.337C40.5908 36.2311 40.8284 36.0484 41.1854 36.0484V38.0484C41.544 38.0484 41.7833 37.865 41.8917 37.7576C41.9988 37.6514 42.0567 37.5459 42.0812 37.4978C42.1323 37.3974 42.1554 37.3097 42.1627 37.2817C42.1813 37.21 42.1907 37.1444 42.195 37.1123C42.2053 37.0361 42.2128 36.9474 42.2187 36.8662C42.2309 36.6971 42.2415 36.4799 42.25 36.2715C42.2668 35.861 42.2782 35.4235 42.2782 35.3753H40.2782ZM41.1854 36.0484H21.7217V38.0484H41.1854V36.0484ZM21.7217 36.0484C22.0787 36.0484 22.3163 36.2311 22.4232 36.337C22.5288 36.4416 22.585 36.5448 22.6079 36.5898C22.656 36.6841 22.676 36.7626 22.6801 36.7787C22.6926 36.8266 22.6958 36.8573 22.6942 36.8449C22.6924 36.8321 22.6884 36.7936 22.6832 36.7218C22.6733 36.585 22.6638 36.3933 22.6554 36.1897C22.6472 35.9885 22.6405 35.7849 22.6358 35.6281C22.6308 35.4597 22.6289 35.3688 22.6289 35.3753H20.6289C20.6289 35.4235 20.6403 35.861 20.6571 36.2715C20.6656 36.4799 20.6762 36.6971 20.6884 36.8662C20.6943 36.9474 20.7018 37.0361 20.7121 37.1123C20.7164 37.1444 20.7258 37.21 20.7444 37.2817C20.7517 37.3097 20.7748 37.3974 20.826 37.4978C20.8504 37.5459 20.9083 37.6514 21.0154 37.7576C21.1238 37.865 21.3631 38.0484 21.7217 38.0484V36.0484ZM22.6289 35.3753C22.6289 35.2303 22.6709 35.1159 22.8397 34.9733C23.0448 34.8001 23.4165 34.6132 24.0203 34.4511C25.2261 34.1274 26.9892 33.9943 29.1371 33.9497L29.0956 31.9501C26.9459 31.9947 24.9652 32.1266 23.5017 32.5195C22.7709 32.7157 22.0765 33 21.5492 33.4453C20.9857 33.9213 20.6289 34.5727 20.6289 35.3753H22.6289ZM20.6289 12.0182C20.6289 17.1824 21.4408 21.9582 22.821 25.7625C24.1856 29.524 26.1704 32.5076 28.6446 33.8316L29.5882 32.0682C27.7647 31.0924 26.0057 28.6767 24.7011 25.0804C23.4119 21.5271 22.6289 16.9869 22.6289 12.0182H20.6289Z" fill="#0500FF" mask="url(#path-13-inside-2)"/>
<rect x="19.2148" y="35.1465" width="24.32" height="5.38626" fill="#CEF4D2"/>
<rect x="19.7148" y="36.7559" width="23.32" height="3.27732" fill="white" stroke="#0500FF"/>
<path d="M31.4574 16.7783L32.8724 18.2725L34.3914 19.6642L32.8724 21.0559L31.4574 22.5501L30.0425 21.0559L28.5234 19.6642L30.0425 18.2725L31.4574 16.7783Z" fill="url(#paint1_linear)"/>
<rect x="0.299963" y="0.636211" width="13.9937" height="11.175" transform="matrix(0.9429 0.333076 -0.342973 0.939345 43.8838 40.5227)" fill="white" stroke="#0500FF"/>
<rect x="0.299963" y="0.636211" width="10.3504" height="11.175" transform="matrix(0.9429 0.333076 -0.342973 0.939345 43.8838 40.5227)" fill="white" stroke="#0500FF"/>
<path d="M50.0175 43.2687C49.8597 43.15 49.6814 43.0139 49.4925 42.866C48.8364 42.3524 48.0785 41.7174 47.5964 41.185C47.1464 40.6882 46.9027 40.1223 46.8532 39.6251C46.8037 39.1272 46.9481 38.7388 47.2165 38.5036C47.485 38.2683 47.8939 38.172 48.391 38.2776C48.8874 38.3831 49.4309 38.6864 49.8809 39.1832C50.0274 39.345 50.1503 39.6834 50.2062 40.2112C50.2597 40.7168 50.2435 41.3084 50.1941 41.8844C50.15 42.3979 50.0808 42.8857 50.0175 43.2687Z" stroke="#0500FF"/>
<path d="M50.4813 43.6253C50.5949 43.4909 50.7245 43.3399 50.865 43.1805C51.3654 42.6127 51.9791 41.9663 52.4884 41.5703C53.4519 40.821 54.5664 40.9344 55.0323 41.5141C55.4983 42.0938 55.3534 43.1866 54.3898 43.9359C54.2593 44.0373 53.958 44.1217 53.4466 44.1212C52.964 44.1207 52.3979 44.0462 51.845 43.9414C51.3362 43.845 50.8537 43.7258 50.4813 43.6253Z" stroke="#0500FF"/>
<rect x="-0.299963" y="0.636211" width="11.2006" height="8.90703" transform="matrix(-0.9429 0.333076 0.342973 0.939345 13.4529 25.1063)" fill="white" stroke="#0500FF"/>
<rect x="-0.299963" y="0.636211" width="6.58433" height="8.90703" transform="matrix(-0.9429 0.333076 0.342973 0.939345 13.4529 25.1063)" fill="white" stroke="#0500FF"/>
<path d="M8.90419 26.9672C8.99683 26.9323 9.09549 26.8944 9.19804 26.854C9.75785 26.6334 10.3984 26.3522 10.8194 26.0843C11.5986 25.5885 11.7511 24.7825 11.4554 24.333C11.1598 23.8836 10.3499 23.69 9.57073 24.1858C9.49363 24.2349 9.36354 24.4063 9.23902 24.7862C9.12353 25.1386 9.04276 25.575 8.98794 26.0139C8.94522 26.356 8.91956 26.6887 8.90419 26.9672Z" stroke="#0500FF"/>
<path d="M8.19688 27.0871C8.10848 26.9832 8.01067 26.8698 7.90615 26.7512C7.45811 26.2428 6.91112 25.667 6.4591 25.3155C5.61007 24.6552 4.64736 24.7676 4.25406 25.2569C3.86075 25.7462 3.97176 26.6935 4.8208 27.3537C4.92263 27.4329 5.17655 27.5089 5.63286 27.5085C6.06049 27.5081 6.56389 27.442 7.05764 27.3484C7.47687 27.2689 7.87624 27.1722 8.19688 27.0871Z" stroke="#0500FF"/>
<rect x="-0.645282" y="0.29827" width="8.92255" height="7.0585" transform="matrix(-0.940375 -0.340139 -0.350189 0.936679 55.907 23.5494)" fill="white" stroke="#0500FF"/>
<rect x="-0.645282" y="0.29827" width="3.47173" height="7.0585" transform="matrix(-0.940375 -0.340139 -0.350189 0.936679 55.907 23.5494)" fill="white" stroke="#0500FF"/>
<path d="M53.1044 22.8322C52.9796 22.7265 52.8406 22.6068 52.6942 22.4775C52.1514 21.9979 51.5369 21.4117 51.166 20.9275C50.4708 20.0201 50.6173 18.9726 51.2074 18.5352C51.7976 18.0978 52.8616 18.2482 53.5567 19.1556C53.6457 19.2718 53.7189 19.5503 53.6997 20.0361C53.6816 20.4926 53.5873 21.0281 53.4635 21.5516C53.3506 22.0287 53.2167 22.4812 53.1044 22.8322Z" stroke="#0500FF"/>
<path d="M53.1458 22.8042C53.1987 22.7612 53.2542 22.7166 53.3117 22.6709C53.7442 22.3276 54.2604 21.9486 54.6654 21.7353C55.4153 21.3404 56.1028 21.576 56.3123 21.9608C56.5217 22.3456 56.3398 23.039 55.5899 23.4339C55.5262 23.4674 55.3392 23.498 54.9772 23.4338C54.6433 23.3746 54.2562 23.2529 53.8771 23.1092C53.6134 23.0092 53.3617 22.9018 53.1458 22.8042Z" stroke="#0500FF"/>
<defs>
<linearGradient id="paint0_linear" x1="31.9684" y1="-2.72682" x2="-8.82339" y2="28.1653" gradientUnits="userSpaceOnUse">
<stop stop-color="#3CE700"/>
<stop offset="0.567708" stop-color="#0BC91E"/>
</linearGradient>
<linearGradient id="paint1_linear" x1="33.1832" y1="16.3809" x2="27.2373" y2="20.8838" gradientUnits="userSpaceOnUse">
<stop stop-color="#EAED4F"/>
<stop offset="0.567708" stop-color="#C4B000"/>
</linearGradient>
</defs>
</svg>
