<svg width="62" height="60" viewBox="0 0 62 60" fill="none" xmlns="http://www.w3.org/2000/svg">
<g clip-path="url(#clip0)">
<path d="M0.188648 26.6792C0.118557 27.3053 0.0680504 27.9371 0.0377464 28.5742L0.537182 28.598C0.515083 29.0625 0.503906 29.53 0.503906 30C0.503906 30.47 0.515079 30.9375 0.537182 31.402L0.0377464 31.4258C0.0680504 32.0629 0.118557 32.6947 0.188648 33.3208L0.685543 33.2652C0.790314 34.201 0.939594 35.1236 1.13124 36.0309L0.642036 36.1342C0.773598 36.757 0.924793 37.3728 1.09496 37.9808L1.57645 37.846C1.82949 38.7502 2.12521 39.6369 2.46135 40.5041L1.99514 40.6848C2.22472 41.2771 2.47281 41.8604 2.73874 42.434L3.19236 42.2237C3.5864 43.0736 4.02029 43.9019 4.49169 44.7064L4.0603 44.9592C4.38096 45.5064 4.71868 46.0427 5.07273 46.5675L5.48721 46.2878C6.01035 47.0632 6.56981 47.8129 7.16321 48.5345L6.77701 48.8521C7.17944 49.3415 7.5972 49.8182 8.02958 50.2815L8.39513 49.9404C9.03252 50.6233 9.70222 51.2767 10.4019 51.8981L10.0698 52.272C10.5431 52.6923 11.0298 53.0983 11.5293 53.4892L11.8374 53.0954C12.5722 53.6704 13.335 54.2122 14.1235 54.7185L13.8533 55.1392C14.3855 55.481 14.9292 55.8068 15.4837 56.116L15.7272 55.6793C16.5408 56.133 17.3781 56.5503 18.2367 56.9291L18.0349 57.3866C18.613 57.6416 19.2006 57.8795 19.7971 58.0995L19.9702 57.6304C20.8424 57.9521 21.734 58.235 22.6427 58.477L22.5141 58.9601C23.124 59.1225 23.7414 59.2668 24.3659 59.3923L24.4644 58.9021C25.3737 59.0848 26.2981 59.2271 27.2356 59.327L27.1826 59.8242C27.8089 59.8909 28.4409 59.939 29.0779 59.9678L29.1005 59.4683C29.5656 59.4894 30.0335 59.5 30.5039 59.5C30.9743 59.5 31.4422 59.4894 31.9073 59.4683L31.9299 59.9678C32.5669 59.939 33.1989 59.8909 33.8252 59.8242L33.7722 59.327C34.7097 59.2271 35.6341 59.0848 36.5434 58.9021L36.6419 59.3923C37.2664 59.2668 37.8838 59.1225 38.4937 58.9601L38.3651 58.477C39.2738 58.235 40.1654 57.9521 41.0377 57.6304L41.2107 58.0995C41.8072 57.8795 42.3948 57.6416 42.9729 57.3866L42.7711 56.9291C43.6298 56.5503 44.467 56.133 45.2806 55.6793L45.5241 56.116C46.0786 55.8068 46.6223 55.481 47.1545 55.1392L46.8843 54.7185C47.6728 54.2122 48.4357 53.6704 49.1704 53.0954L49.4785 53.4892C49.978 53.0983 50.4647 52.6923 50.938 52.272L50.6059 51.8981C51.3056 51.2767 51.9753 50.6233 52.6127 49.9404L52.9782 50.2815C53.4106 49.8182 53.8284 49.3415 54.2308 48.8521L53.8446 48.5345C54.438 47.8129 54.9975 47.0632 55.5206 46.2878L55.9351 46.5675C56.2891 46.0427 56.6269 45.5064 56.9475 44.9592L56.5161 44.7064C56.9875 43.9019 57.4214 43.0736 57.8154 42.2237L58.2691 42.434C58.535 41.8604 58.7831 41.2771 59.0127 40.6848L58.5465 40.5041C58.8826 39.6369 59.1783 38.7502 59.4314 37.846L59.9129 37.9808C60.083 37.3728 60.2342 36.757 60.3658 36.1342L59.8766 36.0309C60.0682 35.1236 60.2175 34.201 60.3223 33.2652L60.8192 33.3208C60.8893 32.6947 60.9398 32.0629 60.9701 31.4258L60.4706 31.402C60.4927 30.9375 60.5039 30.47 60.5039 30C60.5039 29.53 60.4927 29.0625 60.4706 28.598L60.9701 28.5742C60.9398 27.9371 60.8893 27.3053 60.8192 26.6792L60.3223 26.7348C60.2175 25.799 60.0682 24.8764 59.8766 23.9691L60.3658 23.8658C60.2342 23.243 60.083 22.6272 59.9129 22.0192L59.4314 22.154C59.1783 21.2498 58.8826 20.3631 58.5465 19.4959L59.0127 19.3152C58.7831 18.7229 58.535 18.1396 58.2691 17.566L57.8154 17.7763C57.4214 16.9264 56.9875 16.0981 56.5161 15.2936L56.9475 15.0408C56.6269 14.4936 56.2891 13.9573 55.9351 13.4325L55.5206 13.7122C54.9975 12.9368 54.438 12.1871 53.8446 11.4655L54.2308 11.1479C53.8284 10.6585 53.4106 10.1818 52.9782 9.71848L52.6127 10.0596C51.9753 9.37666 51.3056 8.72328 50.6059 8.10185L50.938 7.72802C50.4647 7.30767 49.978 6.90171 49.4785 6.51084L49.1704 6.9046C48.4356 6.3296 47.6728 5.78779 46.8843 5.28148L47.1545 4.86075C46.6223 4.51905 46.0786 4.19325 45.5241 3.88404L45.2806 4.32073C44.467 3.86704 43.6298 3.44967 42.7711 3.07085L42.9729 2.61339C42.3948 2.35836 41.8072 2.12051 41.2107 1.90052L41.0377 2.36963C40.1654 2.04792 39.2738 1.76502 38.3651 1.52305L38.4937 1.03988C37.8838 0.877479 37.2664 0.73322 36.6419 0.607728L36.5434 1.09793C35.6341 0.915171 34.7097 0.772863 33.7722 0.673009L33.8252 0.175822C33.1989 0.10911 32.5669 0.0610469 31.9299 0.0322078L31.9073 0.531696C31.4422 0.510644 30.9743 0.5 30.5039 0.5C30.0335 0.5 29.5656 0.510644 29.1006 0.531696L29.0779 0.0322076C28.4409 0.0610467 27.8089 0.10911 27.1826 0.175822L27.2356 0.673009C26.2981 0.772863 25.3737 0.915171 24.4644 1.09793L24.3659 0.607727C23.7414 0.733219 23.124 0.877479 22.5141 1.03988L22.6427 1.52305C21.734 1.76502 20.8424 2.04792 19.9702 2.36963L19.7971 1.90052C19.2006 2.12051 18.613 2.35836 18.0349 2.61339L18.2367 3.07085C17.3781 3.44967 16.5408 3.86705 15.7272 4.32073L15.4837 3.88404C14.9292 4.19325 14.3855 4.51905 13.8533 4.86075L14.1235 5.28149C13.335 5.7878 12.5722 6.3296 11.8374 6.9046L11.5293 6.51084C11.0298 6.90171 10.5431 7.30767 10.0698 7.72802L10.4019 8.10185C9.70222 8.72328 9.03251 9.37666 8.39512 10.0596L8.02958 9.71849C7.5972 10.1818 7.17944 10.6585 6.77701 11.1479L7.16321 11.4655C6.56981 12.1871 6.01035 12.9368 5.4872 13.7122L5.07272 13.4325C4.71867 13.9573 4.38096 14.4936 4.0603 15.0408L4.49169 15.2936C4.02029 16.0981 3.5864 16.9264 3.19236 17.7763L2.73874 17.566C2.47281 18.1396 2.22472 18.7229 1.99514 19.3152L2.46135 19.4959C2.12521 20.3631 1.82949 21.2498 1.57645 22.154L1.09496 22.0192C0.924793 22.6272 0.773602 23.243 0.64204 23.8658L1.13124 23.9691C0.939594 24.8764 0.790314 25.799 0.685543 26.7348L0.188648 26.6792Z" stroke="#D1D1D1" stroke-dasharray="3 2"/>
<ellipse opacity="0.15" rx="20.1286" ry="19.7987" transform="matrix(-1 0 0 1 30.5003 29.9998)" fill="url(#paint0_linear)"/>
<path d="M34.0817 4.99442C33.9954 4.41983 33.1528 4.41983 33.0665 4.99442L32.9805 5.56747C32.9474 5.78761 32.7717 5.96048 32.5479 5.99299L31.9653 6.07763C31.3811 6.1625 31.3811 6.9913 31.9653 7.07617L32.5479 7.16081C32.7717 7.19332 32.9474 7.36619 32.9805 7.58633L33.0665 8.15938C33.1528 8.73397 33.9954 8.73397 34.0817 8.15938L34.1678 7.58633C34.2008 7.36619 34.3766 7.19332 34.6004 7.16081L35.183 7.07617C35.7671 6.9913 35.7671 6.1625 35.183 6.07763L34.6004 5.99299C34.3766 5.96048 34.2008 5.78761 34.1678 5.56747L34.0817 4.99442Z" fill="#C4C4C4"/>
<path d="M58.1199 1.52631C58.0145 0.824562 56.9855 0.824563 56.8801 1.52631L56.775 2.22619C56.7346 2.49505 56.52 2.70617 56.2466 2.74588L55.5351 2.84926C54.8216 2.95291 54.8216 3.96513 55.5351 4.06878L56.2466 4.17215C56.52 4.21186 56.7346 4.42298 56.775 4.69185L56.8801 5.39172C56.9855 6.09347 58.0145 6.09347 58.1199 5.39172L58.225 4.69185C58.2654 4.42298 58.48 4.21186 58.7534 4.17215L59.4649 4.06878C60.1784 3.96513 60.1784 2.95291 59.4649 2.84926L58.7534 2.74588C58.48 2.70617 58.2654 2.49505 58.225 2.22619L58.1199 1.52631Z" fill="#C4C4C4"/>
<path d="M37.9059 52.3772C37.8196 51.8026 36.977 51.8026 36.8907 52.3772L36.8047 52.9503C36.7716 53.1704 36.5959 53.3433 36.3721 53.3758L35.7895 53.4604C35.2053 53.5453 35.2053 54.3741 35.7895 54.459L36.3721 54.5436C36.5959 54.5761 36.7716 54.749 36.8047 54.9691L36.8907 55.5422C36.977 56.1168 37.8196 56.1168 37.9059 55.5422L37.992 54.9691C38.025 54.749 38.2008 54.5761 38.4246 54.5436L39.0072 54.459C39.5914 54.3741 39.5914 53.5453 39.0072 53.4604L38.4246 53.3758C38.2008 53.3433 38.025 53.1704 37.992 52.9503L37.9059 52.3772Z" fill="#C4C4C4"/>
<ellipse rx="0.955257" ry="0.939597" transform="matrix(-1 0 0 1 60.0486 58.9376)" fill="#C4C4C4"/>
<ellipse rx="0.955257" ry="0.939597" transform="matrix(-1 0 0 1 52.408 35.5705)" fill="#C4C4C4"/>
<ellipse rx="1.56935" ry="1.54362" transform="matrix(-1 0 0 1 3.57127 57.5436)" fill="#C4C4C4"/>
<ellipse rx="0.955257" ry="0.939597" transform="matrix(-1 0 0 1 5.95881 25.9376)" fill="#C4C4C4"/>
<path d="M46.5091 30.5939C46.5091 30.0456 46.4747 29.5047 46.4079 28.9725H30.582V45.1135C39.477 44.8793 46.5091 38.4162 46.5091 30.5939Z" fill="white" stroke="#0500FF"/>
<path d="M46.4079 28.9721H30.582V35.5799C35.2094 35.6961 39.3937 37.4197 42.4459 40.1568C44.9824 37.5949 46.5091 34.2477 46.5091 30.5935C46.5091 30.0452 46.4747 29.5043 46.4079 28.9721Z" fill="white" stroke="#0500FF"/>
<path d="M30.582 28.9725V44.8785C36.201 42.4637 40.0607 37.2415 40.0607 31.2215C40.0607 30.457 39.9986 29.706 39.8788 28.9725H30.582Z" stroke="#0500FF"/>
<path d="M15.0651 30.5939C15.0651 30.0456 15.0995 29.5047 15.1663 28.9725H30.9922V45.1135C22.0972 44.8793 15.0651 38.4162 15.0651 30.5939Z" fill="white" stroke="#0500FF"/>
<path d="M15.1663 28.9731H30.9922V35.5809C26.3648 35.697 22.1805 37.4207 19.1283 40.1578C16.5919 37.5958 15.0651 34.2486 15.0651 30.5944C15.0651 30.0462 15.0995 29.5052 15.1663 28.9731Z" fill="white" stroke="#0500FF"/>
<path d="M30.9922 28.9725V44.8785C25.3732 42.4637 21.5135 37.2415 21.5135 31.2215C21.5135 30.457 21.5757 29.706 21.6954 28.9725H30.9922Z" stroke="#0500FF"/>
<path d="M46.5091 28.8309C46.5091 29.3792 46.4747 29.9201 46.4079 30.4523H30.582V14.3113C39.477 14.5455 46.5091 21.0086 46.5091 28.8309Z" fill="white" stroke="#0500FF"/>
<path d="M46.4079 30.4527H30.582V23.8449C35.2094 23.7287 39.3937 22.0051 42.4459 19.268C44.9824 21.8299 46.5091 25.1771 46.5091 28.8313C46.5091 29.3796 46.4747 29.9205 46.4079 30.4527Z" fill="white" stroke="#0500FF"/>
<path d="M30.582 30.4523V14.5463C36.201 16.9611 40.0607 22.1833 40.0607 28.2033C40.0607 28.9678 39.9986 29.7188 39.8788 30.4523H30.582Z" stroke="#0500FF"/>
<path d="M15.0651 28.8309C15.0651 29.3792 15.0995 29.9201 15.1663 30.4523H30.9922V14.3113C22.0972 14.5455 15.0651 21.0086 15.0651 28.8309Z" fill="white" stroke="#0500FF"/>
<path d="M15.1663 30.4527H30.9922V23.8449C26.3648 23.7287 22.1805 22.0051 19.1283 19.268C16.5919 21.8299 15.0651 25.1771 15.0651 28.8313C15.0651 29.3796 15.0995 29.9205 15.1663 30.4527Z" fill="white" stroke="#0500FF"/>
<path d="M30.9922 30.4523V14.5463C25.3732 16.9611 21.5135 22.1833 21.5135 28.2033C21.5135 28.9678 21.5757 29.7188 21.6954 30.4523H30.9922Z" stroke="#0500FF"/>
<mask id="mask0" mask-type="alpha" maskUnits="userSpaceOnUse" x="3" y="3" width="54" height="54">
<path d="M37.2342 22.8461C23.0065 8.85159 8.27617 0.650923 4.3331 4.52935C1.49276 7.32312 5.02455 15.6225 12.54 25.2768L14.733 19.6403L36.0852 24.6354L51.0895 42.4589L35.0465 47.3481C44.7403 54.5941 53.0432 57.9746 55.8562 55.2078C59.7992 51.3294 51.4619 36.8405 37.2342 22.8461Z" fill="white"/>
</mask>
<g mask="url(#mask0)">
<path d="M55.4997 54.8572C54.7 55.6438 53.2653 55.8968 51.1555 55.4645C49.0699 55.0373 46.466 53.9655 43.5107 52.3202C37.6065 49.0333 30.4027 43.5154 23.3115 36.5405C16.2204 29.5656 10.6105 22.4798 7.26877 16.6725C5.59608 13.7656 4.50646 11.2044 4.07206 9.153C3.63259 7.07771 3.88984 5.66658 4.68956 4.87997C5.48929 4.09336 6.92394 3.84032 9.03381 4.27258C11.1194 4.69986 13.7233 5.77162 16.6786 7.41689C22.5828 10.7039 29.7866 16.2218 36.8777 23.1967C43.9689 30.1716 49.5788 37.2573 52.9205 43.0647C54.5932 45.9715 55.6828 48.5328 56.1172 50.5841C56.5567 52.6594 56.2994 54.0705 55.4997 54.8572Z" stroke="#D1D1D1"/>
</g>
<mask id="mask1" mask-type="alpha" maskUnits="userSpaceOnUse" x="3" y="3" width="54" height="54">
<path d="M55.8601 4.52952C53.0807 1.79568 44.9415 5.06347 35.3966 12.1316C35.3966 12.1316 44.9044 14.3752 40.7056 18.5052C38.3692 20.8034 27.2331 36.8437 19.9304 40.6427C14.9902 43.2126 12.6807 34.2853 12.6807 34.2853C5.0714 44.0143 1.4795 52.3973 4.33701 55.208C8.28007 59.0864 23.0104 50.8857 37.2381 36.8913C51.4658 22.8968 59.8031 8.40795 55.8601 4.52952Z" fill="white"/>
</mask>
<g mask="url(#mask1)">
<path d="M55.5036 4.88014C54.7039 4.09353 53.2692 3.8405 51.1594 4.27276C49.0738 4.70004 46.4699 5.7718 43.5146 7.41706C37.6104 10.704 30.4066 16.2219 23.3155 23.1968C16.2243 30.1717 10.6144 37.2575 7.27268 43.0648C5.59999 45.9717 4.51036 48.5329 4.07596 50.5843C3.6365 52.6596 3.89375 54.0707 4.69347 54.8573C5.49319 55.6439 6.92785 55.897 9.03772 55.4647C11.1233 55.0374 13.7272 53.9657 16.6825 52.3204C22.5867 49.0334 29.7905 43.5155 36.8816 36.5406C43.9728 29.5657 49.5827 22.48 52.9244 16.6726C54.5971 13.7658 55.6867 11.2045 56.1211 9.15317C56.5606 7.07789 56.3033 5.66676 55.5036 4.88014Z" stroke="#D1D1D1"/>
</g>
<ellipse rx="1.56935" ry="1.54362" transform="matrix(-1 0 0 1 19.5713 9.54167)" fill="url(#paint1_linear)"/>
</g>
<defs>
<linearGradient id="paint0_linear" x1="31.9684" y1="-2.72682" x2="-8.82339" y2="28.1653" gradientUnits="userSpaceOnUse">
<stop stop-color="#3CE700"/>
<stop offset="0.567708" stop-color="#0BC91E"/>
</linearGradient>
<linearGradient id="paint1_linear" x1="2.49245" y1="-0.212599" x2="-0.687926" y2="2.19593" gradientUnits="userSpaceOnUse">
<stop stop-color="#3CE700"/>
<stop offset="0.567708" stop-color="#0BC91E"/>
</linearGradient>
<clipPath id="clip0">
<rect width="61" height="60" fill="white" transform="translate(0.00390625)"/>
</clipPath>
</defs>
</svg>
