<svg width="115" height="120" viewBox="0 0 115 120" fill="none" xmlns="http://www.w3.org/2000/svg">
<g clip-path="url(#clip0)">
<circle cx="57.5" cy="61.5" r="56" fill="white" stroke="#D1D1D1"/>
<path d="M101.73 56.5427C101.838 57.5235 101.914 58.5139 101.957 59.5129L101.457 59.5346C101.486 60.1861 101.5 60.8414 101.5 61.5C101.5 62.1586 101.486 62.8139 101.457 63.4654L101.957 63.4871C101.914 64.4861 101.838 65.4765 101.73 66.4573L101.233 66.4028C101.089 67.7144 100.889 69.0085 100.633 70.2825L101.124 70.3807C100.928 71.3597 100.7 72.327 100.441 73.2815L99.9588 73.1508C99.6148 74.4213 99.2159 75.6688 98.7649 76.8905L99.2339 77.0637C98.8888 77.9986 98.5134 78.9186 98.1091 79.8225L97.6527 79.6183C97.1162 80.8176 96.5282 81.9882 95.8913 83.1273L96.3278 83.3713C95.8422 84.2398 95.3286 85.0901 94.7882 85.9211L94.3691 85.6485C93.6539 86.7482 92.8912 87.8136 92.0841 88.8417L92.4774 89.1505C91.8636 89.9322 91.2244 90.6926 90.561 91.4304L90.1892 91.0961C89.3132 92.0703 88.3945 93.0046 87.4362 93.8959L87.7768 94.262C87.0496 94.9384 86.2999 95.5902 85.5289 96.2164L85.2137 95.8283C84.1982 96.653 83.1453 97.4326 82.058 98.164L82.3371 98.5789C81.5141 99.1325 80.6717 99.6589 79.811 100.157L79.5606 99.7238C78.4302 100.378 77.268 100.982 76.077 101.533L76.2869 101.987C75.3879 102.403 74.4726 102.789 73.5422 103.144L73.3638 102.677C72.1467 103.142 70.9036 103.553 69.6373 103.908L69.7722 104.389C68.8195 104.656 67.8539 104.892 66.8765 105.094L66.775 104.604C65.5029 104.868 64.2105 105.075 62.9004 105.224L62.9567 105.721C61.9762 105.832 60.9859 105.911 59.9869 105.955L59.9645 105.456C59.3133 105.485 58.6584 105.5 58 105.5C57.3416 105.5 56.6867 105.485 56.0355 105.456L56.0131 105.955C55.0141 105.911 54.0238 105.832 53.0433 105.721L53.0996 105.224C51.7895 105.075 50.4971 104.868 49.225 104.604L49.1235 105.094C48.1461 104.892 47.1805 104.656 46.2278 104.389L46.3627 103.908C45.0964 103.553 43.8533 103.142 42.6362 102.677L42.4578 103.144C41.5274 102.789 40.6121 102.403 39.7131 101.987L39.923 101.533C38.732 100.982 37.5698 100.378 36.4394 99.7238L36.189 100.157C35.3283 99.6589 34.4859 99.1325 33.6629 98.5789L33.942 98.164C32.8547 97.4326 31.8018 96.653 30.7863 95.8283L30.4711 96.2164C29.7001 95.5902 28.9504 94.9384 28.2232 94.262L28.5638 93.8959C27.6055 93.0046 26.6868 92.0703 25.8108 91.0961L25.439 91.4304C24.7756 90.6926 24.1364 89.9322 23.5226 89.1505L23.9159 88.8417C23.1088 87.8136 22.3461 86.7482 21.6309 85.6485L21.2118 85.9211C20.6714 85.0901 20.1578 84.2398 19.6722 83.3713L20.1087 83.1273C19.4718 81.9882 18.8838 80.8176 18.3473 79.6183L17.8909 79.8225C17.4866 78.9186 17.1112 77.9986 16.7661 77.0637L17.2352 76.8905C16.7841 75.6688 16.3852 74.4213 16.0412 73.1508L15.5586 73.2815C15.3002 72.327 15.0723 71.3597 14.8763 70.3807L15.3666 70.2825C15.1114 69.0085 14.9107 67.7144 14.767 66.4029L14.27 66.4573C14.1625 65.4765 14.0865 64.4861 14.0431 63.4871L14.5426 63.4654C14.5143 62.8139 14.5 62.1586 14.5 61.5C14.5 60.8414 14.5143 60.1861 14.5426 59.5346L14.0431 59.5129C14.0865 58.5139 14.1625 57.5235 14.2699 56.5427L14.767 56.5972C14.9107 55.2856 15.1114 53.9915 15.3666 52.7175L14.8763 52.6193C15.0723 51.6403 15.3001 50.673 15.5586 49.7185L16.0412 49.8492C16.3852 48.5787 16.7841 47.3312 17.2351 46.1095L16.7661 45.9363C17.1112 45.0014 17.4866 44.0814 17.8909 43.1775L18.3473 43.3817C18.8838 42.1824 19.4718 41.0118 20.1087 39.8727L19.6722 39.6287C20.1578 38.7602 20.6714 37.9099 21.2118 37.0789L21.6309 37.3515C22.3461 36.2518 23.1088 35.1864 23.9159 34.1583L23.5226 33.8495C24.1364 33.0678 24.7756 32.3074 25.439 31.5696L25.8108 31.9039C26.6868 30.9297 27.6055 29.9954 28.5638 29.1041L28.2232 28.738C28.9504 28.0616 29.7001 27.4098 30.4711 26.7836L30.7863 27.1717C31.8018 26.347 32.8547 25.5674 33.942 24.836L33.6629 24.4211C34.4859 23.8675 35.3283 23.3411 36.189 22.8433L36.4394 23.2762C37.5698 22.6224 38.732 22.0184 39.923 21.4672L39.7131 21.0135C40.6121 20.5974 41.5274 20.2111 42.4578 19.8558L42.6362 20.3229C43.8533 19.858 45.0964 19.4468 46.3627 19.0921L46.2278 18.6106C47.1805 18.3437 48.1461 18.1084 49.1235 17.9059L49.225 18.3955C50.4971 18.132 51.7895 17.9246 53.0996 17.776L53.0433 17.2792C54.0238 17.1681 55.0141 17.0895 56.0131 17.0446L56.0355 17.5441C56.6867 17.5148 57.3416 17.5 58 17.5C58.6584 17.5 59.3133 17.5148 59.9645 17.5441L59.9869 17.0446C60.9859 17.0895 61.9762 17.1681 62.9567 17.2792L62.9004 17.776C64.2105 17.9246 65.5029 18.132 66.775 18.3955L66.8765 17.9059C67.8539 18.1084 68.8195 18.3437 69.7722 18.6106L69.6373 19.0921C70.9036 19.4468 72.1467 19.858 73.3638 20.3229L73.5422 19.8558C74.4726 20.2111 75.3879 20.5974 76.2869 21.0135L76.077 21.4672C77.268 22.0184 78.4302 22.6224 79.5606 23.2762L79.811 22.8433C80.6717 23.3411 81.5141 23.8675 82.3371 24.4211L82.058 24.836C83.1453 25.5674 84.1982 26.347 85.2137 27.1717L85.5289 26.7836C86.2999 27.4098 87.0496 28.0616 87.7768 28.738L87.4362 29.1041C88.3945 29.9954 89.3132 30.9297 90.1892 31.9039L90.561 31.5696C91.2244 32.3074 91.8636 33.0678 92.4774 33.8495L92.0841 34.1583C92.8912 35.1864 93.6539 36.2518 94.3691 37.3515L94.7882 37.0789C95.3286 37.9099 95.8422 38.7602 96.3278 39.6287L95.8913 39.8727C96.5282 41.0118 97.1162 42.1824 97.6527 43.3817L98.1091 43.1775C98.5134 44.0814 98.8888 45.0014 99.2339 45.9363L98.7648 46.1095C99.2159 47.3312 99.6148 48.5787 99.9588 49.8492L100.441 49.7185C100.7 50.673 100.928 51.6403 101.124 52.6193L100.633 52.7175C100.889 53.9915 101.089 55.2856 101.233 56.5971L101.73 56.5427Z" stroke="#D1D1D1" stroke-dasharray="4 3"/>
<ellipse cx="26.5" cy="31" rx="5.5" ry="5" fill="white"/>
<ellipse cx="107.522" cy="45.5868" rx="7.47937" ry="7.47937" fill="white"/>
<ellipse cx="97.5" cy="43" rx="4.5" ry="4" fill="white"/>
<circle cx="24.5" cy="92.5" r="4.5" fill="white"/>
<ellipse rx="4" ry="4.5" transform="matrix(-1 0 0 1 78 10.5)" fill="white"/>
<ellipse rx="4.5" ry="4" transform="matrix(-1 0 0 1 88.5 15)" fill="white"/>
<ellipse cx="11.1137" cy="94.1137" rx="4.11365" ry="4.11366" fill="white"/>
<path d="M26.2561 28.6421C26.3825 27.786 27.6175 27.786 27.7439 28.6421L27.87 29.4959C27.9185 29.824 28.176 30.0815 28.5041 30.13L29.3579 30.2561C30.214 30.3825 30.214 31.6175 29.3579 31.7439L28.5041 31.87C28.176 31.9185 27.9185 32.176 27.87 32.5041L27.7439 33.3579C27.6175 34.214 26.3825 34.214 26.2561 33.3579L26.13 32.5041C26.0815 32.176 25.824 31.9185 25.4959 31.87L24.6421 31.7439C23.786 31.6175 23.786 30.3825 24.6421 30.2561L25.4959 30.13C25.824 30.0815 26.0815 29.824 26.13 29.4959L26.2561 28.6421Z" fill="#C4C4C4"/>
<path d="M109.384 40.9632C109.574 39.6789 111.426 39.6789 111.616 40.9632L111.805 42.2439C111.878 42.7359 112.264 43.1223 112.756 43.195L114.037 43.3841C115.321 43.5738 115.321 45.4262 114.037 45.6159L112.756 45.805C112.264 45.8777 111.878 46.2641 111.805 46.7561L111.616 48.0368C111.426 49.3211 109.574 49.321 109.384 48.0368L109.195 46.7561C109.122 46.2641 108.736 45.8777 108.244 45.805L106.963 45.6159C105.679 45.4262 105.679 43.5738 106.963 43.3841L108.244 43.195C108.736 43.1223 109.122 42.7359 109.195 42.2439L109.384 40.9632Z" fill="#C4C4C4"/>
<path d="M3.36595 17.958C3.55461 16.6807 5.39702 16.6807 5.58568 17.958L5.77383 19.2319C5.84611 19.7212 6.23039 20.1055 6.71977 20.1778L7.99365 20.3659C9.27095 20.5546 9.27095 22.397 7.99365 22.5857L6.71977 22.7738C6.23039 22.8461 5.84611 23.2304 5.77383 23.7198L5.58568 24.9936C5.39702 26.2709 3.55461 26.2709 3.36595 24.9936L3.1778 23.7198C3.10551 23.2304 2.72124 22.8461 2.23186 22.7738L0.957976 22.5857C-0.319326 22.397 -0.319325 20.5546 0.957977 20.3659L2.23186 20.1778C2.72124 20.1055 3.10551 19.7212 3.1778 19.2319L3.36595 17.958Z" fill="#C4C4C4"/>
<path d="M69.4257 -5.04617C69.5439 -5.84659 70.6984 -5.84659 70.8166 -5.04617L70.9345 -4.24789C70.9798 -3.94123 71.2206 -3.70042 71.5273 -3.65512L72.3256 -3.53722C73.126 -3.41899 73.126 -2.26445 72.3256 -2.14623L71.5273 -2.02832C71.2206 -1.98302 70.9798 -1.74222 70.9345 -1.43555L70.8166 -0.637271C70.6984 0.163149 69.5439 0.163148 69.4257 -0.637272L69.3077 -1.43555C69.2625 -1.74222 69.0216 -1.98302 68.715 -2.02832L67.9167 -2.14623C67.1163 -2.26445 67.1163 -3.41899 67.9167 -3.53722L68.715 -3.65512C69.0216 -3.70042 69.2625 -3.94123 69.3077 -4.24789L69.4257 -5.04617Z" fill="#C4C4C4"/>
<circle cx="24.5" cy="91.5" r="1.5" fill="#C4C4C4"/>
<ellipse cx="108.15" cy="9.15032" rx="2.15032" ry="2.15032" fill="#C4C4C4"/>
<ellipse cx="7.15032" cy="114.15" rx="2.15032" ry="2.15032" fill="#C4C4C4"/>
<ellipse cx="112" cy="98.5" rx="2" ry="2.5" fill="#C4C4C4"/>
<circle cx="96.5" cy="43.5" r="1.5" fill="#C4C4C4"/>
<circle cx="107.5" cy="67.5" r="1.5" fill="#C4C4C4"/>
<circle cx="24.5" cy="7.5" r="1.5" fill="#C4C4C4"/>
<path d="M42.409 88.6112C42.409 78.3779 49.514 70.0821 57.3906 70.0821C65.2672 70.0821 72.9882 78.3779 72.9882 88.6112C72.9882 98.8445 80.1 105.758 57.3906 107.14C32.8399 108.635 42.409 98.8445 42.409 88.6112Z" fill="white"/>
<circle opacity="0.05" cx="57.8712" cy="61.5744" r="33.9376" fill="#0500FF"/>
<path d="M55.996 41.2148C55.8707 39.8275 55.9187 38.8593 55.9187 37.5916C56.5453 37.262 57.668 35.1604 57.8577 33.385C58.3503 33.3446 59.1271 32.8626 59.3545 30.9598C59.4773 29.9383 58.9898 29.3634 58.6928 29.1827C59.4945 26.7653 61.1596 19.2866 55.6132 18.5138C55.0424 17.5086 53.5807 17 51.6812 17C44.0817 17.1403 43.165 22.754 44.831 29.1827C44.5349 29.3634 44.0474 29.9383 44.1693 30.9598C44.3976 32.8626 45.1735 33.3446 45.6662 33.385C45.855 35.1596 47.0223 37.262 47.6506 37.5916C47.6506 38.8593 47.6978 39.8275 47.5725 41.2148C46.1595 45.0235 37.1163 44.2489 35.6406 50.6269C35.4636 51.392 35.975 52.1179 36.7227 52.3522C49.3836 56.3192 56.4379 56.511 66.9286 52.406C67.6128 52.1383 68.0611 51.4451 67.9057 50.7254C66.5058 44.2409 57.4162 45.0429 55.996 41.2148Z" fill="white"/>
<path d="M55.996 41.2148L55.498 41.2597L55.504 41.3262L55.5272 41.3887L55.996 41.2148ZM55.9187 37.5916L55.6859 37.1491L55.4187 37.2897V37.5916H55.9187ZM57.8577 33.385L57.8167 32.8867L57.4044 32.9205L57.3605 33.3319L57.8577 33.385ZM59.3545 30.9598L58.8581 30.9002L58.8581 30.9005L59.3545 30.9598ZM58.6928 29.1827L58.2182 29.0253L58.093 29.403L58.4329 29.6098L58.6928 29.1827ZM55.6132 18.5138L55.1784 18.7607L55.3001 18.975L55.5442 19.009L55.6132 18.5138ZM51.6812 17V16.4999L51.672 16.5001L51.6812 17ZM44.831 29.1827L45.0915 29.6095L45.4081 29.4163L45.315 29.0573L44.831 29.1827ZM44.1693 30.9598L43.6728 31.0191L43.6728 31.0194L44.1693 30.9598ZM45.6662 33.385L46.1634 33.3321L46.1196 32.9205L45.7071 32.8867L45.6662 33.385ZM47.6506 37.5916H48.1506V37.2893L47.8829 37.1489L47.6506 37.5916ZM47.5725 41.2148L48.0413 41.3887L48.0644 41.3262L48.0704 41.2597L47.5725 41.2148ZM66.9286 52.406L67.1108 52.8716L67.1108 52.8716L66.9286 52.406ZM67.9057 50.7254L68.3945 50.6199L67.9057 50.7254ZM35.6406 50.6269L35.1535 50.5142L35.1535 50.5142L35.6406 50.6269ZM36.7227 52.3522L36.8722 51.875L36.8722 51.875L36.7227 52.3522ZM56.4939 41.1698C56.3713 39.8121 56.4187 38.8812 56.4187 37.5916H55.4187C55.4187 38.8374 55.37 39.8428 55.498 41.2597L56.4939 41.1698ZM56.1515 38.0341C56.4161 37.895 56.6599 37.6204 56.8643 37.3382C57.0814 37.0384 57.3008 36.663 57.5018 36.2488C57.9019 35.4245 58.2522 34.3987 58.3548 33.4381L57.3605 33.3319C57.2734 34.1467 56.9675 35.0594 56.6022 35.8122C56.4205 36.1865 56.2299 36.5093 56.0544 36.7517C55.8661 37.0117 55.7347 37.1235 55.6859 37.1491L56.1515 38.0341ZM57.8986 33.8833C58.7377 33.8144 59.6109 33.0283 59.851 31.0192L58.8581 30.9005C58.6433 32.697 57.9629 32.8747 57.8167 32.8867L57.8986 33.8833ZM59.851 31.0195C59.9973 29.8016 59.4156 29.0372 58.9527 28.7556L58.4329 29.6098C58.5639 29.6896 58.9573 30.075 58.8581 30.9002L59.851 31.0195ZM59.1674 29.3401C59.5771 28.1045 60.2163 25.5572 60.032 23.1927C59.9396 22.0074 59.6371 20.8235 58.9525 19.8744C58.2561 18.9089 57.1948 18.2293 55.6822 18.0186L55.5442 19.009C56.8048 19.1847 57.6152 19.7297 58.1415 20.4594C58.6795 21.2054 58.9506 22.1872 59.035 23.2704C59.2043 25.4427 58.6101 27.8434 58.2182 29.0253L59.1674 29.3401ZM56.048 18.2669C55.6875 17.632 55.0669 17.1915 54.321 16.9118C53.5747 16.632 52.6712 16.5 51.6812 16.5V17.5C52.5907 17.5 53.3677 17.6223 53.9699 17.8481C54.5724 18.074 54.9681 18.3904 55.1784 18.7607L56.048 18.2669ZM51.672 16.5001C49.7131 16.5362 48.1426 16.9257 46.922 17.6248C45.695 18.3277 44.8492 19.3281 44.3233 20.5332C43.2837 22.9153 43.5061 26.0632 44.347 29.3081L45.315 29.0573C44.49 25.8735 44.3377 23.0002 45.2398 20.9332C45.6847 19.9137 46.3889 19.0826 47.4191 18.4926C48.4557 17.8988 49.8496 17.5339 51.6905 17.4999L51.672 16.5001ZM44.5705 28.7559C44.1091 29.0375 43.5275 29.8014 43.6728 31.0191L44.6657 30.9006C44.5673 30.0752 44.9607 29.6893 45.0915 29.6095L44.5705 28.7559ZM43.6728 31.0194C43.9138 33.028 44.7859 33.8144 45.6252 33.8833L45.7071 32.8867C45.561 32.8747 44.8813 32.6972 44.6657 30.9003L43.6728 31.0194ZM45.169 33.4379C45.2715 34.4017 45.6346 35.4295 46.0463 36.2536C46.2533 36.668 46.4786 37.043 46.7001 37.3423C46.9089 37.6243 47.1555 37.8965 47.4183 38.0344L47.8829 37.1489C47.8315 37.1219 47.6966 37.0077 47.5039 36.7474C47.3239 36.5043 47.1278 36.181 46.9409 35.8067C46.5646 35.0536 46.2496 34.1429 46.1634 33.3321L45.169 33.4379ZM47.1506 37.5916C47.1506 38.8807 47.1971 39.8121 47.0745 41.1698L48.0704 41.2597C48.1984 39.8429 48.1506 38.8379 48.1506 37.5916H47.1506ZM47.1037 41.0408C46.8157 41.8172 46.1221 42.4082 45.0868 42.9528C44.0446 43.501 42.7875 43.94 41.4397 44.495C38.814 45.5763 35.9528 47.0596 35.1535 50.5142L36.1278 50.7397C36.8041 47.8163 39.2023 46.4979 41.8205 45.4197C43.0945 44.895 44.4554 44.4149 45.5523 43.8378C46.6561 43.2572 47.6228 42.5166 48.0413 41.3887L47.1037 41.0408ZM36.5732 52.8293C42.9228 54.8188 47.9063 55.8749 52.6362 55.9061C57.374 55.9373 61.8244 54.9402 67.1108 52.8716L66.7464 51.9404C61.5421 53.9768 57.22 54.9363 52.6428 54.9061C48.0576 54.8759 43.1835 53.8525 36.8722 51.875L36.5732 52.8293ZM68.3945 50.6199C67.6365 47.1088 64.7817 45.6035 62.15 44.5121C60.7991 43.9519 59.5392 43.5119 58.4918 42.9614C57.4521 42.4148 56.7545 41.8219 56.4647 41.0408L55.5272 41.3887C55.9475 42.5217 56.9187 43.2642 58.0265 43.8465C59.1266 44.4248 60.4929 44.9075 61.7669 45.4358C64.3851 46.5216 66.7751 47.8574 67.417 50.8309L68.3945 50.6199ZM67.1108 52.8716C67.9831 52.5303 68.6103 51.6195 68.3945 50.6199L67.417 50.8309C67.512 51.2708 67.2426 51.7462 66.7464 51.9404L67.1108 52.8716ZM35.1535 50.5142C34.9063 51.5825 35.6266 52.5327 36.5732 52.8293L36.8722 51.875C36.3234 51.7031 36.0209 51.2016 36.1278 50.7397L35.1535 50.5142Z" fill="#0500FF"/>
<path d="M29.4534 47.3709C29.5779 45.9915 29.5301 45.0288 29.5301 43.7682C28.9077 43.4405 27.7926 41.3508 27.6042 39.5854C27.1148 39.5452 26.3433 39.066 26.1173 37.1739C25.9954 36.1582 26.4797 35.5865 26.7747 35.4068C25.9784 33.003 24.3244 25.5667 29.8336 24.7982C30.4006 23.7987 31.8525 23.293 33.7392 23.293C41.2877 23.4325 42.1982 29.0144 40.5434 35.4068C40.8375 35.5865 41.3218 36.1582 41.2007 37.1739C40.9739 39.066 40.2032 39.5452 39.7139 39.5854C39.5263 41.3499 38.3668 43.4405 37.7428 43.7682C37.7428 45.0288 37.6959 45.9915 37.8203 47.3709C39.2238 51.1581 48.2063 50.3879 49.6721 56.7299C49.8479 57.4907 49.34 58.2124 48.5973 58.4454C36.0214 62.39 29.0144 62.5807 18.5941 58.4989C17.9145 58.2327 17.4692 57.5435 17.6235 56.8278C19.0141 50.3799 28.0427 51.1775 29.4534 47.3709Z" fill="white"/>
<path d="M29.4534 47.3709L29.9514 47.4158L29.9454 47.4822L29.9222 47.5447L29.4534 47.3709ZM29.5301 43.7682L29.7631 43.3258L30.0301 43.4665V43.7682H29.5301ZM27.6042 39.5854L27.6451 39.0871L28.0575 39.121L28.1014 39.5323L27.6042 39.5854ZM26.1173 37.1739L26.6138 37.1143L26.6138 37.1146L26.1173 37.1739ZM26.7747 35.4068L27.2493 35.2496L27.3743 35.627L27.0348 35.8338L26.7747 35.4068ZM29.8336 24.7982L30.2685 25.0449L30.1469 25.2594L29.9027 25.2934L29.8336 24.7982ZM33.7392 23.293V22.7929L33.7484 22.7931L33.7392 23.293ZM40.5434 35.4068L40.2827 35.8335L39.9665 35.6403L40.0594 35.2815L40.5434 35.4068ZM41.2007 37.1739L41.6972 37.2331L41.6972 37.2334L41.2007 37.1739ZM39.7139 39.5854L39.2167 39.5325L39.2604 39.121L39.6729 39.0871L39.7139 39.5854ZM37.7428 43.7682H37.2428V43.4661L37.5103 43.3256L37.7428 43.7682ZM37.8203 47.3709L37.3515 47.5447L37.3284 47.4822L37.3224 47.4158L37.8203 47.3709ZM18.5941 58.4989L18.4117 58.9645L18.5941 58.4989ZM17.6235 56.8278L17.1348 56.7224L17.6235 56.8278ZM49.6721 56.7299L50.1593 56.6173L49.6721 56.7299ZM48.5973 58.4454L48.4477 57.9683L48.4477 57.9683L48.5973 58.4454ZM28.9554 47.326C29.0772 45.9761 29.0301 45.0506 29.0301 43.7682H30.0301C30.0301 45.0069 30.0785 46.0068 29.9514 47.4158L28.9554 47.326ZM29.2971 44.2106C29.0336 44.0719 28.791 43.7984 28.588 43.5177C28.3722 43.2194 28.1542 42.846 27.9545 42.4341C27.557 41.6142 27.209 40.5939 27.107 39.6385L28.1014 39.5323C28.1878 40.3422 28.4915 41.2495 28.8543 41.9978C29.0348 42.37 29.224 42.6908 29.3982 42.9316C29.5852 43.1901 29.7154 43.3007 29.7631 43.3258L29.2971 44.2106ZM27.5632 40.0837C26.7271 40.015 25.8594 39.2311 25.6209 37.2332L26.6138 37.1146C26.8271 38.9008 27.5025 39.0754 27.6451 39.0871L27.5632 40.0837ZM25.6209 37.2335C25.4755 36.0217 26.0536 35.2606 26.5145 34.9798L27.0348 35.8338C26.9057 35.9124 26.5154 36.2946 26.6138 37.1143L25.6209 37.2335ZM26.3 35.564C25.893 34.3353 25.258 31.8021 25.4411 29.4505C25.5329 28.2716 25.8334 27.094 26.5138 26.1497C27.206 25.189 28.2611 24.5127 29.7645 24.303L29.9027 25.2934C28.6515 25.4679 27.8474 26.0094 27.3252 26.7343C26.7911 27.4755 26.5219 28.4513 26.4381 29.5281C26.2699 31.6877 26.86 34.0745 27.2493 35.2496L26.3 35.564ZM29.3987 24.5515C29.7572 23.9195 30.3743 23.481 31.1158 23.2027C31.8576 22.9242 32.7555 22.793 33.7392 22.793V23.793C32.8361 23.793 32.0648 23.9146 31.4672 24.1389C30.8693 24.3633 30.477 24.6774 30.2685 25.0449L29.3987 24.5515ZM33.7484 22.7931C35.6946 22.829 37.2552 23.2164 38.4683 23.9119C39.6878 24.6112 40.5283 25.6065 41.0509 26.8052C42.0838 29.1746 41.8628 32.3054 41.0274 35.5321L40.0594 35.2815C40.8788 32.1159 41.0299 29.2594 40.1342 27.2049C39.6924 26.1916 38.9934 25.3658 37.9708 24.7794C36.9419 24.1894 35.558 23.8267 33.7299 23.7929L33.7484 22.7931ZM40.8041 34.9801C41.2635 35.2609 41.8416 36.0215 41.6972 37.2331L40.7042 37.1147C40.8019 36.2949 40.4115 35.9122 40.2827 35.8335L40.8041 34.9801ZM41.6972 37.2334C41.4577 39.2309 40.5911 40.015 39.7548 40.0837L39.6729 39.0871C39.8153 39.0754 40.4901 38.901 40.7043 37.1144L41.6972 37.2334ZM40.2111 39.6382C40.1092 40.5969 39.7484 41.6192 39.3394 42.4389C39.1337 42.851 38.9098 43.2241 38.6897 43.5218C38.4823 43.8023 38.237 44.0735 37.9752 44.2109L37.5103 43.3256C37.5606 43.2992 37.6942 43.1861 37.8856 42.9273C38.0642 42.6857 38.2589 42.3644 38.4446 41.9924C38.8182 41.2436 39.131 40.3384 39.2167 39.5325L40.2111 39.6382ZM38.2428 43.7682C38.2428 45.0501 38.1965 45.9761 38.3183 47.326L37.3224 47.4158C37.1952 46.0068 37.2428 45.0074 37.2428 43.7682H38.2428ZM38.2892 47.1972C38.5749 47.9682 39.2631 48.5553 40.2911 49.0967C41.3261 49.6418 42.5744 50.0781 43.9134 50.6301C46.5216 51.7053 49.365 53.1808 50.1593 56.6173L49.1849 56.8425C48.5134 53.9371 46.1327 52.6266 43.5323 51.5546C42.2671 51.033 40.915 50.5554 39.8252 49.9815C38.7285 49.404 37.7675 48.6672 37.3515 47.5447L38.2892 47.1972ZM48.747 58.9225C42.4398 60.9008 37.4893 61.951 32.7906 61.982C28.084 62.0131 23.6629 61.0214 18.4117 58.9645L18.7765 58.0333C23.9455 60.0582 28.2382 61.012 32.784 60.982C37.3379 60.952 42.1789 59.9346 48.4477 57.9683L48.747 58.9225ZM17.1348 56.7224C17.888 53.2298 20.725 51.7324 23.3392 50.6471C24.6813 50.0899 25.9324 49.6526 26.9725 49.1052C28.005 48.5619 28.6971 47.9728 28.9845 47.1972L29.9222 47.5447C29.5043 48.6723 28.5389 49.411 27.4382 49.9902C26.3453 50.5654 24.9878 51.0454 23.7226 51.5707C21.1222 52.6502 18.7496 53.9779 18.1123 56.9332L17.1348 56.7224ZM18.4117 58.9645C17.5438 58.6245 16.9202 57.7175 17.1348 56.7224L18.1123 56.9332C18.0182 57.3694 18.2852 57.8409 18.7765 58.0333L18.4117 58.9645ZM50.1593 56.6173C50.405 57.6808 49.6888 58.627 48.747 58.9225L48.4477 57.9683C48.9911 57.7978 49.2908 57.3006 49.1849 56.8425L50.1593 56.6173Z" fill="#0500FF"/>
<path d="M75.4651 42.5175C75.5896 41.1302 75.5418 40.162 75.5418 38.8944C74.9194 38.5647 73.8043 36.4632 73.6159 34.6877C73.1265 34.6473 72.355 34.1654 72.129 32.2626C72.0071 31.241 72.4914 30.6661 72.7864 30.4854C71.9901 28.068 70.3361 20.5894 75.8453 19.8165C76.4123 18.8114 77.8642 18.3027 79.7509 18.3027C87.2994 18.443 88.2099 24.0567 86.5551 30.4854C86.8492 30.6661 87.3335 31.241 87.2124 32.2626C86.9856 34.1654 86.2149 34.6473 85.7256 34.6877C85.538 36.4623 84.3785 38.5647 83.7545 38.8944C83.7545 40.162 83.7076 41.1302 83.832 42.5175C85.2355 46.3262 94.2181 45.5517 95.6838 51.9297C95.8596 52.6948 95.3517 53.4206 94.609 53.6549C82.0331 57.6219 75.0261 57.8137 64.6058 53.7087C63.9262 53.441 63.4809 52.7479 63.6352 52.0281C65.0257 45.5436 74.0544 46.3457 75.4651 42.5175Z" fill="white"/>
<path d="M75.4651 42.5175L75.9631 42.5622L75.9572 42.6282L75.9342 42.6904L75.4651 42.5175ZM75.5418 38.8944L75.7758 38.4525L76.0418 38.5934V38.8944H75.5418ZM73.6159 34.6877L73.6571 34.1894L74.0694 34.2235L74.1131 34.635L73.6159 34.6877ZM72.129 32.2626L72.6255 32.2033L72.6255 32.2036L72.129 32.2626ZM72.7864 30.4854L73.2613 30.329L73.3851 30.705L73.0476 30.9118L72.7864 30.4854ZM75.8453 19.8165L76.2808 20.0622L76.1594 20.2774L75.9148 20.3117L75.8453 19.8165ZM79.7509 18.3027V17.8026L79.7602 17.8028L79.7509 18.3027ZM86.5551 30.4854L86.2933 30.9114L85.9789 30.7182L86.0709 30.3608L86.5551 30.4854ZM87.2124 32.2626L87.709 32.3214L87.7089 32.3217L87.2124 32.2626ZM85.7256 34.6877L85.2283 34.6352L85.2718 34.2235L85.6844 34.1894L85.7256 34.6877ZM83.7545 38.8944H83.2545V38.593L83.521 38.4522L83.7545 38.8944ZM83.832 42.5175L83.3629 42.6904L83.34 42.6282L83.334 42.5622L83.832 42.5175ZM64.6058 53.7087L64.4225 54.1739L64.6058 53.7087ZM63.6352 52.0281L63.1463 51.9233L63.6352 52.0281ZM95.6838 51.9297L96.1711 51.8177L95.6838 51.9297ZM94.609 53.6549L94.4586 53.1781L94.4586 53.1781L94.609 53.6549ZM74.9671 42.4728C75.0889 41.115 75.0418 40.1838 75.0418 38.8944H76.0418C76.0418 40.1403 76.0902 41.1455 75.9631 42.5622L74.9671 42.4728ZM75.3078 39.3362C75.0442 39.1966 74.8018 38.9217 74.5989 38.6396C74.3832 38.3398 74.1653 37.9644 73.9657 37.5504C73.5684 36.7261 73.2206 35.7006 73.1187 34.7405L74.1131 34.635C74.1996 35.4503 74.5036 36.3633 74.8665 37.1161C75.047 37.4905 75.2364 37.8133 75.4107 38.0557C75.5979 38.3159 75.7282 38.4273 75.7758 38.4525L75.3078 39.3362ZM73.5747 35.186C72.737 35.1168 71.8708 34.3281 71.6325 32.3215L72.6255 32.2036C72.8392 34.0026 73.516 34.1778 73.6571 34.1894L73.5747 35.186ZM71.6326 32.3218C71.4874 31.1058 72.0641 30.3415 72.5251 30.0591L73.0476 30.9118C72.9186 30.9908 72.5268 31.3762 72.6255 32.2033L71.6326 32.3218ZM72.3115 30.6418C71.9045 29.4064 71.2698 26.8595 71.4528 24.4957C71.5445 23.3108 71.8448 22.1274 72.5247 21.1784C73.2165 20.2128 74.2715 19.5324 75.7759 19.3214L75.9148 20.3117C74.6645 20.4871 73.8603 21.0313 73.3376 21.7608C72.8031 22.507 72.5337 23.4892 72.4498 24.5728C72.2815 26.7459 72.8719 29.147 73.2613 30.329L72.3115 30.6418ZM75.4098 19.5709C75.7679 18.9361 76.3846 18.495 77.1266 18.2149C77.8687 17.9348 78.767 17.8027 79.7509 17.8027V18.8027C78.848 18.8027 78.0771 18.925 77.4798 19.1505C76.8824 19.376 76.4897 19.6918 76.2808 20.0622L75.4098 19.5709ZM79.7602 17.8028C81.7068 17.839 83.2678 18.2286 84.481 18.9283C85.7007 19.6316 86.5408 20.6324 87.063 21.837C88.0953 24.2183 87.8746 27.3653 87.0393 30.6101L86.0709 30.3608C86.8905 27.1768 87.0419 24.3026 86.1455 22.2348C85.7034 21.2149 85.0039 20.3842 83.9815 19.7946C82.9527 19.2013 81.5692 18.8366 79.7416 18.8026L79.7602 17.8028ZM86.8169 30.0594C87.2764 30.3418 87.853 31.1056 87.709 32.3214L86.7159 32.2037C86.8139 31.3765 86.422 30.9905 86.2933 30.9114L86.8169 30.0594ZM87.7089 32.3217C87.4698 34.3278 86.6046 35.1168 85.7668 35.186L85.6844 34.1894C85.8252 34.1778 86.5015 34.0029 86.7159 32.2034L87.7089 32.3217ZM86.2228 34.7403C86.121 35.7036 85.7605 36.7311 85.3516 37.5551C85.146 37.9694 84.9222 38.3445 84.7022 38.6438C84.495 38.9256 84.2498 39.1982 83.988 39.3365L83.521 38.4522C83.5712 38.4257 83.705 38.3119 83.8965 38.0514C84.0753 37.8083 84.2701 37.485 84.4558 37.1107C84.8296 36.3574 85.1426 35.4465 85.2283 34.6352L86.2228 34.7403ZM84.2545 38.8944C84.2545 40.1833 84.2082 41.1149 84.33 42.4728L83.334 42.5622C83.2069 41.1455 83.2545 40.1408 83.2545 38.8944H84.2545ZM84.3012 42.3446C84.5874 43.1214 85.2763 43.712 86.3039 44.2562C87.3388 44.8043 88.5869 45.243 89.9261 45.7982C92.5352 46.8799 95.3774 48.3638 96.1711 51.8177L95.1965 52.0417C94.5245 49.1176 92.1425 47.7997 89.5431 46.722C88.278 46.1975 86.9257 45.7171 85.8359 45.1399C84.7387 44.5588 83.7784 43.818 83.3629 42.6904L84.3012 42.3446ZM94.7594 54.1317C88.4523 56.1213 83.5015 57.1776 78.8024 57.2088C74.0952 57.24 69.6739 56.2426 64.4225 54.1739L64.7891 53.2435C69.958 55.2798 74.2503 56.239 78.7957 56.2088C83.3492 56.1786 88.1899 55.1555 94.4586 53.1781L94.7594 54.1317ZM63.1463 51.9233C63.8991 48.4131 66.7348 46.9072 69.35 45.8153C70.6922 45.2549 71.9431 44.8152 72.9832 44.2647C74.0152 43.7186 74.708 43.126 74.9959 42.3446L75.9342 42.6904C75.5168 43.8231 74.5521 44.5658 73.451 45.1486C72.3579 45.7271 71.0004 46.2099 69.7352 46.7381C67.1358 47.8234 64.7619 49.1587 64.1241 52.133L63.1463 51.9233ZM64.4225 54.1739C63.5535 53.8316 62.9326 52.9202 63.1463 51.9233L64.1241 52.133C64.0292 52.5755 64.2989 53.0504 64.7891 53.2435L64.4225 54.1739ZM96.1711 51.8177C96.4159 52.883 95.7029 53.8341 94.7594 54.1317L94.4586 53.1781C95.0004 53.0071 95.3034 52.5066 95.1965 52.0417L96.1711 51.8177Z" fill="#0500FF"/>
<g opacity="0.15">
<path d="M52.5135 19.9156C51.9448 19.8876 51.3835 19.8599 51.4678 19.634C51.6073 19.2603 53.3334 18.7186 53.8374 18.9067C54.1532 19.0246 54.6724 19.3311 54.9818 19.6354C55.1164 19.7679 55.3083 19.8545 55.4961 19.8756C55.9697 19.9288 56.6132 20.2021 56.9293 20.415C57.408 20.7374 57.9744 22.6383 57.7216 23.0136C57.5688 23.2404 57.2002 22.7592 56.8268 22.2716C56.5822 21.9522 56.3356 21.6302 56.1461 21.5026C55.8603 21.3101 55.4056 20.948 55.1394 20.6076C55.0121 20.4449 54.8088 20.3269 54.6031 20.3074C54.2157 20.2706 53.7424 20.132 53.461 20.0269C53.2615 19.9525 52.8859 19.934 52.5135 19.9156Z" fill="#0500FF"/>
<path d="M53.8321 34.1043C53.8321 34.2841 53.0549 34.4298 52.0962 34.4298C51.1375 34.4298 50.3603 34.2841 50.3603 34.1043C50.3603 33.9246 51.1375 33.7789 52.0962 33.7789C53.0549 33.7789 53.8321 33.9246 53.8321 34.1043Z" fill="#0500FF"/>
<path d="M49.9028 29.4296C49.6093 29.5716 49.2411 29.656 48.8414 29.656C47.8827 29.656 47.1055 29.1703 47.1055 28.5711C47.1055 27.9719 47.8827 27.4861 48.8414 27.4861C49.0829 27.4861 49.3258 27.5016 49.5689 27.5171C49.9357 27.5405 50.3029 27.5639 50.6662 27.5342C51.0461 27.503 51.4542 27.4861 51.8792 27.4861C52.2425 27.4861 52.5936 27.4985 52.9252 27.5215C53.2357 27.5431 53.5483 27.526 53.8608 27.5089C54.0685 27.4975 54.2762 27.4861 54.483 27.4861C55.4417 27.4861 56.2189 27.9719 56.2189 28.5711C56.2189 29.1703 55.4417 29.656 54.483 29.656C53.9347 29.656 53.4457 29.4971 53.1276 29.2489C53.0723 29.2058 53.0058 29.181 52.9359 29.1859C52.7903 29.1961 52.68 29.3257 52.694 29.471C52.7282 29.8271 52.7472 30.2198 52.7472 30.6325C52.7472 31.1491 52.8135 31.5239 52.8615 31.7947C52.9638 32.3719 52.9824 32.4768 52.0962 32.4768C51.835 32.4768 51.8388 32.3573 51.8604 31.6716C51.8685 31.4134 51.8792 31.075 51.8792 30.6325C51.8792 30.2443 51.871 29.8738 51.8635 29.5349C51.8596 29.3611 51.7178 29.2222 51.544 29.2185C51.2968 29.2133 51.0566 29.2023 50.826 29.1861C50.5051 29.1637 50.1923 29.2896 49.9028 29.4296Z" fill="#0500FF"/>
</g>
<g opacity="0.15">
<path d="M39.9926 31.1154C39.789 31.461 39.2633 30.6609 38.6645 29.7494C38.1411 28.9527 37.5617 28.0709 37.0926 27.7945C36.8104 27.6284 36.4046 27.4399 35.9752 27.2404C34.8734 26.7286 33.6157 26.1445 33.8902 25.6785C34.2717 25.0309 36.7555 25.9067 37.7613 26.4992C38.7672 27.0917 40.3741 30.4678 39.9926 31.1154Z" fill="#0500FF"/>
<path d="M35.8243 40.1796C35.8243 40.3594 35.0471 40.5051 34.0884 40.5051C33.1297 40.5051 32.3525 40.3594 32.3525 40.1796C32.3525 39.9999 33.1297 39.8542 34.0884 39.8542C35.0471 39.8542 35.8243 39.9999 35.8243 40.1796Z" fill="#0500FF"/>
<path d="M31.8949 35.505C31.6015 35.6469 31.2333 35.7313 30.8336 35.7313C29.8748 35.7313 29.0977 35.2456 29.0977 34.6464C29.0977 34.0472 29.8748 33.5614 30.8336 33.5614C31.075 33.5614 31.318 33.5769 31.5611 33.5924C31.9279 33.6158 32.2951 33.6392 32.6583 33.6095C33.0382 33.5784 33.4464 33.5614 33.8714 33.5614C34.2347 33.5614 34.5858 33.5738 34.9174 33.5968C35.2279 33.6184 35.5405 33.6013 35.853 33.5842C36.0607 33.5728 36.2683 33.5614 36.4752 33.5614C37.4339 33.5614 38.2111 34.0472 38.2111 34.6464C38.2111 35.2456 37.4339 35.7313 36.4752 35.7313C35.9268 35.7313 35.4379 35.5724 35.1197 35.3242C35.0645 35.2811 34.9979 35.2563 34.9281 35.2612C34.7824 35.2714 34.6722 35.401 34.6862 35.5463C34.7204 35.9024 34.7393 36.2951 34.7393 36.7078C34.7393 37.2244 34.8057 37.5992 34.8537 37.87C34.956 38.4472 34.9745 38.5522 34.0884 38.5522C33.8272 38.5522 33.831 38.4326 33.8526 37.7469C33.8607 37.4887 33.8714 37.1503 33.8714 36.7078C33.8714 36.3196 33.8632 35.9491 33.8557 35.6102C33.8518 35.4364 33.71 35.2975 33.5361 35.2938C33.289 35.2886 33.0488 35.2776 32.8181 35.2615C32.4973 35.239 32.1845 35.3649 31.8949 35.505Z" fill="#0500FF"/>
</g>
<path d="M61.9412 49.4599C61.8167 48.0726 61.8644 47.1044 61.8644 45.8367C62.4868 45.5071 63.6019 43.4055 63.7903 41.6301C64.2797 41.5897 65.0513 41.1077 65.2772 39.2049C65.3991 38.1834 64.9149 37.6085 64.6199 37.4278C65.4162 35.0104 67.0701 27.5317 61.5609 26.7589C60.994 25.7537 59.5421 25.2451 57.6554 25.2451C50.1069 25.3854 49.1963 30.9991 50.8511 37.4278C50.557 37.6085 50.0728 38.1834 50.1938 39.2049C50.4206 41.1077 51.1913 41.5897 51.6807 41.6301C51.8682 43.4047 53.0277 45.5071 53.6518 45.8367C53.6518 47.1044 53.6987 48.0726 53.5742 49.4599C52.1707 53.2686 43.1882 52.494 41.7224 58.872C41.5466 59.6371 42.0546 60.363 42.7972 60.5973C55.3732 64.5643 62.3801 64.7561 72.8004 60.6511C73.48 60.3834 73.9253 59.6902 73.771 58.9705C72.3805 52.486 63.3518 53.288 61.9412 49.4599Z" fill="white"/>
<path d="M61.9412 49.4599L61.4432 49.5045L61.4491 49.5706L61.472 49.6327L61.9412 49.4599ZM61.8644 45.8367L61.6304 45.3949L61.3644 45.5357V45.8367H61.8644ZM63.7903 41.6301L63.7492 41.1318L63.3368 41.1659L63.2931 41.5773L63.7903 41.6301ZM65.2772 39.2049L64.7807 39.1457L64.7807 39.146L65.2772 39.2049ZM64.6199 37.4278L64.145 37.2714L64.0211 37.6473L64.3587 37.8541L64.6199 37.4278ZM61.5609 26.7589L61.1254 27.0046L61.2468 27.2197L61.4915 27.2541L61.5609 26.7589ZM57.6554 25.2451V24.745L57.6461 24.7452L57.6554 25.2451ZM50.8511 37.4278L51.1129 37.8538L51.4274 37.6606L51.3354 37.3032L50.8511 37.4278ZM50.1938 39.2049L49.6973 39.2638L49.6973 39.2641L50.1938 39.2049ZM51.6807 41.6301L52.1779 41.5776L52.1344 41.1659L51.7219 41.1318L51.6807 41.6301ZM53.6518 45.8367H54.1518V45.5354L53.8853 45.3946L53.6518 45.8367ZM53.5742 49.4599L54.0434 49.6327L54.0663 49.5706L54.0722 49.5045L53.5742 49.4599ZM72.8004 60.6511L72.9837 61.1163L72.8004 60.6511ZM73.771 58.9705L74.2599 58.8656L73.771 58.9705ZM41.7224 58.872L41.2351 58.7601L41.7224 58.872ZM42.7972 60.5973L42.9476 60.1204L42.9476 60.1204L42.7972 60.5973ZM62.4392 49.4152C62.3173 48.0573 62.3644 47.1261 62.3644 45.8367H61.3644C61.3644 47.0827 61.316 48.0878 61.4432 49.5045L62.4392 49.4152ZM62.0984 46.2786C62.362 46.139 62.6045 45.8641 62.8073 45.582C63.023 45.2822 63.2409 44.9068 63.4405 44.4927C63.8378 43.6685 64.1857 42.643 64.2876 41.6829L63.2931 41.5773C63.2066 42.3926 62.9026 43.3056 62.5397 44.0585C62.3592 44.4329 62.1699 44.7557 61.9955 44.9981C61.8083 45.2583 61.678 45.3697 61.6304 45.3949L62.0984 46.2786ZM63.8315 42.1284C64.6692 42.0592 65.5355 41.2704 65.7737 39.2639L64.7807 39.146C64.5671 40.945 63.8902 41.1202 63.7492 41.1318L63.8315 42.1284ZM65.7737 39.2642C65.9188 38.0482 65.3421 37.2839 64.8811 37.0014L64.3587 37.8541C64.4876 37.9331 64.8794 38.3186 64.7807 39.1457L65.7737 39.2642ZM65.0948 37.5842C65.5017 36.3488 66.1365 33.8019 65.9535 31.438C65.8617 30.2532 65.5614 29.0698 64.8815 28.1208C64.1897 27.1552 63.1347 26.4748 61.6304 26.2638L61.4915 27.2541C62.7417 27.4295 63.5459 27.9737 64.0686 28.7032C64.6032 29.4494 64.8726 30.4316 64.9564 31.5152C65.1247 33.6882 64.5343 36.0894 64.145 37.2714L65.0948 37.5842ZM61.9964 26.5133C61.6384 25.8785 61.0216 25.4374 60.2796 25.1573C59.5376 24.8772 58.6392 24.7451 57.6554 24.7451V25.7451C58.5582 25.7451 59.3292 25.8674 59.9265 26.0929C60.5239 26.3184 60.9165 26.6342 61.1254 27.0046L61.9964 26.5133ZM57.6461 24.7452C55.6995 24.7814 54.1384 25.171 52.9252 25.8707C51.7056 26.574 50.8655 27.5748 50.3433 28.7794C49.311 31.1607 49.5317 34.3077 50.3669 37.5524L51.3354 37.3032C50.5158 34.1192 50.3644 31.245 51.2608 29.1772C51.7029 28.1573 52.4023 27.3265 53.4248 26.7369C54.4535 26.1437 55.837 25.779 57.6647 25.745L57.6461 24.7452ZM50.5894 37.0018C50.1298 37.2842 49.5532 38.048 49.6973 39.2638L50.6903 39.1461C50.5923 38.3189 50.9842 37.9329 51.1129 37.8538L50.5894 37.0018ZM49.6973 39.2641C49.9364 41.2702 50.8016 42.0592 51.6395 42.1284L51.7219 41.1318C51.581 41.1202 50.9048 40.9453 50.6903 39.1458L49.6973 39.2641ZM51.1834 41.6827C51.2853 42.6459 51.6458 43.6735 52.0546 44.4975C52.2602 44.9118 52.484 45.2869 52.7041 45.5861C52.9113 45.868 53.1565 46.1406 53.4183 46.2789L53.8853 45.3946C53.835 45.3681 53.7013 45.2543 53.5097 44.9938C53.331 44.7507 53.1362 44.4274 52.9504 44.053C52.5767 43.2998 52.2636 42.3888 52.1779 41.5776L51.1834 41.6827ZM53.1518 45.8367C53.1518 47.1257 53.198 48.0573 53.0762 49.4152L54.0722 49.5045C54.1993 48.0879 54.1518 47.0831 54.1518 45.8367H53.1518ZM53.105 49.287C52.8188 50.0637 52.13 50.6543 51.1024 51.1985C50.0675 51.7466 48.8194 52.1854 47.4802 52.7406C44.871 53.8223 42.0289 55.3061 41.2351 58.7601L42.2097 58.984C42.8817 56.06 45.2637 54.742 47.8632 53.6643C49.1282 53.1398 50.4805 52.6594 51.5704 52.0823C52.6676 51.5012 53.6278 50.7603 54.0434 49.6327L53.105 49.287ZM42.6468 61.0741C48.954 63.0637 53.9048 64.12 58.6039 64.1512C63.311 64.1824 67.7324 63.185 72.9837 61.1163L72.6172 60.1859C67.4482 62.2221 63.1559 63.1813 58.6105 63.1512C54.0571 63.121 49.2164 62.0979 42.9476 60.1204L42.6468 61.0741ZM74.2599 58.8656C73.5072 55.3554 70.6715 53.8495 68.0563 52.7577C66.7141 52.1973 65.4631 51.7576 64.423 51.2071C63.3911 50.6609 62.6983 50.0684 62.4103 49.287L61.472 49.6327C61.8894 50.7654 62.8542 51.5082 63.9553 52.091C65.0483 52.6694 66.4059 53.1523 67.671 53.6805C70.2704 54.7657 72.6443 56.101 73.2821 59.0753L74.2599 58.8656ZM72.9837 61.1163C73.8528 60.7739 74.4737 59.8626 74.2599 58.8656L73.2821 59.0753C73.377 59.5179 73.1073 59.9928 72.6172 60.1859L72.9837 61.1163ZM41.2351 58.7601C40.9903 59.8253 41.7033 60.7765 42.6468 61.0741L42.9476 60.1204C42.4058 59.9495 42.1029 59.4489 42.2097 58.984L41.2351 58.7601Z" fill="#0500FF"/>
<g opacity="0.15">
<path d="M56.0738 27.9023C55.9295 28.1768 56.6084 28.2862 57.2963 28.3969C57.7468 28.4695 58.2012 28.5427 58.4306 28.6633C58.9225 28.922 59.9404 29.3373 60.383 29.179C60.577 29.8756 61.5272 30.8763 62.0789 31.3597C62.3642 31.6098 62.703 32.1923 63.0389 32.7699C63.5518 33.6517 64.058 34.5221 64.3574 34.1805C64.8527 33.6153 64.3189 30.3641 63.5978 29.7322C62.8999 29.1206 61.0692 28.1469 60.5034 28.5979C60.2527 28.1189 59.5252 27.5219 59.0957 27.296C58.5162 26.9913 56.3128 27.4479 56.0738 27.9023Z" fill="#0500FF"/>
<path d="M58.3892 42.4566C59.3479 42.4566 60.1251 42.3109 60.1251 42.1311C60.1251 41.9514 59.3479 41.8056 58.3892 41.8056C57.4304 41.8056 56.6533 41.9514 56.6533 42.1311C56.6533 42.3109 57.4304 42.4566 58.3892 42.4566Z" fill="#0500FF"/>
<path d="M56.1957 37.4564C55.9023 37.5983 55.5341 37.6828 55.1343 37.6828C54.1756 37.6828 53.3984 37.1971 53.3984 36.5979C53.3984 35.9987 54.1756 35.5129 55.1343 35.5129C55.3758 35.5129 55.6188 35.5284 55.8619 35.5439C56.2287 35.5673 56.5959 35.5907 56.9591 35.5609C57.339 35.5298 57.7472 35.5129 58.1722 35.5129C58.5355 35.5129 58.8865 35.5253 59.2182 35.5483C59.5287 35.5699 59.8413 35.5528 60.1538 35.5357C60.3615 35.5243 60.5691 35.5129 60.776 35.5129C61.7347 35.5129 62.5119 35.9987 62.5119 36.5979C62.5119 37.1971 61.7347 37.6828 60.776 37.6828C60.2276 37.6828 59.7386 37.5239 59.4205 37.2757C59.3653 37.2326 59.2987 37.2078 59.2289 37.2127C59.0832 37.2229 58.973 37.3524 58.987 37.4978C59.0212 37.8539 59.0401 38.2466 59.0401 38.6592C59.0401 39.1759 59.1065 39.5506 59.1545 39.8215C59.2567 40.3987 59.2753 40.5036 58.3892 40.5036C58.128 40.5036 58.1318 40.3841 58.1534 39.6984C58.1615 39.4402 58.1722 39.1018 58.1722 38.6592C58.1722 38.2711 58.164 37.9006 58.1565 37.5616C58.1526 37.3878 58.0107 37.249 57.8369 37.2453C57.5898 37.24 57.3496 37.2291 57.1189 37.2129C56.7981 37.1905 56.4852 37.3164 56.1957 37.4564Z" fill="#0500FF"/>
</g>
<path d="M74.4491 54.8837C74.3238 53.4964 74.3719 52.5282 74.3719 51.2606C74.9984 50.931 76.1211 48.8294 76.3108 47.0539C76.8035 47.0135 77.5802 46.5316 77.8077 44.6288C77.9304 43.6072 77.4429 43.0323 77.1459 42.8516C77.9476 40.4342 79.6127 32.9556 74.0663 32.1827C73.4955 31.1776 72.0338 30.6689 70.1344 30.6689C62.5348 30.8092 61.6182 36.4229 63.2842 42.8516C62.988 43.0323 62.5005 43.6072 62.6224 44.6288C62.8507 46.5316 63.6266 47.0135 64.1193 47.0539C64.3081 48.8285 65.4754 50.931 66.1037 51.2606C66.1037 52.5282 66.1509 53.4964 66.0256 54.8837C64.6126 58.6924 55.5694 57.9179 54.0938 64.2959C53.9167 65.061 54.4281 65.7868 55.1758 66.0211C67.8367 69.9881 74.8911 70.1799 85.3818 66.0749C86.066 65.8072 86.5143 65.1141 86.3589 64.3943C84.959 57.9098 75.8693 58.7119 74.4491 54.8837Z" fill="white"/>
<path d="M74.4491 54.8837L73.9511 54.9287L73.9571 54.9951L73.9803 55.0576L74.4491 54.8837ZM74.3719 51.2606L74.1391 50.8181L73.8719 50.9586V51.2606H74.3719ZM76.3108 47.0539L76.2699 46.5556L75.8576 46.5895L75.8136 47.0008L76.3108 47.0539ZM77.8077 44.6288L77.3113 44.5691L77.3112 44.5694L77.8077 44.6288ZM77.1459 42.8516L76.6714 42.6942L76.5461 43.0719L76.886 43.2787L77.1459 42.8516ZM74.0663 32.1827L73.6315 32.4296L73.7532 32.6439L73.9973 32.678L74.0663 32.1827ZM70.1344 30.6689V30.1689L70.1251 30.169L70.1344 30.6689ZM63.2842 42.8516L63.5446 43.2784L63.8612 43.0852L63.7682 42.7262L63.2842 42.8516ZM62.6224 44.6288L62.1259 44.688L62.126 44.6883L62.6224 44.6288ZM64.1193 47.0539L64.6165 47.001L64.5727 46.5895L64.1602 46.5556L64.1193 47.0539ZM66.1037 51.2606H66.6037V50.9582L66.336 50.8178L66.1037 51.2606ZM66.0256 54.8837L66.4944 55.0576L66.5176 54.9951L66.5236 54.9287L66.0256 54.8837ZM85.3818 66.0749L85.564 66.5405L85.3818 66.0749ZM86.3589 64.3943L86.8477 64.2888L86.3589 64.3943ZM54.0938 64.2959L53.6066 64.1832L54.0938 64.2959ZM55.1758 66.0211L55.3253 65.544L55.3253 65.544L55.1758 66.0211ZM74.9471 54.8387C74.8245 53.4811 74.8719 52.5501 74.8719 51.2606H73.8719C73.8719 52.5064 73.8232 53.5118 73.9511 54.9287L74.9471 54.8387ZM74.6047 51.7031C74.8692 51.5639 75.1131 51.2894 75.3175 51.0071C75.5346 50.7073 75.754 50.3319 75.955 49.9177C76.355 49.0935 76.7053 48.0676 76.808 47.1071L75.8136 47.0008C75.7266 47.8157 75.4207 48.7284 75.0553 49.4811C74.8737 49.8555 74.683 50.1782 74.5075 50.4206C74.3192 50.6806 74.1878 50.7924 74.1391 50.8181L74.6047 51.7031ZM76.3517 47.5523C77.1909 47.4834 78.064 46.6972 78.3042 44.6881L77.3112 44.5694C77.0965 46.3659 76.4161 46.5436 76.2699 46.5556L76.3517 47.5523ZM78.3041 44.6884C78.4505 43.4705 77.8687 42.7062 77.4059 42.4245L76.886 43.2787C77.0171 43.3585 77.4104 43.7439 77.3113 44.5691L78.3041 44.6884ZM77.6205 43.009C78.0303 41.7734 78.6695 39.2261 78.4851 36.8616C78.3928 35.6763 78.0902 34.4925 77.4057 33.5433C76.7093 32.5778 75.6479 31.8983 74.1353 31.6875L73.9973 32.678C75.2579 32.8536 76.0683 33.3987 76.5946 34.1283C77.1327 34.8743 77.4037 35.8562 77.4882 36.9393C77.6575 39.1117 77.0633 41.5124 76.6714 42.6942L77.6205 43.009ZM74.5011 31.9359C74.1406 31.301 73.5201 30.8604 72.7741 30.5807C72.0279 30.3009 71.1243 30.1689 70.1344 30.1689V31.1689C71.0439 31.1689 71.8209 31.2913 72.423 31.5171C73.0255 31.743 73.4212 32.0593 73.6315 32.4296L74.5011 31.9359ZM70.1251 30.169C68.1663 30.2052 66.5957 30.5946 65.3752 31.2938C64.1481 31.9966 63.3024 32.9971 62.7764 34.2021C61.7368 36.5842 61.9592 39.7321 62.8001 42.9771L63.7682 42.7262C62.9431 39.5424 62.7909 36.6691 63.693 34.6021C64.1379 33.5826 64.8421 32.7516 65.8722 32.1615C66.9088 31.5677 68.3027 31.2028 70.1436 31.1689L70.1251 30.169ZM63.0237 42.4248C62.5623 42.7064 61.9806 43.4703 62.1259 44.688L63.1189 44.5695C63.0204 43.7442 63.4138 43.3583 63.5446 43.2784L63.0237 42.4248ZM62.126 44.6883C62.367 46.697 63.2391 47.4834 64.0784 47.5523L64.1602 46.5556C64.0142 46.5436 63.3344 46.3662 63.1188 44.5692L62.126 44.6883ZM63.6221 47.1068C63.7247 48.0706 64.0877 49.0985 64.4994 49.9226C64.7064 50.3369 64.9317 50.712 65.1533 51.0113C65.362 51.2933 65.6087 51.5655 65.8714 51.7033L66.336 50.8178C66.2846 50.7908 66.1497 50.6766 65.957 50.4163C65.7771 50.1732 65.581 49.8499 65.394 49.4757C65.0178 48.7225 64.7028 47.8118 64.6165 47.001L63.6221 47.1068ZM65.6037 51.2606C65.6037 52.5496 65.6503 53.481 65.5276 54.8387L66.5236 54.9287C66.6516 53.5118 66.6037 52.5068 66.6037 51.2606H65.6037ZM65.5568 54.7098C65.2688 55.4862 64.5752 56.0771 63.5399 56.6217C62.4977 57.17 61.2407 57.6089 59.8928 58.164C57.2672 59.2452 54.4059 60.7285 53.6066 64.1832L54.5809 64.4086C55.2572 61.4853 57.6554 60.1668 60.2736 59.0886C61.5476 58.564 62.9085 58.0838 64.0055 57.5067C65.1093 56.9261 66.0759 56.1856 66.4944 55.0576L65.5568 54.7098ZM55.0263 66.4982C61.3759 68.4877 66.3594 69.5438 71.0893 69.575C75.8272 69.6062 80.2776 68.6091 85.564 66.5405L85.1996 65.6093C79.9953 67.6457 75.6732 68.6052 71.0959 68.575C66.5107 68.5448 61.6366 67.5215 55.3253 65.544L55.0263 66.4982ZM86.8477 64.2888C86.0897 60.7778 83.2348 59.2724 80.6032 58.181C79.2523 57.6208 77.9923 57.1809 76.945 56.6303C75.9052 56.0837 75.2076 55.4908 74.9179 54.7098L73.9803 55.0576C74.4007 56.1907 75.3719 56.9331 76.4796 57.5154C77.5798 58.0938 78.946 58.5764 80.2201 59.1047C82.8383 60.1905 85.2282 61.5264 85.8702 64.4998L86.8477 64.2888ZM85.564 66.5405C86.4362 66.1992 87.0635 65.2884 86.8477 64.2888L85.8702 64.4998C85.9651 64.9397 85.6957 65.4152 85.1996 65.6093L85.564 66.5405ZM53.6066 64.1832C53.3595 65.2514 54.0798 66.2016 55.0263 66.4982L55.3253 65.544C54.7765 65.372 54.474 64.8705 54.5809 64.4086L53.6066 64.1832Z" fill="#0500FF"/>
<path d="M46.2381 59.0067C46.1128 57.6195 46.1609 56.6513 46.1609 55.3836C46.7875 55.054 47.9101 52.9524 48.0998 51.177C48.5925 51.1365 49.3693 50.6546 49.5967 48.7518C49.7195 47.7303 49.2319 47.1554 48.935 46.9747C49.7366 44.5572 51.4018 37.0786 45.8553 36.3058C45.2846 35.3006 43.8228 34.792 41.9234 34.792C34.3239 34.9323 33.4072 40.546 35.0732 46.9747C34.7771 47.1554 34.2896 47.7303 34.4114 48.7518C34.6398 50.6546 35.4157 51.1365 35.9083 51.177C36.0972 52.9515 37.2645 55.054 37.8928 55.3836C37.8928 56.6513 37.94 57.6195 37.8147 59.0067C36.4017 62.8154 27.3585 62.0409 25.8828 68.4189C25.7058 69.184 26.2172 69.9099 26.9649 70.1441C39.6258 74.1111 46.6801 74.303 57.1708 70.198C57.855 69.9302 58.3033 69.2371 58.1479 68.5174C56.748 62.0329 47.6583 62.8349 46.2381 59.0067Z" fill="white"/>
<path d="M46.2381 59.0067L45.7402 59.0517L45.7462 59.1181L45.7694 59.1807L46.2381 59.0067ZM46.1609 55.3836L45.9281 54.9411L45.6609 55.0817V55.3836H46.1609ZM48.0998 51.177L48.0589 50.6787L47.6466 50.7125L47.6027 51.1239L48.0998 51.177ZM49.5967 48.7518L49.1003 48.6922L49.1003 48.6925L49.5967 48.7518ZM48.935 46.9747L48.4604 46.8173L48.3351 47.195L48.675 47.4018L48.935 46.9747ZM45.8553 36.3058L45.4205 36.5527L45.5422 36.767L45.7863 36.801L45.8553 36.3058ZM41.9234 34.792L41.9234 34.2919L41.9142 34.2921L41.9234 34.792ZM35.0732 46.9747L35.3337 47.4015L35.6502 47.2083L35.5572 46.8492L35.0732 46.9747ZM34.4114 48.7518L33.915 48.811L33.915 48.8114L34.4114 48.7518ZM35.9083 51.177L36.4055 51.1241L36.3617 50.7125L35.9493 50.6787L35.9083 51.177ZM37.8928 55.3836H38.3928V55.0813L38.125 54.9408L37.8928 55.3836ZM37.8147 59.0067L38.2834 59.1807L38.3066 59.1181L38.3126 59.0517L37.8147 59.0067ZM57.1708 70.198L57.353 70.6636L57.353 70.6636L57.1708 70.198ZM58.1479 68.5174L58.6367 68.4119L58.1479 68.5174ZM25.8828 68.4189L26.37 68.5316L25.8828 68.4189ZM26.9649 70.1441L27.1144 69.667L27.1144 69.667L26.9649 70.1441ZM46.7361 58.9618C46.6135 57.6041 46.6609 56.6731 46.6609 55.3836H45.6609C45.6609 56.6294 45.6122 57.6348 45.7402 59.0517L46.7361 58.9618ZM46.3937 55.8261C46.6582 55.6869 46.9021 55.4124 47.1065 55.1302C47.3236 54.8304 47.543 54.4549 47.744 54.0408C48.1441 53.2165 48.4944 52.1907 48.597 51.2301L47.6027 51.1239C47.5156 51.9387 47.2097 52.8514 46.8444 53.6042C46.6627 53.9785 46.4721 54.3013 46.2965 54.5437C46.1083 54.8037 45.9768 54.9155 45.9281 54.9411L46.3937 55.8261ZM48.1407 51.6753C48.9799 51.6064 49.853 50.8203 50.0932 48.8112L49.1003 48.6925C48.8855 50.489 48.2051 50.6667 48.0589 50.6787L48.1407 51.6753ZM50.0932 48.8115C50.2395 47.5936 49.6578 46.8292 49.1949 46.5475L48.675 47.4018C48.8061 47.4816 49.1994 47.867 49.1003 48.6922L50.0932 48.8115ZM49.4095 47.1321C49.8193 45.8965 50.4585 43.3492 50.2742 40.9846C50.1818 39.7993 49.8793 38.6155 49.1947 37.6664C48.4983 36.7009 47.4369 36.0213 45.9243 35.8106L45.7863 36.801C47.047 36.9767 47.8574 37.5217 48.3836 38.2514C48.9217 38.9974 49.1928 39.9792 49.2772 41.0624C49.4465 43.2347 48.8523 45.6354 48.4604 46.8173L49.4095 47.1321ZM46.2901 36.0589C45.9296 35.424 45.3091 34.9835 44.5632 34.7038C43.8169 34.424 42.9133 34.292 41.9234 34.292V35.292C42.8329 35.292 43.6099 35.4143 44.2121 35.6401C44.8146 35.866 45.2103 36.1824 45.4205 36.5527L46.2901 36.0589ZM41.9142 34.2921C39.9553 34.3282 38.3848 34.7177 37.1642 35.4168C35.9372 36.1197 35.0914 37.1201 34.5655 38.3252C33.5259 40.7073 33.7483 43.8552 34.5892 47.1001L35.5572 46.8492C34.7321 43.6655 34.5799 40.7922 35.482 38.7252C35.9269 37.7057 36.6311 36.8746 37.6613 36.2845C38.6979 35.6908 40.0917 35.3259 41.9326 35.2919L41.9142 34.2921ZM34.8127 46.5479C34.3513 46.8295 33.7697 47.5933 33.915 48.811L34.9079 48.6926C34.8094 47.8672 35.2028 47.4813 35.3337 47.4015L34.8127 46.5479ZM33.915 48.8114C34.156 50.82 35.0281 51.6064 35.8674 51.6753L35.9493 50.6787C35.8032 50.6667 35.1235 50.4892 34.9079 48.6922L33.915 48.8114ZM35.4111 51.2299C35.5137 52.1937 35.8768 53.2215 36.2885 54.0456C36.4955 54.46 36.7208 54.835 36.9423 55.1343C37.1511 55.4163 37.3977 55.6885 37.6605 55.8264L38.125 54.9408C38.0737 54.9139 37.9388 54.7997 37.7461 54.5393C37.5661 54.2962 37.37 53.973 37.183 53.5987C36.8068 52.8455 36.4918 51.9349 36.4055 51.1241L35.4111 51.2299ZM37.3928 55.3836C37.3928 56.6727 37.4393 57.6041 37.3167 58.9618L38.3126 59.0517C38.4406 57.6348 38.3928 56.6299 38.3928 55.3836H37.3928ZM37.3459 58.8328C37.0579 59.6092 36.3643 60.2001 35.3289 60.7448C34.2868 61.293 33.0297 61.732 31.6819 62.287C29.0562 63.3683 26.195 64.8515 25.3957 68.3062L26.37 68.5316C27.0463 65.6083 29.4445 64.2898 32.0626 63.2117C33.3367 62.687 34.6976 62.2068 35.7945 61.6298C36.8983 61.0491 37.865 60.3086 38.2834 59.1807L37.3459 58.8328ZM26.8154 70.6213C33.165 72.6108 38.1485 73.6669 42.8784 73.698C47.6162 73.7293 52.0666 72.7321 57.353 70.6636L56.9886 69.7323C51.7843 71.7688 47.4622 72.7282 42.885 72.6981C38.2998 72.6678 33.4257 71.6445 27.1144 69.667L26.8154 70.6213ZM58.6367 68.4119C57.8787 64.9008 55.0238 63.3954 52.3922 62.3041C51.0413 61.7439 49.7813 61.3039 48.734 60.7533C47.6942 60.2067 46.9967 59.6138 46.7069 58.8328L45.7694 59.1807C46.1897 60.3137 47.1609 61.0561 48.2687 61.6385C49.3688 62.2168 50.735 62.6994 52.0091 63.2278C54.6273 64.3136 57.0172 65.6494 57.6592 68.6229L58.6367 68.4119ZM57.353 70.6636C58.2252 70.3223 58.8525 69.4115 58.6367 68.4119L57.6592 68.6229C57.7541 69.0628 57.4847 69.5382 56.9886 69.7323L57.353 70.6636ZM25.3957 68.3062C25.1485 69.3745 25.8688 70.3247 26.8154 70.6213L27.1144 69.667C26.5656 69.4951 26.2631 68.9936 26.37 68.5316L25.3957 68.3062Z" fill="#0500FF"/>
<path d="M56.5823 67.037C56.7068 65.6497 56.659 64.6815 56.659 63.4139C56.0366 63.0843 54.9215 60.9827 54.7331 59.2073C54.2437 59.1668 53.4722 58.6849 53.2462 56.7821C53.1243 55.7606 53.6086 55.1857 53.9036 55.0049C53.1073 52.5875 51.4533 45.1089 56.9625 44.3361C57.5295 43.3309 58.9814 42.8223 60.8681 42.8223C68.4166 42.9625 69.3271 48.5762 67.6723 55.0049C67.9664 55.1857 68.4507 55.7606 68.3296 56.7821C68.1028 58.6849 67.3321 59.1668 66.8428 59.2073C66.6552 60.9818 65.4957 63.0843 64.8717 63.4139C64.8717 64.6815 64.8248 65.6497 64.9492 67.037C66.3527 70.8457 75.3353 70.0712 76.801 76.4492C76.9768 77.2143 76.4689 77.9401 75.7262 78.1744C63.1503 82.1414 56.1433 82.3332 45.723 78.2282C45.0434 77.9605 44.5981 77.2674 44.7524 76.5476C46.143 70.0632 55.1716 70.8652 56.5823 67.037Z" fill="white"/>
<path d="M56.5823 67.037L57.0803 67.0817L57.0744 67.1477L57.0514 67.2099L56.5823 67.037ZM56.659 63.4139L56.893 62.972L57.159 63.1129V63.4139H56.659ZM54.7331 59.2073L54.7743 58.709L55.1866 58.743L55.2303 59.1545L54.7331 59.2073ZM53.2462 56.7821L53.7427 56.7228L53.7428 56.7231L53.2462 56.7821ZM53.9036 55.0049L54.3785 54.8485L54.5023 55.2245L54.1648 55.4313L53.9036 55.0049ZM56.9625 44.3361L57.398 44.5817L57.2767 44.7969L57.032 44.8312L56.9625 44.3361ZM60.8681 42.8223V42.3222L60.8774 42.3224L60.8681 42.8223ZM67.6723 55.0049L67.4105 55.431L67.0961 55.2377L67.1881 54.8803L67.6723 55.0049ZM68.3296 56.7821L68.8261 56.8409L68.8261 56.8413L68.3296 56.7821ZM66.8428 59.2073L66.3455 59.1547L66.389 58.7431L66.8016 58.709L66.8428 59.2073ZM64.8717 63.4139H64.3717V63.1125L64.6382 62.9718L64.8717 63.4139ZM64.9492 67.037L64.4801 67.2099L64.4572 67.1477L64.4512 67.0817L64.9492 67.037ZM45.723 78.2282L45.5397 78.6934L45.723 78.2282ZM44.7524 76.5476L44.2635 76.4428L44.7524 76.5476ZM76.801 76.4492L77.2883 76.3372L76.801 76.4492ZM75.7262 78.1744L75.5758 77.6976L75.5758 77.6976L75.7262 78.1744ZM56.0843 66.9923C56.2061 65.6345 56.159 64.7033 56.159 63.4139H57.159C57.159 64.6598 57.2074 65.665 57.0803 67.0817L56.0843 66.9923ZM56.425 63.8557C56.1614 63.7162 55.919 63.4412 55.7161 63.1592C55.5005 62.8593 55.2826 62.484 55.0829 62.0699C54.6856 61.2457 54.3378 60.2201 54.2359 59.26L55.2303 59.1545C55.3168 59.9698 55.6208 60.8828 55.9837 61.6356C56.1642 62.0101 56.3536 62.3329 56.5279 62.5753C56.7151 62.8355 56.8454 62.9468 56.893 62.972L56.425 63.8557ZM54.6919 59.7056C53.8542 59.6363 52.988 58.8476 52.7497 56.841L53.7428 56.7231C53.9564 58.5222 54.6332 58.6973 54.7743 58.709L54.6919 59.7056ZM52.7498 56.8413C52.6046 55.6253 53.1813 54.8611 53.6424 54.5786L54.1648 55.4313C54.0358 55.5103 53.644 55.8958 53.7427 56.7228L52.7498 56.8413ZM53.4287 55.1614C53.0217 53.9259 52.387 51.379 52.57 49.0152C52.6617 47.8304 52.962 46.6469 53.6419 45.698C54.3337 44.7324 55.3888 44.0519 56.8931 43.8409L57.032 44.8312C55.7817 45.0066 54.9775 45.5508 54.4548 46.2804C53.9203 47.0265 53.6509 48.0088 53.567 49.0924C53.3988 51.2654 53.9891 53.6665 54.3785 54.8485L53.4287 55.1614ZM56.527 44.0904C56.8851 43.4556 57.5018 43.0145 58.2438 42.7344C58.9859 42.4543 59.8842 42.3223 60.8681 42.3223V43.3223C59.9652 43.3223 59.1943 43.4445 58.597 43.67C57.9996 43.8955 57.6069 44.2113 57.398 44.5817L56.527 44.0904ZM60.8774 42.3224C62.824 42.3585 64.385 42.7482 65.5982 43.4478C66.8179 44.1511 67.658 45.1519 68.1802 46.3566C69.2125 48.7379 68.9917 51.8848 68.1565 55.1296L67.1881 54.8803C68.0077 51.6964 68.1591 48.8221 67.2627 46.7543C66.8206 45.7344 66.1211 44.9037 65.0987 44.3141C64.0699 43.7208 62.6864 43.3561 60.8588 43.3222L60.8774 42.3224ZM67.9341 54.5789C68.3936 54.8613 68.9702 55.6251 68.8261 56.8409L67.8331 56.7232C67.9311 55.896 67.5392 55.51 67.4105 55.431L67.9341 54.5789ZM68.8261 56.8413C68.587 58.8473 67.7218 59.6363 66.884 59.7056L66.8016 58.709C66.9424 58.6973 67.6187 58.5224 67.8331 56.7229L68.8261 56.8413ZM67.34 59.2598C67.2382 60.2231 66.8777 61.2506 66.4688 62.0747C66.2632 62.489 66.0394 62.864 65.8194 63.1633C65.6122 63.4451 65.367 63.7177 65.1052 63.856L64.6382 62.9718C64.6884 62.9452 64.8222 62.8314 65.0137 62.5709C65.1925 62.3278 65.3873 62.0045 65.573 61.6302C65.9468 60.8769 66.2598 59.966 66.3455 59.1547L67.34 59.2598ZM65.3717 63.4139C65.3717 64.7028 65.3254 65.6344 65.4472 66.9923L64.4512 67.0817C64.3241 65.665 64.3717 64.6603 64.3717 63.4139H65.3717ZM65.4184 66.8641C65.7046 67.6409 66.3935 68.2315 67.4211 68.7757C68.456 69.3238 69.7041 69.7625 71.0433 70.3177C73.6524 71.3995 76.4945 72.8833 77.2883 76.3372L76.3137 76.5612C75.6417 73.6371 73.2597 72.3192 70.6603 71.2415C69.3952 70.717 68.0429 70.2366 66.953 69.6594C65.8559 69.0783 64.8956 68.3375 64.4801 67.2099L65.4184 66.8641ZM75.8766 78.6512C69.5694 80.6408 64.6187 81.6971 59.9196 81.7283C55.2124 81.7596 50.7911 80.7622 45.5397 78.6934L45.9063 77.763C51.0752 79.7993 55.3675 80.7585 59.9129 80.7283C64.4664 80.6981 69.307 79.675 75.5758 77.6976L75.8766 78.6512ZM44.2635 76.4428C45.0163 72.9326 47.852 71.4267 50.4672 70.3348C51.8094 69.7744 53.0603 69.3347 54.1004 68.7843C55.1324 68.2381 55.8252 67.6455 56.1131 66.8641L57.0514 67.2099C56.6341 68.3426 55.6693 69.0853 54.5682 69.6681C53.4752 70.2466 52.1176 70.7294 50.8524 71.2576C48.253 72.3429 45.8791 73.6782 45.2413 76.6525L44.2635 76.4428ZM45.5397 78.6934C44.6707 78.3511 44.0498 77.4397 44.2635 76.4428L45.2413 76.6525C45.1464 77.095 45.4161 77.5699 45.9063 77.763L45.5397 78.6934ZM77.2883 76.3372C77.5331 77.4025 76.8201 78.3536 75.8766 78.6512L75.5758 77.6976C76.1176 77.5267 76.4206 77.0261 76.3137 76.5612L77.2883 76.3372Z" fill="#0500FF"/>
<g opacity="0.15">
<path d="M40.0192 37.3808C39.8748 37.6553 40.5537 37.7647 41.2416 37.8754C41.6922 37.948 42.1465 38.0212 42.3759 38.1418C42.8678 38.4005 43.8857 38.8158 44.3283 38.6576C44.5223 39.3541 45.4725 40.3548 46.0242 40.8383C46.3096 41.0883 46.6483 41.6708 46.9842 42.2484C47.4971 43.1302 48.0033 44.0006 48.3027 43.6591C48.798 43.0938 48.2642 39.8426 47.5431 39.2108C46.8452 38.5991 45.0146 37.6254 44.4487 38.0764C44.198 37.5974 43.4705 37.0004 43.041 36.7746C42.4615 36.4698 40.2581 36.9264 40.0192 37.3808Z" fill="#0500FF"/>
<path d="M42.3345 51.9351C43.2932 51.9351 44.0704 51.7894 44.0704 51.6096C44.0704 51.4299 43.2932 51.2842 42.3345 51.2842C41.3758 51.2842 40.5986 51.4299 40.5986 51.6096C40.5986 51.7894 41.3758 51.9351 42.3345 51.9351Z" fill="#0500FF"/>
<path d="M40.141 46.9349C39.8476 47.0769 39.4794 47.1613 39.0796 47.1613C38.1209 47.1613 37.3438 46.6756 37.3438 46.0764C37.3438 45.4772 38.1209 44.9914 39.0796 44.9914C39.3211 44.9914 39.5641 45.0069 39.8072 45.0224C40.174 45.0458 40.5412 45.0692 40.9044 45.0395C41.2843 45.0083 41.6925 44.9914 42.1175 44.9914C42.4808 44.9914 42.8319 45.0038 43.1635 45.0268C43.474 45.0484 43.7866 45.0313 44.0991 45.0142C44.3068 45.0028 44.5144 44.9914 44.7213 44.9914C45.68 44.9914 46.4572 45.4772 46.4572 46.0764C46.4572 46.6756 45.68 47.1613 44.7213 47.1613C44.1729 47.1613 43.684 47.0024 43.3658 46.7542C43.3106 46.7111 43.244 46.6863 43.1742 46.6912C43.0285 46.7014 42.9183 46.831 42.9323 46.9763C42.9665 47.3324 42.9854 47.7251 42.9854 48.1378C42.9854 48.6544 43.0518 49.0292 43.0998 49.3C43.2021 49.8772 43.2206 49.9821 42.3345 49.9821C42.0733 49.9821 42.0771 49.8626 42.0987 49.1769C42.1068 48.9187 42.1175 48.5803 42.1175 48.1378C42.1175 47.7496 42.1093 47.3791 42.1018 47.0402C42.0979 46.8664 41.9561 46.7275 41.7822 46.7238C41.5351 46.7186 41.2949 46.7076 41.0642 46.6914C40.7434 46.669 40.4306 46.7949 40.141 46.9349Z" fill="#0500FF"/>
</g>
<g opacity="0.15">
<path d="M66.6404 50.8505C66.5466 51.1154 66.2651 50.6604 65.8484 49.9867C65.1504 48.8584 64.0731 47.1168 62.8622 47.1168C61.6681 46.6935 59.1832 45.5838 59.4343 44.8754C59.6854 44.167 62.4983 44.627 63.6924 45.0503C66.2065 45.5343 66.8915 50.1421 66.6404 50.8505Z" fill="#0500FF"/>
<path d="M62.7344 60.3596C62.7344 60.5394 61.9572 60.6851 60.9985 60.6851C60.0398 60.6851 59.2626 60.5394 59.2626 60.3596C59.2626 60.1799 60.0398 60.0342 60.9985 60.0342C61.9572 60.0342 62.7344 60.1799 62.7344 60.3596Z" fill="#0500FF"/>
<path d="M58.8051 55.6849C58.5116 55.8269 58.1435 55.9113 57.7437 55.9113C56.785 55.9113 56.0078 55.4256 56.0078 54.8264C56.0078 54.2272 56.785 53.7414 57.7437 53.7414C57.9852 53.7414 58.2281 53.7569 58.4712 53.7724C58.8381 53.7958 59.2053 53.8192 59.5685 53.7895C59.9484 53.7583 60.3566 53.7414 60.7815 53.7414C61.1449 53.7414 61.4959 53.7538 61.8275 53.7768C62.138 53.7984 62.4507 53.7813 62.7632 53.7642C62.9709 53.7528 63.1785 53.7414 63.3854 53.7414C64.3441 53.7414 65.1213 54.2272 65.1213 54.8264C65.1213 55.4256 64.3441 55.9113 63.3854 55.9113C62.837 55.9113 62.348 55.7524 62.0299 55.5042C61.9747 55.4611 61.9081 55.4363 61.8382 55.4412C61.6926 55.4514 61.5824 55.5809 61.5963 55.7263C61.6305 56.0824 61.6495 56.4751 61.6495 56.8877C61.6495 57.4044 61.7159 57.7792 61.7639 58.05C61.8661 58.6272 61.8847 58.7321 60.9985 58.7321C60.7374 58.7321 60.7411 58.6126 60.7627 57.9269C60.7709 57.6687 60.7815 57.3303 60.7815 56.8877C60.7815 56.4996 60.7733 56.1291 60.7658 55.7901C60.762 55.6163 60.6201 55.4775 60.4463 55.4738C60.1991 55.4686 59.959 55.4576 59.7283 55.4414C59.4075 55.419 59.0946 55.5449 58.8051 55.6849Z" fill="#0500FF"/>
</g>
<g opacity="0.15">
<path d="M70.3588 33.9059C69.6623 33.8892 68.9748 33.8726 69.0807 33.5811C69.256 33.0986 71.3775 32.3483 71.9929 32.5719C72.4608 32.7419 73.2923 33.2566 73.587 33.7056C73.5929 33.7145 73.6047 33.7168 73.6138 33.7112C74.2556 33.3201 75.7922 34.8694 76.2911 35.6881C76.7899 36.5069 76.3261 39.7687 75.6843 40.1598C75.2964 40.3961 75.074 39.4141 74.8486 38.4192C74.7009 37.7675 74.552 37.1104 74.3546 36.7864C74.2446 36.6057 74.1157 36.3741 73.9887 36.1186C73.5469 35.2301 72.4512 34.3553 71.5187 34.0165C71.2751 33.928 70.8151 33.9169 70.3588 33.9059Z" fill="#0500FF"/>
<path d="M72.5 47.7737C72.5 47.9535 71.7229 48.0992 70.7641 48.0992C69.8054 48.0992 69.0282 47.9535 69.0282 47.7737C69.0282 47.5939 69.8054 47.4482 70.7641 47.4482C71.7229 47.4482 72.5 47.5939 72.5 47.7737Z" fill="#0500FF"/>
<path d="M68.5707 43.099C68.2773 43.2409 67.9091 43.3254 67.5093 43.3254C66.5506 43.3254 65.7734 42.8396 65.7734 42.2404C65.7734 41.6412 66.5506 41.1555 67.5093 41.1555C67.7508 41.1555 67.9938 41.171 68.2369 41.1865C68.6037 41.2099 68.9709 41.2333 69.3341 41.2035C69.714 41.1724 70.1222 41.1555 70.5472 41.1555C70.9105 41.1555 71.2615 41.1678 71.5932 41.1909C71.9036 41.2124 72.2163 41.1953 72.5288 41.1782C72.7365 41.1669 72.9441 41.1555 73.151 41.1555C74.1097 41.1555 74.8869 41.6412 74.8869 42.2404C74.8869 42.8396 74.1097 43.3254 73.151 43.3254C72.6026 43.3254 72.1136 43.1664 71.7955 42.9183C71.7403 42.8752 71.6737 42.8503 71.6039 42.8553C71.4582 42.8655 71.348 42.995 71.362 43.1403C71.3962 43.4964 71.4151 43.8892 71.4151 44.3018C71.4151 44.8185 71.4815 45.1932 71.5295 45.464C71.6317 46.0412 71.6503 46.1462 70.7642 46.1462C70.503 46.1462 70.5068 46.0266 70.5284 45.341C70.5365 45.0828 70.5472 44.7443 70.5472 44.3018C70.5472 43.9137 70.539 43.5432 70.5315 43.2042C70.5276 43.0304 70.3857 42.8915 70.2119 42.8879C69.9648 42.8826 69.7246 42.8716 69.4939 42.8555C69.1731 42.833 68.8602 42.959 68.5707 43.099Z" fill="#0500FF"/>
</g>
<g opacity="0.15">
<path d="M79.9751 19.8763C79.8132 20.0661 80.6323 20.5333 81.4622 21.0067C82.0058 21.3167 82.5539 21.6294 82.8341 21.8684C83.542 22.4725 85.1347 23.6758 85.4026 23.3617C85.6706 23.0477 84.2838 21.4988 83.5759 20.8948C82.8681 20.2907 80.2431 19.5623 79.9751 19.8763Z" fill="#0500FF"/>
<path d="M82.0391 36.0564C82.0391 36.2361 81.2619 36.3819 80.3032 36.3819C79.3445 36.3819 78.5673 36.2361 78.5673 36.0564C78.5673 35.8766 79.3445 35.7309 80.3032 35.7309C81.2619 35.7309 82.0391 35.8766 82.0391 36.0564Z" fill="#0500FF"/>
<path d="M78.1098 31.3816C77.8163 31.5236 77.4481 31.608 77.0484 31.608C76.0897 31.608 75.3125 31.1223 75.3125 30.5231C75.3125 29.9239 76.0897 29.4381 77.0484 29.4381C77.2899 29.4381 77.5328 29.4536 77.7759 29.4691C78.1428 29.4925 78.51 29.5159 78.8732 29.4862C79.2531 29.455 79.6613 29.4381 80.0862 29.4381C80.4495 29.4381 80.8006 29.4505 81.1322 29.4735C81.4427 29.4951 81.7553 29.478 82.0678 29.4609C82.2755 29.4495 82.4832 29.4381 82.6901 29.4381C83.6488 29.4381 84.426 29.9239 84.426 30.5231C84.426 31.1223 83.6488 31.608 82.6901 31.608C82.1417 31.608 81.6527 31.4491 81.3346 31.2009C81.2793 31.1578 81.2128 31.133 81.1429 31.1379C80.9973 31.1481 80.887 31.2776 80.901 31.423C80.9352 31.7791 80.9542 32.1718 80.9542 32.5844C80.9542 33.1011 81.0206 33.4759 81.0685 33.7467C81.1708 34.3239 81.1894 34.4288 80.3032 34.4288C80.042 34.4288 80.0458 34.3093 80.0674 33.6236C80.0756 33.3654 80.0862 33.027 80.0862 32.5844C80.0862 32.1963 80.078 31.8258 80.0705 31.4868C80.0667 31.313 79.9248 31.1742 79.751 31.1705C79.5038 31.1653 79.2637 31.1543 79.033 31.1381C78.7122 31.1157 78.3993 31.2416 78.1098 31.3816Z" fill="#0500FF"/>
</g>
<path d="M59.1216 91.5975C59.1216 91.9589 58.8285 92.252 58.4671 92.252C58.1057 92.252 57.8127 91.9589 57.8127 91.5975L57.8127 87.6391C57.8127 87.6061 57.769 87.5945 57.7526 87.623C57.5719 87.936 57.1716 88.0433 56.8586 87.8625C56.5456 87.6818 56.4383 87.2816 56.619 86.9685L57.9139 84.7258C58.0308 84.5234 58.2468 84.3986 58.4806 84.3986C58.7144 84.3986 58.9305 84.5234 59.0474 84.7258L60.3422 86.9685C60.5229 87.2816 60.4157 87.6818 60.1027 87.8625C59.7897 88.0433 59.3894 87.936 59.2087 87.623C59.1848 87.5816 59.1216 87.5986 59.1216 87.6463L59.1216 91.5975Z" fill="url(#paint0_linear)"/>
<path d="M52.2815 92.2052C52.188 92.5543 51.8291 92.7615 51.48 92.668C51.1309 92.5744 50.9237 92.2156 51.0172 91.8664L52.0418 88.0428C52.0502 88.0112 52.0114 87.9888 51.9883 88.0119C51.7327 88.2675 51.3184 88.2675 51.0628 88.0119C50.8072 87.7563 50.8072 87.342 51.0628 87.0864L52.8939 85.2552C53.0593 85.0899 53.3002 85.0253 53.5261 85.0859C53.7519 85.1464 53.9283 85.3228 53.9888 85.5486L54.6591 88.05C54.7526 88.3991 54.5455 88.758 54.1963 88.8516C53.8472 88.9451 53.4883 88.7379 53.3948 88.3888C53.3824 88.3424 53.3166 88.3424 53.3041 88.3888L52.2815 92.2052Z" fill="url(#paint1_linear)"/>
<path d="M65.5709 91.8742C65.6645 92.2234 65.4573 92.5822 65.1082 92.6758C64.759 92.7693 64.4002 92.5621 64.3066 92.213L63.2821 88.3894C63.2736 88.3578 63.2288 88.3578 63.2203 88.3894C63.1268 88.7385 62.7679 88.9457 62.4188 88.8521C62.0697 88.7586 61.8625 88.3997 61.9561 88.0506L62.6263 85.5492C62.6868 85.3233 62.8632 85.1469 63.0891 85.0864C63.3149 85.0259 63.5559 85.0905 63.7212 85.2558L65.5524 87.087C65.8079 87.3425 65.8079 87.7569 65.5524 88.0125C65.2968 88.2681 64.8824 88.2681 64.6268 88.0125C64.5929 87.9785 64.5359 88.0114 64.5483 88.0578L65.5709 91.8742Z" fill="url(#paint2_linear)"/>
<ellipse cx="66.0016" cy="107" rx="12.4918" ry="12.4918" transform="rotate(-30 66.0016 107)" fill="white" stroke="url(#paint3_linear)"/>
<path d="M66.1121 102.584L68.2968 104.929L70.6423 107.114L68.2968 109.299L66.1121 111.644L63.9275 109.299L61.582 107.114L63.9275 104.929L66.1121 102.584Z" fill="url(#paint4_linear)"/>
<ellipse cx="49.0016" cy="107" rx="12.4918" ry="12.4918" transform="rotate(-30 49.0016 107)" fill="white" stroke="url(#paint5_linear)"/>
<path d="M49.1121 102.584L51.2968 104.929L53.6423 107.114L51.2968 109.299L49.1121 111.644L46.9275 109.299L44.582 107.114L46.9275 104.929L49.1121 102.584Z" fill="url(#paint6_linear)"/>
</g>
<defs>
<linearGradient id="paint0_linear" x1="59.6273" y1="92.7928" x2="54.1589" y2="90.7705" gradientUnits="userSpaceOnUse">
<stop stop-color="#3CE700"/>
<stop offset="0.567708" stop-color="#0BC91E"/>
</linearGradient>
<linearGradient id="paint1_linear" x1="53.897" y1="93.2156" x2="48.5606" y2="91.2297" gradientUnits="userSpaceOnUse">
<stop stop-color="#3CE700"/>
<stop offset="0.567708" stop-color="#0BC91E"/>
</linearGradient>
<linearGradient id="paint2_linear" x1="64.9595" y1="93.224" x2="59.6219" y2="91.2394" gradientUnits="userSpaceOnUse">
<stop stop-color="#3CE700"/>
<stop offset="0.567708" stop-color="#0BC91E"/>
</linearGradient>
<linearGradient id="paint3_linear" x1="73.3493" y1="92.7878" x2="47.7304" y2="111.871" gradientUnits="userSpaceOnUse">
<stop stop-color="#EAED4F"/>
<stop offset="0.567708" stop-color="#C4B000"/>
</linearGradient>
<linearGradient id="paint4_linear" x1="68.7768" y1="101.96" x2="59.4861" y2="108.881" gradientUnits="userSpaceOnUse">
<stop stop-color="#EAED4F"/>
<stop offset="0.567708" stop-color="#C4B000"/>
</linearGradient>
<linearGradient id="paint5_linear" x1="56.3493" y1="92.7878" x2="30.7304" y2="111.871" gradientUnits="userSpaceOnUse">
<stop stop-color="#EAED4F"/>
<stop offset="0.567708" stop-color="#C4B000"/>
</linearGradient>
<linearGradient id="paint6_linear" x1="51.7768" y1="101.96" x2="42.4861" y2="108.881" gradientUnits="userSpaceOnUse">
<stop stop-color="#EAED4F"/>
<stop offset="0.567708" stop-color="#C4B000"/>
</linearGradient>
<clipPath id="clip0">
<rect width="115" height="120" fill="white"/>
</clipPath>
</defs>
</svg>
