<svg width="115" height="120" viewBox="0 0 115 120" fill="none" xmlns="http://www.w3.org/2000/svg">
<g clip-path="url(#clip0)">
<path d="M114.789 54.5394C114.873 55.5232 114.932 56.5141 114.966 57.5114L114.467 57.5284C114.489 58.1828 114.5 58.8401 114.5 59.5C114.5 60.1599 114.489 60.8172 114.467 61.4716L114.966 61.4886C114.932 62.4859 114.873 63.4768 114.789 64.4606L114.291 64.418C114.178 65.7329 114.021 67.035 113.821 68.3228L114.315 68.3996C114.162 69.3846 113.984 70.3614 113.782 71.3293L113.293 71.227C113.023 72.5178 112.709 73.7926 112.353 75.0498L112.834 75.1859C112.563 76.1439 112.268 77.0917 111.949 78.0287L111.476 77.8677C111.052 79.1135 110.586 80.34 110.08 81.5454L110.541 81.7389C110.156 82.6561 109.748 83.5611 109.318 84.4533L108.868 84.2361C108.296 85.4207 107.685 86.5825 107.036 87.7198L107.47 87.9677C106.977 88.8308 106.462 89.68 105.927 90.5144L105.506 90.2443C104.797 91.3498 104.05 92.4292 103.268 93.4807L103.669 93.7791C103.077 94.5761 102.464 95.3573 101.831 96.1218L101.446 95.8031C100.61 96.8147 99.7386 97.797 98.8353 98.748L99.1978 99.0924C98.5142 99.8121 97.8121 100.514 97.0924 101.198L96.748 100.835C95.7969 101.739 94.8147 102.61 93.8031 103.446L94.1218 103.831C93.3572 104.464 92.5761 105.077 91.7791 105.669L91.4807 105.268C90.4292 106.05 89.3498 106.797 88.2443 107.506L88.5144 107.927C87.68 108.462 86.8308 108.977 85.9677 109.47L85.7198 109.036C84.5825 109.685 83.4207 110.296 82.2361 110.868L82.4533 111.318C81.5611 111.748 80.6561 112.157 79.7389 112.541L79.5454 112.08C78.34 112.586 77.1135 113.052 75.8677 113.476L76.0287 113.949C75.0917 114.268 74.1439 114.563 73.1859 114.834L73.0498 114.353C71.7926 114.709 70.5178 115.023 69.227 115.293L69.3293 115.782C68.3614 115.984 67.3846 116.162 66.3995 116.315L66.3228 115.821C65.035 116.021 63.7329 116.178 62.418 116.291L62.4606 116.789C61.4768 116.873 60.4859 116.932 59.4886 116.966L59.4716 116.467C58.8172 116.489 58.1599 116.5 57.5 116.5C56.8401 116.5 56.1828 116.489 55.5284 116.467L55.5114 116.966C54.5141 116.932 53.5232 116.873 52.5394 116.789L52.582 116.291C51.2671 116.178 49.965 116.021 48.6772 115.821L48.6005 116.315C47.6154 116.162 46.6386 115.984 45.6707 115.782L45.773 115.293C44.4822 115.023 43.2074 114.709 41.9502 114.353L41.8141 114.834C40.8561 114.563 39.9083 114.268 38.9713 113.949L39.1323 113.476C37.8865 113.052 36.66 112.586 35.4546 112.08L35.2611 112.541C34.3439 112.157 33.4389 111.748 32.5467 111.318L32.7639 110.868C31.5793 110.296 30.4175 109.685 29.2802 109.036L29.0323 109.47C28.1692 108.977 27.32 108.462 26.4856 107.927L26.7557 107.506C25.6502 106.797 24.5708 106.05 23.5193 105.268L23.2209 105.669C22.4239 105.077 21.6428 104.464 20.8782 103.831L21.1969 103.446C20.1853 102.61 19.2031 101.739 18.252 100.835L17.9076 101.198C17.1879 100.514 16.4858 99.8121 15.8022 99.0924L16.1647 98.748C15.2614 97.797 14.3905 96.8147 13.5539 95.8031L13.1686 96.1218C12.5363 95.3573 11.9234 94.5761 11.3307 93.7791L11.7319 93.4807C10.9499 92.4292 10.2033 91.3498 9.49381 90.2443L9.07301 90.5144C8.53754 89.68 8.02303 88.8308 7.53025 87.9677L7.96446 87.7198C7.31514 86.5825 6.70386 85.4207 6.13237 84.2361L5.68203 84.4533C5.25159 83.5611 4.84351 82.6561 4.45852 81.7389L4.91955 81.5454C4.41354 80.34 3.94779 79.1135 3.52396 77.8677L3.0506 78.0287C2.73186 77.0917 2.43662 76.1439 2.16558 75.1859L2.6467 75.0498C2.29103 73.7926 1.97742 72.5178 1.70748 71.227L1.21806 71.3293C1.01566 70.3614 0.8376 69.3846 0.684543 68.3996L1.17861 68.3228C0.978523 67.035 0.821536 65.7329 0.709181 64.418L0.210996 64.4606C0.126932 63.4768 0.0676395 62.4859 0.033744 61.4886L0.533455 61.4716C0.511212 60.8172 0.5 60.1599 0.5 59.5C0.5 58.8401 0.511212 58.1828 0.533455 57.5284L0.0337438 57.5114C0.0676393 56.5141 0.126932 55.5232 0.210996 54.5394L0.709181 54.582C0.821536 53.2671 0.978523 51.965 1.17861 50.6772L0.684543 50.6005C0.8376 49.6154 1.01566 48.6386 1.21806 47.6707L1.70748 47.773C1.97742 46.4822 2.29103 45.2074 2.6467 43.9502L2.16558 43.8141C2.43662 42.8561 2.73186 41.9083 3.05061 40.9713L3.52397 41.1323C3.94779 39.8865 4.41355 38.66 4.91955 37.4546L4.45852 37.2611C4.84351 36.3439 5.25159 35.4389 5.68204 34.5467L6.13237 34.7639C6.70386 33.5793 7.31514 32.4175 7.96446 31.2802L7.53025 31.0323C8.02303 30.1692 8.53754 29.32 9.07302 28.4856L9.49381 28.7557C10.2033 27.6502 10.9499 26.5708 11.7319 25.5193L11.3307 25.2209C11.9234 24.4239 12.5363 23.6428 13.1686 22.8782L13.5539 23.1969C14.3905 22.1853 15.2614 21.2031 16.1647 20.252L15.8022 19.9076C16.4858 19.1879 17.1879 18.4858 17.9076 17.8022L18.252 18.1647C19.2031 17.2614 20.1853 16.3905 21.1969 15.5539L20.8782 15.1686C21.6428 14.5363 22.4239 13.9234 23.2209 13.3307L23.5193 13.7319C24.5708 12.9499 25.6502 12.2033 26.7557 11.4938L26.4856 11.073C27.32 10.5375 28.1692 10.023 29.0323 9.53025L29.2802 9.96446C30.4175 9.31514 31.5793 8.70386 32.7639 8.13237L32.5467 7.68203C33.4389 7.25159 34.3439 6.84351 35.2611 6.45852L35.4546 6.91955C36.66 6.41355 37.8865 5.94779 39.1323 5.52396L38.9713 5.0506C39.9083 4.73186 40.8561 4.43662 41.8141 4.16558L41.9502 4.6467C43.2074 4.29103 44.4822 3.97742 45.773 3.70748L45.6707 3.21806C46.6386 3.01566 47.6154 2.8376 48.6005 2.68454L48.6772 3.17861C49.965 2.97852 51.2671 2.82154 52.582 2.70918L52.5394 2.211C53.5232 2.12693 54.5141 2.06764 55.5114 2.03374L55.5284 2.53346C56.1828 2.51121 56.8401 2.5 57.5 2.5C58.1599 2.5 58.8172 2.51121 59.4716 2.53346L59.4886 2.03374C60.4859 2.06764 61.4768 2.12693 62.4606 2.211L62.418 2.70918C63.7329 2.82154 65.035 2.97852 66.3228 3.17861L66.3995 2.68454C67.3846 2.8376 68.3614 3.01566 69.3293 3.21806L69.227 3.70748C70.5178 3.97742 71.7926 4.29103 73.0498 4.6467L73.1859 4.16558C74.1439 4.43662 75.0917 4.73186 76.0287 5.05061L75.8677 5.52397C77.1135 5.94779 78.34 6.41355 79.5454 6.91955L79.7389 6.45852C80.6561 6.84351 81.5611 7.25159 82.4533 7.68204L82.2361 8.13237C83.4207 8.70387 84.5825 9.31514 85.7198 9.96446L85.9677 9.53025C86.8308 10.023 87.68 10.5375 88.5144 11.073L88.2443 11.4938C89.3498 12.2033 90.4292 12.9499 91.4807 13.7319L91.7791 13.3307C92.5761 13.9234 93.3572 14.5363 94.1218 15.1686L93.8031 15.5539C94.8147 16.3905 95.7969 17.2614 96.748 18.1647L97.0924 17.8022C97.8121 18.4858 98.5142 19.1879 99.1978 19.9076L98.8353 20.252C99.7386 21.2031 100.61 22.1853 101.446 23.1969L101.831 22.8782C102.464 23.6428 103.077 24.4239 103.669 25.2209L103.268 25.5193C104.05 26.5708 104.797 27.6502 105.506 28.7557L105.927 28.4856C106.462 29.32 106.977 30.1692 107.47 31.0323L107.036 31.2802C107.685 32.4175 108.296 33.5793 108.868 34.7639L109.318 34.5467C109.748 35.4389 110.156 36.3439 110.541 37.2611L110.08 37.4546C110.586 38.66 111.052 39.8865 111.476 41.1323L111.949 40.9713C112.268 41.9083 112.563 42.8561 112.834 43.8141L112.353 43.9502C112.709 45.2074 113.023 46.4822 113.293 47.773L113.782 47.6707C113.984 48.6386 114.162 49.6154 114.315 50.6005L113.821 50.6772C114.021 51.965 114.178 53.2671 114.291 54.582L114.789 54.5394Z" fill="white" stroke="#D1D1D1" stroke-dasharray="4 3"/>
<ellipse opacity="0.05" cx="57.5" cy="56" rx="42.5" ry="42" fill="#0500FF"/>
<circle cx="33.3867" cy="33.3076" r="4.00001" fill="white"/>
<ellipse cx="10.1538" cy="92.1538" rx="6.15385" ry="6.15384" fill="white"/>
<ellipse cx="88.6151" cy="42.8465" rx="3.38461" ry="3.38461" fill="white"/>
<path d="M90.9659 62.5711C91.0632 61.9125 92.0131 61.9125 92.1104 62.5711L92.2074 63.2279C92.2447 63.4802 92.4428 63.6783 92.6951 63.7156L93.3519 63.8126C94.0105 63.9099 94.0105 64.8598 93.3519 64.9571L92.6951 65.0541C92.4428 65.0914 92.2447 65.2895 92.2074 65.5418L92.1104 66.1986C92.0131 66.8572 91.0632 66.8572 90.9659 66.1986L90.8689 65.5418C90.8316 65.2895 90.6335 65.0914 90.3812 65.0541L89.7244 64.9571C89.0658 64.8598 89.0658 63.9099 89.7244 63.8126L90.3812 63.7156C90.6335 63.6783 90.8316 63.4802 90.8689 63.2279L90.9659 62.5711Z" fill="#C4C4C4"/>
<path d="M9.24208 89.2589C9.3973 88.208 10.9132 88.208 11.0684 89.2589L11.2232 90.307C11.2827 90.7097 11.5989 91.0258 12.0015 91.0853L13.0496 91.2401C14.1006 91.3953 14.1006 92.9112 13.0496 93.0664L12.0015 93.2212C11.5989 93.2807 11.2827 93.5969 11.2232 93.9995L11.0684 95.0477C10.9132 96.0986 9.3973 96.0986 9.24208 95.0476L9.08727 93.9995C9.0278 93.5969 8.71162 93.2807 8.30897 93.2212L7.26086 93.0664C6.20992 92.9112 6.20992 91.3953 7.26086 91.2401L8.30897 91.0853C8.71162 91.0258 9.0278 90.7097 9.08727 90.307L9.24208 89.2589Z" fill="#C4C4C4"/>
<path d="M12.7355 2.49392C12.8327 1.83536 13.7827 1.83536 13.8799 2.49392L13.9769 3.15073C14.0142 3.40305 14.2123 3.60118 14.4647 3.63844L15.1215 3.73545C15.78 3.83273 15.78 4.78266 15.1215 4.87993L14.4647 4.97694C14.2123 5.01421 14.0142 5.21234 13.9769 5.46466L13.8799 6.12146C13.7827 6.78002 12.8327 6.78002 12.7355 6.12146L12.6384 5.46466C12.6012 5.21234 12.403 5.01421 12.1507 4.97694L11.4939 4.87993C10.8354 4.78266 10.8354 3.83273 11.4939 3.73545L12.1507 3.63844C12.403 3.60118 12.6012 3.40305 12.6384 3.15073L12.7355 2.49392Z" fill="#C4C4C4"/>
<ellipse cx="3.07694" cy="25.0769" rx="1.07694" ry="1.07692" fill="#C4C4C4"/>
<circle cx="113.077" cy="103.077" r="1.07692" fill="#C4C4C4"/>
<ellipse cx="102.386" cy="36.154" rx="1.76923" ry="1.76923" fill="#C4C4C4"/>
<ellipse cx="35.7692" cy="19.7692" rx="1.76923" ry="1.76923" fill="#C4C4C4"/>
<ellipse cx="87.8465" cy="42.8465" rx="1.07692" ry="1.07692" fill="#C4C4C4"/>
<path d="M50.1523 48.2676L51.3683 48.0775C51.3683 48.0775 51.4436 48.5016 51.482 48.7749C51.5199 49.0442 51.5643 49.4665 51.5643 49.4665L50.3662 49.6356L50.1523 48.2676Z" fill="white"/>
<mask id="path-15-inside-1" fill="white">
<path fill-rule="evenodd" clip-rule="evenodd" d="M69.5619 81.136C67.5606 81.8043 65.2507 82.1856 62.7907 82.1856C60.3307 82.1856 58.0208 81.8043 56.0195 81.136C56.3719 77.0031 59.269 73.7793 62.7907 73.7793C66.3125 73.7793 69.2096 77.0031 69.5619 81.136Z"/>
</mask>
<path fill-rule="evenodd" clip-rule="evenodd" d="M69.5619 81.136C67.5606 81.8043 65.2507 82.1856 62.7907 82.1856C60.3307 82.1856 58.0208 81.8043 56.0195 81.136C56.3719 77.0031 59.269 73.7793 62.7907 73.7793C66.3125 73.7793 69.2096 77.0031 69.5619 81.136Z" fill="white"/>
<path d="M69.5619 81.136L69.8786 82.0845L70.6251 81.8352L70.5583 81.0511L69.5619 81.136ZM56.0195 81.136L55.0231 81.0511L54.9563 81.8352L55.7028 82.0845L56.0195 81.136ZM69.2451 80.1875C67.3521 80.8197 65.1497 81.1856 62.7907 81.1856V83.1856C65.3516 83.1856 67.7691 82.789 69.8786 82.0845L69.2451 80.1875ZM62.7907 81.1856C60.4317 81.1856 58.2293 80.8197 56.3363 80.1875L55.7028 82.0845C57.8123 82.789 60.2298 83.1856 62.7907 83.1856V81.1856ZM57.0159 81.221C57.3382 77.4403 59.939 74.7793 62.7907 74.7793V72.7793C58.5989 72.7793 55.4055 76.5659 55.0231 81.0511L57.0159 81.221ZM62.7907 74.7793C65.6424 74.7793 68.2432 77.4403 68.5655 81.2209L70.5583 81.0511C70.1759 76.5658 66.9825 72.7793 62.7907 72.7793V74.7793Z" fill="#D1D1D1" mask="url(#path-15-inside-1)"/>
<path d="M62.4502 48.2537C62.3166 47.4916 62.826 46.7655 63.5881 46.6318L64.508 46.4705C65.2701 46.3369 65.9962 46.8463 66.1299 47.6084L67.4607 55.1977C67.4784 55.2982 67.5204 55.393 67.5762 55.4785C67.6671 55.6177 67.7214 55.7821 67.7273 55.9575L68.0489 65.6052C68.0515 65.6847 68.044 65.7641 68.0265 65.8417L66.7973 71.2964C66.7783 71.3806 66.7688 71.4667 66.7688 71.553V75.8816C66.7688 76.3974 66.3506 76.8156 65.8348 76.8156H59.7641C59.2483 76.8156 58.8302 76.3974 58.8302 75.8816V72.4633C58.8302 72.0069 58.5341 71.6031 58.0987 71.466C57.8236 71.3793 57.604 71.1704 57.5037 70.9L55.07 64.3397C55.0096 64.1768 54.9958 64.0002 55.0302 63.8299L57.011 54.0301C57.1131 53.5252 57.6046 53.1983 58.1096 53.2993L61.8513 54.0477C62.6565 54.2087 63.372 53.5101 63.2301 52.7012L62.4502 48.2537Z" fill="white" stroke="#D1D1D1"/>
<rect x="58.3594" y="45.0596" width="4.66972" height="29.4195" fill="#0500FF"/>
<rect x="53.0547" y="54.3643" width="3.7358" height="10.507" rx="1.8679" transform="rotate(-68.1502 53.0547 54.3643)" fill="white" stroke="#D1D1D1"/>
<rect width="3.73583" height="10.507" rx="1.86791" transform="matrix(0.372174 -0.928163 0.928162 0.372176 52.5312 58.1797)" fill="white" stroke="#D1D1D1"/>
<rect width="3.73577" height="8.17205" rx="1.86789" transform="matrix(0.372177 -0.928162 0.928164 0.372172 52.4453 62.1689)" fill="white" stroke="#D1D1D1"/>
<rect width="3.73583" height="5.83719" rx="1.86792" transform="matrix(0.37217 -0.928165 0.928161 0.372179 52.5664 66.2451)" fill="white" stroke="#D1D1D1"/>
<path d="M73.2703 36.6547C73.2703 43.9867 67.3265 49.9305 59.9945 49.9305C52.6625 49.9305 46.7188 43.9867 46.7188 36.6547C46.7188 29.3227 52.6625 23.3789 59.9945 23.3789C67.3265 23.3789 73.2703 29.3227 73.2703 36.6547Z" fill="white" stroke="#0500FF"/>
<rect width="3.73577" height="8.55793" rx="1.86789" transform="matrix(0.98497 -0.172725 0.172722 0.984971 62.2031 46.873)" fill="white" stroke="#D1D1D1"/>
<rect width="2.07407" height="6.02924" rx="1.03703" transform="matrix(0.98497 -0.172725 0.172722 0.984971 64.082 52.7725)" fill="white"/>
<mask id="path-26-inside-2" fill="white">
<path fill-rule="evenodd" clip-rule="evenodd" d="M76.3365 95.8459C78.3377 96.5141 80.6474 96.8952 83.1071 96.8952C85.5673 96.8952 87.8775 96.5139 89.8789 95.8455C89.5264 91.7128 86.6294 88.4893 83.1077 88.4893C79.586 88.4893 76.6889 91.713 76.3365 95.8459Z"/>
</mask>
<path fill-rule="evenodd" clip-rule="evenodd" d="M76.3365 95.8459C78.3377 96.5141 80.6474 96.8952 83.1071 96.8952C85.5673 96.8952 87.8775 96.5139 89.8789 95.8455C89.5264 91.7128 86.6294 88.4893 83.1077 88.4893C79.586 88.4893 76.6889 91.713 76.3365 95.8459Z" fill="white"/>
<path d="M76.3365 95.8459L76.0198 96.7944L75.2733 96.5451L75.3402 95.7609L76.3365 95.8459ZM89.8789 95.8455L90.8753 95.7605L90.9422 96.5447L90.1957 96.794L89.8789 95.8455ZM76.6533 94.8974C78.5461 95.5294 80.7483 95.8952 83.1071 95.8952V97.8952C80.5464 97.8952 78.1292 97.4988 76.0198 96.7944L76.6533 94.8974ZM83.1071 95.8952C85.4663 95.8952 87.669 95.5293 89.5621 94.897L90.1957 96.794C88.086 97.4986 85.6683 97.8952 83.1071 97.8952V95.8952ZM88.8825 95.9305C88.5601 92.15 85.9593 89.4893 83.1077 89.4893V87.4893C87.2994 87.4893 90.4927 91.2755 90.8753 95.7605L88.8825 95.9305ZM83.1077 89.4893C80.2561 89.4893 77.6553 92.1502 77.3329 95.9308L75.3402 95.7609C75.7225 91.2758 78.9159 87.4893 83.1077 87.4893V89.4893Z" fill="#D1D1D1" mask="url(#path-26-inside-2)"/>
<path d="M83.4546 62.9627C83.5883 62.2006 83.0788 61.4744 82.3167 61.3408L81.3968 61.1795C80.6347 61.0459 79.9086 61.5553 79.775 62.3174L78.4441 69.9067C78.4265 70.0072 78.3844 70.102 78.3287 70.1874C78.2378 70.3267 78.1834 70.4911 78.1776 70.6665L77.856 80.3142C77.8533 80.3937 77.8608 80.4731 77.8783 80.5506L79.1075 86.0054C79.1265 86.0896 79.1361 86.1757 79.1361 86.262V90.5906C79.1361 91.1064 79.5543 91.5245 80.0701 91.5245H86.1407C86.6565 91.5245 87.0747 91.1064 87.0747 90.5906V87.1723C87.0747 86.7158 87.3708 86.3121 87.8061 86.1749C88.0812 86.0883 88.3008 85.8794 88.4011 85.609L90.8348 79.0487C90.8953 78.8858 90.9091 78.7092 90.8746 78.5388L88.8938 68.7391C88.7918 68.2342 88.3003 67.9073 87.7952 68.0083L84.0536 68.7566C83.2483 68.9177 82.5329 68.2191 82.6747 67.4102L83.4546 62.9627Z" fill="white" stroke="#D1D1D1"/>
<rect width="4.66975" height="29.4195" transform="matrix(-1 0 0 1 87.543 59.7695)" fill="#0500FF"/>
<rect width="3.73579" height="10.5069" rx="1.8679" transform="matrix(-0.372175 -0.928163 -0.928163 0.372174 92.8477 69.0742)" fill="white" stroke="#D1D1D1"/>
<rect width="3.73581" height="10.507" rx="1.8679" transform="matrix(-0.372175 -0.928163 -0.928163 0.372174 93.3711 72.8896)" fill="white" stroke="#D1D1D1"/>
<rect width="3.73583" height="8.17208" rx="1.86791" transform="matrix(-0.372172 -0.928164 -0.928162 0.372177 93.4609 76.8789)" fill="white" stroke="#D1D1D1"/>
<rect width="3.7358" height="5.83722" rx="1.8679" transform="matrix(-0.372177 -0.928162 -0.928164 0.372172 93.3359 80.9551)" fill="white" stroke="#D1D1D1"/>
<path d="M72.632 51.3646C72.632 58.6967 78.5758 64.6404 85.9078 64.6404C93.2398 64.6404 99.1836 58.6967 99.1836 51.3646C99.1836 44.0326 93.2398 38.0889 85.9078 38.0889C78.5758 38.0889 72.632 44.0326 72.632 51.3646Z" fill="white" stroke="#0500FF"/>
<rect width="3.7358" height="8.55794" rx="1.8679" transform="matrix(-0.98497 -0.172724 -0.172724 0.98497 83.7031 61.582)" fill="white" stroke="#D1D1D1"/>
<rect width="2.07409" height="6.02922" rx="1.03704" transform="matrix(-0.984971 -0.172723 -0.172724 0.98497 81.8203 67.4824)" fill="white"/>
<mask id="path-37-inside-3" fill="white">
<path fill-rule="evenodd" clip-rule="evenodd" d="M25.2037 91.8762C27.2049 92.5444 29.5146 92.9255 31.9743 92.9255C34.4345 92.9255 36.7447 92.5442 38.7461 91.8758C38.3936 87.7431 35.4966 84.5195 31.9749 84.5195C28.4532 84.5195 25.5561 87.7433 25.2037 91.8762Z"/>
</mask>
<path fill-rule="evenodd" clip-rule="evenodd" d="M25.2037 91.8762C27.2049 92.5444 29.5146 92.9255 31.9743 92.9255C34.4345 92.9255 36.7447 92.5442 38.7461 91.8758C38.3936 87.7431 35.4966 84.5195 31.9749 84.5195C28.4532 84.5195 25.5561 87.7433 25.2037 91.8762Z" fill="white"/>
<path d="M25.2037 91.8762L24.887 92.8247L24.1405 92.5755L24.2074 91.7913L25.2037 91.8762ZM38.7461 91.8758L39.7425 91.7908L39.8094 92.575L39.0629 92.8243L38.7461 91.8758ZM25.5205 90.9277C27.4133 91.5597 29.6155 91.9255 31.9743 91.9255V93.9255C29.4136 93.9255 26.9964 93.5291 24.887 92.8247L25.5205 90.9277ZM31.9743 91.9255C34.3335 91.9255 36.5362 91.5596 38.4293 90.9273L39.0629 92.8243C36.9531 93.5289 34.5355 93.9255 31.9743 93.9255V91.9255ZM37.7497 91.9608C37.4273 88.1803 34.8265 85.5195 31.9749 85.5195V83.5195C36.1666 83.5195 39.3599 87.3058 39.7425 91.7908L37.7497 91.9608ZM31.9749 85.5195C29.1233 85.5195 26.5224 88.1805 26.2001 91.9612L24.2074 91.7913C24.5897 87.3061 27.7831 83.5195 31.9749 83.5195V85.5195Z" fill="#D1D1D1" mask="url(#path-37-inside-3)"/>
<path d="M34.5644 62.3572C34.9446 61.6833 34.7066 60.8289 34.0327 60.4486L33.2193 59.9897C32.5455 59.6095 31.691 59.8475 31.3108 60.5213L27.5243 67.2318C27.475 67.3192 27.4361 67.4096 27.4072 67.5015C27.2886 67.879 27.1226 68.2828 27.0571 68.6731C27.0503 68.7136 27.0462 68.7549 27.0448 68.7969L26.7232 78.4446C26.7205 78.5241 26.728 78.6035 26.7455 78.6811L27.9747 84.1358C27.9937 84.22 28.0033 84.3061 28.0033 84.3924V85.9191C28.0033 86.4349 28.4214 86.8531 28.9372 86.8531H35.0079C35.5237 86.8531 35.9419 86.4349 35.9419 85.9191V85.3027C35.9419 84.8463 36.238 84.4425 36.6733 84.3054C36.9484 84.2187 37.168 84.0098 37.2683 83.7394L39.702 77.1791C39.7625 77.0162 39.7762 76.8396 39.7418 76.6693L37.761 66.8695C37.659 66.3647 37.1675 66.0377 36.6624 66.1387L34.3895 66.5933C33.4101 66.7892 32.6529 65.7447 33.1438 64.8748L34.5644 62.3572Z" fill="white" stroke="#D1D1D1"/>
<rect width="4.66976" height="29.4195" transform="matrix(-1 0 0 1 36.4102 53.2305)" fill="#0500FF"/>
<rect width="3.73583" height="10.5069" rx="1.86791" transform="matrix(-0.177289 -0.984159 -0.984159 0.177291 41.2891 68.9883)" fill="white" stroke="#D1D1D1"/>
<rect width="3.7358" height="10.5069" rx="1.8679" transform="matrix(-0.17729 -0.984159 -0.984159 0.177289 41.0273 72.8311)" fill="white" stroke="#D1D1D1"/>
<rect width="3.73581" height="8.17206" rx="1.8679" transform="matrix(-0.177289 -0.984159 -0.984159 0.17729 40.3125 76.7559)" fill="white" stroke="#D1D1D1"/>
<rect width="3.7358" height="5.83722" rx="1.8679" transform="matrix(-0.177291 -0.984159 -0.984159 0.177288 39.3672 80.7217)" fill="white" stroke="#D1D1D1"/>
<circle r="13.2758" transform="matrix(-1 0 0 1 34.775 44.8256)" fill="white" stroke="#0500FF"/>
<mask id="path-46-inside-4" fill="white">
<path fill-rule="evenodd" clip-rule="evenodd" d="M64.89 104.951C62.8887 105.619 60.5789 106 58.119 106C55.659 106 53.349 105.619 51.3477 104.951C51.7002 100.818 54.5972 97.5947 58.1188 97.5947C61.6404 97.5947 64.5374 100.818 64.89 104.951Z"/>
</mask>
<path fill-rule="evenodd" clip-rule="evenodd" d="M64.89 104.951C62.8887 105.619 60.5789 106 58.119 106C55.659 106 53.349 105.619 51.3477 104.951C51.7002 100.818 54.5972 97.5947 58.1188 97.5947C61.6404 97.5947 64.5374 100.818 64.89 104.951Z" fill="white"/>
<path d="M64.89 104.951L65.2067 105.899L65.9532 105.65L65.8863 104.866L64.89 104.951ZM51.3477 104.951L50.3513 104.866L50.2844 105.65L51.0309 105.899L51.3477 104.951ZM64.5732 104.002C62.6803 104.635 60.4779 105 58.119 105V107C60.6799 107 63.0972 106.604 65.2067 105.899L64.5732 104.002ZM58.119 105C55.76 105 53.5575 104.634 51.6644 104.002L51.0309 105.899C53.1405 106.604 55.558 107 58.119 107V105ZM52.344 105.036C52.6666 101.255 55.2673 98.5947 58.1188 98.5947V96.5947C53.9272 96.5947 50.7339 100.381 50.3513 104.866L52.344 105.036ZM58.1188 98.5947C60.9704 98.5947 63.5711 101.255 63.8936 105.036L65.8863 104.866C65.5038 100.381 62.3105 96.5947 58.1188 96.5947V98.5947Z" fill="#D1D1D1" mask="url(#path-46-inside-4)"/>
<path d="M59.295 71.4439C59.295 70.6702 59.9222 70.043 60.6959 70.043H61.6299C62.4036 70.043 63.0308 70.6702 63.0308 71.4439V79.149C63.0308 79.1529 63.0308 79.1568 63.0307 79.1606C63.0291 79.3632 63.0487 79.5694 63.0554 79.7718L63.377 89.4196C63.3797 89.499 63.3722 89.5785 63.3547 89.656L62.1255 95.1107C62.1065 95.195 62.0969 95.281 62.0969 95.3674V99.696C62.0969 100.212 61.6788 100.63 61.163 100.63H55.0923C54.5765 100.63 54.1583 100.212 54.1583 99.696V96.2777C54.1583 95.8212 53.8622 95.4175 53.4268 95.2803C53.1518 95.1936 52.9322 94.9848 52.8319 94.7144L50.3982 88.1541C50.3377 87.9911 50.3239 87.8146 50.3584 87.6442L52.3392 77.8444C52.4412 77.3396 52.9327 77.0126 53.4378 77.1137L57.8986 78.0058C58.621 78.1503 59.295 77.5978 59.295 76.861V71.4439Z" fill="white" stroke="#D1D1D1"/>
<rect x="53.6875" y="64.2061" width="4.6698" height="29.4195" fill="#0500FF"/>
<rect width="3.7358" height="10.5069" rx="1.8679" transform="matrix(0.39057 -0.920573 0.920574 0.390569 49.4023 79.3857)" fill="white" stroke="#D1D1D1"/>
<rect width="3.73583" height="10.507" rx="1.86791" transform="matrix(0.390568 -0.920574 0.920573 0.390571 48.8047 83.1904)" fill="white" stroke="#D1D1D1"/>
<rect width="3.73581" height="8.17211" rx="1.86791" transform="matrix(0.39057 -0.920573 0.920574 0.390568 48.6367 87.1758)" fill="white" stroke="#D1D1D1"/>
<rect width="3.7358" height="5.83722" rx="1.8679" transform="matrix(0.390572 -0.920573 0.920574 0.390567 48.6797 91.2529)" fill="white" stroke="#D1D1D1"/>
<path d="M68.5985 55.8012C68.5985 63.1332 62.6547 69.077 55.3227 69.077C47.9907 69.077 42.0469 63.1332 42.0469 55.8012C42.0469 48.4692 47.9907 42.5254 55.3227 42.5254C62.6547 42.5254 68.5985 48.4692 68.5985 55.8012Z" fill="white" stroke="#0500FF"/>
<path d="M53.4714 61.1338L62.7855 51.8198L61.6298 50.6641L53.5011 58.7928L49.2377 54.5294L48.082 55.6851L52.3454 59.9485L52.3157 59.9781L53.4714 61.1338Z" fill="url(#paint0_linear)"/>
<path d="M58.1433 41.9883L67.4573 32.6743L66.3016 31.5186L58.1729 39.6472L53.9096 35.3839L52.7539 36.5396L57.0172 40.8029L56.9876 40.8326L58.1433 41.9883Z" fill="url(#paint1_linear)"/>
<path d="M32.9245 50.1592L42.2386 40.8452L41.0829 39.6895L32.9542 47.8182L28.6909 43.5548L27.5352 44.7105L31.7985 48.9739L31.7688 49.0035L32.9245 50.1592Z" fill="url(#paint2_linear)"/>
<path d="M85.8262 52.4331L89.7886 56.3955L90.9443 55.2398L86.9819 51.2774L90.9443 47.3151L89.7886 46.1593L85.8262 50.1217L81.6987 45.9941L80.543 47.1498L84.6705 51.2774L80.543 55.405L81.6987 56.5607L85.8262 52.4331Z" fill="url(#paint3_linear)"/>
<ellipse cx="101" cy="14.9655" rx="14" ry="14.9655" fill="white"/>
<path d="M113.837 13.9108C113.837 20.2516 108.697 25.3918 102.356 25.3918C96.0152 25.3918 90.875 20.2516 90.875 13.9108C90.875 7.56993 96.0152 2.42969 102.356 2.42969C108.697 2.42969 113.837 7.56993 113.837 13.9108Z" fill="white" stroke="url(#paint4_linear)"/>
<path d="M101.769 17.7751L108.475 11.0737L107.21 9.80957L101.702 15.3428L98.7211 13.0235L97.6133 14.3212L101.769 17.7751Z" fill="url(#paint5_linear)"/>
</g>
<defs>
<linearGradient id="paint0_linear" x1="59.7581" y1="49.9431" x2="48.5645" y2="61.6529" gradientUnits="userSpaceOnUse">
<stop stop-color="#3CE700"/>
<stop offset="0.567708" stop-color="#0BC91E"/>
</linearGradient>
<linearGradient id="paint1_linear" x1="64.4299" y1="30.7976" x2="53.2363" y2="42.5073" gradientUnits="userSpaceOnUse">
<stop stop-color="#3CE700"/>
<stop offset="0.567708" stop-color="#0BC91E"/>
</linearGradient>
<linearGradient id="paint2_linear" x1="39.2112" y1="38.9685" x2="28.0175" y2="50.6782" gradientUnits="userSpaceOnUse">
<stop stop-color="#3CE700"/>
<stop offset="0.567708" stop-color="#0BC91E"/>
</linearGradient>
<linearGradient id="paint3_linear" x1="88.8027" y1="45.2665" x2="78.0174" y2="53.1748" gradientUnits="userSpaceOnUse">
<stop stop-color="#FF6C4B"/>
<stop offset="0.567708" stop-color="#DD0000"/>
</linearGradient>
<linearGradient id="paint4_linear" x1="109.403" y1="0.279566" x2="84.8318" y2="18.5827" gradientUnits="userSpaceOnUse">
<stop stop-color="#3CE700"/>
<stop offset="0.567708" stop-color="#0BC91E"/>
</linearGradient>
<linearGradient id="paint5_linear" x1="106.239" y1="9.26103" x2="97.715" y2="17.9193" gradientUnits="userSpaceOnUse">
<stop stop-color="#3CE700"/>
<stop offset="0.567708" stop-color="#0BC91E"/>
</linearGradient>
<clipPath id="clip0">
<rect width="115" height="120" fill="white"/>
</clipPath>
</defs>
</svg>
