<svg width="31" height="17" viewBox="0 0 31 17" fill="none" xmlns="http://www.w3.org/2000/svg">
<g clip-path="url(#clip0)">
<path fill-rule="evenodd" clip-rule="evenodd" d="M0.5 7.50339C0.223858 7.50339 -2.26125e-07 7.72725 -2.14055e-07 8.00339C-2.01984e-07 8.27953 0.223858 8.50339 0.5 8.50339L28.5652 8.50339L22.5655 11.9673C22.3264 12.1054 22.2444 12.4112 22.3825 12.6503C22.5206 12.8895 22.8264 12.9714 23.0655 12.8333L30.6281 8.46707C30.7822 8.3781 30.8774 8.21394 30.8781 8.03601C30.8788 7.85807 30.7849 7.69318 30.6315 7.60301L23.0689 3.15767C22.8308 3.01773 22.5244 3.09728 22.3845 3.33534C22.2446 3.5734 22.3241 3.87983 22.5622 4.01976L28.4886 7.50339L0.5 7.50339Z" fill="#595959"/>
</g>
<defs>
<clipPath id="clip0">
<rect width="31" height="16" fill="white" transform="translate(0 0.00292969)"/>
</clipPath>
</defs>
</svg>
