<svg width="61" height="60" viewBox="0 0 61 60" fill="none" xmlns="http://www.w3.org/2000/svg">
<path d="M60.5665 24.9315C60.7576 26.0359 60.8873 27.1609 60.952 28.3029L60.4528 28.3312C60.4841 28.8835 60.5 29.4399 60.5 30C60.5 30.5601 60.4841 31.1165 60.4528 31.6688L60.952 31.6971C60.8873 32.8391 60.7576 33.9641 60.5665 35.0685L60.0738 34.9832C59.8827 36.088 59.6292 37.1717 59.3169 38.2309L59.7964 38.3723C59.4747 39.4635 59.0916 40.529 58.6512 41.5651L58.191 41.3694C57.7543 42.3968 57.2601 43.3947 56.7124 44.3594L57.1472 44.6063C56.5875 45.592 55.9729 46.5435 55.3075 47.4568L54.9034 47.1623C54.2478 48.062 53.5421 48.924 52.7901 49.7443L53.1587 50.0822C52.3947 50.9156 51.5839 51.7066 50.7303 52.4513L50.4016 52.0746C49.5646 52.8048 48.6858 53.4897 47.7691 54.1254L48.054 54.5362C47.127 55.1791 46.162 55.7723 45.1628 56.3121L44.9252 55.8722C43.9504 56.3989 42.9427 56.8738 41.9059 57.2932L42.0934 57.7568C41.051 58.1784 39.9796 58.5449 38.883 58.8526L38.748 58.3712C37.6848 58.6695 36.5975 58.9116 35.4895 59.0939L35.5707 59.5873C34.4652 59.7692 33.3395 59.8927 32.1971 59.9543L32.1701 59.4551C31.6173 59.4849 31.0605 59.5 30.5 59.5C29.9395 59.5 29.3827 59.4849 28.8299 59.4551L28.8029 59.9543C27.6605 59.8927 26.5348 59.7692 25.4293 59.5873L25.5105 59.0939C24.4025 58.9116 23.3152 58.6695 22.252 58.3712L22.117 58.8526C21.0204 58.5449 19.949 58.1784 18.9066 57.7568L19.0941 57.2932C18.0573 56.8738 17.0496 56.3989 16.0748 55.8722L15.8372 56.3121C14.838 55.7723 13.873 55.1791 12.946 54.5363L13.2309 54.1254C12.3142 53.4897 11.4354 52.8048 10.5984 52.0746L10.2697 52.4513C9.41608 51.7066 8.60526 50.9156 7.8413 50.0822L8.20988 49.7443C7.45792 48.924 6.75217 48.062 6.09663 47.1623L5.69252 47.4568C5.0271 46.5435 4.41251 45.592 3.85282 44.6063L4.28762 44.3594C3.73992 43.3947 3.24573 42.3968 2.80897 41.3694L2.34883 41.5651C1.90838 40.529 1.52532 39.4635 1.20356 38.3723L1.68315 38.2309C1.37082 37.1717 1.11726 36.088 0.92615 34.9832L0.433467 35.0685C0.242415 33.9641 0.112729 32.8391 0.0479821 31.6971L0.54718 31.6688C0.515868 31.1165 0.5 30.5601 0.5 30C0.5 29.4399 0.515868 28.8835 0.547181 28.3312L0.0479823 28.3029C0.112729 27.1609 0.242415 26.0359 0.433467 24.9315L0.92615 25.0168C1.11726 23.912 1.37082 22.8283 1.68315 21.7691L1.20356 21.6277C1.52532 20.5365 1.90838 19.471 2.34883 18.4349L2.80897 18.6306C3.24573 17.6032 3.73992 16.6053 4.28762 15.6406L3.85282 15.3937C4.41251 14.408 5.0271 13.4565 5.69252 12.5432L6.09663 12.8377C6.75217 11.938 7.45792 11.076 8.20987 10.2557L7.84129 9.91783C8.60526 9.08441 9.41608 8.29335 10.2697 7.54867L10.5984 7.92544C11.4354 7.19521 12.3142 6.5103 13.2309 5.87463L12.946 5.46375C13.873 4.82094 14.838 4.22767 15.8372 3.68786L16.0748 4.12776C17.0496 3.60111 18.0573 3.12619 19.0941 2.70675L18.9066 2.24324C19.949 1.82157 21.0204 1.45505 22.117 1.14739L22.252 1.6288C23.3152 1.33051 24.4025 1.08844 25.5105 0.906079L25.4293 0.412717C26.5348 0.230752 27.6605 0.107284 28.8029 0.0456559L28.8299 0.54493C29.3827 0.515109 29.9395 0.5 30.5 0.5C31.0605 0.5 31.6173 0.515109 32.1701 0.54493L32.1971 0.0456561C33.3395 0.107284 34.4652 0.230753 35.5707 0.412717L35.4895 0.906079C36.5975 1.08844 37.6848 1.33051 38.748 1.6288L38.883 1.14739C39.9796 1.45505 41.051 1.82157 42.0934 2.24324L41.9059 2.70675C42.9427 3.12619 43.9504 3.60111 44.9252 4.12776L45.1628 3.68786C46.162 4.22767 47.127 4.82094 48.054 5.46375L47.7691 5.87463C48.6858 6.5103 49.5646 7.19521 50.4016 7.92544L50.7303 7.54867C51.5839 8.29335 52.3947 9.08441 53.1587 9.91783L52.7901 10.2557C53.5421 11.076 54.2478 11.938 54.9034 12.8377L55.3075 12.5432C55.9729 13.4565 56.5875 14.408 57.1472 15.3937L56.7124 15.6406C57.2601 16.6053 57.7543 17.6032 58.191 18.6306L58.6512 18.4349C59.0916 19.471 59.4747 20.5365 59.7964 21.6277L59.3169 21.7691C59.6292 22.8283 59.8827 23.912 60.0738 25.0168L60.5665 24.9315Z" stroke="#D1D1D1" stroke-dasharray="3.2 3.2"/>
<path d="M3.72299 3.65262C3.80927 3.07803 4.65188 3.07803 4.73816 3.65262L4.82421 4.22567C4.85727 4.44581 5.03302 4.61868 5.25683 4.65119L5.83943 4.73584C6.42359 4.8207 6.42359 5.6495 5.83943 5.73437L5.25683 5.81901C5.03302 5.85153 4.85727 6.02439 4.82421 6.24453L4.73816 6.81758C4.65188 7.39217 3.80927 7.39217 3.72299 6.81758L3.63693 6.24453C3.60388 6.02439 3.42813 5.85153 3.20432 5.81901L2.62172 5.73437C2.03755 5.6495 2.03755 4.8207 2.62172 4.73584L3.20432 4.65119C3.42813 4.61868 3.60388 4.44581 3.63693 4.22567L3.72299 3.65262Z" fill="#C4C4C4"/>
<ellipse cx="57.3185" cy="4.16128" rx="0.955257" ry="0.939597" fill="#C4C4C4"/>
<ellipse cx="5.18573" cy="55.0333" rx="0.955257" ry="0.939597" fill="#C4C4C4"/>
<ellipse cx="54.7881" cy="57.5173" rx="1.56935" ry="1.54362" fill="#C4C4C4"/>
<ellipse cx="21.9709" cy="16.7785" rx="0.955257" ry="0.939597" fill="#C4C4C4"/>
<ellipse cx="39.8459" cy="41.6105" rx="0.955257" ry="0.939597" fill="#C4C4C4"/>
<mask id="path-8-inside-1" fill="white">
<path d="M52.7687 19.45C52.9813 20.5907 52.1983 21.6385 51.2825 20.9082C49.0395 19.1197 44.9975 13.2926 38.1233 11.481C31.5553 9.75012 25.5071 12.4112 22.4522 13.0564C21.0035 13.3623 20.7067 11.9029 21.7061 10.8268C24.8205 7.47329 32.968 1.78456 40.2427 3.70169C47.7801 5.68803 51.9779 15.2061 52.7687 19.45Z"/>
<path d="M40.4065 51.2331C39.2468 51.4422 38.1815 50.672 38.924 49.7712C40.7423 47.5651 46.6665 43.5893 48.5083 36.8278C50.268 30.3674 47.5625 24.4184 46.9067 21.4136C46.5957 19.9886 48.0794 19.6967 49.1734 20.6797C52.5828 23.743 58.3663 31.7569 56.4173 38.9124C54.3978 46.3262 44.7211 50.4553 40.4065 51.2331Z"/>
<path d="M7.41133 39.8789C7.19879 38.7382 7.98175 37.6904 8.89758 38.4207C11.1405 40.2092 15.1825 46.0363 22.0567 47.8479C28.6248 49.5788 34.6729 46.9176 37.7278 46.2725C39.1766 45.9666 39.4734 47.426 38.474 48.5021C35.3596 51.8556 27.2121 57.5443 19.9373 55.6272C12.4 53.6408 8.20211 44.1228 7.41133 39.8789Z"/>
<path d="M19.7779 7.83239C20.9351 7.62504 21.9986 8.39179 21.2561 9.28907C19.4378 11.4863 13.5135 15.4458 11.6718 22.1799C9.91215 28.6136 12.6172 34.5381 13.2732 37.5309C13.5844 38.9504 12.1029 39.2427 11.0105 38.2659C7.60163 35.2175 1.81299 27.2328 3.7628 20.1037C5.78291 12.7176 15.4654 8.6051 19.7779 7.83239Z"/>
</mask>
<path d="M52.7687 19.45C52.9813 20.5907 52.1983 21.6385 51.2825 20.9082C49.0395 19.1197 44.9975 13.2926 38.1233 11.481C31.5553 9.75012 25.5071 12.4112 22.4522 13.0564C21.0035 13.3623 20.7067 11.9029 21.7061 10.8268C24.8205 7.47329 32.968 1.78456 40.2427 3.70169C47.7801 5.68803 51.9779 15.2061 52.7687 19.45Z" fill="white"/>
<path d="M40.4065 51.2331C39.2468 51.4422 38.1815 50.672 38.924 49.7712C40.7423 47.5651 46.6665 43.5893 48.5083 36.8278C50.268 30.3674 47.5625 24.4184 46.9067 21.4136C46.5957 19.9886 48.0794 19.6967 49.1734 20.6797C52.5828 23.743 58.3663 31.7569 56.4173 38.9124C54.3978 46.3262 44.7211 50.4553 40.4065 51.2331Z" fill="white"/>
<path d="M7.41133 39.8789C7.19879 38.7382 7.98175 37.6904 8.89758 38.4207C11.1405 40.2092 15.1825 46.0363 22.0567 47.8479C28.6248 49.5788 34.6729 46.9176 37.7278 46.2725C39.1766 45.9666 39.4734 47.426 38.474 48.5021C35.3596 51.8556 27.2121 57.5443 19.9373 55.6272C12.4 53.6408 8.20211 44.1228 7.41133 39.8789Z" fill="white"/>
<path d="M19.7779 7.83239C20.9351 7.62504 21.9986 8.39179 21.2561 9.28907C19.4378 11.4863 13.5135 15.4458 11.6718 22.1799C9.91215 28.6136 12.6172 34.5381 13.2732 37.5309C13.5844 38.9504 12.1029 39.2427 11.0105 38.2659C7.60163 35.2175 1.81299 27.2328 3.7628 20.1037C5.78291 12.7176 15.4654 8.6051 19.7779 7.83239Z" fill="white"/>
<path d="M38.1233 11.481L37.8685 12.448L38.1233 11.481ZM40.2427 3.70169L39.9879 4.66868L40.2427 3.70169ZM22.4522 13.0564L22.2456 12.0779L22.4522 13.0564ZM21.7061 10.8268L22.4388 11.5073L21.7061 10.8268ZM51.2825 20.9082L50.659 21.69L50.659 21.69L51.2825 20.9082ZM52.7687 19.45L51.7857 19.6332L52.7687 19.45ZM48.5083 36.8278L49.4731 37.0906L48.5083 36.8278ZM56.4173 38.9124L57.3821 39.1752L56.4173 38.9124ZM46.9067 21.4136L45.9297 21.6268L46.9067 21.4136ZM49.1734 20.6797L48.5051 21.4235L48.5051 21.4235L49.1734 20.6797ZM38.924 49.7712L38.1523 49.1352L38.924 49.7712ZM40.4065 51.2331L40.5839 52.2172L40.4065 51.2331ZM22.0567 47.8479L22.3116 46.8809L22.0567 47.8479ZM19.9373 55.6272L20.1922 54.6602L19.9373 55.6272ZM37.7278 46.2725L37.9344 47.2509L37.7278 46.2725ZM38.474 48.5021L37.7413 47.8216L37.7413 47.8216L38.474 48.5021ZM8.89758 38.4207L9.52103 37.6388L9.52103 37.6388L8.89758 38.4207ZM7.41133 39.8789L6.42825 40.062L7.41133 39.8789ZM11.6718 22.1799L12.6363 22.4437L12.6363 22.4437L11.6718 22.1799ZM3.7628 20.1037L4.72737 20.3676L3.7628 20.1037ZM13.2732 37.5309L12.2964 37.745L13.2732 37.5309ZM11.0105 38.2659L11.6771 37.5204L11.6771 37.5204L11.0105 38.2659ZM21.2561 9.28907L22.0265 9.92662L21.2561 9.28907ZM19.7779 7.83239L19.9542 8.81671L19.7779 7.83239ZM51.9059 20.1263C51.4077 19.729 50.7884 19.0879 49.9644 18.239C49.1625 17.4127 48.2091 16.4358 47.1031 15.4551C44.8914 13.4936 42.0251 11.4751 38.3781 10.514L37.8685 12.448C41.0957 13.2985 43.6876 15.0993 45.7761 16.9514C46.8203 17.8774 47.7276 18.8059 48.5292 19.6319C49.3088 20.4351 50.0358 21.1931 50.659 21.69L51.9059 20.1263ZM38.3781 10.514C34.8968 9.59658 31.5786 9.85008 28.7789 10.3962C27.379 10.6692 26.0987 11.0176 24.992 11.3329C23.8625 11.6547 22.9647 11.9261 22.2456 12.0779L22.6588 14.0348C23.4672 13.8641 24.4711 13.5609 25.54 13.2564C26.6318 12.9453 27.8468 12.6157 29.1618 12.3592C31.7919 11.8462 34.7818 11.6345 37.8685 12.448L38.3781 10.514ZM22.4388 11.5073C23.9134 9.91953 26.6279 7.73509 29.8471 6.18921C33.0751 4.63914 36.6733 3.79518 39.9879 4.66868L40.4975 2.73471C36.5374 1.69108 32.4245 2.73291 28.9814 4.3863C25.5296 6.04388 22.6131 8.38056 20.9733 10.1463L22.4388 11.5073ZM39.9879 4.66868C43.4211 5.57343 46.1778 8.2234 48.2018 11.2812C50.2216 14.3327 51.4158 17.6485 51.7857 19.6332L53.7518 19.2668C53.3308 17.0076 52.0308 13.4425 49.8696 10.1773C47.7126 6.91853 44.6017 3.81629 40.4975 2.73471L39.9879 4.66868ZM22.2456 12.0779C22.0417 12.121 21.9986 12.0772 22.0398 12.0983C22.0596 12.1085 22.0826 12.1263 22.1012 12.1499C22.1189 12.1723 22.1235 12.1882 22.1234 12.1878C22.1218 12.1822 22.1069 12.1116 22.1503 11.9751C22.1921 11.8435 22.281 11.6772 22.4388 11.5073L20.9733 10.1463C20.315 10.8551 19.9457 11.8367 20.1988 12.7319C20.332 13.203 20.641 13.6289 21.128 13.8784C21.6011 14.1207 22.1384 14.1447 22.6588 14.0348L22.2456 12.0779ZM50.659 21.69C51.034 21.9891 51.4938 22.1805 51.998 22.1466C52.5023 22.1127 52.9085 21.8627 53.19 21.5519C53.7271 20.9588 53.9021 20.0736 53.7518 19.2668L51.7857 19.6332C51.8139 19.7847 51.807 19.9241 51.7812 20.034C51.7544 20.1486 51.715 20.2012 51.7075 20.2095C51.7053 20.2119 51.7574 20.1582 51.8639 20.1511C51.9704 20.1439 51.9889 20.1925 51.9059 20.1263L50.659 21.69ZM39.6957 50.4072C40.0992 49.9176 40.7509 49.3085 41.6141 48.4979C42.4541 47.7092 43.4473 46.7714 44.4445 45.6835C46.438 43.5086 48.4938 40.6861 49.4731 37.0906L47.5434 36.565C46.6811 39.731 44.8538 42.2771 42.9702 44.3321C42.0288 45.359 41.0849 46.2514 40.2451 47.0399C39.4287 47.8065 38.6579 48.5218 38.1523 49.1352L39.6957 50.4072ZM49.4731 37.0906C50.4084 33.6571 50.1496 30.3851 49.5936 27.6272C49.3156 26.2483 48.961 24.9876 48.6404 23.8988C48.3128 22.7864 48.0376 21.9056 47.8837 21.2003L45.9297 21.6268C46.1037 22.424 46.4126 23.4136 46.7218 24.4637C47.0379 25.5373 47.3727 26.731 47.6331 28.0225C48.1538 30.6054 48.3679 33.5381 47.5434 36.565L49.4731 37.0906ZM48.5051 21.4235C50.1197 22.8743 52.3392 25.5432 53.909 28.7061C55.4836 31.8785 56.3361 35.4053 55.4524 38.6496L57.3821 39.1752C58.4475 35.2641 57.3827 31.2061 55.7005 27.8169C54.0135 24.4181 51.6365 21.5484 49.8418 19.9358L48.5051 21.4235ZM55.4524 38.6496C54.5359 42.0142 51.8475 44.7248 48.7333 46.7191C45.6288 48.7072 42.2533 49.884 40.229 50.249L40.5839 52.2172C42.8743 51.8043 46.4945 50.5277 49.8118 48.4034C53.1195 46.2853 56.2791 43.2244 57.3821 39.1752L55.4524 38.6496ZM47.8837 21.2003C47.8417 21.0082 47.886 20.9775 47.8596 21.0274C47.8271 21.0887 47.7747 21.1088 47.777 21.1082C47.7932 21.1038 47.8749 21.0904 48.02 21.1351C48.16 21.1781 48.3319 21.2679 48.5051 21.4235L49.8418 19.9358C49.1206 19.2879 48.1368 18.9363 47.2493 19.1791C46.7827 19.3067 46.3494 19.6055 46.092 20.0916C45.8407 20.5663 45.8161 21.1065 45.9297 21.6268L47.8837 21.2003ZM38.1523 49.1352C37.8477 49.5048 37.6462 49.9661 37.6817 50.4783C37.7173 50.9902 37.9789 51.3954 38.293 51.6705C38.8911 52.1946 39.7778 52.3625 40.5839 52.2172L40.229 50.249C40.0686 50.2779 39.9201 50.2709 39.8019 50.2442C39.6786 50.2163 39.6208 50.1749 39.6109 50.1662C39.6065 50.1623 39.6685 50.2191 39.6769 50.3398C39.6853 50.4608 39.6291 50.488 39.6957 50.4072L38.1523 49.1352ZM8.27413 39.2026C8.77235 39.5998 9.39169 40.2409 10.2156 41.0899C11.0176 41.9162 11.971 42.893 13.0769 43.8738C15.2887 45.8352 18.1549 47.8538 21.8019 48.8149L22.3116 46.8809C19.0843 46.0304 16.4925 44.2296 14.4039 42.3775C13.3597 41.4514 12.4525 40.523 11.6509 39.697C10.8713 38.8938 10.1443 38.1358 9.52103 37.6388L8.27413 39.2026ZM21.8019 48.8149C25.2832 49.7323 28.6015 49.4788 31.4011 48.9327C32.8011 48.6596 34.0813 48.3113 35.188 47.996C36.3176 47.6742 37.2154 47.4028 37.9344 47.2509L37.5212 45.2941C36.7128 45.4648 35.709 45.768 34.6401 46.0725C33.5483 46.3835 32.3332 46.7132 31.0183 46.9697C28.3881 47.4827 25.3983 47.6943 22.3116 46.8809L21.8019 48.8149ZM37.7413 47.8216C36.2667 49.4094 33.5521 51.5938 30.3329 53.1397C27.105 54.6897 23.5068 55.5337 20.1922 54.6602L19.6825 56.5942C23.6427 57.6378 27.7556 56.596 31.1987 54.9426C34.6505 53.285 37.5669 50.9483 39.2068 49.1826L37.7413 47.8216ZM20.1922 54.6602C16.759 53.7554 14.0022 51.1055 11.9783 48.0477C9.95849 44.9962 8.76422 41.6804 8.39441 39.6957L6.42825 40.062C6.84922 42.3213 8.14928 45.8864 10.3105 49.1516C12.4675 52.4103 15.5783 55.5126 19.6825 56.5942L20.1922 54.6602ZM37.9344 47.2509C38.1384 47.2079 38.1815 47.2517 38.1402 47.2305C38.1204 47.2204 38.0974 47.2026 38.0788 47.179C38.0612 47.1566 38.0566 47.1407 38.0567 47.1411C38.0583 47.1467 38.0731 47.2173 38.0297 47.3538C37.9879 47.4854 37.8991 47.6517 37.7413 47.8216L39.2068 49.1826C39.865 48.4738 40.2343 47.4921 39.9812 46.597C39.848 46.1259 39.5391 45.7 39.052 45.4505C38.5789 45.2081 38.0417 45.1842 37.5212 45.2941L37.9344 47.2509ZM9.52103 37.6388C9.14605 37.3398 8.68628 37.1484 8.18208 37.1823C7.67776 37.2162 7.27151 37.4661 6.99006 37.777C6.453 38.3701 6.27792 39.2553 6.42825 40.062L8.39441 39.6957C8.36618 39.5442 8.3731 39.4048 8.39882 39.2949C8.42563 39.1802 8.4651 39.1277 8.47257 39.1194C8.47477 39.117 8.4227 39.1706 8.31613 39.1778C8.20967 39.1849 8.1912 39.1364 8.27413 39.2026L9.52103 37.6388ZM20.4857 8.65151C20.0823 9.13901 19.4308 9.74546 18.5674 10.5528C17.7275 11.3383 16.7342 12.2724 15.7369 13.356C13.7434 15.522 11.687 18.3338 10.7072 21.9161L12.6363 22.4437C13.4983 19.292 15.3249 16.757 17.2085 14.7104C18.1498 13.6876 19.0937 12.7989 19.9335 12.0136C20.7499 11.2502 21.5208 10.5377 22.0265 9.92662L20.4857 8.65151ZM10.7072 21.9161C9.77157 25.337 10.0304 28.5969 10.5865 31.3441C10.8645 32.7177 11.2192 33.9735 11.5398 35.0579C11.8674 36.166 12.1425 37.0428 12.2964 37.745L14.2501 37.3167C14.0759 36.5225 13.7669 35.5364 13.4577 34.4909C13.1416 33.4217 12.807 32.2332 12.5467 30.9473C12.0262 28.3757 11.8123 25.4565 12.6363 22.4437L10.7072 21.9161ZM11.6771 37.5204C10.0629 36.077 7.84273 33.4191 6.27208 30.2689C4.69661 27.109 3.84405 23.5973 4.72737 20.3676L2.79823 19.8399C1.73174 23.7393 2.79859 27.7845 4.48221 31.1613C6.17065 34.5478 8.54923 37.4064 10.3439 39.0113L11.6771 37.5204ZM4.72737 20.3676C5.64355 17.0177 8.33226 14.3179 11.4483 12.3312C14.5541 10.351 17.9307 9.17928 19.9542 8.81671L19.6015 6.84806C17.3125 7.2582 13.6916 8.52906 10.3731 10.6448C7.06473 12.7541 3.90215 15.8037 2.79823 19.8399L4.72737 20.3676ZM12.2964 37.745C12.3382 37.9353 12.294 37.9646 12.321 37.9137C12.3538 37.8518 12.4064 37.8319 12.4036 37.8326C12.3871 37.8372 12.3054 37.8505 12.1606 37.8063C12.0209 37.7637 11.8495 37.6746 11.6771 37.5204L10.3439 39.0113C11.065 39.6561 12.0476 40.0042 12.9328 39.7614C13.3981 39.6337 13.831 39.3356 14.0882 38.8501C14.3396 38.3758 14.3639 37.8361 14.2501 37.3167L12.2964 37.745ZM22.0265 9.92662C22.3313 9.55834 22.5339 9.09771 22.4988 8.5853C22.4636 8.07315 22.2016 7.6683 21.8878 7.39382C21.2905 6.8713 20.4054 6.70402 19.6015 6.84806L19.9542 8.81671C20.1144 8.78802 20.2628 8.79499 20.3808 8.82169C20.504 8.84957 20.5615 8.89082 20.571 8.89916C20.5749 8.90261 20.5119 8.84473 20.5035 8.72222C20.495 8.59946 20.5522 8.57116 20.4857 8.65151L22.0265 9.92662Z" fill="#0500FF" mask="url(#path-8-inside-1)"/>
<ellipse cx="34.4426" cy="14.4291" rx="6.79802" ry="6.68595" fill="white"/>
<path d="M38.5561 14.4295C38.5561 16.6528 36.7212 18.4693 34.4402 18.4693C32.1591 18.4693 30.3242 16.6528 30.3242 14.4295C30.3242 12.2062 32.1591 10.3896 34.4402 10.3896C36.7212 10.3896 38.5561 12.2062 38.5561 14.4295Z" fill="white" stroke="#0500FF"/>
<ellipse cx="45.5112" cy="33.2061" rx="6.68658" ry="6.79738" transform="rotate(90 45.5112 33.2061)" fill="white"/>
<path d="M45.5095 37.2466C43.2288 37.2466 41.394 35.4299 41.394 33.2063C41.394 30.9826 43.2288 29.166 45.5095 29.166C47.7902 29.166 49.625 30.9826 49.625 33.2063C49.625 35.4299 47.7902 37.2466 45.5095 37.2466Z" fill="white" stroke="#0500FF"/>
<ellipse cx="25.741" cy="44.899" rx="6.79802" ry="6.68595" transform="rotate(-180 25.741 44.899)" fill="white"/>
<path d="M21.6236 44.8996C21.6236 42.6763 23.4585 40.8598 25.7395 40.8598C28.0206 40.8598 29.8555 42.6763 29.8555 44.8996C29.8555 47.123 28.0206 48.9395 25.7395 48.9395C23.4585 48.9395 21.6236 47.1229 21.6236 44.8996Z" fill="white" stroke="#0500FF"/>
<ellipse cx="14.6685" cy="25.7869" rx="6.6594" ry="6.79739" transform="rotate(-90 14.6685 25.7869)" fill="white"/>
<path d="M14.6702 21.765C16.9528 21.765 18.7857 23.5752 18.7857 25.7868C18.7857 27.9983 16.9528 29.8086 14.6702 29.8086C12.3875 29.8086 10.5547 27.9983 10.5547 25.7868C10.5547 23.5752 12.3875 21.765 14.6702 21.765Z" fill="white" stroke="#0500FF"/>
<ellipse opacity="0.15" cx="29.7499" cy="29.9325" rx="8.46085" ry="8.32215" fill="url(#paint0_linear)"/>
<defs>
<linearGradient id="paint0_linear" x1="34.7266" y1="20.4642" x2="17.5802" y2="33.4493" gradientUnits="userSpaceOnUse">
<stop stop-color="#3CE700"/>
<stop offset="0.567708" stop-color="#0BC91E"/>
</linearGradient>
</defs>
</svg>
