<svg width="61" height="60" viewBox="0 0 61 60" fill="none" xmlns="http://www.w3.org/2000/svg">
<path d="M60.5665 24.9315C60.7576 26.0359 60.8873 27.1609 60.952 28.3029L60.4528 28.3312C60.4841 28.8835 60.5 29.4399 60.5 30C60.5 30.5601 60.4841 31.1165 60.4528 31.6688L60.952 31.6971C60.8873 32.8391 60.7576 33.9641 60.5665 35.0685L60.0738 34.9832C59.8827 36.088 59.6292 37.1717 59.3169 38.2309L59.7964 38.3723C59.4747 39.4635 59.0916 40.529 58.6512 41.5651L58.191 41.3694C57.7543 42.3968 57.2601 43.3947 56.7124 44.3594L57.1472 44.6063C56.5875 45.592 55.9729 46.5435 55.3075 47.4568L54.9034 47.1623C54.2478 48.062 53.5421 48.924 52.7901 49.7443L53.1587 50.0822C52.3947 50.9156 51.5839 51.7066 50.7303 52.4513L50.4016 52.0746C49.5646 52.8048 48.6858 53.4897 47.7691 54.1254L48.054 54.5362C47.127 55.1791 46.162 55.7723 45.1628 56.3121L44.9252 55.8722C43.9504 56.3989 42.9427 56.8738 41.9059 57.2932L42.0934 57.7568C41.051 58.1784 39.9796 58.5449 38.883 58.8526L38.748 58.3712C37.6848 58.6695 36.5975 58.9116 35.4895 59.0939L35.5707 59.5873C34.4652 59.7692 33.3395 59.8927 32.1971 59.9543L32.1701 59.4551C31.6173 59.4849 31.0605 59.5 30.5 59.5C29.9395 59.5 29.3827 59.4849 28.8299 59.4551L28.8029 59.9543C27.6605 59.8927 26.5348 59.7692 25.4293 59.5873L25.5105 59.0939C24.4025 58.9116 23.3152 58.6695 22.252 58.3712L22.117 58.8526C21.0204 58.5449 19.949 58.1784 18.9066 57.7568L19.0941 57.2932C18.0573 56.8738 17.0496 56.3989 16.0748 55.8722L15.8372 56.3121C14.838 55.7723 13.873 55.1791 12.946 54.5363L13.2309 54.1254C12.3142 53.4897 11.4354 52.8048 10.5984 52.0746L10.2697 52.4513C9.41608 51.7066 8.60526 50.9156 7.8413 50.0822L8.20988 49.7443C7.45792 48.924 6.75217 48.062 6.09663 47.1623L5.69252 47.4568C5.0271 46.5435 4.41251 45.592 3.85282 44.6063L4.28762 44.3594C3.73992 43.3947 3.24573 42.3968 2.80897 41.3694L2.34883 41.5651C1.90838 40.529 1.52532 39.4635 1.20356 38.3723L1.68315 38.2309C1.37082 37.1717 1.11726 36.088 0.92615 34.9832L0.433467 35.0685C0.242415 33.9641 0.112729 32.8391 0.0479821 31.6971L0.54718 31.6688C0.515868 31.1165 0.5 30.5601 0.5 30C0.5 29.4399 0.515868 28.8835 0.547181 28.3312L0.0479823 28.3029C0.112729 27.1609 0.242415 26.0359 0.433467 24.9315L0.92615 25.0168C1.11726 23.912 1.37082 22.8283 1.68315 21.7691L1.20356 21.6277C1.52532 20.5365 1.90838 19.471 2.34883 18.4349L2.80897 18.6306C3.24573 17.6032 3.73992 16.6053 4.28762 15.6406L3.85282 15.3937C4.41251 14.408 5.0271 13.4565 5.69252 12.5432L6.09663 12.8377C6.75217 11.938 7.45792 11.076 8.20987 10.2557L7.84129 9.91783C8.60526 9.08441 9.41608 8.29335 10.2697 7.54867L10.5984 7.92544C11.4354 7.19521 12.3142 6.5103 13.2309 5.87463L12.946 5.46375C13.873 4.82094 14.838 4.22767 15.8372 3.68786L16.0748 4.12776C17.0496 3.60111 18.0573 3.12619 19.0941 2.70675L18.9066 2.24324C19.949 1.82157 21.0204 1.45505 22.117 1.14739L22.252 1.6288C23.3152 1.33051 24.4025 1.08844 25.5105 0.906079L25.4293 0.412717C26.5348 0.230752 27.6605 0.107284 28.8029 0.0456559L28.8299 0.54493C29.3827 0.515109 29.9395 0.5 30.5 0.5C31.0605 0.5 31.6173 0.515109 32.1701 0.54493L32.1971 0.0456561C33.3395 0.107284 34.4652 0.230753 35.5707 0.412717L35.4895 0.906079C36.5975 1.08844 37.6848 1.33051 38.748 1.6288L38.883 1.14739C39.9796 1.45505 41.051 1.82157 42.0934 2.24324L41.9059 2.70675C42.9427 3.12619 43.9504 3.60111 44.9252 4.12776L45.1628 3.68786C46.162 4.22767 47.127 4.82094 48.054 5.46375L47.7691 5.87463C48.6858 6.5103 49.5646 7.19521 50.4016 7.92544L50.7303 7.54867C51.5839 8.29335 52.3947 9.08441 53.1587 9.91783L52.7901 10.2557C53.5421 11.076 54.2478 11.938 54.9034 12.8377L55.3075 12.5432C55.9729 13.4565 56.5875 14.408 57.1472 15.3937L56.7124 15.6406C57.2601 16.6053 57.7543 17.6032 58.191 18.6306L58.6512 18.4349C59.0916 19.471 59.4747 20.5365 59.7964 21.6277L59.3169 21.7691C59.6292 22.8283 59.8827 23.912 60.0738 25.0168L60.5665 24.9315Z" stroke="#D1D1D1" stroke-dasharray="3.2 3.2"/>
<ellipse opacity="0.15" cx="30.4995" cy="30.0003" rx="20.2651" ry="19.9329" fill="url(#paint0_linear)"/>
<path d="M55.9925 55.4641C56.0788 54.8896 56.9214 54.8896 57.0077 55.4641L57.0937 56.0372C57.1268 56.2573 57.3025 56.4302 57.5264 56.4627L58.109 56.5474C58.6931 56.6322 58.6931 57.461 58.109 57.5459L57.5264 57.6305C57.3025 57.663 57.1268 57.8359 57.0937 58.0561L57.0077 58.6291C56.9214 59.2037 56.0788 59.2037 55.9925 58.6291L55.9065 58.0561C55.8734 57.8359 55.6977 57.663 55.4738 57.6305L54.8912 57.5459C54.3071 57.461 54.3071 56.6322 54.8912 56.5474L55.4738 56.4627C55.6977 56.4302 55.8734 56.2573 55.9065 56.0372L55.9925 55.4641Z" fill="#C4C4C4"/>
<path d="M4.3667 3.10371C4.50439 2.18678 5.84902 2.18679 5.98671 3.10371L6.12403 4.01817C6.17678 4.36948 6.45724 4.64533 6.8144 4.69722L7.7441 4.83229C8.67631 4.96772 8.67631 6.29031 7.7441 6.42574L6.8144 6.56081C6.45724 6.6127 6.17678 6.88855 6.12403 7.23986L5.98671 8.15432C5.84902 9.07125 4.50439 9.07125 4.3667 8.15432L4.22938 7.23986C4.17663 6.88855 3.89618 6.6127 3.53902 6.56081L2.60931 6.42574C1.6771 6.29031 1.67711 4.96772 2.60931 4.83229L3.53902 4.69722C3.89618 4.64533 4.17663 4.36948 4.22938 4.01817L4.3667 3.10371Z" fill="#C4C4C4"/>
<path d="M6.72689 28.6184C6.81317 28.0439 7.65579 28.0439 7.74207 28.6184L7.82812 29.1915C7.86118 29.4116 8.03692 29.5845 8.26074 29.617L8.84334 29.7017C9.4275 29.7865 9.4275 30.6153 8.84334 30.7002L8.26074 30.7848C8.03692 30.8173 7.86118 30.9902 7.82812 31.2104L7.74207 31.7834C7.65579 32.358 6.81317 32.358 6.72689 31.7834L6.64084 31.2104C6.60778 30.9902 6.43204 30.8173 6.20822 30.7848L5.62562 30.7002C5.04146 30.6153 5.04146 29.7865 5.62562 29.7017L6.20822 29.617C6.43204 29.5845 6.60778 29.4116 6.64084 29.1915L6.72689 28.6184Z" fill="#C4C4C4"/>
<ellipse cx="2.86541" cy="54.0939" rx="0.955257" ry="0.939597" fill="#C4C4C4"/>
<ellipse cx="59.4982" cy="4.42983" rx="0.955257" ry="0.939597" fill="#C4C4C4"/>
<ellipse cx="24.4951" cy="52.819" rx="1.56935" ry="1.54362" fill="#C4C4C4"/>
<ellipse cx="38.2092" cy="6.71108" rx="0.955257" ry="0.939597" fill="#C4C4C4"/>
<mask id="path-10-inside-1" fill="white">
<path fill-rule="evenodd" clip-rule="evenodd" d="M16.1006 46.1084C17.2708 46.4932 18.6218 46.7126 20.0606 46.7126C21.4973 46.7126 22.8465 46.4938 24.0156 46.1101C23.8101 43.7337 22.1166 41.8799 20.058 41.8799C17.9999 41.8799 16.3067 43.7328 16.1006 46.1084Z"/>
</mask>
<path fill-rule="evenodd" clip-rule="evenodd" d="M16.1006 46.1084C17.2708 46.4932 18.6218 46.7126 20.0606 46.7126C21.4973 46.7126 22.8465 46.4938 24.0156 46.1101C23.8101 43.7337 22.1166 41.8799 20.058 41.8799C17.9999 41.8799 16.3067 43.7328 16.1006 46.1084Z" fill="white"/>
<path d="M16.1006 46.1084L15.7882 47.0584L15.0358 46.8111L15.1043 46.022L16.1006 46.1084ZM24.0156 46.1101L25.0119 46.0239L25.0802 46.8132L24.3275 47.0602L24.0156 46.1101ZM16.4129 45.1585C17.4761 45.508 18.7211 45.7126 20.0606 45.7126V47.7126C18.5225 47.7126 17.0655 47.4783 15.7882 47.0584L16.4129 45.1585ZM20.0606 45.7126C21.3982 45.7126 22.6416 45.5086 23.7038 45.16L24.3275 47.0602C23.0515 47.479 21.5965 47.7126 20.0606 47.7126V45.7126ZM23.0193 46.1963C22.8455 44.1864 21.4594 42.8799 20.058 42.8799V40.8799C22.7738 40.8799 24.7747 43.2809 25.0119 46.0239L23.0193 46.1963ZM20.058 42.8799C18.6569 42.8799 17.2712 44.1858 17.0968 46.1949L15.1043 46.022C15.3423 43.2798 17.3428 40.8799 20.058 40.8799V42.8799Z" fill="#D1D1D1" mask="url(#path-10-inside-1)"/>
<path fill-rule="evenodd" clip-rule="evenodd" d="M21.4342 29.3822C21.7331 28.8612 21.5496 28.2027 21.0245 27.9112C20.4994 27.6198 19.8315 27.8058 19.5326 28.3267L17.597 31.7009V31.7009C17.1743 32.4376 17.4 33.6605 17.1982 34.4857C17.1418 34.7164 17.1082 34.9557 17.0999 35.2007L17.0072 37.9379C16.9955 38.2837 17.0286 38.6295 17.1059 38.9667L17.28 39.7268C17.3376 39.978 17.422 40.2156 17.5294 40.4374C17.7029 40.7959 17.7378 41.2139 17.7378 41.6122V41.6122C17.7378 42.5017 18.459 43.2229 19.3486 43.2229H20.7669C20.8778 43.2229 20.9861 43.2117 21.0907 43.1903C22.3702 42.9293 23.1755 41.3797 23.6363 40.1579V40.1579L24.2231 38.6021C24.49 37.8946 24.5508 37.126 24.3986 36.3854L24.0346 34.614C23.8562 33.7461 23.3709 33.0191 22.7147 32.5236C21.805 31.8367 20.867 30.371 21.4342 29.3822V29.3822Z" fill="white"/>
<path d="M19.5326 28.3267L19.9663 28.5755L19.9663 28.5755L19.5326 28.3267ZM17.0999 35.2007L17.5996 35.2177L17.5996 35.2177L17.0999 35.2007ZM17.0072 37.9379L17.5069 37.9548L17.5069 37.9548L17.0072 37.9379ZM17.1059 38.9667L17.5933 38.855L17.5933 38.855L17.1059 38.9667ZM17.28 39.7268L17.7674 39.6151L17.7674 39.6151L17.28 39.7268ZM24.2231 38.6021L23.7553 38.4257L23.7553 38.4257L24.2231 38.6021ZM24.3986 36.3854L23.9088 36.486L23.9088 36.486L24.3986 36.3854ZM24.0346 34.614L23.5448 34.7147L23.5448 34.7147L24.0346 34.614ZM17.5294 40.4374L17.9794 40.2196L17.5294 40.4374ZM21.2672 27.474C22.0361 27.9008 22.3056 28.8681 21.8679 29.631L21.0005 29.1334C21.1606 28.8543 21.0631 28.5045 20.7819 28.3484L21.2672 27.474ZM19.0989 28.0779C19.5338 27.3199 20.503 27.0499 21.2672 27.474L20.7819 28.3484C20.4958 28.1896 20.1291 28.2917 19.9663 28.5755L19.0989 28.0779ZM17.1633 31.4521L19.0989 28.0779L19.9663 28.5755L18.0307 31.9497L17.1633 31.4521ZM16.6002 35.1838C16.6097 34.9042 16.648 34.6308 16.7125 34.3669L17.6839 34.6044C17.6356 34.8021 17.6068 35.0073 17.5996 35.2177L16.6002 35.1838ZM16.5075 37.921L16.6002 35.1838L17.5996 35.2177L17.5069 37.9548L16.5075 37.921ZM16.6185 39.0783C16.5316 38.699 16.4943 38.3099 16.5075 37.921L17.5069 37.9548C17.4966 38.2574 17.5257 38.56 17.5933 38.855L16.6185 39.0783ZM16.7927 39.8384L16.6185 39.0783L17.5933 38.855L17.7674 39.6151L16.7927 39.8384ZM17.0793 40.6553C16.9556 40.3998 16.8587 40.1265 16.7927 39.8384L17.7674 39.6151C17.8165 39.8294 17.8883 40.0314 17.9794 40.2196L17.0793 40.6553ZM18.2378 41.6122C18.2378 42.2256 18.7351 42.7229 19.3486 42.7229V43.7229C18.1829 43.7229 17.2378 42.7779 17.2378 41.6122H18.2378ZM19.3486 42.7229H20.7669V43.7229H19.3486V42.7229ZM20.7669 42.7229C20.8441 42.7229 20.9188 42.7151 20.9907 42.7004L21.1906 43.6803C21.0533 43.7083 20.9116 43.7229 20.7669 43.7229V42.7229ZM24.691 38.7786L24.1042 40.3343L23.1685 39.9814L23.7553 38.4257L24.691 38.7786ZM24.8884 36.2847C25.0596 37.118 24.9911 37.9826 24.691 38.7786L23.7553 38.4257C23.9888 37.8066 24.042 37.1341 23.9088 36.486L24.8884 36.2847ZM24.5244 34.5134L24.8884 36.2847L23.9088 36.486L23.5448 34.7147L24.5244 34.5134ZM23.016 32.1246C23.7655 32.6905 24.3206 33.5219 24.5244 34.5134L23.5448 34.7147C23.3918 33.9702 22.9763 33.3476 22.4135 32.9226L23.016 32.1246ZM22.4135 32.9226C21.8985 32.5338 21.3838 31.9344 21.0701 31.283C20.7624 30.644 20.5969 29.837 21.0005 29.1334L21.8679 29.631C21.7043 29.9162 21.7242 30.3363 21.9711 30.8492C22.212 31.3495 22.6212 31.8265 23.016 32.1246L22.4135 32.9226ZM20.9907 42.7004C21.4567 42.6054 21.8827 42.2646 22.2669 41.7392C22.6476 41.2188 22.9452 40.5735 23.1685 39.9814L24.1042 40.3343C23.8666 40.9642 23.5312 41.7045 23.0741 42.3296C22.6206 42.9497 22.0042 43.5143 21.1906 43.6803L20.9907 42.7004ZM17.9794 40.2196C18.2042 40.684 18.2378 41.1969 18.2378 41.6122H17.2378C17.2378 41.2309 17.2015 40.9078 17.0793 40.6553L17.9794 40.2196ZM18.0307 31.9497C17.8872 32.1999 17.8363 32.5737 17.8143 33.0817C17.7948 33.5348 17.8003 34.1286 17.6839 34.6044L16.7125 34.3669C16.798 34.0176 16.7915 33.5874 16.8153 33.0386C16.8366 32.5447 16.8842 31.9386 17.1633 31.4521L18.0307 31.9497Z" fill="#D1D1D1"/>
<rect width="2.72931" height="16.9128" transform="matrix(-1 0 0 1 22.6523 23.8936)" fill="#0500FF"/>
<rect width="2.14879" height="6.1378" rx="1.07439" transform="matrix(-0.180149 -0.983639 -0.984662 0.174472 25.5039 32.9521)" fill="white" stroke="#D1D1D1"/>
<rect width="2.14879" height="6.1378" rx="1.07439" transform="matrix(-0.180149 -0.983639 -0.984662 0.174472 25.3516 35.1611)" fill="white" stroke="#D1D1D1"/>
<rect width="2.14879" height="4.77384" rx="1.07439" transform="matrix(-0.180149 -0.983639 -0.984662 0.174472 24.9375 37.418)" fill="white" stroke="#D1D1D1"/>
<rect width="2.14879" height="3.40989" rx="1.07439" transform="matrix(-0.180149 -0.983639 -0.984662 0.174472 24.3789 39.6982)" fill="white" stroke="#D1D1D1"/>
<path d="M14.1471 19.0611C14.1471 23.151 17.5202 26.4805 21.6985 26.4805C25.8769 26.4805 29.25 23.151 29.25 19.0611C29.25 14.9712 25.8769 11.6416 21.6985 11.6416C17.5202 11.6416 14.1471 14.9712 14.1471 19.0611Z" fill="white" stroke="#0500FF"/>
<path d="M20.6187 22.1273L26.0624 16.7728L25.3869 16.1084L20.636 20.7814L18.1442 18.3305L17.4688 18.9949L19.9605 21.4458L19.9432 21.4629L20.6187 22.1273Z" fill="url(#paint1_linear)"/>
<mask id="path-21-inside-2" fill="white">
<path fill-rule="evenodd" clip-rule="evenodd" d="M38.2099 44.6319C39.3802 45.0166 40.7312 45.2361 42.17 45.2361C43.6067 45.2361 44.9559 45.0172 46.125 44.6335C45.9195 42.2571 44.226 40.4033 42.1674 40.4033C40.1092 40.4033 38.4161 42.2562 38.2099 44.6319Z"/>
</mask>
<path fill-rule="evenodd" clip-rule="evenodd" d="M38.2099 44.6319C39.3802 45.0166 40.7312 45.2361 42.17 45.2361C43.6067 45.2361 44.9559 45.0172 46.125 44.6335C45.9195 42.2571 44.226 40.4033 42.1674 40.4033C40.1092 40.4033 38.4161 42.2562 38.2099 44.6319Z" fill="white"/>
<path d="M38.2099 44.6319L37.8976 45.5819L37.1452 45.3345L37.2137 44.5454L38.2099 44.6319ZM46.125 44.6335L47.1213 44.5474L47.1895 45.3366L46.4368 45.5837L46.125 44.6335ZM38.5222 43.6819C39.5855 44.0314 40.8305 44.2361 42.17 44.2361V46.2361C40.6319 46.2361 39.1749 46.0018 37.8976 45.5819L38.5222 43.6819ZM42.17 44.2361C43.5075 44.2361 44.7509 44.032 45.8132 43.6834L46.4368 45.5837C45.1609 46.0024 43.7059 46.2361 42.17 46.2361V44.2361ZM45.1287 44.7197C44.9549 42.7099 43.5688 41.4033 42.1674 41.4033V39.4033C44.8832 39.4033 46.884 41.8043 47.1213 44.5474L45.1287 44.7197ZM42.1674 41.4033C40.7663 41.4033 39.3806 42.7092 39.2062 44.7183L37.2137 44.5454C37.4517 41.8033 39.4522 39.4033 42.1674 39.4033V41.4033Z" fill="#D1D1D1" mask="url(#path-21-inside-2)"/>
<path fill-rule="evenodd" clip-rule="evenodd" d="M42.3151 26.0102C42.4208 25.4169 42.0251 24.8529 41.4313 24.7504C40.8374 24.648 40.2702 25.0459 40.1644 25.6392L39.4868 29.4402V29.4402C39.3699 30.0961 39.5605 30.9466 39.3606 31.5821C39.2673 31.879 39.2124 32.1921 39.2015 32.5151L39.1087 35.2523C39.097 35.598 39.1302 35.9439 39.2075 36.2811L39.3816 37.0412C39.418 37.2 39.4651 37.3535 39.522 37.5009C39.7768 38.1612 39.8394 38.929 39.8394 39.6367V39.6367V39.8291C39.8394 41.1103 40.8781 42.149 42.1593 42.149C43.4406 42.149 44.4792 41.1103 44.4792 39.8291V39.6367V39.6367C44.4792 39.3131 44.6058 38.9908 44.8467 38.7747C45.2389 38.4228 45.5471 37.9782 45.7379 37.4723L46.3247 35.9165C46.5915 35.209 46.6524 34.4404 46.5002 33.6998L46.1362 31.9284C45.7489 30.044 43.9149 28.8242 42.0273 29.1955V29.1955C41.891 29.2223 41.7631 29.1064 41.7874 28.9696L42.3151 26.0102Z" fill="white"/>
<path d="M41.4313 24.7504L41.3463 25.2432L41.3463 25.2432L41.4313 24.7504ZM42.3151 26.0102L42.8073 26.0979L42.8073 26.0979L42.3151 26.0102ZM40.1644 25.6392L39.6722 25.5515L39.6722 25.5515L40.1644 25.6392ZM39.2015 32.5151L39.7012 32.532L39.7012 32.532L39.2015 32.5151ZM39.1087 35.2523L39.6084 35.2692L39.6084 35.2692L39.1087 35.2523ZM39.2075 36.2811L39.6948 36.1694L39.6948 36.1694L39.2075 36.2811ZM39.3816 37.0412L38.8942 37.1528L38.8942 37.1528L39.3816 37.0412ZM45.7379 37.4723L46.2057 37.6487L46.2057 37.6487L45.7379 37.4723ZM46.3247 35.9165L45.8569 35.74L45.8569 35.74L46.3247 35.9165ZM46.5002 33.6998L46.0104 33.8004L46.0104 33.8004L46.5002 33.6998ZM46.1362 31.9284L45.6464 32.0291L45.6464 32.0291L46.1362 31.9284ZM41.7874 28.9696L41.2952 28.8819L41.7874 28.9696ZM44.8467 38.7747L44.5128 38.4025L44.8467 38.7747ZM41.5162 24.2577C42.3833 24.4073 42.9617 25.2317 42.8073 26.0979L41.8228 25.9224C41.8799 25.6021 41.6669 25.2985 41.3463 25.2432L41.5162 24.2577ZM39.6722 25.5515C39.8262 24.6874 40.6513 24.1085 41.5162 24.2577L41.3463 25.2432C41.0234 25.1875 40.7142 25.4045 40.6567 25.727L39.6722 25.5515ZM38.9945 29.3524L39.6722 25.5515L40.6567 25.727L39.979 29.528L38.9945 29.3524ZM38.7018 32.4982C38.7143 32.1294 38.7769 31.7716 38.8837 31.4321L39.8376 31.7321C39.7576 31.9863 39.7106 32.2547 39.7012 32.532L38.7018 32.4982ZM38.609 35.2354L38.7018 32.4982L39.7012 32.532L39.6084 35.2692L38.609 35.2354ZM38.7201 36.3927C38.6332 36.0134 38.5958 35.6243 38.609 35.2354L39.6084 35.2692C39.5982 35.5718 39.6272 35.8743 39.6948 36.1694L38.7201 36.3927ZM38.8942 37.1528L38.7201 36.3927L39.6948 36.1694L39.869 36.9295L38.8942 37.1528ZM39.0555 37.6809C38.9901 37.5112 38.936 37.335 38.8942 37.1528L39.869 36.9295C39.9 37.0651 39.9402 37.1957 39.9885 37.3209L39.0555 37.6809ZM40.3394 39.6367V39.8291H39.3394V39.6367H40.3394ZM40.3394 39.8291C40.3394 40.8342 41.1542 41.649 42.1593 41.649V42.649C40.6019 42.649 39.3394 41.3865 39.3394 39.8291H40.3394ZM42.1593 41.649C43.1644 41.649 43.9792 40.8342 43.9792 39.8291H44.9792C44.9792 41.3865 43.7167 42.649 42.1593 42.649V41.649ZM43.9792 39.8291V39.6367H44.9792V39.8291H43.9792ZM46.2057 37.6487C45.9863 38.2306 45.6317 38.7421 45.1806 39.1469L44.5128 38.4025C44.8461 38.1034 45.1079 37.7257 45.2701 37.2958L46.2057 37.6487ZM46.7925 36.0929L46.2057 37.6487L45.2701 37.2958L45.8569 35.74L46.7925 36.0929ZM46.9899 33.5991C47.1611 34.4323 47.0927 35.297 46.7925 36.0929L45.8569 35.74C46.0903 35.121 46.1436 34.4485 46.0104 33.8004L46.9899 33.5991ZM46.6259 31.8278L46.9899 33.5991L46.0104 33.8004L45.6464 32.0291L46.6259 31.8278ZM41.9308 28.7049C44.0877 28.2806 46.1834 29.6745 46.6259 31.8278L45.6464 32.0291C45.3144 30.4136 43.7421 29.3677 42.1238 29.6861L41.9308 28.7049ZM42.8073 26.0979L42.2797 29.0574L41.2952 28.8819L41.8228 25.9224L42.8073 26.0979ZM42.1238 29.6861C41.6748 29.7744 41.2034 29.3967 41.2952 28.8819L42.2797 29.0574C42.3227 28.8161 42.1071 28.6702 41.9308 28.7049L42.1238 29.6861ZM43.9792 39.6367C43.9792 39.1895 44.1532 38.7251 44.5128 38.4025L45.1806 39.1469C45.0584 39.2565 44.9792 39.4367 44.9792 39.6367H43.9792ZM39.9885 37.3209C40.2767 38.0678 40.3394 38.9093 40.3394 39.6367H39.3394C39.3394 38.9487 39.2769 38.2545 39.0555 37.6809L39.9885 37.3209ZM39.979 29.528C39.9316 29.7939 39.946 30.1057 39.9547 30.508C39.9626 30.875 39.9655 31.3253 39.8376 31.7321L38.8837 31.4321C38.9556 31.2034 38.9631 30.9107 38.9549 30.5296C38.9475 30.1837 38.925 29.7424 38.9945 29.3524L39.979 29.528Z" fill="#D1D1D1"/>
<rect width="2.72931" height="16.9128" transform="matrix(-1 0 0 1 44.7578 23.8936)" fill="#0500FF"/>
<rect width="2.15264" height="6.12709" rx="1.07632" transform="matrix(-0.3775 -0.92601 -0.93026 0.366901 47.8594 29.2422)" fill="white" stroke="#D1D1D1"/>
<rect width="2.15264" height="6.12709" rx="1.07632" transform="matrix(-0.3775 -0.92601 -0.93026 0.366901 48.168 31.4355)" fill="white" stroke="#D1D1D1"/>
<rect width="2.15264" height="4.76552" rx="1.07632" transform="matrix(-0.3775 -0.92601 -0.93026 0.366901 48.2188 33.7285)" fill="white" stroke="#D1D1D1"/>
<rect width="2.15264" height="3.40394" rx="1.07632" transform="matrix(-0.3775 -0.92601 -0.93026 0.366901 48.1445 36.0713)" fill="white" stroke="#D1D1D1"/>
<path d="M36.2526 19.0611C36.2526 23.151 39.6256 26.4805 43.804 26.4805C47.9824 26.4805 51.3555 23.151 51.3555 19.0611C51.3555 14.9712 47.9824 11.6416 43.804 11.6416C39.6256 11.6416 36.2526 14.9712 36.2526 19.0611Z" fill="white" stroke="#0500FF"/>
<rect width="2.18239" height="4.92228" rx="1.09119" transform="matrix(-0.985448 -0.169975 -0.175514 0.984477 42.5117 24.9355)" fill="white" stroke="#D1D1D1"/>
<rect width="1.21164" height="3.46783" rx="0.605819" transform="matrix(-0.985448 -0.169975 -0.175514 0.984477 41.4141 28.3271)" fill="white"/>
<path d="M43.7559 19.6753L46.0717 21.9532L46.7472 21.2888L44.4313 19.0109L46.7472 16.733L46.0717 16.0686L43.7559 18.3465L41.3434 15.9736L40.668 16.638L43.0804 19.0109L40.668 21.3838L41.3435 22.0482L43.7559 19.6753Z" fill="url(#paint2_linear)"/>
<path d="M32.0703 25.1084L32.9191 24.4331C32.9191 24.4331 33.1654 24.7203 33.3164 24.9098C33.4653 25.0965 33.6872 25.396 33.6872 25.396L32.8427 26.0476L32.0703 25.1084Z" fill="white"/>
<mask id="path-35-inside-3" fill="white">
<path fill-rule="evenodd" clip-rule="evenodd" d="M38.6221 52.2823C37.4518 52.667 36.1009 52.8865 34.662 52.8865C33.2253 52.8865 31.8761 52.6676 30.707 52.2839C30.9126 49.9075 32.606 48.0537 34.6646 48.0537C36.7228 48.0537 38.4159 49.9066 38.6221 52.2823Z"/>
</mask>
<path fill-rule="evenodd" clip-rule="evenodd" d="M38.6221 52.2823C37.4518 52.667 36.1009 52.8865 34.662 52.8865C33.2253 52.8865 31.8761 52.6676 30.707 52.2839C30.9126 49.9075 32.606 48.0537 34.6646 48.0537C36.7228 48.0537 38.4159 49.9066 38.6221 52.2823Z" fill="white"/>
<path d="M38.6221 52.2823L38.9344 53.2323L39.6868 52.9849L39.6184 52.1958L38.6221 52.2823ZM30.707 52.2839L29.7108 52.1978L29.6425 52.987L30.3952 53.2341L30.707 52.2839ZM38.3098 51.3323C37.2466 51.6818 36.0015 51.8865 34.662 51.8865V53.8865C36.2002 53.8865 37.6571 53.6522 38.9344 53.2323L38.3098 51.3323ZM34.662 51.8865C33.3245 51.8865 32.0811 51.6824 31.0189 51.3338L30.3952 53.2341C31.6712 53.6528 33.1261 53.8865 34.662 53.8865V51.8865ZM31.7033 52.3701C31.8772 50.3603 33.2632 49.0537 34.6646 49.0537V47.0537C31.9488 47.0537 29.948 49.4547 29.7108 52.1978L31.7033 52.3701ZM34.6646 49.0537C36.0658 49.0537 37.4515 50.3596 37.6259 52.3687L39.6184 52.1958C39.3804 49.4537 37.3798 47.0537 34.6646 47.0537V49.0537Z" fill="#D1D1D1" mask="url(#path-35-inside-3)"/>
<path fill-rule="evenodd" clip-rule="evenodd" d="M35.345 33.3066C35.345 32.7036 35.8338 32.2148 36.4367 32.2148C37.0397 32.2148 37.5284 32.7036 37.5284 33.3066V37.1634V37.1634C37.5284 37.7973 37.2801 38.6328 37.4693 39.2378C37.5615 39.533 37.6158 39.8441 37.6266 40.1651L37.7194 42.9023C37.7311 43.2481 37.6979 43.5939 37.6207 43.9311L37.4465 44.6912C37.4101 44.85 37.363 45.0035 37.3061 45.1509C37.0514 45.8112 36.9887 46.579 36.9887 47.2867V47.2867V47.4791C36.9887 48.7604 35.9501 49.799 34.6688 49.799C33.3876 49.799 32.3489 48.7604 32.3489 47.4791V47.2867V47.2867C32.3489 46.9631 32.2223 46.6408 31.9814 46.4247C31.5892 46.0728 31.281 45.6282 31.0902 45.1223L30.5034 43.5665C30.2366 42.859 30.1758 42.0904 30.328 41.3498L30.692 39.5785C31.0792 37.694 32.9132 36.4742 34.8008 36.8455V36.8455C35.07 36.8985 35.345 36.7071 35.345 36.4328V33.3066Z" fill="white"/>
<path d="M37.6266 40.1651L37.1269 40.1821L37.1269 40.1821L37.6266 40.1651ZM37.7194 42.9023L37.2197 42.9192L37.2197 42.9192L37.7194 42.9023ZM37.6207 43.9311L37.1333 43.8194L37.1333 43.8194L37.6207 43.9311ZM37.4465 44.6912L37.9339 44.8028L37.9339 44.8028L37.4465 44.6912ZM31.0902 45.1223L30.6224 45.2987L30.6224 45.2987L31.0902 45.1223ZM30.5034 43.5665L30.9713 43.3901L30.9713 43.3901L30.5034 43.5665ZM30.328 41.3498L30.8177 41.4504L30.8177 41.4504L30.328 41.3498ZM30.692 39.5785L31.1817 39.6791L31.1817 39.6791L30.692 39.5785ZM31.9814 46.4247L32.3154 46.0525L31.9814 46.4247ZM36.4367 31.7148C35.5576 31.7148 34.845 32.4275 34.845 33.3066H35.845C35.845 32.9798 36.1099 32.7148 36.4367 32.7148V31.7148ZM38.0284 33.3066C38.0284 32.4275 37.3158 31.7148 36.4367 31.7148V32.7148C36.7635 32.7148 37.0284 32.9798 37.0284 33.3066H38.0284ZM38.0284 37.1634V33.3066H37.0284V37.1634H38.0284ZM38.1263 40.1482C38.1139 39.7818 38.052 39.4262 37.9465 39.0886L36.992 39.387C37.0711 39.6398 37.1176 39.9065 37.1269 40.1821L38.1263 40.1482ZM38.2191 42.8854L38.1263 40.1482L37.1269 40.1821L37.2197 42.9192L38.2191 42.8854ZM38.108 44.0427C38.195 43.6634 38.2323 43.2743 38.2191 42.8854L37.2197 42.9192C37.2299 43.2218 37.2009 43.5244 37.1333 43.8194L38.108 44.0427ZM37.9339 44.8028L38.108 44.0427L37.1333 43.8194L36.9592 44.5795L37.9339 44.8028ZM37.7726 45.3309C37.838 45.1613 37.8922 44.985 37.9339 44.8028L36.9592 44.5795C36.9281 44.7151 36.888 44.8457 36.8396 44.9709L37.7726 45.3309ZM36.4887 47.2867V47.4791H37.4887V47.2867H36.4887ZM36.4887 47.4791C36.4887 48.4842 35.6739 49.299 34.6688 49.299V50.299C36.2262 50.299 37.4887 49.0365 37.4887 47.4791H36.4887ZM34.6688 49.299C33.6637 49.299 32.8489 48.4842 32.8489 47.4791H31.8489C31.8489 49.0365 33.1114 50.299 34.6688 50.299V49.299ZM32.8489 47.4791V47.2867H31.8489V47.4791H32.8489ZM30.6224 45.2987C30.8419 45.8807 31.1964 46.3921 31.6475 46.7969L32.3154 46.0525C31.982 45.7535 31.7202 45.3757 31.558 44.9458L30.6224 45.2987ZM30.0356 43.743L30.6224 45.2987L31.558 44.9458L30.9713 43.3901L30.0356 43.743ZM29.8382 41.2491C29.667 42.0824 29.7354 42.947 30.0356 43.743L30.9713 43.3901C30.7378 42.771 30.6846 42.0985 30.8177 41.4504L29.8382 41.2491ZM30.2022 39.4778L29.8382 41.2491L30.8177 41.4504L31.1817 39.6791L30.2022 39.4778ZM34.8973 36.3549C32.7404 35.9306 30.6447 37.3245 30.2022 39.4778L31.1817 39.6791C31.5137 38.0636 33.086 37.0178 34.7043 37.3361L34.8973 36.3549ZM34.845 33.3066V36.4328H35.845V33.3066H34.845ZM34.7043 37.3361C35.2267 37.4389 35.845 37.0763 35.845 36.4328H34.845C34.845 36.4159 34.8497 36.3981 34.8576 36.3834C34.8649 36.3697 34.8729 36.3626 34.8771 36.3594C34.8831 36.355 34.8888 36.3532 34.8973 36.3549L34.7043 37.3361ZM32.8489 47.2867C32.8489 46.8396 32.6749 46.3751 32.3154 46.0525L31.6475 46.7969C31.7697 46.9065 31.8489 47.0867 31.8489 47.2867H32.8489ZM36.8396 44.9709C36.5515 45.7178 36.4887 46.5594 36.4887 47.2867H37.4887C37.4887 46.5987 37.5513 45.9046 37.7726 45.3309L36.8396 44.9709ZM37.0284 37.1634C37.0284 37.4457 36.9741 37.7476 36.9307 38.1589C36.8919 38.5262 36.864 38.9775 36.992 39.387L37.9465 39.0886C37.8853 38.893 37.8871 38.6241 37.9251 38.264C37.9586 37.9477 38.0284 37.5149 38.0284 37.1634H37.0284Z" fill="#D1D1D1"/>
<rect x="32.0742" y="28.8594" width="2.72931" height="16.9128" fill="#0500FF"/>
<rect width="2.15315" height="6.12569" rx="1.07657" transform="matrix(0.396065 -0.918223 0.922865 0.385123 29.5664 37.5859)" fill="white" stroke="#D1D1D1"/>
<rect width="2.15315" height="6.12569" rx="1.07657" transform="matrix(0.396065 -0.918223 0.922865 0.385123 29.2188 39.7725)" fill="white" stroke="#D1D1D1"/>
<rect width="2.15315" height="4.76443" rx="1.07657" transform="matrix(0.396065 -0.918223 0.922865 0.385123 29.1172 42.0635)" fill="white" stroke="#D1D1D1"/>
<rect width="2.15315" height="3.40316" rx="1.07657" transform="matrix(0.396065 -0.918223 0.922865 0.385123 29.1406 44.4082)" fill="white" stroke="#D1D1D1"/>
<path d="M40.5795 24.0269C40.5795 28.1168 37.2064 31.4463 33.028 31.4463C28.8496 31.4463 25.4766 28.1168 25.4766 24.0269C25.4766 19.937 28.8496 16.6074 33.028 16.6074C37.2064 16.6074 40.5795 19.937 40.5795 24.0269Z" fill="white" stroke="#0500FF"/>
<path d="M31.9468 27.0931L37.3905 21.7386L36.715 21.0742L31.9641 25.7473L29.4723 23.2964L28.7969 23.9608L31.2886 26.4117L31.2713 26.4287L31.9468 27.0931Z" fill="url(#paint3_linear)"/>
<defs>
<linearGradient id="paint0_linear" x1="42.4195" y1="7.32208" x2="1.35116" y2="38.4236" gradientUnits="userSpaceOnUse">
<stop stop-color="#3CE700"/>
<stop offset="0.567708" stop-color="#0BC91E"/>
</linearGradient>
<linearGradient id="paint1_linear" x1="24.293" y1="15.6939" x2="17.8636" y2="22.5318" gradientUnits="userSpaceOnUse">
<stop stop-color="#3CE700"/>
<stop offset="0.567708" stop-color="#0BC91E"/>
</linearGradient>
<linearGradient id="paint2_linear" x1="45.4955" y1="15.5553" x2="39.2651" y2="20.1999" gradientUnits="userSpaceOnUse">
<stop stop-color="#FF6C4B"/>
<stop offset="0.567708" stop-color="#DD0000"/>
</linearGradient>
<linearGradient id="paint3_linear" x1="35.6211" y1="20.6597" x2="29.1918" y2="27.4977" gradientUnits="userSpaceOnUse">
<stop stop-color="#3CE700"/>
<stop offset="0.567708" stop-color="#0BC91E"/>
</linearGradient>
</defs>
</svg>
