<svg width="61" height="60" viewBox="0 0 61 60" fill="none" xmlns="http://www.w3.org/2000/svg">
<path d="M0.184742 26.6792C0.114651 27.3053 0.0641441 27.9371 0.0338402 28.5742L0.533276 28.598C0.511177 29.0625 0.5 29.53 0.5 30C0.5 30.47 0.511173 30.9375 0.533276 31.402L0.0338402 31.4258C0.0641441 32.0629 0.114651 32.6947 0.184742 33.3208L0.681637 33.2652C0.786407 34.201 0.935688 35.1236 1.12733 36.0309L0.63813 36.1342C0.769691 36.757 0.920887 37.3728 1.09105 37.9808L1.57255 37.846C1.82559 38.7502 2.1213 39.6369 2.45744 40.5041L1.99124 40.6848C2.22081 41.2771 2.46891 41.8604 2.73484 42.434L3.18846 42.2237C3.5825 43.0736 4.01638 43.9019 4.48779 44.7064L4.05639 44.9592C4.37705 45.5064 4.71477 46.0427 5.06882 46.5675L5.4833 46.2878C6.00645 47.0632 6.56591 47.8129 7.15931 48.5345L6.7731 48.8521C7.17553 49.3415 7.5933 49.8182 8.02568 50.2815L8.39122 49.9404C9.02861 50.6233 9.69831 51.2767 10.398 51.8981L10.0659 52.272C10.5392 52.6923 11.0259 53.0983 11.5254 53.4892L11.8335 53.0954C12.5683 53.6704 13.3311 54.2122 14.1196 54.7185L13.8494 55.1392C14.3816 55.481 14.9253 55.8068 15.4798 56.116L15.7233 55.6793C16.5369 56.133 17.3742 56.5503 18.2328 56.9291L18.031 57.3866C18.6091 57.6416 19.1967 57.8795 19.7932 58.0995L19.9663 57.6304C20.8385 57.9521 21.7301 58.235 22.6388 58.477L22.5102 58.9601C23.1201 59.1225 23.7375 59.2668 24.362 59.3923L24.4605 58.9021C25.3698 59.0848 26.2942 59.2271 27.2317 59.327L27.1787 59.8242C27.805 59.8909 28.437 59.939 29.074 59.9678L29.0966 59.4683C29.5617 59.4894 30.0296 59.5 30.5 59.5C30.9704 59.5 31.4383 59.4894 31.9034 59.4683L31.926 59.9678C32.563 59.939 33.195 59.8909 33.8213 59.8242L33.7683 59.327C34.7058 59.2271 35.6302 59.0848 36.5395 58.9021L36.638 59.3923C37.2625 59.2668 37.8799 59.1225 38.4898 58.9601L38.3612 58.477C39.2699 58.235 40.1615 57.9521 41.0338 57.6304L41.2068 58.0995C41.8033 57.8795 42.3909 57.6416 42.969 57.3866L42.7672 56.9291C43.6258 56.5503 44.4631 56.133 45.2767 55.6793L45.5202 56.116C46.0747 55.8068 46.6184 55.481 47.1506 55.1392L46.8804 54.7185C47.6689 54.2122 48.4317 53.6704 49.1665 53.0954L49.4746 53.4892C49.9741 53.0983 50.4608 52.6923 50.9341 52.272L50.602 51.8981C51.3017 51.2767 51.9714 50.6233 52.6088 49.9404L52.9743 50.2815C53.4067 49.8182 53.8245 49.3415 54.2269 48.8521L53.8407 48.5345C54.4341 47.8129 54.9936 47.0632 55.5167 46.2878L55.9312 46.5675C56.2852 46.0427 56.6229 45.5064 56.9436 44.9592L56.5122 44.7064C56.9836 43.9019 57.4175 43.0736 57.8115 42.2237L58.2652 42.434C58.5311 41.8604 58.7792 41.2771 59.0088 40.6848L58.5426 40.5041C58.8787 39.6369 59.1744 38.7502 59.4275 37.846L59.9089 37.9808C60.0791 37.3728 60.2303 36.757 60.3619 36.1342L59.8727 36.0309C60.0643 35.1236 60.2136 34.201 60.3184 33.2652L60.8153 33.3208C60.8853 32.6947 60.9359 32.0629 60.9662 31.4258L60.4667 31.402C60.4888 30.9375 60.5 30.47 60.5 30C60.5 29.53 60.4888 29.0625 60.4667 28.598L60.9662 28.5742C60.9359 27.9371 60.8854 27.3053 60.8153 26.6792L60.3184 26.7348C60.2136 25.799 60.0643 24.8764 59.8727 23.9691L60.3619 23.8658C60.2303 23.243 60.0791 22.6272 59.909 22.0192L59.4275 22.154C59.1744 21.2498 58.8787 20.3631 58.5426 19.4959L59.0088 19.3152C58.7792 18.7229 58.5311 18.1396 58.2652 17.566L57.8115 17.7763C57.4175 16.9264 56.9836 16.0981 56.5122 15.2936L56.9436 15.0408C56.6229 14.4936 56.2852 13.9573 55.9312 13.4325L55.5167 13.7122C54.9936 12.9368 54.4341 12.1871 53.8407 11.4655L54.2269 11.1479C53.8245 10.6585 53.4067 10.1818 52.9743 9.71848L52.6088 10.0596C51.9714 9.37666 51.3017 8.72328 50.602 8.10185L50.9341 7.72802C50.4608 7.30767 49.9741 6.90171 49.4746 6.51084L49.1665 6.9046C48.4317 6.3296 47.6689 5.78779 46.8804 5.28148L47.1506 4.86075C46.6184 4.51905 46.0747 4.19325 45.5202 3.88404L45.2767 4.32073C44.4631 3.86704 43.6258 3.44967 42.7672 3.07085L42.969 2.61339C42.3909 2.35836 41.8033 2.12051 41.2068 1.90052L41.0338 2.36963C40.1615 2.04792 39.2699 1.76502 38.3612 1.52305L38.4898 1.03988C37.8799 0.877479 37.2625 0.73322 36.638 0.607728L36.5395 1.09793C35.6302 0.915171 34.7058 0.772863 33.7683 0.673009L33.8213 0.175822C33.195 0.10911 32.563 0.0610469 31.926 0.0322078L31.9034 0.531696C31.4383 0.510644 30.9704 0.5 30.5 0.5C30.0296 0.5 29.5617 0.510644 29.0966 0.531696L29.074 0.0322076C28.437 0.0610467 27.805 0.10911 27.1787 0.175822L27.2317 0.673009C26.2942 0.772863 25.3698 0.915171 24.4605 1.09793L24.362 0.607727C23.7375 0.733219 23.1201 0.877479 22.5102 1.03988L22.6388 1.52305C21.7301 1.76502 20.8385 2.04792 19.9662 2.36963L19.7932 1.90052C19.1967 2.12051 18.6091 2.35836 18.031 2.61339L18.2328 3.07085C17.3742 3.44967 16.5369 3.86705 15.7233 4.32073L15.4798 3.88404C14.9253 4.19325 14.3816 4.51905 13.8494 4.86075L14.1196 5.28149C13.3311 5.7878 12.5683 6.3296 11.8335 6.9046L11.5254 6.51084C11.0259 6.90171 10.5392 7.30767 10.0659 7.72802L10.398 8.10185C9.69831 8.72328 9.02861 9.37666 8.39122 10.0596L8.02568 9.71849C7.5933 10.1818 7.17553 10.6585 6.7731 11.1479L7.1593 11.4655C6.56591 12.1871 6.00645 12.9368 5.4833 13.7122L5.06882 13.4325C4.71477 13.9573 4.37706 14.4936 4.0564 15.0408L4.48779 15.2936C4.01638 16.0981 3.5825 16.9264 3.18846 17.7763L2.73484 17.566C2.46891 18.1396 2.22081 18.7229 1.99124 19.3152L2.45744 19.4959C2.12131 20.3631 1.82559 21.2498 1.57255 22.154L1.09105 22.0192C0.920887 22.6272 0.769695 23.243 0.638134 23.8658L1.12734 23.9691C0.935688 24.8764 0.786407 25.799 0.681637 26.7348L0.184742 26.6792Z" stroke="#D1D1D1" stroke-dasharray="3 2"/>
<ellipse opacity="0.15" rx="20.1286" ry="19.7987" transform="matrix(-1 0 0 1 30.4964 29.9998)" fill="url(#paint0_linear)"/>
<path d="M24.0195 39.3281H36.9837C36.9837 39.3281 36.9837 51.915 36.9837 56.5523C36.9837 61.1896 24.0195 61.1068 24.0195 56.5523C24.0195 51.9978 24.0195 39.3281 24.0195 39.3281Z" fill="url(#paint1_linear)"/>
<path d="M24.0195 39.3281H36.9837C36.9837 39.3281 36.9837 51.915 36.9837 56.5523C36.9837 61.1896 24.0195 61.1068 24.0195 56.5523C24.0195 51.9978 24.0195 39.3281 24.0195 39.3281Z" fill="url(#paint2_linear)"/>
<path d="M24.0195 39.3291H24.9748C24.9748 39.3291 24.9748 48.9736 24.9748 52.5268C24.9748 56.0801 24.0195 56.0166 24.0195 52.5268C24.0195 49.0371 24.0195 39.3291 24.0195 39.3291Z" fill="url(#paint3_linear)"/>
<path d="M36.0273 39.3291H36.9826C36.9826 39.3291 36.9826 48.9736 36.9826 52.5268C36.9826 56.0801 36.0273 56.0166 36.0273 52.5268C36.0273 49.0371 36.0273 39.3291 36.0273 39.3291Z" fill="url(#paint4_linear)"/>
<mask id="path-7-inside-1" fill="white">
<path d="M28.2146 4.30325C28.2863 4.20509 28.3484 4.10747 28.4063 4.00053C29.3362 2.28107 31.8035 2.28107 32.7334 4.00053C32.7912 4.10747 32.8533 4.20509 32.9251 4.30325C33.8271 5.5376 40.2644 14.5797 41.0036 22.2149C41.3023 25.2996 41.3724 31.0598 41.3452 34.527C41.2991 40.3902 36.4332 42.9531 30.5698 42.9531C24.7065 42.9531 19.8406 40.3902 19.7945 34.527C19.7672 31.0598 19.8373 25.2996 20.136 22.2149C20.8753 14.5797 27.3126 5.5376 28.2146 4.30325Z"/>
</mask>
<path d="M28.2146 4.30325C28.2863 4.20509 28.3484 4.10747 28.4063 4.00053C29.3362 2.28107 31.8035 2.28107 32.7334 4.00053C32.7912 4.10747 32.8533 4.20509 32.9251 4.30325C33.8271 5.5376 40.2644 14.5797 41.0036 22.2149C41.3023 25.2996 41.3724 31.0598 41.3452 34.527C41.2991 40.3902 36.4332 42.9531 30.5698 42.9531C24.7065 42.9531 19.8406 40.3902 19.7945 34.527C19.7672 31.0598 19.8373 25.2996 20.136 22.2149C20.8753 14.5797 27.3126 5.5376 28.2146 4.30325Z" fill="white"/>
<path d="M41.0036 22.2149L40.0083 22.3112L41.0036 22.2149ZM20.136 22.2149L19.1407 22.1185L20.136 22.2149ZM19.7945 34.527L18.7945 34.5349L18.7945 34.5349L19.7945 34.527ZM41.3452 34.527L40.3452 34.5192L41.3452 34.527ZM28.4063 4.00053L29.2859 4.47624L28.4063 4.00053ZM32.7334 4.00053L31.8538 4.47624L32.7334 4.00053ZM32.9251 4.30325L32.1177 4.89326L32.9251 4.30325ZM28.2146 4.30325L27.4072 3.71325L27.4072 3.71325L28.2146 4.30325ZM32.1177 4.89326C32.554 5.49038 34.3602 8.01888 36.1449 11.3329C37.9414 14.6687 39.6582 18.6957 40.0083 22.3112L41.999 22.1185C41.6098 18.0989 39.7383 13.7873 37.9058 10.3846C36.0616 6.96021 34.1981 4.35047 33.7325 3.71325L32.1177 4.89326ZM40.0083 22.3112C40.3014 25.3386 40.3725 31.0521 40.3452 34.5192L42.3451 34.5349C42.3724 31.0676 42.3032 25.2606 41.999 22.1185L40.0083 22.3112ZM20.7944 34.5192C20.7672 31.0521 20.8382 25.3386 21.1314 22.3112L19.1407 22.1185C18.8364 25.2606 18.7672 31.0676 18.7945 34.5349L20.7944 34.5192ZM21.1314 22.3112C21.4814 18.6957 23.1982 14.6687 24.9947 11.3329C26.7795 8.01888 28.5856 5.49038 29.022 4.89326L27.4072 3.71325C26.9415 4.35048 25.078 6.96021 23.2338 10.3846C21.4013 13.7873 19.5299 18.0989 19.1407 22.1185L21.1314 22.3112ZM30.5698 41.9531C27.7639 41.9531 25.307 41.337 23.5755 40.1205C21.8885 38.9352 20.815 37.1326 20.7944 34.5192L18.7945 34.5349C18.8201 37.7847 20.2026 40.195 22.4258 41.757C24.6047 43.2878 27.5123 43.9531 30.5698 43.9531V41.9531ZM30.5698 43.9531C33.6273 43.9531 36.535 43.2878 38.7138 41.757C40.9371 40.195 42.3196 37.7846 42.3451 34.5349L40.3452 34.5192C40.3247 37.1326 39.2512 38.9352 37.5641 40.1205C35.8326 41.337 33.3757 41.9531 30.5698 41.9531V43.9531ZM29.2859 4.47624C29.8377 3.45584 31.3019 3.45584 31.8538 4.47624L33.613 3.52481C32.305 1.10631 28.8347 1.10631 27.5267 3.52481L29.2859 4.47624ZM33.7325 3.71325C33.6861 3.64978 33.6484 3.59023 33.613 3.52481L31.8538 4.47624C31.9341 4.62471 32.0206 4.7604 32.1177 4.89326L33.7325 3.71325ZM29.022 4.89326C29.1191 4.76041 29.2056 4.62471 29.2859 4.47624L27.5267 3.52481C27.4913 3.59022 27.4536 3.64978 27.4072 3.71325L29.022 4.89326Z" fill="#0500FF" mask="url(#path-7-inside-1)"/>
<path d="M29.2298 42.4534L29.0506 41.8675C28.4226 39.8145 27.7636 37.582 27.262 35.693C27.0111 34.7482 26.8009 33.894 26.6537 33.1937C26.5039 32.4805 26.428 31.9651 26.428 31.6782C26.428 29.4416 28.2737 27.6144 30.5679 27.6144C32.862 27.6144 34.7077 29.4416 34.7077 31.6782C34.7077 31.9651 34.6318 32.4805 34.482 33.1937C34.3348 33.894 34.1246 34.7482 33.8737 35.693C33.3721 37.582 32.7131 39.8145 32.0851 41.8675L31.9059 42.4534H31.9055L31.7965 42.8056C31.3376 44.2898 30.9131 45.6255 30.6026 46.5926C30.5992 46.6033 30.5959 46.608 30.5949 46.6093C30.5938 46.6107 30.593 46.6115 30.5919 46.6123C30.5891 46.6142 30.5809 46.6181 30.5679 46.6181C30.5548 46.6181 30.5466 46.6142 30.5438 46.6123C30.5428 46.6115 30.5419 46.6107 30.5408 46.6093C30.5398 46.608 30.5366 46.6033 30.5331 46.5926C30.2226 45.6255 29.7982 44.2898 29.3392 42.8056L29.2302 42.4534H29.2298ZM40.9551 37.9994L40.6179 37.988C40.7326 37.5546 40.7995 37.1012 40.8126 36.6331C40.8791 34.2636 40.9197 31.4799 40.8737 28.7328L41.0265 28.8458C42.0996 29.6396 43.9162 31.0911 45.4595 32.8498C47.0192 34.6272 48.2177 36.6265 48.2177 38.5238L48.2177 46.4905C48.2177 46.5012 48.2161 46.5056 48.2159 46.5061C48.2158 46.5065 48.2156 46.5069 48.2153 46.5074C48.215 46.5079 48.2145 46.5086 48.2137 46.5095C48.21 46.514 48.1981 46.5243 48.1759 46.5304C48.1537 46.5365 48.1352 46.5344 48.125 46.531C48.1205 46.5294 48.1174 46.5276 48.1148 46.5256C48.1124 46.5237 48.1074 46.5193 48.1011 46.5093C47.2062 45.0926 45.8539 43.0209 44.5501 41.2939C43.8994 40.4319 43.2509 39.6425 42.6704 39.0612C42.3808 38.7711 42.0965 38.5209 41.8276 38.3384C41.5717 38.1647 41.2695 38.01 40.9551 37.9994ZM20.3231 36.6331C20.3362 37.1012 20.4031 37.5546 20.5178 37.988L20.1806 37.9994C19.8662 38.01 19.564 38.1647 19.3081 38.3384C19.0393 38.5209 18.7549 38.771 18.4653 39.0612C17.8849 39.6425 17.2363 40.4319 16.5856 41.2939C15.2818 43.0209 13.9295 45.0926 13.0346 46.5093C13.0283 46.5193 13.0233 46.5237 13.0209 46.5256C13.0183 46.5276 13.0152 46.5294 13.0107 46.531C13.0005 46.5344 12.982 46.5365 12.9598 46.5304C12.9376 46.5243 12.9257 46.514 12.922 46.5095C12.9205 46.5078 12.9201 46.5068 12.9198 46.5061C12.9197 46.5056 12.918 46.5012 12.918 46.4905L12.918 38.5238C12.918 36.6265 14.1166 34.6272 15.6762 32.8498C17.2195 31.091 19.0361 29.6396 20.1092 28.8458L20.262 28.7328C20.216 31.4799 20.2566 34.2636 20.3231 36.6331Z" fill="white" stroke="#0500FF"/>
<path d="M34.3007 15.9736C34.3007 17.9878 32.6383 19.6346 30.5703 19.6346C28.5022 19.6346 26.8398 17.9878 26.8398 15.9736C26.8398 13.9594 28.5022 12.3125 30.5703 12.3125C32.6383 12.3125 34.3007 13.9594 34.3007 15.9736Z" fill="white" stroke="#0500FF"/>
<path d="M25.9297 8.4564C29.5004 7.93635 31.5022 7.90285 35.0729 8.4564" stroke="#0500FF"/>
<path d="M28.1133 22.9531C30.1365 23.4619 31.1993 23.3991 33.026 22.9531" stroke="#0500FF" stroke-linecap="round"/>
<path d="M18.2497 44.9944C18.1634 44.4198 17.3208 44.4198 17.2345 44.9944L17.1484 45.5675C17.1154 45.7876 16.9396 45.9605 16.7158 45.993L16.1332 46.0776C15.5491 46.1625 15.5491 46.9913 16.1332 47.0762L16.7158 47.1608C16.9396 47.1933 17.1154 47.3662 17.1484 47.5863L17.2345 48.1594C17.3208 48.734 18.1634 48.734 18.2497 48.1594L18.3357 47.5863C18.3688 47.3662 18.5445 47.1933 18.7683 47.1608L19.3509 47.0762C19.9351 46.9913 19.9351 46.1625 19.3509 46.0776L18.7683 45.993C18.5445 45.9605 18.3688 45.7876 18.3357 45.5675L18.2497 44.9944Z" fill="#C4C4C4"/>
<path d="M4.87488 3.2493C4.7886 2.67471 3.94599 2.67471 3.8597 3.2493L3.77365 3.82235C3.7406 4.04249 3.56485 4.21536 3.34104 4.24787L2.75844 4.33252C2.17427 4.41738 2.17427 5.24618 2.75844 5.33105L3.34104 5.41569C3.56485 5.44821 3.7406 5.62107 3.77365 5.84121L3.8597 6.41426C3.94599 6.98885 4.7886 6.98885 4.87488 6.41426L4.96093 5.84121C4.99399 5.62107 5.16974 5.44821 5.39355 5.41569L5.97615 5.33105C6.56031 5.24618 6.56031 4.41738 5.97615 4.33252L5.39355 4.24787C5.16974 4.21536 4.99399 4.04249 4.96093 3.82235L4.87488 3.2493Z" fill="#C4C4C4"/>
<path d="M8.45155 24.1857C8.31387 23.2688 6.96923 23.2688 6.83155 24.1857L6.69423 25.1002C6.64147 25.4515 6.36102 25.7274 6.00386 25.7793L5.07415 25.9143C4.14195 26.0498 4.14195 27.3723 5.07415 27.5078L6.00386 27.6428C6.36102 27.6947 6.64147 27.9706 6.69423 28.3219L6.83155 29.2364C6.96923 30.1533 8.31387 30.1533 8.45155 29.2364L8.58887 28.3219C8.64163 27.9706 8.92208 27.6947 9.27924 27.6428L10.2089 27.5078C11.1412 27.3723 11.1412 26.0498 10.2089 25.9143L9.27924 25.7793C8.92208 25.7274 8.64163 25.4515 8.58887 25.1002L8.45155 24.1857Z" fill="#C4C4C4"/>
<path d="M55.777 53.72C55.6907 53.1454 54.8481 53.1454 54.7618 53.72L54.6758 54.2931C54.6427 54.5132 54.467 54.6861 54.2432 54.7186L53.6606 54.8032C53.0764 54.8881 53.0764 55.7169 53.6606 55.8018L54.2432 55.8864C54.467 55.9189 54.6427 56.0918 54.6758 56.3119L54.7618 56.885C54.8481 57.4596 55.6907 57.4596 55.777 56.885L55.8631 56.3119C55.8961 56.0918 56.0719 55.9189 56.2957 55.8864L56.8783 55.8018C57.4624 55.7169 57.4624 54.8881 56.8783 54.8032L56.2957 54.7186C56.0719 54.6861 55.8961 54.5132 55.8631 54.2931L55.777 53.72Z" fill="#C4C4C4"/>
<ellipse rx="0.955257" ry="0.939597" transform="matrix(-1 0 0 1 16.6502 8.72475)" fill="#C4C4C4"/>
<ellipse rx="0.955257" ry="0.939597" transform="matrix(-1 0 0 1 40.3963 5.77163)" fill="#C4C4C4"/>
<ellipse rx="0.955257" ry="0.939597" transform="matrix(-1 0 0 1 4.36506 54.2287)" fill="#C4C4C4"/>
<ellipse rx="1.56935" ry="1.54362" transform="matrix(-1 0 0 1 51.6494 23.2887)" fill="#C4C4C4"/>
<ellipse rx="0.955257" ry="0.939597" transform="matrix(-1 0 0 1 44.6229 48.7248)" fill="#C4C4C4"/>
<path d="M56.7963 8.01569C58.5378 10.9751 57.5271 14.7465 54.5388 16.4393C51.5504 18.1321 47.7162 17.1051 45.9747 14.1457C44.2333 11.1862 45.2439 7.41482 48.2322 5.72204C51.2206 4.02926 55.0548 5.05625 56.7963 8.01569Z" fill="white" stroke="url(#paint5_linear)"/>
<path d="M51.4486 8.72461L52.6331 9.97556L53.9049 11.1407L52.6331 12.3059L51.4486 13.5568L50.264 12.3059L48.9922 11.1407L50.264 9.97556L51.4486 8.72461Z" fill="url(#paint6_linear)"/>
<defs>
<linearGradient id="paint0_linear" x1="31.9684" y1="-2.72682" x2="-8.82339" y2="28.1653" gradientUnits="userSpaceOnUse">
<stop stop-color="#3CE700"/>
<stop offset="0.567708" stop-color="#0BC91E"/>
</linearGradient>
<linearGradient id="paint1_linear" x1="30.5016" y1="39.3281" x2="30.5016" y2="59.9993" gradientUnits="userSpaceOnUse">
<stop offset="0.817791" stop-color="white"/>
<stop offset="0.963488" stop-color="white" stop-opacity="0"/>
</linearGradient>
<linearGradient id="paint2_linear" x1="30.5016" y1="39.3281" x2="30.5016" y2="59.9993" gradientUnits="userSpaceOnUse">
<stop offset="0.817791" stop-color="white"/>
<stop offset="0.963488" stop-color="white" stop-opacity="0"/>
</linearGradient>
<linearGradient id="paint3_linear" x1="24.7781" y1="38.2384" x2="23.2581" y2="38.3067" gradientUnits="userSpaceOnUse">
<stop stop-color="#3CE700"/>
<stop offset="0.567708" stop-color="#0BC91E"/>
</linearGradient>
<linearGradient id="paint4_linear" x1="36.7859" y1="38.2384" x2="35.2659" y2="38.3067" gradientUnits="userSpaceOnUse">
<stop stop-color="#3CE700"/>
<stop offset="0.567708" stop-color="#0BC91E"/>
</linearGradient>
<linearGradient id="paint5_linear" x1="50.948" y1="2.54592" x2="44.2398" y2="18.2145" gradientUnits="userSpaceOnUse">
<stop stop-color="#EAED4F"/>
<stop offset="0.567708" stop-color="#C4B000"/>
</linearGradient>
<linearGradient id="paint6_linear" x1="52.8934" y1="8.39185" x2="47.9154" y2="12.1617" gradientUnits="userSpaceOnUse">
<stop stop-color="#EAED4F"/>
<stop offset="0.567708" stop-color="#C4B000"/>
</linearGradient>
</defs>
</svg>
