<svg width="24" height="20" viewBox="0 0 24 20" fill="none" xmlns="http://www.w3.org/2000/svg">
    <path d="M24 9C24 7.89 23.0182 7 21.8182 7H14.9236L15.9709 2.43C15.9927 2.33 16.0036 2.22 16.0036 2.11C16.0036 1.7 15.8182 1.32 15.5236 1.05L14.3673 0L7.18909 6.58C6.78545 6.95 6.54545 7.45 6.54545 8V18C6.54545 18.5304 6.77532 19.0391 7.18449 19.4142C7.59366 19.7893 8.14862 20 8.72727 20H18.5455C19.4509 20 20.2255 19.5 20.5527 18.78L23.8473 11.73C23.9455 11.5 24 11.26 24 11V9ZM0 20H4.36364V8H0V20Z" fill="#0BC91F"/>
</svg>
