<svg width="24" height="20" viewBox="0 0 24 20" fill="none" xmlns="http://www.w3.org/2000/svg">
    <path d="M4.36364 8V20H0V8H4.36364ZM8.72727 20C8.14862 20 7.59366 19.7893 7.18449 19.4142C6.77532 19.0391 6.54545 18.5304 6.54545 18V8C6.54545 7.45 6.78545 6.95 7.18909 6.59L14.3673 0L15.5236 1.06C15.8182 1.33 16.0036 1.7 16.0036 2.11L15.9709 2.43L14.9345 7H21.8182C23.0291 7 24 7.9 24 9V11C24 11.26 23.9455 11.5 23.8473 11.73L20.5527 18.78C20.2255 19.5 19.4509 20 18.5455 20H8.72727ZM8.72727 18H18.5782L21.8182 11V9H12.2291L13.4618 3.68L8.72727 8.03V18Z" fill="#B6EFBC"/>
</svg>
