<svg width="16" height="16" viewBox="0 0 16 16" fill="none" xmlns="http://www.w3.org/2000/svg">
    <path d="M1.12043 5.64844H4.06262V15.1094H1.12043V5.64844ZM2.597 0.945312C3.53762 0.945312 4.30325 1.71094 4.30325 2.65156C4.30325 3.59219 3.53762 4.35781 2.597 4.35781C1.6509 4.35781 0.890747 3.59219 0.890747 2.65156C0.890747 1.71094 1.6509 0.945312 2.597 0.945312Z" fill="#ABB3AC"/>
    <path d="M5.91106 5.61562H8.72747V6.91172C9.12122 6.16797 10.1712 5.38594 11.604 5.38594C14.579 5.38594 15.0767 7.34375 15.0767 9.89219V15.0766H12.14V10.4773C12.14 7.35118 8.85325 7.27851 8.85325 10.3953V15.0766H5.91653L5.91106 5.61562Z" fill="#ABB3AC"/>
</svg>
