<svg width="186" height="186" viewBox="0 0 186 186" fill="none" xmlns="http://www.w3.org/2000/svg">
    <g clip-path="url(#clip0)">
        <path d="M173.129 68.2429C172.999 67.3582 171.722 67.3582 171.592 68.2429L171.461 69.1252C171.411 69.4642 171.145 69.7303 170.806 69.7803L169.924 69.9106C169.039 70.0413 169.039 71.3174 169.924 71.4481L170.806 71.5784C171.145 71.6284 171.411 71.8946 171.461 72.2335L171.592 73.1159C171.722 74.0005 172.999 74.0005 173.129 73.1159L173.259 72.2335C173.309 71.8946 173.575 71.6284 173.915 71.5784L174.797 71.4481C175.682 71.3174 175.682 70.0413 174.797 69.9106L173.915 69.7803C173.575 69.7303 173.309 69.4642 173.259 69.1252L173.129 68.2429Z" fill="#C4C4C4"/>
        <path d="M14.4084 145.124C14.2777 144.239 13.0016 144.239 12.871 145.124L12.7407 146.006C12.6906 146.345 12.4245 146.611 12.0855 146.661L11.2032 146.792C10.3185 146.922 10.3185 148.199 11.2032 148.329L12.0855 148.459C12.4245 148.509 12.6906 148.775 12.7407 149.115L12.871 149.997C13.0016 150.882 14.2777 150.882 14.4084 149.997L14.5387 149.115C14.5888 148.775 14.855 148.509 15.1939 148.459L16.0762 148.329C16.9609 148.199 16.9609 146.922 16.0762 146.792L15.1939 146.661C14.855 146.611 14.5888 146.345 14.5387 146.006L14.4084 145.124Z" fill="#C4C4C4"/>
        <path d="M146.93 8.43495C146.721 7.10795 144.679 7.10795 144.47 8.43495L144.262 9.75842C144.181 10.2668 143.756 10.6661 143.213 10.7412L141.801 10.9366C140.386 11.1326 140.386 13.0467 141.801 13.2427L143.213 13.4383C143.756 13.5133 144.181 13.9126 144.262 14.421L144.47 15.7444C144.679 17.0715 146.721 17.0715 146.93 15.7444L147.138 14.421C147.218 13.9126 147.644 13.5133 148.186 13.4383L149.598 13.2427C151.013 13.0467 151.013 11.1326 149.598 10.9366L148.186 10.7412C147.644 10.6661 147.218 10.2668 147.138 9.75842L146.93 8.43495Z" fill="#C4C4C4"/>
        <path d="M6.18992 24.2453C5.98086 22.9182 3.93914 22.9182 3.73007 24.2453L3.52156 25.5687C3.44146 26.0771 3.01561 26.4764 2.4733 26.5515L1.06161 26.747C-0.353871 26.943 -0.353869 28.8571 1.06161 29.0531L2.4733 29.2485C3.01561 29.3236 3.44146 29.7229 3.52156 30.2313L3.73007 31.5548C3.93914 32.8818 5.98086 32.8818 6.18992 31.5548L6.39844 30.2313C6.47853 29.7229 6.90438 29.3236 7.4467 29.2485L8.8584 29.0531C10.2739 28.8571 10.2739 26.943 8.8584 26.747L7.4467 26.5515C6.90438 26.4764 6.47853 26.0771 6.39844 25.5687L6.18992 24.2453Z" fill="#C4C4C4"/>
        <path d="M182.269 136.156C182.06 134.828 180.019 134.828 179.809 136.156L179.601 137.479C179.521 137.987 179.095 138.386 178.553 138.461L177.141 138.658C175.726 138.853 175.726 140.767 177.141 140.963L178.553 141.158C179.095 141.234 179.521 141.633 179.601 142.141L179.809 143.465C180.019 144.792 182.06 144.792 182.269 143.465L182.478 142.141C182.558 141.633 182.984 141.234 183.526 141.158L184.937 140.963C186.353 140.767 186.353 138.853 184.937 138.658L183.526 138.461C182.984 138.386 182.558 137.987 182.478 137.479L182.269 136.156Z" fill="#C4C4C4"/>
        <path d="M30.0706 8.67935C29.2146 8.67935 28.5206 7.98539 28.5206 7.12935C28.5206 6.2733 29.2146 5.57935 30.0706 5.57935C30.9266 5.57935 31.6206 6.2733 31.6206 7.12935C31.6206 7.98539 30.9266 8.67935 30.0706 8.67935Z" fill="#C4C4C4"/>
        <path d="M126.171 29.7603C125.315 29.7603 124.621 29.0663 124.621 28.2103C124.621 27.3542 125.315 26.6603 126.171 26.6603C127.027 26.6603 127.721 27.3542 127.721 28.2103C127.721 29.0663 127.027 29.7603 126.171 29.7603Z" fill="#C4C4C4"/>
        <path d="M181.971 34.1C181.115 34.1 180.421 33.406 180.421 32.55C180.421 31.694 181.115 31 181.971 31C182.827 31 183.521 31.694 183.521 32.55C183.521 33.406 182.827 34.1 181.971 34.1Z" fill="#C4C4C4"/>
        <path d="M35.0303 52.235C33.6606 52.235 32.5503 51.1247 32.5503 49.755C32.5503 48.3854 33.6606 47.275 35.0303 47.275C36.3999 47.275 37.5103 48.3854 37.5103 49.755C37.5103 51.1247 36.3999 52.235 35.0303 52.235Z" fill="#C4C4C4"/>
        <path d="M5.5803 113.46C4.21064 113.46 3.1003 112.35 3.1003 110.98C3.1003 109.61 4.21064 108.5 5.5803 108.5C6.94997 108.5 8.0603 109.61 8.0603 110.98C8.0603 112.35 6.94997 113.46 5.5803 113.46Z" fill="#C4C4C4"/>
        <path d="M183.83 108.5C182.632 108.5 181.66 107.528 181.66 106.33C181.66 105.131 182.632 104.16 183.83 104.16C185.028 104.16 186 105.131 186 106.33C186 107.528 185.028 108.5 183.83 108.5Z" fill="#C4C4C4"/>
        <path d="M103.23 7.43998C102.032 7.43998 101.06 6.46844 101.06 5.26998C101.06 4.07152 102.032 3.09998 103.23 3.09998C104.428 3.09998 105.4 4.07152 105.4 5.26998C105.4 6.46844 104.428 7.43998 103.23 7.43998Z" fill="#C4C4C4"/>
        <path d="M31.1606 75.3672H152.227C153.921 75.3672 155.295 76.7423 155.295 78.4408V153.483C155.295 155.181 153.921 156.557 152.227 156.557H31.1605C29.4669 156.557 28.0922 155.181 28.0922 153.483V78.4408C28.0922 76.7423 29.4669 75.3672 31.1606 75.3672Z" fill="white" stroke="#0500FF" stroke-width="2"/>
        <path opacity="0.15" d="M33.0919 84.2154C33.0919 82.0895 34.8127 80.3667 36.9353 80.3667H146.472C148.595 80.3667 150.315 82.0895 150.315 84.2154V147.713C150.315 149.838 148.595 151.561 146.472 151.561H36.9353C34.8127 151.561 33.0919 149.838 33.0919 147.713V84.2154Z" fill="#0500FF"/>
        <path d="M28.3075 159.41H155.087C155.56 159.41 156.042 159.565 156.49 159.883L180.947 177.298C182.361 178.305 182.871 180.281 182.507 182.114C182.139 183.967 180.996 185.227 179.544 185.227H3.84963C2.39796 185.227 1.25491 183.967 0.88726 182.114C0.52362 180.281 1.03283 178.305 2.44696 177.298L26.9048 159.883C27.3515 159.565 27.8334 159.41 28.3075 159.41Z" fill="white" stroke="#0500FF" stroke-width="2"/>
        <path d="M158.842 168.521L158.877 168.549L158.915 168.572C159.444 168.888 159.765 169.758 159.631 170.75C159.569 171.218 159.411 171.611 159.214 171.869C159.025 172.114 158.831 172.205 158.629 172.205H23.5417C23.3416 172.205 23.1493 172.115 22.9627 171.876C22.7664 171.625 22.609 171.239 22.5429 170.778C22.4024 169.8 22.7074 168.924 23.2238 168.591C23.2745 168.559 23.3392 168.514 23.4058 168.458L29.2601 163.507C29.28 163.49 29.2916 163.482 29.298 163.477C29.4448 163.412 29.7166 163.342 30.0476 163.29C30.3731 163.238 30.6786 163.215 30.8445 163.215H151.326C151.633 163.215 151.95 163.298 152.262 163.478L158.842 168.521Z" fill="#0500FF" fill-opacity="0.3" stroke="#0500FF" stroke-width="2"/>
        <path opacity="0.15" d="M67.0774 180.265L71.492 176.235H111.917L116.331 180.265H67.0774Z" fill="#0500FF" stroke="#0500FF" stroke-width="2"/>
        <path d="M124.137 180.142L123.738 179.637L123.168 179.937C121.597 180.765 119.555 181.275 117.304 181.275C114.809 181.275 112.573 180.648 110.951 179.66C109.319 178.667 108.392 177.37 108.277 176.043L108.229 175.481L107.679 175.355C105.561 174.87 103.662 174.047 102.098 172.984L101.301 172.442L100.942 173.336C100.49 174.466 99.4271 175.527 97.8678 176.313C96.3178 177.095 94.3346 177.573 92.1553 177.573C89.5714 177.573 87.2681 176.901 85.6344 175.853C83.9922 174.8 83.1165 173.439 83.1165 172.055C83.1165 170.853 83.7737 169.673 85.0253 168.689C86.2761 167.705 88.0703 166.965 90.1682 166.672L91.4725 166.49L90.6797 165.438C90.1418 164.725 89.8636 163.957 89.8636 163.17C89.8636 161.786 90.7394 160.425 92.3808 159.372C94.0145 158.324 96.3178 157.65 98.9024 157.65C99.8247 157.65 100.714 157.736 101.551 157.896L101.865 157.956L102.13 157.777C104.723 156.025 108.219 154.936 112.091 154.936C113.982 154.936 115.786 155.196 117.44 155.668L118.148 155.869L118.386 155.173C119.049 153.228 120.779 151.441 123.308 150.129C125.827 148.822 129.076 148.025 132.639 148.025C136.371 148.025 139.756 148.9 142.32 150.317C144.895 151.74 146.567 153.663 147.051 155.728L147.116 156.007L147.348 156.177C147.899 156.578 148.393 157.009 148.825 157.465L149.183 157.843L149.669 157.655C151.687 156.87 154.041 156.417 156.561 156.417C160.407 156.417 163.855 157.472 166.319 159.139C168.788 160.809 170.2 163.034 170.2 165.391C170.2 167.749 168.788 169.973 166.319 171.642C163.855 173.309 160.407 174.365 156.561 174.365C155.161 174.365 153.812 174.225 152.543 173.966L151.34 173.72L151.635 174.911C151.743 175.348 151.799 175.795 151.799 176.25C151.799 178.585 150.309 180.81 147.667 182.491C145.034 184.164 141.349 185.225 137.239 185.225C131.394 185.225 126.465 183.087 124.137 180.142Z" fill="white" stroke="url(#paint0_linear)" stroke-width="2"/>
        <path opacity="0.15" d="M136.411 182.24C131.576 182.24 127.39 180.476 125.358 177.905C123.992 178.624 122.244 179.056 120.338 179.056C115.969 179.056 112.426 176.784 112.426 173.982C112.426 173.762 112.448 173.544 112.491 173.331C112.008 173.381 111.514 173.407 111.012 173.407C106.911 173.407 103.353 171.692 101.598 169.184C101.501 169.192 101.403 169.197 101.306 169.202C100.523 169.664 99.5511 169.941 98.4964 169.951C98.5591 170.19 98.5917 170.438 98.5917 170.691C98.5917 172.737 96.4635 174.394 93.8378 174.394C91.2121 174.394 89.084 172.737 89.084 170.691C89.084 168.662 91.7004 167.767 94.299 167.743C94.2362 167.504 93.6836 166.502 93.6836 166.249C93.6836 165.586 93.9076 164.965 94.299 164.426C94.3695 161.88 97.2943 159.832 100.891 159.832C101.797 159.832 102.66 159.961 103.446 160.197C105.368 158.753 108.047 157.857 111.012 157.857C113.073 157.857 114.995 158.29 116.622 159.038C117.743 158.318 119.074 157.767 120.539 157.444C121.587 153.778 126.633 150.999 132.703 150.999C139.081 150.999 144.331 154.069 144.995 158.012C146.699 158.69 148.139 159.638 149.184 160.769C150.688 160.025 152.549 159.585 154.562 159.585C159.559 159.585 163.609 162.293 163.609 165.632C163.609 168.972 159.559 171.679 154.562 171.679C152.247 171.679 150.135 171.097 148.535 170.142C148.223 170.418 147.884 170.682 147.523 170.93C148.324 171.972 148.774 173.143 148.774 174.38C148.774 178.721 143.239 182.24 136.411 182.24Z" fill="url(#paint1_linear)"/>
        <path d="M89.0459 70.7958C89.0459 70.7958 90.1038 65.6306 96.7998 65.6272C103.48 65.6239 100.676 63.043 100.676 63.043C100.676 63.043 129.971 66.9446 140.731 114.754C151.493 162.562 149.575 173.164 133.687 174.375C111.253 176.085 114.288 164.526 113.597 134.11C112.304 77.2565 89.0459 70.7958 89.0459 70.7958Z" fill="url(#paint2_linear)"/>
        <path d="M89.0459 70.7958L96.7998 65.6272L100.676 63.043C100.676 63.043 129.971 66.9446 140.731 114.754C151.493 162.562 149.575 173.164 133.687 174.375C111.253 176.085 114.288 164.526 113.597 134.11C112.304 77.2565 89.0459 70.7958 89.0459 70.7958Z" fill="url(#paint3_linear)"/>
        <path d="M114.037 162.373C114.045 162.504 114.052 162.631 114.059 162.757C113.931 161.721 113.817 160.497 113.716 159.081C113.365 154.138 113.193 146.931 113.241 137.318C113.348 115.277 111.705 103.024 107.918 94.0005C104.611 86.1187 99.6766 80.7449 93.052 73.5294C92.9535 73.4219 92.8543 73.314 92.7551 73.2057C99.8564 78.5873 105.278 85.5367 108.853 95.2405C112.711 105.708 114.43 119.414 113.739 137.864C113.348 148.319 113.689 156.012 113.958 160.941C113.986 161.45 114.013 161.927 114.037 162.373Z" fill="white" stroke="url(#paint4_linear)" stroke-width="2"/>
        <path d="M111.081 68.8674C110.865 68.7005 110.647 68.5324 110.427 68.3632C118.847 72.6447 125.775 78.8718 131.253 88.3415C137.085 98.4235 141.289 112.212 143.853 131.303C144.664 137.335 145.556 142.887 146.306 147.552C146.642 149.64 146.949 151.55 147.207 153.248C147.627 156.007 147.916 158.184 148 159.664C148.016 159.936 148.023 160.177 148.025 160.388C148.023 160.381 148.02 160.373 148.018 160.365C147.728 159.449 147.437 157.94 147.059 155.598C146.814 154.079 146.534 152.219 146.195 149.97C145.502 145.361 144.563 139.122 143.175 130.84C139.374 108.164 135.507 95.8644 130.011 87.2666C125.21 79.7568 119.182 75.1107 111.081 68.8674Z" fill="white" stroke="url(#paint5_linear)" stroke-width="2"/>
        <path d="M62.9192 5.264C64.5289 5.76983 71.1932 7.94372 78.8733 11.5737C86.5713 15.2119 95.2048 20.2743 100.822 26.5278C105.415 31.6424 113.152 41.8712 117.696 48.1379C123.282 55.841 123.698 60.9389 121.727 65.0012C120.716 67.0843 119.043 68.9737 116.929 70.8442C115.019 72.5347 112.793 74.173 110.429 75.9118C110.176 76.0988 109.92 76.2869 109.662 76.4763C107.02 78.4238 104.534 80.2559 102.1 81.6912C99.6681 83.125 97.34 84.1309 95.0297 84.458C90.5177 85.0966 85.7684 83.1777 80.2163 75.7686C75.5737 69.5741 68.0907 59.1587 64.5636 53.2578C60.2511 46.0429 57.9689 36.2979 56.7702 27.8686C55.5742 19.4582 55.4687 12.4492 55.4616 10.7618C55.4603 10.4571 55.4403 10.1644 55.3975 9.85936C54.8763 6.14742 58.6844 3.34009 62.0761 4.93583C62.3548 5.06696 62.6285 5.17264 62.9192 5.264Z" fill="white" stroke="#0500FF" stroke-width="2" stroke-linecap="round" stroke-linejoin="round"/>
        <path d="M105.76 78.6811L106.603 78.0588L105.762 77.4347C101.912 74.5764 97.7662 71.4347 94.3578 68.7007C92.6528 67.3334 91.1384 66.0728 89.9395 65.0036C88.7259 63.9208 87.8827 63.0743 87.4789 62.527C84.4006 58.3518 85.3368 52.4107 89.607 49.2626C93.8773 46.1146 99.8293 46.9778 102.907 51.1531C103.311 51.7003 103.869 52.7566 104.545 54.2362C105.212 55.6974 105.968 57.5171 106.77 59.55C108.374 63.6148 110.148 68.5045 111.74 73.0273L112.088 74.0154L112.931 73.3938L116.554 70.7231C122.458 66.3708 123.991 58.2743 119.887 52.3668C114.375 44.4333 106.888 34.1465 100.392 26.9139C94.8329 20.7245 86.2497 15.6897 78.5586 12.059C70.8966 8.44173 64.259 6.28172 62.7036 5.79367C62.4094 5.70134 62.1283 5.5942 61.8432 5.46247C58.8879 4.09665 55.5474 6.55934 55.978 9.78636C56.0196 10.0976 56.0388 10.3979 56.0399 10.7063C56.0461 12.3363 56.1463 19.3159 57.3354 27.7053C58.5289 36.126 60.7998 45.8143 65.0681 52.9551C70.0557 61.2997 77.6674 71.4946 83.6163 79.1066C88.0454 84.7742 96.2333 85.7034 102.137 81.3518L105.76 78.6811ZM107.524 78.7393L107.064 78.3998L106.604 78.7385L102.462 81.7928C97.4237 85.5066 90.799 85.5306 86.0374 82.2012L85.5654 81.871L85.1128 82.2283C84.6385 82.6034 84.3277 83.2064 84.1038 83.8395C83.8728 84.4952 83.6969 85.2973 83.5628 86.1917C83.2931 87.9827 83.1738 90.2418 83.1466 92.6474C83.0916 97.464 83.4055 102.967 83.6736 106.696C83.6899 106.914 83.5667 107.092 83.3497 107.176C83.1342 107.258 82.9444 107.206 82.8242 107.044L72.2699 92.7272C69.6789 89.2126 69.1946 83.9232 69.6442 78.6447C70.0906 73.4052 71.4398 68.3639 72.3199 65.5054L72.4322 65.1407L72.2116 64.8294C69.4024 60.8635 66.7396 56.8868 64.5716 53.2596C60.2495 46.0287 57.9668 36.2566 56.7703 27.8148C55.5764 19.392 55.4757 12.3855 55.4695 10.7417C55.4684 10.4555 55.4506 10.1786 55.4123 9.89152C54.922 6.21705 58.7459 3.39799 62.111 4.95318C62.3739 5.07467 62.6331 5.17353 62.9062 5.25922L63.1319 4.54009L62.9062 5.25922C64.4746 5.75138 71.1379 7.91992 78.8307 11.5516C86.5412 15.1914 95.201 20.2622 100.83 26.5296C103.653 29.6734 106.665 33.3934 109.622 37.2499L109.854 37.5527L110.236 37.5533C113.227 37.558 118.442 37.7602 123.579 38.8836C128.754 40.0152 133.663 42.0423 136.254 45.5568L146.808 59.8732C146.928 60.0358 146.922 60.2334 146.78 60.4143C146.635 60.5971 146.428 60.6615 146.225 60.5821C142.743 59.2228 137.579 57.2954 132.961 55.9232C130.656 55.238 128.462 54.6837 126.671 54.4115C125.778 54.2755 124.959 54.2058 124.264 54.2328C123.593 54.259 122.925 54.378 122.427 54.7199L121.952 55.0462L122.128 55.5953C123.899 61.1284 121.917 67.4499 116.879 71.164L112.737 74.2176L112.277 74.5567L112.465 75.0964C113.606 78.3727 114.614 81.3371 115.338 83.4869C115.469 83.8767 115.023 84.2053 114.69 83.9651C112.85 82.6375 110.317 80.7992 107.524 78.7393Z" fill="white" stroke="#0500FF" stroke-width="2"/>
        <path d="M81.3564 23.4721C84.1395 27.2477 83.2939 32.622 79.4306 35.4705C75.5666 38.3189 70.1827 37.5369 67.3993 33.7613C64.6159 29.9857 65.4612 24.6114 69.325 21.7628C73.1889 18.9144 78.5726 19.6965 81.3564 23.4721Z" fill="white" stroke="#0500FF" stroke-width="2"/>
        <path d="M56.0807 21.252C61.8085 15.5869 65.3613 12.8748 72.5113 9.13916" stroke="#0500FF" stroke-width="2"/>
        <path d="M79.2197 44.4141C83.5295 42.6481 85.3562 41.1272 88.0477 37.9056" stroke="#0500FF" stroke-width="2" stroke-linecap="round"/>
        <path d="M1.54998 71.9206C0.693934 71.9206 -2.40803e-05 71.2266 -2.40803e-05 70.3706C-2.40803e-05 69.5145 0.693934 68.8206 1.54998 68.8206C2.40602 68.8206 3.09998 69.5145 3.09998 70.3706C3.09998 71.2266 2.40602 71.9206 1.54998 71.9206Z" fill="#C4C4C4"/>
    </g>
    <defs>
        <linearGradient id="paint0_linear" x1="100.591" y1="188.668" x2="136.798" y2="126.977" gradientUnits="userSpaceOnUse">
            <stop stop-color="#3CE700"/>
            <stop offset="0.567708" stop-color="#0BC91E"/>
        </linearGradient>
        <linearGradient id="paint1_linear" x1="104.429" y1="184.391" x2="133.009" y2="133.605" gradientUnits="userSpaceOnUse">
            <stop stop-color="#3CE700"/>
            <stop offset="0.567708" stop-color="#0BC91E"/>
        </linearGradient>
        <linearGradient id="paint2_linear" x1="138.958" y1="136.004" x2="108.318" y2="162.479" gradientUnits="userSpaceOnUse">
            <stop stop-color="#E1FBD9"/>
            <stop offset="0.567708" stop-color="#DBF7DD"/>
        </linearGradient>
        <linearGradient id="paint3_linear" x1="138.958" y1="136.004" x2="108.318" y2="162.479" gradientUnits="userSpaceOnUse">
            <stop stop-color="#E1FBD9"/>
            <stop offset="0.567708" stop-color="#DBF7DD"/>
        </linearGradient>
        <linearGradient id="paint4_linear" x1="109.731" y1="64.1241" x2="70.6015" y2="71.806" gradientUnits="userSpaceOnUse">
            <stop stop-color="#3CE700"/>
            <stop offset="0.567708" stop-color="#0BC91E"/>
        </linearGradient>
        <linearGradient id="paint5_linear" x1="140.184" y1="60.0856" x2="79.904" y2="79.7987" gradientUnits="userSpaceOnUse">
            <stop stop-color="#3CE700"/>
            <stop offset="0.567708" stop-color="#0BC91E"/>
        </linearGradient>
        <clipPath id="clip0">
            <rect width="186" height="186" fill="white"/>
        </clipPath>
    </defs>
</svg>
