<svg width="111" height="17" viewBox="0 0 111 17" fill="none" xmlns="http://www.w3.org/2000/svg">
    <path d="M13.849 3.88858L10.9072 13.9409H8.84274L6.93312 6.51568L5.0235 13.9409H2.95905L0 3.88858H1.99564L3.97407 11.9706L5.98691 3.88858H8.03416L9.96099 11.9341L11.9222 3.88858H13.849Z" fill="black"/>
    <path d="M14.661 8.86912C14.661 7.85963 14.856 6.96569 15.2459 6.18729C15.6473 5.40889 16.1864 4.80685 16.8631 4.38116C17.5512 3.94331 18.3082 3.72438 19.134 3.72438C19.8795 3.72438 20.5275 3.8825 21.078 4.19872C21.64 4.50278 22.0873 4.8859 22.4199 5.34808V3.88858H24.3983V13.9409H22.4199V12.4449C22.0873 12.9192 21.6342 13.3145 21.0608 13.6307C20.4873 13.947 19.8336 14.1051 19.0996 14.1051C18.2852 14.1051 17.5397 13.8861 16.8631 13.4483C16.1864 12.9983 15.6473 12.378 15.2459 11.5874C14.856 10.7847 14.661 9.87861 14.661 8.86912ZM22.4199 8.90561C22.4199 8.21234 22.2822 7.6103 22.007 7.09948C21.7432 6.58865 21.3934 6.19945 20.9576 5.93188C20.5217 5.6643 20.0515 5.53051 19.5468 5.53051C19.0422 5.53051 18.572 5.6643 18.1361 5.93188C17.7003 6.18729 17.3448 6.57041 17.0695 7.08123C16.8057 7.57989 16.6738 8.17586 16.6738 8.86912C16.6738 9.56238 16.8057 10.1705 17.0695 10.6935C17.3448 11.2165 17.7003 11.6178 18.1361 11.8976C18.5834 12.1652 19.0537 12.2989 19.5468 12.2989C20.0515 12.2989 20.5217 12.1652 20.9576 11.8976C21.3934 11.63 21.7432 11.2408 22.007 10.73C22.2822 10.207 22.4199 9.59887 22.4199 8.90561Z" fill="black"/>
    <path d="M30.6387 12.08L33.3225 3.88858H35.4042L31.7914 13.9409H29.4517L25.8561 3.88858H27.9549L30.6387 12.08Z" fill="black"/>
    <path d="M45.5745 8.66844C45.5745 9.04547 45.5516 9.38602 45.5057 9.69009H38.2629C38.3203 10.4928 38.6013 11.1374 39.1059 11.6239C39.6106 12.1104 40.2299 12.3537 40.9639 12.3537C42.0191 12.3537 42.7646 11.8854 43.2004 10.9489H45.3165C45.0298 11.8733 44.5079 12.6334 43.7509 13.2294C43.0055 13.8132 42.0764 14.1051 40.9639 14.1051C40.0579 14.1051 39.2436 13.8922 38.521 13.4665C37.8099 13.0287 37.2479 12.4206 36.835 11.6422C36.4336 10.8516 36.2329 9.93942 36.2329 8.90561C36.2329 7.87179 36.4279 6.96569 36.8178 6.18729C37.2192 5.39673 37.7755 4.7886 38.4866 4.36292C39.2091 3.93723 40.0349 3.72438 40.9639 3.72438C41.8585 3.72438 42.6556 3.93115 43.3553 4.34467C44.0549 4.7582 44.5997 5.342 44.9896 6.09607C45.3796 6.83798 45.5745 7.69544 45.5745 8.66844ZM43.5273 8.01166C43.5158 7.24543 43.2578 6.63122 42.7531 6.16904C42.2485 5.70687 41.6234 5.47578 40.8779 5.47578C40.2012 5.47578 39.622 5.70687 39.1403 6.16904C38.6586 6.61906 38.3719 7.23326 38.2801 8.01166H43.5273Z" fill="black"/>
    <path d="M50.9454 14.1051C50.1999 14.1051 49.5289 13.9652 48.9325 13.6855C48.3476 13.3936 47.8831 13.0044 47.539 12.5179C47.1949 12.0192 47.0114 11.4658 46.9885 10.8577H49.0185C49.0529 11.2834 49.2422 11.6422 49.5863 11.9341C49.9418 12.2138 50.3834 12.3537 50.9109 12.3537C51.4615 12.3537 51.8858 12.2442 52.184 12.0253C52.4937 11.7942 52.6485 11.5023 52.6485 11.1496C52.6485 10.7725 52.4765 10.4928 52.1324 10.3104C51.7998 10.1279 51.2665 9.92726 50.5325 9.70833C49.8214 9.50157 49.2422 9.30089 48.7949 9.10629C48.3476 8.91169 47.9576 8.61371 47.625 8.21234C47.3039 7.81098 47.1433 7.28191 47.1433 6.62514C47.1433 6.08999 47.2924 5.60349 47.5906 5.16564C47.8888 4.71563 48.3132 4.36292 48.8637 4.1075C49.4257 3.85209 50.068 3.72438 50.7905 3.72438C51.8686 3.72438 52.7345 4.01628 53.3883 4.60008C54.0535 5.17172 54.409 5.9562 54.4549 6.95353H52.4937C52.4593 6.50351 52.2872 6.14472 51.9776 5.87715C51.6679 5.60957 51.2493 5.47578 50.7217 5.47578C50.2056 5.47578 49.8099 5.57916 49.5346 5.78593C49.2594 5.99269 49.1217 6.26635 49.1217 6.6069C49.1217 6.87447 49.2135 7.09948 49.397 7.28191C49.5805 7.46435 49.8042 7.6103 50.068 7.71976C50.3317 7.81706 50.7217 7.94477 51.2378 8.10288C51.926 8.29748 52.488 8.49816 52.9238 8.70493C53.3711 8.89952 53.7553 9.19142 54.0764 9.58062C54.3976 9.96982 54.5639 10.4867 54.5753 11.1313C54.5753 11.703 54.4263 12.2138 54.1281 12.6638C53.8299 13.1138 53.4055 13.4665 52.855 13.722C52.3159 13.9774 51.6794 14.1051 50.9454 14.1051Z" fill="black"/>
    <path d="M69.1892 8.62488L67.7678 10.1101V13.9409H66.915V3.23535H67.7678V9.00722L72.9403 3.23535H74.015L69.7855 7.9999L74.3409 13.9409H73.3008L69.1892 8.62488Z" fill="black"/>
    <path d="M78.8299 14.0879C78.192 14.0879 77.6142 13.9213 77.0965 13.5879C76.5834 13.2546 76.1836 12.7914 75.897 12.1983C75.6104 11.6003 75.4671 10.9312 75.4671 10.191V9.87484C75.4671 9.11016 75.6058 8.42145 75.8831 7.80873C76.1651 7.196 76.5557 6.71563 77.0549 6.3676C77.5541 6.01467 78.095 5.83821 78.6774 5.83821C79.588 5.83821 80.3091 6.16908 80.8407 6.83082C81.3768 7.48766 81.6449 8.38714 81.6449 9.52926V10.0219H76.2922V10.191C76.2922 11.0929 76.5349 11.8454 77.0203 12.4483C77.5102 13.0463 78.125 13.3453 78.8646 13.3453C79.3083 13.3453 79.6989 13.2595 80.0364 13.088C80.3784 12.9164 80.6881 12.6419 80.9655 12.2645L81.4855 12.6836C80.8753 13.6198 79.9901 14.0879 78.8299 14.0879ZM78.6774 6.58818C78.0534 6.58818 77.5264 6.83082 77.0965 7.3161C76.6713 7.80138 76.4124 8.45332 76.32 9.27192H80.8198V9.17633C80.7967 8.41165 80.591 7.78912 80.2028 7.30875C79.8145 6.82837 79.306 6.58818 78.6774 6.58818Z" fill="black"/>
    <path d="M86.5916 14.0879C85.9537 14.0879 85.3759 13.9213 84.8582 13.5879C84.3452 13.2546 83.9453 12.7914 83.6587 12.1983C83.3721 11.6003 83.2288 10.9312 83.2288 10.191V9.87484C83.2288 9.11016 83.3675 8.42145 83.6449 7.80873C83.9268 7.196 84.3174 6.71563 84.8166 6.3676C85.3158 6.01467 85.8567 5.83821 86.4391 5.83821C87.3497 5.83821 88.0708 6.16908 88.6024 6.83082C89.1386 7.48766 89.4067 8.38714 89.4067 9.52926V10.0219H84.0539V10.191C84.0539 11.0929 84.2966 11.8454 84.782 12.4483C85.2719 13.0463 85.8867 13.3453 86.6263 13.3453C87.07 13.3453 87.4606 13.2595 87.7981 13.088C88.1401 12.9164 88.4498 12.6419 88.7272 12.2645L89.2472 12.6836C88.637 13.6198 87.7518 14.0879 86.5916 14.0879ZM86.4391 6.58818C85.8151 6.58818 85.2881 6.83082 84.8582 7.3161C84.433 7.80138 84.1741 8.45332 84.0817 9.27192H88.5816V9.17633C88.5584 8.41165 88.3528 7.78912 87.9645 7.30875C87.5762 6.82837 87.0677 6.58818 86.4391 6.58818Z" fill="black"/>
    <path d="M97.4804 10.0439C97.4804 11.2841 97.2215 12.2694 96.7038 12.9997C96.1861 13.7252 95.4928 14.0879 94.6237 14.0879C93.5976 14.0879 92.8118 13.7056 92.2663 12.9409V16.9996H91.4412V5.98526H92.2109L92.2525 7.11022C92.7933 6.26221 93.5768 5.83821 94.6029 5.83821C95.4997 5.83821 96.2023 6.19849 96.7107 6.91905C97.2238 7.63962 97.4804 8.63958 97.4804 9.91895V10.0439ZM96.6483 9.88954C96.6483 8.87487 96.4519 8.07343 96.059 7.48521C95.6661 6.89699 95.1183 6.60289 94.4157 6.60289C93.9073 6.60289 93.4705 6.73278 93.1053 6.99258C92.7401 7.25237 92.4605 7.62981 92.2663 8.12489V11.9409C92.4651 12.3968 92.7494 12.7448 93.1192 12.985C93.489 13.2252 93.9258 13.3453 94.4296 13.3453C95.1276 13.3453 95.6707 13.0512 96.059 12.463C96.4519 11.8699 96.6483 11.0121 96.6483 9.88954Z" fill="black"/>
    <path d="M102.656 14.0879C102.018 14.0879 101.44 13.9213 100.922 13.5879C100.409 13.2546 100.01 12.7914 99.723 12.1983C99.4364 11.6003 99.2931 10.9312 99.2931 10.191V9.87484C99.2931 9.11016 99.4318 8.42145 99.7091 7.80873C99.9911 7.196 100.382 6.71563 100.881 6.3676C101.38 6.01467 101.921 5.83821 102.503 5.83821C103.414 5.83821 104.135 6.16908 104.667 6.83082C105.203 7.48766 105.471 8.38714 105.471 9.52926V10.0219H100.118V10.191C100.118 11.0929 100.361 11.8454 100.846 12.4483C101.336 13.0463 101.951 13.3453 102.691 13.3453C103.134 13.3453 103.525 13.2595 103.862 13.088C104.204 12.9164 104.514 12.6419 104.791 12.2645L105.311 12.6836C104.701 13.6198 103.816 14.0879 102.656 14.0879ZM102.503 6.58818C101.879 6.58818 101.352 6.83082 100.922 7.3161C100.497 7.80138 100.238 8.45332 100.146 9.27192H104.646V9.17633C104.623 8.41165 104.417 7.78912 104.029 7.30875C103.64 6.82837 103.132 6.58818 102.503 6.58818Z" fill="black"/>
    <path d="M110.979 6.73523C110.804 6.70092 110.616 6.68377 110.418 6.68377C109.9 6.68377 109.461 6.83817 109.1 7.14699C108.744 7.4509 108.49 7.89451 108.338 8.47782V13.9409H107.512V5.98526H108.324L108.338 7.24992C108.777 6.30878 109.482 5.83821 110.452 5.83821C110.683 5.83821 110.866 5.87007 111 5.93379L110.979 6.73523Z" fill="black"/>
    <path d="M56.6719 3.61979L59.3981 0.728792L62.1243 3.61979L59.3981 6.51079L56.6719 3.61979Z" fill="#3059ED" stroke="#284FDC"/>
</svg>
