<svg viewBox="0 0 216 80" fill="none" xmlns="http://www.w3.org/2000/svg">
<path d="M215.191 0H134.954V80H215.191V0Z" fill="url(#paint0_linear)"/>
<path d="M16.278 31.5581L9.83059 46.4089H6.42606L0 31.5581H3.72371L8.256 42.1659L12.8522 31.5581H16.278Z" fill="url(#paint1_linear)"/>
<path d="M29.3079 44.4838V46.4091H21.9189V37.2599H29.1324V39.1852H24.4086V40.8559H28.5897V42.6857H24.4086V44.4838H29.3079Z" fill="black"/>
<path d="M46.3056 37.2599V46.4091H44.231L40.002 41.365V46.4091H37.5283V37.2599H39.603L43.8321 42.3198V37.2599H46.3056Z" fill="black"/>
<path d="M56.872 39.217H53.9834V37.2599H62.282V39.217H59.3934V46.4091H56.872V39.217Z" fill="black"/>
<path d="M74.2085 46.5841C72.8466 46.5841 71.7827 46.2182 71.0167 45.4862C70.2507 44.7543 69.8677 43.7465 69.8677 42.463V37.2599H72.3892V42.3834C72.3892 43.0941 72.5434 43.6298 72.852 43.9905C73.1711 44.3512 73.634 44.5315 74.2404 44.5315C74.8362 44.5315 75.2883 44.3512 75.5969 43.9905C75.9054 43.6298 76.0597 43.0941 76.0597 42.3834V37.2599H78.5492V42.463C78.5492 43.7465 78.1663 44.7543 77.4002 45.4862C76.6342 46.2182 75.5703 46.5841 74.2085 46.5841Z" fill="black"/>
<path d="M93.1818 44.5951H88.8889L88.1229 46.4091H85.6812L89.7985 37.2599H92.2881L96.4214 46.4091H93.9318L93.1818 44.5951ZM92.4158 42.7812L91.0434 39.4716L89.6549 42.7812H92.4158Z" fill="black"/>
<path d="M107.964 43.9587H106.416V46.4091H103.895V37.2599H108.076C109.342 37.2599 110.348 37.5622 111.092 38.1669C111.837 38.7609 112.209 39.583 112.209 40.6332C112.209 41.3014 112.044 41.8849 111.714 42.3834C111.395 42.8713 110.938 43.2532 110.342 43.529L112.385 46.4091H109.672L107.964 43.9587ZM109.672 40.6332C109.672 40.177 109.522 39.8269 109.225 39.583C108.927 39.339 108.486 39.217 107.9 39.217H106.416V42.0493H107.9C108.486 42.0493 108.927 41.9273 109.225 41.6833C109.522 41.4394 109.672 41.0893 109.672 40.6332Z" fill="black"/>
<path d="M125.212 43.37V46.4091H122.691V43.37L118.988 37.2599H121.653L124.031 41.1582L126.392 37.2599H128.93L125.212 43.37Z" fill="black"/>
<path d="M147.639 31.5581H154.406C156.023 31.5581 157.449 31.8693 158.684 32.4916C159.931 33.0998 160.896 33.9625 161.577 35.0799C162.272 36.1973 162.619 37.4985 162.619 38.9836C162.619 40.4686 162.272 41.7699 161.577 42.8872C160.896 44.0045 159.931 44.8743 158.684 45.4967C157.449 46.1048 156.023 46.409 154.406 46.409H147.639V31.5581ZM154.236 43.5873C155.726 43.5873 156.91 43.1772 157.79 42.3568C158.684 41.5224 159.129 40.3979 159.129 38.9836C159.129 37.5692 158.684 36.4518 157.79 35.6315C156.91 34.797 155.726 34.3798 154.236 34.3798H151.087V43.5873H154.236Z" fill="white"/>
<path d="M178.012 43.2267H171.097L169.777 46.409H166.246L172.885 31.5581H176.289L182.949 46.409H179.331L178.012 43.2267ZM176.927 40.6172L174.565 34.9314L172.204 40.6172H176.927Z" fill="white"/>
<path d="M194.692 46.6636C193.146 46.6636 191.748 46.3311 190.499 45.6664C189.266 45.0017 188.293 44.0894 187.584 42.9296C186.889 41.7557 186.542 40.4404 186.542 38.9836C186.542 37.5267 186.889 36.2185 187.584 35.0586C188.293 33.8848 189.266 32.9655 190.499 32.3007C191.748 31.6359 193.146 31.3036 194.692 31.3036C196.238 31.3036 197.628 31.6359 198.862 32.3007C200.096 32.9655 201.068 33.8848 201.777 35.0586C202.487 36.2185 202.842 37.5267 202.842 38.9836C202.842 40.4404 202.487 41.7557 201.777 42.9296C201.068 44.0894 200.096 45.0017 198.862 45.6664C197.628 46.3311 196.238 46.6636 194.692 46.6636ZM194.692 43.7358C195.571 43.7358 196.366 43.5378 197.075 43.1417C197.784 42.7316 198.337 42.1659 198.734 41.4445C199.145 40.7232 199.352 39.9029 199.352 38.9836C199.352 38.0643 199.145 37.2439 198.734 36.5225C198.337 35.8012 197.784 35.2425 197.075 34.8465C196.366 34.4364 195.571 34.2313 194.692 34.2313C193.812 34.2313 193.018 34.4364 192.309 34.8465C191.599 35.2425 191.039 35.8012 190.627 36.5225C190.231 37.2439 190.032 38.0643 190.032 38.9836C190.032 39.9029 190.231 40.7232 190.627 41.4445C191.039 42.1659 191.599 42.7316 192.309 43.1417C193.018 43.5378 193.812 43.7358 194.692 43.7358Z" fill="white"/>
<defs>
<linearGradient id="paint0_linear" x1="198.671" y1="-5.5091" x2="116.567" y2="55.8309" gradientUnits="userSpaceOnUse">
<stop stop-color="#3CE700"/>
<stop offset="0.567708" stop-color="#0BC91E"/>
</linearGradient>
<linearGradient id="paint1_linear" x1="12.9264" y1="30.5355" x2="-2.64618" y2="43.25" gradientUnits="userSpaceOnUse">
<stop stop-color="#3CE700"/>
<stop offset="0.567708" stop-color="#0BC91E"/>
</linearGradient>
</defs>
</svg>
