<svg width="69" height="69" viewBox="0 0 69 69" fill="none" xmlns="http://www.w3.org/2000/svg">
<g clip-path="url(#clip0)">
<path d="M68.498 34.5C68.498 53.2777 53.2757 68.5 34.498 68.5C15.7204 68.5 0.498047 53.2777 0.498047 34.5C0.498047 15.7223 15.7204 0.5 34.498 0.5C53.2757 0.5 68.498 15.7223 68.498 34.5Z" fill="white" stroke="#D1D1D1"/>
<ellipse cx="19.8453" cy="19.984" rx="2.4" ry="2.4" fill="white"/>
<ellipse cx="60.7841" cy="42.0927" rx="3.69231" ry="3.69231" fill="white"/>
<ellipse cx="52.9839" cy="25.7085" rx="2.03077" ry="2.03077" fill="white"/>
<ellipse cx="14.6773" cy="40.939" rx="2.03077" ry="2.03077" fill="white"/>
<path d="M15.1953 58.1992C30.8717 53.6963 39.1059 54.2525 53.26 58.1992" stroke="#D1D1D1" stroke-linecap="round"/>
<line x1="44.6495" y1="40.2017" x2="42.4429" y2="56.062" stroke="#D1D1D1"/>
<line y1="-0.5" x2="16.0131" y2="-0.5" transform="matrix(0.137803 0.99046 0.99046 -0.137804 44.9844 40.5449)" stroke="#D1D1D1"/>
<line x1="23.962" y1="40.6138" x2="21.7554" y2="56.4741" stroke="#D1D1D1"/>
<line y1="-0.5" x2="16.0131" y2="-0.5" transform="matrix(0.137803 0.99046 0.99046 -0.137803 24.2949 40.1328)" stroke="#D1D1D1"/>
<path opacity="0.05" d="M58.3596 34.4034C58.3596 41.9677 54.8897 48.7215 49.4548 53.16C36.431 50.6085 30.7075 50.4706 18.856 53.16C13.4211 48.7215 9.95117 41.9677 9.95117 34.4034C9.95117 21.0358 20.7878 10.1992 34.1554 10.1992C47.523 10.1992 58.3596 21.0358 58.3596 34.4034Z" fill="#0500FF"/>
<ellipse cx="8.63037" cy="38.0308" rx="2.03076" ry="2.03077" fill="white"/>
<ellipse cx="26.2144" cy="9.64601" rx="2.03077" ry="2.03077" fill="white"/>
<ellipse cx="21.23" cy="11.6773" rx="2.03076" ry="2.03077" fill="white"/>
<ellipse cx="12.646" cy="48.9683" rx="2.03077" ry="2.03077" fill="white"/>
<path d="M42.9277 4.08534C42.9277 3.02748 43.7853 2.16992 44.8432 2.16992H56.9202C57.9781 2.16992 58.8356 3.02748 58.8356 4.08534V12.0562C58.8356 13.1141 57.9781 13.9716 56.9202 13.9716H53.0861C52.9099 13.9716 52.7379 14.0256 52.5933 14.1263L46.9075 18.0858C46.5997 18.3002 46.1777 18.0818 46.175 17.7067L46.1537 14.8276C46.1501 14.3538 45.7651 13.9716 45.2914 13.9716L44.8431 13.9716C43.7853 13.9716 42.9277 13.1141 42.9277 12.0562V4.08534Z" fill="white" stroke="url(#paint0_linear)" stroke-linecap="round" stroke-linejoin="round"/>
<ellipse cx="46.3524" cy="10.5457" rx="0.422699" ry="0.422693" fill="url(#paint1_linear)"/>
<ellipse cx="48.0438" cy="10.5457" rx="0.422699" ry="0.422693" fill="url(#paint2_linear)"/>
<ellipse cx="49.7352" cy="10.5457" rx="0.422709" ry="0.422693" fill="url(#paint3_linear)"/>
<path d="M54.7572 9.59856C54.7572 9.41806 54.7065 9.27498 54.6052 9.16932C54.5061 9.06146 54.3365 8.96241 54.0964 8.87216C53.8564 8.78191 53.6493 8.69276 53.4753 8.60471C53.3013 8.51446 53.1516 8.4121 53.026 8.29764C52.9027 8.18097 52.8058 8.0445 52.7353 7.88821C52.667 7.73192 52.6329 7.54592 52.6329 7.3302C52.6329 6.95819 52.7518 6.65332 52.9897 6.41559C53.2276 6.17786 53.5436 6.03918 53.9379 5.99956V5.29297H54.4665V6.00947C54.8563 6.0645 55.1614 6.22739 55.3816 6.49814C55.6019 6.76669 55.712 7.11558 55.712 7.54482H54.7572C54.7572 7.28067 54.7021 7.08366 54.592 6.95379C54.4841 6.82172 54.3387 6.75568 54.1559 6.75568C53.9753 6.75568 53.8354 6.80741 53.7363 6.91087C53.6372 7.01212 53.5877 7.153 53.5877 7.3335C53.5877 7.50079 53.6361 7.63507 53.733 7.73633C53.8299 7.83758 54.0094 7.94104 54.2715 8.0467C54.5358 8.15236 54.7528 8.25251 54.9224 8.34717C55.092 8.43962 55.2351 8.54528 55.3519 8.66414C55.4686 8.78081 55.5578 8.91508 55.6195 9.06696C55.6811 9.21665 55.712 9.39165 55.712 9.59196C55.712 9.96616 55.5952 10.2699 55.3618 10.5033C55.1283 10.7366 54.8068 10.8742 54.3971 10.916V11.5731H53.8718V10.9193C53.4203 10.8709 53.0701 10.7113 52.8212 10.4405C52.5745 10.1676 52.4512 9.80548 52.4512 9.35422H53.406C53.406 9.61617 53.4676 9.81758 53.591 9.95846C53.7165 10.0971 53.896 10.1665 54.1295 10.1665C54.3233 10.1665 54.4764 10.1158 54.5887 10.0146C54.701 9.91113 54.7572 9.77246 54.7572 9.59856Z" fill="url(#paint4_linear)"/>
<line x1="60.9062" y1="5.27539" x2="68.9979" y2="5.27539" stroke="#D1D1D1"/>
<line x1="60.9062" y1="7.93359" x2="66.5825" y2="7.93359" stroke="#D1D1D1"/>
<line x1="60.9062" y1="10.4688" x2="64.1671" y2="10.4688" stroke="#D1D1D1"/>
<path d="M19.5022 18.896C19.5606 18.5008 20.1305 18.5008 20.1889 18.896L20.2471 19.29C20.2695 19.4414 20.3883 19.5603 20.5397 19.5827L20.9338 19.6409C21.3289 19.6992 21.3289 20.2692 20.9338 20.3276L20.5397 20.3858C20.3883 20.4081 20.2695 20.527 20.2471 20.6784L20.1889 21.0725C20.1305 21.4676 19.5606 21.4676 19.5022 21.0725L19.444 20.6784C19.4216 20.527 19.3028 20.4081 19.1514 20.3858L18.7573 20.3276C18.3622 20.2692 18.3622 19.6992 18.7573 19.6409L19.1514 19.5827C19.3028 19.5603 19.4216 19.4414 19.444 19.29L19.5022 18.896Z" fill="#C4C4C4"/>
<path d="M60.2378 40.3557C60.331 39.7252 61.2405 39.7252 61.3336 40.3557L61.4265 40.9846C61.4622 41.2262 61.6519 41.4159 61.8935 41.4516L62.5224 41.5445C63.1529 41.6376 63.1529 42.5471 62.5224 42.6403L61.8935 42.7332C61.6519 42.7688 61.4622 42.9585 61.4265 43.2001L61.3336 43.829C61.2405 44.4596 60.331 44.4596 60.2378 43.829L60.1449 43.2001C60.1093 42.9585 59.9195 42.7688 59.678 42.7332L59.0491 42.6403C58.4185 42.5471 58.4185 41.6376 59.0491 41.5445L59.678 41.4516C59.9195 41.4159 60.1093 41.2262 60.1449 40.9846L60.2378 40.3557Z" fill="#C4C4C4"/>
<path d="M1.6597 56.8323C1.75284 56.2017 2.66237 56.2017 2.75551 56.8323L2.84839 57.4612C2.88407 57.7028 3.07378 57.8925 3.31537 57.9281L3.94424 58.021C4.5748 58.1142 4.5748 59.0237 3.94424 59.1168L3.31537 59.2097C3.07378 59.2454 2.88407 59.4351 2.84839 59.6767L2.75551 60.3056C2.66237 60.9361 1.75284 60.9361 1.6597 60.3056L1.56682 59.6767C1.53113 59.4351 1.34143 59.2454 1.09984 59.2097L0.470967 59.1168C-0.159594 59.0237 -0.159593 58.1142 0.470968 58.021L1.09984 57.9281C1.34143 57.8925 1.53113 57.7028 1.56682 57.4612L1.6597 56.8323Z" fill="#C4C4C4"/>
<path d="M4.17799 1.45065C4.23636 1.05551 4.80631 1.05551 4.86468 1.45065L4.92288 1.84473C4.94524 1.99612 5.06412 2.115 5.21551 2.13736L5.6096 2.19557C6.00474 2.25393 6.00474 2.82389 5.6096 2.88225L5.21551 2.94046C5.06412 2.96282 4.94524 3.0817 4.92288 3.23309L4.86468 3.62717C4.80631 4.02231 4.23636 4.02231 4.17799 3.62717L4.11979 3.23309C4.09743 3.0817 3.97855 2.96282 3.82716 2.94046L3.43307 2.88225C3.03793 2.82389 3.03793 2.25393 3.43307 2.19557L3.82716 2.13736C3.97855 2.115 4.09743 1.99612 4.11979 1.84473L4.17799 1.45065Z" fill="#C4C4C4"/>
<ellipse cx="19.2926" cy="6.96842" rx="0.646153" ry="0.646152" fill="#C4C4C4"/>
<ellipse cx="8.63053" cy="38.0309" rx="0.646159" ry="0.646152" fill="#C4C4C4"/>
<ellipse cx="67.9385" cy="15.0459" rx="1.06154" ry="1.06154" fill="#C4C4C4"/>
<ellipse cx="4.66115" cy="26.2608" rx="1.06154" ry="1.06154" fill="#C4C4C4"/>
<ellipse cx="56.7243" cy="31.1071" rx="0.646154" ry="0.646153" fill="#C4C4C4"/>
<path d="M52.752 11.2422L53.4904 11.2348C53.4904 11.2348 53.4983 11.4931 53.4974 11.6587C53.4966 11.8219 53.4863 12.0765 53.4863 12.0765L52.7603 12.0729L52.752 11.2422Z" fill="white"/>
<path d="M52.752 12.6992L53.4904 12.6918C53.4904 12.6918 53.4983 12.9501 53.4974 13.1157C53.4966 13.2789 53.4863 13.5335 53.4863 13.5335L52.7603 13.53L52.752 12.6992Z" fill="white"/>
<path d="M36.6371 9.0975C37.0792 9.70534 38.945 12.3861 40.7904 15.8673C42.6417 19.3598 44.4418 23.6019 44.8028 27.3472C45.0994 30.4251 45.1005 35.795 45.1004 39.2992C45.1004 43.7701 43.8557 45.8295 42.0752 46.8428C41.157 47.3654 40.0494 47.6389 38.7867 47.7776C37.5224 47.9165 36.141 47.9171 34.6795 47.9171C31.7435 47.9171 29.1877 47.8008 27.3523 46.6926C25.5864 45.6263 24.3733 43.5549 24.373 39.2992C24.3729 35.8095 24.5002 30.43 24.7973 27.3472C25.1587 23.5978 26.9013 19.3533 28.6923 15.8613C30.4787 12.3785 32.2841 9.69953 32.722 9.0975C32.8065 8.98127 32.881 8.86389 32.9501 8.73542C33.6939 7.35382 35.6652 7.35382 36.409 8.73542C36.4781 8.86389 36.5525 8.98126 36.6371 9.0975Z" fill="white" stroke="#0500FF" stroke-linecap="round" stroke-linejoin="round"/>
<path d="M33.3105 47.7815L33.1261 47.1785C32.4866 45.0881 31.8156 42.8148 31.3048 40.8912C31.0493 39.9291 30.8352 39.0592 30.6854 38.3459C30.5328 37.6197 30.4554 37.0941 30.4554 36.801C30.4554 34.5185 32.3388 32.6541 34.6797 32.6541C37.0205 32.6541 38.904 34.5185 38.904 36.801C38.904 37.0941 38.8266 37.6197 38.674 38.3459C38.5241 39.0592 38.31 39.9291 38.0546 40.8912C37.5438 42.8148 36.8727 45.0881 36.2333 47.1785L36.0488 47.7815H36.0484L35.9395 48.1338C35.4721 49.645 35.0399 51.0051 34.7237 51.9898C34.7199 52.0016 34.7161 52.0073 34.7145 52.0095C34.7136 52.0107 34.7127 52.0117 34.7117 52.0126C34.7109 52.0133 34.7101 52.014 34.7093 52.0145C34.7048 52.0176 34.6947 52.0221 34.6797 52.0221C34.6647 52.0221 34.6545 52.0176 34.6501 52.0145C34.6482 52.0132 34.6466 52.0118 34.6448 52.0095C34.6432 52.0073 34.6394 52.0016 34.6356 51.9898C34.3195 51.0051 33.8873 49.645 33.4199 48.1338L33.311 47.7815H33.3105ZM45.2558 43.2464L44.9011 43.2344C45.0194 42.7904 45.0885 42.3258 45.1019 41.8459C45.1698 39.428 45.2111 36.5865 45.1638 33.7836L45.3342 33.9097C46.4271 34.718 48.2774 36.1964 49.8494 37.9879C51.4378 39.798 52.6602 41.8359 52.6602 43.7713L52.6601 51.883C52.6601 51.895 52.6583 51.9006 52.6577 51.9021C52.657 51.9039 52.6561 51.9057 52.6539 51.9083C52.6489 51.9143 52.6351 51.9258 52.6108 51.9325C52.5866 51.9391 52.5659 51.937 52.5537 51.9329C52.5459 51.9302 52.5363 51.9257 52.5246 51.9071C51.6135 50.4647 50.2367 48.3554 48.9093 46.5972C48.2469 45.7197 47.5868 44.9163 46.9963 44.3248C46.7015 44.0296 46.4125 43.7754 46.1394 43.59C45.8793 43.4134 45.5733 43.2571 45.2558 43.2464ZM24.0251 33.9097L24.1956 33.7836C24.1482 36.5866 24.1896 39.428 24.2574 41.8459C24.2709 42.3258 24.3399 42.7904 24.4583 43.2344L24.1036 43.2464C23.7861 43.2571 23.4801 43.4134 23.22 43.59C22.9469 43.7754 22.6578 44.0296 22.3631 44.3248C21.7726 44.9163 21.1125 45.7197 20.45 46.5972C19.1227 48.3554 17.7459 50.4647 16.8348 51.9071C16.823 51.9257 16.8135 51.9302 16.8057 51.9329C16.7934 51.937 16.7727 51.9391 16.7485 51.9325C16.7243 51.9258 16.7105 51.9143 16.7054 51.9083C16.7033 51.9057 16.7023 51.9039 16.7017 51.9021C16.7011 51.9006 16.6992 51.895 16.6992 51.883L16.6992 43.7713C16.6992 41.8359 17.9216 39.798 19.51 37.9879C21.082 36.1964 22.9322 34.718 24.0251 33.9097Z" fill="white" stroke="#0500FF"/>
<path d="M38.4919 20.8091C38.4919 22.8652 36.7951 24.546 34.6844 24.546C32.5738 24.546 30.877 22.8652 30.877 20.8091C30.877 18.7531 32.5738 17.0723 34.6844 17.0723C36.7951 17.0723 38.4919 18.7531 38.4919 20.8091Z" fill="white" stroke="#0500FF"/>
<path d="M29.957 13.1581C33.5928 12.6285 35.631 12.5944 39.2667 13.1581" stroke="#0500FF"/>
<path d="M32.1816 27.916C34.2417 28.4341 35.3238 28.3701 37.1839 27.916" stroke="#0500FF" stroke-linecap="round"/>
</g>
<defs>
<linearGradient id="paint0_linear" x1="55.8544" y1="0.499158" x2="38.4485" y2="13.3936" gradientUnits="userSpaceOnUse">
<stop stop-color="#3CE700"/>
<stop offset="0.567708" stop-color="#0BC91E"/>
</linearGradient>
<linearGradient id="paint1_linear" x1="46.601" y1="10.0648" x2="45.7341" y2="10.7106" gradientUnits="userSpaceOnUse">
<stop stop-color="#3CE700"/>
<stop offset="0.567708" stop-color="#0BC91E"/>
</linearGradient>
<linearGradient id="paint2_linear" x1="48.2924" y1="10.0648" x2="47.4255" y2="10.7106" gradientUnits="userSpaceOnUse">
<stop stop-color="#3CE700"/>
<stop offset="0.567708" stop-color="#0BC91E"/>
</linearGradient>
<linearGradient id="paint3_linear" x1="49.9838" y1="10.0648" x2="49.117" y2="10.7106" gradientUnits="userSpaceOnUse">
<stop stop-color="#3CE700"/>
<stop offset="0.567708" stop-color="#0BC91E"/>
</linearGradient>
<linearGradient id="paint4_linear" x1="55.0406" y1="4.8605" x2="50.5181" y2="6.60969" gradientUnits="userSpaceOnUse">
<stop stop-color="#3CE700"/>
<stop offset="0.567708" stop-color="#0BC91E"/>
</linearGradient>
<clipPath id="clip0">
<rect width="69" height="69" fill="white"/>
</clipPath>
</defs>
</svg>
