<svg width="13" height="16" viewBox="0 0 13 16" fill="none" xmlns="http://www.w3.org/2000/svg">
    <path fill-rule="evenodd" clip-rule="evenodd" d="M7.68121 3.60056C7.68121 1.98783 7.12612 0 7.12612 0C10.0591 2.34788 12.0019 5.95594 12.0019 9.99906C12.0019 13.3146 9.31646 16 6.00094 16C2.68539 16 0 13.3146 0 9.99906C0 7.46366 0.907613 5.13083 2.42287 3.33052L2.40034 3.60056C2.40034 5.1458 3.57057 6.39853 5.1233 6.39853C6.66855 6.39853 7.68121 5.1458 7.68121 3.60056ZM3.36802 11.3943C3.36802 12.6995 4.44815 13.7496 5.78341 13.7496C7.77122 13.7496 9.38397 12.1369 9.38397 10.1491C9.38397 9.10642 9.23388 8.08626 8.9414 7.1186C8.17628 8.14627 6.80349 8.78386 5.47586 9.05391C4.15568 9.32395 3.36802 10.1791 3.36802 11.3943Z" fill="#0BC91F"/>
</svg>
