<svg width="14" height="16" viewBox="0 0 14 16" fill="none" xmlns="http://www.w3.org/2000/svg">
    <path d="M8.55556 14.4C8.55556 14.8243 8.39167 15.2313 8.09994 15.5314C7.80822 15.8314 7.41256 16 7 16C6.58744 16 6.19178 15.8314 5.90006 15.5314C5.60833 15.2313 5.44444 14.8243 5.44444 14.4H8.55556ZM7 0C7.20628 0 7.40411 0.0842854 7.54997 0.234315C7.69583 0.384344 7.77778 0.587827 7.77778 0.8V1.664C9.98667 2.048 11.6667 4.024 11.6667 6.4V11.2L14 13.6H0L2.33333 11.2V6.4C2.33333 4.024 4.01333 2.048 6.22222 1.664V0.8C6.22222 0.587827 6.30417 0.384344 6.45003 0.234315C6.59589 0.0842854 6.79372 0 7 0Z" fill="#ABB3AC"/>
</svg>
