<svg width="38" height="38" viewBox="0 0 38 38" fill="none" xmlns="http://www.w3.org/2000/svg">
<path fill-rule="evenodd" clip-rule="evenodd" d="M38 19C38 29.4934 29.4934 38 19 38C8.50659 38 0 29.4934 0 19H1.5C1.5 28.665 9.33502 36.5 19 36.5C28.665 36.5 36.5 28.665 36.5 19C36.5 9.33502 28.665 1.5 19 1.5C13.8217 1.5 9.16875 3.7491 5.96465 7.32372L9.53804 10.8971L1.59619 10.8781L1.5772 2.93626L4.90253 6.26159C8.37939 2.41618 13.4075 0 19 0C29.4934 0 38 8.50659 38 19ZM18.5 9C18.0858 9 17.75 9.33579 17.75 9.75L17.7244 19.2565C17.7221 19.2942 17.7238 19.3331 17.73 19.3729C17.7577 19.6498 17.8857 19.8203 18.0564 19.901L24.679 26.5303C24.9719 26.8232 25.4468 26.8232 25.7397 26.5303C26.0326 26.2374 26.0326 25.7626 25.7397 25.4697L19.25 18.98V9.75C19.25 9.33579 18.9142 9 18.5 9Z" fill="#0BC91F"/>
</svg>
