<svg width="70" height="69" viewBox="0 0 70 69" fill="none" xmlns="http://www.w3.org/2000/svg">
<g clip-path="url(#clip0)">
<circle cx="35.0488" cy="34.5" r="34" fill="white" stroke="#D1D1D1"/>
<path d="M61.764 29.4739C61.946 30.4581 62.0755 31.4609 62.1496 32.4793L61.6509 32.5156C61.6985 33.1709 61.7228 33.8329 61.7228 34.5007C61.7228 35.1685 61.6985 35.8305 61.6509 36.4858L62.1496 36.5221C62.0755 37.5405 61.946 38.5433 61.764 39.5275L61.2723 39.4365C61.0292 40.7512 60.6907 42.0318 60.2645 43.2708L60.7373 43.4334C60.4067 44.3943 60.0243 45.3306 59.5934 46.239L59.1417 46.0247C58.5719 47.226 57.9157 48.3775 57.1813 49.471L57.5964 49.7497C57.0316 50.5907 56.4214 51.3979 55.7694 52.1677L55.3879 51.8446C54.5319 52.8553 53.6026 53.8004 52.6082 54.6715L52.9377 55.0476C52.1779 55.7132 51.3808 56.3364 50.55 56.9136L50.2647 56.503C49.1815 57.2556 48.0401 57.9283 46.8486 58.5129L47.0689 58.9618C46.1654 59.4052 45.2337 59.7988 44.2771 60.1393L44.1095 59.6682C42.8746 60.1077 41.5976 60.4569 40.2863 60.7078L40.3802 61.1989C39.397 61.387 38.3948 61.5209 37.3768 61.5975L37.3392 61.0989C36.6845 61.1482 36.0229 61.1733 35.3555 61.1733C34.6881 61.1733 34.0266 61.1482 33.3718 61.0989L33.3343 61.5975C32.3163 61.5209 31.3141 61.387 30.3308 61.1989L30.4248 60.7078C29.1135 60.4569 27.8365 60.1077 26.6016 59.6682L26.4339 60.1393C25.4774 59.7988 24.5457 59.4052 23.6422 58.9618L23.8624 58.5129C22.671 57.9283 21.5296 57.2556 20.4464 56.503L20.1611 56.9136C19.3303 56.3364 18.5332 55.7132 17.7734 55.0476L18.1029 54.6715C17.1085 53.8004 16.1792 52.8553 15.3232 51.8446L14.9417 52.1677C14.2897 51.3979 13.6795 50.5907 13.1147 49.7497L13.5298 49.471C12.7954 48.3775 12.1392 47.226 11.5694 46.0247L11.1176 46.239C10.6868 45.3306 10.3044 44.3943 9.9738 43.4334L10.4466 43.2708C10.0204 42.0318 9.6819 40.7512 9.43877 39.4365L8.94711 39.5275C8.7651 38.5433 8.63555 37.5405 8.5615 36.5221L9.06018 36.4858C9.01253 35.8305 8.98828 35.1685 8.98828 34.5007C8.98828 33.8329 9.01253 33.1709 9.06018 32.5156L8.5615 32.4793C8.63555 31.4609 8.7651 30.4581 8.9471 29.4739L9.43877 29.5649C9.6819 28.2502 10.0204 26.9696 10.4466 25.7306L9.97381 25.568C10.3044 24.6071 10.6868 23.6708 11.1177 22.7624L11.5694 22.9767C12.1392 21.7754 12.7954 20.6239 13.5298 19.5304L13.1147 19.2516C13.6795 18.4107 14.2897 17.6035 14.9417 16.8336L15.3232 17.1568C16.1792 16.1461 17.1085 15.201 18.1029 14.3299L17.7734 13.9538C18.5332 13.2882 19.3303 12.665 20.1611 12.0878L20.4464 12.4984C21.5296 11.7458 22.671 11.0731 23.8624 10.4884L23.6422 10.0396C24.5457 9.59622 25.4774 9.20256 26.4339 8.86211L26.6016 9.33316C27.8365 8.89365 29.1135 8.54451 30.4248 8.29361L30.3308 7.80252C31.3141 7.61438 32.3163 7.48044 33.3343 7.40386L33.3718 7.90245C34.0266 7.8532 34.6881 7.82812 35.3555 7.82812C36.0229 7.82812 36.6845 7.8532 37.3392 7.90245L37.3768 7.40386C38.3948 7.48044 39.397 7.61438 40.3802 7.80252L40.2863 8.29361C41.5976 8.54451 42.8746 8.89365 44.1095 9.33316L44.2771 8.86211C45.2337 9.20256 46.1654 9.59622 47.0689 10.0396L46.8486 10.4884C48.0401 11.0731 49.1815 11.7458 50.2647 12.4984L50.55 12.0878C51.3808 12.665 52.1779 13.2882 52.9377 13.9538L52.6082 14.3299C53.6026 15.201 54.5319 16.1461 55.3879 17.1568L55.7694 16.8336C56.4214 17.6035 57.0316 18.4107 57.5964 19.2516L57.1813 19.5304C57.9157 20.6239 58.5719 21.7754 59.1417 22.9767L59.5934 22.7624C60.0243 23.6708 60.4067 24.6071 60.7373 25.568L60.2645 25.7306C60.6907 26.9696 61.0292 28.2502 61.2723 29.5649L61.764 29.4739Z" stroke="#D1D1D1" stroke-dasharray="4 3"/>
<ellipse cx="16.1201" cy="15.8754" rx="3.35841" ry="3.0531" fill="white"/>
<path d="M69.0158 23.5963C70.4328 28.6992 68.4817 27.9171 66.8343 28.2425C65.1869 28.5678 63.4927 27.0152 63.0502 24.7746C62.6076 22.534 63.5844 20.4538 65.2317 20.1284C66.8791 19.8031 67.7199 18.9292 69.0158 23.5963Z" fill="white"/>
<ellipse cx="59.4743" cy="23.2042" rx="2.74779" ry="2.44248" fill="white"/>
<ellipse cx="14.8982" cy="53.4294" rx="2.74779" ry="2.74779" fill="white"/>
<ellipse rx="2.44248" ry="2.44248" transform="matrix(-1 0 0 1 45.1239 2.44248)" fill="white"/>
<ellipse cx="6.72477" cy="54.4142" rx="2.51188" ry="2.51188" fill="white"/>
<path d="M15.9714 14.437C16.0486 13.9142 16.8026 13.9142 16.8799 14.437L16.9569 14.9584C16.9864 15.1587 17.1437 15.3159 17.344 15.3455L17.8654 15.4225C18.3882 15.4998 18.3882 16.2538 17.8654 16.331L17.344 16.408C17.1437 16.4376 16.9864 16.5949 16.9569 16.7952L16.8799 17.3166C16.8026 17.8393 16.0486 17.8393 15.9714 17.3166L15.8944 16.7952C15.8648 16.5949 15.7075 16.4376 15.5072 16.408L14.9858 16.331C14.4631 16.2538 14.4631 15.4998 14.9858 15.4225L15.5072 15.3455C15.7075 15.3159 15.8648 15.1587 15.8944 14.9584L15.9714 14.437Z" fill="#C4C4C4"/>
<path d="M66.1211 21.9592C66.2369 21.1751 67.368 21.1751 67.4838 21.9592L67.5994 22.7413C67.6437 23.0417 67.8796 23.2776 68.1801 23.322L68.9621 23.4375C69.7463 23.5533 69.7463 24.6844 68.9621 24.8002L68.1801 24.9158C67.8796 24.9601 67.6437 25.1961 67.5994 25.4965L67.4838 26.2786C67.368 27.0627 66.2369 27.0627 66.1211 26.2785L66.0056 25.4965C65.9612 25.1961 65.7253 24.9601 65.4249 24.9158L64.6428 24.8002C63.8586 24.6844 63.8586 23.5533 64.6428 23.4375L65.4249 23.322C65.7253 23.2776 65.9612 23.0417 66.0056 22.7413L66.1211 21.9592Z" fill="#C4C4C4"/>
<path d="M2.60414 7.91308C2.71934 7.13314 3.84435 7.13314 3.95955 7.91308L4.07444 8.69094C4.11858 8.98976 4.35323 9.22441 4.65205 9.26855L5.42991 9.38344C6.20985 9.49863 6.20985 10.6236 5.42991 10.7388L4.65205 10.8537C4.35323 10.8979 4.11858 11.1325 4.07444 11.4313L3.95955 12.2092C3.84435 12.9891 2.71934 12.9891 2.60414 12.2092L2.48925 11.4313C2.44512 11.1325 2.21047 10.8979 1.91164 10.8537L1.13379 10.7388C0.353841 10.6236 0.353842 9.49863 1.13379 9.38344L1.91165 9.26855C2.21047 9.22441 2.44512 8.98976 2.48925 8.69094L2.60414 7.91308Z" fill="#C4C4C4"/>
<path d="M3.67076 54.7103C3.74295 54.2216 4.44793 54.2216 4.52011 54.7103L4.59211 55.1978C4.61977 55.385 4.76681 55.5321 4.95406 55.5597L5.4415 55.6317C5.93025 55.7039 5.93025 56.4089 5.4415 56.4811L4.95406 56.5531C4.76681 56.5807 4.61977 56.7278 4.59211 56.915L4.52011 57.4025C4.44793 57.8912 3.74295 57.8912 3.67076 57.4025L3.59876 56.915C3.57111 56.7278 3.42407 56.5807 3.23681 56.5531L2.74937 56.4811C2.26063 56.4089 2.26063 55.7039 2.74937 55.6317L3.23681 55.5597C3.42407 55.5321 3.57111 55.385 3.59876 55.1978L3.67076 54.7103Z" fill="#C4C4C4"/>
<ellipse cx="52.643" cy="0.799232" rx="0.799229" ry="0.799232" fill="#C4C4C4"/>
<ellipse cx="14.8984" cy="52.8183" rx="0.915929" ry="0.91593" fill="#C4C4C4"/>
<circle cx="66.5884" cy="67.2603" r="1.31303" fill="#C4C4C4"/>
<ellipse cx="4.30521" cy="66.649" rx="1.31303" ry="1.31303" fill="#C4C4C4"/>
<ellipse cx="68.3287" cy="57.399" rx="1.22124" ry="1.22124" fill="#C4C4C4"/>
<ellipse cx="58.8632" cy="23.5097" rx="0.91593" ry="0.915929" fill="#C4C4C4"/>
<ellipse cx="65.58" cy="38.164" rx="0.915928" ry="0.91593" fill="#C4C4C4"/>
<ellipse cx="14.8984" cy="1.52726" rx="0.915929" ry="0.915929" fill="#C4C4C4"/>
<path d="M56.9182 22.5693C54.3591 25.8974 48.8936 25.988 45.1344 23.0974C41.3752 20.2068 39.7649 14.6754 42.324 11.3473C44.8831 8.01916 43.2178 3.1608 54.4018 11.0452C66.4925 19.569 59.4773 19.2412 56.9182 22.5693Z" fill="white"/>
<circle opacity="0.05" cx="35.2757" cy="34.5453" r="20.723" fill="#0500FF"/>
<path d="M34.1305 34.3251C34.054 33.478 34.0834 32.8868 34.0834 32.1127C34.4659 31.9114 35.1515 30.6282 35.2673 29.5441C35.5681 29.5194 36.0425 29.2251 36.1813 28.0632C36.2563 27.4394 35.9586 27.0884 35.7773 26.978C36.2668 25.5019 37.2835 20.9353 33.8968 20.4634C33.5482 19.8496 32.6557 19.5391 31.4959 19.5391C26.8554 19.6247 26.2957 23.0526 27.313 26.978C27.1322 27.0884 26.8345 27.4394 26.9089 28.0632C27.0483 29.2251 27.5221 29.5194 27.8229 29.5441C27.9382 30.6276 28.651 31.9114 29.0347 32.1127C29.0347 32.8868 29.0635 33.478 28.987 34.3251C28.1242 36.6507 22.6022 36.1778 21.7012 40.0723C21.5931 40.5395 21.9053 40.9827 22.3619 41.1258C30.0929 43.5481 34.4004 43.6652 40.8062 41.1586C41.224 40.9952 41.4977 40.5719 41.4029 40.1324C40.548 36.1729 34.9977 36.6626 34.1305 34.3251Z" fill="white" stroke="#0500FF" stroke-miterlimit="10" stroke-linecap="round"/>
<path d="M17.9237 38.0833C17.9997 37.241 17.9706 36.6532 17.9706 35.8835C17.5906 35.6833 16.9096 34.4073 16.7946 33.3293C16.4958 33.3048 16.0246 33.0122 15.8867 31.8568C15.8122 31.2366 16.1079 30.8875 16.2881 30.7778C15.8018 29.31 14.7919 24.7692 18.1559 24.3C18.5021 23.6897 19.3887 23.3809 20.5407 23.3809C25.15 23.466 25.706 26.8745 24.6955 30.7778C24.8751 30.8875 25.1708 31.2366 25.0969 31.8568C24.9584 33.0122 24.4878 33.3048 24.189 33.3293C24.0745 34.4068 23.3665 35.6833 22.9854 35.8835C22.9854 36.6532 22.9568 37.241 23.0328 38.0833C23.8898 40.3958 29.3747 39.9256 30.2697 43.7981C30.3771 44.2627 30.0669 44.7034 29.6134 44.8456C21.9343 47.2543 17.6557 47.3707 11.2929 44.8783C10.8779 44.7157 10.606 44.2949 10.7002 43.8579C11.5493 39.9207 17.0624 40.4077 17.9237 38.0833Z" fill="white" stroke="#0500FF" stroke-miterlimit="10" stroke-linecap="round"/>
<path d="M46.0175 35.12C46.0935 34.2729 46.0643 33.6817 46.0643 32.9076C45.6843 32.7064 45.0034 31.4231 44.8883 30.339C44.5895 30.3143 44.1184 30.02 43.9804 28.8581C43.906 28.2344 44.2017 27.8833 44.3818 27.773C43.8956 26.2968 42.8856 21.7302 46.2497 21.2583C46.5959 20.6446 47.4824 20.334 48.6345 20.334C53.2437 20.4196 53.7997 23.8475 52.7893 27.773C52.9689 27.8833 53.2646 28.2344 53.1906 28.8581C53.0522 30.02 52.5816 30.3143 52.2827 30.339C52.1682 31.4226 51.4602 32.7064 51.0791 32.9076C51.0791 33.6817 51.0505 34.2729 51.1265 35.12C51.9835 37.4456 57.4684 36.9727 58.3634 40.8673C58.4708 41.3344 58.1606 41.7777 57.7071 41.9207C50.028 44.343 45.7494 44.4602 39.3866 41.9536C38.9716 41.7901 38.6997 41.3669 38.7939 40.9274C39.643 36.9678 45.1561 37.4575 46.0175 35.12Z" fill="white" stroke="#0500FF" stroke-miterlimit="10" stroke-linecap="round"/>
<g opacity="0.15">
<path d="M32.0034 21.3193C31.6562 21.3022 31.3134 21.2853 31.3649 21.1473C31.4501 20.9191 32.5041 20.5884 32.8118 20.7032C33.0047 20.7752 33.3217 20.9623 33.5106 21.1482C33.5928 21.2291 33.71 21.282 33.8246 21.2949C34.1138 21.3273 34.5068 21.4942 34.6998 21.6242C34.9921 21.8211 35.3379 22.9818 35.1836 23.211C35.0903 23.3495 34.8652 23.0556 34.6372 22.7579C34.4879 22.5629 34.3373 22.3662 34.2216 22.2883C34.0471 22.1708 33.7694 21.9497 33.6069 21.7418C33.5291 21.6424 33.405 21.5704 33.2794 21.5585C33.0428 21.536 32.7538 21.4514 32.582 21.3873C32.4602 21.3418 32.2308 21.3305 32.0034 21.3193Z" fill="#0500FF"/>
<path d="M32.8086 29.9832C32.8086 30.093 32.334 30.1819 31.7486 30.1819C31.1632 30.1819 30.6886 30.093 30.6886 29.9832C30.6886 29.8734 31.1632 29.7845 31.7486 29.7845C32.334 29.7845 32.8086 29.8734 32.8086 29.9832Z" fill="#0500FF"/>
<path d="M30.4092 27.1287C30.2301 27.2154 30.0052 27.267 29.7611 27.267C29.1757 27.267 28.7012 26.9704 28.7012 26.6045C28.7012 26.2386 29.1757 25.942 29.7611 25.942C29.9086 25.942 30.0569 25.9514 30.2054 25.9609C30.4294 25.9752 30.6536 25.9895 30.8754 25.9713C31.1074 25.9523 31.3566 25.942 31.6161 25.942C31.838 25.942 32.0523 25.9495 32.2548 25.9636C32.4444 25.9768 32.6353 25.9663 32.8261 25.9559C32.9529 25.9489 33.0797 25.942 33.2061 25.942C33.7915 25.942 34.266 26.2386 34.266 26.6045C34.266 26.9704 33.7915 27.267 33.2061 27.267C32.8712 27.267 32.5726 27.1699 32.3784 27.0184C32.3447 26.9921 32.304 26.9769 32.2613 26.9799C32.1724 26.9861 32.1051 27.0652 32.1136 27.154C32.1345 27.3714 32.1461 27.6112 32.1461 27.8632C32.1461 28.1787 32.1866 28.4075 32.2159 28.5729C32.2784 28.9253 32.2897 28.9894 31.7486 28.9894C31.5891 28.9894 31.5914 28.9164 31.6046 28.4977C31.6096 28.3401 31.6161 28.1334 31.6161 27.8632C31.6161 27.6262 31.6111 27.4 31.6065 27.193C31.6042 27.0868 31.5175 27.0021 31.4114 26.9998C31.2605 26.9966 31.1138 26.9899 30.973 26.98C30.7771 26.9663 30.586 27.0432 30.4092 27.1287Z" fill="#0500FF"/>
</g>
<g opacity="0.15">
<path d="M24.3597 28.1585C24.2354 28.3695 23.9144 27.881 23.5487 27.3244C23.2291 26.8379 22.8753 26.2995 22.5889 26.1307C22.4166 26.0292 22.1688 25.9142 21.9066 25.7923C21.2338 25.4799 20.4659 25.1232 20.6335 24.8386C20.8664 24.4432 22.3831 24.978 22.9973 25.3398C23.6114 25.7016 24.5926 27.7631 24.3597 28.1585Z" fill="#0500FF"/>
<path d="M21.8144 33.6933C21.8144 33.8031 21.3399 33.8921 20.7545 33.8921C20.169 33.8921 19.6945 33.8031 19.6945 33.6933C19.6945 33.5835 20.169 33.4946 20.7545 33.4946C21.3399 33.4946 21.8144 33.5835 21.8144 33.6933Z" fill="#0500FF"/>
<path d="M19.4151 30.8389C19.2359 30.9255 19.0111 30.9771 18.767 30.9771C18.1816 30.9771 17.707 30.6805 17.707 30.3146C17.707 29.9487 18.1816 29.6521 18.767 29.6521C18.9145 29.6521 19.0628 29.6616 19.2112 29.671C19.4352 29.6853 19.6595 29.6996 19.8813 29.6814C20.1132 29.6624 20.3625 29.6521 20.622 29.6521C20.8438 29.6521 21.0582 29.6597 21.2607 29.6737C21.4503 29.6869 21.6412 29.6764 21.832 29.666C21.9588 29.659 22.0856 29.6521 22.2119 29.6521C22.7973 29.6521 23.2719 29.9487 23.2719 30.3146C23.2719 30.6805 22.7973 30.9771 22.2119 30.9771C21.8771 30.9771 21.5785 30.88 21.3842 30.7285C21.3505 30.7022 21.3099 30.687 21.2672 30.69C21.1783 30.6963 21.111 30.7754 21.1195 30.8641C21.1404 31.0815 21.152 31.3213 21.152 31.5733C21.152 31.8888 21.1925 32.1176 21.2218 32.283C21.2842 32.6354 21.2956 32.6995 20.7545 32.6995C20.595 32.6995 20.5973 32.6265 20.6105 32.2078C20.6154 32.0502 20.622 31.8435 20.622 31.5733C20.622 31.3363 20.6169 31.1101 20.6124 30.9031C20.61 30.797 20.5234 30.7122 20.4173 30.7099C20.2663 30.7067 20.1197 30.7 19.9788 30.6902C19.7829 30.6765 19.5919 30.7534 19.4151 30.8389Z" fill="#0500FF"/>
</g>
<path d="M37.7599 39.3602C37.6838 38.5131 37.713 37.9219 37.713 37.1479C38.093 36.9466 38.774 35.6633 38.889 34.5792C39.1878 34.5545 39.6589 34.2602 39.7969 33.0984C39.8713 32.4746 39.5757 32.1236 39.3955 32.0132C39.8818 30.5371 40.8917 25.9705 37.5277 25.4986C37.1815 24.8848 36.2949 24.5742 35.1429 24.5742C30.5336 24.6599 29.9776 28.0877 30.9881 32.0132C30.8085 32.1236 30.5128 32.4746 30.5867 33.0984C30.7252 34.2602 31.1958 34.5545 31.4946 34.5792C31.6091 35.6628 32.3171 36.9466 32.6982 37.1479C32.6982 37.9219 32.7268 38.5131 32.6508 39.3602C31.7938 41.6859 26.3089 41.2129 25.4139 45.1075C25.3065 45.5747 25.6167 46.0179 26.0702 46.1609C33.7493 48.5833 38.0279 48.7004 44.3907 46.1938C44.8057 46.0303 45.0776 45.6071 44.9834 45.1676C44.1343 41.208 38.6212 41.6978 37.7599 39.3602Z" fill="white" stroke="#0500FF" stroke-miterlimit="10" stroke-linecap="round"/>
<g opacity="0.15">
<path d="M34.1786 26.1961C34.0904 26.3638 34.505 26.4305 34.925 26.4982C35.2001 26.5425 35.4776 26.5872 35.6176 26.6608C35.918 26.8188 36.5395 27.0723 36.8098 26.9757C36.9283 27.4011 37.5085 28.0121 37.8454 28.3073C38.0196 28.46 38.2265 28.8157 38.4316 29.1684C38.7448 29.7068 39.0539 30.2383 39.2367 30.0298C39.5391 29.6846 39.2131 27.6994 38.7729 27.3135C38.3467 26.9401 37.2289 26.3455 36.8834 26.6209C36.7303 26.3284 36.286 25.9638 36.0238 25.8259C35.6699 25.6399 34.3245 25.9187 34.1786 26.1961Z" fill="#0500FF"/>
<path d="M35.5923 35.0833C36.1778 35.0833 36.6523 34.9943 36.6523 34.8845C36.6523 34.7748 36.1778 34.6858 35.5923 34.6858C35.0069 34.6858 34.5324 34.7748 34.5324 34.8845C34.5324 34.9943 35.0069 35.0833 35.5923 35.0833Z" fill="#0500FF"/>
<path d="M34.253 32.0301C34.0738 32.1167 33.849 32.1683 33.6049 32.1683C33.0195 32.1683 32.5449 31.8717 32.5449 31.5058C32.5449 31.1399 33.0195 30.8433 33.6049 30.8433C33.7524 30.8433 33.9007 30.8528 34.0491 30.8622C34.2731 30.8765 34.4974 30.8908 34.7191 30.8727C34.9511 30.8537 35.2004 30.8433 35.4599 30.8433C35.6817 30.8433 35.8961 30.8509 36.0986 30.8649C36.2881 30.8781 36.4791 30.8677 36.6699 30.8572C36.7967 30.8503 36.9235 30.8433 37.0498 30.8433C37.6352 30.8433 38.1098 31.1399 38.1098 31.5058C38.1098 31.8717 37.6352 32.1683 37.0498 32.1683C36.715 32.1683 36.4164 32.0713 36.2221 31.9197C36.1884 31.8934 36.1478 31.8782 36.1051 31.8812C36.0162 31.8875 35.9489 31.9666 35.9574 32.0553C35.9783 32.2728 35.9899 32.5126 35.9899 32.7645C35.9899 33.08 36.0304 33.3088 36.0597 33.4742C36.1221 33.8267 36.1335 33.8908 35.5924 33.8908C35.4329 33.8908 35.4352 33.8177 35.4484 33.3991C35.4533 33.2414 35.4599 33.0348 35.4599 32.7645C35.4599 32.5275 35.4548 32.3013 35.4503 32.0943C35.4479 31.9882 35.3613 31.9034 35.2552 31.9011C35.1042 31.8979 34.9576 31.8912 34.8167 31.8814C34.6208 31.8677 34.4298 31.9446 34.253 32.0301Z" fill="#0500FF"/>
</g>
<path d="M45.3981 42.6727C45.3216 41.8256 45.3509 41.2344 45.3509 40.4604C45.7335 40.2591 46.4191 38.9758 46.5349 37.8917C46.8357 37.867 47.31 37.5727 47.4489 36.4109C47.5239 35.7871 47.2262 35.4361 47.0449 35.3257C47.5344 33.8496 48.5511 29.283 45.1644 28.8111C44.8158 28.1973 43.9233 27.8867 42.7634 27.8867C38.123 27.9724 37.5633 31.4002 38.5806 35.3257C38.3998 35.4361 38.1021 35.7871 38.1765 36.4109C38.3159 37.5727 38.7897 37.867 39.0905 37.8917C39.2058 38.9753 39.9186 40.2591 40.3023 40.4604C40.3023 41.2344 40.3311 41.8256 40.2546 42.6727C39.3918 44.9984 33.8698 44.5254 32.9687 48.42C32.8606 48.8872 33.1729 49.3304 33.6295 49.4734C41.3605 51.8958 45.668 52.0129 52.0738 49.5063C52.4916 49.3428 52.7654 48.9196 52.6705 48.4801C51.8156 44.5205 46.2653 45.0103 45.3981 42.6727Z" fill="white" stroke="#0500FF" stroke-miterlimit="10" stroke-linecap="round"/>
<path d="M28.1715 45.1883C28.095 44.3412 28.1244 43.75 28.1244 42.976C28.507 42.7747 29.1925 41.4914 29.3083 40.4073C29.6091 40.3826 30.0835 40.0884 30.2223 38.9265C30.2973 38.3027 29.9996 37.9517 29.8183 37.8413C30.3078 36.3652 31.3245 31.7986 27.9378 31.3267C27.5893 30.7129 26.6967 30.4023 25.5369 30.4023C20.8965 30.488 20.3367 33.9158 21.354 37.8413C21.1732 37.9517 20.8755 38.3027 20.9499 38.9265C21.0893 40.0884 21.5631 40.3826 21.864 40.4073C21.9793 41.4909 22.692 42.7747 23.0757 42.976C23.0757 43.75 23.1045 44.3412 23.028 45.1883C22.1652 47.514 16.6432 47.0411 15.7422 50.9356C15.6341 51.4028 15.9464 51.846 16.4029 51.9891C24.1339 54.4114 28.4414 54.5285 34.8472 52.0219C35.265 51.8584 35.5388 51.4352 35.4439 50.9957C34.589 47.0362 29.0387 47.5259 28.1715 45.1883Z" fill="white" stroke="#0500FF" stroke-miterlimit="10" stroke-linecap="round"/>
<path d="M34.4882 50.0926C34.5642 49.2455 34.535 48.6543 34.535 47.8803C34.155 47.679 33.4741 46.3957 33.359 45.3116C33.0602 45.2869 32.5891 44.9927 32.4511 43.8308C32.3767 43.207 32.6724 42.856 32.8525 42.7456C32.3663 41.2695 31.3563 36.7029 34.7204 36.231C35.0666 35.6172 35.9531 35.3066 37.1052 35.3066C41.7144 35.3923 42.2704 38.8201 41.26 42.7456C41.4396 42.856 41.7353 43.207 41.6613 43.8308C41.5229 44.9927 41.0523 45.2869 40.7534 45.3116C40.6389 46.3952 39.9309 47.679 39.5498 47.8803C39.5498 48.6543 39.5212 49.2455 39.5972 50.0926C40.4542 52.4183 45.9391 51.9454 46.8341 55.8399C46.9415 56.3071 46.6313 56.7503 46.1779 56.8934C38.4987 59.3157 34.2201 59.4328 27.8573 56.9262C27.4423 56.7627 27.1704 56.3395 27.2647 55.9C28.1137 51.9405 33.6268 52.4302 34.4882 50.0926Z" fill="white" stroke="#0500FF" stroke-miterlimit="10" stroke-linecap="round"/>
<g opacity="0.15">
<path d="M24.3758 31.9832C24.2877 32.1509 24.7023 32.2176 25.1223 32.2853C25.3974 32.3296 25.6748 32.3743 25.8149 32.4479C26.1153 32.6059 26.7368 32.8595 27.0071 32.7628C27.1255 33.1882 27.7058 33.7992 28.0426 34.0944C28.2169 34.2471 28.4237 34.6028 28.6289 34.9555C28.942 35.4939 29.2511 36.0254 29.4339 35.8169C29.7364 35.4717 29.4104 33.4865 28.9701 33.1006C28.5439 32.7272 27.4261 32.1326 27.0806 32.408C26.9275 32.1155 26.4833 31.751 26.2211 31.613C25.8672 31.427 24.5217 31.7058 24.3758 31.9832Z" fill="#0500FF"/>
<path d="M25.7896 40.8704C26.375 40.8704 26.8496 40.7814 26.8496 40.6716C26.8496 40.5619 26.375 40.4729 25.7896 40.4729C25.2042 40.4729 24.7296 40.5619 24.7296 40.6716C24.7296 40.7814 25.2042 40.8704 25.7896 40.8704Z" fill="#0500FF"/>
<path d="M24.4503 37.8172C24.2711 37.9038 24.0463 37.9554 23.8022 37.9554C23.2168 37.9554 22.7422 37.6588 22.7422 37.2929C22.7422 36.927 23.2168 36.6304 23.8022 36.6304C23.9496 36.6304 24.098 36.6399 24.2464 36.6494C24.4704 36.6636 24.6946 36.6779 24.9164 36.6598C25.1484 36.6408 25.3976 36.6304 25.6571 36.6304C25.879 36.6304 26.0933 36.638 26.2958 36.652C26.4854 36.6652 26.6763 36.6548 26.8671 36.6443C26.994 36.6374 27.1208 36.6304 27.2471 36.6304C27.8325 36.6304 28.3071 36.927 28.3071 37.2929C28.3071 37.6588 27.8325 37.9554 27.2471 37.9554C26.9122 37.9554 26.6136 37.8584 26.4194 37.7068C26.3857 37.6805 26.345 37.6653 26.3024 37.6683C26.2134 37.6746 26.1461 37.7537 26.1546 37.8424C26.1755 38.0599 26.1871 38.2997 26.1871 38.5516C26.1871 38.8671 26.2277 39.0959 26.2569 39.2613C26.3194 39.6138 26.3307 39.6779 25.7896 39.6779C25.6301 39.6779 25.6324 39.6048 25.6456 39.1862C25.6506 39.0285 25.6571 38.8219 25.6571 38.5516C25.6571 38.3146 25.6521 38.0884 25.6475 37.8814C25.6452 37.7753 25.5585 37.6905 25.4524 37.6883C25.3015 37.6851 25.1549 37.6784 25.014 37.6685C24.8181 37.6548 24.627 37.7317 24.4503 37.8172Z" fill="#0500FF"/>
</g>
<g opacity="0.15">
<path d="M40.6292 40.2089C40.5719 40.3707 40.4 40.0928 40.1456 39.6815C39.7194 38.9925 39.0615 37.929 38.3222 37.929C37.593 37.6706 36.0757 36.993 36.229 36.5604C36.3823 36.1278 38.0999 36.4087 38.8291 36.6672C40.3642 36.9627 40.7825 39.7763 40.6292 40.2089Z" fill="#0500FF"/>
<path d="M38.2441 46.0154C38.2441 46.1251 37.7696 46.2141 37.1841 46.2141C36.5987 46.2141 36.1242 46.1251 36.1242 46.0154C36.1242 45.9056 36.5987 45.8166 37.1841 45.8166C37.7696 45.8166 38.2441 45.9056 38.2441 46.0154Z" fill="#0500FF"/>
<path d="M35.8448 43.1609C35.6656 43.2476 35.4408 43.2991 35.1967 43.2991C34.6113 43.2991 34.1367 43.0025 34.1367 42.6366C34.1367 42.2708 34.6113 41.9742 35.1967 41.9742C35.3442 41.9742 35.4925 41.9836 35.6409 41.9931C35.8649 42.0074 36.0892 42.0217 36.3109 42.0035C36.5429 41.9845 36.7922 41.9742 37.0516 41.9742C37.2735 41.9742 37.4879 41.9817 37.6904 41.9958C37.8799 42.0089 38.0709 41.9985 38.2617 41.988C38.3885 41.9811 38.5153 41.9742 38.6416 41.9742C39.227 41.9742 39.7016 42.2708 39.7016 42.6366C39.7016 43.0025 39.227 43.2991 38.6416 43.2991C38.3068 43.2991 38.0082 43.2021 37.8139 43.0505C37.7802 43.0242 37.7396 43.0091 37.6969 43.0121C37.608 43.0183 37.5407 43.0974 37.5492 43.1862C37.5701 43.4036 37.5816 43.6434 37.5816 43.8954C37.5816 44.2108 37.6222 44.4397 37.6515 44.605C37.7139 44.9575 37.7253 45.0216 37.1842 45.0216C37.0247 45.0216 37.027 44.9486 37.0402 44.5299C37.0451 44.3722 37.0517 44.1656 37.0517 43.8954C37.0517 43.6584 37.0466 43.4321 37.0421 43.2252C37.0397 43.119 36.9531 43.0342 36.847 43.032C36.696 43.0288 36.5494 43.0221 36.4085 43.0122C36.2126 42.9985 36.0216 43.0754 35.8448 43.1609Z" fill="#0500FF"/>
</g>
<g opacity="0.15">
<path d="M42.8995 29.8609C42.4742 29.8506 42.0544 29.8405 42.1191 29.6625C42.2262 29.3679 43.5215 28.9098 43.8973 29.0463C44.183 29.1501 44.6908 29.4644 44.8707 29.7386C44.8743 29.744 44.8815 29.7454 44.8871 29.742C45.279 29.5032 46.2173 30.4492 46.5219 30.9491C46.8265 31.4491 46.5433 33.4408 46.1514 33.6796C45.9145 33.8239 45.7787 33.2243 45.6411 32.6168C45.5509 32.2189 45.46 31.8176 45.3395 31.6197C45.2722 31.5094 45.1936 31.368 45.116 31.212C44.8463 30.6695 44.1772 30.1353 43.6078 29.9284C43.4591 29.8744 43.1781 29.8676 42.8995 29.8609Z" fill="#0500FF"/>
<path d="M44.207 38.3288C44.207 38.4386 43.7324 38.5276 43.147 38.5276C42.5616 38.5276 42.0871 38.4386 42.0871 38.3288C42.0871 38.2191 42.5616 38.1301 43.147 38.1301C43.7324 38.1301 44.207 38.2191 44.207 38.3288Z" fill="#0500FF"/>
<path d="M41.8077 35.4744C41.6285 35.561 41.4037 35.6126 41.1596 35.6126C40.5742 35.6126 40.0996 35.316 40.0996 34.9501C40.0996 34.5842 40.5742 34.2876 41.1596 34.2876C41.307 34.2876 41.4554 34.2971 41.6038 34.3065C41.8278 34.3208 42.052 34.3351 42.2738 34.3169C42.5058 34.2979 42.755 34.2876 43.0145 34.2876C43.2364 34.2876 43.4508 34.2952 43.6532 34.3092C43.8428 34.3224 44.0337 34.3119 44.2246 34.3015C44.3514 34.2946 44.4782 34.2876 44.6045 34.2876C45.1899 34.2876 45.6645 34.5842 45.6645 34.9501C45.6645 35.316 45.1899 35.6126 44.6045 35.6126C44.2696 35.6126 43.9711 35.5155 43.7768 35.364C43.7431 35.3377 43.7024 35.3225 43.6598 35.3255C43.5708 35.3318 43.5035 35.4109 43.5121 35.4996C43.533 35.717 43.5445 35.9568 43.5445 36.2088C43.5445 36.5243 43.5851 36.7531 43.6144 36.9185C43.6768 37.2709 43.6882 37.335 43.147 37.335C42.9876 37.335 42.9899 37.262 43.0031 36.8433C43.008 36.6857 43.0145 36.479 43.0145 36.2088C43.0145 35.9718 43.0095 35.7456 43.0049 35.5386C43.0026 35.4325 42.916 35.3477 42.8098 35.3454C42.6589 35.3422 42.5123 35.3355 42.3714 35.3257C42.1755 35.312 41.9845 35.3889 41.8077 35.4744Z" fill="#0500FF"/>
</g>
<g opacity="0.15">
<path d="M48.7729 21.2961C48.674 21.412 49.1742 21.6973 49.6809 21.9863C50.0128 22.1757 50.3475 22.3666 50.5186 22.5125C50.9508 22.8814 51.9234 23.6162 52.087 23.4244C52.2507 23.2326 51.4038 22.2869 50.9716 21.918C50.5394 21.5492 48.9365 21.1044 48.7729 21.2961Z" fill="#0500FF"/>
<path d="M50.0332 31.176C50.0332 31.2857 49.5586 31.3747 48.9732 31.3747C48.3878 31.3747 47.9132 31.2857 47.9132 31.176C47.9132 31.0662 48.3878 30.9772 48.9732 30.9772C49.5586 30.9772 50.0332 31.0662 50.0332 31.176Z" fill="#0500FF"/>
<path d="M47.6339 28.3215C47.4547 28.4082 47.2298 28.4597 46.9858 28.4597C46.4003 28.4597 45.9258 28.1631 45.9258 27.7972C45.9258 27.4314 46.4003 27.1348 46.9858 27.1348C47.1332 27.1348 47.2815 27.1442 47.43 27.1537C47.654 27.1679 47.8782 27.1822 48.1 27.1641C48.332 27.1451 48.5812 27.1348 48.8407 27.1348C49.0626 27.1348 49.2769 27.1423 49.4794 27.1564C49.669 27.1695 49.8599 27.1591 50.0507 27.1486C50.1775 27.1417 50.3043 27.1348 50.4307 27.1348C51.0161 27.1348 51.4906 27.4314 51.4906 27.7972C51.4906 28.1631 51.0161 28.4597 50.4307 28.4597C50.0958 28.4597 49.7972 28.3627 49.603 28.2111C49.5693 28.1848 49.5286 28.1697 49.4859 28.1727C49.397 28.1789 49.3297 28.258 49.3382 28.3467C49.3591 28.5642 49.3707 28.804 49.3707 29.056C49.3707 29.3714 49.4112 29.6003 49.4405 29.7656C49.503 30.1181 49.5143 30.1822 48.9732 30.1822C48.8137 30.1822 48.816 30.1092 48.8292 29.6905C48.8342 29.5328 48.8407 29.3262 48.8407 29.056C48.8407 28.819 48.8357 28.5927 48.8311 28.3857C48.8288 28.2796 48.7421 28.1948 48.636 28.1926C48.4851 28.1894 48.3384 28.1827 48.1976 28.1728C48.0017 28.1591 47.8106 28.236 47.6339 28.3215Z" fill="#0500FF"/>
</g>
<path d="M51.6757 18.8885C51.5654 19.0796 51.6309 19.324 51.822 19.4344C52.0131 19.5447 52.2575 19.4792 52.3679 19.2881L53.5764 17.1948C53.5865 17.1774 53.6131 17.1845 53.6131 17.2047C53.6131 17.4254 53.792 17.6043 54.0127 17.6043C54.2334 17.6043 54.4124 17.4254 54.4124 17.2047L54.4124 15.6234C54.4124 15.4806 54.3362 15.3487 54.2125 15.2773C54.0889 15.2059 53.9366 15.2059 53.8129 15.2773L52.4435 16.0679C52.2524 16.1783 52.1869 16.4227 52.2972 16.6138C52.4076 16.805 52.652 16.8704 52.8431 16.7601C52.8684 16.7455 52.8966 16.7738 52.8821 16.799L51.6757 18.8885Z" fill="url(#paint0_linear)"/>
<path d="M55.4472 20.7093C55.3901 20.9225 55.5166 21.1416 55.7298 21.1987C55.943 21.2558 56.1621 21.1293 56.2192 20.9161L56.8448 18.5813C56.85 18.562 56.8774 18.562 56.8825 18.5813C56.9396 18.7945 57.1588 18.921 57.372 18.8639C57.5851 18.8068 57.7116 18.5877 57.6545 18.3745L57.2453 16.8471C57.2083 16.7092 57.1006 16.6015 56.9627 16.5645C56.8248 16.5275 56.6776 16.567 56.5767 16.6679L55.4585 17.7861C55.3025 17.9421 55.3025 18.1952 55.4585 18.3512C55.6146 18.5073 55.8676 18.5073 56.0237 18.3512C56.0444 18.3305 56.0792 18.3506 56.0716 18.3789L55.4472 20.7093Z" fill="url(#paint1_linear)"/>
<path d="M48.5215 16.4772C48.3654 16.6332 48.3654 16.8863 48.5215 17.0423C48.6775 17.1984 48.9306 17.1984 49.0866 17.0423L50.7958 15.3331C50.8099 15.319 50.8336 15.3327 50.8285 15.352C50.7713 15.5652 50.8978 15.7843 51.111 15.8414C51.3242 15.8985 51.5433 15.772 51.6005 15.5588L52.0097 14.0314C52.0467 13.8935 52.0072 13.7464 51.9063 13.6454C51.8053 13.5445 51.6582 13.5051 51.5203 13.542L49.9929 13.9513C49.7797 14.0084 49.6532 14.2275 49.7103 14.4407C49.7674 14.6539 49.9866 14.7804 50.1997 14.7233C50.2281 14.7157 50.2482 14.7505 50.2274 14.7712L48.5215 16.4772Z" fill="url(#paint2_linear)"/>
<ellipse cx="61.6111" cy="7.93647" rx="7.62772" ry="7.62772" transform="rotate(-30 61.6111 7.93647)" fill="white" stroke="url(#paint3_linear)"/>
<path d="M61.6802 5.24023L63.0142 6.67243L64.4464 8.00641L63.0142 9.34039L61.6802 10.7726L60.3463 9.34039L58.9141 8.00641L60.3463 6.67243L61.6802 5.24023Z" fill="url(#paint4_linear)"/>
</g>
<defs>
<linearGradient id="paint0_linear" x1="51.0434" y1="19.3661" x2="54.5525" y2="19.9663" gradientUnits="userSpaceOnUse">
<stop stop-color="#3CE700"/>
<stop offset="0.567708" stop-color="#0BC91E"/>
</linearGradient>
<linearGradient id="paint1_linear" x1="54.2844" y1="20.7504" x2="57.7127" y2="21.3294" gradientUnits="userSpaceOnUse">
<stop stop-color="#3CE700"/>
<stop offset="0.567708" stop-color="#0BC91E"/>
</linearGradient>
<linearGradient id="paint2_linear" x1="48.4327" y1="17.3776" x2="51.8612" y2="17.9578" gradientUnits="userSpaceOnUse">
<stop stop-color="#3CE700"/>
<stop offset="0.567708" stop-color="#0BC91E"/>
</linearGradient>
<linearGradient id="paint3_linear" x1="66.0977" y1="-0.741794" x2="50.4543" y2="10.9109" gradientUnits="userSpaceOnUse">
<stop stop-color="#EAED4F"/>
<stop offset="0.567708" stop-color="#C4B000"/>
</linearGradient>
<linearGradient id="paint4_linear" x1="63.3073" y1="4.85926" x2="57.6343" y2="9.08509" gradientUnits="userSpaceOnUse">
<stop stop-color="#EAED4F"/>
<stop offset="0.567708" stop-color="#C4B000"/>
</linearGradient>
<clipPath id="clip0">
<rect width="69" height="69" fill="white" transform="translate(0.550781)"/>
</clipPath>
</defs>
</svg>
