<svg width="70" height="69" viewBox="0 0 70 69" fill="none" xmlns="http://www.w3.org/2000/svg">
<g clip-path="url(#clip0)">
<path d="M0.947121 29.7963C0.814224 30.7459 0.720062 31.7079 0.666267 32.6806L1.1655 32.7082C1.13065 33.3385 1.11299 33.9734 1.11299 34.6125C1.11299 35.2515 1.13065 35.8864 1.1655 36.5167L0.666267 36.5443C0.720062 37.517 0.814224 38.479 0.947121 39.4286L1.4423 39.3593C1.61974 40.6272 1.86722 41.8725 2.18071 43.0913L1.69646 43.2158C1.93842 44.1565 2.21913 45.0816 2.53678 45.9894L3.00872 45.8243C3.42999 47.0282 3.91723 48.2012 4.46609 49.3389L4.01576 49.5561C4.43671 50.4287 4.89336 51.2807 5.38383 52.1104L5.81425 51.856C6.46166 52.9511 7.16888 54.0068 7.93142 55.0185L7.53214 55.3194C8.11411 56.0915 8.72784 56.8384 9.37136 57.558L9.74407 57.2247C10.5904 58.1711 11.4891 59.0698 12.4355 59.9161L12.1022 60.2888C12.8218 60.9323 13.5686 61.5461 14.3407 62.128L14.6417 61.7287C15.6534 62.4913 16.709 63.1985 17.8042 63.8459L17.5498 64.2763C18.3795 64.7668 19.2315 65.2235 20.104 65.6444L20.3213 65.1941C21.459 65.7429 22.632 66.2302 23.8359 66.6514L23.6707 67.1234C24.5785 67.441 25.5037 67.7217 26.4443 67.9637L26.5689 67.4795C27.7877 67.7929 29.033 68.0404 30.3009 68.2179L30.2316 68.713C31.1811 68.8459 32.1431 68.9401 33.1159 68.9939L33.1435 68.4947C33.7737 68.5295 34.4086 68.5472 35.0477 68.5472C35.6868 68.5472 36.3217 68.5295 36.9519 68.4947L36.9795 68.9939C37.9523 68.9401 38.9143 68.8459 39.8638 68.713L39.7945 68.2179C41.0624 68.0404 42.3077 67.7929 43.5265 67.4795L43.6511 67.9637C44.5918 67.7217 45.5169 67.441 46.4247 67.1234L46.2595 66.6514C47.4635 66.2302 48.6364 65.7429 49.7741 65.1941L49.9914 65.6444C50.8639 65.2235 51.716 64.7668 52.5457 64.2763L52.2912 63.8459C53.3864 63.1985 54.4421 62.4913 55.4537 61.7287L55.7547 62.128C56.5268 61.546 57.2736 60.9323 57.9932 60.2888L57.6599 59.9161C58.6064 59.0698 59.505 58.1711 60.3513 57.2247L60.7241 57.558C61.3676 56.8384 61.9813 56.0915 62.5633 55.3194L62.164 55.0185C62.9265 54.0068 63.6338 52.9511 64.2812 51.856L64.7116 52.1104C65.2021 51.2807 65.6587 50.4286 66.0797 49.5561L65.6293 49.3389C66.1782 48.2012 66.6654 47.0282 67.0867 45.8243L67.5586 45.9894C67.8763 45.0816 68.157 44.1565 68.3989 43.2158L67.9147 43.0913C68.2282 41.8725 68.4757 40.6271 68.6531 39.3593L69.1483 39.4286C69.2812 38.479 69.3754 37.517 69.4291 36.5443L68.9299 36.5167C68.9648 35.8864 68.9824 35.2515 68.9824 34.6125C68.9824 33.9734 68.9648 33.3385 68.9299 32.7082L69.4291 32.6806C69.3754 31.7079 69.2812 30.7459 69.1483 29.7963L68.6531 29.8656C68.4757 28.5978 68.2282 27.3524 67.9147 26.1336L68.3989 26.0091C68.157 25.0684 67.8763 24.1433 67.5586 23.2355L67.0867 23.4006C66.6654 22.1967 66.1782 21.0237 65.6293 19.886L66.0797 19.6688C65.6587 18.7963 65.2021 17.9442 64.7116 17.1145L64.2812 17.3689C63.6338 16.2738 62.9265 15.2181 62.164 14.2064L62.5633 13.9055C61.9813 13.1334 61.3676 12.3865 60.7241 11.6669L60.3513 12.0002C59.505 11.0538 58.6064 10.1551 57.6599 9.30881L57.9932 8.9361C57.2736 8.29258 56.5268 7.67886 55.7547 7.09688L55.4537 7.49616C54.4421 6.73362 53.3864 6.0264 52.2912 5.37899L52.5457 4.94858C51.716 4.4581 50.8639 4.00145 49.9914 3.5805L49.7741 4.03084C48.6364 3.48197 47.4635 2.99474 46.2595 2.57346L46.4247 2.10152C45.5169 1.78387 44.5918 1.50317 43.6511 1.26121L43.5265 1.74545C42.3077 1.43196 41.0624 1.18448 39.7945 1.00704L39.8638 0.511865C38.9143 0.378971 37.9523 0.284803 36.9795 0.23101L36.9519 0.730247C36.3217 0.695394 35.6868 0.677734 35.0477 0.677734C34.4086 0.677734 33.7737 0.695394 33.1435 0.730248L33.1159 0.23101C32.1431 0.284804 31.1811 0.378971 30.2316 0.511866L30.3009 1.00704C29.033 1.18448 27.7877 1.43196 26.5689 1.74545L26.4443 1.26121C25.5037 1.50317 24.5785 1.78387 23.6707 2.10152L23.8359 2.57346C22.632 2.99474 21.459 3.48197 20.3213 4.03084L20.104 3.58051C19.2315 4.00145 18.3794 4.4581 17.5498 4.94858L17.8042 5.379C16.709 6.0264 15.6534 6.73362 14.6417 7.49617L14.3407 7.09689C13.5686 7.67886 12.8218 8.29258 12.1022 8.9361L12.4355 9.30881C11.4891 10.1552 10.5904 11.0538 9.74406 12.0002L9.37136 11.6669C8.72783 12.3865 8.11411 13.1334 7.53214 13.9055L7.93142 14.2064C7.16888 15.2181 6.46166 16.2738 5.81425 17.3689L5.38383 17.1145C4.89336 17.9442 4.43671 18.7963 4.01576 19.6688L4.46609 19.886C3.91723 21.0237 3.42999 22.1967 3.00872 23.4006L2.53678 23.2355C2.21913 24.1433 1.93842 25.0684 1.69646 26.0091L2.1807 26.1336C1.86722 27.3524 1.61974 28.5978 1.4423 29.8656L0.947121 29.7963Z" fill="white" stroke="#D1D1D1" stroke-dasharray="4 3"/>
<circle opacity="0.05" r="20.5" transform="matrix(-1 0 0 1 35.0508 35.5)" fill="#0500FF"/>
<ellipse rx="3.1359" ry="3.13592" transform="matrix(-1 0 0 1 53.8016 15.8566)" fill="white"/>
<ellipse rx="4.82448" ry="4.82448" transform="matrix(-1 0 0 1 17.9197 4.82448)" fill="white"/>
<ellipse rx="2.65347" ry="2.65346" transform="matrix(-1 0 0 1 10.5008 23.3351)" fill="white"/>
<circle r="2.65346" transform="matrix(-1 0 0 1 60.5575 43.2374)" fill="white"/>
<ellipse cx="51.388" cy="9.16461" rx="5.54815" ry="5.72906" fill="white"/>
<path d="M10.2586 21.3872C10.1823 20.8709 9.4376 20.8709 9.36134 21.3872L9.28528 21.9021C9.25607 22.1 9.10074 22.2553 8.90293 22.2845L8.38801 22.3606C7.8717 22.4368 7.87171 23.1815 8.38801 23.2578L8.90293 23.3339C9.10074 23.3631 9.25607 23.5184 9.28528 23.7162L9.36134 24.2311C9.4376 24.7474 10.1823 24.7474 10.2586 24.2311L10.3346 23.7162C10.3639 23.5184 10.5192 23.3631 10.717 23.3339L11.2319 23.2578C11.7482 23.1815 11.7482 22.4368 11.2319 22.3606L10.717 22.2845C10.5192 22.2553 10.3639 22.1 10.3346 21.9021L10.2586 21.3872Z" fill="#C4C4C4"/>
<path d="M18.6342 2.55543C18.5125 1.73152 17.3241 1.73152 17.2024 2.55543L17.081 3.37713C17.0344 3.6928 16.7865 3.94067 16.4709 3.9873L15.6492 4.10867C14.8253 4.23036 14.8253 5.41878 15.6492 5.54048L16.4709 5.66184C16.7865 5.70847 17.0344 5.95634 17.081 6.27201L17.2024 7.09371C17.3241 7.91762 18.5125 7.91762 18.6342 7.09371L18.7556 6.27201C18.8022 5.95634 19.0501 5.70847 19.3658 5.66184L20.1875 5.54048C21.0114 5.41878 21.0114 4.23036 20.1875 4.10867L19.3658 3.9873C19.0501 3.94067 18.8022 3.6928 18.7556 3.37713L18.6342 2.55543Z" fill="#C4C4C4"/>
<path d="M3.25858 0.387226C3.18233 -0.129076 2.4376 -0.129075 2.36134 0.387227L2.28529 0.902146C2.25607 1.09996 2.10074 1.25529 1.90293 1.2845L1.38801 1.36056C0.87171 1.43682 0.871711 2.18154 1.38801 2.2578L1.90293 2.33386C2.10074 2.36307 2.25607 2.5184 2.28529 2.71622L2.36134 3.23113C2.4376 3.74744 3.18233 3.74744 3.25858 3.23113L3.33464 2.71622C3.36386 2.5184 3.51918 2.36307 3.717 2.33386L4.23192 2.2578C4.74822 2.18154 4.74822 1.43682 4.23191 1.36056L3.717 1.2845C3.51918 1.25529 3.36386 1.09996 3.33464 0.902146L3.25858 0.387226Z" fill="#C4C4C4"/>
<ellipse rx="0.844284" ry="0.844294" transform="matrix(-1 0 0 1 1.39595 50.3287)" fill="#C4C4C4"/>
<ellipse rx="0.844262" ry="0.844284" transform="matrix(-1 0 0 1 67.8452 58.8443)" fill="#C4C4C4"/>
<ellipse rx="1.38703" ry="1.38703" transform="matrix(-1 0 0 1 65.3864 67.387)" fill="#C4C4C4"/>
<path d="M2.99936 65.387C2.99936 66.1531 3.62036 66.7741 4.3864 66.7741C5.15244 66.7741 5.77344 66.1531 5.77344 65.387C5.77344 64.621 5.15244 64 4.3864 64C3.62036 64 2.99936 64.621 2.99936 65.387Z" fill="#C4C4C4"/>
<ellipse rx="0.844284" ry="0.844281" transform="matrix(-1 0 0 1 52.8452 0.844281)" fill="#C4C4C4"/>
<path d="M60.918 30.6016L61.8713 30.4526C61.8713 30.4526 61.9303 30.7851 61.9604 30.9993C61.9901 31.2104 62.0249 31.5415 62.0249 31.5415L61.0856 31.6741L60.918 30.6016Z" fill="white"/>
<path d="M30.3457 68.0777C25.2933 67.624 19.8551 64.991 15.1928 62.0267C10.5422 59.0699 6.72045 55.8207 4.91026 54.1993C4.62754 53.9461 4.68335 53.4819 5.05883 53.302C5.78032 52.9563 6.11742 52.1353 5.89277 51.3873C5.31036 49.4482 5.08949 47.975 5.24276 46.4319C5.3649 45.2023 5.00461 43.9759 4.67796 42.864C4.66105 42.8065 4.64423 42.7492 4.62757 42.6923C4.27595 41.4906 3.9905 40.4186 4.16837 39.3847C4.89795 35.144 6.68346 32.5138 9.10583 30.661C11.5557 28.7871 14.6819 27.6863 18.1556 26.5695C22.1725 25.2781 25.512 25.2573 28.6297 26.2394C31.7622 27.2263 34.7151 29.2392 37.9319 32.0964C39.9927 33.9269 40.9968 36.3401 41.9494 38.8253C42.0064 38.9737 42.0631 39.1226 42.12 39.2718C42.9996 41.5787 43.9009 43.9425 45.6901 45.675C47.3991 47.3298 49.1782 48.726 51.0782 49.3232C53.0192 49.9333 55.0394 49.6953 57.1549 48.1885C58.1189 47.5019 58.7285 46.4771 59.1322 45.3885C59.5362 44.2992 59.749 43.105 59.8928 42.032C59.954 41.5749 60.0018 41.1509 60.0455 40.7633C60.1078 40.2109 60.1618 39.7324 60.2343 39.3376C60.2795 39.0917 60.3253 38.9232 60.367 38.8158C60.4879 38.8947 60.6216 39.0396 60.7748 39.2897C60.9608 39.5931 61.1308 39.9739 61.333 40.4265C61.3608 40.4885 61.3891 40.5519 61.4181 40.6166C61.8807 41.6475 62.495 42.9475 63.6973 43.79C64.642 44.452 65.8011 44.6818 66.7563 44.8713C66.8291 44.8857 66.9007 44.8999 66.971 44.9141C67.4883 45.0182 67.929 45.1165 68.2906 45.2617C68.5124 45.3508 68.6865 45.4507 68.8206 45.5668C68.6887 45.6591 68.5028 45.772 68.2622 45.9059C67.8673 46.1257 67.3812 46.3724 66.8382 46.648C66.4842 46.8276 66.1061 47.0195 65.7133 47.2243C64.7356 47.7338 63.6921 48.3107 62.8257 48.924C61.9801 49.5226 61.2149 50.2153 60.9077 50.9827C57.2414 60.1413 52.7089 64.6501 47.6048 66.7666C42.4674 68.8969 36.6657 68.6451 30.3457 68.0777ZM60.4251 38.7001C60.4251 38.7001 60.4247 38.7006 60.4239 38.7015L60.4251 38.7001Z" fill="white" stroke="#0500FF"/>
<path opacity="0.15" d="M20.6094 29.2333C27.4153 27.7172 33.1329 29.7659 37.9192 34.8903C41.1156 38.3124 41.6351 43.6617 44.2866 46.7574C46.7746 49.6623 49.9146 51.4346 53.8715 51.1629C58.0449 50.8764 60.4747 45.8698 60.4747 45.8698C60.4747 45.8698 60.5976 42.9169 62.2191 44.2947C63.5939 45.4629 65.4951 45.8644 64.3775 46.5412C61.6222 48.2096 60.1636 50.7529 58.9856 52.5786C50.5842 65.5989 41.8433 66.1828 30.9654 65.2207V65.2207C24.3026 64.6314 26.9774 53.393 29.7786 47.3191C30.0877 46.6489 30.3869 45.9362 30.68 45.1799C31.1747 43.9037 31.1249 42.3218 29.7737 42.1031C26.0757 41.5045 17.1333 44.1439 12.6881 42.1842C12.5728 42.1334 12.4633 42.0776 12.3567 42.0104C11.8414 41.6859 10.2911 40.546 10.6011 38.7441C11.8165 31.6795 14.8562 30.5148 20.6094 29.2333Z" fill="#0500FF"/>
<ellipse rx="1.25403" ry="1.45202" transform="matrix(0.985521 0.169552 -0.169559 0.98552 23.2143 41.3214)" fill="#0500FF"/>
<path d="M4.24727 40.2922C4.03933 40.1105 3.72346 40.1318 3.54176 40.3397C3.36006 40.5477 3.38134 40.8635 3.58928 41.0452L4.24727 40.2922ZM4.28672 53.3693C4.12108 53.5902 4.16592 53.9036 4.38687 54.0692C4.60782 54.2349 4.92121 54.19 5.08685 53.9691L4.28672 53.3693ZM3.58928 41.0452C11.3299 47.809 19.4418 46.1781 24.5183 44.6814C25.8115 44.3001 26.8456 43.948 27.698 43.7165C28.116 43.603 28.4544 43.5292 28.7198 43.501C28.9985 43.4714 29.1259 43.5008 29.1705 43.5222C29.183 43.5283 29.1799 43.5291 29.1765 43.524C29.175 43.5217 29.1869 43.5376 29.1934 43.5927C29.208 43.7168 29.1851 43.9477 29.0613 44.3362C28.8168 45.1043 28.2502 46.2781 27.282 48.012L28.1552 48.4995C29.1231 46.766 29.7359 45.5138 30.0142 44.6396C30.1519 44.2071 30.2263 43.8129 30.1865 43.4757C30.1424 43.1014 29.9533 42.7891 29.604 42.6211C29.3034 42.4765 28.9466 42.4713 28.6143 42.5066C28.2688 42.5433 27.8696 42.6337 27.4359 42.7514C26.5849 42.9826 25.459 43.3615 24.2355 43.7222C19.2455 45.1934 11.5853 46.7041 4.24727 40.2922L3.58928 41.0452ZM27.282 48.012C25.3904 51.4001 23.3083 53.0527 21.2292 53.7625C19.1367 54.4769 16.9678 54.2647 14.8478 53.7641C13.7882 53.5139 12.7572 53.196 11.7581 52.8931C10.7673 52.5927 9.80132 52.305 8.90535 52.1308C7.12496 51.7847 5.4242 51.8519 4.28672 53.3693L5.08685 53.9691C5.86159 52.9356 7.02792 52.7846 8.71454 53.1124C9.55207 53.2752 10.4696 53.5475 11.4679 53.8501C12.4579 54.1503 13.5216 54.4785 14.618 54.7373C16.8099 55.2549 19.1979 55.5127 21.5523 54.7089C23.92 53.9005 26.1748 52.0465 28.1552 48.4995L27.282 48.012Z" fill="#0500FF"/>
<path d="M27.957 62.041C29.2441 61.5753 29.891 61.3679 30.33 61.0662C31.5147 60.252 32.6582 59.1958 33.9524 59.8213C34.5353 60.103 35.0842 60.4463 35.623 60.8266C36.944 61.7588 38.753 61.2227 39.349 59.7197V59.7197C40.1288 57.7532 38.3997 54.9493 36.2844 54.9809C36.2026 54.9822 36.1208 54.9828 36.0388 54.9829C34.5439 54.9851 33.6815 53.3746 34.678 52.2604C35.1884 51.6896 35.305 51.5029 34.7596 49.7502" stroke="#0500FF" stroke-linecap="round" stroke-linejoin="round"/>
<path d="M51.8434 18.1496C51.7157 18.3296 51.7582 18.5791 51.9382 18.7068C52.1182 18.8344 52.3676 18.792 52.4953 18.612L53.8937 16.6405C53.9053 16.6241 53.9312 16.6337 53.9293 16.6537C53.9087 16.8734 54.0702 17.0682 54.2899 17.0888C54.5097 17.1094 54.7045 16.9479 54.7251 16.7282L54.8724 15.1538C54.8858 15.0116 54.8222 14.8732 54.7058 14.7906C54.5893 14.708 54.4376 14.6938 54.3079 14.7533L52.8707 15.4129C52.6701 15.505 52.5822 15.7422 52.6742 15.9428C52.7663 16.1434 53.0035 16.2314 53.2041 16.1393C53.2306 16.1271 53.2561 16.1579 53.2392 16.1817L51.8434 18.1496Z" fill="url(#paint0_linear)"/>
<path d="M55.4279 20.3128C55.3512 20.5197 55.4567 20.7497 55.6636 20.8264C55.8706 20.9032 56.1005 20.7976 56.1773 20.5907L57.0178 18.3244C57.0247 18.3057 57.052 18.3082 57.0553 18.3279C57.0923 18.5455 57.2987 18.6919 57.5163 18.6549C57.7339 18.6179 57.8802 18.4115 57.8432 18.1939L57.5781 16.635C57.5542 16.4942 57.457 16.377 57.3231 16.3273C57.1892 16.2777 57.0391 16.3032 56.9291 16.3943L55.7117 17.4034C55.5417 17.5442 55.5181 17.7961 55.659 17.9661C55.7998 18.136 56.0517 18.1596 56.2217 18.0187C56.2442 18 56.277 18.0233 56.2668 18.0508L55.4279 20.3128Z" fill="url(#paint1_linear)"/>
<path d="M48.9287 15.4531C48.7588 15.5939 48.7352 15.8459 48.876 16.0158C49.0169 16.1857 49.2688 16.2093 49.4387 16.0685L51.2998 14.526C51.3151 14.5132 51.3375 14.5291 51.3305 14.5478C51.2538 14.7547 51.3593 14.9847 51.5663 15.0614C51.7732 15.1382 52.0031 15.0326 52.0799 14.8257L52.6297 13.3431C52.6794 13.2092 52.6538 13.0591 52.5627 12.9491C52.4716 12.8392 52.3288 12.7862 52.1881 12.8102L50.6292 13.0753C50.4116 13.1123 50.2652 13.3187 50.3022 13.5363C50.3392 13.7539 50.5456 13.9002 50.7632 13.8632C50.7921 13.8583 50.8088 13.8948 50.7862 13.9136L48.9287 15.4531Z" fill="url(#paint2_linear)"/>
<ellipse cx="61.9743" cy="7.68061" rx="7.62772" ry="7.62772" transform="rotate(-30 61.9743 7.68061)" fill="white" stroke="url(#paint3_linear)"/>
<path d="M62.0435 4.98438L63.3775 6.41657L64.8097 7.75055L63.3775 9.08453L62.0435 10.5167L60.7095 9.08453L59.2773 7.75055L60.7095 6.41657L62.0435 4.98438Z" fill="url(#paint4_linear)"/>
</g>
<defs>
<linearGradient id="paint0_linear" x1="51.1693" y1="18.5663" x2="54.6073" y2="19.4909" gradientUnits="userSpaceOnUse">
<stop stop-color="#3CE700"/>
<stop offset="0.567708" stop-color="#0BC91E"/>
</linearGradient>
<linearGradient id="paint1_linear" x1="54.2664" y1="20.2454" x2="57.6258" y2="21.1414" gradientUnits="userSpaceOnUse">
<stop stop-color="#3CE700"/>
<stop offset="0.567708" stop-color="#0BC91E"/>
</linearGradient>
<linearGradient id="paint2_linear" x1="48.7564" y1="16.3413" x2="52.1159" y2="17.2385" gradientUnits="userSpaceOnUse">
<stop stop-color="#3CE700"/>
<stop offset="0.567708" stop-color="#0BC91E"/>
</linearGradient>
<linearGradient id="paint3_linear" x1="66.461" y1="-0.997653" x2="50.8176" y2="10.6551" gradientUnits="userSpaceOnUse">
<stop stop-color="#EAED4F"/>
<stop offset="0.567708" stop-color="#C4B000"/>
</linearGradient>
<linearGradient id="paint4_linear" x1="63.6706" y1="4.6034" x2="57.9976" y2="8.82923" gradientUnits="userSpaceOnUse">
<stop stop-color="#EAED4F"/>
<stop offset="0.567708" stop-color="#C4B000"/>
</linearGradient>
<clipPath id="clip0">
<rect width="69" height="69" fill="white" transform="translate(0.550781)"/>
</clipPath>
</defs>
</svg>
