<svg width="70" height="69" viewBox="0 0 70 69" fill="none" xmlns="http://www.w3.org/2000/svg">
<g clip-path="url(#clip0)">
<circle cx="35.0508" cy="34.5" r="34" fill="white" stroke="#D1D1D1" stroke-dasharray="4 3"/>
<ellipse opacity="0.05" cx="35.0508" cy="32.3992" rx="25.5" ry="25.2" fill="#0500FF"/>
<ellipse cx="20.5816" cy="18.7848" rx="2.4" ry="2.4" fill="white"/>
<ellipse cx="6.64348" cy="54.0927" rx="3.69231" ry="3.69231" fill="white"/>
<ellipse cx="53.7202" cy="24.5073" rx="2.03077" ry="2.03077" fill="white"/>
<path d="M55.1311 36.3432C55.1895 35.9481 55.7594 35.9481 55.8178 36.3432L55.876 36.7373C55.8984 36.8887 56.0172 37.0076 56.1686 37.0299L56.5627 37.0881C56.9579 37.1465 56.9579 37.7165 56.5627 37.7748L56.1686 37.833C56.0172 37.8554 55.8984 37.9743 55.876 38.1257L55.8178 38.5198C55.7594 38.9149 55.1895 38.9149 55.1311 38.5198L55.0729 38.1257C55.0506 37.9743 54.9317 37.8554 54.7803 37.833L54.3862 37.7748C53.9911 37.7165 53.9911 37.1465 54.3862 37.0881L54.7803 37.0299C54.9317 37.0076 55.0506 36.8887 55.0729 36.7373L55.1311 36.3432Z" fill="#C4C4C4"/>
<path d="M6.09525 52.3557C6.18838 51.7252 7.09791 51.7252 7.19105 52.3557L7.28393 52.9846C7.31962 53.2262 7.50932 53.4159 7.75091 53.4516L8.37978 53.5445C9.01034 53.6376 9.01034 54.5471 8.37978 54.6403L7.75091 54.7331C7.50932 54.7688 7.31962 54.9585 7.28393 55.2001L7.19105 55.829C7.09791 56.4595 6.18838 56.4595 6.09525 55.829L6.00236 55.2001C5.96668 54.9585 5.77697 54.7688 5.53538 54.7331L4.90651 54.6403C4.27595 54.5471 4.27595 53.6376 4.90651 53.5445L5.53538 53.4516C5.77697 53.4159 5.96668 53.2262 6.00236 52.9846L6.09525 52.3557Z" fill="#C4C4C4"/>
<path d="M8.19166 0.296355C8.25003 -0.0987852 8.81998 -0.0987847 8.87835 0.296355L8.93655 0.690437C8.95891 0.841827 9.07779 0.960706 9.22918 0.983066L9.62327 1.04127C10.0184 1.09964 10.0184 1.66959 9.62327 1.72796L9.22918 1.78616C9.07779 1.80852 8.95891 1.9274 8.93655 2.07879L8.87835 2.47288C8.81998 2.86802 8.25003 2.86801 8.19166 2.47287L8.13346 2.07879C8.1111 1.9274 7.99222 1.80852 7.84083 1.78616L7.44675 1.72796C7.05161 1.66959 7.05161 1.09964 7.44675 1.04127L7.84083 0.983066C7.99222 0.960706 8.1111 0.841827 8.13346 0.690437L8.19166 0.296355Z" fill="#C4C4C4"/>
<ellipse cx="2.39616" cy="13.8454" rx="0.646163" ry="0.646154" fill="#C4C4C4"/>
<circle cx="68.3962" cy="60.6462" r="0.646156" fill="#C4C4C4"/>
<ellipse cx="61.9815" cy="20.4932" rx="1.06154" ry="1.06154" fill="#C4C4C4"/>
<ellipse cx="22.0127" cy="10.6611" rx="1.06154" ry="1.06154" fill="#C4C4C4"/>
<ellipse cx="53.2594" cy="24.5075" rx="0.646152" ry="0.646154" fill="#C4C4C4"/>
<path d="M30.6426 27.7617L31.3722 27.6477C31.3722 27.6477 31.4173 27.9021 31.4404 28.0661C31.4631 28.2277 31.4898 28.4811 31.4898 28.4811L30.7709 28.5825L30.6426 27.7617Z" fill="white"/>
<mask id="path-15-inside-1" fill="white">
<path fill-rule="evenodd" clip-rule="evenodd" d="M42.2875 47.4803C41.0868 47.8812 39.7011 48.1099 38.2254 48.1099C36.7492 48.1099 35.363 47.8811 34.1621 47.48C34.3737 45.0004 36.1119 43.0664 38.2248 43.0664C40.3378 43.0664 42.076 45.0006 42.2875 47.4803Z"/>
</mask>
<path fill-rule="evenodd" clip-rule="evenodd" d="M42.2875 47.4803C41.0868 47.8812 39.7011 48.1099 38.2254 48.1099C36.7492 48.1099 35.363 47.8811 34.1621 47.48C34.3737 45.0004 36.1119 43.0664 38.2248 43.0664C40.3378 43.0664 42.076 45.0006 42.2875 47.4803Z" fill="white"/>
<path d="M42.2875 47.4803L42.6042 48.4289L43.3507 48.1796L43.2839 47.3954L42.2875 47.4803ZM34.1621 47.48L33.1657 47.3949L33.0988 48.1791L33.8453 48.4284L34.1621 47.48ZM41.9708 46.5318C40.8784 46.8965 39.6001 47.1099 38.2254 47.1099V49.1099C39.8021 49.1099 41.2953 48.8659 42.6042 48.4289L41.9708 46.5318ZM38.2254 47.1099C36.8502 47.1099 35.5715 46.8964 34.4789 46.5315L33.8453 48.4284C35.1545 48.8657 36.6482 49.1099 38.2254 49.1099V47.1099ZM35.1585 47.565C35.34 45.4377 36.7819 44.0664 38.2248 44.0664V42.0664C35.4418 42.0664 33.4074 44.5631 33.1657 47.3949L35.1585 47.565ZM38.2248 44.0664C39.6677 44.0664 41.1097 45.4378 41.2911 47.5653L43.2839 47.3954C43.0424 44.5634 41.0079 42.0664 38.2248 42.0664V44.0664Z" fill="#D1D1D1" mask="url(#path-15-inside-1)"/>
<path d="M38.0178 27.7526C37.9376 27.2953 38.2433 26.8597 38.7005 26.7795L39.2525 26.6827C39.7097 26.6025 40.1454 26.9082 40.2256 27.3654L41.0241 31.919C41.0347 31.9793 41.0599 32.0362 41.0934 32.0875C41.1479 32.171 41.1805 32.2697 41.184 32.3749L41.377 38.1635C41.3786 38.2112 41.3741 38.2589 41.3636 38.3054L40.626 41.5782C40.6147 41.6288 40.6089 41.6804 40.6089 41.7322V44.3294C40.6089 44.6388 40.358 44.8897 40.0485 44.8897H36.4061C36.0966 44.8897 35.8458 44.6388 35.8458 44.3294V42.2784C35.8458 42.0045 35.6681 41.7623 35.4069 41.68C35.2418 41.628 35.1101 41.5026 35.0499 41.3404L33.5897 37.4042C33.5534 37.3065 33.5451 37.2005 33.5658 37.0983L34.7543 31.2185C34.8155 30.9155 35.1104 30.7194 35.4134 30.78L37.6584 31.229C38.1416 31.3256 38.5708 30.9064 38.4857 30.4211L38.0178 27.7526Z" fill="white" stroke="#D1D1D1"/>
<rect x="35.5645" y="25.8359" width="2.80183" height="17.6517" fill="#0500FF"/>
<rect x="32.3809" y="31.418" width="2.24148" height="6.30417" rx="1.12074" transform="rotate(-68.1502 32.3809 31.418)" fill="white" stroke="#D1D1D1"/>
<rect width="2.24149" height="6.30419" rx="1.12075" transform="matrix(0.372174 -0.928163 0.928162 0.372175 32.0664 33.707)" fill="white" stroke="#D1D1D1"/>
<rect width="2.24146" height="4.90323" rx="1.12073" transform="matrix(0.372177 -0.928162 0.928164 0.372172 32.0137 36.1016)" fill="white" stroke="#D1D1D1"/>
<rect width="2.2415" height="3.50231" rx="1.12075" transform="matrix(0.37217 -0.928165 0.928161 0.372179 32.0879 38.5469)" fill="white" stroke="#D1D1D1"/>
<path d="M44.3102 20.7928C44.3102 25.0816 40.8335 28.5583 36.5448 28.5583C32.256 28.5583 28.7793 25.0816 28.7793 20.7928C28.7793 16.5041 32.256 13.0273 36.5448 13.0273C40.8335 13.0273 44.3102 16.5041 44.3102 20.7928Z" fill="white" stroke="#0500FF"/>
<rect width="2.24146" height="5.13475" rx="1.12073" transform="matrix(0.98497 -0.172725 0.172722 0.984971 37.8691 26.9238)" fill="white" stroke="#D1D1D1"/>
<rect width="1.24444" height="3.61755" rx="0.622219" transform="matrix(0.98497 -0.172726 0.172722 0.984971 38.9961 30.4629)" fill="white"/>
<mask id="path-26-inside-2" fill="white">
<path fill-rule="evenodd" clip-rule="evenodd" d="M46.3512 56.3062C47.5519 56.7071 48.9376 56.9358 50.4134 56.9358C51.8896 56.9358 53.2757 56.707 54.4766 56.3059C54.2649 53.8265 52.5268 51.8926 50.4139 51.8926C48.3009 51.8926 46.5627 53.8266 46.3512 56.3062Z"/>
</mask>
<path fill-rule="evenodd" clip-rule="evenodd" d="M46.3512 56.3062C47.5519 56.7071 48.9376 56.9358 50.4134 56.9358C51.8896 56.9358 53.2757 56.707 54.4766 56.3059C54.2649 53.8265 52.5268 51.8926 50.4139 51.8926C48.3009 51.8926 46.5627 53.8266 46.3512 56.3062Z" fill="white"/>
<path d="M46.3512 56.3062L46.0345 57.2548L45.2879 57.0055L45.3548 56.2212L46.3512 56.3062ZM54.4766 56.3059L55.4729 56.2209L55.5399 57.0051L54.7934 57.2544L54.4766 56.3059ZM46.6679 55.3577C47.7603 55.7225 49.0386 55.9358 50.4134 55.9358V57.9358C48.8367 57.9358 47.3434 57.6918 46.0345 57.2548L46.6679 55.3577ZM50.4134 55.9358C51.7886 55.9358 53.0672 55.7223 54.1598 55.3574L54.7934 57.2544C53.4842 57.6917 51.9905 57.9358 50.4134 57.9358V55.9358ZM53.4802 56.391C53.2986 54.2638 51.8567 52.8926 50.4139 52.8926V50.8926C53.1968 50.8926 55.2312 53.3892 55.4729 56.2209L53.4802 56.391ZM50.4139 52.8926C48.971 52.8926 47.5291 54.2639 47.3476 56.3912L45.3548 56.2212C45.5964 53.3894 47.6309 50.8926 50.4139 50.8926V52.8926Z" fill="#D1D1D1" mask="url(#path-26-inside-2)"/>
<path d="M50.6251 36.5768C50.7053 36.1196 50.3996 35.6839 49.9424 35.6037L49.3904 35.5069C48.9332 35.4267 48.4975 35.7324 48.4173 36.1897L47.6188 40.7432C47.6083 40.8035 47.583 40.8604 47.5495 40.9117C47.495 40.9952 47.4624 41.0939 47.4589 41.1991L47.2659 46.9877C47.2643 47.0354 47.2688 47.0831 47.2793 47.1296L48.0169 50.4024C48.0283 50.453 48.034 50.5046 48.034 50.5564V53.1536C48.034 53.463 48.2849 53.7139 48.5944 53.7139H52.2368C52.5463 53.7139 52.7972 53.463 52.7972 53.1536V51.1026C52.7972 50.8287 52.9748 50.5865 53.236 50.5042C53.4011 50.4522 53.5328 50.3268 53.593 50.1646L55.0532 46.2284C55.0895 46.1307 55.0978 46.0247 55.0771 45.9225L53.8886 40.0427C53.8274 39.7398 53.5325 39.5436 53.2295 39.6042L50.9845 40.0532C50.5013 40.1498 50.0721 39.7307 50.1572 39.2454L50.6251 36.5768Z" fill="white" stroke="#D1D1D1"/>
<rect width="2.80185" height="17.6517" transform="matrix(-1 0 0 1 53.0762 34.6621)" fill="#0500FF"/>
<rect width="2.24147" height="6.30414" rx="1.12074" transform="matrix(-0.372175 -0.928163 -0.928163 0.372174 56.2598 40.2441)" fill="white" stroke="#D1D1D1"/>
<rect width="2.24149" height="6.30418" rx="1.12074" transform="matrix(-0.372175 -0.928163 -0.928163 0.372175 56.5723 42.5332)" fill="white" stroke="#D1D1D1"/>
<rect width="2.2415" height="4.90325" rx="1.12075" transform="matrix(-0.372172 -0.928164 -0.928162 0.372177 56.627 44.9277)" fill="white" stroke="#D1D1D1"/>
<rect width="2.24148" height="3.50233" rx="1.12074" transform="matrix(-0.372177 -0.928162 -0.928164 0.372172 56.5527 47.373)" fill="white" stroke="#D1D1D1"/>
<path d="M44.3304 29.619C44.3304 33.9077 47.8071 37.3845 52.0959 37.3845C56.3846 37.3845 59.8613 33.9077 59.8613 29.619C59.8613 25.3302 56.3846 21.8535 52.0959 21.8535C47.8071 21.8535 44.3304 25.3302 44.3304 29.619Z" fill="white" stroke="#0500FF"/>
<rect width="2.24148" height="5.13476" rx="1.12074" transform="matrix(-0.98497 -0.172724 -0.172723 0.98497 50.7715 35.75)" fill="white" stroke="#D1D1D1"/>
<rect width="1.24445" height="3.61753" rx="0.622227" transform="matrix(-0.984971 -0.172723 -0.172725 0.98497 49.6445 39.2891)" fill="white"/>
<mask id="path-37-inside-3" fill="white">
<path fill-rule="evenodd" clip-rule="evenodd" d="M15.6715 53.9254C16.8722 54.3263 18.2579 54.555 19.7337 54.555C21.2099 54.555 22.596 54.3262 23.7969 53.9251C23.5852 51.4456 21.8471 49.5117 19.7342 49.5117C17.6213 49.5117 15.883 51.4458 15.6715 53.9254Z"/>
</mask>
<path fill-rule="evenodd" clip-rule="evenodd" d="M15.6715 53.9254C16.8722 54.3263 18.2579 54.555 19.7337 54.555C21.2099 54.555 22.596 54.3262 23.7969 53.9251C23.5852 51.4456 21.8471 49.5117 19.7342 49.5117C17.6213 49.5117 15.883 51.4458 15.6715 53.9254Z" fill="white"/>
<path d="M15.6715 53.9254L15.3548 54.8739L14.6082 54.6247L14.6751 53.8404L15.6715 53.9254ZM23.7969 53.9251L24.7933 53.84L24.8602 54.6242L24.1137 54.8736L23.7969 53.9251ZM15.9882 52.9769C17.0806 53.3416 18.3589 53.555 19.7337 53.555V55.555C18.157 55.555 16.6637 55.311 15.3548 54.8739L15.9882 52.9769ZM19.7337 53.555C21.1089 53.555 22.3875 53.3415 23.4801 52.9766L24.1137 54.8736C22.8045 55.3108 21.3109 55.555 19.7337 55.555V53.555ZM22.8005 54.0101C22.6189 51.8829 21.1771 50.5117 19.7342 50.5117V48.5117C22.5171 48.5117 24.5515 51.0083 24.7933 53.84L22.8005 54.0101ZM19.7342 50.5117C18.2913 50.5117 16.8494 51.8831 16.6679 54.0104L14.6751 53.8404C14.9167 51.0086 16.9512 48.5117 19.7342 48.5117V50.5117Z" fill="#D1D1D1" mask="url(#path-37-inside-3)"/>
<path d="M21.291 36.2147C21.5191 35.8104 21.3763 35.2977 20.972 35.0696L20.4839 34.7942C20.0796 34.5661 19.5669 34.7089 19.3388 35.1132L17.0669 39.1395C17.0374 39.1919 17.014 39.2461 16.9967 39.3013C16.9255 39.5278 16.8259 39.7701 16.7866 40.0042C16.7825 40.0285 16.78 40.0534 16.7792 40.0785L16.5862 45.8672C16.5847 45.9148 16.5892 45.9625 16.5996 46.009L17.3372 49.2819C17.3486 49.3324 17.3543 49.384 17.3543 49.4358V50.3519C17.3543 50.6614 17.6052 50.9122 17.9147 50.9122H21.5571C21.8666 50.9122 22.1175 50.6614 22.1175 50.3519V49.982C22.1175 49.7081 22.2951 49.4659 22.5563 49.3836C22.7214 49.3316 22.8531 49.2063 22.9133 49.044L24.3736 45.1079C24.4098 45.0101 24.4181 44.9042 24.3974 44.8019L23.209 38.9221C23.1477 38.6192 22.8528 38.423 22.5498 38.4836L21.186 38.7564C20.5984 38.8739 20.1441 38.2472 20.4386 37.7253L21.291 36.2147Z" fill="white" stroke="#D1D1D1"/>
<rect width="2.80186" height="17.6517" transform="matrix(-1 0 0 1 22.3965 30.7383)" fill="#0500FF"/>
<rect width="2.2415" height="6.30417" rx="1.12075" transform="matrix(-0.177288 -0.984159 -0.984159 0.177291 25.3242 40.1934)" fill="white" stroke="#D1D1D1"/>
<rect width="2.24148" height="6.30417" rx="1.12074" transform="matrix(-0.17729 -0.984159 -0.984159 0.177289 25.168 42.498)" fill="white" stroke="#D1D1D1"/>
<rect width="2.24149" height="4.90324" rx="1.12074" transform="matrix(-0.17729 -0.984159 -0.984159 0.17729 24.7383 44.8535)" fill="white" stroke="#D1D1D1"/>
<rect width="2.24148" height="3.50233" rx="1.12074" transform="matrix(-0.177291 -0.984159 -0.984159 0.177289 24.1719 47.2324)" fill="white" stroke="#D1D1D1"/>
<path d="M13.6507 25.6952C13.6507 29.9839 17.1274 33.4606 21.4162 33.4606C25.7049 33.4606 29.1816 29.9839 29.1816 25.6952C29.1816 21.4064 25.7049 17.9297 21.4162 17.9297C17.1274 17.9297 13.6507 21.4064 13.6507 25.6952Z" fill="white" stroke="#0500FF"/>
<mask id="path-46-inside-4" fill="white">
<path fill-rule="evenodd" clip-rule="evenodd" d="M39.4848 61.7716C38.2842 62.1724 36.8986 62.4011 35.4229 62.4011C33.9466 62.4011 32.5603 62.1722 31.3594 61.7711C31.5709 59.2915 33.3091 57.3574 35.4221 57.3574C37.5352 57.3574 39.2735 59.2918 39.4848 61.7716Z"/>
</mask>
<path fill-rule="evenodd" clip-rule="evenodd" d="M39.4848 61.7716C38.2842 62.1724 36.8986 62.4011 35.4229 62.4011C33.9466 62.4011 32.5603 62.1722 31.3594 61.7711C31.5709 59.2915 33.3091 57.3574 35.4221 57.3574C37.5352 57.3574 39.2735 59.2918 39.4848 61.7716Z" fill="white"/>
<path d="M39.4848 61.7716L39.8015 62.7202L40.548 62.4709L40.4812 61.6867L39.4848 61.7716ZM31.3594 61.7711L30.363 61.6861L30.2961 62.4702L31.0425 62.7195L31.3594 61.7711ZM39.1681 60.8231C38.0758 61.1878 36.7976 61.4011 35.4229 61.4011V63.4011C36.9995 63.4011 38.4926 63.1571 39.8015 62.7202L39.1681 60.8231ZM35.4229 61.4011C34.0476 61.4011 32.7689 61.1876 31.6762 60.8226L31.0425 62.7195C32.3518 63.1569 33.8456 63.4011 35.4229 63.4011V61.4011ZM32.3558 61.8561C32.5372 59.7287 33.9792 58.3574 35.4221 58.3574V56.3574C32.6391 56.3574 30.6046 58.8542 30.363 61.6861L32.3558 61.8561ZM35.4221 58.3574C36.8651 58.3574 38.3071 59.729 38.4884 61.8565L40.4812 61.6867C40.2398 58.8546 38.2053 56.3574 35.4221 56.3574V58.3574Z" fill="#D1D1D1" mask="url(#path-46-inside-4)"/>
<path d="M36.127 41.6667C36.127 41.2025 36.5033 40.8262 36.9675 40.8262H37.5279C37.9921 40.8262 38.3685 41.2025 38.3685 41.6667V46.2898C38.3685 46.2921 38.3685 46.2944 38.3685 46.2968C38.3675 46.4183 38.3792 46.542 38.3833 46.6635L38.5762 52.4521C38.5778 52.4998 38.5733 52.5475 38.5628 52.594L37.8253 55.8668C37.8139 55.9174 37.8081 55.969 37.8081 56.0208V58.618C37.8081 58.9275 37.5573 59.1783 37.2478 59.1783H33.6054C33.2959 59.1783 33.045 58.9275 33.045 58.618V56.567C33.045 56.2931 32.8673 56.0509 32.6061 55.9686C32.4411 55.9166 32.3093 55.7912 32.2491 55.629L30.7889 51.6928C30.7526 51.5951 30.7444 51.4891 30.765 51.3869L31.9535 45.5071C32.0147 45.2041 32.3096 45.008 32.6127 45.0686L35.2892 45.6039C35.7226 45.6906 36.127 45.359 36.127 44.917V41.6667Z" fill="white" stroke="#D1D1D1"/>
<rect x="32.7637" y="37.3242" width="2.80188" height="17.6517" fill="#0500FF"/>
<rect x="30.1914" y="46.4316" width="2.24148" height="6.30416" rx="1.12074" transform="rotate(-67.0101 30.1914 46.4316)" fill="white" stroke="#D1D1D1"/>
<rect width="2.2415" height="6.30419" rx="1.12075" transform="matrix(0.390568 -0.920574 0.920573 0.390571 29.832 48.7148)" fill="white" stroke="#D1D1D1"/>
<rect width="2.24149" height="4.90326" rx="1.12074" transform="matrix(0.39057 -0.920573 0.920574 0.390569 29.7324 51.1055)" fill="white" stroke="#D1D1D1"/>
<rect width="2.24148" height="3.50233" rx="1.12074" transform="matrix(0.390572 -0.920572 0.920575 0.390567 29.7578 53.5527)" fill="white" stroke="#D1D1D1"/>
<path d="M41.5095 32.2811C41.5095 36.5698 38.0328 40.0466 33.744 40.0466C29.4552 40.0466 25.9785 36.5698 25.9785 32.2811C25.9785 27.9923 29.4552 24.5156 33.744 24.5156C38.0328 24.5156 41.5095 27.9923 41.5095 32.2811Z" fill="white" stroke="#0500FF"/>
<path d="M32.634 35.4811L38.2225 29.8926L37.529 29.1992L32.6518 34.0764L30.0938 31.5184L29.4004 32.2119L31.9584 34.7699L31.9406 34.7876L32.634 35.4811Z" fill="url(#paint0_linear)"/>
<path d="M35.4368 23.9928L41.0252 18.4044L40.3317 17.7109L35.4545 22.5881L32.8965 20.0302L32.2031 20.7236L34.7611 23.2816L34.7433 23.2993L35.4368 23.9928Z" fill="url(#paint1_linear)"/>
<path d="M20.3059 28.8951L25.8943 23.3067L25.2009 22.6133L20.3237 27.4905L17.7657 24.9325L17.0723 25.6259L19.6303 28.1839L19.6125 28.2017L20.3059 28.8951Z" fill="url(#paint2_linear)"/>
<path d="M52.045 30.2599L54.4224 32.6373L55.1158 31.9439L52.7384 29.5665L55.1158 27.189L54.4224 26.4956L52.045 28.873L49.5684 26.3965L48.875 27.0899L51.3515 29.5665L48.875 32.043L49.5684 32.7364L52.045 30.2599Z" fill="url(#paint3_linear)"/>
<ellipse cx="61.15" cy="7.7801" rx="8.4" ry="8.97932" fill="white"/>
<path d="M68.6507 7.14762C68.6507 10.8417 65.6561 13.8363 61.9621 13.8363C58.268 13.8363 55.2734 10.8417 55.2734 7.14762C55.2734 3.45359 58.268 0.458984 61.9621 0.458984C65.6561 0.458984 68.6507 3.45359 68.6507 7.14762Z" fill="white" stroke="url(#paint4_linear)"/>
<path d="M61.6128 9.46486L65.6364 5.44404L64.8774 4.68555L61.5727 8.00546L59.7838 6.61389L59.1191 7.39251L61.6128 9.46486Z" fill="url(#paint5_linear)"/>
</g>
<defs>
<linearGradient id="paint0_linear" x1="36.406" y1="28.7666" x2="29.6899" y2="35.7925" gradientUnits="userSpaceOnUse">
<stop stop-color="#3CE700"/>
<stop offset="0.567708" stop-color="#0BC91E"/>
</linearGradient>
<linearGradient id="paint1_linear" x1="39.2087" y1="17.2783" x2="32.4926" y2="24.3042" gradientUnits="userSpaceOnUse">
<stop stop-color="#3CE700"/>
<stop offset="0.567708" stop-color="#0BC91E"/>
</linearGradient>
<linearGradient id="paint2_linear" x1="24.0779" y1="22.1807" x2="17.3617" y2="29.2065" gradientUnits="userSpaceOnUse">
<stop stop-color="#3CE700"/>
<stop offset="0.567708" stop-color="#0BC91E"/>
</linearGradient>
<linearGradient id="paint3_linear" x1="53.8309" y1="25.9599" x2="47.3597" y2="30.7049" gradientUnits="userSpaceOnUse">
<stop stop-color="#FF6C4B"/>
<stop offset="0.567708" stop-color="#DD0000"/>
</linearGradient>
<linearGradient id="paint4_linear" x1="66.1905" y1="-1.03109" x2="51.4475" y2="9.95082" gradientUnits="userSpaceOnUse">
<stop stop-color="#3CE700"/>
<stop offset="0.567708" stop-color="#0BC91E"/>
</linearGradient>
<linearGradient id="paint5_linear" x1="64.2945" y1="4.35643" x2="59.1802" y2="9.55137" gradientUnits="userSpaceOnUse">
<stop stop-color="#3CE700"/>
<stop offset="0.567708" stop-color="#0BC91E"/>
</linearGradient>
<clipPath id="clip0">
<rect width="69" height="69" fill="white" transform="translate(0.550781)"/>
</clipPath>
</defs>
</svg>
