<svg width="14" height="14" viewBox="0 0 14 14" fill="none" xmlns="http://www.w3.org/2000/svg">
    <path fill-rule="evenodd" clip-rule="evenodd" d="M0 7C0 10.8587 3.14125 14 7 14C10.8587 14 14 10.8587 14 7C14 3.14125 10.8587 0 7 0C3.14125 0 0 3.14125 0 7ZM7.875 9.91667V11.375H6.125V9.91667H7.875ZM4.52513 3.47927C5.1815 2.93229 6.07174 2.625 7 2.625C7.92826 2.625 8.8185 2.93229 9.47487 3.47927C10.1313 4.02625 10.5 4.76812 10.5 5.54167C10.5 6.47713 9.80873 6.98055 9.13567 7.47071C8.49714 7.93571 7.875 8.38879 7.875 9.1875H6.125C6.125 7.85949 6.94935 7.33293 7.67414 6.86997C8.24271 6.5068 8.75 6.18276 8.75 5.54167C8.75 5.15489 8.56563 4.78396 8.23744 4.51047C7.90925 4.23698 7.46413 4.08333 7 4.08333C6.53587 4.08333 6.09075 4.23698 5.76256 4.51047C5.43438 4.78396 5.25 5.51948 5.25 5.90625H3.5C3.5 5.1327 3.86875 4.02625 4.52513 3.47927Z" fill="#ABB3AC"/>
</svg>
