<svg width="20" height="16" viewBox="0 0 20 16" fill="none" xmlns="http://www.w3.org/2000/svg">
    <path d="M19.1 8.40696C19.1 7.29371 18.1595 6.38795 17.0035 6.38795C16.4893 6.38795 16.0045 6.5671 15.6216 6.89147C14.2353 6.03704 12.3854 5.49871 10.3449 5.44073L11.5934 1.32801L14.6589 1.87652C14.6588 1.90051 14.654 1.92339 14.6553 1.94763C14.6925 2.65025 15.3162 3.19263 16.0458 3.15679C16.7753 3.12095 17.3385 2.52024 17.3013 1.81765C17.2641 1.11503 16.6404 0.572653 15.9108 0.608492C15.4398 0.631628 15.0411 0.891833 14.8256 1.26133L14.8245 1.2609L11.1304 0.599976L9.65899 5.43959C7.61354 5.49211 5.7578 6.02732 4.36546 6.88018C3.98467 6.56281 3.50483 6.38795 2.99644 6.38795C1.84054 6.38795 0.899994 7.29368 0.899994 8.40696C0.899994 9.09553 1.26808 9.73048 1.86412 10.1009C1.8279 10.3024 1.80723 10.507 1.80723 10.7147C1.80723 13.6289 5.47531 16 9.98441 16C14.4935 16 18.1616 13.6288 18.1616 10.7147C18.1616 10.513 18.1423 10.3143 18.1081 10.1184C18.7206 9.75082 19.1 9.10635 19.1 8.40696ZM6.09817 9.78112C6.09817 9.09635 6.6748 8.54074 7.38683 8.54074C8.0982 8.54074 8.67482 9.09635 8.67482 9.78112C8.67482 10.4665 8.0982 11.0219 7.38683 11.0219C6.6748 11.0219 6.09817 10.4665 6.09817 9.78112ZM13.0213 13.1369C12.9829 13.1756 12.0585 14.0813 9.96934 14.0813C7.86946 14.0813 7.02943 13.163 6.99484 13.1241C6.87645 12.9909 6.89259 12.7904 7.03083 12.6768C7.16838 12.5638 7.37452 12.5784 7.49324 12.7095C7.51207 12.7293 8.21319 13.4471 9.96938 13.4471C11.7561 13.4471 12.5395 12.7039 12.5474 12.6966C12.6739 12.5724 12.8821 12.5695 13.0121 12.6914C13.1414 12.8129 13.1462 13.0111 13.0213 13.1369ZM12.7651 11.0219C12.053 11.0219 11.4765 10.4665 11.4765 9.78112C11.4765 9.09635 12.0531 8.54074 12.7651 8.54074C13.4765 8.54074 14.0531 9.09635 14.0531 9.78112C14.0531 10.4665 13.4765 11.0219 12.7651 11.0219Z" fill="#ABB3AC"/>
</svg>
