<svg width="22" height="17" viewBox="0 0 22 17" fill="none" xmlns="http://www.w3.org/2000/svg">
    <path fill-rule="evenodd" clip-rule="evenodd" d="M7 0C7.22503 0 7.44085 0.0864652 7.59997 0.240374C8.92097 1.5181 12.0909 4.72538 12.0909 6.56552V9.50434C12.0909 9.81665 11.9448 10.1102 11.7047 10.31C11.3454 10.609 10.8187 11.0759 10.5 11.4897C10.2273 11.8437 9.94588 12.3678 9.75992 12.7403C9.61981 13.021 9.36572 13.231 9.06 13.3015L8.27273 13.4828L7 17L5.72727 13.4828L3.18182 12.8966L0 14.6552L1.90909 11.4897V6.56552C1.90909 4.72538 5.07903 1.5181 6.40003 0.240374C6.55915 0.0864652 6.77497 0 7 0ZM8.27273 7.03448C8.27273 7.68199 7.70291 8.2069 7 8.2069C6.29709 8.2069 5.72727 7.68199 5.72727 7.03448C5.72727 6.38698 6.29709 5.86207 7 5.86207C7.70291 5.86207 8.27273 6.38698 8.27273 7.03448Z" fill="#ABB3AC"/>
    <path d="M19.8555 8.89999L21.0332 10.066L14.4332 16.6L10.8999 13.102L12.0777 11.936L14.4332 14.268L19.8555 8.89999Z" fill="#ABB3AC"/>
</svg>
