<svg width="14" height="18" viewBox="0 0 14 18" fill="none" xmlns="http://www.w3.org/2000/svg">
    <path fill-rule="evenodd" clip-rule="evenodd" d="M7.59997 0.254514C7.44085 0.0915514 7.22503 0 7 0C6.77497 0 6.55915 0.0915514 6.40003 0.254514C5.07903 1.6074 1.90909 5.00334 1.90909 6.95172V12.1655L0 15.5172L3.18182 13.6552L5.72727 14.2759L7 18L8.27273 14.2759L10.8182 13.6552L14 15.5172L12.0909 12.1655V6.95172C12.0909 5.00334 8.92097 1.6074 7.59997 0.254514ZM7 8.68966C7.70291 8.68966 8.27273 8.13387 8.27273 7.44828C8.27273 6.76268 7.70291 6.2069 7 6.2069C6.29709 6.2069 5.72727 6.76268 5.72727 7.44828C5.72727 8.13387 6.29709 8.68966 7 8.68966Z" fill="#0BC91F"/>
</svg>
