<svg width="40" height="40" viewBox="0 0 40 40" fill="none" xmlns="http://www.w3.org/2000/svg">
<path fill-rule="evenodd" clip-rule="evenodd" d="M28.0542 12.6596C28.036 12.4326 27.9287 12.2242 27.7557 12.0803C27.5827 11.9364 27.3582 11.8687 27.1316 11.8923C25.2509 12.0876 20.6422 12.6713 19.3962 14.1692L16.0621 18.1776L12.451 19.5336L16.088 20.1368L17.648 22.2417L16.245 25.9188L19.605 23.8695L21.9589 25.0201L23.2143 28.4864L23.89 24.6887L27.2241 20.6803C28.47 19.1824 28.2046 14.5445 28.0542 12.6596ZM22.1988 18.7609C22.7392 19.2104 23.5327 19.1475 23.9711 18.6204C24.4095 18.0933 24.3269 17.3017 23.7865 16.8522C23.2461 16.4027 22.4526 16.4656 22.0141 16.9926C21.5757 17.5197 21.6584 18.3114 22.1988 18.7609Z" fill="black"/>
<path fill-rule="evenodd" clip-rule="evenodd" d="M10.0872 24.1847C10.0383 23.8555 10.0094 23.5197 10.002 23.1787C11.0996 23.2413 12.0592 23.1917 13.0113 23.0056C13.8814 22.8355 14.7579 22.5489 15.7379 22.1163L16.3476 22.939C15.2342 23.4452 14.2235 23.7876 13.2031 23.987C12.1951 24.184 11.1916 24.2389 10.0872 24.1847ZM18.1599 30.9979C18.5309 30.9907 18.8956 30.9581 19.2526 30.902C18.9215 30.3775 18.7702 29.88 18.7548 29.3848C18.7348 28.7398 18.9405 28.0323 19.3896 27.1926C19.6432 26.7184 19.9684 26.213 20.3611 25.6648L19.4505 25.2197C19.081 25.7439 18.7638 26.2423 18.5078 26.721C18.0133 27.6455 17.7278 28.531 17.7553 29.4158C17.7723 29.9638 17.9076 30.4869 18.1599 30.9979ZM12.8278 29.1029C13.5476 28.3558 14.2187 27.6924 14.9194 27.0346L15.657 25.0108C14.3727 26.1484 13.3055 27.1659 12.1069 28.4099C12.3325 28.6555 12.5733 28.887 12.8278 29.1029Z" fill="black"/>
</svg>
