<svg width="17" height="17" viewBox="0 0 17 17" fill="none" xmlns="http://www.w3.org/2000/svg">
    <path d="M7.96375 14.6107C8.29102 14.4028 8.70898 14.4028 9.03625 14.6107L12.337 16.7078C13.0885 17.1852 14.0422 16.5165 13.8496 15.6473L12.9383 11.5352C12.8608 11.1856 12.9762 10.8212 13.2408 10.5799L16.3226 7.7696C16.9652 7.18365 16.6053 6.1134 15.7392 6.03479L11.778 5.67524C11.4044 5.64133 11.0813 5.4012 10.941 5.05332L9.42743 1.29991C9.09085 0.465226 7.90915 0.465227 7.57257 1.29991L6.05901 5.05332C5.91873 5.4012 5.59555 5.64133 5.22198 5.67524L1.258 6.03504C0.392375 6.11362 0.0322065 7.18299 0.67392 7.76924L3.75117 10.5805C4.01498 10.8215 4.13015 11.185 4.05328 11.5339L3.14643 15.6509C2.95505 16.5198 3.90835 17.1872 4.65927 16.7101L7.96375 14.6107Z" fill="#0BC91F"/>
</svg>
