<svg width="20" height="20" viewBox="0 0 20 20" fill="none" xmlns="http://www.w3.org/2000/svg">
<path fill-rule="evenodd" clip-rule="evenodd" d="M10 0C4.5 0 0 4.5 0 10C0 15.5 4.5 20 10 20C15.5 20 20 15.5 20 10C20 4.5 15.5 0 10 0ZM2 10C2 5.6 5.6 2 10 2C11.8 2 13.5 2.6 14.9 3.7L3.7 14.9C2.6 13.5 2 11.8 2 10ZM9.99998 17.9996C8.19998 17.9996 6.49998 17.3996 5.09998 16.2996L16.3 5.09961C17.4 6.49961 18 8.19961 18 9.99961C18 14.3996 14.4 17.9996 9.99998 17.9996Z" fill="black" fill-opacity="0.4"/>
</svg>
