<svg width="18" height="16" viewBox="0 0 18 16" fill="none" xmlns="http://www.w3.org/2000/svg">
    <path d="M15.9529 4.47594C15.9517 4.45714 15.9602 4.43861 15.9753 4.42748C16.6142 3.95931 17.1703 3.39501 17.6269 2.74718C17.6585 2.70239 17.6108 2.64499 17.5602 2.66594C17.0379 2.88202 16.4896 3.03554 15.929 3.12103C15.8708 3.1299 15.8422 3.05055 15.8905 3.01686C16.4931 2.59634 16.9513 2.00356 17.2053 1.31174C17.2227 1.26445 17.1712 1.22274 17.1274 1.24758C16.4698 1.62016 15.7532 1.88821 15.0126 2.03859C14.9941 2.04234 14.9747 2.03582 14.9617 2.02222C12.5076 -0.539993 8.15153 1.8463 8.87468 5.23758C8.88226 5.27312 8.8545 5.3076 8.81821 5.30555C5.99553 5.14574 3.36827 3.81175 1.56905 1.63544C1.54469 1.60598 1.49821 1.60976 1.47971 1.64322C0.611868 3.21216 1.04377 5.17374 2.46846 6.23874C2.51242 6.2716 2.48864 6.34242 2.43394 6.3379C1.94573 6.29757 1.46974 6.15632 1.03762 5.92117C1.02041 5.91181 0.999319 5.92418 0.999319 5.94377C0.999319 7.56712 2.09539 8.97624 3.64556 9.39601C3.70122 9.41108 3.70222 9.49094 3.64571 9.50242C3.21932 9.58899 2.77933 9.59773 2.3483 9.52583C2.30724 9.51898 2.27297 9.558 2.28679 9.59727C2.76484 10.956 4.00894 11.8989 5.44478 11.9862C5.49615 11.9893 5.51762 12.055 5.47644 12.0858C4.06649 13.1429 2.29085 13.6468 0.538566 13.5028C0.480869 13.498 0.455691 13.5752 0.505106 13.6053C7.09396 17.6266 16.4836 12.5271 15.9529 4.47594Z" fill="#ABB3AC"/>
</svg>
