<svg width="24" height="20" viewBox="0 0 24 20" fill="none" xmlns="http://www.w3.org/2000/svg">
    <path d="M19.6364 12H24V0H19.6364V12ZM15.2727 0H5.45455C4.54909 0 3.77455 0.5 3.44727 1.22L0.152727 8.27C0.0545454 8.5 0 8.74 0 9V11C0 11.5304 0.22987 12.0391 0.63904 12.4142C1.04821 12.7893 1.60316 13 2.18182 13H9.06546L8.02909 17.57C8.00727 17.67 7.99636 17.77 7.99636 17.88C7.99636 18.3 8.18182 18.67 8.47636 18.94L9.63273 20L16.8109 13.41C17.2145 13.05 17.4545 12.55 17.4545 12V2C17.4545 0.89 16.4727 0 15.2727 0Z" fill="#ABB3AC"/>
</svg>
