<svg width="24" height="20" viewBox="0 0 24 20" fill="none" xmlns="http://www.w3.org/2000/svg">
    <path d="M19.6364 12V0H24V12H19.6364ZM15.2727 0C15.8514 0 16.4063 0.210714 16.8155 0.585786C17.2247 0.960859 17.4545 1.46957 17.4545 2V12C17.4545 12.55 17.2145 13.05 16.8109 13.41L9.63273 20L8.47636 18.94C8.18182 18.67 7.99636 18.3 7.99636 17.88L8.02909 17.57L9.06546 13H2.18182C0.970909 13 0 12.1 0 11V9C0 8.74 0.0545454 8.5 0.152727 8.27L3.44727 1.22C3.77455 0.5 4.54909 0 5.45455 0H15.2727ZM15.2727 2H5.42182L2.18182 9V11H11.76L10.5273 16.32L15.2727 11.97V2Z" fill="#EFB6B6"/>
</svg>
