<svg width="116" height="26" viewBox="0 0 116 26" fill="none" xmlns="http://www.w3.org/2000/svg">
<path d="M5.27304 10.2578L3.1845 15.0843H2.08164L0 10.2578H1.20625L2.67443 13.7053L4.16329 10.2578H5.27304Z" fill="white"/>
<path d="M9.49511 14.4571V15.0829H7.10156V12.1094H9.43824V12.7351H7.90803V13.2781H9.26247V13.8728H7.90803V14.4571H9.49511Z" fill="white"/>
<path d="M15.0014 12.1094V15.0829H14.3294L12.9594 13.4436V15.0829H12.1581V12.1094H12.8302L14.2001 13.7538V12.1094H15.0014Z" fill="white"/>
<path d="M18.4243 12.7454H17.4885V12.1094H20.1768V12.7454H19.2411V15.0829H18.4243V12.7454Z" fill="white"/>
<path d="M24.0401 15.1397C23.599 15.1397 23.2544 15.0208 23.0062 14.7829C22.7581 14.545 22.634 14.2175 22.634 13.8004V12.1094H23.4508V13.7745C23.4508 14.0055 23.5008 14.1796 23.6007 14.2968C23.7041 14.414 23.854 14.4726 24.0505 14.4726C24.2435 14.4726 24.39 14.414 24.4899 14.2968C24.5898 14.1796 24.6398 14.0055 24.6398 13.7745V12.1094H25.4463V13.8004C25.4463 14.2175 25.3222 14.545 25.0741 14.7829C24.8259 15.0208 24.4813 15.1397 24.0401 15.1397Z" fill="white"/>
<path d="M30.1863 14.4933H28.7957L28.5475 15.0829H27.7566L29.0904 12.1094H29.8968L31.2358 15.0829H30.4293L30.1863 14.4933ZM29.9382 13.9038L29.4936 12.8282L29.0438 13.9038H29.9382Z" fill="white"/>
<path d="M34.9748 14.2865H34.4734V15.0829H33.6566V12.1094H35.011C35.4211 12.1094 35.7468 12.2076 35.9881 12.4041C36.2293 12.5972 36.35 12.8644 36.35 13.2057C36.35 13.4229 36.2965 13.6125 36.1897 13.7745C36.0863 13.9331 35.9381 14.0572 35.7451 14.1469L36.4068 15.0829H35.528L34.9748 14.2865ZM35.528 13.2057C35.528 13.0574 35.4797 12.9437 35.3832 12.8644C35.2867 12.7851 35.1437 12.7454 34.9541 12.7454H34.4734V13.6659H34.9541C35.1437 13.6659 35.2867 13.6263 35.3832 13.547C35.4797 13.4677 35.528 13.3539 35.528 13.2057Z" fill="white"/>
<path d="M40.5621 14.0951V15.0829H39.7453V14.0951L38.546 12.1094H39.4093L40.1796 13.3763L40.9447 12.1094H41.7666L40.5621 14.0951Z" fill="white"/>
<path fill-rule="evenodd" clip-rule="evenodd" d="M69.7086 0H43.7168V26H69.7086V0ZM61.7102 14.8414C62.1146 15.0574 62.5672 15.1654 63.0681 15.1654C63.569 15.1654 64.0193 15.0574 64.4191 14.8414C64.8189 14.6253 65.1337 14.3288 65.3634 13.9519C65.5932 13.5704 65.7081 13.1429 65.7081 12.6694C65.7081 12.196 65.5932 11.7708 65.3634 11.3938C65.1337 11.0123 64.8189 10.7135 64.4191 10.4975C64.0193 10.2814 63.569 10.1734 63.0681 10.1734C62.5672 10.1734 62.1146 10.2814 61.7102 10.4975C61.3104 10.7135 60.9957 11.0123 60.7659 11.3938C60.5407 11.7708 60.4281 12.196 60.4281 12.6694C60.4281 13.1429 60.5407 13.5704 60.7659 13.9519C60.9957 14.3288 61.3104 14.6253 61.7102 14.8414ZM63.8401 14.0209C63.6103 14.1496 63.353 14.2139 63.0681 14.2139C62.7832 14.2139 62.5259 14.1496 62.2961 14.0209C62.0663 13.8875 61.8848 13.7037 61.7516 13.4692C61.6229 13.2348 61.5586 12.9682 61.5586 12.6694C61.5586 12.3706 61.6229 12.104 61.7516 11.8696C61.8848 11.6352 62.0663 11.4536 62.2961 11.3249C62.5259 11.1916 62.7832 11.1249 63.0681 11.1249C63.353 11.1249 63.6103 11.1916 63.8401 11.3249C64.0699 11.4536 64.2491 11.6352 64.3777 11.8696C64.511 12.104 64.5776 12.3706 64.5776 12.6694C64.5776 12.9682 64.511 13.2348 64.3777 13.4692C64.2491 13.7037 64.0699 13.8875 63.8401 14.0209ZM47.8262 10.2562H50.0181C50.542 10.2562 51.0038 10.3573 51.4036 10.5595C51.8079 10.7572 52.1204 11.0376 52.341 11.4007C52.5662 11.7639 52.6787 12.1868 52.6787 12.6694C52.6787 13.1521 52.5662 13.575 52.341 13.9381C52.1204 14.3012 51.8079 14.5839 51.4036 14.7862C51.0038 14.9839 50.542 15.0827 50.0181 15.0827H47.8262V10.2562ZM49.9629 14.1656C50.4454 14.1656 50.8292 14.0323 51.1141 13.7657C51.4036 13.4945 51.5483 13.1291 51.5483 12.6694C51.5483 12.2098 51.4036 11.8466 51.1141 11.58C50.8292 11.3088 50.4454 11.1732 49.9629 11.1732H48.9428V14.1656H49.9629ZM57.6651 14.0484H55.4249L54.9975 15.0827H53.8533L56.0039 10.2562H57.1068L59.2642 15.0827H58.0924L57.6651 14.0484ZM57.3135 13.2003L56.5484 11.3525L55.7833 13.2003H57.3135Z" fill="white"/>
</svg>
