<svg width="186" height="186" viewBox="0 0 186 186" fill="none" xmlns="http://www.w3.org/2000/svg">
    <g clip-path="url(#clip0)">
        <path d="M173.129 68.2431C172.999 67.3584 171.722 67.3584 171.592 68.2431L171.461 69.1254C171.411 69.4644 171.145 69.7305 170.806 69.7806L169.924 69.9109C169.039 70.0415 169.039 71.3177 169.924 71.4483L170.806 71.5786C171.145 71.6287 171.411 71.8949 171.461 72.2338L171.592 73.1161C171.722 74.0008 172.999 74.0008 173.129 73.1161L173.259 72.2338C173.309 71.8949 173.575 71.6287 173.915 71.5786L174.797 71.4483C175.682 71.3177 175.682 70.0415 174.797 69.9109L173.915 69.7806C173.575 69.7305 173.309 69.4644 173.259 69.1254L173.129 68.2431Z" fill="#C4C4C4"/>
        <path d="M14.4084 145.124C14.2777 144.239 13.0016 144.239 12.871 145.124L12.7407 146.006C12.6906 146.345 12.4245 146.611 12.0855 146.661L11.2032 146.792C10.3185 146.922 10.3185 148.199 11.2032 148.329L12.0855 148.459C12.4245 148.509 12.6906 148.775 12.7407 149.115L12.871 149.997C13.0016 150.882 14.2777 150.882 14.4084 149.997L14.5387 149.115C14.5888 148.775 14.855 148.509 15.1939 148.459L16.0762 148.329C16.9609 148.199 16.9609 146.922 16.0762 146.792L15.1939 146.661C14.855 146.611 14.5888 146.345 14.5387 146.006L14.4084 145.124Z" fill="#C4C4C4"/>
        <path d="M130.194 156.439C130.063 155.554 128.787 155.554 128.656 156.439L128.526 157.321C128.476 157.66 128.21 157.926 127.871 157.976L126.988 158.106C126.104 158.237 126.104 159.513 126.988 159.644L127.871 159.774C128.21 159.825 128.476 160.09 128.526 160.429L128.656 161.312C128.787 162.196 130.063 162.196 130.194 161.312L130.324 160.429C130.374 160.09 130.64 159.825 130.979 159.774L131.862 159.644C132.746 159.513 132.746 158.237 131.862 158.106L130.979 157.976C130.64 157.926 130.374 157.66 130.324 157.321L130.194 156.439Z" fill="#C4C4C4"/>
        <path d="M146.93 8.43495C146.721 7.10795 144.679 7.10795 144.47 8.43495L144.262 9.75842C144.181 10.2668 143.756 10.6661 143.213 10.7412L141.801 10.9366C140.386 11.1326 140.386 13.0467 141.801 13.2427L143.213 13.4383C143.756 13.5133 144.181 13.9126 144.262 14.421L144.47 15.7444C144.679 17.0715 146.721 17.0715 146.93 15.7444L147.138 14.421C147.218 13.9126 147.644 13.5133 148.186 13.4383L149.598 13.2427C151.013 13.0467 151.013 11.1326 149.598 10.9366L148.186 10.7412C147.644 10.6661 147.218 10.2668 147.138 9.75842L146.93 8.43495Z" fill="#C4C4C4"/>
        <path d="M46.4899 169.945C46.2808 168.618 44.2392 168.618 44.0301 169.945L43.8216 171.269C43.7415 171.777 43.3156 172.177 42.7733 172.252L41.3616 172.447C39.9461 172.643 39.9461 174.557 41.3616 174.753L42.7733 174.949C43.3156 175.024 43.7415 175.423 43.8216 175.931L44.0301 177.255C44.2392 178.582 46.2808 178.582 46.4899 177.255L46.6984 175.931C46.7785 175.423 47.2044 175.024 47.7467 174.949L49.1584 174.753C50.5739 174.557 50.5739 172.643 49.1584 172.447L47.7467 172.252C47.2044 172.177 46.7785 171.777 46.6984 171.269L46.4899 169.945Z" fill="#C4C4C4"/>
        <path d="M6.18992 24.2453C5.98086 22.9182 3.93914 22.9182 3.73007 24.2453L3.52156 25.5687C3.44146 26.0771 3.01561 26.4764 2.4733 26.5515L1.06161 26.747C-0.353871 26.943 -0.353869 28.8571 1.06161 29.0531L2.4733 29.2485C3.01561 29.3236 3.44146 29.7229 3.52156 30.2313L3.73007 31.5548C3.93914 32.8818 5.98086 32.8818 6.18992 31.5548L6.39844 30.2313C6.47853 29.7229 6.90438 29.3236 7.4467 29.2485L8.8584 29.0531C10.2739 28.8571 10.2739 26.943 8.8584 26.747L7.4467 26.5515C6.90438 26.4764 6.47853 26.0771 6.39844 25.5687L6.18992 24.2453Z" fill="#C4C4C4"/>
        <path d="M182.269 136.156C182.06 134.828 180.019 134.828 179.809 136.156L179.601 137.479C179.521 137.987 179.095 138.386 178.553 138.461L177.141 138.658C175.726 138.853 175.726 140.767 177.141 140.963L178.553 141.158C179.095 141.234 179.521 141.633 179.601 142.141L179.809 143.465C180.019 144.792 182.06 144.792 182.269 143.465L182.478 142.141C182.558 141.633 182.984 141.234 183.526 141.158L184.937 140.963C186.353 140.767 186.353 138.853 184.937 138.658L183.526 138.461C182.984 138.386 182.558 137.987 182.478 137.479L182.269 136.156Z" fill="#C4C4C4"/>
        <path d="M30.0706 8.67959C29.2146 8.67959 28.5206 7.98563 28.5206 7.12959C28.5206 6.27355 29.2146 5.57959 30.0706 5.57959C30.9266 5.57959 31.6206 6.27355 31.6206 7.12959C31.6206 7.98563 30.9266 8.67959 30.0706 8.67959Z" fill="#C4C4C4"/>
        <path d="M126.171 29.7604C125.315 29.7604 124.621 29.0664 124.621 28.2104C124.621 27.3544 125.315 26.6604 126.171 26.6604C127.027 26.6604 127.721 27.3544 127.721 28.2104C127.721 29.0664 127.027 29.7604 126.171 29.7604Z" fill="#C4C4C4"/>
        <path d="M181.971 34.1C181.115 34.1 180.421 33.406 180.421 32.55C180.421 31.694 181.115 31 181.971 31C182.827 31 183.521 31.694 183.521 32.55C183.521 33.406 182.827 34.1 181.971 34.1Z" fill="#C4C4C4"/>
        <path d="M35.0303 52.2351C33.6606 52.2351 32.5503 51.1248 32.5503 49.7551C32.5503 48.3855 33.6606 47.2751 35.0303 47.2751C36.4 47.2751 37.5103 48.3855 37.5103 49.7551C37.5103 51.1248 36.4 52.2351 35.0303 52.2351Z" fill="#C4C4C4"/>
        <path d="M166.78 171.585C165.41 171.585 164.3 170.475 164.3 169.105C164.3 167.735 165.41 166.625 166.78 166.625C168.15 166.625 169.26 167.735 169.26 169.105C169.26 170.475 168.15 171.585 166.78 171.585Z" fill="#C4C4C4"/>
        <path d="M51.3053 133.61C49.9357 133.61 48.8253 132.5 48.8253 131.13C48.8253 129.76 49.9357 128.65 51.3053 128.65C52.675 128.65 53.7853 129.76 53.7853 131.13C53.7853 132.5 52.675 133.61 51.3053 133.61Z" fill="#C4C4C4"/>
        <path d="M5.5803 113.46C4.21064 113.46 3.1003 112.35 3.1003 110.98C3.1003 109.61 4.21064 108.5 5.5803 108.5C6.94997 108.5 8.0603 109.61 8.0603 110.98C8.0603 112.35 6.94997 113.46 5.5803 113.46Z" fill="#C4C4C4"/>
        <path d="M183.83 108.5C182.632 108.5 181.66 107.528 181.66 106.33C181.66 105.131 182.632 104.16 183.83 104.16C185.028 104.16 186 105.131 186 106.33C186 107.528 185.028 108.5 183.83 108.5Z" fill="#C4C4C4"/>
        <path d="M103.23 7.4401C102.032 7.4401 101.06 6.46856 101.06 5.2701C101.06 4.07164 102.032 3.1001 103.23 3.1001C104.428 3.1001 105.4 4.07164 105.4 5.2701C105.4 6.46856 104.428 7.4401 103.23 7.4401Z" fill="#C4C4C4"/>
        <path d="M1.54998 71.9208C0.693934 71.9208 -2.45571e-05 71.2268 -2.45571e-05 70.3708C-2.45571e-05 69.5148 0.693934 68.8208 1.54998 68.8208C2.40602 68.8208 3.09998 69.5148 3.09998 70.3708C3.09998 71.2268 2.40602 71.9208 1.54998 71.9208Z" fill="#C4C4C4"/>
        <path d="M151.9 132.525C151.044 132.525 150.35 131.831 150.35 130.975C150.35 130.119 151.044 129.425 151.9 129.425C152.756 129.425 153.45 130.119 153.45 130.975C153.45 131.831 152.756 132.525 151.9 132.525Z" fill="#C4C4C4"/>
        <path d="M111.6 186C110.744 186 110.05 185.306 110.05 184.45C110.05 183.594 110.744 182.9 111.6 182.9C112.456 182.9 113.15 183.594 113.15 184.45C113.15 185.306 112.456 186 111.6 186Z" fill="#C4C4C4"/>
        <g filter="url(#filter0_d)">
            <path d="M98.2592 39.5804C95.2328 36.5539 90.3263 36.5539 87.2991 39.5804L43.4587 83.421C39.301 86.8 40.4631 92.6125 40.4631 92.6125C40.4631 92.6125 40.0771 94.55 44.2337 99.255L88.0741 143.096C91.1013 146.122 96.0078 146.122 99.0342 143.096L142.875 99.255C145.331 96.7991 145.089 90.2875 145.089 90.2875C145.089 90.2875 145.092 86.4125 142.1 83.421L98.2592 39.5804Z" fill="#DAD9FF"/>
            <path d="M43.9785 83.9976L43.9475 84.0224C42.0785 85.5414 41.3859 87.6191 41.171 89.3776C41.0639 90.2541 41.0781 91.0346 41.1193 91.5949C41.1399 91.8739 41.167 92.0963 41.1884 92.2467C41.1992 92.3211 41.2084 92.3784 41.2147 92.4141C41.2178 92.4327 41.2203 92.4458 41.2216 92.4536L41.223 92.4606L41.2231 92.4613H41.2232L41.2233 92.4621L41.2533 92.6125L41.229 92.7341V92.7349C41.2282 92.7574 41.2277 92.8116 41.2378 92.9015C41.2581 93.0813 41.321 93.4045 41.5106 93.885C41.8901 94.8468 42.7712 96.4262 44.7987 98.7241L88.622 142.548C91.3462 145.271 95.7629 145.271 98.4862 142.548L142.327 98.7071C142.823 98.2111 143.219 97.4686 143.523 96.5696C143.824 95.6791 144.014 94.6895 144.134 93.7525C144.253 92.8178 144.298 91.9553 144.314 91.3244C144.321 91.0098 144.321 90.7548 144.319 90.5796C144.318 90.4921 144.317 90.4246 144.316 90.3805L144.314 90.3301V90.3185V90.3161L43.9785 83.9976ZM43.9785 83.9976L44.0067 83.9689L87.847 40.1284C90.5712 37.4045 94.9879 37.4045 97.7112 40.1284L141.552 83.9689L142.1 83.421L141.552 83.9689C142.928 85.3453 143.621 86.9302 143.969 88.1833C144.143 88.8088 144.23 89.3458 144.272 89.7225C144.293 89.9108 144.303 90.0573 144.309 90.1549C144.311 90.2038 144.313 90.2394 144.313 90.2619L144.314 90.2851V90.2867L43.9785 83.9976ZM43.9785 83.9976L144.314 90.2867L43.9785 83.9976ZM144.314 90.2867V90.2875V90.2882V90.289V90.3014L144.314 90.3161L144.314 90.2867Z" stroke="#0500FF" stroke-opacity="0.15" stroke-width="2"/>
        </g>
        <path d="M142.097 83.4208L98.2561 39.5802C95.2295 36.5536 90.3225 36.5536 87.2959 39.5802L43.4553 83.4208C40.4287 86.4474 40.4287 91.3544 43.4553 94.3809L87.2959 138.222C90.3225 141.248 95.2295 141.248 98.2561 138.222L142.097 94.3809C145.123 91.3544 145.123 86.4474 142.097 83.4208Z" fill="#DAD9FF"/>
        <path d="M141.549 83.9687L97.7081 40.1281C94.9842 37.4042 90.5678 37.4042 87.8439 40.1281L44.0033 83.9687C41.2794 86.6926 41.2794 91.109 44.0033 93.8329L87.8439 137.673C90.5678 140.397 94.9842 140.397 97.7081 137.673L141.549 93.8329C144.273 91.109 144.273 86.6926 141.549 83.9687Z" stroke="#0500FF" stroke-width="2"/>
        <path opacity="0.15" d="M131.247 83.4209L98.2561 50.4303C95.2295 47.4037 90.3225 47.4037 87.2959 50.4303L54.3053 83.4209C51.2787 86.4474 51.2787 91.3545 54.3053 94.381L87.2959 127.372C90.3225 130.398 95.2295 130.398 98.2561 127.372L131.247 94.381C134.273 91.3545 134.273 86.4474 131.247 83.4209Z" fill="#0500FF"/>
    </g>
    <defs>
        <filter id="filter0_d" x="10.0886" y="27.0854" width="165.232" height="168.505" filterUnits="userSpaceOnUse" color-interpolation-filters="sRGB">
            <feFlood flood-opacity="0" result="BackgroundImageFix"/>
            <feColorMatrix in="SourceAlpha" type="matrix" values="0 0 0 0 0 0 0 0 0 0 0 0 0 0 0 0 0 0 127 0"/>
            <feOffset dy="20"/>
            <feGaussianBlur stdDeviation="15"/>
            <feColorMatrix type="matrix" values="0 0 0 0 0.02 0 0 0 0 0 0 0 0 0 1 0 0 0 0.1 0"/>
            <feBlend mode="normal" in2="BackgroundImageFix" result="effect1_dropShadow"/>
            <feBlend mode="normal" in="SourceGraphic" in2="effect1_dropShadow" result="shape"/>
        </filter>
        <clipPath id="clip0">
            <rect width="186" height="186" fill="white"/>
        </clipPath>
    </defs>
</svg>
