<svg width="14" height="14" viewBox="0 0 14 14" fill="none" xmlns="http://www.w3.org/2000/svg">
    <path fill-rule="evenodd" clip-rule="evenodd" d="M0 7C0 3.136 3.12898 0 6.993 0C10.864 0 14 3.136 14 7C14 10.864 10.864 14 6.993 14C3.12898 14 0 10.864 0 7ZM9.779 4.2H11.8439C11.172 3.04501 10.1009 2.149 8.813 1.708C9.23293 2.485 9.555 3.325 9.779 4.2ZM7 1.428C7.581 2.268 8.036 3.199 8.33693 4.2H5.663C5.964 3.199 6.41893 2.268 7 1.428ZM1.4 7C1.4 7.483 1.46999 7.952 1.58201 8.4H3.94801C3.89204 7.938 3.85 7.476 3.85 7C3.85 6.524 3.89204 6.062 3.94801 5.6H1.58201C1.46999 6.048 1.4 6.517 1.4 7ZM2.15597 9.8H4.22094C4.44499 10.675 4.76696 11.515 5.18694 12.292C3.89897 11.851 2.82794 10.962 2.15597 9.8ZM2.15597 4.2H4.22094C4.44499 3.325 4.76696 2.485 5.18694 1.708C3.89897 2.149 2.82794 3.038 2.15597 4.2ZM7 12.572C6.41893 11.732 5.964 10.801 5.663 9.8H8.33693C8.036 10.801 7.581 11.732 7 12.572ZM5.25 7C5.25 7.476 5.29897 7.938 5.36202 8.4H8.638C8.70107 7.938 8.75 7.476 8.75 7C8.75 6.524 8.70107 6.055 8.638 5.6H5.36202C5.29897 6.055 5.25 6.524 5.25 7ZM8.813 12.292C9.23293 11.515 9.555 10.675 9.779 9.8H11.8439C11.172 10.955 10.1009 11.851 8.813 12.292ZM10.15 7C10.15 7.476 10.1079 7.938 10.052 8.4H12.418C12.53 7.952 12.6 7.483 12.6 7C12.6 6.517 12.53 6.048 12.418 5.6H10.052C10.1079 6.062 10.15 6.524 10.15 7Z" fill="#ABB3AC"/>
</svg>
