<svg width="88" height="50" viewBox="0 0 88 50" fill="none" xmlns="http://www.w3.org/2000/svg">
<g clip-path="url(#clip0)">
<path d="M13.4876 39.2711C10.1312 36.9642 6.89518 33.7532 4.53201 30.3671C3.72413 27.5194 1.9007 24.8409 11.0076 21.2012C11.8894 24.7576 18.0344 30.3671 21.4948 31.9688C19.7186 36.9297 16.9783 42.2559 13.4876 39.2711Z" fill="url(#paint0_linear)"/>
<path d="M13.4873 39.2714C13.7988 39.4855 14.113 39.6918 14.4291 39.8898C17.4728 41.2818 19.8813 36.4747 21.4945 31.9691C22.5001 29.1604 23.1966 26.4688 23.5453 25.4689C24.3169 23.2561 24.6934 19.1387 24.7853 17.3566C32.2222 16.3216 34.5835 18.5132 34.7606 20.0751C34.2739 27.6573 31.6791 36.9565 27.1275 41.2354C24.2609 43.9301 19.138 42.8392 14.4291 39.8898C14.1216 39.7492 13.8076 39.5453 13.4873 39.2714Z" fill="url(#paint1_linear)"/>
<path opacity="0.3" d="M4.5323 30.3679C4.4621 30.1205 4.38423 29.8743 4.30654 29.6287C3.49007 27.0475 2.69231 24.5255 11.0076 21.2021C11.0079 21.2034 11.0084 21.2048 11.009 21.2062C11.4624 23.0271 13.2935 25.3852 15.4369 27.4679L7.75644 34.3192C6.57327 33.062 5.48226 31.7291 4.5323 30.3679Z" fill="url(#paint2_radial)"/>
<path opacity="0.3" fill-rule="evenodd" clip-rule="evenodd" d="M8.34473 34.9303C9.94937 36.5603 11.7015 38.0441 13.4878 39.2719C13.8084 39.546 14.1227 39.7501 14.4305 39.8907L14.4291 39.8898C17.4727 41.2818 19.8812 36.4749 21.4944 31.9693C19.8748 31.2195 17.6674 29.592 15.6867 27.708C13.9185 30.338 10.7932 33.0436 8.34473 34.9303ZM14.4291 39.8898C14.1216 39.7492 13.8076 39.5453 13.4873 39.2714C13.7988 39.4855 14.113 39.6919 14.4291 39.8898Z" fill="url(#paint3_radial)"/>
<path opacity="0.3" d="M28.3231 17.0879C27.2968 17.0877 26.123 17.1694 24.7849 17.3556C24.6988 19.0258 24.3626 22.7473 23.6855 25.0296C27.0529 25.2049 31.1215 25.842 33.6895 27.4861C34.2484 24.99 34.6065 22.4559 34.7593 20.0887C34.7595 20.0837 34.7598 20.0788 34.7601 20.0741C34.6148 18.7932 33.0007 17.089 28.3231 17.0879Z" fill="url(#paint4_radial)"/>
<path d="M3.42907 15.3229C9.62942 10.6207 19.1362 7.62794 29.194 8.31985C32.9053 8.57517 34.895 12.0731 34.8431 17.8624C34.8366 18.5783 34.8091 19.3181 34.7605 20.075C34.5833 18.5131 32.2221 16.3216 24.7851 17.3565C22.7835 17.6351 20.4141 18.1474 17.6206 18.9686C14.9476 19.7545 12.7722 20.4959 11.0072 21.2013C1.90027 24.841 3.7237 27.5196 4.53158 30.3673C4.13889 29.8046 3.7703 29.2371 3.42926 28.6681C0.257426 23.376 -0.785699 18.5193 3.42907 15.3229Z" fill="url(#paint5_linear)"/>
<g opacity="0.12">
<path d="M0.647392 20.5664C0.593682 23.0022 1.69227 25.7697 3.42926 28.6678C3.7703 29.2368 4.13889 29.8043 4.53158 30.367C4.47314 30.161 4.40938 29.9558 4.34483 29.7512C4.02157 29.2774 3.71569 28.8005 3.42926 28.3226C1.77381 25.5606 0.698221 22.9171 0.647392 20.5664Z" fill="black"/>
<path d="M4.34483 29.7512C4.40924 29.9554 4.47285 30.16 4.53119 30.3656L4.53226 30.3671C6.89542 33.7531 10.1315 36.9643 13.4879 39.2712C13.8085 39.5454 14.1228 39.7494 14.4306 39.8901C19.1391 42.8387 24.2613 43.9292 27.1276 41.2348C30.2557 38.2942 32.4595 32.9824 33.6901 27.4864C34.2489 24.9904 34.6071 22.4561 34.7599 20.0889L34.76 20.0854C34.6069 22.4488 34.2481 24.6487 33.6901 27.1413C32.4595 32.6373 30.2557 37.949 27.1276 40.8896C24.2613 43.584 19.1391 42.4936 14.4306 39.5449C14.1228 39.4042 13.8085 39.2002 13.4879 38.9261C10.1315 36.6191 6.89542 33.408 4.53226 30.0219L4.53158 30.0218C4.46912 29.9323 4.40606 29.8409 4.34483 29.7512Z" fill="black"/>
</g>
<g opacity="0.12">
<path d="M0.647392 20.5672C0.593682 23.003 1.69228 25.7705 3.42926 28.6686C3.7703 29.2376 4.13889 29.8051 4.53158 30.3678C4.47314 30.1618 4.40938 29.9567 4.34483 29.752C4.02157 29.2782 3.71569 28.8013 3.42926 28.3234C1.77381 25.5614 0.698221 22.918 0.647392 20.5672Z" fill="black"/>
<path d="M3.82549 27.1465C3.9088 25.3554 5.34631 23.4643 11.0072 21.2019C12.7722 20.4965 14.9476 19.755 17.6206 18.9692C20.4141 18.1479 22.7835 17.6356 24.7851 17.3571C32.2221 16.3221 34.5833 18.5137 34.7605 20.0756C34.8091 19.3187 34.8366 18.5789 34.8431 17.8629C34.8442 17.7311 34.8444 17.6005 34.8434 17.4711C34.8433 17.4866 34.8432 17.5022 34.8431 17.5177C34.8366 18.2337 34.8091 18.9735 34.7605 19.7304C34.5833 18.1685 32.2221 15.9769 24.7851 17.0119C22.7835 17.2905 20.4141 17.8028 17.6206 18.624C14.9476 19.4098 12.7722 20.1513 11.0072 20.8567C4.98144 23.265 3.74104 25.2524 3.82549 27.1465Z" fill="black"/>
</g>
<rect width="8.03914" height="8.03914" transform="matrix(0.705769 0.708442 -0.705769 0.708442 43.4658 0.320312)" fill="url(#paint6_linear)"/>
<path opacity="0.12" d="M48.843 5.71777L43.4658 11.1154L38.0886 5.71777L37.792 6.01546L43.4658 11.7107L49.1395 6.01546L48.843 5.71777Z" fill="black"/>
<path d="M58.4008 20.262C59.6647 20.262 60.7568 20.4969 61.677 20.9666C62.6084 21.4254 63.3179 22.0863 63.8058 22.9493C64.3047 23.8123 64.5541 24.8282 64.5541 25.997C64.5541 27.1659 64.3047 28.1818 63.8058 29.0448C63.3179 29.8968 62.6084 30.5523 61.677 31.0111C60.7568 31.459 59.6647 31.6829 58.4008 31.6829H54.792V20.262H58.4008ZM58.4008 30.454C59.8976 30.454 61.0395 30.0662 61.8267 29.2906C62.6139 28.5041 63.0075 27.4062 63.0075 25.997C63.0075 24.5769 62.6084 23.4682 61.8101 22.6707C61.0229 21.8733 59.8865 21.4746 58.4008 21.4746H56.3054V30.454H58.4008Z" fill="white"/>
<path d="M72.5706 29.1431H67.5149L66.5836 31.6829H64.987L69.1779 20.3276H70.9242L75.0984 31.6829H73.5019L72.5706 29.1431ZM72.1382 27.9306L70.0427 22.1628L67.9473 27.9306H72.1382Z" fill="white"/>
<path d="M81.3487 31.7976C80.2732 31.7976 79.292 31.5518 78.405 31.0602C77.5181 30.5577 76.8141 29.8641 76.293 28.9792C75.783 28.0835 75.528 27.0785 75.528 25.9643C75.528 24.85 75.783 23.8505 76.293 22.9657C76.8141 22.0699 77.5181 21.3762 78.405 20.8847C79.292 20.3822 80.2732 20.1309 81.3487 20.1309C82.4352 20.1309 83.4219 20.3822 84.3089 20.8847C85.1959 21.3762 85.8943 22.0644 86.4043 22.9493C86.9143 23.8341 87.1693 24.8391 87.1693 25.9643C87.1693 27.0894 86.9143 28.0944 86.4043 28.9792C85.8943 29.8641 85.1959 30.5577 84.3089 31.0602C83.4219 31.5518 82.4352 31.7976 81.3487 31.7976ZM81.3487 30.5031C82.158 30.5031 82.8842 30.3174 83.5273 29.946C84.1814 29.5746 84.6914 29.0448 85.0573 28.3566C85.4342 27.6684 85.6227 26.8709 85.6227 25.9643C85.6227 25.0467 85.4342 24.2492 85.0573 23.5719C84.6914 22.8837 84.1869 22.3539 83.5439 21.9825C82.9008 21.6111 82.1691 21.4254 81.3487 21.4254C80.5282 21.4254 79.7965 21.6111 79.1534 21.9825C78.5104 22.3539 78.0004 22.8837 77.6234 23.5719C77.2575 24.2492 77.0746 25.0467 77.0746 25.9643C77.0746 26.8709 77.2575 27.6684 77.6234 28.3566C78.0004 29.0448 78.5104 29.5746 79.1534 29.946C79.8076 30.3174 80.5393 30.5031 81.3487 30.5031Z" fill="white"/>
</g>
<defs>
<linearGradient id="paint0_linear" x1="11.6328" y1="29.5627" x2="5.91155" y2="37.8857" gradientUnits="userSpaceOnUse">
<stop stop-color="#4E4D9B"/>
<stop offset="1" stop-color="#956BD9"/>
</linearGradient>
<linearGradient id="paint1_linear" x1="24.124" y1="16.7364" x2="29.4382" y2="41.3918" gradientUnits="userSpaceOnUse">
<stop stop-color="#007D3A"/>
<stop offset="1" stop-color="#11DF26"/>
</linearGradient>
<radialGradient id="paint2_radial" cx="0" cy="0" r="1" gradientUnits="userSpaceOnUse" gradientTransform="translate(11.4407 31.2127) rotate(-105.888) scale(8.7925 12.8769)">
<stop offset="0.527274" stop-opacity="0"/>
<stop offset="1"/>
</radialGradient>
<radialGradient id="paint3_radial" cx="0" cy="0" r="1" gradientUnits="userSpaceOnUse" gradientTransform="translate(14.3634 31.3852) rotate(65.7402) scale(7.95063 15.8652)">
<stop offset="0.427131" stop-opacity="0"/>
<stop offset="1"/>
</radialGradient>
<radialGradient id="paint4_radial" cx="0" cy="0" r="1" gradientUnits="userSpaceOnUse" gradientTransform="translate(28.8052 25.6888) rotate(-86.2827) scale(7.9556 14.7194)">
<stop offset="0.365766" stop-opacity="0"/>
<stop offset="1"/>
</radialGradient>
<linearGradient id="paint5_linear" x1="32.0592" y1="11.2166" x2="16.3546" y2="37.9533" gradientUnits="userSpaceOnUse">
<stop stop-color="#E6A3FF"/>
<stop offset="1" stop-color="#924DE8"/>
</linearGradient>
<linearGradient id="paint6_linear" x1="2.79163" y1="1.90027" x2="4.46459" y2="6.17221" gradientUnits="userSpaceOnUse">
<stop stop-color="#0500FF"/>
<stop offset="1" stop-color="#4D49FF"/>
</linearGradient>
<clipPath id="clip0">
<rect width="88" height="50" fill="white"/>
</clipPath>
</defs>
</svg>
