<svg width="122" height="45" viewBox="0 0 122 45" fill="none" xmlns="http://www.w3.org/2000/svg">
    <g clip-path="url(#clip0)">
        <path d="M121.999 0H76.5093V45H121.999V0Z" fill="url(#paint0_linear)"/>
        <path d="M9.2287 17.7514L5.57339 26.105H3.64322L0 17.7514H2.11114L4.68069 23.7183L7.28645 17.7514H9.2287Z" fill="url(#paint1_linear)"/>
        <path d="M16.6169 25.0221V26.1051H12.4277V20.9587H16.5173V22.0417H13.8392V22.9815H16.2097V24.0107H13.8392V25.0221H16.6169Z" fill="white"/>
        <path d="M26.2497 20.9587V26.1051H25.0735L22.6758 23.2678V26.1051H21.2734V20.9587H22.4497L24.8473 23.8049V20.9587H26.2497Z" fill="white"/>
        <path d="M32.2451 22.0596H30.6074V20.9587H35.3123V22.0596H33.6746V26.1051H32.2451V22.0596Z" fill="white"/>
        <path d="M42.0723 26.2036C41.3002 26.2036 40.697 25.9977 40.2628 25.586C39.8285 25.1743 39.6113 24.6074 39.6113 23.8854V20.9587H41.0409V23.8407C41.0409 24.2404 41.1283 24.5417 41.3033 24.7446C41.4842 24.9475 41.7466 25.049 42.0904 25.049C42.4282 25.049 42.6845 24.9475 42.8595 24.7446C43.0344 24.5417 43.1219 24.2404 43.1219 23.8407V20.9587H44.5333V23.8854C44.5333 24.6074 44.3162 25.1743 43.8818 25.586C43.4476 25.9977 42.8444 26.2036 42.0723 26.2036Z" fill="white"/>
        <path d="M52.8266 25.0848H50.3928L49.9585 26.1051H48.5742L50.9085 20.9587H52.32L54.6633 26.1051H53.2519L52.8266 25.0848ZM52.3924 24.0644L51.6143 22.2028L50.8271 24.0644H52.3924Z" fill="white"/>
        <path d="M61.2098 24.7268H60.3319V26.1051H58.9023V20.9587H61.2731C61.9907 20.9587 62.5609 21.1287 62.983 21.4689C63.4052 21.803 63.616 22.2654 63.616 22.8562C63.616 23.2321 63.5228 23.5602 63.3357 23.8407C63.1548 24.1151 62.8953 24.3299 62.5579 24.4851L63.7159 26.1051H62.1777L61.2098 24.7268ZM62.1777 22.8562C62.1777 22.5996 62.0931 22.4027 61.9243 22.2654C61.7556 22.1282 61.5052 22.0596 61.1732 22.0596H60.3319V23.6527H61.1732C61.5052 23.6527 61.7556 23.5841 61.9243 23.4469C62.0931 23.3096 62.1777 23.1127 62.1777 22.8562Z" fill="white"/>
        <path d="M70.9872 24.3956V26.1051H69.5581V24.3956L67.459 20.9587H68.9697L70.3178 23.1515L71.6567 20.9587H73.0955L70.9872 24.3956Z" fill="white"/>
        <path d="M83.7031 17.7514H87.5396C88.4564 17.7514 89.2647 17.9265 89.9647 18.2765C90.6719 18.6186 91.2189 19.1039 91.6051 19.7325C91.9993 20.361 92.196 21.0929 92.196 21.9282C92.196 22.7636 91.9993 23.4955 91.6051 24.124C91.2189 24.7525 90.6719 25.2418 89.9647 25.5919C89.2647 25.934 88.4564 26.1051 87.5396 26.1051H83.7031V17.7514ZM87.4434 24.5178C88.2877 24.5178 88.959 24.2872 89.4579 23.8257C89.9647 23.3563 90.2175 22.7238 90.2175 21.9282C90.2175 21.1326 89.9647 20.5042 89.4579 20.0427C88.959 19.5733 88.2877 19.3386 87.4434 19.3386H85.6579V24.5178H87.4434Z" fill="white"/>
        <path d="M100.923 24.315H97.0023L96.2543 26.1051H94.252L98.016 17.7514H99.9458L103.722 26.1051H101.671L100.923 24.315ZM100.308 22.8472L98.9687 19.6489L97.6297 22.8472H100.308Z" fill="white"/>
        <path d="M110.378 26.2483C109.502 26.2483 108.709 26.0613 108.001 25.6873C107.302 25.3134 106.751 24.8003 106.349 24.1479C105.955 23.4876 105.758 22.7477 105.758 21.9283C105.758 21.1088 105.955 20.3729 106.349 19.7205C106.751 19.0602 107.302 18.5431 108.001 18.1692C108.709 17.7952 109.502 17.6083 110.378 17.6083C111.255 17.6083 112.043 17.7952 112.742 18.1692C113.442 18.5431 113.993 19.0602 114.395 19.7205C114.798 20.3729 114.999 21.1088 114.999 21.9283C114.999 22.7477 114.798 23.4876 114.395 24.1479C113.993 24.8003 113.442 25.3134 112.742 25.6873C112.043 26.0613 111.255 26.2483 110.378 26.2483ZM110.378 24.6014C110.877 24.6014 111.327 24.49 111.729 24.2672C112.131 24.0365 112.445 23.7183 112.67 23.3125C112.903 22.9068 113.02 22.4454 113.02 21.9283C113.02 21.4111 112.903 20.9497 112.67 20.5439C112.445 20.1382 112.131 19.8239 111.729 19.6011C111.327 19.3705 110.877 19.2551 110.378 19.2551C109.879 19.2551 109.429 19.3705 109.027 19.6011C108.625 19.8239 108.307 20.1382 108.074 20.5439C107.849 20.9497 107.736 21.4111 107.736 21.9283C107.736 22.4454 107.849 22.9068 108.074 23.3125C108.307 23.7183 108.625 24.0365 109.027 24.2672C109.429 24.49 109.879 24.6014 110.378 24.6014Z" fill="white"/>
    </g>
    <defs>
        <linearGradient id="paint0_linear" x1="112.633" y1="-3.09887" x2="66.3478" y2="31.7541" gradientUnits="userSpaceOnUse">
            <stop stop-color="#3CE700"/>
            <stop offset="0.567708" stop-color="#0BC91E"/>
        </linearGradient>
        <linearGradient id="paint1_linear" x1="7.32854" y1="17.1762" x2="-1.44457" y2="24.3958" gradientUnits="userSpaceOnUse">
            <stop stop-color="#3CE700"/>
            <stop offset="0.567708" stop-color="#0BC91E"/>
        </linearGradient>
        <clipPath id="clip0">
            <rect width="121.999" height="45" fill="white"/>
        </clipPath>
    </defs>
</svg>
