<svg width="44" height="45" viewBox="0 0 44 45" fill="none" xmlns="http://www.w3.org/2000/svg">
<g clip-path="url(#clip0)">
<path d="M44 0H0V45H44V0Z" fill="url(#paint0_linear)"/>
<path fill-rule="evenodd" clip-rule="evenodd" d="M31.0013 25.6873C31.7092 26.0613 32.5017 26.2483 33.3783 26.2483C34.2549 26.2483 35.0431 26.0613 35.7425 25.6873C36.4424 25.3134 36.9931 24.8003 37.3951 24.1479C37.7978 23.4876 37.9988 22.7477 37.9988 21.9283C37.9988 21.1088 37.7978 20.3729 37.3951 19.7205C36.9931 19.0602 36.4424 18.5431 35.7425 18.1692C35.0431 17.7952 34.2549 17.6083 33.3783 17.6083C32.5017 17.6083 31.7092 17.7952 31.0013 18.1692C30.302 18.5431 29.7507 19.0602 29.3487 19.7205C28.9546 20.3729 28.7578 21.1088 28.7578 21.9283C28.7578 22.7477 28.9546 23.4876 29.3487 24.1479C29.7507 24.8003 30.302 25.3134 31.0013 25.6873ZM34.7294 24.2672C34.3274 24.49 33.8766 24.6014 33.3783 24.6014C32.8794 24.6014 32.4292 24.49 32.0272 24.2672C31.6251 24.0365 31.3072 23.7183 31.0738 23.3125C30.8491 22.9068 30.7364 22.4454 30.7364 21.9283C30.7364 21.4111 30.8491 20.9497 31.0738 20.5439C31.3072 20.1382 31.6251 19.8239 32.0272 19.6011C32.4292 19.3705 32.8794 19.2551 33.3783 19.2551C33.8766 19.2551 34.3274 19.3705 34.7294 19.6011C35.1315 19.8239 35.4452 20.1382 35.67 20.5439C35.9033 20.9497 36.0202 21.4111 36.0202 21.9283C36.0202 22.4454 35.9033 22.9068 35.67 23.3125C35.4452 23.7183 35.1315 24.0365 34.7294 24.2672Z" fill="white"/>
<path fill-rule="evenodd" clip-rule="evenodd" d="M6.70312 17.7514H10.5396C11.4564 17.7514 12.2647 17.9265 12.9647 18.2765C13.6719 18.6186 14.2189 19.1039 14.6051 19.7325C14.9993 20.361 15.196 21.0929 15.196 21.9282C15.196 22.7636 14.9993 23.4955 14.6051 24.124C14.2189 24.7525 13.6719 25.2418 12.9647 25.5919C12.2647 25.934 11.4564 26.1051 10.5396 26.1051H6.70312V17.7514ZM10.4434 24.5178C11.2877 24.5178 11.959 24.2872 12.4579 23.8257C12.9647 23.3563 13.2175 22.7238 13.2175 21.9282C13.2175 21.1326 12.9647 20.5042 12.4579 20.0427C11.959 19.5733 11.2877 19.3386 10.4434 19.3386H8.65792V24.5178H10.4434Z" fill="white"/>
<path fill-rule="evenodd" clip-rule="evenodd" d="M23.9229 24.315H20.0023L19.2543 26.1051H17.252L21.016 17.7514H22.9458L26.722 26.1051H24.6709L23.9229 24.315ZM23.3076 22.8472L21.9687 19.6489L20.6297 22.8472H23.3076Z" fill="white"/>
</g>
<defs>
<linearGradient id="paint0_linear" x1="34.9406" y1="-3.09887" x2="-10.8974" y2="30.2868" gradientUnits="userSpaceOnUse">
<stop stop-color="#3CE700"/>
<stop offset="0.567708" stop-color="#0BC91E"/>
</linearGradient>
<clipPath id="clip0">
<rect width="44" height="45" fill="white"/>
</clipPath>
</defs>
</svg>
