<svg width="715" height="518" viewBox="0 0 715 518" fill="none" xmlns="http://www.w3.org/2000/svg">
    <g clip-path="url(#clip0)">
        <g filter="url(#filter0_f)">
            <path fill-rule="evenodd" clip-rule="evenodd" d="M450.6 150.723L623.732 48.5221L520.392 219.517L529.356 257.848L464.021 325.969L486.382 277.692L425.119 319.27L464.319 236.844L456.929 219.341L377.82 273.762L424.336 196.493L336.361 235.396L384.196 186.991L343.765 211.073L416.62 144.967L450.6 150.723ZM620.068 51.1204L588.59 76.9763L569.656 81.2085L620.068 51.1204ZM589.674 77.1217L621.719 50.2943L585.125 93.1086L589.674 77.1217ZM517.3 112.579L555.78 100.059L516.207 134.582L517.3 112.579ZM449.597 150.97L416.517 146.056L347.671 208.101L385.671 185.006L411.62 159.295L449.597 150.97ZM424.904 195.584L411.683 160.22L338.851 233.782L424.904 195.584ZM466.972 321.999L487.789 277.075L527.228 259.115L466.972 321.999ZM513.684 226.912L519.945 219.418L514.568 209.128L513.684 226.912ZM512.93 228.247L513.915 208.41L497.122 200.048L513.634 255.221L512.93 228.247ZM520.065 219.929L513.616 228.28L514.412 258.818L490.203 275.161L528.877 257.613L520.065 219.929ZM548.906 169.138L515.289 208.477L520.272 219.006L548.906 169.138ZM555.794 127.487L550.39 166.993L573.958 129.723L555.794 127.487ZM554.421 127.42L534.243 145.634L555.977 101.64L554.421 127.42ZM513.983 207.042L497.19 198.679L533.158 146.556L513.983 207.042ZM515.714 135.266L516.613 112.546L451.101 151.05L515.714 135.266ZM450.68 151.153L412.115 159.607L466.91 177.48L450.68 151.153ZM520.422 110.535L567.908 82.2507L556.535 98.7244L520.422 110.535ZM557.034 101.053L568.423 100.58L555.175 126.085L557.034 101.053ZM513.815 257.992L496.002 199.811L464.802 237.053L513.815 257.992ZM496.572 197.278L468.599 178.419L504.484 174.261L496.572 197.278ZM464.658 236.581L494.376 199.913L457.65 218.691L464.658 236.581ZM456.31 217.94L442.306 185.455L381.457 269.825L456.31 217.94ZM495.851 197.928L457.718 217.323L468.392 178.863L495.851 197.928ZM457.031 217.289L442.683 185.287L467.73 178.377L457.031 217.289ZM464.529 237.383L513.19 258.759L426.536 317.643L464.529 237.383ZM548.948 168.294L534.175 147.002L555.016 128.068L548.948 168.294ZM514.636 207.76L548.61 168.684L533.454 147.652L514.636 207.76ZM505.013 173.956L498.013 195.977L532.033 147.086L505.013 173.956ZM504.225 173.716L515.374 136.404L467.958 177.938L504.225 173.716ZM516.148 135.77L504.862 173.021L532.887 145.678L516.148 135.77ZM515.509 135.739L467.559 177.74L467.551 177.735L451.327 151.418L515.509 135.739ZM516.178 135.152L533.59 144.916L555.125 101.599L516.178 135.152ZM467.242 178.018L441.883 184.679L425.777 195.192L412.37 160.253L467.242 178.018ZM441.393 185.67L383.001 266.472L425.709 196.56L441.393 185.67ZM574.556 128.728L620.059 53.0545L584.096 94.7932L574.556 128.728ZM568.852 100.238L584.341 93.2253L589.098 77.6387L568.852 100.238ZM568.44 100.233L586.663 79.3518L557.175 100.097L568.44 100.233ZM568.827 100.696L583.812 94.2782L555.862 126.119L568.827 100.696ZM573.964 129.31L583.469 95.4995L555.828 126.803L573.964 129.31ZM588.144 77.6726L568.66 81.8419L557.221 98.7579L588.144 77.6726Z" fill="url(#paint0_linear)"/>
        </g>
        <path fill-rule="evenodd" clip-rule="evenodd" d="M450.6 150.723L623.732 48.5221L520.392 219.517L529.356 257.848L464.021 325.969L486.382 277.692L425.119 319.27L464.319 236.844L456.929 219.341L377.82 273.762L424.336 196.493L336.361 235.396L384.196 186.991L343.765 211.073L416.62 144.967L450.6 150.723ZM620.068 51.1204L588.59 76.9763L569.656 81.2085L620.068 51.1204ZM589.674 77.1217L621.719 50.2943L585.125 93.1086L589.674 77.1217ZM517.3 112.579L555.78 100.059L516.207 134.582L517.3 112.579ZM449.597 150.97L416.517 146.056L347.671 208.101L385.671 185.006L411.62 159.295L449.597 150.97ZM424.904 195.584L411.683 160.22L338.851 233.782L424.904 195.584ZM466.972 321.999L487.789 277.075L527.228 259.115L466.972 321.999ZM513.684 226.912L519.945 219.418L514.568 209.128L513.684 226.912ZM512.93 228.247L513.915 208.41L497.122 200.048L513.634 255.221L512.93 228.247ZM520.065 219.929L513.616 228.28L514.412 258.818L490.203 275.161L528.877 257.613L520.065 219.929ZM548.906 169.138L515.289 208.477L520.272 219.006L548.906 169.138ZM555.794 127.487L550.39 166.993L573.958 129.723L555.794 127.487ZM554.421 127.42L534.243 145.634L555.977 101.64L554.421 127.42ZM513.983 207.042L497.19 198.679L533.158 146.556L513.983 207.042ZM515.714 135.266L516.613 112.546L451.101 151.05L515.714 135.266ZM450.68 151.153L412.115 159.607L466.91 177.48L450.68 151.153ZM520.422 110.535L567.908 82.2507L556.535 98.7244L520.422 110.535ZM557.034 101.053L568.423 100.58L555.175 126.085L557.034 101.053ZM513.815 257.992L496.002 199.811L464.802 237.053L513.815 257.992ZM496.572 197.278L468.599 178.419L504.484 174.261L496.572 197.278ZM464.658 236.581L494.376 199.913L457.65 218.691L464.658 236.581ZM456.31 217.94L442.306 185.455L381.457 269.825L456.31 217.94ZM495.851 197.928L457.718 217.323L468.392 178.863L495.851 197.928ZM457.031 217.289L442.683 185.287L467.73 178.377L457.031 217.289ZM464.529 237.383L513.19 258.759L426.536 317.643L464.529 237.383ZM548.948 168.294L534.175 147.002L555.016 128.068L548.948 168.294ZM514.636 207.76L548.61 168.684L533.454 147.652L514.636 207.76ZM505.013 173.956L498.013 195.977L532.033 147.086L505.013 173.956ZM504.225 173.716L515.374 136.404L467.958 177.938L504.225 173.716ZM516.148 135.77L504.862 173.021L532.887 145.678L516.148 135.77ZM515.509 135.739L467.559 177.74L467.551 177.735L451.327 151.418L515.509 135.739ZM516.178 135.152L533.59 144.916L555.125 101.599L516.178 135.152ZM467.242 178.018L441.883 184.679L425.777 195.192L412.37 160.253L467.242 178.018ZM441.393 185.67L383.001 266.472L425.709 196.56L441.393 185.67ZM574.556 128.728L620.059 53.0545L584.096 94.7932L574.556 128.728ZM568.852 100.238L584.341 93.2253L589.098 77.6387L568.852 100.238ZM568.44 100.233L586.663 79.3518L557.175 100.097L568.44 100.233ZM568.827 100.696L583.812 94.2782L555.862 126.119L568.827 100.696ZM573.964 129.31L583.469 95.4995L555.828 126.803L573.964 129.31ZM588.144 77.6726L568.66 81.8419L557.221 98.7579L588.144 77.6726Z" fill="url(#paint1_linear)"/>
        <path fill-rule="evenodd" clip-rule="evenodd" d="M218.687 145.733L271.858 54.5264L181.775 109.604L161.388 105.134L125.647 139.724L151.121 127.741L129.434 160.046L172.526 139.884L182.25 142.818L153.859 184.538L194.566 159.745L174.459 206.015L199.848 180.698L187.317 201.999L221.944 163.485L218.687 145.733ZM256.892 72.5177L270.93 55.5905L248.439 74.9913L256.892 72.5177ZM218.562 146.26L221.367 163.545L188.87 199.937L200.892 179.915L214.374 166.184L218.562 146.26ZM195.045 159.442L213.883 166.157L175.3 204.702L195.045 159.442ZM127.735 138.156L151.439 127.001L160.729 106.255L127.735 138.156ZM187.706 112.929L192.243 121.67L162.876 113.348L187.706 112.929ZM230.379 90.5416L209.456 93.599L229.084 81.0478L269.476 56.4751L247.552 75.5395L230.379 90.5416ZM188.046 112.548L192.968 121.626L229.719 91.1324L208.775 94.3609L188.046 112.548ZM218.51 145.473L214.206 165.927L204.254 137.014L226.854 111.302L244.929 90.39L256.976 73.084L270.502 56.4591L218.51 145.473ZM182.997 143.134L200.313 150.275L155.925 182.611L182.997 143.134ZM171.992 138.824L161.003 113.6L130.289 159.295L171.992 138.824ZM204.108 137.181L200.727 150.492L195.247 158.983L213.862 165.798L204.108 137.181ZM200.205 150.754L157.694 181.784L194.522 159.026L200.205 150.754ZM244.9 89.6601L248.382 75.4019L256.621 72.8221L244.9 89.6601ZM244.394 89.7394L247.827 75.6849L231.127 90.8573L244.394 89.7394ZM181.83 109.837L161.516 105.383L152.44 125.726L160.964 112.961L187.662 112.211L208.327 94.3877L181.83 109.837ZM161.406 113.269L192.838 122.397L182.682 142.004L173.061 138.824L161.406 113.269ZM193.907 121.867L204.108 136.705L225.893 111.749L244.151 90.5416L230.254 91.6623L193.907 121.867ZM183.338 142.753L193.374 122.323L203.915 136.928L200.4 150.077L183.338 142.753Z" fill="url(#paint2_linear)"/>
        <path fill-rule="evenodd" clip-rule="evenodd" d="M223.036 335.954L242.104 303.54L288.435 225.102L288.14 225.28L288.351 224.921L182.683 288.988L177.968 291.836L153.052 286.345L152.787 286.599L152.597 286.558L108.59 328.641L109.369 328.279L109.224 328.419L139.893 314.121L113.177 353.416L113.873 353.084L113.799 353.194L158.475 331.816L166.654 327.917L178.1 332.526L143.097 383.314L143.719 382.939L143.611 383.098L186.318 357.304L193.172 353.179L168.331 409.529L168.911 408.957L168.752 409.319L199.465 378.941L184.135 404.661L184.817 403.912L184.495 404.454L226.971 357.595L223.036 335.954ZM153.207 286.649L177.641 292.034L177.622 292.046L153.19 286.688L153.207 286.649ZM153.079 286.933L142.759 309.837L152.051 296.095L152.363 296.101L152.51 295.883L172.223 296.21L177.355 292.257L153.079 286.933ZM152.224 297.151L114.918 352.175L157.883 331.782L166.296 327.775L152.224 297.151ZM166.515 327.61L166.669 327.482L157.727 307.955L166.515 327.61ZM153.226 296.655L166.882 327.304L190.6 307.485L153.226 296.655ZM114.229 352.502L114.285 352.476L121.407 341.958L114.229 352.502ZM190.499 308.609L178.667 331.774L167.233 327.49L190.499 308.609ZM167.064 327.707L169.671 328.762L166.968 327.753L167.064 327.707ZM270.098 247.689L286.1 228.26L267.51 259.512L270.098 247.689ZM269.99 246.813L286.49 227.081L259.924 249.727L269.99 246.813ZM253.9 272.937L247.371 293.187L233.153 294.01L255.238 268.767L253.9 272.937ZM226.077 357.865L222.752 337.203L217.701 360.868L201.167 377.571L186.737 401.39L226.077 357.865ZM193.952 352.879L169.943 407.364L216.877 361.033L193.952 352.879ZM140.309 313.187L111.92 326.382L151.601 288.324L140.309 313.187ZM173.221 296.161L177.759 292.365L184.09 295.532L173.221 296.161ZM178.798 292.5L178.019 292.148L178.048 292.123L178.798 292.5ZM185.116 295.002L209.293 274.396L210.269 273.562L178.314 291.913L185.116 295.002ZM155.667 296.592L190.261 306.428L184.895 296.11L171.977 296.858L155.667 296.592ZM212.011 272.38L237.354 268.74L235.816 257.339L212.011 272.38ZM237.429 269.787L253.842 268.666L225.86 282.567L237.429 269.787ZM186.159 295.939L224.88 283.53L195.385 303.927L191.637 306.509L186.159 295.939ZM205.576 325.707L222.386 335.686L222.384 335.692L205.596 325.767L205.576 325.707ZM205.316 325.908L209.89 339.239L205.376 325.944L205.316 325.908ZM205.214 325.541L205.245 325.559L205.225 325.499L205.214 325.541ZM194.321 352.048L216.742 360.274L205.083 326.05L201.05 341.713L194.321 352.048ZM232.232 294.658L226.86 300.774L205.403 325.295L205.407 325.3L222.45 335.417L232.232 294.658ZM222.561 336.103L205.728 326.152L217.386 360.232L222.561 336.103ZM222.628 335.829L222.627 335.829L222.625 335.834L222.628 335.829ZM232.642 294.52L222.875 335.409L242.178 302.587L247.314 293.816L232.642 294.52ZM248.71 291.182L266.607 261.033L256.112 268.267L253.937 274.98L248.71 291.182ZM254.835 260.695L254.599 267.777L238.712 269.081L254.835 260.695ZM207.197 301.922L204.748 324.338L192.608 306.981L207.197 301.922ZM204.67 324.77L204.651 324.775L203.787 323.544L204.67 324.77ZM200.261 341.65L179.188 332.983L146.346 380.462L200.261 341.65ZM198.109 340.442L200.376 341.378L200.368 341.409L198.109 340.442ZM204.727 325.391L179.947 332.306L200.447 341.119L204.727 325.391ZM191.948 307.737L179.772 331.804L204.33 324.866L191.948 307.737ZM224.962 282.623L211.255 273.456L236.944 269.421L224.962 282.623ZM185.645 295.442L210.371 273.921L210.578 273.741L224.229 283.187L185.645 295.442ZM207.57 301.404L219.784 289.159L224.683 284.229L196.086 304.096L193.389 305.976L207.57 301.404ZM207.786 302.014L205.285 324.932L226.837 300.397L231.773 294.756L207.786 302.014ZM208.248 301.473L232.131 294.126L225.657 283.633L220.773 288.624L208.248 301.473ZM232.758 294.033L226.369 283.07L254.065 269.274L232.758 294.033ZM200.122 342.24L193.135 352.283L187.637 355.652L149.08 379.194L200.122 342.24ZM284.572 228.032L236.961 256.651L258.554 250.475L284.572 228.032ZM255.163 260.182L269.339 247.47L259.536 250.497L255.163 260.182ZM255.269 267.677L268.223 249.227L255.118 260.633L255.269 267.677ZM254.812 260.249L258.784 250.901L238.63 268.543L254.812 260.249ZM257.803 251.14L236.234 257.29L237.945 268.693L257.803 251.14ZM267.049 260.245L269.583 248.071L256.283 267.542L267.049 260.245Z" fill="url(#paint3_linear)"/>
        <path fill-rule="evenodd" clip-rule="evenodd" d="M318.146 429.395L292.929 483.542L295.565 494.385L277.871 518.271L283.871 505.416L270.738 521.258L279.704 493.718L257.783 510.085L267.687 491.474L269.602 481.655L242.476 497.393L253.11 477.754L239.198 485.976L257.744 464.274L269.647 465.734L318.146 429.395ZM294.756 494.517L292.718 486.112L292.335 491.496L285.847 502.445L280.645 513.436L294.756 494.517ZM291.152 492.072L280.471 493.185L272.446 517.946L284.705 503.266L291.152 492.072ZM276.255 471.694L273.223 467.316L259.84 469.086L276.255 471.694ZM291.672 491.353L292.307 483.644L315.926 433.518L284.64 479.828L291.672 491.353ZM273.598 467.255L293.025 449.305L316.241 431.566L276.877 471.592L273.598 467.255ZM316.863 431.464L277.255 472.094L283.915 479.313L316.863 431.464ZM253.251 477.313L241.811 483.666L257.712 464.762L269.627 466.441L288.418 452.594L273.155 466.908L257.93 468.773L253.251 477.313ZM283.486 488.256L284.121 480.547L291.05 491.455L280.368 492.568L265.004 503.954L283.486 488.256ZM258.13 469.366L276.673 472.455L283.396 480.032L282.761 487.741L258.859 508.872L268.653 491.316L270.642 480.217L245.526 494.465L258.13 469.366Z" fill="url(#paint4_linear)"/>
        <path fill-rule="evenodd" clip-rule="evenodd" d="M434.66 366.689L417.102 409.706L419.558 418.035L406.706 437.254L410.886 427.042L401.275 439.84L407.206 418.105L390.786 431.636L397.782 416.805L398.901 409.103L378.411 422.339L385.936 406.682L375.434 413.587L389.03 396.034L398.336 396.727L434.66 366.689ZM418.935 418.168L417.034 411.711L416.939 415.909L412.31 424.66L408.68 433.394L418.935 418.168ZM408.985 415.951L410.52 407.127L431.5 373.444L416.622 409.808L416.419 415.823L410.712 426.03L402.478 437.203L408.985 415.951ZM389.522 399.977L404.352 402.213L432.958 369.741L409.56 407.331L407.563 416.882L391.577 430.654L398.527 416.646L399.655 407.947L380.671 419.95L389.522 399.977ZM386.03 406.334L377.377 411.695L389.024 396.414L398.347 397.278L415.886 383.094L431.602 369.97L404.176 401.013L389.344 399.523L386.03 406.334Z" fill="url(#paint5_linear)"/>
    </g>
    <defs>
        <filter id="filter0_f" x="333.361" y="45.522" width="293.371" height="283.447" filterUnits="userSpaceOnUse" color-interpolation-filters="sRGB">
            <feFlood flood-opacity="0" result="BackgroundImageFix"/>
            <feBlend mode="normal" in="SourceGraphic" in2="BackgroundImageFix" result="shape"/>
            <feGaussianBlur stdDeviation="1.5" result="effect1_foregroundBlur"/>
        </filter>
        <linearGradient id="paint0_linear" x1="616.664" y1="190.8" x2="339.262" y2="177.018" gradientUnits="userSpaceOnUse">
            <stop stop-color="#BB6BD9"/>
            <stop offset="1" stop-color="#8000FF"/>
        </linearGradient>
        <linearGradient id="paint1_linear" x1="616.664" y1="190.8" x2="339.262" y2="177.018" gradientUnits="userSpaceOnUse">
            <stop stop-color="#BB6BD9"/>
            <stop offset="1" stop-color="#8000FF"/>
        </linearGradient>
        <linearGradient id="paint2_linear" x1="271.625" y1="54.5264" x2="271.625" y2="521.258" gradientUnits="userSpaceOnUse">
            <stop stop-color="#BB6BD9"/>
            <stop offset="1" stop-color="#8000FF"/>
        </linearGradient>
        <linearGradient id="paint3_linear" x1="271.625" y1="54.5264" x2="271.625" y2="521.258" gradientUnits="userSpaceOnUse">
            <stop stop-color="#BB6BD9"/>
            <stop offset="1" stop-color="#8000FF"/>
        </linearGradient>
        <linearGradient id="paint4_linear" x1="271.625" y1="54.5264" x2="271.625" y2="521.258" gradientUnits="userSpaceOnUse">
            <stop stop-color="#BB6BD9"/>
            <stop offset="1" stop-color="#8000FF"/>
        </linearGradient>
        <linearGradient id="paint5_linear" x1="271.625" y1="54.5264" x2="271.625" y2="521.258" gradientUnits="userSpaceOnUse">
            <stop stop-color="#BB6BD9"/>
            <stop offset="1" stop-color="#8000FF"/>
        </linearGradient>
        <clipPath id="clip0">
            <rect width="715" height="518" fill="white"/>
        </clipPath>
    </defs>
</svg>
