<svg width="30" height="30" viewBox="0 0 30 30" fill="none" xmlns="http://www.w3.org/2000/svg">
    <path d="M22.5991 5.16909C22.8892 5.16679 23.1768 5.22089 23.4456 5.32829C23.7143 5.43569 23.9588 5.59427 24.165 5.79491C24.3713 5.99556 24.5352 6.23431 24.6473 6.49746C24.7595 6.76061 24.8176 7.04296 24.8185 7.3283V26.128L22.4992 24.1369L21.1876 22.9623L19.8138 21.7157L20.3864 23.6544H8.15089C7.86084 23.6567 7.57318 23.6026 7.30445 23.4952C7.03572 23.3878 6.79121 23.2292 6.58497 23.0286C6.37874 22.8279 6.21484 22.5892 6.10269 22.326C5.99055 22.0629 5.93237 21.7805 5.93151 21.4952V7.3283C5.93237 7.04296 5.99055 6.76061 6.10269 6.49746C6.21484 6.23431 6.37874 5.99556 6.58497 5.79491C6.79121 5.59427 7.03572 5.43569 7.30445 5.32829C7.57318 5.22089 7.86084 5.16679 8.15089 5.16909H22.5991ZM22.5991 3.75H8.15089C7.18474 3.74942 6.25779 4.12581 5.57337 4.79662C4.88895 5.46743 4.50294 6.37789 4.5 7.3283V21.4974C4.50294 22.4482 4.88926 23.359 5.57416 24.0298C6.25906 24.7007 7.18657 25.0768 8.15311 25.0757H21.3962L21.5183 25.187L21.5316 25.1979H21.5449L23.8642 27.189L26.25 29.25V7.3283C26.2471 6.37789 25.861 5.46743 25.1766 4.79662C24.4922 4.12581 23.5653 3.74942 22.5991 3.75Z" fill="white"/>
    <path d="M17.6873 18.6317C18.0153 19.0402 18.4086 19.5 18.4086 19.5C20.822 19.4241 21.75 17.8705 21.75 17.8705C21.7141 15.6951 21.1759 13.5569 20.177 11.6205C19.2937 10.9454 18.2231 10.5559 17.1098 10.5045L16.957 10.6763C18.8131 11.2344 19.6759 12.0379 19.6759 12.0379C18.6579 11.4878 17.5423 11.1383 16.3907 11.0089C15.6576 10.93 14.9176 10.9375 14.1863 11.0313C14.1236 11.0333 14.0612 11.0408 13.9998 11.0536C13.1459 11.148 12.3119 11.3739 11.528 11.7232C11.1145 11.9107 10.8786 12.0335 10.8786 12.0335C10.8786 12.0335 11.7774 11.1875 13.7504 10.6295L13.6402 10.5C12.5269 10.5514 11.4563 10.941 10.573 11.6161C9.57409 13.5524 9.03595 15.6906 9 17.8661C9 17.8661 9.91681 19.4286 12.3302 19.4955C12.3302 19.4955 12.7347 19.0134 13.0627 18.6027C11.6763 18.1964 11.1527 17.3393 11.1527 17.3393C11.1527 17.3393 11.2628 17.4152 11.4583 17.5223C11.4706 17.5352 11.485 17.5457 11.501 17.5536C11.5347 17.5759 11.5662 17.5848 11.5999 17.6071C11.8571 17.7463 12.1237 17.8679 12.3976 17.971C12.9174 18.172 13.4544 18.3259 14.002 18.4308C14.9363 18.6032 15.8946 18.6032 16.8289 18.4308C17.369 18.3371 17.8967 18.1828 18.4018 17.971C18.8431 17.8079 19.2644 17.596 19.658 17.3393C19.658 17.3393 19.1187 18.2366 17.6873 18.6317ZM13.6425 17.1384C13.0358 17.1384 12.5369 16.5871 12.5369 15.9129C12.5183 15.7579 12.5329 15.6006 12.5799 15.4516C12.6269 15.3026 12.7051 15.1651 12.8095 15.0483C12.9138 14.9315 13.0419 14.838 13.1853 14.774C13.3287 14.71 13.4842 14.6769 13.6414 14.6769C13.7986 14.6769 13.954 14.71 14.0974 14.774C14.2408 14.838 14.3689 14.9315 14.4733 15.0483C14.5776 15.1651 14.6559 15.3026 14.7029 15.4516C14.7498 15.6006 14.7645 15.7579 14.7458 15.9129C14.7546 16.0659 14.7329 16.2191 14.6819 16.3637C14.6309 16.5082 14.5517 16.6414 14.4488 16.7555C14.3458 16.8696 14.2212 16.9623 14.0821 17.0284C13.9429 17.0945 13.792 17.1326 13.638 17.1406L13.6425 17.1384ZM17.5951 17.1384C16.9862 17.1406 16.4963 16.5982 16.4963 15.9152C16.5197 15.7031 16.6045 15.5022 16.7404 15.3369C16.8762 15.1716 17.0574 15.0489 17.2619 14.9837C17.4665 14.9185 17.6856 14.9135 17.893 14.9693C18.1003 15.0251 18.2869 15.1394 18.4303 15.2983C18.5737 15.4572 18.6677 15.654 18.7009 15.8648C18.7341 16.0756 18.7052 16.2915 18.6176 16.4863C18.53 16.6812 18.3874 16.8467 18.2072 16.9628C18.0269 17.0789 17.8167 17.1406 17.6019 17.1406L17.5951 17.1384Z" fill="white"/>
</svg>
