<?xml version="1.0" standalone="no"?>
<!DOCTYPE svg PUBLIC "-//W3C//DTD SVG 20010904//EN"
 "http://www.w3.org/TR/2001/REC-SVG-20010904/DTD/svg10.dtd">
<svg version="1.0" xmlns="http://www.w3.org/2000/svg"
 width="700.000000pt" height="700.000000pt" viewBox="0 0 700.000000 700.000000"
 preserveAspectRatio="xMidYMid meet">
<metadata>
Created by potrace 1.11, written by Peter Selinger 2001-2013
</metadata>
<g transform="translate(0.000000,700.000000) scale(0.100000,-0.100000)"
fill="#000000" stroke="none">
<path d="M196 6984 c-36 -11 -65 -31 -107 -73 -99 -99 -89 275 -89 -3411 0
-3686 -10 -3312 89 -3411 99 -99 -275 -89 3411 -89 3686 0 3312 -10 3411 89
99 99 89 -275 89 3411 0 3686 10 3312 -89 3411 -99 99 276 89 -3415 88 -2866
0 -3257 -2 -3300 -15z m1329 -2497 c124 -34 280 -110 362 -177 216 -175 329
-469 294 -766 -20 -177 -68 -300 -167 -430 -139 -183 -359 -300 -629 -333 -53
-6 -267 -11 -517 -11 l-428 0 0 876 0 875 493 -3 492 -4 100 -27z m2585 -834
c222 -478 405 -871 407 -876 3 -4 -95 -6 -218 -5 l-222 3 -85 198 -86 197
-411 0 -412 0 -83 -192 c-45 -106 -85 -196 -89 -201 -4 -4 -103 -6 -219 -5
l-211 3 385 830 c212 457 393 849 404 873 l19 42 209 0 209 0 403 -867z m1836
852 c414 -71 702 -358 755 -751 52 -395 -170 -761 -556 -913 -107 -42 -197
-60 -335 -67 -470 -24 -861 238 -971 651 -31 114 -31 327 0 440 89 334 361
574 726 639 107 19 273 19 381 1z"/>
<path d="M840 3644 l0 -546 243 5 c133 3 265 11 292 17 148 35 289 142 345
262 135 288 35 621 -223 744 -107 51 -195 63 -444 64 l-213 0 0 -546z"/>
<path d="M3366 3824 c-70 -163 -130 -302 -133 -310 -4 -12 38 -14 261 -14 146
0 266 2 266 5 0 6 -248 583 -258 602 -5 8 -59 -107 -136 -283z"/>
<path d="M5663 4180 c-269 -49 -442 -256 -443 -532 0 -155 51 -289 148 -386
105 -104 231 -154 392 -154 242 0 428 125 508 341 30 81 40 222 23 313 -37
189 -174 341 -359 398 -75 23 -198 32 -269 20z"/>
</g>
</svg>
