<svg width="24" height="24" viewBox="0 0 24 24" fill="none" xmlns="http://www.w3.org/2000/svg">
<path fill-rule="evenodd" clip-rule="evenodd" d="M11.7852 16.388C11.988 16.388 12.192 16.4398 12.3756 16.5433L18 19.7359V4.1381C18 3.89604 17.8548 3.73587 17.76 3.73587H6.24C6.144 3.73587 6 3.89604 6 4.1381V19.6732L11.1672 16.5602C11.358 16.4458 11.5716 16.388 11.7852 16.388ZM5.14342 22.2851C4.94915 22.2851 4.75487 22.236 4.58002 22.1366C4.22232 21.9343 4.00061 21.5537 4.00061 21.1423V4.3818C4.00061 2.911 5.12857 1.71448 6.5148 1.71448H17.4858C18.872 1.71448 20 2.911 20 4.3818V21.1423C20 21.5492 19.784 21.9251 19.4332 22.1297C19.0812 22.3354 18.6492 22.3388 18.2949 22.1377L11.8129 18.4716L5.73083 22.1228C5.55027 22.2303 5.34684 22.2851 5.14342 22.2851Z" fill="#7D8199"/>
</svg>
