<svg width="24" height="24" viewBox="0 0 24 24" fill="none" xmlns="http://www.w3.org/2000/svg">
<path d="M15.0576 15.0734C14.6349 15.7264 14.1591 16.3523 13.6253 16.9609C13.4988 17.1052 13.3054 17.1812 13.1096 17.1812C12.9751 17.1812 12.8396 17.1454 12.7236 17.071C12.439 16.8884 12.3815 16.5433 12.5948 16.3C14.5671 14.0515 16.3958 11.0108 16.4879 4.10145H6.51198C6.60408 11.011 8.43273 14.0515 10.405 16.3C10.6184 16.5433 10.5607 16.8884 10.2762 17.071C9.99185 17.2534 9.58802 17.2043 9.37451 16.9609C8.84075 16.3523 8.36495 15.7264 7.94228 15.0734C4.63599 14.9229 2 12.5757 2 9.71182C2 9.00014 2.16037 8.30857 2.47677 7.65638C2.79365 7.00294 3.25206 6.41711 3.83928 5.91499C4.09095 5.69993 4.49864 5.69993 4.75015 5.91499C5.00165 6.13004 5.00165 6.47879 4.75015 6.69385C4.28304 7.09326 3.9185 7.55904 3.66667 8.07823C3.41549 8.59605 3.28812 9.14567 3.28812 9.71182C3.28812 11.7637 4.99038 13.4815 7.25072 13.8882C5.83201 11.1744 5.22031 7.94055 5.22031 3.55072C5.22031 3.24659 5.50869 3 5.86437 3H17.1355C17.4911 3 17.7795 3.24659 17.7795 3.55072C17.7795 7.94055 17.1678 11.1744 15.7491 13.8882C18.0095 13.4815 19.7117 11.7635 19.7117 9.71182C19.7117 9.14567 19.5843 8.59605 19.3332 8.07837C19.0815 7.55904 18.717 7.09326 18.2497 6.69399C17.9982 6.47893 17.998 6.13018 18.2497 5.91512C18.5012 5.70006 18.9089 5.69993 19.1606 5.91512C19.7479 6.41725 20.2065 7.00308 20.5232 7.65651C20.8395 8.30857 21 9.00014 21 9.71196C20.9998 12.5757 18.3639 14.9229 15.0576 15.0734ZM6.83047 21.4493C6.83047 21.7534 7.11885 22 7.47453 22H15.5253C15.881 22 16.1694 21.7534 16.1694 21.4493C16.1694 21.1451 15.881 20.8986 15.5253 20.8986H7.47453C7.11885 20.8986 6.83047 21.1451 6.83047 21.4493ZM13.9152 19.2464C14.2708 19.2464 14.5592 18.9998 14.5592 18.6957C14.5592 18.3915 14.2708 18.1449 13.9152 18.1449H9.08468C8.729 18.1449 8.44062 18.3915 8.44062 18.6957C8.44062 18.9998 8.729 19.2464 9.08468 19.2464H13.9152Z" fill="#0BC91F"/>
</svg>
