<svg width="14" height="14" viewBox="0 0 14 14" fill="none" xmlns="http://www.w3.org/2000/svg">
<path d="M5.15898 3.62652C4.97676 3.92094 4.89043 4.26326 4.9 4.6535C4.9035 4.79646 4.93547 4.91745 4.99588 5.01649C5.0563 5.11552 5.15606 5.16334 5.29515 5.15993C5.39947 5.15737 5.48744 5.11849 5.55905 5.04328C5.63066 4.96807 5.66519 4.8783 5.66263 4.77398C5.65319 4.38898 5.71146 4.0129 6.02607 3.75024C6.28368 3.53516 6.59409 3.42317 6.95728 3.41426C7.22001 3.40782 7.46654 3.4501 7.69686 3.54111C7.92719 3.63211 8.11417 3.76864 8.25781 3.95069C8.40522 4.12877 8.48215 4.34918 8.48859 4.61192C8.49545 4.89194 8.4261 5.10188 8.29714 5.31829C8.18606 5.51819 8.03591 5.70163 7.84671 5.86865C7.66136 6.03556 7.47428 6.21026 7.28545 6.39272C7.05954 6.61102 6.82488 6.97743 6.80244 7.02446C6.57434 7.50246 6.54001 8.2462 6.73492 8.75C6.8821 9.12119 7.44753 8.95928 7.43814 8.57619C7.42753 8.1434 7.24754 7.71659 7.50077 7.31207C7.60294 7.14886 7.72949 7.00933 7.87232 6.88053C8.07263 6.69991 8.30076 6.47613 8.53996 6.23439C8.73991 6.03232 8.90814 5.79817 9.04465 5.53193C9.18494 5.26174 9.25072 4.94891 9.24201 4.59345C9.2367 4.37708 9.19894 4.17697 9.12871 3.99312C8.97562 3.58321 8.70276 3.25549 8.31014 3.00996C7.91752 2.76443 7.45654 2.64815 6.92721 2.66112C6.55243 2.67031 6.20862 2.75993 5.89578 2.92997C5.5867 3.09605 5.3411 3.32824 5.15898 3.62652Z" fill="#0BC91F"/>
<path d="M7.14 9.51418C7.27611 9.51418 7.39181 9.56182 7.48708 9.6571C7.58236 9.75238 7.63 9.86807 7.63 10.0042C7.63 10.1403 7.58236 10.256 7.48708 10.3513C7.39181 10.4465 7.27611 10.4942 7.14 10.4942C7.00389 10.4942 6.88819 10.4465 6.79292 10.3513C6.69764 10.256 6.65 10.1403 6.65 10.0042C6.65 9.86807 6.69764 9.75238 6.79292 9.6571C6.88819 9.56182 7.00389 9.51418 7.14 9.51418Z" fill="#0BC91F"/>
<path fill-rule="evenodd" clip-rule="evenodd" d="M14 7C14 10.866 10.866 14 7 14C3.13401 14 0 10.866 0 7C0 3.13401 3.13401 0 7 0C10.866 0 14 3.13401 14 7ZM13.3 7C13.3 10.4794 10.4794 13.3 7 13.3C3.52061 13.3 0.7 10.4794 0.7 7C0.7 3.52061 3.52061 0.7 7 0.7C10.4794 0.7 13.3 3.52061 13.3 7Z" fill="#0BC91F"/>
</svg>
