<svg width="24" height="24" viewBox="0 0 24 24" fill="none" xmlns="http://www.w3.org/2000/svg">
<path fill-rule="evenodd" clip-rule="evenodd" d="M16.1998 5.44996C14.9016 5.44996 13.8498 6.50174 13.8498 7.79996C13.8498 9.09817 14.9016 10.15 16.1998 10.15C17.4981 10.15 18.5498 9.09817 18.5498 7.79996C18.5498 6.50174 17.4981 5.44996 16.1998 5.44996ZM15.3498 7.79996C15.3498 7.33017 15.7301 6.94996 16.1998 6.94996C16.6696 6.94996 17.0498 7.33017 17.0498 7.79996C17.0498 8.26974 16.6696 8.64996 16.1998 8.64996C15.7301 8.64996 15.3498 8.26974 15.3498 7.79996Z" fill="#0BC91F"/>
<path fill-rule="evenodd" clip-rule="evenodd" d="M8.26951 7.46963C7.86063 7.8785 7.51514 8.32785 7.22917 8.80151C6.36056 8.81962 5.39037 8.98756 4.8215 9.5568C3.86419 10.5141 3.24323 11.808 2.87004 12.8176C2.5353 13.7232 2.3999 14.4 2.3999 14.4L5.6499 13.9357V14.7857C5.6499 15.2499 5.83428 15.695 6.16247 16.0232L7.97668 17.8374C8.30487 18.1656 8.74999 18.35 9.21412 18.35H10.0644L9.6001 21.5999C9.6001 21.5999 10.2769 21.4645 11.1825 21.1297C12.1921 20.7565 13.486 20.1356 14.4433 19.1783C15.0126 18.6094 15.1805 17.6391 15.1986 16.7704C15.6721 16.4845 16.1214 16.1391 16.5302 15.7303C21.0459 11.2146 22.0448 5.72197 22.2678 3.48172C22.3692 2.46269 21.5371 1.63059 20.5181 1.73202C18.2778 1.95501 12.7852 2.95393 8.26951 7.46963ZM20.7243 3.22987C20.713 3.22585 20.6946 3.22186 20.6666 3.22465C18.585 3.43184 13.495 4.36542 9.33017 8.53029C9.20092 8.65953 9.07939 8.79442 8.96546 8.93413C9.02605 8.94459 9.0591 8.9512 9.0591 8.9512L7.9999 13.6L7.1499 13.7214V14.7857C7.1499 14.852 7.17624 14.9156 7.22313 14.9625L9.03734 16.7767C9.08422 16.8236 9.14781 16.85 9.21412 16.85H10.2787L10.4001 15.9999L15.0489 14.9407C15.0489 14.9407 15.0555 14.9737 15.0659 15.0341C15.2055 14.9202 15.3403 14.7988 15.4695 14.6696C19.6344 10.5048 20.568 5.41476 20.7751 3.33315C20.7779 3.3052 20.7739 3.28678 20.7699 3.27552C20.7657 3.26365 20.7595 3.25446 20.7524 3.24736C20.7453 3.24026 20.7361 3.23411 20.7243 3.22987ZM13.3826 18.1176C12.8474 18.6529 12.1374 19.0803 11.4287 19.4063L11.7391 17.2332L13.6977 16.787C13.6887 17.1007 13.6556 17.3942 13.5937 17.6416C13.5178 17.9451 13.4244 18.0758 13.3826 18.1176ZM5.88216 10.6175C5.34692 11.1527 4.9195 11.8627 4.5935 12.5714L6.76655 12.261L7.21281 10.3024C6.89905 10.3114 6.60557 10.3445 6.35821 10.4064C6.05465 10.4823 5.92394 10.5757 5.88216 10.6175Z" fill="#0BC91F"/>
<path d="M6.59793 18.9307C6.60923 18.9107 6.62053 18.8908 6.63378 18.872L7.00018 19.2376C6.92018 19.5416 6.76818 19.8304 6.53058 20.068C5.42338 21.1752 3.01058 20.9872 3.01058 20.9872C3.01058 20.9872 2.83698 18.56 3.92978 17.4672C4.16738 17.2296 4.45618 17.0776 4.76018 16.9976L5.12578 17.364C5.10619 17.378 5.08555 17.3898 5.06492 17.4015C5.03165 17.4204 4.99843 17.4393 4.96978 17.468C4.18898 18.248 4.57938 19.4184 4.57938 19.4184C4.57938 19.4184 5.74978 19.808 6.52978 19.028C6.5591 18.9991 6.57852 18.9649 6.59793 18.9307Z" fill="#0BC91F"/>
</svg>
