<svg width="24" height="24" viewBox="0 0 24 24" fill="none" xmlns="http://www.w3.org/2000/svg">
<path fill-rule="evenodd" clip-rule="evenodd" d="M13.1448 2.86687C12.7854 1.71104 11.22 1.71104 10.8605 2.86687L9.44117 7.42993C9.28034 7.94682 8.81928 8.29679 8.29899 8.29679H3.70596C2.54253 8.29679 2.05882 9.85193 3 10.5663L6.71584 13.3864C7.13681 13.7059 7.31295 14.2721 7.15213 14.789L5.7328 19.3521C5.37334 20.5079 6.63968 21.469 7.58094 20.7547L11.2968 17.9346C11.7177 17.6151 12.2877 17.6151 12.7086 17.9346L16.4244 20.7547C17.3656 21.469 18.632 20.5079 18.2725 19.3521L16.8532 14.789C16.6924 14.2721 16.8685 13.7059 17.2895 13.3864L21.0053 10.5663C21.9465 9.85193 21.4628 8.29679 20.2994 8.29679H15.7063C15.186 8.29679 14.725 7.94682 14.5642 7.42993L13.1448 2.86687ZM13.9298 9.84749C13.8257 9.84749 13.7335 9.7775 13.7014 9.67412L12.2311 4.94731C12.1592 4.71615 11.8461 4.71615 11.7742 4.94731L10.304 9.67412C10.2718 9.7775 10.1796 9.84749 10.0755 9.84749H5.3177C5.08502 9.84749 4.98828 10.1585 5.17652 10.3014L9.02569 13.2227C9.10988 13.2866 9.1451 13.3998 9.11295 13.5032L7.64269 18.23C7.57078 18.4612 7.82406 18.6534 8.0123 18.5105L11.8615 15.5892C11.9457 15.5253 12.0597 15.5253 12.1438 15.5892L15.993 18.5105C16.1813 18.6534 16.4345 18.4612 16.3626 18.23L14.8924 13.5032C14.8602 13.3998 14.8955 13.2866 14.9796 13.2227L18.8288 10.3014C19.017 10.1585 18.9203 9.84749 18.6876 9.84749H13.9298Z" fill="#0BC91F"/>
</svg>
