<svg width="22" height="19" viewBox="0 0 22 19" fill="none" xmlns="http://www.w3.org/2000/svg">
<path fill-rule="evenodd" clip-rule="evenodd" d="M10 7C10 6.448 10.448 6 11 6C11.552 6 12 6.448 12 7V11C12 11.552 11.552 12 11 12C10.448 12 10 11.552 10 11V7ZM10 14C10 13.448 10.448 13 11 13C11.552 13 12 13.448 12 14C12 14.552 11.552 15 11 15C10.448 15 10 14.552 10 14ZM19.8647 16.353C19.6357 16.758 19.1897 17 18.6717 17H3.3277C2.8097 17 2.3637 16.758 2.1357 16.353C2.0277 16.163 1.8857 15.776 2.1527 15.336L9.8237 2.618C10.2907 1.844 11.7087 1.844 12.1757 2.618L19.8477 15.336C20.1137 15.776 19.9727 16.163 19.8647 16.353ZM21.5607 14.303L13.8887 1.584C13.2897 0.592 12.2097 0 10.9997 0C9.7897 0 8.7097 0.592 8.1117 1.584L0.439699 14.303C-0.129301 15.246 -0.146301 16.38 0.393699 17.336C0.972699 18.363 2.0977 19 3.3277 19H18.6717C19.9027 19 21.0267 18.363 21.6067 17.336C22.1467 16.38 22.1297 15.246 21.5607 14.303Z" fill="black"/>
</svg>
