<svg width="100" height="40" viewBox="0 0 100 40" fill="none" xmlns="http://www.w3.org/2000/svg">
<path d="M10.0434 16.4696C10.1951 16.3343 10.3509 16.2667 10.5108 16.2667C10.6912 16.2667 10.8389 16.3285 10.9537 16.4522C11.0726 16.572 11.132 16.7729 11.132 17.0551V17.8203C11.132 18.1063 11.0726 18.3092 10.9537 18.429C10.8389 18.5488 10.6871 18.6087 10.4985 18.6087C10.3263 18.6087 10.1808 18.5623 10.0618 18.4696C9.97574 18.4 9.90808 18.2589 9.85888 18.0464C9.80968 17.83 9.69077 17.6696 9.50215 17.5652C9.17003 17.3797 8.74564 17.287 8.229 17.287C7.63446 17.287 7.15677 17.4512 6.79594 17.7797C6.43921 18.1082 6.26085 18.5237 6.26085 19.0261C6.26085 19.4899 6.43306 19.857 6.77749 20.1275C7.12192 20.3942 7.69391 20.5275 8.49347 20.5275C9.01831 20.5275 9.4468 20.4773 9.77892 20.3768C9.97574 20.315 10.1623 20.2106 10.3386 20.0638C10.5149 19.913 10.6748 19.8377 10.8184 19.8377C10.9906 19.8377 11.1382 19.8976 11.2612 20.0174C11.3883 20.1372 11.4519 20.2783 11.4519 20.4406C11.4519 20.7034 11.2612 20.9527 10.8799 21.1884C10.314 21.5401 9.48575 21.7159 8.39507 21.7159C7.41509 21.7159 6.65243 21.5246 6.10709 21.142C5.36903 20.628 5 19.9246 5 19.0319C5 18.1855 5.29932 17.486 5.89797 16.9333C6.49662 16.3768 7.27773 16.0986 8.2413 16.0986C8.58983 16.0986 8.91376 16.1295 9.21308 16.1913C9.5124 16.2531 9.78918 16.3459 10.0434 16.4696Z" fill="black"/>
<path d="M14.3426 14V16.5333C14.605 16.3865 14.8695 16.2783 15.136 16.2087C15.4066 16.1353 15.6793 16.0986 15.954 16.0986C16.3886 16.0986 16.7761 16.1681 17.1164 16.3072C17.4568 16.4464 17.7376 16.6667 17.9591 16.9681C18.1846 17.2657 18.2973 17.6425 18.2973 18.0986V20.3304C18.6172 20.3304 18.8263 20.3594 18.9247 20.4174C19.1215 20.5372 19.2199 20.7072 19.2199 20.9275C19.2199 21.1014 19.1564 21.2444 19.0292 21.3565C18.9021 21.4647 18.6869 21.5188 18.3834 21.5188H16.9442C16.6449 21.5188 16.4296 21.4647 16.2984 21.3565C16.1713 21.2444 16.1078 21.0995 16.1078 20.9217C16.1078 20.7053 16.2062 20.5372 16.403 20.4174C16.5055 20.3556 16.7146 20.3266 17.0303 20.3304V18.1797C17.0303 17.8744 16.9565 17.6599 16.8089 17.5362C16.6162 17.37 16.3312 17.287 15.954 17.287C15.6752 17.287 15.4271 17.3391 15.2098 17.4435C14.9966 17.544 14.7075 17.7643 14.3426 18.1043V20.3304C14.6665 20.3304 14.8756 20.3594 14.9699 20.4174C15.1708 20.5372 15.2713 20.7072 15.2713 20.9275C15.2713 21.1014 15.2057 21.2444 15.0745 21.3565C14.9474 21.4647 14.7321 21.5188 14.4287 21.5188H12.9956C12.6922 21.5188 12.4749 21.4647 12.3437 21.3565C12.2166 21.2444 12.153 21.0995 12.153 20.9217C12.153 20.7053 12.2535 20.5372 12.4544 20.4174C12.5528 20.3556 12.7619 20.3266 13.0817 20.3304V15.1884H12.8665C12.563 15.1884 12.3457 15.1343 12.2145 15.0261C12.0874 14.914 12.0238 14.7691 12.0238 14.5913C12.0238 14.4174 12.0874 14.2763 12.2145 14.1681C12.3457 14.056 12.563 14 12.8665 14H14.3426Z" fill="black"/>
<path d="M24.3433 21.5188V21.2406C24.0275 21.399 23.679 21.5169 23.2977 21.5942C22.9164 21.6754 22.5699 21.7159 22.2583 21.7159C21.5817 21.7159 21.0323 21.5478 20.6099 21.2116C20.1876 20.8715 19.9764 20.4966 19.9764 20.087C19.9764 19.5884 20.245 19.1266 20.7821 18.7014C21.3234 18.2725 22.0696 18.058 23.0209 18.058C23.4022 18.058 23.843 18.0966 24.3433 18.1739V17.8899C24.3433 17.7121 24.2613 17.5671 24.0972 17.4551C23.9373 17.343 23.6298 17.287 23.1747 17.287C22.8015 17.287 22.3177 17.3565 21.7232 17.4957C21.5017 17.5459 21.3295 17.571 21.2065 17.571C21.0384 17.571 20.8949 17.515 20.776 17.4029C20.6612 17.287 20.6038 17.1401 20.6038 16.9623C20.6038 16.8618 20.6243 16.7749 20.6653 16.7014C20.7063 16.628 20.7637 16.57 20.8375 16.5275C20.9113 16.4812 21.0651 16.4271 21.2988 16.3652C21.6104 16.2841 21.9282 16.2203 22.2521 16.1739C22.576 16.1237 22.8692 16.0986 23.1316 16.0986C23.9148 16.0986 24.5216 16.2589 24.9522 16.5797C25.3868 16.8966 25.6041 17.3314 25.6041 17.8841V20.3304H25.8194C26.1228 20.3304 26.3381 20.3865 26.4652 20.4986C26.5964 20.6068 26.662 20.7498 26.662 20.9275C26.662 21.1014 26.5964 21.2444 26.4652 21.3565C26.3381 21.4647 26.1228 21.5188 25.8194 21.5188H24.3433ZM24.3433 19.3913C23.8389 19.2986 23.3735 19.2522 22.9471 19.2522C22.4346 19.2522 21.9938 19.37 21.6248 19.6058C21.3951 19.7565 21.2803 19.9092 21.2803 20.0638C21.2803 20.1758 21.3357 20.2667 21.4464 20.3362C21.6514 20.4638 21.9323 20.5275 22.289 20.5275C22.5924 20.5275 22.9348 20.4715 23.3161 20.3594C23.7016 20.2473 24.0439 20.0947 24.3433 19.9014V19.3913Z" fill="black"/>
<path d="M31.2257 14V15.258H29.7249V14H31.2257ZM31.3979 16.2551V20.3304H32.9109C33.2143 20.3304 33.4296 20.3865 33.5567 20.4986C33.6879 20.6068 33.7535 20.7498 33.7535 20.9275C33.7535 21.1014 33.6879 21.2444 33.5567 21.3565C33.4296 21.4647 33.2143 21.5188 32.9109 21.5188H28.624C28.3206 21.5188 28.1033 21.4647 27.972 21.3565C27.8449 21.2444 27.7814 21.0995 27.7814 20.9217C27.7814 20.7478 27.8449 20.6068 27.972 20.4986C28.1033 20.3865 28.3206 20.3304 28.624 20.3304H30.137V17.4435H29.1222C28.8229 17.4435 28.6076 17.3894 28.4764 17.2812C28.3452 17.1691 28.2796 17.0242 28.2796 16.8464C28.2796 16.6725 28.3431 16.5314 28.4702 16.4232C28.6014 16.3111 28.8188 16.2551 29.1222 16.2551H31.3979Z" fill="black"/>
<path d="M37.0625 16.2551V16.6551C37.2921 16.4696 37.5443 16.3304 37.819 16.2377C38.0978 16.1449 38.3992 16.0986 38.7231 16.0986C39.4693 16.0986 40.0598 16.3169 40.4944 16.7536C40.8389 17.1014 41.0111 17.5575 41.0111 18.1217V20.3304C41.2776 20.3304 41.4744 20.3865 41.6015 20.4986C41.7286 20.6068 41.7922 20.7498 41.7922 20.9275C41.7922 21.1014 41.7266 21.2444 41.5954 21.3565C41.4683 21.4647 41.253 21.5188 40.9496 21.5188H39.8117C39.5083 21.5188 39.291 21.4647 39.1598 21.3565C39.0327 21.2444 38.9691 21.0995 38.9691 20.9217C38.9691 20.7478 39.0327 20.6068 39.1598 20.4986C39.2869 20.3865 39.4837 20.3304 39.7502 20.3304V18.087C39.7502 17.828 39.6764 17.6386 39.5288 17.5188C39.3361 17.3643 39.047 17.287 38.6616 17.287C38.3705 17.287 38.1142 17.3411 37.8928 17.4493C37.6755 17.5536 37.3987 17.7778 37.0625 18.1217V20.3304C37.3864 20.3304 37.5955 20.3594 37.6898 20.4174C37.8907 20.5333 37.9912 20.7034 37.9912 20.9275C37.9912 21.1014 37.9256 21.2444 37.7944 21.3565C37.6673 21.4647 37.452 21.5188 37.1486 21.5188H35.7155C35.4121 21.5188 35.1948 21.4647 35.0636 21.3565C34.9364 21.2444 34.8729 21.0995 34.8729 20.9217C34.8729 20.7053 34.9713 20.5372 35.1681 20.4174C35.2665 20.3594 35.4777 20.3304 35.8016 20.3304V17.4435C35.5351 17.4435 35.3383 17.3874 35.2112 17.2754C35.0841 17.1633 35.0205 17.0203 35.0205 16.8464C35.0205 16.6725 35.0841 16.5314 35.2112 16.4232C35.3424 16.3111 35.5597 16.2551 35.8631 16.2551H37.0625Z" fill="black"/>
<path d="M46.3558 14V15.258H44.8551V14H46.3558ZM46.5281 16.2551V20.3304H48.0411C48.3445 20.3304 48.5598 20.3865 48.6869 20.4986C48.8181 20.6068 48.8837 20.7498 48.8837 20.9275C48.8837 21.1014 48.8181 21.2444 48.6869 21.3565C48.5598 21.4647 48.3445 21.5188 48.0411 21.5188H43.7542C43.4508 21.5188 43.2334 21.4647 43.1022 21.3565C42.9751 21.2444 42.9116 21.0995 42.9116 20.9217C42.9116 20.7478 42.9751 20.6068 43.1022 20.4986C43.2334 20.3865 43.4508 20.3304 43.7542 20.3304H45.2672V17.4435H44.2524C43.9531 17.4435 43.7378 17.3894 43.6066 17.2812C43.4754 17.1691 43.4098 17.0242 43.4098 16.8464C43.4098 16.6725 43.4733 16.5314 43.6004 16.4232C43.7316 16.3111 43.949 16.2551 44.2524 16.2551H46.5281Z" fill="black"/>
<path d="M53.4596 17.4435V20.3304H55.2556C55.559 20.3304 55.7743 20.3865 55.9014 20.4986C56.0326 20.6068 56.0982 20.7498 56.0982 20.9275C56.0982 21.1014 56.0326 21.2444 55.9014 21.3565C55.7743 21.4647 55.559 21.5188 55.2556 21.5188H51.4484C51.145 21.5188 50.9277 21.4647 50.7965 21.3565C50.6694 21.2444 50.6058 21.0995 50.6058 20.9217C50.6058 20.7478 50.6694 20.6068 50.7965 20.4986C50.9277 20.3865 51.145 20.3304 51.4484 20.3304H52.1988V17.4435H51.5961C51.2926 17.4435 51.0753 17.3894 50.9441 17.2812C50.817 17.1691 50.7534 17.0242 50.7534 16.8464C50.7534 16.6725 50.817 16.5314 50.9441 16.4232C51.0753 16.3111 51.2926 16.2551 51.5961 16.2551H52.1988V15.8029C52.1988 15.285 52.4038 14.856 52.8138 14.5159C53.228 14.172 53.8266 14 54.6098 14C54.9583 14 55.3601 14.0309 55.8153 14.0928C56.2745 14.1507 56.5677 14.2338 56.6948 14.342C56.826 14.4502 56.8916 14.5894 56.8916 14.7594C56.8916 14.9411 56.8342 15.0899 56.7194 15.2058C56.6046 15.3179 56.4631 15.3739 56.295 15.3739C56.2171 15.3739 56.1003 15.3604 55.9444 15.3333C55.4237 15.2367 54.9624 15.1884 54.5606 15.1884C54.1423 15.1884 53.8533 15.2483 53.6934 15.3681C53.5376 15.4841 53.4596 15.629 53.4596 15.8029V16.2551H55.4032C55.7066 16.2551 55.9219 16.3111 56.049 16.4232C56.1802 16.5314 56.2458 16.6744 56.2458 16.8522C56.2458 17.0261 56.1802 17.1691 56.049 17.2812C55.9219 17.3894 55.7066 17.4435 55.4032 17.4435H53.4596Z" fill="black"/>
<path d="M60.3297 21.4783L58.1463 17.4435C57.9413 17.4203 57.7855 17.3546 57.6789 17.2464C57.5723 17.1382 57.519 17.0068 57.519 16.8522C57.519 16.6744 57.5825 16.5314 57.7096 16.4232C57.8408 16.3111 58.0582 16.2551 58.3616 16.2551H59.5117C59.8151 16.2551 60.0304 16.3111 60.1575 16.4232C60.2887 16.5314 60.3543 16.6744 60.3543 16.8522C60.3543 17.0261 60.2887 17.1691 60.1575 17.2812C60.0304 17.3894 59.8274 17.4435 59.5486 17.4435L61.037 20.1739L62.5132 17.4435C62.2425 17.4435 62.0416 17.3894 61.9104 17.2812C61.7833 17.1691 61.7197 17.0242 61.7197 16.8464C61.7197 16.6725 61.7833 16.5314 61.9104 16.4232C62.0416 16.3111 62.2589 16.2551 62.5624 16.2551H63.7494C64.0487 16.2551 64.2619 16.3111 64.3891 16.4232C64.5203 16.5314 64.5859 16.6744 64.5859 16.8522C64.5859 17.0106 64.5305 17.1459 64.4198 17.258C64.3091 17.3662 64.1451 17.428 63.9278 17.4435L61.037 22.8116C61.3528 22.8116 61.5598 22.8406 61.6582 22.8986C61.8551 23.0184 61.9535 23.1884 61.9535 23.4087C61.9535 23.5826 61.8879 23.7237 61.7566 23.8319C61.6295 23.944 61.4143 24 61.1108 24H58.3616C58.0582 24 57.8408 23.944 57.7096 23.8319C57.5825 23.7237 57.519 23.5826 57.519 23.4087C57.519 23.2309 57.5825 23.086 57.7096 22.9739C57.8408 22.8657 58.0582 22.8116 58.3616 22.8116H59.6163L60.3297 21.4783Z" fill="black"/>
<path d="M69.5616 20.9217C69.5616 21.1459 69.4775 21.3333 69.3094 21.4841C69.1413 21.6348 68.9097 21.7101 68.6144 21.7101C68.3192 21.7101 68.0875 21.6348 67.9194 21.4841C67.7513 21.3333 67.6673 21.1459 67.6673 20.9217C67.6673 20.6976 67.7513 20.5101 67.9194 20.3594C68.0875 20.2087 68.3192 20.1333 68.6144 20.1333C68.9097 20.1333 69.1413 20.2087 69.3094 20.3594C69.4775 20.5101 69.5616 20.6976 69.5616 20.9217Z" fill="black"/>
<path d="M79.4393 18.9855C79.4393 19.4415 79.304 19.8841 79.0333 20.313C78.7668 20.7382 78.3671 21.0783 77.834 21.3333C77.3051 21.5845 76.7515 21.7101 76.1734 21.7101C75.5993 21.7101 75.0499 21.5865 74.525 21.3391C74.0002 21.0879 73.6004 20.7478 73.3257 20.3188C73.051 19.8899 72.9136 19.4415 72.9136 18.9739C72.9136 18.4986 73.053 18.0329 73.3319 17.5768C73.6107 17.1169 74.0105 16.7556 74.5312 16.4928C75.056 16.23 75.6034 16.0986 76.1734 16.0986C76.7474 16.0986 77.2989 16.2338 77.8279 16.5043C78.3609 16.771 78.7627 17.1324 79.0333 17.5884C79.304 18.0406 79.4393 18.5063 79.4393 18.9855ZM78.1784 18.9913C78.1784 18.6087 78.0329 18.257 77.7417 17.9362C77.344 17.5034 76.8212 17.287 76.1734 17.287C75.6034 17.287 75.1278 17.4589 74.7465 17.8029C74.3651 18.1469 74.1745 18.5449 74.1745 18.9971C74.1745 19.3681 74.3672 19.7159 74.7526 20.0406C75.138 20.3614 75.6116 20.5217 76.1734 20.5217C76.7392 20.5217 77.2149 20.3614 77.6003 20.0406C77.9857 19.7159 78.1784 19.3662 78.1784 18.9913Z" fill="black"/>
<path d="M83.4678 16.2551V16.9971C83.9968 16.6377 84.413 16.3981 84.7164 16.2783C85.0239 16.1585 85.3109 16.0986 85.5775 16.0986C85.9875 16.0986 86.3852 16.2415 86.7707 16.5275C87.0331 16.7208 87.1643 16.9179 87.1643 17.1188C87.1643 17.2889 87.1007 17.4338 86.9736 17.5536C86.8506 17.6696 86.701 17.7275 86.5246 17.7275C86.3688 17.7275 86.2048 17.6541 86.0326 17.5072C85.8604 17.3604 85.7066 17.287 85.5713 17.287C85.395 17.287 85.1305 17.3913 84.7779 17.6C84.4294 17.8087 83.9927 18.1217 83.4678 18.5391V20.3304H85.2638C85.5672 20.3304 85.7825 20.3865 85.9096 20.4986C86.0408 20.6068 86.1064 20.7498 86.1064 20.9275C86.1064 21.1014 86.0408 21.2444 85.9096 21.3565C85.7825 21.4647 85.5672 21.5188 85.2638 21.5188H81.4566C81.1532 21.5188 80.9359 21.4647 80.8047 21.3565C80.6776 21.2444 80.614 21.0995 80.614 20.9217C80.614 20.7478 80.6776 20.6068 80.8047 20.4986C80.9359 20.3865 81.1532 20.3304 81.4566 20.3304H82.207V17.4435H81.7519C81.4484 17.4435 81.2311 17.3894 81.0999 17.2812C80.9728 17.1691 80.9092 17.0242 80.9092 16.8464C80.9092 16.6725 80.9728 16.5314 81.0999 16.4232C81.2311 16.3111 81.4484 16.2551 81.7519 16.2551H83.4678Z" fill="black"/>
<path d="M92.6813 16.6087V16.2551H94.1574C94.4608 16.2551 94.6761 16.3111 94.8032 16.4232C94.9344 16.5314 95 16.6744 95 16.8522C95 17.0261 94.9344 17.1691 94.8032 17.2812C94.6761 17.3894 94.4608 17.4435 94.1574 17.4435H93.9421V21.7681C93.9421 22.1855 93.8478 22.5488 93.6592 22.858C93.4747 23.171 93.1897 23.4396 92.8043 23.6638C92.4188 23.8879 91.9842 24 91.5004 24H90.0735C89.77 24 89.5527 23.944 89.4215 23.8319C89.2944 23.7237 89.2309 23.5826 89.2309 23.4087C89.2309 23.2309 89.2944 23.086 89.4215 22.9739C89.5527 22.8657 89.77 22.8116 90.0735 22.8116H91.4635C91.8489 22.8116 92.1482 22.713 92.3614 22.5159C92.5747 22.3188 92.6813 22.0696 92.6813 21.7681V21.1884C92.4024 21.3585 92.1175 21.486 91.8263 21.571C91.5393 21.656 91.2441 21.6986 90.9407 21.6986C90.0837 21.6986 89.3662 21.43 88.788 20.8928C88.2099 20.3517 87.9208 19.685 87.9208 18.8928C87.9208 18.0966 88.2099 17.43 88.788 16.8928C89.3662 16.3517 90.0837 16.0812 90.9407 16.0812C91.2605 16.0812 91.5639 16.1256 91.851 16.2145C92.1421 16.2995 92.4188 16.4309 92.6813 16.6087ZM92.6751 18.887C92.6751 18.4502 92.5029 18.0715 92.1585 17.7507C91.8182 17.43 91.4081 17.2696 90.9284 17.2696C90.4486 17.2696 90.0366 17.43 89.6921 17.7507C89.3518 18.0715 89.1816 18.4502 89.1816 18.887C89.1816 19.3275 89.3518 19.7082 89.6921 20.029C90.0366 20.3459 90.4486 20.5043 90.9284 20.5043C91.4081 20.5043 91.8182 20.3459 92.1585 20.029C92.5029 19.7082 92.6751 19.3275 92.6751 18.887Z" fill="black"/>
</svg>
