<svg width="90" height="35" viewBox="0 0 90 35" fill="none" xmlns="http://www.w3.org/2000/svg">
<path fill-rule="evenodd" clip-rule="evenodd" d="M80.6891 6.20979H80.2996V3.69009H81.6142C82.0174 3.69009 82.3446 4.01551 82.3446 4.41693C82.3446 4.81834 82.0174 5.14376 81.6142 5.14376H81.5655L82.3446 6.3067H81.8577L81.1562 5.14376H80.6891V6.20979ZM81.5655 4.85303C81.7808 4.85303 81.9551 4.67947 81.9551 4.46538V4.36847C81.9551 4.15438 81.7808 3.98083 81.5655 3.98083H80.6891V4.85303H81.5655Z" fill="#F4431C"/>
<path fill-rule="evenodd" clip-rule="evenodd" d="M84 4.94994C84 6.39506 82.8231 7.56656 81.3708 7.56656C79.9185 7.56656 78.7416 6.39506 78.7416 4.94994C78.7416 3.50482 79.9185 2.33333 81.3708 2.33333C82.8231 2.33333 84 3.50482 84 4.94994ZM83.4157 4.94994C83.4157 6.07392 82.5005 6.98509 81.3708 6.98509C80.241 6.98509 79.3258 6.07392 79.3258 4.94994C79.3258 3.82596 80.241 2.9148 81.3708 2.9148C82.5005 2.9148 83.4157 3.82596 83.4157 4.94994Z" fill="#F4431C"/>
<path fill-rule="evenodd" clip-rule="evenodd" d="M56.5393 32.6667H63.7453L64.8469 27.7242H75.2223L76.3071 32.6667H83.5131L76.867 6.71092C76.2508 4.30666 74.0758 2.62406 71.5827 2.62406H68.386C65.8869 2.62406 63.7073 4.31482 63.0979 6.72687L56.5393 32.6667ZM73.9038 21.7157L71.2077 9.43269C70.9407 8.21503 69.1962 8.21221 68.9254 9.429L66.1866 21.7157H73.9038Z" fill="#F4431C"/>
<path d="M23.5281 26.5612V32.6667H6V3.01171H12.9139V26.5612H23.5281Z" fill="#F4431C"/>
<path d="M33.6554 32.6667V3.01171H26.6442V32.6667H33.6554Z" fill="#F4431C"/>
<path d="M36.9663 11.9276C36.9663 7.00348 40.9771 3.01171 45.9251 3.01171H60.4345L58.9738 9.11714H46.8989C45.3933 9.11714 44.1723 10.332 44.1723 11.8307V23.8477C44.1723 25.3463 45.3933 26.5612 46.8989 26.5612H49.1386L50.4045 21.2311H48.3596V15.1257H57.5131L53.1311 32.6667H45.9251C40.9771 32.6667 36.9663 28.6749 36.9663 23.7508V11.9276Z" fill="#F4431C"/>
</svg>
