<svg width="100" height="30" viewBox="0 0 100 30" fill="none" xmlns="http://www.w3.org/2000/svg">
<path d="M93.9995 14.7886H94C93.9999 14.7682 93.9998 14.7479 93.9995 14.7277V14.7886Z" fill="#B1AFFF" fill-opacity="0.3"/>
<path d="M86.0747 14.6919V15.1538C86.0913 15.9762 86.2655 16.7047 86.5973 17.3394C86.6195 17.3814 86.6423 17.4228 86.6657 17.4635C85.6812 18.5125 84.1921 19.1956 82.7298 19.1956C82.1632 19.1956 81.6233 19.0931 81.1271 18.9065V16.6956C81.5639 17.0616 82.1258 17.2795 82.7298 17.2795C84.0809 17.2795 86.074 16.1888 86.074 14.7886C86.074 14.7785 86.074 14.7685 86.0741 14.7584C86.0742 14.7362 86.0744 14.714 86.0747 14.6919Z" fill="#B1AFFF" fill-opacity="0.3"/>
<path d="M89.5325 12.0702C89.6827 12.0311 89.8412 12.0103 90.0073 12.0103C90.3013 12.0103 90.571 12.0755 90.8132 12.192C90.5907 12.0669 90.3321 12.0043 90.0371 12.0043C89.8546 12.0043 89.6864 12.0263 89.5325 12.0702Z" fill="#B1AFFF" fill-opacity="0.3"/>
<path d="M11.043 18.7812L8.0999 13.8069C8.22843 14.1065 8.30001 14.4378 8.30001 14.7886C8.30001 16.5402 9.4527 18.0742 11.043 18.7812Z" fill="#B1AFFF" fill-opacity="0.3"/>
<path d="M5.8951 12.2992V10.4774H6.7443C6.44288 10.4147 6.12974 10.3816 5.80801 10.3816V12.2977C5.83714 12.2977 5.86617 12.2982 5.8951 12.2992Z" fill="#B1AFFF" fill-opacity="0.3"/>
<path d="M8.57741 11.3223L10.2423 14.1418C10.0719 13.0075 9.46003 12.006 8.57741 11.3223Z" fill="#B1AFFF" fill-opacity="0.3"/>
<path d="M13.4591 19.1708C15.7064 18.9347 17.2653 17.0416 17.2653 14.7886C17.2653 13.7927 17.8424 12.9534 18.6618 12.5517V10.4774H20.7028C20.3956 10.4147 20.0792 10.3816 19.7575 10.3816C16.4604 10.3816 15.2748 12.3792 15.2748 14.7886C15.2748 16.0172 14.5496 17.0075 13.4591 17.2318V19.1708Z" fill="#B1AFFF" fill-opacity="0.3"/>
<path d="M23.4329 12.1001C24.0585 12.8473 24.4392 13.782 24.4392 14.7886C24.4392 16.1888 25.5802 17.2795 26.9314 17.2795C28.2825 17.2795 29.4953 16.1889 29.4953 14.7886C29.4953 14.4894 29.5247 14.1965 29.5811 13.913V16.2256C29.5904 16.9429 29.7741 17.546 30.132 18.035C29.2508 18.7537 28.1075 19.1956 26.9314 19.1956C26.1975 19.1956 25.5084 19.0236 24.9009 18.7197V17.5789H23.4619C22.9731 16.9912 22.6363 16.2785 22.5073 15.5011H24.2789V13.9383H22.277C22.0152 13.3105 21.4793 12.8067 20.8452 12.5303V12.1001H23.4329Z" fill="#B1AFFF" fill-opacity="0.3"/>
<path d="M31.7769 15.0235C31.7819 14.9457 31.7844 14.8674 31.7844 14.7886C31.7844 13.3883 32.555 12.2977 33.9061 12.2977C34.1215 12.2977 34.3316 12.3254 34.5326 12.3777V10.4774H34.8424C34.541 10.4147 34.2279 10.3816 33.9061 10.3816C33.1254 10.3816 32.4023 10.5763 31.7769 10.9174V15.0235Z" fill="#B1AFFF" fill-opacity="0.3"/>
<path d="M36.7159 11.3539C37.7398 12.1658 38.3888 13.4098 38.3888 14.7886C38.3888 16.1888 39.5298 17.2795 40.8809 17.2795C42.2321 17.2795 43.3731 16.1888 43.3731 14.7886C43.3551 13.7641 43.6199 12.8368 44.1118 12.1001H44.1145V17.8408C43.3027 18.6733 42.1597 19.1956 40.8809 19.1956C38.9702 19.1956 37.3626 18.0295 36.7102 16.4047C36.714 16.3322 36.7159 16.2585 36.7159 16.1837V11.3539Z" fill="#B1AFFF" fill-opacity="0.3"/>
<path d="M46.5207 10.4774C46.8168 10.4145 47.1297 10.3816 47.4576 10.3816C51.1529 10.3816 52.3384 11.4212 52.3384 14.7886C52.3384 15.7965 52.9296 16.644 53.7648 17.0398V19.0708C51.7893 18.5987 50.3479 16.8433 50.3479 14.7886C50.3479 13.3883 48.8088 12.2977 47.4576 12.2977C46.9993 12.2977 46.6109 12.4232 46.2978 12.6437V12.1001H49.0161V10.4774H46.5207Z" fill="#B1AFFF" fill-opacity="0.3"/>
<path d="M55.9481 19.0581C56.758 18.8544 57.476 18.4344 58.0385 17.8668L57.13 16.1179H56.9393C56.6966 16.501 56.3526 16.8113 55.9481 17.0145V19.0581Z" fill="#B1AFFF" fill-opacity="0.3"/>
<path d="M57.3325 14.4952C57.7455 14.4946 58.0553 14.3908 58.2621 14.1838C58.4736 13.9723 58.5794 13.6789 58.5794 13.3036C58.5794 12.9284 58.4736 12.635 58.2621 12.4234C58.2156 12.376 58.1643 12.3338 58.1082 12.2969C57.6648 12.9323 57.3869 13.686 57.3325 14.4952Z" fill="#B1AFFF" fill-opacity="0.3"/>
<path d="M59.5579 10.9736C59.66 11.0325 59.7568 11.0966 59.8483 11.166C60.3117 11.5174 60.5978 11.9798 60.7065 12.5533C61.04 12.3892 61.4139 12.2977 61.8053 12.2977C63.1565 12.2977 64.2975 13.3883 64.2975 14.7886C64.2975 16.3202 64.9375 17.6855 66.0463 18.477V12.9575C65.2855 11.4458 63.6307 10.3816 61.8053 10.3816C60.9826 10.3816 60.2161 10.5978 59.5579 10.9736Z" fill="#B1AFFF" fill-opacity="0.3"/>
<path d="M68.2235 19.1929C68.2759 19.1947 68.3288 19.1956 68.3821 19.1956C70.883 19.1956 73.4619 17.1979 73.4619 14.7886C73.4619 14.5187 73.4969 14.2603 73.563 14.019V10.9706C72.2762 11.7366 71.4714 13.1697 71.4714 14.7886C71.4714 16.1889 69.7333 17.2795 68.3821 17.2795C68.3279 17.2795 68.275 17.2777 68.2235 17.2743V19.1929Z" fill="#B1AFFF" fill-opacity="0.3"/>
<path d="M74.8277 10.4774H75.7464L77.0281 12.6478C77.7315 13.066 78.2188 13.8217 78.2459 14.7101L78.9499 15.9023V11.6973C78.1407 10.8875 77.0136 10.3816 75.755 10.3816C75.4332 10.3816 75.1234 10.4147 74.8277 10.4774Z" fill="#B1AFFF" fill-opacity="0.3"/>
<path d="M59.2445 15.5592C59.2221 15.5699 59.1994 15.5805 59.1765 15.5909L59.222 15.6754C59.23 15.6368 59.2375 15.5981 59.2445 15.5592Z" fill="#B1AFFF" fill-opacity="0.3"/>
<path d="M90.8123 12.192C91.0121 12.3044 91.1827 12.4674 91.324 12.6808C91.6267 13.1279 91.7781 13.7846 91.7781 14.6508V15.052C91.7739 15.8982 91.6225 16.5469 91.324 16.998C91.0254 17.4491 90.6003 17.6746 90.0488 17.6746C89.4682 17.6746 89.0307 17.4451 88.7363 16.986C88.4418 16.527 88.2946 15.8703 88.2946 15.016L88.3009 14.3754C88.3527 13.0582 88.763 12.2898 89.5317 12.0701C88.46 12.3493 87.8088 13.5604 87.8088 14.7885C87.8088 15.789 87.3641 16.7185 86.6649 17.4635C86.9947 18.0381 87.4384 18.4857 87.9961 18.8063C88.5932 19.1456 89.2775 19.3153 90.0488 19.3153C90.8201 19.3153 91.5064 19.1396 92.1077 18.7883C92.6131 18.4918 93.0218 18.0909 93.3335 17.5857C92.6326 16.8214 92.1961 15.8445 92.1961 14.7885C92.1961 13.6929 91.6828 12.611 90.8123 12.192Z" fill="black"/>
<path d="M78.2463 14.7885C78.2463 16.652 79.4319 18.2693 81.1263 18.9064V19.1955H78.9553L75.7456 13.7706V19.1955H73.5623V14.019C73.8394 13.0083 74.6634 12.2976 75.7542 12.2976C76.2154 12.2976 76.6521 12.4247 77.0273 12.6477L78.2451 14.7101C78.2455 14.7235 78.2458 14.7371 78.246 14.7506C78.2462 14.7632 78.2463 14.7758 78.2463 14.7885Z" fill="black"/>
<path d="M78.9491 11.6972C79.7478 12.4965 80.2368 13.5917 80.2368 14.7885C80.2368 15.5629 80.5858 16.2426 81.1263 16.6955V10.4773H78.9491V11.6972Z" fill="black"/>
<path d="M74.8269 10.4773H73.5623V10.9705C73.9442 10.7432 74.3685 10.5746 74.8269 10.4773Z" fill="black"/>
<path d="M66.0455 18.4769C66.6437 18.9039 67.3784 19.1639 68.2227 19.1928V19.1955H66.0455V18.4769Z" fill="black"/>
<path d="M66.4863 14.7885C66.4863 14.1377 66.3271 13.5169 66.0455 12.9574V10.4773H68.2227V17.2742C66.9874 17.1915 66.4863 16.1327 66.4863 14.7885Z" fill="black"/>
<path d="M59.5571 10.9736C58.983 10.6427 58.2401 10.4773 57.3283 10.4773H53.764V17.0397C54.0891 17.1938 54.4512 17.2794 54.8298 17.2794C55.2286 17.2794 55.6091 17.1844 55.9473 17.0145V16.1178H56.9385C57.1806 15.7357 57.3219 15.2813 57.3219 14.7885C57.3219 14.69 57.3252 14.5922 57.3317 14.4951C57.3306 14.4951 57.3294 14.4951 57.3283 14.4951H55.9473V12.1H57.3283C57.6485 12.1 57.9082 12.1656 58.1074 12.2968C58.4834 11.7579 58.9784 11.304 59.5571 10.9736Z" fill="black"/>
<path d="M58.0377 17.8668L58.7279 19.1955H61.0667V19.1057L59.2212 15.6753C59.0461 16.5151 58.6272 17.2719 58.0377 17.8668Z" fill="black"/>
<path d="M59.2437 15.5591C59.7523 15.3159 60.1278 15.0032 60.37 14.6209C60.6271 14.2217 60.7557 13.7187 60.7557 13.1119C60.7557 12.9153 60.739 12.729 60.7057 12.5532C59.888 12.9556 59.3124 13.7939 59.3124 14.7885C59.3124 15.051 59.2889 15.3085 59.2437 15.5591Z" fill="black"/>
<path d="M54.8298 19.1955C55.2165 19.1955 55.5908 19.1477 55.9473 19.0581V19.1955H54.8298Z" fill="black"/>
<path d="M53.764 19.0708C54.1049 19.1522 54.4617 19.1955 54.8298 19.1955H53.764V19.0708Z" fill="black"/>
<path d="M45.3628 14.7885C45.3628 13.8633 45.6872 13.0732 46.297 12.6436V19.1955H44.1137V17.8407C44.8895 17.045 45.3628 15.9659 45.3628 14.7885Z" fill="black"/>
<path d="M46.5199 10.4773C45.4867 10.6967 44.6582 11.2804 44.111 12.1H41.4451V10.4773H46.5199Z" fill="black"/>
<path d="M36.7151 11.3539V10.4773H34.8416C35.5425 10.6232 36.18 10.9295 36.7151 11.3539Z" fill="black"/>
<path d="M36.3975 14.7885C36.3975 15.3571 36.5079 15.9028 36.7094 16.4047C36.6801 16.959 36.539 17.4461 36.2859 17.8662C35.9998 18.3373 35.5892 18.6965 35.0543 18.944C34.5193 19.1915 33.8869 19.3153 33.1571 19.3153C32.054 19.3153 31.1852 19.0398 30.5507 18.489C30.3912 18.3505 30.2514 18.1991 30.1312 18.0349C31.0624 17.2754 31.7009 16.2067 31.7761 15.0235V16.2675C31.801 17.2215 32.2613 17.6986 33.1571 17.6986C33.6091 17.6986 33.9512 17.5788 34.1834 17.3393C34.4156 17.0998 34.5318 16.7106 34.5318 16.1717V12.3776C35.5913 12.6532 36.3975 13.6115 36.3975 14.7885Z" fill="black"/>
<path d="M31.7761 10.9173C30.6469 11.5332 29.8362 12.6264 29.5803 13.913V10.4773H31.7761V10.9173Z" fill="black"/>
<path d="M23.4611 17.5788C23.8527 18.0497 24.342 18.4403 24.9001 18.7196V19.1955H18.661V12.5517C18.9938 12.3886 19.3665 12.2976 19.7567 12.2976C20.1294 12.2976 20.5013 12.3806 20.8444 12.5302V13.9383H22.2762C22.3863 14.2023 22.4479 14.4883 22.4479 14.7885C22.4479 15.0307 22.4679 15.2688 22.5065 15.5011H20.8444V17.5788H23.4611Z" fill="black"/>
<path d="M23.4322 12.1C22.753 11.2888 21.785 10.6985 20.702 10.4773H24.9125V12.1H23.4322Z" fill="black"/>
<path d="M12.9809 19.1955C13.1432 19.1955 13.3024 19.1871 13.4583 19.1707V19.1955H12.9809Z" fill="black"/>
<path d="M11.0422 18.7812C11.6394 19.0466 12.2982 19.1955 12.9809 19.1955H11.2874L11.0422 18.7812Z" fill="black"/>
<path d="M5.89431 12.2991C6.871 12.3331 7.72557 12.9361 8.09911 13.8068L8.07767 13.7706V19.1955H5.89431V12.2991Z" fill="black"/>
<path d="M8.57662 11.3223C8.04992 10.9143 7.42679 10.6196 6.74351 10.4773H8.07767L8.57662 11.3223Z" fill="black"/>
<path d="M10.2897 14.7885C10.2897 14.5691 10.2733 14.3531 10.2415 14.1417L11.2812 15.9022V10.4773H13.4583V17.2317C13.306 17.263 13.1465 17.2794 12.9809 17.2794C11.6298 17.2794 10.2897 16.1888 10.2897 14.7885Z" fill="black"/>
<path d="M69.3503 5.80483L67.1381 3.67532L64.9259 5.80483L67.1381 7.93433L69.3503 5.80483Z" fill="#3935FF"/>
<path d="M90.8124 12.1921C90.5899 12.0669 90.3313 12.0043 90.0364 12.0043C89.8538 12.0043 89.6856 12.0263 89.5317 12.0702C88.46 12.3494 87.8088 13.5605 87.8088 14.7886C87.8088 15.7891 87.3641 16.7186 86.6649 17.4636C86.6415 17.4228 86.6187 17.3814 86.5965 17.3394C86.2647 16.7047 86.0906 15.9762 86.074 15.1539V14.6629C86.074 13.8086 86.2357 13.0562 86.5592 12.4055C86.8868 11.7508 87.3533 11.2459 87.9587 10.8906C88.5683 10.5353 89.2609 10.3577 90.0364 10.3577C90.8035 10.3577 91.4878 10.5333 92.0891 10.8846C92.6904 11.2359 93.1569 11.7368 93.4887 12.3875C93.8246 13.0342 93.9946 13.7767 93.9987 14.615V15.0161C93.9987 15.8664 93.8349 16.6189 93.5073 17.2735C93.4532 17.3817 93.3953 17.4858 93.3336 17.5858C92.6326 16.8215 92.1961 15.8446 92.1961 14.7886C92.1961 13.693 91.6829 12.6111 90.8124 12.1921Z" fill="#3935FF"/>
<path d="M81.1263 18.9065V16.6956C80.5858 16.2427 80.2369 15.563 80.2369 14.7886C80.2369 13.5918 79.7479 12.4966 78.9491 11.6973V15.9023L78.2451 14.7102C78.2456 14.7236 78.2458 14.7371 78.2461 14.7507C78.2462 14.7633 78.2463 14.7759 78.2463 14.7886C78.2463 16.6521 79.4319 18.2694 81.1263 18.9065Z" fill="#3935FF"/>
<path d="M75.7456 10.4774L77.0273 12.6478C76.6521 12.4248 76.2154 12.2977 75.7542 12.2977C74.6634 12.2977 73.8394 13.0084 73.5623 14.0191V10.9706C73.9442 10.7433 74.3686 10.5747 74.8269 10.4774H75.7456Z" fill="#3935FF"/>
<path d="M68.2227 19.1929V17.2743C66.9874 17.1916 66.4863 16.1327 66.4863 14.7886C66.4863 14.1378 66.3271 13.517 66.0455 12.9575V18.477C66.6438 18.904 67.3784 19.1639 68.2227 19.1929Z" fill="#3935FF"/>
<path d="M59.8475 11.166C60.3109 11.5174 60.597 11.9798 60.7057 12.5533C59.888 12.9556 59.3124 13.794 59.3124 14.7886C59.3124 15.051 59.2889 15.3086 59.2438 15.5592C59.2213 15.5699 59.1987 15.5805 59.1757 15.591L59.2212 15.6754C59.0461 16.5152 58.6272 17.272 58.0377 17.8669L57.1292 16.1179H56.9385C57.1806 15.7358 57.3219 15.2814 57.3219 14.7886C57.3219 14.6901 57.3252 14.5922 57.3317 14.4952C57.7447 14.4946 58.0546 14.3908 58.2613 14.1838C58.4728 13.9723 58.5786 13.6789 58.5786 13.3036C58.5786 12.9284 58.4728 12.635 58.2613 12.4234C58.2148 12.376 58.1635 12.3339 58.1074 12.2969C58.4834 11.758 58.9784 11.3041 59.5571 10.9737C59.6592 11.0325 59.7561 11.0967 59.8475 11.166Z" fill="#3935FF"/>
<path d="M55.9473 19.0582V17.0146C55.6091 17.1845 55.2286 17.2795 54.8298 17.2795C54.4512 17.2795 54.0891 17.1939 53.764 17.0398V19.0709C54.1049 19.1523 54.4617 19.1956 54.8298 19.1956C55.2165 19.1956 55.5908 19.1478 55.9473 19.0582Z" fill="#3935FF"/>
<path d="M46.297 12.1001V12.6437C45.6872 13.0733 45.3628 13.8634 45.3628 14.7886C45.3628 15.966 44.8895 17.0451 44.1137 17.8408V12.1001H44.111C44.6583 11.2805 45.4867 10.6968 46.52 10.4774H49.0153V12.1001H46.297Z" fill="#3935FF"/>
<path d="M36.7094 16.4047C36.7132 16.3322 36.7151 16.2586 36.7151 16.1838V11.354C36.18 10.9296 35.5425 10.6233 34.8417 10.4774H34.5318V12.3777C35.5913 12.6533 36.3975 13.6116 36.3975 14.7886C36.3975 15.3572 36.5079 15.9029 36.7094 16.4047Z" fill="#3935FF"/>
<path d="M31.7761 10.9174V15.0236C31.7009 16.2068 31.0624 17.2755 30.1312 18.035C29.7733 17.546 29.5896 16.9429 29.5803 16.2257V13.9131C29.8363 12.6265 30.6469 11.5333 31.7761 10.9174Z" fill="#3935FF"/>
<path d="M24.9001 18.7197V17.5789H23.4611C23.8527 18.0498 24.342 18.4404 24.9001 18.7197Z" fill="#3935FF"/>
<path d="M24.2781 15.5012H22.5065C22.4679 15.2689 22.4479 15.0308 22.4479 14.7886C22.4479 14.4884 22.3863 14.2024 22.2762 13.9383H24.2781V15.5012Z" fill="#3935FF"/>
<path d="M20.8444 12.5303V12.1001H23.4322C22.753 11.2889 21.785 10.6986 20.702 10.4774H18.661V12.5518C18.9938 12.3887 19.3665 12.2977 19.7567 12.2977C20.1294 12.2977 20.5013 12.3807 20.8444 12.5303Z" fill="#3935FF"/>
<path d="M13.4583 17.2318V19.1708C13.3024 19.1872 13.1432 19.1956 12.9809 19.1956C12.2982 19.1956 11.6394 19.0467 11.0422 18.7813L8.09911 13.8069C7.72557 12.9362 6.871 12.3332 5.89431 12.2992V10.4774H6.74351C7.4268 10.6197 8.04992 10.9144 8.57662 11.3224L10.2415 14.1418C10.2733 14.3532 10.2897 14.5692 10.2897 14.7886C10.2897 16.1889 11.6298 17.2795 12.9809 17.2795C13.1465 17.2795 13.306 17.2631 13.4583 17.2318Z" fill="#3935FF"/>
</svg>
