<svg width="90" height="22" viewBox="0 0 90 22" fill="none" xmlns="http://www.w3.org/2000/svg">
<path d="M0.0510521 7.23909V4.58452H11.1426V7.23909H7.0858V17.4146H4.09081V7.23909H0.0510521Z" fill="black"/>
<path d="M15.53 12.5836V17.4146H12.5527V4.58452H17.4105C20.6841 4.58452 23.139 5.3632 23.139 8.54868C23.139 10.4419 22.112 11.5218 20.6664 12.0881L23.7829 17.4146H20.2833L17.5498 12.5836H15.53ZM15.53 10.0352H17.4973C18.9074 10.0352 19.9869 9.78749 19.9869 8.58408C19.9869 7.39872 18.9074 7.13291 17.4973 7.13291H15.53V10.0352Z" fill="black"/>
<path d="M31.9847 4.58452L36.7558 17.4146H33.517L32.7508 15.132H27.8753L27.1269 17.4146H23.9577L28.7111 4.58452H31.9847ZM31.9498 12.6718L30.3308 7.78736L28.694 12.6718H31.9498Z" fill="black"/>
<path d="M49.5353 10.9909C49.5353 15.8927 46.2795 17.4146 42.1523 17.4146H37.991V4.58452H42.1523C46.2795 4.58452 49.5353 6.10648 49.5353 10.9909ZM40.969 7.13291V14.8662H42.2049C44.3989 14.8662 46.384 14.3887 46.384 10.9909C46.384 7.61108 44.3989 7.13291 42.2049 7.13291H40.969Z" fill="black"/>
<path d="M59.0769 8.03581C59.0769 8.67291 59.6689 9.13304 60.5395 9.32736L62.263 9.6813C64.3 10.106 66.8771 10.7431 66.8771 13.4331C66.8771 16.1231 64.2133 17.645 61.5836 17.645C58.3448 17.645 56.2205 15.9995 55.7677 13.2388H58.7279C59.0584 14.5838 60.1032 15.2028 61.6533 15.2028C62.6632 15.2028 63.8124 14.8662 63.8124 13.8044C63.8124 12.973 62.8373 12.5656 61.4621 12.2651L59.9297 11.9465C57.875 11.5045 56.0122 10.5134 56.0122 8.21279C56.0122 5.59361 58.7805 4.37285 61.2531 4.37285C63.7257 4.37285 66.0761 5.47007 66.5118 8.30162H63.5693C63.2737 7.34597 62.3504 6.79771 61.0797 6.79771C59.9304 6.79701 59.0769 7.2391 59.0769 8.03581Z" fill="black"/>
<path d="M72.9019 9.50433L75.7576 4.58452H79.2053L74.3297 12.4594V17.4146H71.3525V12.424L66.5992 4.58452H70.0817L72.9019 9.50433Z" fill="black"/>
<path d="M82.1825 8.03581C82.1825 8.67291 82.7746 9.13304 83.6452 9.32736L85.3687 9.6813C87.4057 10.106 89.9828 10.7431 89.9828 13.4331C89.9828 16.1231 87.319 17.645 84.6893 17.645C81.4505 17.645 79.3262 15.9995 78.8734 13.2388H81.8336C82.1641 14.5838 83.2089 15.2028 84.759 15.2028C85.7689 15.2028 86.9181 14.8662 86.9181 13.8044C86.9181 12.973 85.943 12.5656 84.5677 12.2651L83.0354 11.9465C80.9807 11.5045 79.1179 10.5134 79.1179 8.21279C79.1179 5.59361 81.8862 4.37285 84.3588 4.37285C86.8314 4.37285 89.1818 5.47007 89.6174 8.30162H86.675C86.3794 7.34597 85.4561 6.79771 84.1853 6.79771C83.0354 6.79701 82.1825 7.2391 82.1825 8.03581Z" fill="black"/>
<path d="M52.4058 17.4147L52.4045 22H52.9938L52.9951 17.4147H54.2025V4.58461H52.9987L53 0H52.4107L52.4094 4.58461H51.2252V17.4147H52.4058Z" fill="#801CCB"/>
</svg>
