<svg width="100" height="18" viewBox="0 0 100 18" fill="none" xmlns="http://www.w3.org/2000/svg">
<path fill-rule="evenodd" clip-rule="evenodd" d="M52.2831 17.1001C52.001 17.1013 51.7217 17.0423 51.4624 16.9267C50.9538 16.704 50.5492 16.2826 50.3353 15.753C50.2234 15.479 50.1668 15.1839 50.1688 14.8861V0.900146H52.3501V6.80783C52.3687 6.75495 52.3895 6.70293 52.4125 6.65179C52.6356 6.1416 53.0376 5.73963 53.5362 5.52833C53.793 5.41904 54.0679 5.36366 54.3453 5.36536H58.0236C58.3095 5.3633 58.5928 5.42231 58.8559 5.53874C59.3647 5.76151 59.7693 6.18304 59.983 6.7129C60.0949 6.98693 60.1516 7.28199 60.1495 7.57977V14.8861C60.1515 15.1839 60.0949 15.479 59.983 15.753C59.7688 16.2822 59.3643 16.703 58.8559 16.9254C58.5928 17.0419 58.3095 17.1009 58.0236 17.0988L52.2831 17.1001ZM57.9578 14.8177V7.64782H52.3493V14.8177H57.9578Z" fill="black"/>
<path d="M44.6779 7.64781V17.1001H46.8691V7.58063C46.871 7.28286 46.8144 6.98785 46.7026 6.71376C46.4894 6.18332 46.0849 5.76114 45.576 5.53786C45.3128 5.42143 45.0295 5.36242 44.7436 5.36449H42.0879C41.5386 5.36086 41.0096 5.58059 40.6134 5.97693C40.4219 6.16939 40.2679 6.39853 40.1597 6.65178C40.1103 6.76703 40.07 6.88634 40.0395 7.00849C40.009 6.88524 39.9672 6.76534 39.9146 6.65048C39.6839 6.14098 39.278 5.74021 38.7772 5.52746C38.5238 5.41892 38.2524 5.36353 37.9785 5.36449H35.3224C34.7732 5.36109 34.2444 5.58115 33.8487 5.97779C33.6571 6.17077 33.5018 6.39936 33.3909 6.65178C33.3854 6.66511 33.3799 6.67849 33.3743 6.69193C33.3586 6.73003 33.3426 6.76877 33.3284 6.80782V5.36449H31.1472V17.1001H33.3284V7.64781H37.9127V17.1001H40.1044V7.64781H44.6779Z" fill="black"/>
<path d="M25.6572 15.6698V17.1002H27.8493V5.36456H25.6572V14.8177H20.0503V5.36456H17.8691V14.8871C17.8668 15.1849 17.9235 15.48 18.0356 15.7539C18.2492 16.2838 18.6538 16.7052 19.1626 16.9277C19.4219 17.0433 19.7013 17.1023 19.9833 17.101H23.672C23.9387 17.1022 24.2031 17.0486 24.4499 16.9433C24.6906 16.8407 24.9116 16.6939 25.1024 16.5098C25.2949 16.3251 25.4545 16.1065 25.574 15.864C25.604 15.7999 25.6327 15.7353 25.6572 15.6698Z" fill="black"/>
<path d="M63.4479 0.900146H65.6291V17.1001H63.4479V0.900146Z" fill="black"/>
<path fill-rule="evenodd" clip-rule="evenodd" d="M71.0424 17.1001C70.7603 17.1014 70.481 17.0424 70.2217 16.9267C69.7127 16.7038 69.3079 16.2819 69.0942 15.7517C68.9823 15.4776 68.9257 15.1826 68.9277 14.8848V7.57889C68.9256 7.28111 68.9823 6.98605 69.0942 6.71203C69.308 6.18208 69.7128 5.76054 70.2217 5.53786C70.481 5.42229 70.7603 5.36329 71.0424 5.36449H76.3542C76.6401 5.36236 76.9234 5.42137 77.1865 5.53786C77.6957 5.76007 78.1006 6.18177 78.314 6.71203C78.4259 6.98606 78.4826 7.28111 78.4805 7.57889V12.3956H71.1085V14.8176H78.48V17.1001H71.0424ZM76.2863 10.1132V7.64781H71.1085V10.1132H76.2863Z" fill="black"/>
<path d="M10.8444 17.1C10.5623 17.1013 10.283 17.0423 10.0237 16.9267C9.7712 16.8149 9.54097 16.655 9.3449 16.4551C9.14551 16.2504 8.98739 16.0063 8.87983 15.7371C8.77227 15.4678 8.71744 15.179 8.71854 14.8874V7.64905H6V5.36442H8.71854V1.79337H10.911V5.36442H14.571V7.64688H10.911V14.8176H14.571V17.1H10.8444Z" fill="black"/>
<path d="M92.6899 4.6442L95.9995 6.3944L92.6899 8.155L93.144 7.2955L90.2781 7.27816L87.5001 11.1652L91.7352 17.1002H89.2464L86.2561 12.9076L83.255 17.1002H80.7661L85.0117 11.1652L85.0113 11.1648L87.5787 7.5781H87.5746L89.0583 5.50283H93.144L92.6899 4.6442Z" fill="#1684C3"/>
<path d="M83.4438 5.50269L85.0107 7.68676L83.768 9.42395L80.9658 5.50269H83.4438Z" fill="#1684C3"/>
</svg>
