<svg width="90" height="35" viewBox="0 0 90 35" fill="none" xmlns="http://www.w3.org/2000/svg">
<g clip-path="url(#clip0)">
<path d="M90.1897 0H56.5607V34.9998H90.1897V0Z" fill="url(#paint0_linear)"/>
<path d="M6.82243 13.8065L4.1202 20.3037H2.69329L0 13.8065H1.56068L3.46026 18.4474L5.3866 13.8065H6.82243Z" fill="url(#paint1_linear)"/>
<path d="M12.2824 19.4615V20.3038H9.18555V16.301H12.2088V17.1434H10.229V17.8743H11.9814V18.6748H10.229V19.4615H12.2824Z" fill="black"/>
<path d="M19.4073 16.301V20.3038H18.5378L16.7653 18.097V20.3038H15.7285V16.301H16.5981L18.3706 18.5147V16.301H19.4073Z" fill="black"/>
<path d="M22.625 17.1573H23.8357V20.3038H24.8925V17.1573H26.1031V16.301H22.625V17.1573Z" fill="black"/>
<path d="M31.1025 20.3804C30.5317 20.3804 30.0858 20.2203 29.7648 19.9C29.4437 19.5798 29.2832 19.1389 29.2832 18.5774V16.301H30.34V18.5426C30.34 18.8535 30.4047 19.0878 30.534 19.2456C30.6677 19.4035 30.8617 19.4824 31.1159 19.4824C31.3656 19.4824 31.5551 19.4035 31.6844 19.2456C31.8137 19.0878 31.8784 18.8535 31.8784 18.5426V16.301H32.9218V18.5774C32.9218 19.1389 32.7613 19.5798 32.4402 19.9C32.1192 20.2203 31.6733 20.3804 31.1025 20.3804Z" fill="black"/>
<path fill-rule="evenodd" clip-rule="evenodd" d="M37.2565 19.5102H39.0558L39.3701 20.3038H40.4136L38.6812 16.301H37.6378L35.9121 20.3038H36.9355L37.2565 19.5102ZM38.1595 17.2687L38.7347 18.7166H37.5776L38.1595 17.2687Z" fill="black"/>
<path fill-rule="evenodd" clip-rule="evenodd" d="M45.2507 19.2317H44.6017V20.3038H43.5449V16.301H45.2976C45.828 16.301 46.2496 16.4333 46.5616 16.6978C46.8737 16.9577 47.0295 17.3174 47.0295 17.7768C47.0295 18.0692 46.9606 18.3245 46.8224 18.5426C46.6886 18.756 46.4968 18.9231 46.2473 19.0438L47.1034 20.3038H45.9663L45.2507 19.2317ZM45.9663 17.7768C45.9663 17.5773 45.9037 17.4241 45.779 17.3174C45.6542 17.2106 45.4691 17.1573 45.2237 17.1573H44.6017V18.3964H45.2237C45.4691 18.3964 45.6542 18.343 45.779 18.2363C45.9037 18.1295 45.9663 17.9764 45.9663 17.7768Z" fill="black"/>
<path d="M52.4794 20.3038V18.9742L54.038 16.301H52.9743L51.9845 18.0066L50.9879 16.301H49.8711L51.4229 18.9742V20.3038H52.4794Z" fill="black"/>
<path fill-rule="evenodd" clip-rule="evenodd" d="M79.8422 19.9785C80.3654 20.2694 80.9513 20.4148 81.5993 20.4148C82.2474 20.4148 82.8301 20.2694 83.3471 19.9785C83.8645 19.6877 84.2716 19.2886 84.5688 18.7812C84.8665 18.2676 85.0151 17.6922 85.0151 17.0548C85.0151 16.4175 84.8665 15.8451 84.5688 15.3377C84.2716 14.8241 83.8645 14.4219 83.3471 14.1311C82.8301 13.8402 82.2474 13.6948 81.5993 13.6948C80.9513 13.6948 80.3654 13.8402 79.8422 14.1311C79.3252 14.4219 78.9176 14.8241 78.6204 15.3377C78.3291 15.8451 78.1836 16.4175 78.1836 17.0548C78.1836 17.6922 78.3291 18.2676 78.6204 18.7812C78.9176 19.2886 79.3252 19.6877 79.8422 19.9785ZM82.5982 18.874C82.301 19.0473 81.9677 19.1339 81.5993 19.1339C81.2305 19.1339 80.8977 19.0473 80.6005 18.874C80.3033 18.6946 80.0682 18.4471 79.8957 18.1315C79.7296 17.8159 79.6463 17.457 79.6463 17.0548C79.6463 16.6526 79.7296 16.2937 79.8957 15.9781C80.0682 15.6625 80.3033 15.4181 80.6005 15.2448C80.8977 15.0654 81.2305 14.9757 81.5993 14.9757C81.9677 14.9757 82.301 15.0654 82.5982 15.2448C82.8954 15.4181 83.1273 15.6625 83.2935 15.9781C83.466 16.2937 83.5524 16.6526 83.5524 17.0548C83.5524 17.457 83.466 17.8159 83.2935 18.1315C83.1273 18.4471 82.8954 18.6946 82.5982 18.874Z" fill="white"/>
<path fill-rule="evenodd" clip-rule="evenodd" d="M61.8789 13.8066H64.7151C65.3928 13.8066 65.9904 13.9428 66.5078 14.215C67.0307 14.4811 67.4351 14.8586 67.7206 15.3474C68.0119 15.8363 68.1574 16.4055 68.1574 17.0553C68.1574 17.705 68.0119 18.2743 67.7206 18.7631C67.4351 19.2519 67.0307 19.6325 66.5078 19.9047C65.9904 20.1708 65.3928 20.3039 64.7151 20.3039H61.8789V13.8066ZM64.6439 19.0694C65.2681 19.0694 65.7643 18.89 66.1332 18.5311C66.5078 18.166 66.6947 17.674 66.6947 17.0553C66.6947 16.4365 66.5078 15.9476 66.1332 15.5887C65.7643 15.2236 65.2681 15.0411 64.6439 15.0411H63.324V19.0694H64.6439Z" fill="white"/>
<path fill-rule="evenodd" clip-rule="evenodd" d="M74.6093 18.9116H71.711L71.158 20.3039H69.6777L72.4603 13.8066H73.887L76.6786 20.3039H75.1623L74.6093 18.9116ZM74.1545 17.77L73.1646 15.2824L72.1748 17.77H74.1545Z" fill="white"/>
</g>
<defs>
<linearGradient id="paint0_linear" x1="83.2656" y1="-2.41022" x2="47.8096" y2="22.9663" gradientUnits="userSpaceOnUse">
<stop stop-color="#3CE700"/>
<stop offset="0.567708" stop-color="#0BC91E"/>
</linearGradient>
<linearGradient id="paint1_linear" x1="5.41772" y1="13.3591" x2="-1.33109" y2="18.6379" gradientUnits="userSpaceOnUse">
<stop stop-color="#3CE700"/>
<stop offset="0.567708" stop-color="#0BC91E"/>
</linearGradient>
<clipPath id="clip0">
<rect width="90" height="35" fill="white"/>
</clipPath>
</defs>
</svg>
