<svg width="100" height="14" viewBox="0 0 100 14" fill="none" xmlns="http://www.w3.org/2000/svg">
<path fill-rule="evenodd" clip-rule="evenodd" d="M63.0405 3.8226L59.9443 7.08536L56.8482 3.8226L59.9443 0.559845L63.0405 3.8226Z" fill="#0055FF"/>
<path d="M70.8993 2.1714H69.6552V11.868H75.5506V10.7128H70.8993V2.1714Z" fill="black"/>
<path fill-rule="evenodd" clip-rule="evenodd" d="M80.7395 7.2408C80.652 7.43443 80.479 7.54884 80.2206 7.58404L78.4264 7.82167C77.7971 7.90528 77.2886 8.12751 76.901 8.48835C76.5134 8.84919 76.3196 9.35745 76.3196 10.0131C76.3196 10.6116 76.5155 11.1111 76.9072 11.5115C77.3032 11.9076 77.8116 12.1056 78.4326 12.1056C78.9495 12.1056 79.4225 11.989 79.8518 11.7557C80.2811 11.5225 80.6103 11.2475 80.8396 10.9306C80.8771 11.2123 80.9417 11.4301 81.0334 11.5841C81.2084 11.8746 81.4897 12.0198 81.8773 12.0198C82.0357 12.0198 82.1608 12.0132 82.2525 12C82.3441 11.9868 82.4775 11.9538 82.6526 11.901V11.0231C82.5817 11.0363 82.515 11.0473 82.4525 11.0561C82.39 11.0605 82.3337 11.0627 82.2837 11.0627C82.1295 11.0627 82.0274 11.0253 81.9774 10.9504C81.9315 10.8756 81.9086 10.7766 81.9086 10.6534V6.58072C81.9086 5.91184 81.6648 5.41899 81.1772 5.10215C80.6854 4.78531 80.0456 4.62689 79.2579 4.62689C78.5785 4.62689 77.9804 4.79851 77.4636 5.14175C76.951 5.48059 76.6842 6.08567 76.6634 6.95697H77.7137C77.7554 6.59173 77.845 6.31669 77.9825 6.13187C78.2284 5.79743 78.6452 5.63021 79.2329 5.63021C79.7413 5.63021 80.131 5.72262 80.4019 5.90744C80.677 6.08787 80.8146 6.3805 80.8146 6.78535C80.8146 6.98337 80.7896 7.13519 80.7395 7.2408ZM77.8512 10.7986C77.6137 10.6006 77.4949 10.33 77.4949 9.98673C77.4949 9.53347 77.6678 9.20343 78.0138 8.99661C78.218 8.8734 78.5243 8.78319 78.9328 8.72598L79.6142 8.63357C79.8226 8.60716 80.0352 8.56316 80.2519 8.50155C80.4686 8.43995 80.6458 8.36294 80.7833 8.27052V9.22764C80.7833 9.95813 80.4707 10.484 79.8455 10.8052C79.4746 10.9988 79.0912 11.0957 78.6952 11.0957C78.3701 11.0957 78.0888 10.9966 77.8512 10.7986Z" fill="black"/>
<path fill-rule="evenodd" clip-rule="evenodd" d="M84.7656 2.1384H83.6716V11.868H84.7094V10.9636C84.9469 11.3025 85.1699 11.5489 85.3783 11.7029C85.7284 11.9626 86.1577 12.0924 86.6662 12.0924C87.5748 12.0924 88.2854 11.7227 88.798 10.9834C89.3107 10.2442 89.567 9.31565 89.567 8.19792C89.567 7.01858 89.3065 6.12747 88.7855 5.5246C88.2687 4.91733 87.5935 4.61369 86.7599 4.61369C86.3598 4.61369 85.9889 4.7039 85.6471 4.88432C85.3054 5.06034 85.0116 5.31777 84.7656 5.65661V2.1384ZM87.9603 10.2772C87.6602 10.7876 87.2059 11.0429 86.5974 11.0429C85.7888 11.0429 85.2366 10.6534 84.9407 9.87452C84.7823 9.46087 84.7031 8.9218 84.7031 8.25732C84.7031 7.33761 84.8949 6.67754 85.2783 6.27709C85.6659 5.87664 86.116 5.67642 86.6287 5.67642C87.2163 5.67642 87.6602 5.92065 87.9603 6.4091C88.2645 6.89756 88.4167 7.51364 88.4167 8.25732C88.4167 9.09342 88.2645 9.7667 87.9603 10.2772Z" fill="black"/>
<path d="M91.8363 10.561C91.6821 10.3498 91.5884 10.0461 91.555 9.65009H90.4735C90.5026 10.3542 90.7235 10.946 91.1362 11.4257C91.5529 11.901 92.2594 12.1386 93.2555 12.1386C94.1807 12.1386 94.8684 11.9098 95.3186 11.4521C95.7729 10.9944 96 10.451 96 9.82171C96 9.17043 95.7812 8.69297 95.3436 8.38934C95.0685 8.19572 94.5267 7.99549 93.7181 7.78867L92.9742 7.59724C92.6491 7.51364 92.4032 7.41682 92.2365 7.30681C91.9489 7.12199 91.8051 6.87556 91.8051 6.56752C91.8051 6.28589 91.9135 6.05926 92.1302 5.88764C92.3511 5.71602 92.6741 5.63021 93.0992 5.63021C93.7369 5.63021 94.1849 5.78643 94.4433 6.09887C94.6017 6.31889 94.6913 6.56312 94.7122 6.83155H95.7749C95.7833 6.3739 95.6478 5.94705 95.3686 5.551C94.9226 4.92613 94.1953 4.61369 93.1867 4.61369C92.4157 4.61369 91.8009 4.82052 91.3425 5.23416C90.8882 5.64781 90.661 6.18908 90.661 6.85796C90.661 7.42562 90.9028 7.87008 91.3862 8.19132C91.6571 8.37614 92.0781 8.54336 92.6491 8.69297L93.5431 8.9306C94.0224 9.05822 94.3433 9.17043 94.5058 9.26724C94.7601 9.42566 94.8872 9.65669 94.8872 9.96033C94.8872 10.3608 94.7288 10.6578 94.4121 10.8514C94.0953 11.0407 93.7285 11.1353 93.3118 11.1353C92.6116 11.1353 92.1198 10.9438 91.8363 10.561Z" fill="black"/>
<path fill-rule="evenodd" clip-rule="evenodd" d="M46.3207 9.12207L46.492 8.95589V8.68288C46.492 7.2229 46.0924 5.9647 45.3045 5.08633C44.5166 4.20796 43.4547 3.75691 42.1529 3.75691C40.8969 3.75691 39.8464 4.24357 39.0357 5.19316C38.2249 6.14274 37.8253 7.29412 37.8253 8.59979C37.8253 9.98856 38.2478 11.1518 39.0813 12.0658C39.9149 12.9798 41.0111 13.4427 42.3356 13.4427C43.2948 13.4427 44.1169 13.2053 44.7792 12.7186C45.4415 12.2438 46.138 11.4604 46.3778 10.3921L46.2522 10.2141H44.6079L44.3796 10.3921C43.9685 11.2468 43.3405 11.6503 42.3014 11.6503C41.6277 11.6503 41.0225 11.4011 40.5201 10.9144C40.0405 10.4515 39.7664 9.89361 39.6979 9.09833L46.3207 9.12207ZM39.8121 7.46029C40.0976 6.3564 40.9882 5.53738 42.1529 5.53738C43.6945 5.53738 44.3339 6.67688 44.5166 7.46029H39.8121Z" fill="black"/>
<path d="M15.7417 3.94683H17.4887L17.6029 4.113L14.8054 13.1222L14.6113 13.3002H12.83L12.6358 13.1222L10.6262 6.67688H10.5805L8.58223 13.1222L8.38811 13.3002H6.62965L6.43553 13.1222L3.63797 4.113L3.75216 3.94683H5.53346L5.71616 4.113L7.50888 10.4396L7.5203 10.4515L7.55455 10.4752L9.55281 4.113L9.73551 3.94683H11.5625L11.7452 4.113L13.7549 10.5108H13.7663L15.559 4.113L15.7417 3.94683Z" fill="black"/>
<path d="M35.4959 3.94683H37.2544L37.3685 4.113L33.8288 13.1222L33.6232 13.3002H32.0018L31.7963 13.1222L28.2907 4.113L28.4049 3.94683H30.1977L30.3918 4.113L32.8239 10.7838L32.8468 10.772L35.3018 4.113L35.4959 3.94683Z" fill="black"/>
<path fill-rule="evenodd" clip-rule="evenodd" d="M25.2648 4.12487L25.4361 3.94683V3.93496H26.9434L27.1146 4.113V13.1459L26.9434 13.324H25.4475L25.2762 13.1459V12.1845C25.2705 12.1904 25.2591 12.1874 25.2477 12.1845C25.2363 12.1815 25.2249 12.1785 25.2191 12.1845C24.9908 12.4812 24.6939 12.7305 24.3399 12.956C24.271 13.0008 24.1957 13.0388 24.1236 13.0751C24.1001 13.0869 24.0769 13.0986 24.0544 13.1103C23.5634 13.3596 23.0154 13.4783 22.4102 13.4783C21.2797 13.4783 20.2863 13.0035 19.4642 12.0777C18.642 11.1518 18.231 9.98856 18.231 8.62353C18.231 7.25851 18.642 6.09526 19.4642 5.16942C20.2863 4.24357 21.2797 3.76878 22.4102 3.76878C23.0154 3.76878 23.5749 3.88748 24.0659 4.13674C24.1572 4.18422 24.2486 4.2317 24.3285 4.27918C24.6939 4.50471 25.0022 4.77771 25.2306 5.08633L25.2648 5.05072V4.12487ZM22.6728 11.6859C23.4036 11.6859 24.0088 11.4129 24.5112 10.8551C24.8423 10.499 25.0707 10.0479 25.1849 9.49003V7.68582C25.0593 7.15168 24.8423 6.71249 24.5112 6.34453C23.9974 5.78665 23.3922 5.51364 22.6728 5.51364C21.9534 5.51364 21.4396 5.79852 20.9257 6.3564C20.4233 6.92615 20.1607 7.67395 20.1607 8.59979C20.1607 9.53751 20.4119 10.2853 20.9257 10.8432C21.4396 11.4129 21.9648 11.6859 22.6728 11.6859Z" fill="black"/>
<path d="M52.6581 7.88761C52.6581 7.88761 51.6761 7.67395 50.8653 7.48403C50.1231 7.30598 49.7463 7.08046 49.7463 6.53445C49.7463 5.95283 50.283 5.46616 51.4363 5.46616C52.5667 5.46616 53.1947 5.98843 53.1947 6.45136L53.3888 6.62941H55.0331L55.1587 6.46323C55.1587 5.24064 54.1425 3.78065 51.4819 3.78065C48.7072 3.78065 47.8394 5.47803 47.8394 6.57006C47.8394 7.48403 48.1591 8.56419 50.283 9.07459C50.283 9.07459 51.2992 9.31198 52.11 9.5019C53.0349 9.71556 53.4231 10.0479 53.4231 10.6058C53.4231 11.1162 52.9321 11.7334 51.6532 11.7334C50.4657 11.7334 49.7463 11.1399 49.7121 10.4396L49.5065 10.2616H47.828L47.7024 10.4396C47.8508 12.0064 48.9698 13.4783 51.6418 13.4783C54.6677 13.4783 55.2843 11.5554 55.2843 10.5464C55.2843 9.19329 54.5421 8.31492 52.6581 7.88761Z" fill="black"/>
</svg>
