<svg width="100" height="100" viewBox="0 0 100 100" fill="none" xmlns="http://www.w3.org/2000/svg">
    <g clip-path="url(#clip0)">
        <path d="M93.9631 36.9184L93.9631 36.9184L93.9631 36.9184Z" fill="#0BC91F" stroke="#0BC91F"/>
        <path d="M9.47502 78.2521C9.47475 78.2522 9.47421 78.2523 9.4734 78.2525L9.46838 78.254C9.46403 78.2555 9.45855 78.2579 9.45243 78.2614C9.43965 78.2688 9.42837 78.2789 9.41975 78.2899C9.40353 78.3106 9.40191 78.3271 9.40191 78.3336C9.40191 78.34 9.40353 78.3565 9.41975 78.3772C9.42837 78.3882 9.43965 78.3983 9.45243 78.4057C9.45855 78.4092 9.46403 78.4116 9.46838 78.4131L9.4734 78.4146C9.4739 78.4147 9.4743 78.4148 9.4746 78.4149C9.47501 78.415 9.47522 78.415 9.47521 78.415L9.4746 78.4149L9.00876 78.3451L9.00824 78.345L9.00593 78.3446C9.00573 78.3446 9.00552 78.3446 9.00531 78.3445L8.26793 79.0968C8.26793 79.0969 8.26794 79.0969 8.26794 79.0969L8.26863 79.1017L8.73028 79.1692M9.47502 78.2521L9.47521 78.2521C9.47521 78.2521 9.47515 78.2521 9.47502 78.2521ZM9.47502 78.2521L9.00935 78.3215L9.07905 77.85M9.07905 77.85L9.54872 77.9204C10.0196 77.9904 10.0196 78.6767 9.54872 78.7467L9.07905 78.8167C8.89864 78.8438 8.75693 78.9867 8.73028 79.1692M9.07905 77.85C8.89864 77.8233 8.75693 77.68 8.73028 77.4979L8.66094 77.0238M9.07905 77.85L8.66094 77.0238M8.73028 79.1692L8.26865 79.1018L7.84254 79.6433C7.91209 80.1192 8.59138 80.1192 8.66094 79.6433L8.73028 79.1692ZM7.42443 77.85L6.95475 77.9204L7.49514 78.3217M7.42443 77.85L7.49411 78.3215L7.02845 78.2521L7.02826 78.2521C7.02826 78.2521 7.02832 78.2521 7.02845 78.2521C7.02872 78.2522 7.02927 78.2523 7.03008 78.2525L7.0351 78.254C7.03944 78.2555 7.04493 78.2579 7.05105 78.2614C7.06382 78.2688 7.07511 78.2789 7.08373 78.2899C7.09994 78.3106 7.10156 78.3271 7.10156 78.3336C7.10156 78.34 7.09994 78.3565 7.08373 78.3772C7.07511 78.3882 7.06382 78.3983 7.05105 78.4057C7.04493 78.4092 7.03944 78.4116 7.0351 78.4131L7.03008 78.4146C7.02957 78.4147 7.02917 78.4148 7.02888 78.4149C7.02846 78.415 7.02826 78.415 7.02826 78.415L7.02888 78.4149L7.49471 78.3451L7.49522 78.345L7.49752 78.3446C7.49774 78.3446 7.49796 78.3446 7.49817 78.3445L7.49856 78.3445L7.49693 78.3336L7.49667 78.3319L7.49514 78.3217M7.42443 77.85C7.60487 77.8233 7.74654 77.68 7.77319 77.4979L7.49514 78.3217M7.42443 77.85L7.49514 78.3217M8.66094 77.0238C8.59138 76.5479 7.91209 76.5479 7.84254 77.0238H8.66094ZM7.55916 78.3334C7.90331 78.2582 8.17004 77.9913 8.25174 77.6539C8.33345 77.9913 8.60024 78.2582 8.94432 78.3334C8.60096 78.4087 8.33359 78.6747 8.25174 79.0132C8.16989 78.6748 7.90258 78.4087 7.55916 78.3334Z" fill="#0BC91F" stroke="#0BC91F"/>
        <path d="M78.3861 3.61176L78.386 3.61195L78.2751 4.3235L78.275 4.32398C78.1956 4.83012 77.7833 5.20133 77.2921 5.27001L77.2921 5.27001L76.5405 5.37508C76.5405 5.37509 76.5405 5.37509 76.5405 5.37509C76.4687 5.38514 76.4421 5.41083 76.4315 5.42345C76.4172 5.44063 76.4062 5.46712 76.4062 5.49982C76.4062 5.53252 76.4172 5.55901 76.4315 5.5762C76.4421 5.58882 76.4687 5.61452 76.5405 5.62456L78.3861 3.61176ZM78.3861 3.61176C78.3933 3.56512 78.4105 3.5465 78.4272 3.53402C78.4507 3.51648 78.4924 3.49982 78.5466 3.49982C78.6007 3.49982 78.6426 3.51648 78.6661 3.53408C78.6829 3.54663 78.7001 3.56533 78.7074 3.61195C78.7074 3.61198 78.7074 3.61201 78.7074 3.61203L78.8183 4.32325L78.3861 3.61176ZM77.292 5.72967L76.5405 5.62456L78.7074 7.38769C78.7001 7.43432 78.6829 7.45303 78.6661 7.46558C78.6425 7.48318 78.6007 7.49983 78.5466 7.49983C78.4924 7.49983 78.4507 7.48318 78.4272 7.46564C78.4105 7.45316 78.3933 7.43453 78.3861 7.38789L78.386 7.38769L78.2751 6.67615L78.275 6.67566C78.1956 6.16956 77.7834 5.79833 77.2921 5.72968C77.2921 5.72968 77.2921 5.72968 77.292 5.72967ZM78.8183 6.67639L78.7074 7.38761L79.8009 5.72968C79.3099 5.7983 78.8973 6.16946 78.8184 6.67615C78.8184 6.67623 78.8184 6.67631 78.8183 6.67639ZM80.5525 5.62456L79.801 5.72967L78.8184 4.3235C78.8973 4.83022 79.3099 5.20136 79.8009 5.27001L79.8009 5.27001L80.5525 5.37508C80.5526 5.37509 80.5526 5.37509 80.5526 5.37509C80.6243 5.38514 80.651 5.41083 80.6615 5.42345C80.6758 5.44063 80.6868 5.46712 80.6868 5.49982C80.6868 5.53252 80.6758 5.55902 80.6615 5.5762C80.651 5.58882 80.6243 5.61452 80.5526 5.62456C80.5526 5.62456 80.5526 5.62456 80.5525 5.62456Z" fill="#0BC91F" stroke="#0BC91F"/>
        <path d="M3.79118 12.1121L3.79118 12.1121C3.78389 12.0654 3.76666 12.0467 3.7499 12.0342C3.7264 12.0166 3.6846 12 3.6305 12C3.5764 12 3.5346 12.0166 3.51109 12.0342C3.49434 12.0467 3.47711 12.0654 3.46982 12.1121L3.46982 12.1121L3.35883 12.8237L3.79118 12.1121ZM3.79118 12.1121L3.90217 12.8237L3.79118 12.1121ZM2.37605 13.7702L2.37604 13.7702L1.62459 13.8753C1.62459 13.8753 1.62459 13.8753 1.62459 13.8753C1.55272 13.8853 1.52604 13.911 1.51551 13.9237C1.50118 13.9409 1.49023 13.9673 1.49023 14C1.49023 14.0327 1.50118 14.0591 1.51551 14.0763C1.52604 14.089 1.55273 14.1147 1.62459 14.1247C1.62459 14.1247 1.62459 14.1247 1.62459 14.1247L2.37604 14.2298L2.37605 14.2298C2.86687 14.2985 3.27978 14.6695 3.35883 15.1763L2.37605 13.7702ZM2.37605 13.7702C2.86687 13.7015 3.27978 13.3305 3.35883 12.8237L2.37605 13.7702ZM3.46982 15.8879L3.46982 15.8879C3.47711 15.9346 3.49434 15.9533 3.51109 15.9658C3.5346 15.9834 3.5764 16 3.6305 16C3.6846 16 3.7264 15.9834 3.7499 15.9658C3.76666 15.9533 3.78389 15.9346 3.79118 15.8879L3.79118 15.8879L3.90217 15.1763L3.46982 15.8879ZM3.46982 15.8879L3.35883 15.1763L3.46982 15.8879ZM4.88494 14.2298L4.88495 14.2298L5.63641 14.1247C5.63641 14.1247 5.63642 14.1247 5.63642 14.1247C5.70828 14.1147 5.73495 14.089 5.74549 14.0763C5.75982 14.0592 5.77076 14.0327 5.77076 14C5.77076 13.9673 5.75982 13.9409 5.74549 13.9237C5.73495 13.911 5.70828 13.8853 5.63642 13.8753C5.63642 13.8753 5.63641 13.8753 5.63641 13.8753L4.88495 13.7702L4.88494 13.7702C4.39412 13.7015 3.98122 13.3305 3.90217 12.8237L4.88494 14.2298ZM4.88494 14.2298C4.39412 14.2985 3.98122 14.6695 3.90217 15.1763L4.88494 14.2298Z" fill="#0BC91F" stroke="#0BC91F"/>
        <path d="M95.3532 74.0423L95.3528 74.0423C95.281 74.0523 95.2544 74.078 95.244 74.0905C95.2297 74.1076 95.2187 74.134 95.2187 74.1667C95.2187 74.1994 95.2297 74.2259 95.244 74.2431C95.2546 74.2558 95.2812 74.2814 95.3529 74.2915C95.3529 74.2915 95.353 74.2915 95.353 74.2915L96.1046 74.3965L96.1048 74.3965C96.5949 74.4652 97.0082 74.8359 97.0872 75.343C97.0872 75.343 97.0872 75.3431 97.0872 75.3431C97.0872 75.3432 97.0872 75.3432 97.0872 75.3432L97.1981 76.0546C97.1981 76.0546 97.1981 76.0546 97.1981 76.0547C97.2054 76.1013 97.2227 76.12 97.2394 76.1325C97.2629 76.1501 97.3047 76.1667 97.3588 76.1667C97.4129 76.1667 97.4547 76.1501 97.4782 76.1325C97.495 76.1199 97.5122 76.1012 97.5195 76.0546L97.6305 75.343L97.6305 75.3425C97.71 74.8363 98.1223 74.4652 98.6134 74.3965L98.6134 74.3965L99.3646 74.2915C99.3646 74.2915 99.3647 74.2915 99.3647 74.2915C99.4366 74.2814 99.4633 74.2557 99.4739 74.243C99.4882 74.2258 99.4992 74.1994 99.4992 74.1667C99.4992 74.1341 99.4882 74.1077 99.474 74.0906C99.4635 74.0781 99.4368 74.0523 99.3649 74.0423L99.3644 74.0422L98.6134 73.9369L95.3532 74.0423ZM95.3532 74.0423L96.1048 73.9368C96.1048 73.9368 96.1048 73.9368 96.1048 73.9368C96.5949 73.8681 97.0082 73.4975 97.0872 72.9904C97.0872 72.9903 97.0872 72.9902 97.0872 72.9902M95.3532 74.0423L97.0872 72.9902M97.0872 72.9902L97.1981 72.2792L97.0872 72.9902Z" fill="#0BC91F" stroke="#0BC91F"/>
        <path d="M16.6721 2.83301C16.6721 3.0218 16.8223 3.16634 16.9972 3.16634C17.172 3.16634 17.3223 3.0218 17.3223 2.83301C17.3223 2.64421 17.172 2.49967 16.9972 2.49967C16.8223 2.49967 16.6721 2.64421 16.6721 2.83301Z" fill="#0BC91F" stroke="#0BC91F"/>
        <path d="M67.8264 14.1668C67.8264 14.3556 67.9766 14.5002 68.1515 14.5002C68.3263 14.5002 68.4766 14.3556 68.4766 14.1668C68.4766 13.978 68.3263 13.8335 68.1515 13.8335C67.9766 13.8335 67.8264 13.978 67.8264 14.1668Z" fill="#0BC91F" stroke="#0BC91F"/>
        <path d="M97.5295 16.5C97.5295 16.6888 97.6797 16.8333 97.8546 16.8333C98.0295 16.8333 98.1797 16.6888 98.1797 16.5C98.1797 16.3112 98.0295 16.1667 97.8546 16.1667C97.6797 16.1667 97.5295 16.3112 97.5295 16.5Z" fill="#0BC91F" stroke="#0BC91F"/>
        <path d="M18.8168 25.75C18.8168 26.2149 19.1886 26.5833 19.6369 26.5833C20.0852 26.5833 20.457 26.2149 20.457 25.75C20.457 25.2851 20.0852 24.9167 19.6369 24.9167C19.1886 24.9167 18.8168 25.2851 18.8168 25.75Z" fill="#0BC91F" stroke="#0BC91F"/>
        <path d="M3.14099 58.6667C3.14099 59.1316 3.51285 59.5 3.96112 59.5C4.40939 59.5 4.78125 59.1316 4.78125 58.6667C4.78125 58.2017 4.40939 57.8333 3.96112 57.8333C3.51285 57.8333 3.14099 58.2017 3.14099 58.6667Z" fill="#0BC91F" stroke="#0BC91F"/>
        <path d="M98.1898 56.1666C98.1898 56.5395 98.4878 56.8333 98.8449 56.8333C99.202 56.8333 99.5 56.5395 99.5 56.1666C99.5 55.7937 99.202 55.5 98.8449 55.5C98.4878 55.5 98.1898 55.7937 98.1898 56.1666Z" fill="#0BC91F" stroke="#0BC91F"/>
        <path d="M55.2855 1.83333C55.2855 2.20622 55.5834 2.5 55.9406 2.5C56.2977 2.5 56.5957 2.20622 56.5957 1.83333C56.5957 1.46044 56.2977 1.16666 55.9406 1.16666C55.5834 1.16666 55.2855 1.46044 55.2855 1.83333Z" fill="#0BC91F" stroke="#0BC91F"/>
        <path d="M17.5767 39.52H82.0217C82.9236 39.52 83.655 40.2593 83.655 41.1725V81.5179C83.655 82.4308 82.9236 83.1704 82.0217 83.1704H17.5767C16.6752 83.1704 15.9434 82.4308 15.9434 81.5179V41.1725C15.9434 40.2593 16.6752 39.52 17.5767 39.52Z" fill="#2D2D2D" stroke="#0BC91F" stroke-width="2"/>
        <path opacity="0.4" d="M18.6055 44.2771C18.6055 43.1342 19.5214 42.2079 20.6513 42.2079H78.9589C80.0889 42.2079 81.0047 43.1342 81.0047 44.2771V78.4154C81.0047 79.5583 80.0889 80.4846 78.9589 80.4846H20.6513C19.5214 80.4846 18.6055 79.5583 18.6055 78.4154V44.2771Z" fill="black"/>
        <path d="M16.0588 84.7046H83.5448C83.7969 84.7046 84.0535 84.7875 84.2915 84.9588L97.3105 94.3217C98.0634 94.8629 98.3344 95.9254 98.141 96.9108C97.945 97.9071 97.3365 98.5846 96.5638 98.5846H3.03957C2.26684 98.5846 1.65837 97.9071 1.46267 96.9108C1.2691 95.9254 1.54016 94.8629 2.29292 94.3217L15.3121 84.9588C15.5499 84.7875 15.8064 84.7046 16.0588 84.7046Z" fill="#2D2D2D" stroke="#0BC91F" stroke-width="2"/>
        <path d="M85.5442 89.6029L85.5632 89.6175L85.5834 89.63C85.8648 89.8 86.036 90.2675 85.9646 90.8012C85.9312 91.0525 85.8474 91.2642 85.7422 91.4025C85.642 91.5342 85.5385 91.5833 85.4308 91.5833H13.5226C13.4161 91.5833 13.3137 91.535 13.2144 91.4067C13.1099 91.2712 13.0261 91.0637 12.9909 90.8158C12.9161 90.2904 13.0784 89.8196 13.3534 89.6404C13.3803 89.6229 13.4147 89.5987 13.4502 89.5687L16.5665 86.9071C16.5771 86.8979 16.5833 86.8933 16.5867 86.8908C16.6649 86.8558 16.8095 86.8183 16.9857 86.7904C17.159 86.7625 17.3216 86.75 17.4099 86.75H81.5438C81.7068 86.75 81.8755 86.7946 82.0418 86.8912L85.5442 89.6029Z" fill="black"/>
        <path opacity="0.4" d="M36.6953 95.9167L39.0453 93.75H60.564L62.9138 95.9167H36.6953Z" fill="black"/>
        <path d="M67.0702 95.8508L66.8577 95.5792L66.5545 95.7404C65.7179 96.1854 64.6312 96.46 63.4328 96.46C62.1044 96.46 60.9147 96.1225 60.0512 95.5917C59.1824 95.0575 58.6886 94.3604 58.6275 93.6471L58.6019 93.3446L58.309 93.2771C57.182 93.0162 56.1713 92.5737 55.3383 92.0021L54.9142 91.7108L54.7232 92.1917C54.4827 92.7992 53.9167 93.3696 53.0867 93.7921C52.2616 94.2125 51.2059 94.4696 50.0458 94.4696C48.6704 94.4696 47.4444 94.1079 46.5747 93.5446C45.7005 92.9783 45.2344 92.2467 45.2344 91.5025C45.2344 90.8562 45.5842 90.2221 46.2505 89.6933C46.9163 89.1642 47.8713 88.7663 48.9881 88.6088L49.6824 88.5108L49.2604 87.9454C48.9741 87.5617 48.826 87.1488 48.826 86.7258C48.826 85.9817 49.2921 85.25 50.1659 84.6838C51.0355 84.1204 52.2616 83.7583 53.6374 83.7583C54.1284 83.7583 54.6019 83.8046 55.0475 83.8904L55.2146 83.9225L55.3552 83.8263C56.7356 82.8846 58.597 82.2988 60.6576 82.2988C61.6642 82.2988 62.6246 82.4388 63.5054 82.6925L63.8821 82.8008L64.0087 82.4263C64.3618 81.3808 65.2826 80.42 66.6288 79.7146C67.9699 79.0121 69.6989 78.5833 71.5958 78.5833C73.5826 78.5833 75.3841 79.0538 76.7492 79.8158C78.1197 80.5808 79.0099 81.6146 79.2674 82.7246L79.302 82.875L79.4258 82.9663C79.7191 83.1817 79.9819 83.4138 80.2117 83.6588L80.4023 83.8621L80.6609 83.7608C81.7352 83.3388 82.9881 83.095 84.3297 83.095C86.3771 83.095 88.2125 83.6625 89.524 84.5588C90.8383 85.4563 91.59 86.6525 91.59 87.92C91.59 89.1875 90.8383 90.3833 89.524 91.2808C88.2125 92.1771 86.3771 92.7446 84.3297 92.7446C83.5846 92.7446 82.8664 92.6696 82.1906 92.53L81.5508 92.3979L81.7076 93.0383C81.7649 93.2733 81.7946 93.5137 81.7946 93.7583C81.7946 95.0137 81.0017 96.21 79.5953 97.1133C78.1935 98.0129 76.2323 98.5833 74.0446 98.5833C70.9328 98.5833 68.309 97.4337 67.0702 95.8508Z" fill="#2D2D2D" stroke="#0BC91F" stroke-width="2"/>
        <path opacity="0.15" d="M68.1129 94.3397L67.8545 94.0095L67.4843 94.2064C66.8371 94.5507 65.9885 94.7666 65.0471 94.7666C63.9663 94.7666 63.0108 94.4819 62.3409 94.048C61.666 93.6109 61.3355 93.066 61.3355 92.5387C61.3355 92.453 61.3438 92.3684 61.3602 92.2858L61.4918 91.6215L60.8181 91.6914C60.5778 91.7163 60.3323 91.7295 60.0826 91.7295C58.0246 91.7295 56.3033 90.8588 55.4824 89.6743L55.3183 89.4375L55.0312 89.4607C54.9875 89.4643 54.9416 89.4669 54.8919 89.4693L54.7672 89.4753L54.6599 89.5392C54.3227 89.7402 53.8927 89.867 53.4156 89.8717L52.7752 89.8778L52.9366 90.4976C52.9593 90.5849 52.9712 90.6758 52.9712 90.7695C52.9712 91.4879 52.1806 92.2604 50.9407 92.2604C49.7007 92.2604 48.9102 91.4879 48.9102 90.7695C48.9102 90.485 49.0762 90.2316 49.5015 90.0208C49.9324 89.8072 50.5446 89.6906 51.1908 89.6845L51.8309 89.6785L51.6701 89.0589C51.6485 88.9757 51.6025 88.8748 51.5757 88.8163L51.5757 88.8162C51.5568 88.7747 51.533 88.7239 51.5095 88.674C51.4934 88.6397 51.4775 88.6057 51.4635 88.5755C51.4252 88.4928 51.3928 88.4202 51.3706 88.3635C51.366 88.352 51.3624 88.3424 51.3596 88.3345C51.3692 88.1104 51.4482 87.8931 51.592 87.6932L51.6817 87.5685L51.686 87.4149C51.6993 86.9286 51.9835 86.4432 52.5249 86.0616C53.065 85.6808 53.8297 85.4312 54.6952 85.4312C55.1297 85.4312 55.5404 85.4939 55.9105 85.606L56.1545 85.6799L56.3577 85.5257C57.2847 84.8221 58.6024 84.3695 60.0826 84.3695C61.1098 84.3695 62.0611 84.5874 62.8582 84.9579L63.1091 85.0746L63.3412 84.9239C63.8848 84.5711 64.5371 84.2972 65.2627 84.1355L65.5538 84.0706L65.6351 83.7836C65.8655 82.9695 66.5564 82.195 67.6271 81.6154C68.6913 81.0392 70.0871 80.682 71.6288 80.682C73.2496 80.682 74.7083 81.0768 75.79 81.7049C76.8785 82.3368 77.5348 83.171 77.6789 84.0351L77.7251 84.3121L77.9857 84.4168C78.8361 84.7586 79.5361 85.2292 80.0335 85.7726L80.2883 86.0509L80.6258 85.8822C81.3514 85.5196 82.2646 85.2983 83.2649 85.2983C84.5087 85.2983 85.6123 85.6395 86.3907 86.165C87.172 86.6925 87.5809 87.3681 87.5809 88.0495C87.5809 88.731 87.172 89.4064 86.3907 89.9338C85.6124 90.4592 84.5088 90.8004 83.2649 90.8004C82.1135 90.8004 81.0805 90.5077 80.3148 90.046L79.9985 89.8552L79.7232 90.1015C79.5732 90.2357 79.4092 90.3647 79.2329 90.487L78.8033 90.785L79.1201 91.2009C79.491 91.6878 79.6841 92.2133 79.6841 92.7525C79.6841 93.6915 79.0907 94.6109 77.9864 95.32C76.8875 96.0256 75.339 96.4783 73.6028 96.4783C71.1282 96.4783 69.0704 95.5632 68.1129 94.3397Z" fill="url(#paint0_linear)" stroke="#0BC91F"/>
        <path d="M49.0191 36.7663C49.1146 36.5492 49.2664 36.2725 49.4998 35.9961C49.9933 35.4115 50.8867 34.7843 52.5184 34.7834C53.429 34.783 54.0702 34.6952 54.5109 34.5357C54.9557 34.3747 55.2883 34.1011 55.373 33.6886C55.3803 33.6529 55.3854 33.6177 55.3885 33.5831C55.7873 33.6902 56.3093 33.8516 56.9274 34.0899C58.4359 34.6717 60.5174 35.7123 62.7796 37.5444C67.2968 41.203 72.573 48.0498 75.4154 60.8042C76.8465 67.2255 77.8534 72.3858 78.4283 76.5249C79.004 80.6696 79.1421 83.7606 78.8522 86.0547C78.5631 88.3423 77.856 89.7835 76.7872 90.7021C75.7095 91.6285 74.1857 92.092 72.1154 92.2515C69.1563 92.4793 67.1222 92.2557 65.7062 91.6012C64.3253 90.963 63.4759 89.888 62.9416 88.2483C62.3984 86.5813 62.1928 84.3639 62.106 81.4976C62.0615 80.0287 62.0484 78.4262 62.0339 76.6615C62.02 74.9632 62.0049 73.1148 61.9594 71.0908L61.4595 71.1021L61.9594 71.0908C61.6139 55.7441 58.3319 47.1312 55.0808 42.339C53.455 39.9426 51.8414 38.5086 50.6186 37.6702C50.0078 37.2513 49.496 36.9822 49.1311 36.8161C49.092 36.7983 49.0547 36.7817 49.0191 36.7663Z" fill="#021E05" stroke="#0BC91F"/>
        <path d="M48.3906 37.0622L52.5181 34.2834L54.5812 32.894C54.5812 32.894 70.1753 34.9917 75.9034 60.6954C81.632 86.3992 80.6109 92.0987 72.1538 92.75C60.2116 93.6696 61.8271 87.455 61.4595 71.1021C60.7714 40.5357 48.3906 37.0622 48.3906 37.0622Z" fill="#28442B"/>
        <path d="M61.694 86.2975C61.6981 86.3675 61.7019 86.4362 61.7056 86.5037C61.6375 85.9467 61.5764 85.2887 61.5228 84.5275C61.3359 81.87 61.2448 77.995 61.2699 72.8271C61.3273 60.9771 60.4527 54.3892 58.4366 49.5379C56.6763 45.3004 54.0496 42.4112 50.5232 38.532C50.4708 38.4742 50.418 38.4162 50.3652 38.3579C54.1453 41.2512 57.0315 44.9875 58.9345 50.2046C60.9877 55.8325 61.9032 63.2008 61.5352 73.1204C61.3269 78.7412 61.5088 82.8775 61.6519 85.5275C61.6668 85.8008 61.6808 86.0575 61.694 86.2975Z" fill="black" stroke="#0BC91F" stroke-width="2"/>
        <path d="M60.1197 36.0255C60.0046 35.9357 59.8882 35.8454 59.7715 35.7544C64.2533 38.0563 67.9415 41.4042 70.8573 46.4954C73.9617 51.9158 76.1997 59.3292 77.5644 69.5929C77.9959 72.8362 78.4707 75.8208 78.8701 78.3292C79.0487 79.4517 79.2125 80.4787 79.3499 81.3912C79.5735 82.8746 79.7274 84.045 79.7719 84.8408C79.7802 84.9871 79.7843 85.1167 79.7851 85.23C79.7839 85.2262 79.7826 85.2221 79.7814 85.2179C79.6271 84.725 79.472 83.9142 79.2707 82.6546C79.1403 81.8379 78.9914 80.8379 78.8111 79.6292C78.4423 77.1512 77.9423 73.7967 77.2034 69.3442C75.1799 57.1529 73.1217 50.54 70.196 45.9175C67.6407 41.88 64.4315 39.3821 60.1197 36.0255Z" fill="black" stroke="#0BC91F" stroke-width="2"/>
        <path d="M34.4826 1.83009C35.3395 2.10204 38.887 3.2708 42.9752 5.22242C47.0729 7.17842 51.6687 9.90013 54.6588 13.2623C57.1039 16.012 61.2219 21.5114 63.641 24.8806C66.6142 29.022 66.8361 31.7628 65.7866 33.9469C65.2487 35.0668 64.358 36.0826 63.2326 37.0883C62.2157 37.9971 61.0309 38.8779 59.7726 39.8128C59.6377 39.9133 59.5016 40.0145 59.3646 40.1163C57.9583 41.1633 56.6348 42.1483 55.339 42.92C54.0445 43.6908 52.8052 44.2317 51.5754 44.4075C49.1736 44.7508 46.6455 43.7192 43.6901 39.7358C41.2188 36.4054 37.2355 30.8057 35.358 27.6332C33.0624 23.7542 31.8475 18.515 31.2094 13.9831C30.5728 9.46138 30.5166 5.69309 30.5129 4.78592C30.5122 4.62209 30.5015 4.46471 30.4788 4.30071C30.2013 2.30505 32.2284 0.795731 34.0338 1.65366C34.1822 1.72416 34.3279 1.78097 34.4826 1.83009Z" fill="#2D2D2D" stroke="#0BC91F" stroke-width="2" stroke-linecap="round" stroke-linejoin="round"/>
        <path d="M57.288 41.3017L57.7368 40.9671L57.2892 40.6316C55.2401 39.0948 53.033 37.4057 51.2187 35.9358C50.3111 35.2007 49.505 34.523 48.8668 33.9481C48.2207 33.366 47.7719 32.9109 47.557 32.6167C45.9184 30.3719 46.4167 27.1778 48.6898 25.4853C50.9629 23.7928 54.1312 24.2569 55.7694 26.5016C55.9844 26.7958 56.2818 27.3638 56.6415 28.1593C56.9963 28.9448 57.399 29.9231 57.8259 31.0161C58.6795 33.2015 59.6242 35.8303 60.4716 38.262L60.6568 38.7932L61.1056 38.459L63.0339 37.0231C66.1766 34.6832 66.993 30.3303 64.8082 27.1542C61.8742 22.8888 57.8886 17.3583 54.4307 13.4698C51.4716 10.1422 46.9027 7.4353 42.8086 5.4833C38.73 3.53855 35.1967 2.37726 34.3688 2.11486C34.2122 2.06522 34.0625 2.00762 33.9108 1.9368C32.3377 1.20249 30.5595 2.52651 30.7887 4.26147C30.8108 4.4288 30.821 4.59026 30.8217 4.75605C30.825 5.63243 30.8783 9.38488 31.5112 13.8953C32.1466 18.4226 33.3554 23.6313 35.6274 27.4705C38.2824 31.9568 42.3342 37.4379 45.5009 41.5304C47.8585 44.5775 52.217 45.0771 55.3598 42.7375L57.288 41.3017ZM58.2273 41.3329L57.9823 41.1504L57.7377 41.3325L55.5326 42.9746C52.8507 44.9713 49.3243 44.9842 46.7896 43.1942L46.5384 43.0167L46.2975 43.2088C46.045 43.4104 45.8796 43.7346 45.7604 44.075C45.6374 44.4275 45.5438 44.8588 45.4724 45.3396C45.3288 46.3025 45.2653 47.5171 45.2509 48.8104C45.2216 51.4 45.3887 54.3588 45.5314 56.3633C45.5401 56.4804 45.4745 56.5763 45.3589 56.6213C45.2443 56.6658 45.1432 56.6375 45.0792 56.5504L39.4611 48.8533C38.0818 46.9638 37.8241 44.12 38.0634 41.2821C38.301 38.4651 39.0192 35.7548 39.4877 34.2179L39.5474 34.0219L39.43 33.8545C37.9347 31.7223 36.5172 29.5843 35.3632 27.6342C33.0625 23.7466 31.8474 18.4928 31.2104 13.9542C30.5749 9.4258 30.5213 5.65884 30.518 4.77509C30.5174 4.62122 30.508 4.47234 30.4876 4.31801C30.2266 2.34249 32.2621 0.826864 34.0533 1.66299C34.1933 1.7283 34.3313 1.78146 34.4766 1.82752L34.5968 1.44089L34.4766 1.82752C35.3115 2.09213 38.8585 3.25801 42.9534 5.21051C47.0578 7.16739 51.6675 9.89364 54.6638 13.2632C56.1667 14.9534 57.7698 16.9534 59.3441 19.0268L59.4674 19.1896L59.6708 19.1899C61.2628 19.1925 64.0388 19.3012 66.7736 19.9051C69.5281 20.5135 72.1415 21.6034 73.5207 23.4929L79.1386 31.1899C79.2026 31.2773 79.1993 31.3835 79.1234 31.4808C79.0467 31.5791 78.9365 31.6137 78.8284 31.571C76.9745 30.8402 74.2257 29.804 71.7678 29.0662C70.5405 28.6978 69.3726 28.3998 68.4196 28.2535C67.9439 28.1803 67.5079 28.1429 67.1382 28.1574C66.781 28.1715 66.4254 28.2355 66.1601 28.4193L65.9072 28.5947L66.0009 28.8899C66.9439 31.8647 65.8886 35.2634 63.2071 37.2602L61.0021 38.9019L60.757 39.0843L60.8573 39.3744C61.465 41.1358 62.0013 42.7296 62.3866 43.8854C62.4563 44.095 62.2191 44.2717 62.0417 44.1425C61.0623 43.4288 59.7137 42.4404 58.2273 41.3329Z" fill="#2D2D2D" stroke="#0BC91F" stroke-width="2"/>
        <path d="M44.2973 11.6194C45.7787 13.6493 45.3286 16.5387 43.2721 18.0702C41.2153 19.6016 38.3494 19.1811 36.8677 17.1512C35.3861 15.1213 35.8361 12.2319 37.8928 10.7004C39.9496 9.16903 42.8154 9.58953 44.2973 11.6194Z" fill="black" stroke="#0BC91F" stroke-width="2"/>
        <path d="M30.8438 10.4258C33.8927 7.38009 35.7839 5.92197 39.59 3.91355" stroke="#0BC91F" stroke-width="2"/>
        <path d="M43.1602 22.8786C45.4543 21.9291 46.4267 21.1114 47.8594 19.3794" stroke="#0BC91F" stroke-width="2" stroke-linecap="round"/>
        <path d="M1.49046 36.8337C1.49046 37.0225 1.64068 37.167 1.81554 37.167C1.9904 37.167 2.14062 37.0225 2.14062 36.8337C2.14062 36.6449 1.9904 36.5003 1.81554 36.5003C1.64068 36.5003 1.49046 36.6449 1.49046 36.8337Z" fill="#C4C4C4" stroke="#0BC91F"/>
    </g>
    <defs>
        <linearGradient id="paint0_linear" x1="56.5785" y1="98.135" x2="72.0233" y2="70.9622" gradientUnits="userSpaceOnUse">
            <stop stop-color="#3CE700"/>
            <stop offset="0.567708" stop-color="#0BC91E"/>
        </linearGradient>
        <clipPath id="clip0">
            <rect width="100" height="100" fill="white"/>
        </clipPath>
    </defs>
</svg>
