<svg width="100" height="41" viewBox="0 0 100 41" fill="none" xmlns="http://www.w3.org/2000/svg">
<rect width="100" height="40" fill="white"/>
<g clip-path="url(#clip0)">
<path d="M97.6743 14H48.0619C46.7775 14 45.7363 15.0666 45.7363 16.3824V38.6176C45.7363 39.9334 46.7775 41 48.0619 41H97.6743C98.9587 41 99.9999 39.9334 99.9999 38.6176V16.3824C99.9999 15.0666 98.9587 14 97.6743 14Z" fill="#F9D12A"/>
<path fill-rule="evenodd" clip-rule="evenodd" d="M4.65123 33.8529H3.87603V35.4411H1.55045V33.8529H0.583008V20.3592H1.55045V18.7646H3.87603V20.3592H4.65123V18.7646H6.97681V20.4482C7.11479 20.4688 7.25278 20.4926 7.39231 20.5212C7.90294 20.6205 8.39354 20.8074 8.84347 21.0739C9.27758 21.3344 9.63107 21.687 9.90394 22.1317C10.1768 22.5764 10.3132 23.1418 10.3132 23.8279C10.3132 24.5776 10.1148 25.197 9.71789 25.6862C9.32099 26.1754 8.80006 26.5279 8.1551 26.7439V26.7821C8.5272 26.8456 8.87758 26.9631 9.20626 27.1346C9.52725 27.3003 9.81701 27.5229 10.0621 27.7922C10.3039 28.059 10.4962 28.3703 10.6388 28.7261C10.7815 29.0818 10.8528 29.4821 10.8528 29.9268C10.8528 30.6637 10.7101 31.2831 10.4249 31.785C10.1487 32.2773 9.75903 32.6928 9.28999 32.9952C8.7955 33.3097 8.25071 33.5323 7.68068 33.6528C7.44812 33.7044 7.21402 33.7457 6.97681 33.7774V35.4411H4.65123V33.8529ZM7.24347 24.2663C7.24347 23.8089 7.07293 23.4754 6.73185 23.2657C6.39076 23.0561 5.88533 22.9512 5.21557 22.9512H3.65278V25.7338H5.3644C5.95975 25.7338 6.42177 25.6099 6.75045 25.3622C7.07913 25.1144 7.24347 24.7491 7.24347 24.2663ZM7.67138 29.6218C7.67138 29.0628 7.46673 28.6752 7.05743 28.4592C6.64812 28.2432 6.10239 28.1352 5.42022 28.1352H3.65278V31.2228H5.43882C5.68688 31.2228 5.94425 31.2005 6.21092 31.1561C6.47758 31.1116 6.71944 31.0322 6.9365 30.9178C7.15355 30.8035 7.3303 30.6415 7.46673 30.4318C7.60316 30.2222 7.67138 29.9522 7.67138 29.6218V29.6218ZM12.9551 33.8529V20.3592H21.8109V23.1228H16.0249V25.6576H21.4946V28.2686H16.0249V31.0703H22.1458V33.8529H12.9551ZM31.2063 23.8661C30.9207 23.5001 30.5539 23.2094 30.1365 23.0179C29.6962 22.8083 29.2714 22.7035 28.8621 22.7035C28.6512 22.7035 28.4373 22.7225 28.2202 22.7606C28.0032 22.7988 27.8078 22.8718 27.6342 22.9798C27.4615 23.0869 27.3126 23.2297 27.197 23.3991C27.0791 23.5706 27.0202 23.7898 27.0202 24.0566C27.0202 24.2854 27.0667 24.4759 27.1598 24.6284C27.2528 24.7809 27.3892 24.9143 27.5691 25.0286C27.7489 25.143 27.9629 25.2478 28.2109 25.3431C28.459 25.4384 28.7381 25.5369 29.0481 25.6385C29.4946 25.791 29.9598 25.9594 30.4435 26.1436C30.9272 26.3278 31.3675 26.5724 31.7644 26.8774C32.1613 27.1823 32.49 27.5603 32.7505 28.0114C33.0109 28.4624 33.1412 29.0246 33.1412 29.6981C33.1412 30.4731 33.0016 31.1434 32.7225 31.7088C32.4567 32.2577 32.0717 32.7369 31.597 33.1096C31.1126 33.4847 30.5634 33.7628 29.9784 33.9291C29.3672 34.1075 28.7347 34.1973 28.0993 34.1959C27.1654 34.1975 26.2389 34.0265 25.3644 33.6909C24.4838 33.3542 23.752 32.8745 23.1691 32.2519L25.2528 30.0792C25.5753 30.4858 26.0001 30.8257 26.5272 31.0989C27.0543 31.3721 27.5784 31.5086 28.0993 31.5086C28.335 31.5086 28.5644 31.4832 28.7877 31.4324C29.0109 31.3816 29.2063 31.299 29.3737 31.1846C29.5411 31.0703 29.6745 30.9178 29.7737 30.7272C29.8729 30.5366 29.9225 30.3079 29.9225 30.0411C29.9225 29.787 29.8605 29.571 29.7365 29.3931C29.5927 29.1969 29.4125 29.0317 29.2063 28.9071C28.9363 28.7418 28.6492 28.6076 28.3505 28.5069C28.0094 28.3862 27.6218 28.2559 27.1877 28.1162C26.766 27.9764 26.3528 27.811 25.9505 27.6206C25.5554 27.4356 25.1913 27.1879 24.8714 26.8869C24.5494 26.5801 24.2901 26.2109 24.1086 25.8005C23.9163 25.3749 23.8202 24.8571 23.8202 24.2472C23.8202 23.4976 23.9691 22.8559 24.2667 22.3223C24.5554 21.7988 24.9561 21.3492 25.4388 21.0072C25.9362 20.6579 26.4907 20.4029 27.076 20.2544C27.6838 20.0956 28.2977 20.0162 28.9179 20.0162C29.6621 20.0162 30.4218 20.1559 31.197 20.4355C31.9512 20.7022 32.6444 21.1238 33.2342 21.6743L31.2063 23.8661V23.8661ZM40.6388 23.1418V33.8529H37.4574V23.1418H33.7365V20.3592H44.3598V23.1418H40.6388V23.1418Z" fill="#F9D12A"/>
<path fill-rule="evenodd" clip-rule="evenodd" d="M61.9768 33.7973L67.4792 20.3593H70.5675L76.0373 33.8529H72.5024L71.4792 31.2037H66.3815L65.414 33.8529H58.2885L55.442 28.4974H54.3629V33.8529H51.2373V20.3593H56.2606C56.8931 20.3593 57.5102 20.426 58.1117 20.5594C58.6871 20.6818 59.2356 20.9111 59.7303 21.236C60.2078 21.5536 60.5892 21.9729 60.8745 22.4938C61.1598 23.0148 61.3024 23.6628 61.3024 24.4378C61.3024 25.3527 61.0606 26.1214 60.5768 26.744C60.0931 27.3665 59.4234 27.8113 58.5675 28.0781L61.9761 33.7973H61.9768ZM58.1582 24.495C58.1582 24.1774 58.0931 23.9201 57.9629 23.7231C57.8362 23.5294 57.6633 23.3719 57.4606 23.2657C57.2445 23.1541 57.0119 23.08 56.7722 23.0465C56.5289 23.0093 56.2833 22.9902 56.0373 22.9894H54.3443V26.1341H55.8513C56.1117 26.1341 56.3784 26.1118 56.6513 26.0674C56.9241 26.0229 57.1722 25.9435 57.3954 25.8291C57.6187 25.7148 57.8016 25.5496 57.9443 25.3336C58.0869 25.1176 58.1582 24.8381 58.1582 24.495V24.495ZM68.9675 23.9614L67.2931 28.5927H70.6047L68.9675 23.9614V23.9614ZM81.6559 23.1418V33.8529H78.4745V23.1418H74.7536V20.3593H85.3768V23.1418H81.6559ZM86.828 33.8529V20.3593H95.6838V23.1228H89.8978V25.6576H95.3675V28.2687H89.8978V31.0703H96.0187V33.8529H86.828Z" fill="#101934"/>
</g>
<defs>
<clipPath id="clip0">
<rect width="100" height="27" fill="white" transform="translate(0 14)"/>
</clipPath>
</defs>
</svg>
