<svg width="100" height="40" viewBox="0 0 100 40" fill="none" xmlns="http://www.w3.org/2000/svg">
<rect width="100" height="40" fill="white"/>
<path d="M18.6551 22.9436C19.0794 23.0227 19.4282 23.2348 19.7014 23.58C19.9747 23.9252 20.1114 24.3207 20.1114 24.7666C20.1114 25.1693 20.0107 25.5253 19.8093 25.8346C19.6151 26.1366 19.3311 26.3739 18.9571 26.5465C18.5832 26.7191 18.1409 26.8054 17.6303 26.8054H14.3833V19.2759H17.49C18.0006 19.2759 18.4393 19.3586 18.8061 19.524C19.1801 19.6894 19.4605 19.9195 19.6475 20.2144C19.8417 20.5092 19.9388 20.8436 19.9388 21.2176C19.9388 21.6563 19.8201 22.023 19.5828 22.3179C19.3526 22.6127 19.0434 22.8213 18.6551 22.9436ZM15.8935 22.3826H17.2743C17.6339 22.3826 17.9107 22.3035 18.1049 22.1453C18.2991 21.9799 18.3962 21.7462 18.3962 21.4441C18.3962 21.1421 18.2991 20.9084 18.1049 20.743C17.9107 20.5775 17.6339 20.4948 17.2743 20.4948H15.8935V22.3826ZM17.4145 25.5757C17.7813 25.5757 18.0654 25.4894 18.2667 25.3168C18.4753 25.1442 18.5796 24.8997 18.5796 24.5832C18.5796 24.2596 18.4717 24.0079 18.2559 23.8281C18.0402 23.6411 17.7489 23.5476 17.3822 23.5476H15.8935V25.5757H17.4145Z" fill="#3C3C46"/>
<path d="M26.8704 23.6879C26.8704 23.9036 26.8561 24.0978 26.8273 24.2704H22.4584C22.4944 24.7019 22.6454 25.0399 22.9115 25.2844C23.1776 25.5289 23.5048 25.6512 23.8931 25.6512C24.4541 25.6512 24.8532 25.4103 25.0905 24.9284H26.7194C26.5468 25.5037 26.216 25.9784 25.727 26.3523C25.238 26.7191 24.6375 26.9025 23.9255 26.9025C23.3502 26.9025 22.8324 26.7766 22.3721 26.5249C21.9191 26.266 21.5631 25.9029 21.3042 25.4354C21.0525 24.968 20.9266 24.4286 20.9266 23.8173C20.9266 23.1989 21.0525 22.6559 21.3042 22.1884C21.5559 21.721 21.9083 21.3614 22.3613 21.1097C22.8144 20.858 23.3358 20.7322 23.9255 20.7322C24.4936 20.7322 25.0006 20.8544 25.4465 21.0989C25.8996 21.3434 26.2484 21.6922 26.4929 22.1453C26.7446 22.5912 26.8704 23.1054 26.8704 23.6879ZM25.3063 23.2564C25.2991 22.868 25.1589 22.5588 24.8856 22.3287C24.6123 22.0914 24.2779 21.9727 23.8824 21.9727C23.5084 21.9727 23.192 22.0878 22.9331 22.3179C22.6814 22.5408 22.5268 22.8537 22.4692 23.2564H25.3063Z" fill="#3C3C46"/>
<path d="M29.7311 22.0698V24.9608C29.7311 25.1621 29.7778 25.3096 29.8713 25.4031C29.972 25.4894 30.1374 25.5325 30.3675 25.5325H31.0687V26.8054H30.1194C28.8465 26.8054 28.2101 26.1869 28.2101 24.95V22.0698H27.4981V20.8292H28.2101V19.3514H29.7311V20.8292H31.0687V22.0698H29.7311Z" fill="#3C3C46"/>
<path d="M33.9133 22.0698V24.9608C33.9133 25.1621 33.96 25.3096 34.0535 25.4031C34.1542 25.4894 34.3196 25.5325 34.5497 25.5325H35.2509V26.8054H34.3016C33.0287 26.8054 32.3923 26.1869 32.3923 24.95V22.0698H31.6803V20.8292H32.3923V19.3514H33.9133V20.8292H35.2509V22.0698H33.9133Z" fill="#3C3C46"/>
<path d="M41.8926 23.6879C41.8926 23.9036 41.8782 24.0978 41.8494 24.2704H37.4806C37.5165 24.7019 37.6676 25.0399 37.9337 25.2844C38.1997 25.5289 38.527 25.6512 38.9153 25.6512C39.4762 25.6512 39.8754 25.4103 40.1127 24.9284H41.7416C41.569 25.5037 41.2382 25.9784 40.7491 26.3523C40.2601 26.7191 39.6596 26.9025 38.9477 26.9025C38.3723 26.9025 37.8545 26.7766 37.3943 26.5249C36.9412 26.266 36.5852 25.9029 36.3263 25.4354C36.0746 24.968 35.9488 24.4286 35.9488 23.8173C35.9488 23.1989 36.0746 22.6559 36.3263 22.1884C36.578 21.721 36.9304 21.3614 37.3835 21.1097C37.8366 20.858 38.358 20.7322 38.9477 20.7322C39.5158 20.7322 40.0228 20.8544 40.4687 21.0989C40.9217 21.3434 41.2705 21.6922 41.515 22.1453C41.7667 22.5912 41.8926 23.1054 41.8926 23.6879ZM40.3284 23.2564C40.3212 22.868 40.181 22.5588 39.9077 22.3287C39.6345 22.0914 39.3 21.9727 38.9045 21.9727C38.5306 21.9727 38.2141 22.0878 37.9552 22.3179C37.7035 22.5408 37.5489 22.8537 37.4914 23.2564H40.3284Z" fill="#3C3C46"/>
<path d="M46.2958 26.8054L45.0661 24.95L43.9766 26.8054H42.3585L44.311 23.8065L42.3369 20.8292H44.0413L45.2603 22.6739L46.3606 20.8292H47.9787L46.0154 23.8065L48.0002 26.8054H46.2958Z" fill="#3C3C46"/>
<path d="M15.1348 30.9051C15.2623 30.7294 15.4359 30.5865 15.6556 30.4767C15.8797 30.3624 16.128 30.3053 16.4005 30.3053C16.7213 30.3053 17.0114 30.3822 17.2707 30.536C17.53 30.6898 17.7344 30.9095 17.8838 31.1952C18.0332 31.4765 18.1079 31.7995 18.1079 32.1643C18.1079 32.529 18.0332 32.8565 17.8838 33.1465C17.7344 33.4322 17.5278 33.6563 17.2641 33.8189C17.0048 33.9771 16.717 34.0562 16.4005 34.0562C16.1193 34.0562 15.8688 34.0013 15.649 33.8914C15.4337 33.7816 15.2623 33.6409 15.1348 33.4695V33.9969H14.3833V29.1187H15.1348V30.9051ZM17.3432 32.1643C17.3432 31.9138 17.2905 31.6984 17.185 31.5182C17.0839 31.3336 16.9477 31.1952 16.7763 31.1029C16.6093 31.0062 16.4291 30.9579 16.2357 30.9579C16.0467 30.9579 15.8666 31.0062 15.6952 31.1029C15.5282 31.1996 15.3919 31.3402 15.2864 31.5248C15.1854 31.7094 15.1348 31.9269 15.1348 32.1775C15.1348 32.428 15.1854 32.6477 15.2864 32.8367C15.3919 33.0213 15.5282 33.1619 15.6952 33.2586C15.8666 33.3553 16.0467 33.4036 16.2357 33.4036C16.4291 33.4036 16.6093 33.3553 16.7763 33.2586C16.9477 33.1575 17.0839 33.0125 17.185 32.8235C17.2905 32.6345 17.3432 32.4148 17.3432 32.1643Z" fill="#3C3C46"/>
<path d="M22.1802 32.0918C22.1802 32.228 22.1714 32.351 22.1538 32.4609H19.3785C19.4004 32.751 19.5081 32.9839 19.7015 33.1597C19.8949 33.3355 20.1322 33.4234 20.4134 33.4234C20.8178 33.4234 21.1034 33.2542 21.2704 32.9158H22.0813C21.9714 33.2498 21.7714 33.5245 21.4814 33.7398C21.1957 33.9508 20.8397 34.0562 20.4134 34.0562C20.0663 34.0562 19.7542 33.9793 19.4773 33.8255C19.2049 33.6673 18.9895 33.4476 18.8313 33.1663C18.6775 32.8806 18.6006 32.551 18.6006 32.1775C18.6006 31.8039 18.6753 31.4765 18.8247 31.1952C18.9785 30.9095 19.1917 30.6898 19.4642 30.536C19.741 30.3822 20.0575 30.3053 20.4134 30.3053C20.7562 30.3053 21.0617 30.38 21.3298 30.5294C21.5979 30.6788 21.8066 30.8898 21.956 31.1622C22.1055 31.4303 22.1802 31.7402 22.1802 32.0918ZM21.3957 31.8544C21.3913 31.5776 21.2924 31.3556 21.099 31.1886C20.9057 31.0216 20.6661 30.9381 20.3805 30.9381C20.1212 30.9381 19.8993 31.0216 19.7147 31.1886C19.5301 31.3512 19.4202 31.5732 19.3851 31.8544H21.3957Z" fill="#3C3C46"/>
<path d="M23.7965 30.9777V32.9883C23.7965 33.1245 23.8273 33.2234 23.8888 33.2849C23.9547 33.3421 24.0646 33.3706 24.2184 33.3706H24.6799V33.9969H24.0866C23.7482 33.9969 23.4889 33.9178 23.3087 33.7596C23.1285 33.6014 23.0384 33.3443 23.0384 32.9883V30.9777H22.6099V30.3646H23.0384V29.4614H23.7965V30.3646H24.6799V30.9777H23.7965Z" fill="#3C3C46"/>
<path d="M25.122 32.1643C25.122 31.7995 25.1967 31.4765 25.3461 31.1952C25.5 30.9139 25.7065 30.6964 25.9658 30.5426C26.2295 30.3844 26.5196 30.3053 26.836 30.3053C27.1216 30.3053 27.37 30.3624 27.5809 30.4767C27.7963 30.5865 27.9677 30.725 28.0951 30.892V30.3646H28.8532V33.9969H28.0951V33.4563C27.9677 33.6277 27.7941 33.7706 27.5743 33.8848C27.3546 33.9991 27.1041 34.0562 26.8228 34.0562C26.5108 34.0562 26.2251 33.9771 25.9658 33.8189C25.7065 33.6563 25.5 33.4322 25.3461 33.1465C25.1967 32.8565 25.122 32.529 25.122 32.1643ZM28.0951 32.1775C28.0951 31.9269 28.0424 31.7094 27.9369 31.5248C27.8358 31.3402 27.7018 31.1996 27.5348 31.1029C27.3678 31.0062 27.1876 30.9579 26.9942 30.9579C26.8008 30.9579 26.6206 31.0062 26.4536 31.1029C26.2866 31.1952 26.1504 31.3336 26.0449 31.5182C25.9438 31.6984 25.8933 31.9138 25.8933 32.1643C25.8933 32.4148 25.9438 32.6345 26.0449 32.8235C26.1504 33.0125 26.2866 33.1575 26.4536 33.2586C26.625 33.3553 26.8052 33.4036 26.9942 33.4036C27.1876 33.4036 27.3678 33.3553 27.5348 33.2586C27.7018 33.1619 27.8358 33.0213 27.9369 32.8367C28.0424 32.6477 28.0951 32.428 28.0951 32.1775Z" fill="#3C3C46"/>
<path d="M6.89188 19.0142L0 24.8458V21.8908L3.59576 19.0142L0 16.1376V13.1826L6.89188 19.0142Z" fill="#4D7E64"/>
<path d="M6.89188 33.5356L0 39.3672V36.4122L3.59576 33.5356L0 30.659V27.704L6.89188 33.5356Z" fill="#4D7E64"/>
<path d="M8.98954 20.5129L2.09766 26.3445L8.98954 32.1761L8.98954 29.2211L5.39377 26.3445L8.98954 23.4679L8.98954 20.5129Z" fill="#CE0B24"/>
</svg>
