<svg width="100" height="40" viewBox="0 0 100 40" fill="none" xmlns="http://www.w3.org/2000/svg">
<rect width="100" height="40" fill="white"/>
<path fill-rule="evenodd" clip-rule="evenodd" d="M85.6891 8.20972H85.2996V5.69001H86.6142C87.0174 5.69001 87.3446 6.01543 87.3446 6.41685C87.3446 6.81827 87.0174 7.14369 86.6142 7.14369H86.5655L87.3446 8.30663H86.8577L86.1562 7.14369H85.6891V8.20972ZM86.5655 6.85295C86.7808 6.85295 86.9551 6.6794 86.9551 6.46531V6.3684C86.9551 6.15431 86.7808 5.98075 86.5655 5.98075H85.6891V6.85295H86.5655Z" fill="#F4431C"/>
<path fill-rule="evenodd" clip-rule="evenodd" d="M89 6.94987C89 8.39499 87.8231 9.56648 86.3708 9.56648C84.9185 9.56648 83.7416 8.39499 83.7416 6.94987C83.7416 5.50474 84.9185 4.33325 86.3708 4.33325C87.8231 4.33325 89 5.50474 89 6.94987ZM88.4157 6.94987C88.4157 8.07385 87.5005 8.98501 86.3708 8.98501C85.241 8.98501 84.3258 8.07385 84.3258 6.94987C84.3258 5.82588 85.241 4.91472 86.3708 4.91472C87.5005 4.91472 88.4157 5.82588 88.4157 6.94987Z" fill="#F4431C"/>
<path fill-rule="evenodd" clip-rule="evenodd" d="M61.5393 34.6666H68.7453L69.8469 29.7241H80.2223L81.3071 34.6666H88.5131L81.867 8.71085C81.2508 6.30658 79.0758 4.62399 76.5827 4.62399H73.386C70.8869 4.62399 68.7073 6.31475 68.0979 8.7268L61.5393 34.6666ZM78.9038 23.7156L76.2077 11.4326C75.9407 10.215 74.1962 10.2121 73.9254 11.4289L71.1866 23.7156H78.9038Z" fill="#F4431C"/>
<path d="M28.5281 28.5612V34.6666H11V5.01163H17.9139V28.5612H28.5281Z" fill="#F4431C"/>
<path d="M38.6554 34.6666V5.01163H31.6442V34.6666H38.6554Z" fill="#F4431C"/>
<path d="M41.9663 13.9275C41.9663 9.00341 45.9771 5.01163 50.9251 5.01163H65.4345L63.9738 11.1171H51.8989C50.3933 11.1171 49.1723 12.3319 49.1723 13.8306V25.8476C49.1723 27.3463 50.3933 28.5612 51.8989 28.5612H54.1386L55.4045 23.231H53.3596V17.1256H62.5131L58.1311 34.6666H50.9251C45.9771 34.6666 41.9663 30.6748 41.9663 25.7507V13.9275Z" fill="#F4431C"/>
</svg>
