<svg width="100" height="40" viewBox="0 0 100 40" fill="none" xmlns="http://www.w3.org/2000/svg">
<rect width="100" height="40" fill="white"/>
<path d="M7.98918 33.8508L7.97663 28.6298L5.39301 32.9309H4.47745L1.90637 28.7417V33.8508H0V25.1492H1.68061L4.96658 30.5566L8.20239 25.1492H9.87046L9.89554 33.8508H7.98918Z" fill="black"/>
<path d="M17.7603 31.9862H13.6842L12.9066 33.8508H10.8246L14.7377 25.1492H16.7444L20.67 33.8508H18.5379L17.7603 31.9862ZM17.1206 30.4572L15.7285 27.1257L14.3363 30.4572H17.1206Z" fill="black"/>
<path d="M21.5808 25.1492H25.5692C26.5223 25.1492 27.3627 25.3315 28.0901 25.6961C28.8259 26.0525 29.3944 26.558 29.7958 27.2127C30.2055 27.8674 30.4103 28.6298 30.4103 29.5C30.4103 30.3702 30.2055 31.1326 29.7958 31.7873C29.3944 32.442 28.8259 32.9517 28.0901 33.3163C27.3627 33.6727 26.5223 33.8508 25.5692 33.8508H21.5808V25.1492ZM25.4688 32.1975C26.3468 32.1975 27.0449 31.9572 27.5633 31.4765C28.0901 30.9876 28.3535 30.3287 28.3535 29.5C28.3535 28.6713 28.0901 28.0166 27.5633 27.5359C27.0449 27.047 26.3468 26.8025 25.4688 26.8025H23.6126V32.1975H25.4688Z" fill="black"/>
<path d="M37.6019 31.9862H33.5258L32.7482 33.8508H30.6663L34.5793 25.1492H36.586L40.5116 33.8508H38.3795L37.6019 31.9862ZM36.9623 30.4572L35.5701 27.1257L34.178 30.4572H36.9623Z" fill="black"/>
<path d="M49.4117 33.8508L49.3991 28.6298L46.8155 32.9309H45.8999L43.3289 28.7417V33.8508H41.4225V25.1492H43.1031L46.3891 30.5566L49.6249 25.1492H51.2929L51.318 33.8508H49.4117Z" fill="black"/>
<path d="M59.1828 31.9862H55.1067L54.3291 33.8508H52.2471L56.1602 25.1492H58.1669L62.0925 33.8508H59.9604L59.1828 31.9862ZM58.5431 30.4572L57.151 27.1257L55.7588 30.4572H58.5431Z" fill="black"/>
<path d="M66.5552 25.1492H68.587V32.2099H72.9892V33.8508H66.5552V25.1492Z" fill="black"/>
<path d="M79.9797 31.9862H75.9036L75.126 33.8508H73.0441L76.9571 25.1492H78.9638L82.8895 33.8508H80.7573L79.9797 31.9862ZM79.3401 30.4572L77.948 27.1257L76.5558 30.4572H79.3401Z" fill="black"/>
<path d="M90.2468 29.326C90.7485 29.4834 91.1415 29.7486 91.4258 30.1215C91.7101 30.4862 91.8522 30.9378 91.8522 31.4765C91.8522 32.2389 91.5512 32.8273 90.9492 33.2417C90.3555 33.6478 89.486 33.8508 88.3405 33.8508H83.8003V25.1492H88.0896C89.1599 25.1492 89.9793 25.3522 90.5478 25.7583C91.1248 26.1644 91.4132 26.7155 91.4132 27.4116C91.4132 27.8343 91.3087 28.2113 91.0997 28.5428C90.899 28.8743 90.6147 29.1354 90.2468 29.326ZM85.8195 26.6657V28.7169H87.8388C88.3405 28.7169 88.7209 28.6298 88.9801 28.4558C89.2393 28.2818 89.3689 28.0249 89.3689 27.6851C89.3689 27.3453 89.2393 27.0925 88.9801 26.9268C88.7209 26.7528 88.3405 26.6657 87.8388 26.6657H85.8195ZM88.19 32.3343C88.7251 32.3343 89.1264 32.2472 89.394 32.0732C89.6699 31.8992 89.8079 31.6298 89.8079 31.2652C89.8079 30.5442 89.2686 30.1837 88.19 30.1837H85.8195V32.3343H88.19Z" fill="black"/>
<path d="M96.2751 34C95.5811 34 94.908 33.9088 94.2558 33.7265C93.612 33.5359 93.0936 33.2914 92.7006 32.9931L93.3904 31.4765C93.7667 31.75 94.214 31.9696 94.7324 32.1354C95.2508 32.3011 95.7692 32.384 96.2876 32.384C96.8645 32.384 97.291 32.3011 97.5669 32.1354C97.8428 31.9613 97.9808 31.7334 97.9808 31.4517C97.9808 31.2445 97.8971 31.0746 97.7299 30.942C97.5711 30.8011 97.362 30.6892 97.1028 30.6064C96.852 30.5235 96.5092 30.4323 96.0744 30.3329C95.4055 30.1754 94.8578 30.018 94.4314 29.8605C94.005 29.703 93.6371 29.4503 93.3277 29.1022C93.0267 28.7541 92.8762 28.2901 92.8762 27.7099C92.8762 27.2044 93.0142 26.7486 93.2901 26.3425C93.566 25.9282 93.9799 25.6008 94.5317 25.3605C95.092 25.1202 95.7734 25 96.5761 25C97.1363 25 97.6839 25.0663 98.2191 25.1989C98.7542 25.3315 99.2224 25.5221 99.6237 25.7707L98.9967 27.2997C98.1856 26.8439 97.3746 26.616 96.5635 26.616C95.995 26.616 95.5727 26.7072 95.2968 26.8895C95.0292 27.0718 94.8955 27.3122 94.8955 27.6105C94.8955 27.9088 95.0501 28.1326 95.3595 28.2818C95.6772 28.4227 96.158 28.5635 96.8018 28.7044C97.4707 28.8619 98.0184 29.0193 98.4448 29.1768C98.8712 29.3343 99.2349 29.5829 99.536 29.9227C99.8453 30.2624 100 30.7224 100 31.3025C100 31.7997 99.8579 32.2555 99.5736 32.6699C99.2977 33.076 98.8796 33.3992 98.3194 33.6395C97.7592 33.8798 97.0777 34 96.2751 34Z" fill="black"/>
</svg>
