<svg width="100" height="40" viewBox="0 0 100 40" fill="none" xmlns="http://www.w3.org/2000/svg">
<rect width="100" height="40" fill="white"/>
<path fill-rule="evenodd" clip-rule="evenodd" d="M16.7453 32.9222C15.721 32.9222 14.8909 32.0557 14.8909 30.987V26.5175V26.2073C14.8909 25.1384 14.0606 24.2721 13.0365 24.2721C12.0123 24.2721 11.3639 25.1385 11.3639 26.2073V26.6046V30.9869C11.3639 32.0556 10.3517 32.922 9.3276 32.922C8.30339 32.922 7.47321 32.0556 7.47321 30.9869V29.8958V26.5498C7.4549 26.5391 7.43622 26.5295 7.4179 26.5191V26.2073C7.4179 25.1384 6.75366 24.2721 5.72958 24.2721C4.70538 24.2721 3.8752 25.1385 3.8752 26.2073V26.6032C3.8752 26.6032 3.93051 31.1285 4.15201 32.401C4.37338 33.6735 5.09306 34.4574 6.03411 35.4985C6.97516 36.5397 5.53593 38.9369 3.65382 37.6066C1.77172 36.2762 0.816443 34.587 0.498552 32.401C0.174599 30.1753 0 26.2494 0 26.2494C0 26.2494 0.0738734 24.8427 0.247482 24.528C0.94897 22.1533 3.06346 20.428 5.5634 20.428C7.00164 20.428 8.31243 20.9992 9.29988 21.9365C10.2873 20.9992 11.5981 20.428 13.0365 20.428C15.5363 20.428 17.6508 22.1533 18.3523 24.528C18.5259 24.8427 18.5998 26.2494 18.5998 26.2494V29.8959V30.987C18.5998 32.0557 17.7695 32.9222 16.7453 32.9222Z" fill="#4D525D"/>
<path fill-rule="evenodd" clip-rule="evenodd" d="M5.7195 24.1563C6.7437 24.1563 7.57388 25.0227 7.57388 26.0914V30.561V30.8712C7.57388 31.9401 8.40418 32.8065 9.42826 32.8065C10.4525 32.8065 11.2828 31.9401 11.2828 30.8712V30.4739V26.0914C11.2828 25.0227 12.1129 24.1563 13.1372 24.1563C14.1614 24.1563 14.9917 25.0227 14.9917 26.0914V27.1826V30.5286C15.01 30.5392 15.0287 30.5488 15.047 30.5593V30.8712C15.047 31.9401 15.7112 32.8065 16.7353 32.8065C17.7595 32.8065 18.5897 31.9401 18.5897 30.8712V30.4753C18.5897 30.4753 18.5344 25.9499 18.3129 24.6775C18.0914 23.4051 17.3718 22.6211 16.4308 21.5799C15.4897 20.5388 16.9289 18.1416 18.811 19.4719C20.6931 20.8023 21.6484 22.4915 21.9663 24.6775C22.29 26.9032 22.4645 30.8291 22.4645 30.8291C22.4645 30.8291 22.3906 32.2358 22.217 32.5504C21.5155 34.9251 19.401 36.6505 16.9011 36.6505C15.4629 36.6505 14.1521 36.0793 13.1646 35.1419C12.1772 36.0793 10.8664 36.6505 9.42802 36.6505C6.9282 36.6505 4.81372 34.9251 4.11223 32.5504C3.93862 32.2358 3.86475 30.8291 3.86475 30.8291V27.1826V26.0914C3.86512 25.0227 4.6953 24.1563 5.7195 24.1563Z" fill="#FCD600"/>
<path d="M36.9251 23.1151C36.7013 22.9585 36.3993 22.8801 36.0191 22.8801H35.4016C35.0301 22.8801 34.7606 22.9152 34.5928 22.9853C34.4251 23.0554 34.3009 23.1817 34.2204 23.3641C34.1398 23.5464 34.0481 23.8435 33.9452 24.255L32.5156 29.8881L31.086 24.255C30.9831 23.8435 30.8914 23.5465 30.8108 23.3641C30.7303 23.1817 30.6062 23.0554 30.4384 22.9853C30.2706 22.9152 30.0009 22.8801 29.6296 22.8801H29.0121C28.6317 22.8801 28.3297 22.9585 28.1061 23.1151C27.8824 23.2718 27.7705 23.5747 27.7705 24.0235V32.161C27.7705 32.5585 27.8554 32.8544 28.0255 33.0484C28.1956 33.2424 28.4148 33.3396 28.6832 33.3396C28.9606 33.3396 29.1833 33.2413 29.3511 33.045C29.5188 32.8486 29.6027 32.554 29.6027 32.1611V25.0618L31.1799 31.6138C31.2336 31.829 31.2861 32.0359 31.3377 32.2347C31.3891 32.4335 31.4596 32.6147 31.5491 32.7783C31.6385 32.9421 31.7639 33.0765 31.9249 33.1817C32.086 33.287 32.2828 33.3396 32.5155 33.3396C32.8242 33.3396 33.0659 33.2577 33.2404 33.094C33.4148 32.9303 33.5345 32.7492 33.5995 32.5504C33.6643 32.3516 33.7482 32.0395 33.8511 31.6138L35.4283 25.0618V32.1611C35.4283 32.5539 35.5134 32.8486 35.6834 33.045C35.8534 33.2415 36.0703 33.3396 36.3344 33.3396C36.6163 33.3396 36.8411 33.2413 37.0089 33.045C37.1767 32.8486 37.2606 32.554 37.2606 32.1611V24.0235C37.2606 23.5745 37.1487 23.2718 36.9251 23.1151ZM45.6433 22.7047C45.4822 22.7047 45.3457 22.7352 45.2338 22.796C45.122 22.8567 45.0201 22.9445 44.9284 23.059C44.8366 23.1737 44.7528 23.2964 44.6767 23.4273C44.6006 23.5583 44.5066 23.7197 44.3949 23.9113L42.5358 27.033L40.697 23.9113C40.4151 23.4296 40.2036 23.1081 40.0627 22.9468C39.9218 22.7855 39.7147 22.7047 39.4419 22.7047C39.1824 22.7047 38.9642 22.7913 38.7875 22.9643C38.6107 23.1374 38.5225 23.3431 38.5225 23.5816C38.5225 23.7267 38.5662 23.8973 38.6534 24.0938C38.7406 24.2902 38.8894 24.5638 39.0997 24.9146L41.5024 28.808V32.07C41.5024 32.5004 41.5941 32.8195 41.7776 33.0275C41.961 33.2355 42.2004 33.3397 42.4957 33.3397C42.7865 33.3397 43.0259 33.2345 43.2139 33.024C43.4018 32.8136 43.4958 32.4956 43.4958 32.07V28.8078L45.959 24.8584C46.1647 24.5357 46.3101 24.2831 46.3953 24.1008C46.4801 23.9185 46.5228 23.736 46.5228 23.5537C46.5228 23.3292 46.4389 23.1317 46.2712 22.9609C46.1031 22.7901 45.8939 22.7047 45.6433 22.7047ZM61.9725 22.7047C61.7129 22.7047 61.5149 22.7748 61.3786 22.9152C61.2421 23.0555 61.1458 23.2145 61.09 23.3922C61.0339 23.57 60.9748 23.8154 60.9122 24.1288L59.6234 30.1337L58.167 24.5147C58.0462 24.0517 57.9499 23.7197 57.8784 23.5185C57.8068 23.3175 57.6781 23.1316 57.4925 22.9609C57.3067 22.7902 57.0461 22.7048 56.7106 22.7048C56.3794 22.7048 56.1176 22.7867 55.9253 22.9504C55.7329 23.1142 55.5942 23.3082 55.5092 23.5327C55.4241 23.7571 55.3279 24.0846 55.2206 24.5148L53.7778 30.1337L52.4891 24.1288C52.3952 23.6658 52.2855 23.3128 52.1602 23.0695C52.0349 22.8264 51.7911 22.7047 51.4287 22.7047C51.1646 22.7047 50.9431 22.796 50.7642 22.9783C50.5851 23.1606 50.4957 23.3852 50.4957 23.6518C50.4957 23.8622 50.5448 24.1686 50.6433 24.5707L52.2809 31.4945C52.3301 31.7004 52.3859 31.9236 52.4487 32.1645C52.5113 32.4054 52.5918 32.6134 52.6903 32.7888C52.7887 32.9642 52.9174 33.1 53.0763 33.1957C53.235 33.2915 53.4375 33.3396 53.6837 33.3396C53.9879 33.3396 54.2318 33.259 54.4153 33.0976C54.5987 32.9363 54.7274 32.7538 54.8012 32.5505C54.8751 32.3471 54.9746 32.0115 55.0999 31.5439L56.7107 25.3776L58.3013 31.5439C58.4309 32.0255 58.5317 32.3658 58.6033 32.5645C58.6748 32.7633 58.8024 32.9423 58.9859 33.1011C59.1693 33.2601 59.4132 33.3397 59.7175 33.3397C60.0396 33.3397 60.289 33.2578 60.4659 33.0941C60.6426 32.9305 60.7679 32.7398 60.8417 32.5224C60.9155 32.3049 61.0083 31.9624 61.1202 31.4947L62.7578 24.5709C62.8562 24.15 62.9054 23.8438 62.9054 23.652C62.9054 23.3808 62.8148 23.1552 62.6335 22.975C62.4524 22.7948 62.232 22.7047 61.9725 22.7047ZM65.2947 22.7047C65.0038 22.7047 64.7667 22.8099 64.5833 23.0204C64.3998 23.2309 64.3081 23.5465 64.3081 23.9674V32.0697C64.3081 32.4906 64.4009 32.8075 64.5867 33.0203C64.7723 33.2331 65.0084 33.3394 65.2947 33.3394C65.5944 33.3394 65.8372 33.2342 66.0229 33.0238C66.2086 32.8133 66.3015 32.4953 66.3015 32.0697V23.9674C66.3015 23.542 66.2086 23.225 66.0229 23.0169C65.8372 22.8089 65.5944 22.7047 65.2947 22.7047ZM75.0029 27.8748C74.6875 27.641 74.3049 27.4422 73.8552 27.2786C73.4056 27.1149 72.9033 26.9653 72.3485 26.8297C71.9055 26.7128 71.5877 26.6239 71.3954 26.5631C71.203 26.5023 71.0129 26.4182 70.825 26.3105C70.637 26.203 70.4894 26.0744 70.382 25.9247C70.2746 25.7752 70.2209 25.5974 70.2209 25.3916C70.2209 25.0596 70.3786 24.7756 70.694 24.5393C71.0095 24.3032 71.4245 24.185 71.939 24.185C72.4937 24.185 72.8964 24.2937 73.1471 24.5112C73.3977 24.7286 73.6123 25.0315 73.7914 25.4196C73.93 25.6908 74.0587 25.8861 74.1773 26.0054C74.2959 26.1246 74.4693 26.1842 74.6974 26.1842C74.948 26.1842 75.1571 26.0849 75.3249 25.886C75.4927 25.6873 75.5766 25.4641 75.5766 25.216C75.5766 24.9448 75.5095 24.6666 75.3753 24.3812C75.241 24.096 75.0284 23.8235 74.7376 23.5639C74.4467 23.3043 74.0809 23.0963 73.6403 22.9395C73.1995 22.7829 72.6772 22.7046 72.0731 22.7046C71.3169 22.7046 70.6593 22.8228 70.1 23.0589C69.5405 23.2951 69.1134 23.633 68.818 24.0725C68.5226 24.5122 68.375 25.0149 68.375 25.5808C68.375 26.1749 68.5148 26.6717 68.7945 27.0715C69.074 27.4714 69.4522 27.7869 69.9287 28.0185C70.4052 28.25 70.9968 28.4524 71.7039 28.6253C72.2318 28.7515 72.6536 28.8708 72.969 28.9831C73.2844 29.0953 73.5417 29.2578 73.7408 29.4706C73.9399 29.6835 74.0395 29.9605 74.0395 30.3019C74.0395 30.7322 73.855 31.0911 73.4858 31.3786C73.1166 31.6662 72.6368 31.81 72.0462 31.81C71.6166 31.81 71.2698 31.7388 71.0059 31.5961C70.7418 31.4535 70.5371 31.2722 70.3917 31.0525C70.2463 30.8327 70.1108 30.5591 69.9857 30.2316C69.8828 29.9557 69.7586 29.7476 69.6133 29.6073C69.4679 29.4669 69.29 29.3968 69.0797 29.3968C68.8201 29.3968 68.6065 29.4869 68.4387 29.6669C68.2709 29.847 68.187 30.0632 68.187 30.3157C68.187 30.7506 68.3269 31.1985 68.6065 31.6591C68.8861 32.1198 69.2497 32.488 69.6972 32.7639C70.328 33.1475 71.129 33.3392 72.0999 33.3392C72.9096 33.3392 73.61 33.1988 74.2006 32.9183C74.7912 32.6377 75.2398 32.2496 75.5463 31.7538C75.8527 31.2581 76.006 30.6992 76.006 30.0772C76.006 29.558 75.9176 29.1196 75.7409 28.7618C75.5645 28.4044 75.3184 28.1087 75.0029 27.8748ZM85.7213 23.0169C85.5355 22.8089 85.2928 22.7047 84.9931 22.7047C84.6978 22.7047 84.4595 22.8099 84.2783 23.0204C84.097 23.2309 84.0065 23.5465 84.0065 23.9674V26.9138H79.7044V23.9674C79.7044 23.542 79.6114 23.225 79.4258 23.0169C79.2401 22.8089 78.9973 22.7047 78.6976 22.7047C78.3933 22.7047 78.1528 22.8099 77.9761 23.0204C77.7992 23.2309 77.711 23.5465 77.711 23.9674V32.0697C77.711 32.4906 77.8005 32.8075 77.9795 33.0203C78.1585 33.2331 78.3979 33.3394 78.6976 33.3394C78.993 33.3394 79.2345 33.2342 79.4225 33.0238C79.6104 32.8133 79.7044 32.4953 79.7044 32.0697V28.6114H84.0065V32.0699C84.0065 32.4908 84.0959 32.8076 84.275 33.0204C84.4539 33.2332 84.6934 33.3396 84.9931 33.3396C85.2884 33.3396 85.53 33.2343 85.7179 33.0239C85.9059 32.8134 85.9998 32.4954 85.9998 32.0697V23.9674C85.9998 23.5419 85.9069 23.225 85.7213 23.0169Z" fill="#4A525D"/>
</svg>
