<svg width="100" height="40" viewBox="0 0 100 40" fill="none" xmlns="http://www.w3.org/2000/svg">
<rect width="100" height="40" fill="white"/>
<path d="M99.9995 20.2297H100C99.9999 20.2066 99.9997 20.1836 99.9995 20.1607V20.2297Z" fill="#B1AFFF" fill-opacity="0.3"/>
<path d="M91.0136 20.1201V20.6439C91.0324 21.5763 91.2299 22.4023 91.6061 23.122C91.6313 23.1697 91.6572 23.2166 91.6837 23.2628C90.5674 24.4523 88.879 25.2268 87.2208 25.2268C86.5784 25.2268 85.9662 25.1105 85.4035 24.8989V22.392C85.8988 22.8071 86.536 23.0541 87.2208 23.0541C88.7529 23.0541 91.0128 21.8175 91.0128 20.2297C91.0128 20.2183 91.0128 20.2069 91.0128 20.1955C91.013 20.1703 91.0132 20.1452 91.0136 20.1201Z" fill="#B1AFFF" fill-opacity="0.3"/>
<path d="M94.9344 17.1474C95.1047 17.103 95.2844 17.0794 95.4727 17.0794C95.8061 17.0794 96.1119 17.1534 96.3865 17.2855C96.1343 17.1436 95.841 17.0726 95.5066 17.0726C95.2995 17.0726 95.1088 17.0975 94.9344 17.1474Z" fill="#B1AFFF" fill-opacity="0.3"/>
<path d="M5.93594 24.757L2.59874 19.1166C2.74449 19.4563 2.82565 19.832 2.82565 20.2297C2.82565 22.2159 4.13267 23.9553 5.93594 24.757Z" fill="#B1AFFF" fill-opacity="0.3"/>
<path d="M0.0987454 17.407V15.3413H1.06165C0.719863 15.2702 0.364804 15.2327 0 15.2327V17.4053C0.0330295 17.4053 0.0659482 17.4059 0.0987454 17.407Z" fill="#B1AFFF" fill-opacity="0.3"/>
<path d="M3.14019 16.2994L5.02803 19.4963C4.83476 18.2101 4.14098 17.0745 3.14019 16.2994Z" fill="#B1AFFF" fill-opacity="0.3"/>
<path d="M8.67549 25.1986C11.2237 24.9309 12.9913 22.7844 12.9913 20.2297C12.9913 19.1005 13.6457 18.1489 14.5748 17.6934V15.3413H16.889C16.5407 15.2702 16.1819 15.2327 15.8171 15.2327C12.0786 15.2327 10.7343 17.4978 10.7343 20.2297C10.7343 21.6229 9.91204 22.7457 8.67549 23V25.1986Z" fill="#B1AFFF" fill-opacity="0.3"/>
<path d="M19.9847 17.1812C20.6941 18.0285 21.1257 19.0884 21.1257 20.2297C21.1257 21.8175 22.4195 23.0541 23.9516 23.0541C25.4836 23.0541 26.8587 21.8175 26.8587 20.2297C26.8587 19.8904 26.8921 19.5584 26.9561 19.237V21.8592C26.9666 22.6724 27.1749 23.3563 27.5807 23.9108C26.5816 24.7257 25.2852 25.2268 23.9516 25.2268C23.1195 25.2268 22.3381 25.0317 21.6492 24.6871V23.3936H20.0175C19.4633 22.7272 19.0815 21.9191 18.9351 21.0377H20.9439V19.2656H18.674C18.3772 18.5537 17.7695 17.9825 17.0505 17.669V17.1812H19.9847Z" fill="#B1AFFF" fill-opacity="0.3"/>
<path d="M29.4459 20.4961C29.4515 20.4079 29.4543 20.319 29.4543 20.2297C29.4543 18.642 30.3281 17.4053 31.8602 17.4053C32.1044 17.4053 32.3426 17.4367 32.5705 17.496V15.3413H32.9218C32.58 15.2702 32.225 15.2327 31.8602 15.2327C30.975 15.2327 30.155 15.4534 29.4459 15.8402V20.4961Z" fill="#B1AFFF" fill-opacity="0.3"/>
<path d="M35.0462 16.3352C36.2071 17.2558 36.943 18.6663 36.943 20.2297C36.943 21.8175 38.2367 23.0541 39.7688 23.0541C41.3009 23.0541 42.5946 21.8175 42.5946 20.2297C42.5743 19.068 42.8745 18.0166 43.4322 17.1812H43.4353V23.6906C42.5148 24.6346 41.2188 25.2268 39.7688 25.2268C37.6023 25.2268 35.7794 23.9046 35.0396 22.0622C35.044 21.98 35.0462 21.8965 35.0462 21.8117V16.3352Z" fill="#B1AFFF" fill-opacity="0.3"/>
<path d="M46.1637 15.3413C46.4995 15.27 46.8543 15.2327 47.2261 15.2327C51.416 15.2327 52.7603 16.4115 52.7603 20.2297C52.7603 21.3726 53.4307 22.3335 54.3777 22.7823V25.0853C52.1377 24.5499 50.5033 22.5596 50.5033 20.2297C50.5033 18.642 48.7582 17.4053 47.2261 17.4053C46.7064 17.4053 46.266 17.5476 45.911 17.7977V17.1812H48.9932V15.3413H46.1637Z" fill="#B1AFFF" fill-opacity="0.3"/>
<path d="M56.8534 25.0709C57.7717 24.8399 58.5858 24.3636 59.2236 23.7201L58.1935 21.737H57.9773C57.702 22.1714 57.312 22.5233 56.8534 22.7537V25.0709Z" fill="#B1AFFF" fill-opacity="0.3"/>
<path d="M58.4231 19.897C58.8914 19.8964 59.2427 19.7787 59.4772 19.544C59.717 19.3041 59.8369 18.9714 59.8369 18.5459C59.8369 18.1205 59.717 17.7878 59.4772 17.5479C59.4244 17.4941 59.3663 17.4463 59.3026 17.4044C58.7999 18.1249 58.4848 18.9796 58.4231 19.897Z" fill="#B1AFFF" fill-opacity="0.3"/>
<path d="M60.9464 15.904C61.0623 15.9707 61.172 16.0434 61.2757 16.1221C61.8012 16.5205 62.1256 17.0449 62.2488 17.6952C62.627 17.5091 63.0509 17.4053 63.4948 17.4053C65.0269 17.4053 66.3206 18.642 66.3206 20.2297C66.3206 21.9664 67.0463 23.5145 68.3036 24.4119V18.1534C67.4409 16.4393 65.5645 15.2327 63.4948 15.2327C62.5619 15.2327 61.6928 15.4778 60.9464 15.904Z" fill="#B1AFFF" fill-opacity="0.3"/>
<path d="M70.7722 25.2237C70.8317 25.2257 70.8917 25.2268 70.9521 25.2268C73.7878 25.2268 76.7121 22.9616 76.7121 20.2297C76.7121 19.9237 76.7517 19.6307 76.8267 19.3571V15.9006C75.3677 16.7691 74.455 18.3941 74.455 20.2297C74.455 21.8175 72.4842 23.0541 70.9521 23.0541C70.8907 23.0541 70.8307 23.0521 70.7722 23.0482V25.2237Z" fill="#B1AFFF" fill-opacity="0.3"/>
<path d="M78.2607 15.3413H79.3024L80.7557 17.8023C81.5533 18.2765 82.1058 19.1334 82.1366 20.1408L82.9349 21.4926V16.7245C82.0173 15.8064 80.7393 15.2327 79.3121 15.2327C78.9473 15.2327 78.596 15.2702 78.2607 15.3413Z" fill="#B1AFFF" fill-opacity="0.3"/>
<path d="M60.5911 21.1035C60.5657 21.1157 60.54 21.1277 60.514 21.1395L60.5655 21.2353C60.5746 21.1915 60.5832 21.1476 60.5911 21.1035Z" fill="#B1AFFF" fill-opacity="0.3"/>
<path d="M96.3854 17.2853C96.6119 17.4128 96.8053 17.5976 96.9655 17.8396C97.3087 18.3465 97.4804 19.0911 97.4804 20.0733V20.5282C97.4757 21.4878 97.304 22.2233 96.9655 22.7348C96.6269 23.2463 96.145 23.502 95.5196 23.502C94.8613 23.502 94.3652 23.2417 94.0313 22.7212C93.6975 22.2007 93.5305 21.4561 93.5305 20.4875L93.5376 19.761C93.5964 18.2675 94.0616 17.3962 94.9333 17.1471C93.718 17.4637 92.9796 18.8369 92.9796 20.2295C92.9796 21.3639 92.4754 22.4179 91.6826 23.2626C92.0566 23.9142 92.5597 24.4217 93.192 24.7852C93.8691 25.1699 94.645 25.3623 95.5196 25.3623C96.3942 25.3623 97.1724 25.1632 97.8542 24.7648C98.4273 24.4286 98.8906 23.974 99.2441 23.4012C98.4493 22.5346 97.9543 21.4269 97.9543 20.2295C97.9543 18.9872 97.3724 17.7604 96.3854 17.2853Z" fill="black"/>
<path d="M82.1369 20.2295C82.1369 22.3425 83.4812 24.1763 85.4024 24.8987V25.2265H82.9408L79.3013 19.0753V25.2265H76.8257V19.3569C77.1399 18.211 78.0743 17.4051 79.3111 17.4051C79.834 17.4051 80.3292 17.5491 80.7546 17.8021L82.1355 20.1405C82.136 20.1558 82.1363 20.1711 82.1366 20.1865C82.1368 20.2008 82.1369 20.2151 82.1369 20.2295Z" fill="black"/>
<path d="M82.9338 16.7243C83.8394 17.6306 84.3939 18.8724 84.3939 20.2295C84.3939 21.1075 84.7896 21.8782 85.4024 22.3918V15.3411H82.9338V16.7243Z" fill="black"/>
<path d="M78.2596 15.3411H76.8257V15.9003C77.2587 15.6425 77.7399 15.4514 78.2596 15.3411Z" fill="black"/>
<path d="M68.3025 24.4117C68.9808 24.8959 69.8139 25.1906 70.7711 25.2235V25.2265H68.3025V24.4117Z" fill="black"/>
<path d="M68.8022 20.2295C68.8022 19.4915 68.6218 18.7876 68.3025 18.1532V15.3411H70.7711V23.048C69.3705 22.9542 68.8022 21.7536 68.8022 20.2295Z" fill="black"/>
<path d="M60.9453 15.9038C60.2944 15.5286 59.452 15.3411 58.4181 15.3411H54.3766V22.7821C54.7452 22.9568 55.1558 23.0539 55.5851 23.0539C56.0373 23.0539 56.4687 22.9462 56.8523 22.7535V21.7367H57.9762C58.2506 21.3035 58.4108 20.7882 58.4108 20.2295C58.4108 20.1178 58.4146 20.0068 58.422 19.8968C58.4207 19.8968 58.4194 19.8968 58.4181 19.8968H56.8523V17.181H58.4181C58.7812 17.181 59.0757 17.2554 59.3015 17.4041C59.7279 16.7931 60.2892 16.2784 60.9453 15.9038Z" fill="black"/>
<path d="M59.2225 23.7199L60.0051 25.2265H62.6571V25.1247L60.5644 21.235C60.3659 22.1872 59.891 23.0454 59.2225 23.7199Z" fill="black"/>
<path d="M60.59 21.1033C61.1667 20.8275 61.5924 20.4729 61.8671 20.0394C62.1587 19.5867 62.3044 19.0164 62.3044 18.3284C62.3044 18.1054 62.2855 17.8943 62.2477 17.6949C61.3206 18.1511 60.6679 19.1017 60.6679 20.2295C60.6679 20.5271 60.6412 20.8191 60.59 21.1033Z" fill="black"/>
<path d="M55.5851 25.2265C56.0236 25.2265 56.448 25.1724 56.8523 25.0707V25.2265H55.5851Z" fill="black"/>
<path d="M54.3766 25.0851C54.7631 25.1775 55.1677 25.2265 55.5851 25.2265H54.3766V25.0851Z" fill="black"/>
<path d="M44.8506 20.2295C44.8506 19.1803 45.2184 18.2845 45.9099 17.7974V25.2265H43.4342V23.6904C44.3139 22.7881 44.8506 21.5645 44.8506 20.2295Z" fill="black"/>
<path d="M46.1627 15.3411C44.9911 15.5898 44.0517 16.2517 43.4312 17.181H40.4083V15.3411H46.1627Z" fill="black"/>
<path d="M35.0451 16.335V15.3411H32.9207C33.7154 15.5065 34.4383 15.8538 35.0451 16.335Z" fill="black"/>
<path d="M34.6849 20.2295C34.6849 20.8742 34.8101 21.4929 35.0385 22.062C35.0054 22.6905 34.8453 23.2429 34.5584 23.7193C34.2339 24.2534 33.7684 24.6607 33.1618 24.9414C32.5553 25.222 31.8382 25.3623 31.0106 25.3623C29.7598 25.3623 28.7747 25.05 28.0553 24.4254C27.8745 24.2684 27.7159 24.0967 27.5796 23.9106C28.6355 23.0493 29.3594 21.8375 29.4448 20.4959V21.9065C29.473 22.9883 29.9949 23.5292 31.0106 23.5292C31.5231 23.5292 31.9111 23.3934 32.1744 23.1218C32.4377 22.8502 32.5694 22.4089 32.5694 21.7978V17.4958C33.7708 17.8083 34.6849 18.8948 34.6849 20.2295Z" fill="black"/>
<path d="M29.4448 15.8399C28.1644 16.5383 27.2452 17.7779 26.955 19.2367V15.3411H29.4448V15.8399Z" fill="black"/>
<path d="M20.0164 23.3934C20.4605 23.9273 21.0152 24.3702 21.6481 24.6869V25.2265H14.5737V17.6932C14.951 17.5082 15.3736 17.4051 15.816 17.4051C16.2387 17.4051 16.6603 17.4992 17.0494 17.6688V19.2654H18.6729C18.7977 19.5648 18.8676 19.8891 18.8676 20.2295C18.8676 20.5041 18.8903 20.774 18.934 21.0374H17.0494V23.3934H20.0164Z" fill="black"/>
<path d="M19.9836 17.181C19.2135 16.2612 18.116 15.5919 16.8879 15.3411H21.6622V17.181H19.9836Z" fill="black"/>
<path d="M8.13312 25.2265C8.31708 25.2265 8.49762 25.217 8.6744 25.1984V25.2265H8.13312Z" fill="black"/>
<path d="M5.93485 24.7567C6.61195 25.0577 7.35901 25.2265 8.13312 25.2265H6.21282L5.93485 24.7567Z" fill="black"/>
<path d="M0.0976562 17.4068C1.20511 17.4453 2.1741 18.129 2.59765 19.1164L2.57334 19.0753V25.2265H0.0976562V17.4068Z" fill="black"/>
<path d="M3.1391 16.2991C2.54188 15.8366 1.83533 15.5023 1.06056 15.3411H2.57334L3.1391 16.2991Z" fill="black"/>
<path d="M5.08159 20.2295C5.08159 19.9807 5.06296 19.7358 5.02694 19.4961L6.20576 21.4923V15.3411H8.6744V22.9998C8.50169 23.0353 8.32089 23.0539 8.13312 23.0539C6.60103 23.0539 5.08159 21.8172 5.08159 20.2295Z" fill="black"/>
<path d="M72.0498 10.043L69.5414 7.62842L67.0329 10.043L69.5414 12.4577L72.0498 10.043Z" fill="#3935FF"/>
<path d="M96.3854 17.2855C96.1332 17.1435 95.8399 17.0726 95.5055 17.0726C95.2985 17.0726 95.1077 17.0975 94.9333 17.1473C93.718 17.4639 92.9797 18.8371 92.9797 20.2297C92.9797 21.3641 92.4754 22.4181 91.6826 23.2628C91.6561 23.2166 91.6303 23.1696 91.605 23.122C91.2289 22.4023 91.0314 21.5762 91.0126 20.6438V20.0871C91.0126 19.1185 91.1959 18.2652 91.5627 17.5275C91.9342 16.7851 92.4632 16.2126 93.1497 15.8097C93.8409 15.4069 94.6262 15.2055 95.5055 15.2055C96.3754 15.2055 97.1512 15.4046 97.833 15.8029C98.5149 16.2012 99.0439 16.7693 99.42 17.5071C99.8009 18.2403 99.9937 19.0822 99.9984 20.0328V20.4877C99.9984 21.4518 99.8127 22.305 99.4412 23.0473C99.3798 23.1699 99.3141 23.288 99.2441 23.4014C98.4493 22.5347 97.9544 21.427 97.9544 20.2297C97.9544 18.9874 97.3724 17.7606 96.3854 17.2855Z" fill="#3935FF"/>
<path d="M85.4024 24.8989V22.392C84.7896 21.8784 84.3939 21.1077 84.3939 20.2297C84.3939 18.8726 83.8394 17.6307 82.9338 16.7245V21.4925L82.1355 20.1407C82.136 20.156 82.1363 20.1713 82.1366 20.1866C82.1368 20.201 82.1369 20.2153 82.1369 20.2297C82.1369 22.3427 83.4812 24.1765 85.4024 24.8989Z" fill="#3935FF"/>
<path d="M79.3014 15.3412L80.7546 17.8023C80.3292 17.5493 79.834 17.4052 79.3111 17.4052C78.0743 17.4052 77.1399 18.2112 76.8257 19.3571V15.9005C77.2587 15.6427 77.7399 15.4515 78.2597 15.3412H79.3014Z" fill="#3935FF"/>
<path d="M70.7712 25.2236V23.0482C69.3705 22.9544 68.8023 21.7538 68.8023 20.2297C68.8023 19.4917 68.6218 18.7878 68.3025 18.1534V24.4119C68.9808 24.896 69.8139 25.1908 70.7712 25.2236Z" fill="#3935FF"/>
<path d="M61.2747 16.122C61.8001 16.5204 62.1245 17.0448 62.2478 17.6951C61.3206 18.1513 60.6679 19.1019 60.6679 20.2297C60.6679 20.5272 60.6412 20.8193 60.59 21.1034C60.5646 21.1156 60.5389 21.1276 60.5129 21.1394L60.5644 21.2352C60.3659 22.1874 59.891 23.0456 59.2225 23.7201L58.1924 21.7369H57.9762C58.2506 21.3037 58.4109 20.7884 58.4109 20.2297C58.4109 20.1179 58.4146 20.007 58.422 19.897C58.8903 19.8963 59.2416 19.7786 59.4761 19.5439C59.7159 19.304 59.8358 18.9713 59.8358 18.5459C59.8358 18.1204 59.7159 17.7877 59.4761 17.5478C59.4234 17.4941 59.3652 17.4462 59.3015 17.4043C59.7279 16.7932 60.2892 16.2786 60.9453 15.9039C61.0612 15.9707 61.171 16.0434 61.2747 16.122Z" fill="#3935FF"/>
<path d="M56.8523 25.0709V22.7536C56.4688 22.9463 56.0373 23.0541 55.5851 23.0541C55.1558 23.0541 54.7452 22.957 54.3766 22.7823V25.0853C54.7632 25.1776 55.1678 25.2267 55.5851 25.2267C56.0236 25.2267 56.4481 25.1725 56.8523 25.0709Z" fill="#3935FF"/>
<path d="M45.9099 17.1812V17.7976C45.2184 18.2847 44.8506 19.1805 44.8506 20.2297C44.8506 21.5647 44.3139 22.7883 43.4342 23.6905V17.1812H43.4312C44.0517 16.2519 44.9911 15.59 46.1627 15.3412H48.9922V17.1812H45.9099Z" fill="#3935FF"/>
<path d="M35.0386 22.0622C35.0429 21.98 35.0451 21.8964 35.0451 21.8116V16.3351C34.4383 15.854 33.7154 15.5067 32.9208 15.3412H32.5694V17.4959C33.7708 17.8085 34.6849 18.895 34.6849 20.2297C34.6849 20.8744 34.8101 21.4931 35.0386 22.0622Z" fill="#3935FF"/>
<path d="M29.4448 15.8401V20.4961C29.3594 21.8377 28.6355 23.0495 27.5796 23.9107C27.1738 23.3562 26.9656 22.6724 26.955 21.8591V19.2369C27.2452 17.778 28.1644 16.5384 29.4448 15.8401Z" fill="#3935FF"/>
<path d="M21.6481 24.6871V23.3935H20.0164C20.4605 23.9275 21.0153 24.3704 21.6481 24.6871Z" fill="#3935FF"/>
<path d="M20.9428 21.0376H18.934C18.8903 20.7742 18.8676 20.5043 18.8676 20.2297C18.8676 19.8892 18.7977 19.565 18.6729 19.2656H20.9428V21.0376Z" fill="#3935FF"/>
<path d="M17.0494 17.669V17.1812H19.9836C19.2135 16.2613 18.116 15.5921 16.888 15.3412H14.5737V17.6933C14.951 17.5084 15.3736 17.4052 15.8161 17.4052C16.2387 17.4052 16.6603 17.4993 17.0494 17.669Z" fill="#3935FF"/>
<path d="M8.6744 23V25.1986C8.49762 25.2172 8.31709 25.2267 8.13312 25.2267C7.35901 25.2267 6.61195 25.0579 5.93485 24.7569L2.59766 19.1165C2.1741 18.1292 1.20511 17.4455 0.0976562 17.407V15.3412H1.06056C1.83533 15.5025 2.54188 15.8367 3.1391 16.2993L5.02694 19.4962C5.06296 19.7359 5.0816 19.9809 5.0816 20.2297C5.0816 21.8174 6.60103 23.0541 8.13312 23.0541C8.32089 23.0541 8.50169 23.0355 8.6744 23Z" fill="#3935FF"/>
</svg>
