<svg width="100" height="40" viewBox="0 0 100 40" fill="none" xmlns="http://www.w3.org/2000/svg">
<rect width="100" height="40" fill="white"/>
<path d="M56.1914 18H55.5908L51.5039 11.916V18H50.8984V10.8906H51.5039L55.5957 16.9795V10.8906H56.1914V18ZM59.5361 17.1602L61.0791 12.7168H61.709L59.4531 18.8984L59.3359 19.1719C59.0462 19.8132 58.5986 20.1338 57.9932 20.1338C57.8532 20.1338 57.7035 20.111 57.5439 20.0654L57.5391 19.582L57.8418 19.6113C58.1283 19.6113 58.3594 19.5397 58.5352 19.3965C58.7142 19.2565 58.8656 19.014 58.9893 18.6689L59.248 17.9561L57.2559 12.7168H57.8955L59.5361 17.1602ZM65.874 18C65.8154 17.834 65.778 17.5882 65.7617 17.2627C65.5566 17.5296 65.2946 17.7363 64.9756 17.8828C64.6598 18.026 64.3245 18.0977 63.9697 18.0977C63.4619 18.0977 63.0501 17.9561 62.7344 17.6729C62.4219 17.3896 62.2656 17.0316 62.2656 16.5986C62.2656 16.0843 62.4788 15.6774 62.9053 15.3779C63.335 15.0785 63.9323 14.9287 64.6973 14.9287H65.7568V14.3281C65.7568 13.9505 65.6396 13.6543 65.4053 13.4395C65.1742 13.2214 64.8356 13.1123 64.3896 13.1123C63.9827 13.1123 63.6458 13.2165 63.3789 13.4248C63.112 13.6331 62.9785 13.8838 62.9785 14.1768L62.3926 14.1719C62.3926 13.752 62.5879 13.389 62.9785 13.083C63.3691 12.7738 63.8493 12.6191 64.4189 12.6191C65.0081 12.6191 65.472 12.7673 65.8105 13.0635C66.1523 13.3564 66.3281 13.7666 66.3379 14.2939V16.7939C66.3379 17.305 66.3916 17.6875 66.499 17.9414V18H65.874ZM64.0381 17.5801C64.4287 17.5801 64.777 17.4857 65.083 17.2969C65.3923 17.1081 65.6169 16.8558 65.7568 16.54V15.3779H64.7119C64.1292 15.3844 63.6735 15.4919 63.3447 15.7002C63.016 15.9053 62.8516 16.1885 62.8516 16.5498C62.8516 16.846 62.9606 17.0918 63.1787 17.2871C63.4001 17.4824 63.6865 17.5801 64.0381 17.5801ZM68.457 12.7168L68.4766 13.6201C68.6751 13.2946 68.9225 13.0472 69.2188 12.8779C69.515 12.7054 69.8421 12.6191 70.2002 12.6191C70.7666 12.6191 71.1882 12.7786 71.4648 13.0977C71.7415 13.4167 71.8815 13.8952 71.8848 14.5332V18H71.3037V14.5283C71.3005 14.0563 71.1995 13.7048 71.001 13.4736C70.8057 13.2425 70.4915 13.127 70.0586 13.127C69.6973 13.127 69.3766 13.2409 69.0967 13.4688C68.82 13.6934 68.6149 13.9977 68.4814 14.3818V18H67.9004V12.7168H68.457ZM78.5693 15.7832C78.488 16.5319 78.2194 17.1048 77.7637 17.502C77.3112 17.8991 76.7074 18.0977 75.9521 18.0977C75.4248 18.0977 74.9577 17.9658 74.5508 17.7021C74.1471 17.4385 73.8346 17.0658 73.6133 16.584C73.3919 16.099 73.2796 15.5456 73.2764 14.9238V14.001C73.2764 13.3695 73.387 12.8096 73.6084 12.3213C73.8298 11.833 74.1471 11.457 74.5605 11.1934C74.9772 10.9264 75.4557 10.793 75.9961 10.793C76.7578 10.793 77.3584 10.9997 77.7979 11.4131C78.2406 11.8232 78.4977 12.3913 78.5693 13.1172H77.9639C77.8141 11.9095 77.1582 11.3057 75.9961 11.3057C75.3516 11.3057 74.8372 11.5465 74.4531 12.0283C74.0723 12.5101 73.8818 13.1758 73.8818 14.0254V14.8945C73.8818 15.7148 74.0674 16.3691 74.4385 16.8574C74.8128 17.3457 75.3174 17.5898 75.9521 17.5898C76.5804 17.5898 77.054 17.4401 77.373 17.1406C77.6921 16.8379 77.889 16.3854 77.9639 15.7832H78.5693ZM83.2275 18C83.1689 17.834 83.1315 17.5882 83.1152 17.2627C82.9102 17.5296 82.6481 17.7363 82.3291 17.8828C82.0133 18.026 81.6781 18.0977 81.3232 18.0977C80.8154 18.0977 80.4036 17.9561 80.0879 17.6729C79.7754 17.3896 79.6191 17.0316 79.6191 16.5986C79.6191 16.0843 79.8324 15.6774 80.2588 15.3779C80.6885 15.0785 81.2858 14.9287 82.0508 14.9287H83.1104V14.3281C83.1104 13.9505 82.9932 13.6543 82.7588 13.4395C82.5277 13.2214 82.1891 13.1123 81.7432 13.1123C81.3363 13.1123 80.9993 13.2165 80.7324 13.4248C80.4655 13.6331 80.332 13.8838 80.332 14.1768L79.7461 14.1719C79.7461 13.752 79.9414 13.389 80.332 13.083C80.7227 12.7738 81.2028 12.6191 81.7725 12.6191C82.3617 12.6191 82.8255 12.7673 83.1641 13.0635C83.5059 13.3564 83.6816 13.7666 83.6914 14.2939V16.7939C83.6914 17.305 83.7451 17.6875 83.8525 17.9414V18H83.2275ZM81.3916 17.5801C81.7822 17.5801 82.1305 17.4857 82.4365 17.2969C82.7458 17.1081 82.9704 16.8558 83.1104 16.54V15.3779H82.0654C81.4827 15.3844 81.027 15.4919 80.6982 15.7002C80.3695 15.9053 80.2051 16.1885 80.2051 16.5498C80.2051 16.846 80.3141 17.0918 80.5322 17.2871C80.7536 17.4824 81.04 17.5801 81.3916 17.5801ZM86.1621 11.3643V12.7168H87.2559V13.1953H86.1621V16.7158C86.1621 17.0088 86.2142 17.2269 86.3184 17.3701C86.4258 17.5133 86.6032 17.585 86.8506 17.585C86.9482 17.585 87.1061 17.5687 87.3242 17.5361L87.3486 18.0146C87.1956 18.07 86.9873 18.0977 86.7236 18.0977C86.3232 18.0977 86.0319 17.9821 85.8496 17.751C85.6673 17.5166 85.5762 17.1732 85.5762 16.7207V13.1953H84.6045V12.7168H85.5762V11.3643H86.1621ZM91.6309 16.6572C91.6309 16.3675 91.5137 16.1348 91.2793 15.959C91.0482 15.7832 90.6982 15.6465 90.2295 15.5488C89.7607 15.4479 89.3962 15.334 89.1357 15.207C88.8786 15.0768 88.6865 14.9189 88.5596 14.7334C88.4359 14.5479 88.374 14.3232 88.374 14.0596C88.374 13.6429 88.5482 13.2995 88.8965 13.0293C89.2448 12.7559 89.6908 12.6191 90.2344 12.6191C90.8236 12.6191 91.2956 12.7656 91.6504 13.0586C92.0085 13.3483 92.1875 13.7275 92.1875 14.1963H91.6016C91.6016 13.887 91.4714 13.6299 91.2109 13.4248C90.9538 13.2197 90.6283 13.1172 90.2344 13.1172C89.8503 13.1172 89.541 13.2035 89.3066 13.376C89.0755 13.5452 88.96 13.7666 88.96 14.04C88.96 14.3037 89.056 14.5088 89.248 14.6553C89.4434 14.7985 89.7965 14.9303 90.3076 15.0508C90.8219 15.1712 91.2061 15.2998 91.46 15.4365C91.7171 15.5732 91.9076 15.7376 92.0312 15.9297C92.1549 16.1217 92.2168 16.3545 92.2168 16.6279C92.2168 17.0739 92.0361 17.4303 91.6748 17.6973C91.3167 17.9642 90.848 18.0977 90.2686 18.0977C89.6533 18.0977 89.1536 17.9495 88.7695 17.6533C88.3887 17.3538 88.1982 16.9762 88.1982 16.5205H88.7842C88.807 16.8623 88.9502 17.1292 89.2139 17.3213C89.4808 17.5101 89.8324 17.6045 90.2686 17.6045C90.6755 17.6045 91.0042 17.515 91.2549 17.3359C91.5055 17.1569 91.6309 16.9307 91.6309 16.6572ZM50.5273 25.3096C50.5273 24.4827 50.7096 23.8285 51.0742 23.3467C51.4421 22.8617 51.9401 22.6191 52.5684 22.6191C53.2878 22.6191 53.8346 22.9056 54.209 23.4785L54.2383 22.7168H54.7852V27.8926C54.7852 28.5729 54.5947 29.1117 54.2139 29.5088C53.833 29.9059 53.3171 30.1045 52.666 30.1045C52.2982 30.1045 51.9466 30.0215 51.6113 29.8555C51.2793 29.6927 51.0173 29.4746 50.8252 29.2012L51.1523 28.8496C51.5658 29.3574 52.0573 29.6113 52.627 29.6113C53.1152 29.6113 53.4961 29.4665 53.7695 29.1768C54.043 28.8903 54.1846 28.4915 54.1943 27.9805V27.3164C53.82 27.8372 53.2747 28.0977 52.5586 28.0977C51.9466 28.0977 51.4551 27.8535 51.084 27.3652C50.7129 26.877 50.5273 26.2178 50.5273 25.3877V25.3096ZM51.1182 25.4121C51.1182 26.0859 51.2533 26.6182 51.5234 27.0088C51.7936 27.3962 52.1745 27.5898 52.666 27.5898C53.3854 27.5898 53.8949 27.2676 54.1943 26.623V24.167C54.0576 23.8285 53.8607 23.5713 53.6035 23.3955C53.3464 23.2165 53.0371 23.127 52.6758 23.127C52.1842 23.127 51.8018 23.3206 51.5283 23.708C51.2549 24.0921 51.1182 24.6602 51.1182 25.4121ZM59.6436 28C59.585 27.834 59.5475 27.5882 59.5312 27.2627C59.3262 27.5296 59.0641 27.7363 58.7451 27.8828C58.4294 28.026 58.0941 28.0977 57.7393 28.0977C57.2314 28.0977 56.8197 27.9561 56.5039 27.6729C56.1914 27.3896 56.0352 27.0316 56.0352 26.5986C56.0352 26.0843 56.2484 25.6774 56.6748 25.3779C57.1045 25.0785 57.7018 24.9287 58.4668 24.9287H59.5264V24.3281C59.5264 23.9505 59.4092 23.6543 59.1748 23.4395C58.9437 23.2214 58.6051 23.1123 58.1592 23.1123C57.7523 23.1123 57.4154 23.2165 57.1484 23.4248C56.8815 23.6331 56.748 23.8838 56.748 24.1768L56.1621 24.1719C56.1621 23.752 56.3574 23.389 56.748 23.083C57.1387 22.7738 57.6188 22.6191 58.1885 22.6191C58.7777 22.6191 59.2415 22.7673 59.5801 23.0635C59.9219 23.3564 60.0977 23.7666 60.1074 24.2939V26.7939C60.1074 27.305 60.1611 27.6875 60.2686 27.9414V28H59.6436ZM57.8076 27.5801C58.1982 27.5801 58.5465 27.4857 58.8525 27.2969C59.1618 27.1081 59.3864 26.8558 59.5264 26.54V25.3779H58.4814C57.8988 25.3844 57.443 25.4919 57.1143 25.7002C56.7855 25.9053 56.6211 26.1885 56.6211 26.5498C56.6211 26.846 56.7301 27.0918 56.9482 27.2871C57.1696 27.4824 57.4561 27.5801 57.8076 27.5801ZM62.2021 22.7168L62.2217 23.5762C62.417 23.2572 62.6611 23.0179 62.9541 22.8584C63.2471 22.6989 63.5726 22.6191 63.9307 22.6191C64.764 22.6191 65.293 22.9609 65.5176 23.6445C65.7064 23.3158 65.9587 23.0635 66.2744 22.8877C66.5902 22.7087 66.9385 22.6191 67.3193 22.6191C68.4521 22.6191 69.0299 23.2376 69.0527 24.4746V28H68.4668V24.5186C68.4635 24.0465 68.361 23.6966 68.1592 23.4688C67.9606 23.2409 67.6351 23.127 67.1826 23.127C66.7627 23.1335 66.4079 23.2702 66.1182 23.5371C65.8285 23.8008 65.6673 24.123 65.6348 24.5039V28H65.0488V24.4746C65.0456 24.0221 64.9382 23.6852 64.7266 23.4639C64.5182 23.2393 64.196 23.127 63.7598 23.127C63.3919 23.127 63.0762 23.2327 62.8125 23.4443C62.5488 23.6527 62.3535 23.9635 62.2266 24.377V28H61.6406V22.7168H62.2021ZM72.583 28.0977C72.1338 28.0977 71.7269 27.987 71.3623 27.7656C71.001 27.5443 70.7194 27.2367 70.5176 26.8428C70.3158 26.4456 70.2148 26.0013 70.2148 25.5098V25.2998C70.2148 24.792 70.3125 24.3346 70.5078 23.9277C70.7064 23.5208 70.9814 23.2018 71.333 22.9707C71.6846 22.7363 72.0654 22.6191 72.4756 22.6191C73.1169 22.6191 73.6247 22.8389 73.999 23.2783C74.3766 23.7145 74.5654 24.3118 74.5654 25.0703V25.3975H70.7959V25.5098C70.7959 26.1087 70.9668 26.6084 71.3086 27.0088C71.6536 27.4059 72.0866 27.6045 72.6074 27.6045C72.9199 27.6045 73.195 27.5475 73.4326 27.4336C73.6735 27.3197 73.8916 27.1374 74.0869 26.8867L74.4531 27.165C74.0234 27.7868 73.4001 28.0977 72.583 28.0977ZM72.4756 23.1172C72.0361 23.1172 71.665 23.2783 71.3623 23.6006C71.0628 23.9229 70.8805 24.3558 70.8154 24.8994H73.9844V24.8359C73.9681 24.3281 73.8232 23.9147 73.5498 23.5957C73.2764 23.2767 72.9183 23.1172 72.4756 23.1172Z" fill="black"/>
<path d="M0 29.6775V40.0001H40V29.6775H0Z" fill="#8C6AFE"/>
<path d="M0 27.0968V33.5484H5.16129V32.258H6.45161V27.0968H0Z" fill="#42B3FE"/>
<path d="M40 30.9677V24.5161H32.2581V30.9677H40Z" fill="#42B3FE"/>
<path d="M0 21.9354V27.0967H7.74194V21.9354H0Z" fill="#81FF62"/>
<path d="M40 24.516V19.3547H32.2581V24.516H40Z" fill="#81FF62"/>
<path d="M0 11.6128V21.9354H7.74194V19.3547H40V11.6128H0Z" fill="#FFFF43"/>
<path d="M25.8068 24.5161H20.6455V27.0968H25.8068V24.5161Z" fill="#720F1B"/>
<path d="M0 1.29028V10.3225H40V1.29028H0Z" fill="#F50206"/>
<path d="M29.6774 15.4838H15.4839V19.3548H11.6129V24.5161H32.2581V19.3548H29.6774V15.4838Z" fill="#F50206"/>
<path d="M40 12.9032V6.45161H33.5484V12.9032H40Z" fill="#FEB342"/>
<path d="M40 1.29032V0H0V3.87097H5.16129V2.58065H6.45161V1.29032H18.0645V2.58065H19.3548V3.87097H28.3871V2.58065H29.6774V1.29032H40Z" fill="#FEB342"/>
<path d="M0 10.3226V15.4839H5.16129V14.1935H9.03226V9.03226H11.6129V7.74194H6.45161V9.03226H5.16129V10.3226H0Z" fill="#FEB342"/>
<path d="M28.3871 40H40V37.4194H29.6774V38.7097H28.3871V40Z" fill="#FEB342"/>
<path d="M6.45161 37.4194H18.0645V38.7097H19.3548V40H5.16129V38.7097H6.45161V37.4194Z" fill="#FEB342"/>
<path d="M19.3548 10.3226V9.03226H16.7742V10.3226H18.0645V11.6129H24.5161V10.3226H19.3548Z" fill="#FEB342"/>
<path d="M15.484 20.6453H12.9033V23.2259H15.484V20.6453Z" fill="white"/>
<path d="M29.6775 27.0969H18.0646V29.6775H29.6775V27.0969Z" fill="white"/>
<path d="M25.8065 20.6453H27.742V22.5807H25.8065V20.6453Z" fill="white"/>
<path d="M27.097 6.45166H33.5486V16.7742H29.6777V14.1936H24.5164V10.3226H27.097V6.45166Z" fill="#FF3EB3"/>
<path d="M30.968 24.5162H34.839V27.0968H30.968V24.5162Z" fill="#FF3EB3"/>
<path d="M11.6132 25.8065H7.74219V28.3871H11.6132V25.8065Z" fill="#FF3EB3"/>
<path d="M16.7744 6.45166H11.6132V10.3226H9.03251V15.4839H16.7744V6.45166Z" fill="#FF3EB3"/>
<path fill-rule="evenodd" clip-rule="evenodd" d="M12.9036 3.87085H16.7746V5.16117H18.0649V11.6128H23.2262V10.3225H24.5165V9.03214H25.8069V7.74182H27.0972V6.45149H28.3875V5.16117H32.2585V6.45149H30.9682V7.74182H29.6778V9.03214H28.3875V10.3225H27.0972V11.6128H25.8069V12.9031H28.3875V14.1934H29.6778V15.4838H27.0972V16.7741H24.5165V18.0644H23.2262V19.3547H24.5165V23.2257H25.8069V24.516H20.6456V25.8063H21.9359V27.0967H18.0649V28.387H19.3552V29.6773H20.6456V28.387H21.9359V29.6773H25.8069V28.387H27.0972V29.6773H28.3875V28.387H29.6778V27.0967H25.8069V28.387H21.9359V27.0967H24.5165V25.8063H25.8069V24.516H30.9682V25.8063H32.2585V27.0967H33.5488V25.8063H34.8391V24.516H30.9682V23.2257H32.2585V19.3547H24.5165V18.0644H27.0972V16.7741H29.6778V15.4838H30.9682V16.7741H32.2585V18.0644H34.8391V23.2257H36.1294V28.387H34.8391V29.6773H32.2585V30.9676H30.9682V32.2579H28.3875V33.5483H27.0972V34.8386H20.6456V36.1289H12.9036V34.8386H10.323V33.5483H9.03267V32.2579H7.74234V30.9676H6.45202V29.6773H5.1617V28.387H3.87138V25.8063H2.58105V21.9354H3.87138V18.0644H5.1617V16.7741H6.45202V10.3225H7.74234V9.03214H9.03267V7.74182H10.323V6.45149H11.6133V5.16117H12.9036V3.87085ZM14.194 6.45149H16.7746V14.1934H12.9036V15.4838H10.323V14.1934H9.03267V11.6128H10.323V10.3225H11.6133V9.03214H12.9036V7.74182H14.194V6.45149ZM10.323 28.387V27.0967H11.6133V25.8063H7.74234V27.0967H9.03267V28.387H10.323ZM12.9036 24.516H19.3552V23.2257H20.6456V19.3547H21.9359V18.0644H20.6456V16.7741H18.0649V15.4838H15.4843V16.7741H18.0649V18.0644H20.6456V19.3547H11.6133V23.2257H12.9036V24.516Z" fill="black"/>
<path d="M33.5488 15.4838V16.7741H32.2585V15.4838H33.5488Z" fill="black"/>
<path d="M33.5488 7.74182H34.8391V15.4838H33.5488V7.74182Z" fill="black"/>
<path d="M33.5488 7.74182V6.45149H32.2585V7.74182H33.5488Z" fill="black"/>
</svg>
