<svg width="101" height="40" viewBox="0 0 101 40" fill="none" xmlns="http://www.w3.org/2000/svg">
<rect width="100" height="40" transform="translate(1)" fill="white"/>
<path fill-rule="evenodd" clip-rule="evenodd" d="M12.8691 23.8747H1.00342V16.0298H14.7999V22.0374C14.3352 22.152 13.911 22.3828 13.5715 22.7058C13.232 23.0289 12.9895 23.4325 12.8691 23.8747Z" fill="black"/>
<path fill-rule="evenodd" clip-rule="evenodd" d="M17.9274 23.8747C17.8239 23.4501 17.6048 23.059 17.2921 22.7406C16.9794 22.4221 16.5841 22.1876 16.146 22.0606V16.0297H23.1391C23.2125 16.0297 25.568 15.5842 25.568 18.247V23.8747H17.9274Z" fill="#F919A5"/>
<path fill-rule="evenodd" clip-rule="evenodd" d="M12.9169 25.1555C13.0584 25.5626 13.3048 25.9295 13.6338 26.2225C13.9628 26.5155 14.3638 26.7253 14.8 26.8327V33.0005H3.29538C0.744375 33.0005 1.00348 30.7591 1.00348 30.6931V25.1555H12.9169Z" fill="black"/>
<path fill-rule="evenodd" clip-rule="evenodd" d="M22.1784 30.4505C22.0615 30.2283 21.8913 30.0353 21.6814 29.8873C21.3506 29.6671 20.9924 29.4865 20.6151 29.3498C20.3056 29.2373 20.0064 29.1007 19.7205 28.9414C19.5768 28.8589 19.4548 28.7465 19.3634 28.6126C19.288 28.4848 19.2505 28.3398 19.2549 28.1933C19.251 28.0842 19.2734 27.9758 19.3204 27.8763C19.3674 27.7768 19.4378 27.6889 19.5261 27.6193C19.756 27.46 20.0376 27.3831 20.3213 27.4022C20.8647 27.4199 21.3991 27.5396 21.8938 27.7544L22.2367 26.9166C21.6433 26.6598 20.9997 26.525 20.3479 26.521C19.6883 26.521 19.1627 26.6715 18.771 26.9725C18.5779 27.1206 18.4242 27.3099 18.3221 27.525C18.2201 27.7401 18.1727 27.9751 18.1837 28.2109C18.173 28.599 18.3038 28.9788 18.5538 29.2856C18.8006 29.584 19.2253 29.8491 19.828 30.0812C20.4123 30.3047 20.7978 30.4981 20.9847 30.6615C21.074 30.736 21.1453 30.8279 21.1937 30.9311C21.242 31.0343 21.2663 31.1462 21.2648 31.2592C21.2693 31.3787 21.244 31.4974 21.191 31.6058C21.138 31.7141 21.0588 31.809 20.9598 31.8826C20.7566 32.0374 20.441 32.1148 20.0132 32.1148C19.694 32.1116 19.3763 32.0726 19.0666 31.9987C18.736 31.9241 18.4143 31.8176 18.1064 31.6806V32.6522C18.6838 32.8923 19.3107 33.0055 19.9404 32.9833C20.6874 32.9833 21.2733 32.8242 21.6981 32.5061C21.9068 32.3509 22.0734 32.1506 22.1843 31.9217C22.2951 31.6928 22.3469 31.4421 22.3352 31.1904C22.342 30.9357 22.2884 30.6828 22.1784 30.4505V30.4505ZM24.8802 32.897V26.611H23.8004V32.897H24.8802ZM29.5115 30.3689H30.8805V31.9897C30.5128 32.0697 30.1371 32.1115 29.76 32.1145C29.0671 32.1145 28.5362 31.9145 28.1673 31.5147C27.7984 31.1149 27.6139 30.5308 27.6138 29.7626C27.6138 29.0317 27.8186 28.4553 28.2282 28.0335C28.6378 27.6117 29.1951 27.401 29.9001 27.4016C30.4569 27.4059 31.0058 27.5261 31.5086 27.7538L31.8882 26.8982C31.2687 26.6455 30.6012 26.5167 29.9272 26.5197C28.8548 26.5197 28.0128 26.8057 27.4014 27.3776C26.79 27.9494 26.4842 28.7413 26.4841 29.7531C26.4841 30.7792 26.7552 31.5738 27.2975 32.1372C27.8397 32.7005 28.6108 32.9822 29.6109 32.982C30.0077 32.9839 30.4042 32.958 30.7971 32.9047C31.1858 32.8479 31.5689 32.7602 31.9423 32.6425V29.4875H29.5115V30.3681V30.3689ZM39.217 26.611H38.2273V29.9046C38.2273 30.1367 38.2363 30.4599 38.2544 30.874C38.2725 31.2881 38.2845 31.5283 38.2906 31.5944H38.2635L35.0237 26.611H33.7133V32.897H34.6937V29.6294C34.6937 29.1879 34.6726 28.7006 34.6305 28.1675L34.6079 27.888H34.6441L37.8928 32.897H39.2168V26.611H39.217ZM46.392 32.897L43.9204 26.5852H42.7464L40.2748 32.897H41.4133L42.0596 31.1519H44.5853L45.245 32.897H46.3927H46.392ZM42.3752 30.2656L42.9716 28.6276C43.1158 28.2495 43.235 27.8632 43.3285 27.4709C43.3586 27.5856 43.4135 27.7662 43.4934 28.0127C43.5732 28.2591 43.6358 28.4397 43.681 28.5545L44.3 30.2656H42.3752ZM49.7309 27.493H51.6739V26.6115H46.7081V27.493H48.6519V32.8975H49.7318V27.493H49.7309ZM56.9694 26.6115V30.58C56.9694 31.5976 56.4603 32.1064 55.442 32.1064C54.9179 32.1064 54.5293 31.9832 54.2764 31.7366C54.0234 31.4901 53.8969 31.1074 53.8968 30.5887V26.611H52.8124V30.6615C52.8124 31.3839 53.0398 31.9515 53.4947 32.3642C53.9495 32.777 54.5866 32.9833 55.406 32.9833C55.8962 32.9958 56.3828 32.8994 56.827 32.7017C57.2083 32.5272 57.5251 32.2469 57.7356 31.8977C57.9514 31.5249 58.0597 31.1044 58.0495 30.6788V26.611H56.9697L56.9694 26.6115ZM61.004 27.48H61.7181C62.209 27.48 62.5765 27.5574 62.8205 27.7122C62.9459 27.7987 63.0456 27.9147 63.1097 28.0489C63.1739 28.1831 63.2004 28.3308 63.1866 28.4776C63.1975 28.6253 63.1726 28.7735 63.1139 28.9107C63.0551 29.0478 62.9641 29.1703 62.8477 29.2687C62.6218 29.4464 62.2573 29.5352 61.7541 29.5352H61.004V27.4795V27.48ZM62.0704 30.3865L63.6519 32.8975H64.8802L63.0141 30.1158C63.8697 29.7833 64.2975 29.2258 64.2973 28.4432C64.2973 27.8299 64.0925 27.3713 63.6829 27.0673C63.2733 26.7633 62.6422 26.6114 61.7896 26.6115H59.9247V32.8975H61.0045V30.386H62.0709L62.0704 30.3865ZM69.7606 32.0238H67.1038V30.0508H69.5939V29.1909H67.1038V27.4795H69.7606V26.611H66.0239V32.897H69.7606V32.0238ZM78.3272 27.509L78.6526 26.8812C78.084 26.63 77.4623 26.5065 76.8355 26.5201C76.2432 26.5066 75.6579 26.6435 75.1396 26.9166C74.6613 27.178 74.2771 27.5706 74.037 28.0431C73.7723 28.5747 73.6415 29.1577 73.6553 29.7458C73.6553 30.7805 73.9196 31.5788 74.4482 32.1406C74.9769 32.7023 75.7276 32.9832 76.7006 32.9833C77.2762 32.9979 77.85 32.9149 78.395 32.7382V32.0978C77.883 32.2441 77.3525 32.3236 76.818 32.3343C76.068 32.3343 75.4903 32.1101 75.085 31.6619C74.6798 31.2136 74.4772 30.578 74.4773 29.7551C74.4773 28.9553 74.6875 28.3256 75.1078 27.8659C75.3218 27.6358 75.5874 27.4544 75.885 27.3349C76.1825 27.2155 76.5044 27.1611 76.8269 27.1757C77.347 27.1804 77.8595 27.2952 78.3271 27.5119V27.5119L78.3272 27.509ZM85.0369 26.6104H84.2688V29.284H80.7896V26.6104H80.0215V32.8964H80.7896V29.9388H84.2688V32.897H85.0369V26.611V26.6104ZM91.9816 32.8964L89.3835 26.5852H88.7374L86.1258 32.897H86.9029L87.7163 30.8977H90.364L91.1864 32.897H91.9816V32.8964ZM87.9873 30.2387L88.7645 28.2911C88.8777 27.9942 88.9728 27.6912 89.0491 27.3838C89.1546 27.7422 89.257 28.0446 89.3564 28.2911L90.1246 30.2387H87.9878H87.9873ZM93.8424 32.8964V26.611H93.0742V32.897H93.8424V32.8964ZM100.999 26.6104H100.281V30.2177C100.275 30.3983 100.282 30.6986 100.304 31.1185C100.325 31.5384 100.338 31.7871 100.344 31.8645H100.308L96.7076 26.6104H95.8401V32.8964H96.5494V29.3241C96.5494 28.8081 96.5253 28.2406 96.4771 27.6214H96.5132L100.124 32.897H101V26.611L100.999 26.6104Z" fill="black"/>
</svg>
