<svg width="100" height="40" viewBox="0 0 100 40" fill="none" xmlns="http://www.w3.org/2000/svg">
<rect width="100" height="40" fill="white"/>
<path d="M0 22.8194V19.8686H12.3292V22.8194H7.81968V34.1302H4.49051V22.8194H0Z" fill="black"/>
<path d="M17.206 28.7602V34.1302H13.8966V19.8686H19.2964C22.9353 19.8686 25.6641 20.7341 25.6641 24.2751C25.6641 26.3796 24.5225 27.5799 22.9156 28.2094L26.3798 34.1302H22.4897L19.4513 28.7602H17.206ZM17.206 25.9275H19.3928C20.9603 25.9275 22.1603 25.6521 22.1603 24.3144C22.1603 22.9968 20.9603 22.7013 19.3928 22.7013H17.206V25.9275Z" fill="black"/>
<path d="M35.4967 19.8686L40.8002 34.1302H37.2L36.3484 31.593H30.9288L30.0969 34.1302H26.5742L31.8579 19.8686H35.4967ZM35.458 28.8582L33.6583 23.4288L31.8389 28.8582H35.458Z" fill="black"/>
<path d="M55.0057 26.9898C55.0057 32.4385 51.3866 34.1302 46.7989 34.1302H42.1733V19.8686H46.7989C51.3866 19.8686 55.0057 21.5604 55.0057 26.9898ZM45.4835 22.7013V31.2975H46.8573C49.2962 31.2975 51.5027 30.7668 51.5027 26.9898C51.5027 23.2329 49.2962 22.7013 46.8573 22.7013H45.4835Z" fill="black"/>
<path d="M65.6118 23.705C65.6118 24.4132 66.2699 24.9246 67.2377 25.1406L69.1535 25.5341C71.4178 26.0062 74.2824 26.7144 74.2824 29.7045C74.2824 32.6946 71.3213 34.3864 68.3983 34.3864C64.7981 34.3864 62.4367 32.5573 61.9335 29.4885H65.2239C65.5913 30.9835 66.7527 31.6717 68.4757 31.6717C69.5983 31.6717 70.8758 31.2975 70.8758 30.1172C70.8758 29.193 69.7919 28.7402 68.2632 28.4061L66.5599 28.0521C64.2759 27.5606 62.2052 26.459 62.2052 23.9017C62.2052 20.9903 65.2824 19.6333 68.0309 19.6333C70.7794 19.6333 73.392 20.853 73.8763 24.0004H70.6056C70.2769 22.9382 69.2507 22.3287 67.8381 22.3287C66.5606 22.328 65.6118 22.8194 65.6118 23.705Z" fill="black"/>
<path d="M80.9794 25.3373L84.1538 19.8686H87.9862L82.5666 28.6221V34.1302H79.2572V28.5828L73.9735 19.8686H77.8446L80.9794 25.3373Z" fill="black"/>
<path d="M91.2956 23.705C91.2956 24.4132 91.9537 24.9246 92.9215 25.1406L94.8373 25.5341C97.1016 26.0062 99.9662 26.7144 99.9662 29.7045C99.9662 32.6946 97.0051 34.3864 94.0821 34.3864C90.4819 34.3864 88.1205 32.5573 87.6173 29.4885H90.9077C91.2751 30.9835 92.4365 31.6717 94.1595 31.6717C95.2821 31.6717 96.5596 31.2975 96.5596 30.1172C96.5596 29.193 95.4757 28.7402 93.947 28.4061L92.2437 28.0521C89.9597 27.5606 87.889 26.459 87.889 23.9017C87.889 20.9903 90.9662 19.6333 93.7147 19.6333C96.4632 19.6333 99.0758 20.853 99.5601 24.0004H96.2894C95.9607 22.9382 94.9345 22.3287 93.5219 22.3287C92.2437 22.328 91.2956 22.8194 91.2956 23.705Z" fill="black"/>
<path d="M58.1966 34.1304L58.1952 39.2273H58.8502L58.8516 34.1304H60.1937V19.8687H58.8556L58.857 14.7726H58.202L58.2006 19.8687H56.8843V34.1304H58.1966Z" fill="#801CCB"/>
</svg>
