<svg width="100" height="40" viewBox="0 0 100 40" fill="none" xmlns="http://www.w3.org/2000/svg">
<rect width="100" height="40" fill="white"/>
<path fill-rule="evenodd" clip-rule="evenodd" d="M51.4259 34.0001C51.1125 34.0014 50.8022 33.9359 50.514 33.8074C49.9489 33.5599 49.4994 33.0918 49.2617 32.5033C49.1374 32.1988 49.0745 31.8709 49.0768 31.5401V16H51.5004V22.5641C51.5211 22.5054 51.5442 22.4476 51.5698 22.3908C51.8176 21.8239 52.2643 21.3772 52.8183 21.1425C53.1036 21.021 53.4091 20.9595 53.7173 20.9614H57.8043C58.122 20.9591 58.4368 21.0247 58.7292 21.154C59.2944 21.4015 59.744 21.8699 59.9814 22.4587C60.1058 22.7631 60.1688 23.091 60.1664 23.4218V31.5401C60.1687 31.8709 60.1057 32.1988 59.9814 32.5033C59.7435 33.0912 59.294 33.5588 58.7292 33.806C58.4368 33.9354 58.122 34.001 57.8043 33.9986L51.4259 34.0001ZM57.7312 31.464V23.4975H51.4995V31.464H57.7312Z" fill="black"/>
<path d="M42.9757 23.4974V34.0001H45.4104V23.4228C45.4125 23.0919 45.3496 22.7642 45.2254 22.4596C44.9884 21.8702 44.539 21.4011 43.9736 21.153C43.6812 21.0237 43.3664 20.9581 43.0487 20.9604H40.0979C39.4875 20.9564 38.8997 21.2005 38.4595 21.6409C38.2468 21.8547 38.0756 22.1094 37.9555 22.3907C37.9005 22.5188 37.8558 22.6514 37.8218 22.7871C37.788 22.6501 37.7416 22.5169 37.6831 22.3893C37.4268 21.8232 36.9758 21.3779 36.4193 21.1415C36.1378 21.0209 35.8362 20.9593 35.5319 20.9604H32.5806C31.9704 20.9566 31.3828 21.2011 30.9431 21.6419C30.7302 21.8563 30.5577 22.1103 30.4345 22.3907C30.4284 22.4055 30.4223 22.4204 30.4161 22.4354C30.3986 22.4777 30.3808 22.5207 30.3651 22.5641V20.9604H27.9415V34.0001H30.3651V23.4974H35.4588V34.0001H37.894V23.4974H42.9757Z" fill="black"/>
<path d="M21.8415 32.4109V34.0001H24.2771V20.9605H21.8415V31.4641H15.6116V20.9605H13.188V31.5411C13.1854 31.872 13.2484 32.1999 13.3729 32.5043C13.6103 33.093 14.0599 33.5613 14.6252 33.8085C14.9133 33.937 15.2237 34.0025 15.5371 34.0011H19.6357C19.932 34.0024 20.2257 33.9428 20.5 33.8258C20.7674 33.7118 21.013 33.5487 21.2251 33.3442C21.4389 33.139 21.6162 32.896 21.749 32.6266C21.7823 32.5554 21.8142 32.4836 21.8415 32.4109Z" fill="black"/>
<path d="M63.8314 16H66.255V34.0001H63.8314V16Z" fill="black"/>
<path fill-rule="evenodd" clip-rule="evenodd" d="M72.2697 34C71.9563 34.0015 71.6459 33.9359 71.3578 33.8074C70.7923 33.5597 70.3425 33.0909 70.1051 32.5018C69.9808 32.1973 69.9178 31.8695 69.9201 31.5386V23.4209C69.9177 23.09 69.9807 22.7622 70.1051 22.4577C70.3427 21.8689 70.7924 21.4005 71.3578 21.153C71.646 21.0246 71.9563 20.9591 72.2697 20.9604H78.1717C78.4894 20.958 78.8042 21.0236 79.0966 21.153C79.6623 21.3999 80.1123 21.8685 80.3493 22.4577C80.4737 22.7622 80.5366 23.09 80.5343 23.4209V28.7728H72.3432V31.464H80.5339V34H72.2697ZM78.0964 26.2367V23.4974H72.3432V26.2367H78.0964Z" fill="black"/>
<path d="M5.38273 34C5.06931 34.0014 4.75893 33.9358 4.47081 33.8074C4.19024 33.6832 3.93444 33.5055 3.71658 33.2834C3.49503 33.0559 3.31935 32.7847 3.19983 32.4855C3.08032 32.1864 3.01939 31.8654 3.02062 31.5414V23.4988H0V20.9603H3.02062V16.9925H5.45672V20.9603H9.52336V23.4964H5.45672V31.4639H9.52336V34H5.38273Z" fill="black"/>
<path d="M96.323 20.1602L100 22.1048L96.323 24.0611L96.8275 23.1061L93.6432 23.0868L90.5564 27.4057L95.2621 34.0002H92.4968L89.1742 29.3418L85.8396 34.0002H83.0742L87.7915 27.4057L87.791 27.4053L90.6438 23.4201H90.6392L92.2878 21.1142H96.8275L96.323 20.1602Z" fill="#1684C3"/>
<path d="M86.0494 21.114L87.7905 23.5408L86.4096 25.471L83.2961 21.114H86.0494Z" fill="#1684C3"/>
</svg>
