<svg width="100" height="40" viewBox="0 0 100 40" fill="none" xmlns="http://www.w3.org/2000/svg">
<rect width="100" height="40" fill="white"/>
<path d="M99.9999 1H62.7129V40H99.9999V1Z" fill="url(#paint0_linear)"/>
<path d="M7.56453 16.3845L4.56837 23.6243H2.98625L0 16.3845H1.73045L3.83665 21.5558L5.97252 16.3845H7.56453Z" fill="url(#paint1_linear)"/>
<path d="M13.6193 22.6857V23.6243H10.1855V19.1641H13.5377V20.1027H11.3425V20.9171H13.2855V21.8092H11.3425V22.6857H13.6193Z" fill="black"/>
<path d="M21.5191 19.1641V23.6243H20.555L18.5897 21.1653V23.6243H17.4402V19.1641H18.4043L20.3696 21.6308V19.1641H21.5191Z" fill="black"/>
<path d="M25.0869 20.1182H26.4292V23.6243H27.601V20.1182H28.9433V19.1641H25.0869V20.1182Z" fill="black"/>
<path d="M34.4865 23.7096C33.8537 23.7096 33.3592 23.5312 33.0033 23.1744C32.6473 22.8176 32.4693 22.3263 32.4693 21.7006V19.1641H33.6411V21.6618C33.6411 22.0082 33.7128 22.2694 33.8562 22.4452C34.0044 22.6211 34.2196 22.709 34.5014 22.709C34.7782 22.709 34.9883 22.6211 35.1317 22.4452C35.2751 22.2694 35.3468 22.0082 35.3468 21.6618V19.1641H36.5037V21.7006C36.5037 22.3263 36.3258 22.8176 35.9697 23.1744C35.6138 23.5312 35.1194 23.7096 34.4865 23.7096Z" fill="black"/>
<path fill-rule="evenodd" clip-rule="evenodd" d="M41.3099 22.74H43.3049L43.6535 23.6243H44.8104L42.8896 19.1641H41.7326L39.8193 23.6243H40.954L41.3099 22.74ZM42.3111 20.2423L42.9489 21.8557H41.6659L42.3111 20.2423Z" fill="black"/>
<path fill-rule="evenodd" clip-rule="evenodd" d="M50.1737 22.4297H49.4541V23.6243H48.2823V19.1641H50.2256C50.8138 19.1641 51.2812 19.3114 51.6272 19.6062C51.9732 19.8958 52.146 20.2966 52.146 20.8085C52.146 21.1343 52.0696 21.4188 51.9163 21.6618C51.768 21.8997 51.5553 22.0858 51.2787 22.2203L52.2279 23.6243H50.9671L50.1737 22.4297ZM50.9671 20.8085C50.9671 20.5862 50.8977 20.4155 50.7594 20.2966C50.6211 20.1776 50.4159 20.1182 50.1437 20.1182H49.4541V21.4989H50.1437C50.4159 21.4989 50.6211 21.4394 50.7594 21.3205C50.8977 21.2016 50.9671 21.0309 50.9671 20.8085Z" fill="black"/>
<path d="M58.1887 23.6243V22.1427L59.9168 19.1641H58.7374L57.6399 21.0645L56.5349 19.1641H55.2966L57.0173 22.1427V23.6243H58.1887Z" fill="black"/>
<path fill-rule="evenodd" clip-rule="evenodd" d="M88.5266 23.2619C89.1068 23.586 89.7564 23.748 90.4749 23.748C91.1934 23.748 91.8395 23.586 92.4127 23.2619C92.9864 22.9378 93.4378 22.4931 93.7674 21.9277C94.0974 21.3554 94.2622 20.7142 94.2622 20.004C94.2622 19.2938 94.0974 18.656 93.7674 18.0906C93.4378 17.5183 92.9864 17.0702 92.4127 16.7461C91.8395 16.422 91.1934 16.26 90.4749 16.26C89.7564 16.26 89.1068 16.422 88.5266 16.7461C87.9534 17.0702 87.5015 17.5183 87.1719 18.0906C86.8489 18.656 86.6876 19.2938 86.6876 20.004C86.6876 20.7142 86.8489 21.3554 87.1719 21.9277C87.5015 22.4931 87.9534 22.9378 88.5266 23.2619ZM91.5824 22.0311C91.2528 22.2242 90.8833 22.3207 90.4749 22.3207C90.066 22.3207 89.697 22.2242 89.3674 22.0311C89.0379 21.8312 88.7772 21.5554 88.586 21.2037C88.4017 20.8521 88.3094 20.4522 88.3094 20.004C88.3094 19.5558 88.4017 19.1559 88.586 18.8043C88.7772 18.4526 89.0379 18.1802 89.3674 17.9872C89.697 17.7873 90.066 17.6873 90.4749 17.6873C90.8833 17.6873 91.2528 17.7873 91.5824 17.9872C91.9119 18.1802 92.1691 18.4526 92.3533 18.8043C92.5445 19.1559 92.6404 19.5558 92.6404 20.004C92.6404 20.4522 92.5445 20.8521 92.3533 21.2037C92.1691 21.5554 91.9119 21.8312 91.5824 22.0311Z" fill="white"/>
<path fill-rule="evenodd" clip-rule="evenodd" d="M68.6094 16.3846H71.754C72.5055 16.3846 73.1681 16.5363 73.7418 16.8397C74.3215 17.1362 74.7699 17.5567 75.0865 18.1015C75.4095 18.6462 75.5708 19.2805 75.5708 20.0045C75.5708 20.7285 75.4095 21.3628 75.0865 21.9075C74.7699 22.4522 74.3215 22.8763 73.7418 23.1796C73.1681 23.4761 72.5055 23.6244 71.754 23.6244H68.6094V16.3846ZM71.6752 22.2488C72.3672 22.2488 72.9174 22.0489 73.3264 21.649C73.7418 21.2422 73.949 20.694 73.949 20.0045C73.949 19.315 73.7418 18.7703 73.3264 18.3704C72.9174 17.9636 72.3672 17.7602 71.6752 17.7602H70.2117V22.2488H71.6752Z" fill="white"/>
<path fill-rule="evenodd" clip-rule="evenodd" d="M82.7245 22.073H79.5109L78.8978 23.6244H77.2565L80.3418 16.3846H81.9236L85.0188 23.6244H83.3377L82.7245 22.073ZM82.2202 20.8009L81.1227 18.0291L80.0252 20.8009H82.2202Z" fill="white"/>
<defs>
<linearGradient id="paint0_linear" x1="92.3227" y1="-1.68569" x2="52.878" y2="26.4059" gradientUnits="userSpaceOnUse">
<stop stop-color="#3CE700"/>
<stop offset="0.567708" stop-color="#0BC91E"/>
</linearGradient>
<linearGradient id="paint1_linear" x1="6.00703" y1="15.886" x2="-1.50404" y2="21.7319" gradientUnits="userSpaceOnUse">
<stop stop-color="#3CE700"/>
<stop offset="0.567708" stop-color="#0BC91E"/>
</linearGradient>
</defs>
</svg>
