<svg width="100" height="40" viewBox="0 0 100 40" fill="none" xmlns="http://www.w3.org/2000/svg">
<rect width="100" height="40" fill="white"/>
<path d="M8.47182 30.9779L9.87024 24.6299H11.7971L9.39868 33.8248H7.77261L5.88637 27.5108L4.03265 33.8248H2.40658L0 24.6299H1.92689L3.3497 30.91L5.15464 24.6299H6.6425L8.47182 30.9779Z" fill="black"/>
<path d="M18.3746 33.8248C18.2879 33.6492 18.212 33.3631 18.1469 32.9665C17.5182 33.652 16.7485 33.9947 15.8379 33.9947C14.9544 33.9947 14.2335 33.7313 13.6752 33.2044C13.117 32.6775 12.8378 32.026 12.8378 31.2499C12.8378 30.2698 13.1847 29.5191 13.8785 28.9979C14.5777 28.471 15.575 28.2076 16.8705 28.2076H18.0819V27.6042C18.0819 27.1283 17.9545 26.7488 17.6998 26.4655C17.445 26.1766 17.0575 26.0321 16.5371 26.0321C16.0873 26.0321 15.7187 26.1511 15.4314 26.389C15.1441 26.6213 15.0005 26.9187 15.0005 27.2813H13.0248C13.0248 26.7771 13.1847 26.3069 13.5045 25.8706C13.8243 25.4287 14.2579 25.0831 14.8054 24.8339C15.3582 24.5846 15.9734 24.46 16.651 24.46C17.6808 24.46 18.502 24.7319 19.1145 25.2758C19.7269 25.814 20.0413 26.5731 20.0576 27.5532V31.7003C20.0576 32.5274 20.1687 33.1874 20.3909 33.6803V33.8248H18.3746ZM16.2038 32.3376C16.594 32.3376 16.9599 32.2385 17.3014 32.0402C17.6483 31.8419 17.9084 31.5756 18.0819 31.2414V29.5078H17.0168C16.2851 29.5078 15.7349 29.6409 15.3664 29.9072C14.9978 30.1735 14.8135 30.5502 14.8135 31.0374C14.8135 31.434 14.9382 31.7513 15.1875 31.9892C15.4422 32.2215 15.781 32.3376 16.2038 32.3376Z" fill="black"/>
<path d="M25.0984 31.2074L26.9602 24.6299H29.001L25.9521 33.8248H24.2366L21.1633 24.6299H23.2121L25.0984 31.2074Z" fill="black"/>
<path d="M34.0011 33.9947C32.749 33.9947 31.7328 33.584 30.9522 32.7625C30.1771 31.9354 29.7896 30.8363 29.7896 29.4653V29.2104C29.7896 28.2926 29.9576 27.4739 30.2937 26.7544C30.6352 26.0293 31.1121 25.4656 31.7246 25.0633C32.3371 24.6611 33.0201 24.46 33.7735 24.46C34.9713 24.46 35.8955 24.8594 36.5459 25.6582C37.2018 26.457 37.5297 27.5872 37.5297 29.0489V29.8817H31.7815C31.8412 30.6409 32.0824 31.2414 32.5051 31.6833C32.9333 32.1252 33.4699 32.3461 34.1149 32.3461C35.0201 32.3461 35.7573 31.9637 36.3264 31.1989L37.3915 32.2611C37.0392 32.8107 36.5676 33.2384 35.9768 33.5443C35.3914 33.8446 34.7329 33.9947 34.0011 33.9947ZM33.7653 26.1171C33.2233 26.1171 32.7843 26.3154 32.4482 26.7119C32.1176 27.1085 31.9062 27.6609 31.8141 28.3691H35.5784V28.2161C35.535 27.5249 35.3589 27.0037 35.0499 26.6525C34.741 26.2955 34.3128 26.1171 33.7653 26.1171Z" fill="black"/>
<path d="M44.0014 31.3264C44.0014 30.9581 43.8551 30.6777 43.5624 30.4851C43.2751 30.2924 42.7954 30.1225 42.1233 29.9752C41.4512 29.8279 40.8902 29.6409 40.4404 29.4143C39.4539 28.9158 38.9606 28.1934 38.9606 27.2473C38.9606 26.4542 39.2804 25.7913 39.92 25.2588C40.5596 24.7262 41.3726 24.46 42.3591 24.46C43.4106 24.46 44.2589 24.7319 44.9039 25.2758C45.5543 25.8196 45.8796 26.525 45.8796 27.3918H43.9039C43.9039 26.9952 43.763 26.6666 43.4811 26.406C43.1993 26.1397 42.8253 26.0066 42.3591 26.0066C41.9255 26.0066 41.5705 26.1114 41.294 26.321C41.023 26.5306 40.8875 26.8111 40.8875 27.1623C40.8875 27.4796 41.0149 27.726 41.2697 27.9017C41.5244 28.0773 42.0393 28.2557 42.8144 28.437C43.5895 28.6127 44.1966 28.8251 44.6356 29.0744C45.0801 29.318 45.408 29.6126 45.6194 29.9582C45.8362 30.3038 45.9446 30.723 45.9446 31.2159C45.9446 32.043 45.6167 32.7144 44.9608 33.2299C44.305 33.7398 43.4459 33.9947 42.3835 33.9947C41.6626 33.9947 41.0203 33.8588 40.4566 33.5868C39.8929 33.3149 39.4539 32.941 39.1395 32.4651C38.8251 31.9892 38.6679 31.4765 38.6679 30.927H40.5867C40.6138 31.4142 40.79 31.7909 41.1152 32.0572C41.4404 32.3178 41.8713 32.4481 42.4079 32.4481C42.9282 32.4481 43.3239 32.3461 43.5949 32.1422C43.8659 31.9326 44.0014 31.6606 44.0014 31.3264Z" fill="black"/>
<path d="M51.2862 32.3461C51.7795 32.3461 52.1887 32.196 52.5139 31.8957C52.8391 31.5955 53.0126 31.2244 53.0343 30.7825H54.8961C54.8744 31.3547 54.7037 31.8901 54.3839 32.3886C54.0641 32.8815 53.6305 33.2724 53.083 33.5613C52.5356 33.8503 51.9448 33.9947 51.3106 33.9947C50.0802 33.9947 49.1046 33.5783 48.3837 32.7455C47.6628 31.9127 47.3024 30.7627 47.3024 29.2953V29.0829C47.3024 27.6835 47.6601 26.5646 48.3756 25.7262C49.091 24.882 50.0667 24.46 51.3025 24.46C52.3486 24.46 53.1996 24.7801 53.8554 25.4202C54.5167 26.0548 54.8636 26.8904 54.8961 27.9272H53.0343C53.0126 27.4003 52.8391 26.9669 52.5139 26.627C52.1941 26.287 51.7849 26.1171 51.2862 26.1171C50.6467 26.1171 50.1534 26.3607 49.8065 26.8479C49.4596 27.3295 49.2835 28.0631 49.278 29.0489V29.3803C49.278 30.3774 49.4488 31.1224 49.7903 31.6153C50.1372 32.1025 50.6358 32.3461 51.2862 32.3461Z" fill="black"/>
<path d="M61.6443 33.8248C61.5576 33.6492 61.4817 33.3631 61.4167 32.9665C60.7879 33.652 60.0182 33.9947 59.1076 33.9947C58.2241 33.9947 57.5032 33.7313 56.945 33.2044C56.3867 32.6775 56.1075 32.026 56.1075 31.2499C56.1075 30.2698 56.4544 29.5191 57.1482 28.9979C57.8474 28.471 58.8448 28.2076 60.1402 28.2076H61.3516V27.6042C61.3516 27.1283 61.2242 26.7488 60.9695 26.4655C60.7147 26.1766 60.3272 26.0321 59.8068 26.0321C59.357 26.0321 58.9884 26.1511 58.7011 26.389C58.4138 26.6213 58.2702 26.9187 58.2702 27.2813H56.2945C56.2945 26.7771 56.4544 26.3069 56.7742 25.8706C57.094 25.4287 57.5276 25.0831 58.0751 24.8339C58.6279 24.5846 59.2431 24.46 59.9207 24.46C60.9505 24.46 61.7717 24.7319 62.3842 25.2758C62.9967 25.814 63.311 26.5731 63.3273 27.5532V31.7003C63.3273 32.5274 63.4384 33.1874 63.6606 33.6803V33.8248H61.6443ZM59.4735 32.3376C59.8638 32.3376 60.2296 32.2385 60.5711 32.0402C60.918 31.8419 61.1782 31.5756 61.3516 31.2414V29.5078H60.2865C59.5548 29.5078 59.0047 29.6409 58.6361 29.9072C58.2675 30.1735 58.0832 30.5502 58.0832 31.0374C58.0832 31.434 58.2079 31.7513 58.4572 31.9892C58.712 32.2215 59.0507 32.3376 59.4735 32.3376Z" fill="black"/>
<path d="M73.1 29.3208C73.1 30.7428 72.791 31.8787 72.1731 32.7285C71.5552 33.5727 70.7259 33.9947 69.6852 33.9947C68.7204 33.9947 67.948 33.6633 67.3681 33.0005V37.36H65.3924V24.6299H67.2136L67.2949 25.5647C67.8749 24.8282 68.6635 24.46 69.6608 24.46C70.734 24.46 71.5742 24.8792 72.1812 25.7177C72.7937 26.5505 73.1 27.709 73.1 29.1934V29.3208ZM71.1324 29.1424C71.1324 28.2246 70.9563 27.4966 70.6039 26.9584C70.2571 26.4202 69.7584 26.1511 69.108 26.1511C68.3004 26.1511 67.7204 26.4995 67.3681 27.1963V31.2754C67.7258 31.9892 68.3112 32.3461 69.1242 32.3461C69.753 32.3461 70.2435 32.0827 70.5958 31.5558C70.9536 31.0233 71.1324 30.2188 71.1324 29.1424Z" fill="black"/>
<g clip-path="url(#clip0)">
<rect width="6.88336" height="6.88336" transform="matrix(0.780869 0.624695 -0.780869 0.624695 79.5503 18.4399)" fill="#C4C4C4"/>
<path d="M79.5503 27.04L74.1753 22.74L74.1753 21.02L79.5503 25.32L79.5503 27.04Z" fill="#0F0F0F"/>
<path d="M84.9253 22.74L79.5503 27.04L79.5503 25.32L84.9253 21.02L84.9253 22.74Z" fill="#0F0F0F"/>
<path d="M75.6084 22.1667L79.5501 25.3201L79.55 27.0401L75.6084 23.8868L75.6084 22.1667Z" fill="#00072C"/>
<path d="M79.55 25.3201L83.4917 22.1667L83.4917 23.8867L79.55 27.0401L79.55 25.3201Z" fill="#00072C"/>
<rect width="6.88336" height="6.88336" transform="matrix(0.780869 0.624695 -0.780869 0.624695 79.5503 16.72)" fill="#6E7A80"/>
<rect width="5.04779" height="5.04779" transform="matrix(0.780869 0.624695 -0.780869 0.624695 79.5503 19.0132)" fill="#4971CB"/>
</g>
<defs>
<clipPath id="clip0">
<rect width="12.9" height="10.32" fill="white" transform="translate(73.1001 16.72)"/>
</clipPath>
</defs>
</svg>
