<svg width="500" height="320" viewBox="0 0 500 320" fill="none" xmlns="http://www.w3.org/2000/svg">
<path d="M0.5 319.5V0.5H499.5V319.5H0.5Z" fill="white" stroke="#BB6BD9"/>
<path fill-rule="evenodd" clip-rule="evenodd" d="M428.253 280.99C431.317 281.47 434.406 281.381 439.121 280.851C441.325 272.294 439.934 263.564 435.517 252.736C434.644 250.661 433.904 249.026 432.206 245.366C430.503 241.696 429.759 240.054 428.883 237.97C426.101 231.601 425.181 225.634 425.857 218.508C426.012 216.859 426.187 215.531 426.61 212.625C426.825 211.143 426.914 210.519 427.02 209.714C427.487 206.2 427.659 203.599 427.514 201.027C427.302 196.118 425.726 190.969 423.16 186.6C422.584 185.636 421.906 185.005 421.18 184.693L421.023 184.586C420.918 184.48 420.779 184.442 420.651 184.485L420.492 184.511C420.492 184.511 420.492 184.511 420.382 184.511C419.269 184.511 417.847 185.266 416.408 186.599L416.304 186.674C408.875 190.642 404.489 191.992 399.465 190.827C399.335 190.794 399.202 190.894 399.201 191.05C399.088 192.41 398.862 193.769 398.513 195.165C398.478 195.271 398.5 195.346 398.484 195.338L398.852 195.523L398.741 195.92C397.527 200.255 396.542 203.011 395.054 205.899C393.363 209.19 391.361 214.786 390.451 218.666C390.21 219.718 389.951 220.787 389.637 222.044C389.471 222.707 388.781 225.432 388.607 226.129C388.223 227.67 387.933 228.894 387.678 230.074C386.677 234.714 386.273 238.557 386.482 242.743C386.667 246.426 387.218 249.772 388.504 255.939C388.556 256.187 388.597 256.383 388.69 256.827C389.997 263.076 390.491 265.832 390.795 269.277C391.021 272.348 391.128 275.133 391.128 278.089C391.128 278.886 391.212 279.543 391.452 280.933C391.71 282.42 391.791 283.041 391.791 283.864C391.791 283.969 391.839 284.031 391.894 284.033C393.708 284.215 395.151 284.215 398.349 284.105C399.971 284.049 400.68 284.031 401.578 284.031C401.687 284.031 401.742 283.982 401.742 283.864C401.742 280.921 401.684 278.575 401.508 273.248C401.232 264.876 401.184 261.119 401.41 256.407C401.645 251.336 402.362 246.687 403.642 242.295C404.385 239.745 405.47 237.637 407.413 234.626C407.706 234.172 408.797 232.509 409.033 232.145C409.448 231.505 409.796 230.954 410.124 230.415L410.661 229.532L411.02 230.501C412.71 235.061 414.411 238.777 416.952 243.533C422.922 254.774 426.154 262.169 428.063 270.219C428.391 271.936 428.409 273.274 428.265 276.055C428.202 277.283 428.182 277.781 428.182 278.422C428.182 279.315 428.186 279.71 428.206 280.201C428.217 280.478 428.232 280.739 428.253 280.99Z" fill="white" stroke="#BB6BD9"/>
<path fill-rule="evenodd" clip-rule="evenodd" d="M410.533 230.104L416.845 243.984C416.889 244.071 416.889 244.071 417.087 244.458C417.279 244.834 417.493 245.254 417.723 245.707C418.382 247.001 419.04 248.299 419.655 249.515C419.677 249.559 419.677 249.559 419.699 249.603C420.978 252.134 421.887 253.956 422.269 254.766C422.402 255.039 422.523 255.264 422.629 255.443C422.637 255.215 422.642 254.913 422.63 254.565C422.567 252.816 422.196 249.888 421.566 245.88C421.471 245.274 421.37 244.645 421.262 243.984C421.131 243.178 420.993 242.35 420.833 241.394C420.738 240.83 420.422 238.956 420.442 239.078C419.888 235.905 419.572 234.559 418.681 231.211C418.537 230.669 418.436 230.283 418.335 229.883C418.09 228.915 417.883 228.006 417.679 226.98C417.414 225.62 417.544 223.677 417.98 220.933C418.071 220.359 418.174 219.762 418.304 219.036C419.062 214.797 419.015 215.077 419.044 214.308C419.045 214.278 419.046 214.25 419.047 214.222C418.967 214.308 418.879 214.412 418.782 214.534C417.961 215.565 416.919 217.261 415.715 219.484C415.324 220.206 414.919 220.978 414.503 221.792C413.551 223.654 412.585 225.651 411.656 227.648C411.33 228.347 411.033 228.996 410.769 229.578C410.672 229.792 410.593 229.969 410.533 230.104Z" fill="white" stroke="#BB6BD9"/>
<path fill-rule="evenodd" clip-rule="evenodd" d="M289.844 219.975C289.585 219.9 288.582 219.6 288.297 219.518C287.158 219.187 286.28 218.969 285.427 218.826C282.858 218.393 281.064 218.765 279.996 220.205C279.559 220.773 279.351 221.586 279.318 222.666C279.303 223.166 279.322 223.632 279.375 224.41C279.387 224.591 279.387 224.591 279.4 224.8C279.4 227.586 279.236 230.022 278.799 234.828C278.199 245.48 277.916 250.215 277.498 256.141C277.197 259.755 277.029 261.364 276.7 263.3C276.7 263.974 276.687 264.498 276.65 265.666C276.612 266.823 276.6 267.34 276.6 268C276.6 272.706 276.43 274.776 275.595 277.171C275.407 278.485 274.977 279.667 274.336 280.575C275.565 281.042 276.673 281.246 278.8 281.5C278.874 281.5 278.9 281.476 278.9 281.41C278.833 278.044 279.508 275.336 281.409 269.908C282.013 268.181 282.165 267.742 282.422 266.954C283.203 264.402 283.588 261.712 283.805 258.034C283.854 257.194 283.885 256.538 283.952 254.998C284.018 253.5 284.05 252.81 284.1 251.981C284.212 249.088 284.713 246.831 286.143 241.815C286.168 241.728 286.168 241.728 286.193 241.641C286.884 239.217 287.206 238.009 287.51 236.6C287.988 234.253 288.346 231.843 288.766 228.39C288.841 227.771 288.888 227.376 289.036 226.122C289.384 223.185 289.56 221.78 289.805 220.127L289.824 220.001L289.844 219.975ZM273.812 280.888L273.807 280.884L273.99 280.438C274.021 280.45 274.052 280.463 274.082 280.475C274.098 280.491 274.112 280.505 274.153 280.546L273.812 280.888Z" stroke="#BB6BD9"/>
<path fill-rule="evenodd" clip-rule="evenodd" d="M279.071 280.775C277.023 281.77 274.81 281.896 273.504 280.881C273.362 280.931 273.202 280.977 273.021 281.022C272.876 281.059 272.401 281.165 272.332 281.182C271.708 281.352 271.19 281.432 270.024 281.569C269.985 281.573 269.985 281.573 269.947 281.578C267.732 281.838 266.794 282.113 265.954 282.953C265.918 282.989 265.91 283.106 265.877 283.084L265.901 283.1H265.961L266.013 283.174L266.1 283.232V283.299L266.11 283.314C267.203 284.882 268.925 285.23 271.9 284.847C272.285 284.798 272.643 284.745 273.253 284.65C274.889 284.394 275.437 284.323 276.2 284.3C277.754 284.3 278.82 284.073 279.247 283.646L279.393 283.5H279.6C279.734 283.5 279.778 283.497 279.812 283.476C280.47 282.386 280.517 281.719 279.922 280.702C279.677 280.707 279.576 280.721 279.524 280.747L279.418 280.8H279.3C279.198 280.8 279.138 280.797 279.071 280.775Z" stroke="#BB6BD9"/>
<path fill-rule="evenodd" clip-rule="evenodd" d="M295.156 219.975C295.415 219.9 296.418 219.6 296.703 219.518C297.842 219.187 298.72 218.969 299.573 218.826C302.142 218.393 303.936 218.765 305.004 220.205C305.441 220.773 305.649 221.586 305.682 222.666C305.697 223.166 305.678 223.632 305.625 224.41C305.613 224.591 305.613 224.591 305.6 224.8C305.6 227.586 305.764 230.022 306.201 234.828C306.801 245.48 307.084 250.215 307.502 256.141C307.803 259.755 307.971 261.364 308.3 263.3C308.3 263.974 308.313 264.498 308.35 265.666C308.388 266.823 308.4 267.34 308.4 268C308.4 272.706 308.57 274.776 309.405 277.171C309.593 278.485 310.023 279.667 310.664 280.575C309.435 281.042 308.327 281.246 306.2 281.5C306.126 281.5 306.1 281.476 306.1 281.41C306.167 278.044 305.492 275.336 303.591 269.908C302.987 268.181 302.835 267.742 302.578 266.954C301.797 264.402 301.412 261.712 301.195 258.034C301.146 257.194 301.115 256.538 301.048 254.998C300.982 253.5 300.95 252.81 300.9 251.981C300.788 249.088 300.287 246.831 298.857 241.815C298.832 241.728 298.832 241.728 298.807 241.641C298.116 239.217 297.794 238.009 297.49 236.6C297.012 234.253 296.654 231.843 296.234 228.39C296.159 227.771 296.112 227.376 295.964 226.122C295.616 223.185 295.44 221.78 295.195 220.127L295.176 220.001L295.156 219.975ZM311.188 280.888L311.193 280.884L311.01 280.438C310.979 280.45 310.948 280.463 310.918 280.475C310.902 280.491 310.888 280.505 310.847 280.546L311.188 280.888Z" stroke="#BB6BD9"/>
<path fill-rule="evenodd" clip-rule="evenodd" d="M305.929 280.775C307.977 281.77 310.19 281.896 311.496 280.881C311.638 280.931 311.798 280.977 311.979 281.022C312.124 281.059 312.599 281.165 312.668 281.182C313.292 281.352 313.81 281.432 314.976 281.569C315.015 281.573 315.015 281.573 315.053 281.578C317.268 281.838 318.206 282.113 319.046 282.953C319.082 282.989 319.09 283.106 319.123 283.084L319.099 283.1H319.039L318.987 283.174L318.9 283.232V283.299L318.89 283.314C317.797 284.882 316.075 285.23 313.1 284.847C312.715 284.798 312.357 284.745 311.747 284.65C310.111 284.394 309.563 284.323 308.8 284.3C307.246 284.3 306.18 284.073 305.753 283.646L305.607 283.5H305.4C305.266 283.5 305.222 283.497 305.188 283.476C304.53 282.386 304.483 281.719 305.078 280.702C305.323 280.707 305.424 280.721 305.476 280.747L305.582 280.8H305.7C305.802 280.8 305.862 280.797 305.929 280.775Z" stroke="#BB6BD9"/>
<path d="M329.403 229.552L329.404 229.561L329.405 229.569C329.615 231.084 328.744 232.125 327.411 233.198C327.082 233.463 326.735 233.723 326.378 233.989L326.375 233.992C326.022 234.255 325.659 234.526 325.311 234.806C324.617 235.365 323.946 235.988 323.477 236.734L323.414 236.833L323.402 236.95C323.356 237.413 323.267 237.771 323.106 238.083C322.946 238.393 322.699 238.69 322.293 239.005L322.285 239.012L322.277 239.018C321.734 239.478 320.997 239.708 320.145 239.803C319.294 239.898 318.386 239.851 317.533 239.801C317.531 239.801 317.53 239.801 317.529 239.801L317.526 239.801C316.171 239.704 314.244 239.566 312.864 240.83C312.526 241.134 312.205 241.433 311.891 241.725C311.258 242.314 310.655 242.875 309.999 243.4C307.798 244.952 304.909 244.8 302.308 243.645C300.594 242.839 299.063 242.263 297.496 242.078C295.915 241.892 294.331 242.109 292.514 242.836C288.005 244.64 283.563 245.917 279.507 242.805C278.488 242.005 277.586 241.085 276.694 240.145C276.567 240.011 276.441 239.877 276.314 239.743C275.555 238.939 274.792 238.13 273.981 237.413C272.065 235.717 269.833 234.485 266.552 234.802L266.515 234.806L266.479 234.815C266.451 234.822 266.44 234.819 266.439 234.819L266.439 234.819C266.438 234.818 266.437 234.818 266.434 234.816C266.428 234.81 266.4 234.777 266.4 234.7V234.688L266.399 234.675C266.217 231.025 268.033 227.707 269.78 224.513C269.867 224.355 269.953 224.197 270.039 224.039L270.039 224.039C272.185 220.09 273.747 215.776 275.269 211.572C275.536 210.834 275.802 210.1 276.069 209.372L276.07 209.37C277.136 206.419 277.755 203.28 278.367 200.178C278.51 199.449 278.654 198.723 278.802 198.001C279.581 194.218 280.509 190.544 282.381 187.242C282.62 187.209 282.846 187.177 283.069 187.145L283.071 187.145C283.399 187.098 283.723 187.052 284.088 187.006C287.482 187.602 291.271 188.099 294.671 188.299L294.672 188.299C296.522 188.402 298.457 188.098 300.377 187.5H300.377H300.377H300.378H300.378H300.379H300.38H300.38H300.381H300.381H300.382H300.383H300.383H300.384H300.384H300.385H300.386H300.386H300.387H300.387H300.388H300.388H300.389H300.39H300.39H300.391H300.391H300.392H300.393H300.393H300.394H300.394H300.395H300.395H300.396H300.397H300.397H300.398H300.398H300.399H300.4H300.4H300.401H300.401H300.402H300.403H300.403H300.404H300.404H300.405H300.405H300.406H300.407H300.407H300.408H300.408H300.409H300.41H300.41H300.411H300.411H300.412H300.412H300.413H300.414H300.414H300.415H300.415H300.416H300.417H300.417H300.418H300.418H300.419H300.42H300.42H300.421H300.421H300.422H300.422H300.423H300.424H300.424H300.425H300.425H300.426H300.427H300.427H300.428H300.428H300.429H300.429H300.43H300.431H300.431H300.432H300.432H300.433H300.434H300.434H300.435H300.435H300.436H300.437H300.437H300.438H300.438H300.439H300.439H300.44H300.441H300.441H300.442H300.442H300.443H300.444H300.444H300.445H300.445H300.446H300.446H300.447H300.448H300.448H300.449H300.449H300.45H300.451H300.451H300.452H300.452H300.453H300.453H300.454H300.455H300.455H300.456H300.456H300.457H300.458H300.458H300.459H300.459H300.46H300.461H300.461H300.462H300.462H300.463H300.463H300.464H300.465H300.465H300.466H300.466H300.467H300.468H300.468H300.469H300.469H300.47H300.47H300.471H300.472H300.472H300.473H300.473H300.474H300.475H300.475H300.476H300.476H300.477H300.478H300.478H300.479H300.479H300.48H300.48H300.481H300.482H300.482H300.483H300.483H300.484H300.485H300.485H300.486H300.486H300.487H300.487H300.488H300.489H300.489H300.49H300.49H300.491H300.492H300.492H300.493H300.493H300.494H300.495H300.495H300.496H300.496H300.497H300.497H300.498H300.499H300.499H300.5H300.5H300.501H300.502H300.502H300.503H300.503H300.504H300.504H300.505H300.506H300.506H300.507H300.507H300.508H300.509H300.509H300.51H300.51H300.511H300.512H300.512H300.513H300.513H300.514H300.514H300.515H300.516H300.516H300.517H300.517H300.518H300.519H300.519H300.52H300.52H300.521H300.521H300.522H300.523H300.523H300.524H300.524H300.525H300.526H300.526H300.527H300.527H300.528H300.528H300.529H300.53H300.53H300.531H300.531H300.532H300.533H300.533H300.534H300.534H300.535H300.536H300.536H300.537H300.537H300.538H300.538H300.539H300.54H300.54H300.541H300.541H300.542H300.543H300.543H300.544H300.544H300.545H300.545H300.546H300.547H300.547H300.548H300.548H300.549H300.55H300.55H300.551H300.551H300.552H300.553H300.553H300.554H300.554H300.555H300.555H300.556H300.557H300.557H300.558H300.558H300.559H300.56H300.56H300.561H300.561H300.562H300.562H300.563H300.564H300.564H300.565H300.565H300.566H300.567H300.567H300.568H300.568H300.569H300.57H300.57H300.571H300.571H300.572H300.572H300.573H300.574H300.574H300.575H300.575H300.576H300.577H300.577H300.578H300.578H300.579H300.579H300.58H300.581H300.581H300.582H300.582H300.583H300.584H300.584H300.585H300.585H300.586H300.587H300.587H300.588H300.588H300.589H300.589H300.59H300.591H300.591H300.592H300.592H300.593H300.594H300.594H300.595H300.595H300.596H300.596H300.597H300.598H300.598H300.599H300.599H300.6H300.628L300.655 187.497C301.155 187.441 301.643 187.304 302.096 187.166C302.192 187.136 302.286 187.107 302.378 187.078C302.718 186.973 303.036 186.874 303.356 186.8C304.201 186.797 305.046 186.725 305.889 186.584C305.894 186.623 305.898 186.663 305.903 186.705L305.905 186.721C305.929 186.935 305.957 187.188 306.015 187.421L306.032 187.488L306.066 187.548C306.406 188.144 306.501 188.84 306.603 189.755L306.607 189.793L306.617 189.83C307.729 193.976 309.446 197.91 311.456 201.73C312.515 203.808 313.533 205.919 314.551 208.033C316.01 211.063 317.472 214.096 319.06 217.038L319.06 217.038L319.066 217.048C319.169 217.229 319.275 217.421 319.387 217.624C319.69 218.177 320.036 218.806 320.484 219.477L320.496 219.495L320.51 219.512C320.934 220.043 321.47 220.581 322.123 221.016L322.249 221.1H322.393L322.395 221.102L322.455 221.136C324.006 222.008 325.541 223.261 326.588 224.783L326.619 224.828L326.659 224.866C328.121 226.23 329.221 227.826 329.403 229.552Z" fill="#FFFDFD" stroke="#BB6BD9"/>
<path fill-rule="evenodd" clip-rule="evenodd" d="M329.9 229.5C329.7 227.6 328.5 225.9 327 224.5C325.9 222.9 324.3 221.6 322.7 220.7C322.6 220.6 322.5 220.6 322.4 220.6C321.8 220.2 321.3 219.7 320.9 219.2C320.3 218.3 319.9 217.5 319.5 216.8C316.8 211.8 314.5 206.6 311.9 201.5C309.9 197.7 308.2 193.8 307.1 189.7C307 188.8 306.9 188 306.5 187.3C306.4 186.9 306.4 186.4 306.3 186C305.3 186.2 304.3 186.3 303.3 186.3C302.4 186.5 301.5 186.9 300.6 187C300.5 187 300.4 187 300.3 187C298.4 187.6 296.5 187.9 294.7 187.8C291.3 187.6 287.5 187.1 284.1 186.5C283.3 186.6 282.7 186.7 281.9 186.8C281.9 186.8 281.9 186.9 282 186.9C278.1 193.7 278.2 202 275.6 209.2C273.8 214.1 272.1 219.2 269.6 223.8C267.8 227.1 265.7 230.7 265.9 234.7C265.9 235.1 266.2 235.4 266.6 235.3C272.8 234.7 275 239.9 279.2 243.2C283.5 246.5 288.2 245.1 292.7 243.3C296.2 241.9 298.7 242.5 302.1 244.1C304.8 245.3 307.9 245.5 310.3 243.8C311.3 243 312.2 242.1 313.2 241.2C314.4 240.1 316.1 240.2 317.5 240.3C319.2 240.4 321.3 240.5 322.6 239.4C323.5 238.7 323.8 238 323.9 237C325.6 234.3 330.4 233.1 329.9 229.5Z" fill="#FFFDFD" stroke="#BB6BD9"/>
<path fill-rule="evenodd" clip-rule="evenodd" d="M239.713 105.26C240.556 105.074 241.413 104.97 242.32 104.934C243.691 104.88 244.593 104.941 247.384 105.211C250.382 105.501 252.073 105.577 254.243 105.425C255.37 105.353 256.407 105.261 257.746 105.122C257.687 105.128 259.504 104.936 259.989 104.888C260.805 104.808 261.47 104.754 262.111 104.72C263.471 104.646 264.714 104.664 266.011 104.792C264.966 99.776 265.854 88.6091 268.533 87.2194C280.578 80.7716 286.208 70.4741 285.53 57.135C284.692 39.9466 270.199 28.6951 251.644 29.6062C233.237 30.5099 220.3 43.1002 221.249 60.2965C221.864 73.0902 225.968 80.4678 237.359 86.6649C239.262 87.6728 240.068 91.1844 240.156 96.4654C240.206 99.4996 239.974 103.147 239.713 105.26Z" fill="#BB6BD9" fill-opacity="0.1" stroke="#BB6BD9"/>
<path d="M245.969 87.9738C246.146 87.843 246.356 87.7578 246.558 87.7024C246.302 87.8218 246.08 87.9957 245.904 88.2247C245.679 88.5171 245.553 88.8702 245.514 89.2564C245.437 88.5323 245.691 88.1788 245.969 87.9738Z" fill="#4D49FF" stroke="#BB6BD9"/>
<path fill-rule="evenodd" clip-rule="evenodd" d="M244.005 119.702C245.28 123.18 248.822 125.569 252.947 125.569C257.04 125.569 260.601 123.111 261.886 119.599L244.005 119.702Z" fill="white" stroke="#BB6BD9"/>
<path fill-rule="evenodd" clip-rule="evenodd" d="M239.622 103.87L239.727 113.435C239.83 116.845 242.734 119.592 246.3 119.592L259.903 119.37C263.508 119.267 266.277 116.497 266.277 113.013L266.172 103.443L239.622 103.87Z" fill="white" stroke="#BB6BD9"/>
<path d="M267.052 118.046H238.731V120.145H267.052V118.046Z" fill="white" stroke="#BB6BD9"/>
<path fill-rule="evenodd" clip-rule="evenodd" d="M162.105 94.5583L161.756 94.501L161.694 94.1522C160.507 87.4574 154.344 82.5 147.028 82.5C141.742 82.5 136.948 85.1315 134.168 89.3587L133.919 89.7387L133.517 89.5258C131.673 88.5492 129.533 88.0344 127.223 88.0344C121.928 88.0344 117.263 91.1046 115.631 95.4579L115.405 96.0589L114.878 95.6935C113.446 94.7016 111.653 94.1221 109.852 94.1221C105.256 94.1221 101.5 97.5557 101.5 101.702C101.5 105.849 105.256 109.282 109.852 109.282C113.377 109.282 113.377 109.282 118.764 109.282C123.717 109.282 123.717 109.282 127.223 109.282C127.715 109.282 133.496 109.742 134.72 109.828C140.357 110.224 145.47 110.425 150.343 110.36C164.706 110.17 173.193 107.657 173.193 102.256C173.193 97.1092 171.53 95.9099 165.242 95.0184C165.105 94.999 164.045 94.8507 163.722 94.8045C163.116 94.7175 162.605 94.6403 162.105 94.5583Z" fill="white" stroke="#BB6BD9"/>
<path fill-rule="evenodd" clip-rule="evenodd" d="M323.659 79.8529L323.6 80.2005L323.252 80.261C322.674 80.3616 322.083 80.4567 321.379 80.564C321.009 80.6204 319.787 80.8025 319.615 80.8285C312.458 81.9098 310.5 83.3132 310.5 89.0661C310.5 95.28 320.166 98.1598 336.525 98.3947C342.072 98.4744 347.887 98.2514 354.315 97.8061C355.613 97.7161 362.208 97.1997 362.777 97.1997C366.783 97.1997 366.783 97.1997 372.352 97.1997C378.54 97.1997 378.54 97.1997 382.583 97.1997C387.865 97.1997 392.151 93.3019 392.151 88.5127C392.151 83.7235 387.865 79.8257 382.583 79.8257C380.38 79.8257 378.377 80.4484 376.793 81.6105L376.258 82.0029L376.028 81.3806C374.175 76.3651 368.847 72.8524 362.777 72.8524C360.286 72.8524 357.814 73.4569 355.588 74.5705L355.184 74.7723L354.942 74.3917C351.851 69.5315 346.404 66.5432 340.317 66.5432C332.022 66.5432 324.961 72.2586 323.659 79.8529Z" fill="white" stroke="#BB6BD9"/>
<path fill-rule="evenodd" clip-rule="evenodd" d="M391.488 201.467V139.157H337.736V162.037H333.419L333.285 161.937C331.51 160.6 329.279 159.816 327.06 159.816C321.324 159.816 316.609 164.518 316.609 170.312C316.609 176.073 321.292 180.808 327.06 180.808C329.395 180.808 331.602 180.06 333.27 178.699L333.408 178.587H337.736V201.467H391.488Z" fill="white" stroke="#BB6BD9"/>
<path fill-rule="evenodd" clip-rule="evenodd" d="M374.237 157.48L374.229 157.481C366.706 158.236 362.179 158.371 357.41 157.701C351.719 156.926 346.924 153.716 340.647 147.566L340.577 147.481C338.664 144.526 337.128 143.213 335.789 143.886C334.561 144.461 333.885 146.027 333.75 148.048C333.599 149.259 334.476 150.004 336.153 150.393C338.079 150.926 339.426 151.943 342.045 154.461C342.237 154.645 342.332 154.738 342.428 154.829C343.342 155.706 343.909 156.221 344.513 156.701C347.025 158.675 349.755 160.32 352.699 161.634C357.601 163.757 362.558 164.63 370.123 165.037C370.387 165.056 371.633 165.15 371.99 165.175C374.914 165.386 377.093 165.46 379.292 165.362C386.55 165.037 390.657 162.819 390.714 157.89C390.624 155.359 387.749 154.763 382.524 155.654C381.463 155.835 380.346 156.07 379.063 156.372C378.333 156.543 375.975 157.126 376.202 157.071C375.22 157.31 374.644 157.433 374.237 157.48Z" fill="#FFFEFE" stroke="#BB6BD9"/>
<path fill-rule="evenodd" clip-rule="evenodd" d="M424.14 180.679C423.536 178.758 423.158 177.163 422.433 173.737C421.79 170.691 421.501 169.426 421.039 167.781C418.417 158.419 415.471 151.95 410.99 147.451C406.569 143.012 400.783 142.548 394.293 145.444C392.488 146.25 391.075 147.018 387.941 148.826C387.909 148.845 387.909 148.845 387.878 148.863C383.931 151.14 382.083 152.107 379.712 152.991C377.533 154.364 375.222 155.15 373.068 155.16C373.046 155.328 373.024 155.495 373.014 155.572C372.777 157.385 372.655 158.516 372.59 159.708C372.409 163.007 372.816 165.493 374.043 167.37C374.174 167.567 374.298 167.635 374.359 167.614C381.596 165.302 387.868 165.601 390.538 170.169C392.44 173.393 393.185 177.208 393.32 182.582C393.349 183.765 393.352 184.719 393.341 186.806C393.33 189.051 393.334 190.01 393.373 191.193C393.373 191.907 394.219 192.598 395.258 192.808C396.284 192.936 397.417 192.971 398.713 192.926C399.72 192.892 400.659 192.823 402.221 192.683C402.504 192.658 402.504 192.658 402.784 192.633C403.063 192.608 403.174 192.598 403.343 192.583C406.026 192.382 408.173 192.07 412.934 191.264C413.639 191.145 413.925 191.097 414.304 191.033C419.2 190.214 422.178 189.853 425.392 189.805C425.545 189.805 425.666 189.716 425.667 189.655C425.558 186.391 425.13 183.881 424.14 180.679Z" fill="white" stroke="#BB6BD9"/>
<path d="M280.886 182.295C280.9 182.271 280.913 182.246 280.927 182.222L281.354 181.474H280.493C280.641 181.474 280.779 181.567 280.844 181.696C280.874 181.757 280.882 181.807 280.882 181.863H280.382L280.453 182.358C280.602 182.337 280.734 182.317 280.886 182.295ZM282.582 182.037C282.607 182.033 282.632 182.03 282.657 182.026L282.666 182.025L282.499 182.021C282.527 182.026 282.555 182.032 282.582 182.037ZM298.926 182.585C298.949 182.579 298.973 182.572 298.996 182.565L298.854 182.085V182.585H298.926ZM301.904 181.919C301.923 181.914 301.942 181.909 301.962 181.904L301.841 181.919C301.862 181.919 301.883 181.919 301.904 181.919ZM304.424 181.678C304.595 181.647 304.765 181.612 304.936 181.574L304.827 181.086L304.342 181.206C304.375 181.341 304.395 181.457 304.424 181.678Z" fill="white" stroke="#BB6BD9"/>
<path d="M272.75 226.791C289.762 226.791 303.553 213.042 303.553 196.08C303.553 179.119 289.762 165.369 272.75 165.369C255.739 165.369 241.948 179.119 241.948 196.08C241.948 213.042 255.739 226.791 272.75 226.791Z" fill="white" stroke="#BB6BD9"/>
<path fill-rule="evenodd" clip-rule="evenodd" d="M309.419 156.713C308.457 149.272 305.196 144.789 299.491 141.534L299.384 141.452L299.385 141.453C299.254 141.321 299.199 141.277 299.072 141.214L298.942 141.12C298.944 141.122 298.944 141.122 298.906 141.103C298.831 141.065 298.774 141.033 298.721 140.994C296.907 140.464 294.728 140.267 291.985 140.267C287.206 140.163 282.763 141.975 279.188 145.34C279.19 145.339 279.189 145.341 279.171 145.377C279.107 145.505 279.061 145.579 278.967 145.674C278.251 146.393 277.644 147.134 277.155 147.92C274.631 151.918 273.454 157.823 273.582 163.981C273.582 164.038 273.58 164.036 273.671 164.037C273.932 164.056 274.14 164.073 274.607 164.114C275.299 164.173 275.605 164.197 275.985 164.217C276.843 164.264 277.544 164.248 278.21 164.152L278.657 164.088L278.766 164.526C278.872 164.951 278.958 165.416 279.038 165.963C279.07 166.181 279.1 166.407 279.135 166.678C279.154 166.829 279.215 167.331 279.218 167.352C279.896 172.021 280.108 176.516 280.108 183.307C280.108 183.476 280.106 183.474 280.346 183.479C284.754 184.143 289.162 184.586 293.574 184.807C295.721 184.934 297.323 184.885 298.887 184.591C299.741 184.455 300.552 184.187 301.873 183.649C301.993 183.601 302.091 183.56 302.31 183.47C303.633 182.927 304.251 182.697 305.037 182.489C305.179 182.453 305.228 182.347 305.169 182.226C304.695 181.409 304.594 180.546 304.644 179.025C304.647 178.936 304.649 178.866 304.655 178.708C304.684 177.94 304.687 177.614 304.659 177.198C304.659 176.445 304.613 175.68 304.523 174.806C304.457 174.166 304.432 173.967 304.223 172.389C304.194 172.209 304.169 172.028 304.146 171.845C303.942 170.194 303.953 168.885 304.106 165.959L304.107 165.954L304.127 165.566L304.507 165.49C305.957 165.199 307.328 164.996 309.694 164.703C309.699 164.703 309.747 164.641 309.749 164.493C309.941 162.274 309.817 159.912 309.419 156.713Z" fill="white" stroke="#BB6BD9"/>
<path fill-rule="evenodd" clip-rule="evenodd" d="M280.104 177.29C280.104 176.836 280.105 176.465 280.108 175.635C280.116 173.54 280.114 172.601 280.09 171.433C280.043 169.221 279.916 167.36 279.661 165.536C279.661 165.362 279.651 165.287 279.696 165.333L279.603 165.203C279.575 165.147 279.592 165.159 279.722 165.094L279.533 165.146C279.275 165.164 279.051 165.183 278.624 165.221C277.905 165.284 277.635 165.306 277.258 165.327C276.372 165.376 275.631 165.359 274.963 165.258C274.971 165.26 274.909 165.305 274.909 165.222C274.799 168.097 274.799 171.083 274.909 173.991C274.872 175.282 274.861 176.316 274.847 178.645C274.827 182.152 274.799 183.713 274.688 185.622C274.822 189.543 274.748 192.372 274.354 195.237C274.344 195.355 274.333 195.497 274.321 195.691C274.321 195.696 274.28 196.385 274.265 196.608C274.239 197 274.211 197.339 274.176 197.663C274.019 199.129 273.749 200.118 273.215 200.654C272.965 200.904 272.721 201.091 272.316 201.362C272.249 201.407 272.249 201.407 272.184 201.45C271.494 201.91 271.222 202.16 270.995 202.614C270.55 203.621 270.389 204.404 270.485 205.299C270.485 205.466 270.451 205.627 270.385 205.768C270.503 205.878 270.619 205.947 270.873 206.074C271.578 206.428 272.57 205.482 273.427 203.932C274.828 201.588 275.947 198.704 277.242 194.516C278.714 188.603 279.674 182.879 280.104 177.29Z" fill="#FFFDFD" stroke="#BB6BD9"/>
<path fill-rule="evenodd" clip-rule="evenodd" d="M301.705 158.624C301.185 159.078 300.509 159.67 300.185 159.964C299.962 160.167 299.753 160.36 299.556 160.546C298.874 161.193 298.36 161.738 298.038 162.17C296.746 163.899 295.509 164.352 291.187 165.03C290.278 165.169 289.209 165.266 288.01 165.329C286.77 165.394 285.477 165.418 284.218 165.413C285.192 165.86 286.156 166.307 287.066 166.733C287.212 166.802 287.212 166.802 287.357 166.87C289.928 168.078 291.588 168.903 292.06 169.235C294.012 170.592 293.822 173.233 291.187 177.044C290.778 177.618 289.798 178.37 288.332 179.302C287.991 179.519 287.627 179.743 287.243 179.973C286.373 180.495 285.441 181.023 284.51 181.531C284.421 181.58 284.333 181.627 284.247 181.674C284.473 181.731 284.744 181.792 285.065 181.854C285.912 182.016 286.974 182.153 288.273 182.253C289.796 182.368 292.486 182.108 295.983 181.561C296.951 181.409 297.963 181.238 299.007 181.052C300.514 180.782 302.013 180.493 303.433 180.204C303.931 180.103 304.382 180.009 304.78 179.925C304.815 179.918 304.848 179.911 304.88 179.904C304.88 179.758 304.881 179.537 304.881 179.168C304.999 177.153 304.976 175.921 304.775 174.608L304.772 174.583C304.553 172.424 304.144 170.187 303.406 166.82C303.315 166.405 303.227 166.006 303.087 165.375C302.318 161.92 301.972 160.276 301.705 158.624Z" fill="#FFFDFD" stroke="#BB6BD9"/>
<path fill-rule="evenodd" clip-rule="evenodd" d="M309.55 165.711C307.887 165.307 307.101 165.231 306.18 165.461C305.343 165.702 304.824 165.832 304.348 165.889C304.744 167.559 304.835 168.427 304.648 169.544C304.322 170.856 303.357 171.685 301.898 172.135V176.511C305.084 176.717 307.499 176.333 308.95 175.133C309.868 174.442 310.124 172.97 309.969 170.792L309.969 170.785C309.923 169.998 309.867 169.325 309.749 168.039C309.639 166.84 309.59 166.286 309.55 165.711Z" fill="#FFFDFD" stroke="#BB6BD9"/>
<path d="M289.323 143.139C290.545 143.369 291.555 143.488 292.494 143.491C293.245 143.407 293.962 143.183 294.647 142.833C293.787 139.462 293.594 137.564 294.151 135.372C294.156 134.447 294.276 133.537 294.518 132.696C294.85 131.863 294.85 131.863 295.199 130.991L295.199 130.992C295.525 130.337 295.667 130.032 295.862 129.548C296.123 129.025 296.028 128.691 295.512 128.453C295.208 128.615 294.831 128.602 294.509 128.441C294.124 128.248 293.894 127.868 293.98 127.479C293.941 127.369 293.929 127.25 293.929 127.105C293.929 127.023 293.929 126.981 293.929 126.94C293.833 126.771 293.819 126.576 293.819 126.217C293.819 125.442 293.516 124.505 292.992 123.451C292.2 121.95 290.595 121.474 288.799 122.037C285.598 122.841 284.906 126.315 285.306 132.77C285.306 134.121 285.926 135.311 286.836 135.381L286.967 135.392L287.076 135.464C287.249 135.581 287.539 135.599 288.026 135.501L288.079 135.493C289.138 135.396 289.467 136.356 289.477 137.934C289.479 138.288 289.466 138.641 289.437 139.093C289.433 139.165 289.414 139.447 289.41 139.51C289.403 139.635 289.399 139.717 289.399 139.767C289.399 141.438 289.386 142.279 289.323 143.139ZM295.14 142.988L295.148 143.003L294.776 143.1H294.716C294.712 143.084 294.708 143.068 294.704 143.052C294.704 143.037 294.704 143.016 294.704 142.988H295.14Z" fill="#FEFEFE" stroke="#BB6BD9"/>
<path fill-rule="evenodd" clip-rule="evenodd" d="M285.373 126.742C288.975 127.223 292.396 129.629 292.715 132.72C292.735 132.92 292.743 133.085 292.757 133.448C292.762 133.578 292.764 133.636 292.767 133.706C292.813 134.744 292.97 135.199 293.465 135.448C296.165 137.022 299.217 135.599 301.819 132.305L301.777 132.353C301.852 132.256 302.182 131.816 302.272 131.7C303.106 130.634 303.842 130.247 304.986 130.63C305.721 130.88 306.064 130.995 306.406 131.096C306.905 131.244 307.332 131.337 307.758 131.384C309.276 131.554 311.007 130.747 312.919 129.271C315.829 126.915 316.345 122.792 314.757 118.62L314.755 118.615C313.201 114.413 310.314 111.849 306.597 111.944C305.445 111.944 304.377 112.52 303.675 113.525C303.214 114.127 303.103 114.269 302.895 114.508C301.996 115.54 301.095 115.97 299.407 116.054C298.789 116.054 298.178 116.275 297.785 116.669C296.916 117.617 296.028 118.109 295.037 118.242C294.277 118.344 293.764 118.277 292.344 117.981C291.186 117.74 290.571 117.663 289.813 117.719C288.252 117.811 286.722 118.671 285.271 120.127C284.325 121.078 283.674 122.944 283.843 124.282C284.106 125.075 284.602 125.835 285.373 126.742Z" fill="white" stroke="#BB6BD9"/>
<path fill-rule="evenodd" clip-rule="evenodd" d="M313.439 166.918L314.061 166.232V143.044H259.477L258.66 143.947L259.73 164.481H261.411C263.409 162.993 265.904 162.148 268.436 162.148C275.018 162.148 280.329 167.482 280.329 174.088C280.329 180.695 275.018 186.029 268.436 186.029C265.904 186.029 263.409 185.183 261.411 183.696H259.477L258.66 184.6L259.731 205.143L313.237 206.349L314.061 205.44V182.268L311.131 182.357C308.525 185.083 306.854 186.029 303.831 186.029C297.287 186.029 292.049 180.733 292.049 174.217C291.819 167.635 297.101 162.259 303.721 162.259C306.72 162.259 310.872 164.413 313.439 166.918Z" fill="white" stroke="#BB6BD9"/>
<path fill-rule="evenodd" clip-rule="evenodd" d="M298.889 172.367C298.521 172.418 298.117 172.448 297.654 172.464C297.303 172.476 297.021 172.478 296.492 172.473C295.119 172.67 293.717 172.569 291.809 172.25C291.346 172.178 290.989 172.14 290.121 172.058C288.844 171.938 288.26 171.861 287.595 171.693C287.197 171.622 286.881 171.559 286.171 171.412C284.164 170.997 283.245 170.864 282.175 170.916C281.791 171.118 281.567 171.301 281.316 171.636C280.786 172.257 280.725 173.535 281.21 174.102C281.678 174.667 282.349 175.066 283.099 175.258C285.078 175.507 286.533 175.411 287.939 174.846L288.125 174.81C288.139 174.81 288.139 174.81 288.18 174.81C288.222 174.81 288.222 174.81 288.236 174.81C288.359 174.81 288.424 174.814 288.523 174.839C288.63 174.866 288.728 174.912 288.818 174.979C289.819 175.32 290.966 175.56 292.33 175.739C293.264 175.861 293.697 175.9 295.741 176.065C296.133 176.096 296.416 176.12 296.694 176.146C296.87 176.164 297.597 176.241 297.781 176.26C299.32 176.421 300.385 176.5 301.47 176.511C304.026 176.536 305.932 176.126 307.174 175.138C307.804 174.646 308.124 173.68 308.187 172.367H298.889Z" fill="#FFFDFD" stroke="#BB6BD9"/>
<path fill-rule="evenodd" clip-rule="evenodd" d="M187.192 278.705C189.154 279.068 191.097 278.902 193.126 278.262C195.29 277.284 197.179 276.116 199.029 274.593C199.033 274.448 199.039 274.283 199.052 274.029C199.087 273.282 199.087 272.958 199.026 272.497C199.026 272.506 198.978 272.442 199.084 272.442C197.902 272.442 196.895 272.497 194.585 272.663L194.549 272.664C194.535 272.664 194.535 272.664 194.494 272.664C194.484 272.664 194.476 272.664 194.47 272.664C193.144 273.489 191.768 274.44 190.419 275.456C190.371 275.491 189.675 275.993 189.469 276.146C188.261 277.042 187.587 277.743 187.273 278.563L187.223 278.661C187.209 278.681 187.2 278.695 187.192 278.705Z" fill="#FEFFF8" stroke="#BB6BD9"/>
<path fill-rule="evenodd" clip-rule="evenodd" d="M231.023 274.92C231.285 274.57 231.51 274.283 231.987 273.685C232.405 273.16 232.626 272.879 232.849 272.584C232.829 272.44 232.804 272.263 232.794 272.19C232.76 271.956 232.731 271.763 232.7 271.58C232.625 271.125 232.545 270.748 232.483 270.499C232.447 270.426 232.393 270.369 232.378 270.345C232.076 270.414 231.291 270.595 231.029 270.656C229.827 270.937 228.982 271.162 228.223 271.417L228.064 271.442C228.052 271.442 228.05 271.442 228.026 271.442C227.375 271.998 226.84 272.54 225.749 273.703C225.156 274.336 224.89 274.616 224.565 274.941C224.493 275.022 223.942 275.628 223.778 275.813C222.785 276.932 222.24 277.744 222.039 278.549C224.804 278.511 227.282 277.539 229.871 275.648L230.044 275.567C230.175 275.534 230.309 275.464 230.482 275.34C230.57 275.277 230.879 275.032 231.023 274.92Z" fill="#FEFFF7" stroke="#BB6BD9"/>
<path fill-rule="evenodd" clip-rule="evenodd" d="M231.382 248.506C230.276 241.953 229.28 235.066 225.52 229.513C223.418 226.403 224.745 222.293 225.077 218.739C225.409 214.963 226.073 211.186 226.515 207.521C227.511 200.301 228.174 192.748 225.741 185.751C224.524 182.197 221.98 177.309 218.109 175.754H217.998C211.472 177.754 204.283 178.198 197.646 176.532C193 183.529 191.894 192.304 190.346 200.523C188.576 210.298 187.691 220.294 187.912 230.29C188.134 240.398 189.793 250.394 191.562 260.391C191.894 262.612 192.337 264.833 192.669 267.055C192.89 268.277 192.558 270.276 193.222 271.498C194.217 273.386 198.31 273.719 200.19 273.608C200.632 273.608 200.964 273.275 200.854 272.831C199.969 267.388 201.185 261.835 201.517 256.392C201.849 251.394 201.849 246.285 201.407 241.175C201.185 238.287 200.743 235.4 200.632 232.512C200.522 229.624 201.185 226.958 202.181 224.181C203.84 219.405 205.61 214.74 207.048 209.853C207.49 208.076 207.933 206.299 208.375 204.522V204.633C209.26 209.853 209.371 215.296 209.702 220.516C209.924 224.959 210.034 229.846 211.693 234.067C213.353 238.399 215.454 242.508 216.892 246.951C218.441 251.394 219.989 255.837 221.648 260.28C222.533 262.612 223.529 265.056 224.414 267.499C224.856 268.61 224.967 269.943 225.52 270.942C225.851 271.498 226.405 271.609 226.958 271.609C228.949 271.942 231.161 270.942 233.262 271.053C233.594 271.053 233.926 270.831 233.926 270.387C233.594 263.278 232.599 255.837 231.382 248.506Z" fill="white" stroke="#BB6BD9"/>
<path fill-rule="evenodd" clip-rule="evenodd" d="M199.526 272.386C199.526 272.386 196.208 239.62 196.54 234.622C196.872 229.624 202.292 211.519 203.951 208.187C205.721 204.855 208.375 204.744 208.375 204.744L205.057 271.831L200.19 273.719L199.526 272.386Z" fill="white" stroke="#BB6BD9"/>
<path fill-rule="evenodd" clip-rule="evenodd" d="M233.373 271.387C233.373 271.387 225.741 234.178 223.86 231.623C221.98 229.068 220.21 226.625 221.427 223.293C222.533 219.961 227.4 196.414 227.4 196.414L239.456 267.721L237.908 274.274L233.373 271.387Z" fill="white" stroke="#BB6BD9"/>
<path fill-rule="evenodd" clip-rule="evenodd" d="M244.213 162.537C238.461 161.87 234.922 156.317 230.94 152.652C226.405 148.431 223.308 142.988 218.109 139.656C211.583 135.436 199.858 135.991 193.332 140.545C191.563 141.767 186.917 148.653 185.59 151.43C183.709 155.317 181.608 159.205 179.174 162.87C177.737 164.98 176.077 166.202 173.865 167.202C172.759 167.757 171.542 168.202 170.547 169.09C172.206 171.089 173.755 173.311 174.75 175.754C176.077 175.421 177.294 174.866 178.511 173.977C181.94 171.423 185.258 168.535 188.355 165.536C190.346 163.648 192.448 161.315 193.332 158.649C195.213 162.759 196.761 166.98 196.54 171.645C196.43 173.977 195.655 177.532 198.199 178.864C200.854 180.308 204.836 179.642 207.712 179.42C212.136 179.087 216.561 179.975 220.985 179.087C221.538 178.975 221.538 178.42 221.317 177.976C218.662 174.533 218.441 169.534 218.33 165.425C218.33 161.537 218.662 157.539 219.768 153.762C222.865 157.428 225.409 161.537 229.059 164.647C232.71 167.646 237.355 169.312 241.78 170.756C241.448 167.868 242.333 165.314 243.881 163.203C243.992 162.981 244.102 162.759 244.213 162.537Z" fill="#FBFBFB" stroke="#BB6BD9"/>
<path d="M219.292 153.823C219.294 153.825 219.295 153.828 219.296 153.83L224.589 177.152C224.471 177.178 224.332 177.209 224.174 177.243C223.594 177.37 222.761 177.551 221.747 177.768C219.718 178.202 216.965 178.777 214.072 179.346C211.179 179.914 208.147 180.475 205.559 180.88C202.957 181.287 200.854 181.527 199.779 181.475C197.608 181.315 195.746 180.542 194.42 179.802C193.757 179.433 193.233 179.074 192.876 178.808C192.736 178.705 192.622 178.616 192.536 178.546L193.563 170.5C193.613 170.488 193.669 170.476 193.729 170.462C194.056 170.386 194.529 170.275 195.113 170.133C196.282 169.849 197.898 169.442 199.688 168.947C203.255 167.962 207.556 166.618 210.37 165.205C215.058 162.851 216.569 158.519 217.53 155.765C217.744 155.149 217.932 154.613 218.121 154.195C218.38 153.65 218.592 153.449 218.708 153.384C218.782 153.342 218.826 153.346 218.896 153.384C218.993 153.436 219.099 153.543 219.192 153.671C219.235 153.73 219.269 153.784 219.292 153.823Z" fill="#D33D09" stroke="#BB6BD9"/>
<path d="M173.808 174.556C173.774 174.571 173.744 174.582 173.709 174.596C173.688 174.604 173.665 174.613 173.637 174.624C173.541 174.662 173.414 174.721 173.289 174.846L173.144 174.993V175.06C171.03 176.606 168.544 177.386 165.943 178.202C165.292 178.406 164.634 178.613 163.972 178.834L163.972 178.834L163.964 178.837C163.721 178.923 163.476 179.018 163.238 179.11L163.198 179.126C162.971 179.214 162.75 179.299 162.532 179.378C162.066 179.547 161.644 179.672 161.269 179.714C160.898 179.756 160.612 179.711 160.384 179.579C160.16 179.449 159.925 179.196 159.733 178.69C159.346 177.635 159.213 176.913 159.359 176.388C159.488 175.924 159.884 175.482 160.972 175.118L160.972 175.118L160.982 175.114C162.105 174.712 163.215 174.493 164.366 174.265C164.759 174.188 165.156 174.109 165.56 174.022C166.158 173.902 166.745 173.666 167.283 173.45L167.304 173.442L167.323 173.434L167.342 173.424L167.674 173.258L168.006 173.091C168.692 172.747 169.371 172.294 169.94 171.84C170.023 171.792 170.104 171.733 170.169 171.683C170.225 171.64 170.289 171.589 170.352 171.539C170.382 171.515 170.412 171.491 170.441 171.468C170.635 171.315 170.821 171.178 170.992 171.092L171.268 170.954V170.645V170.644V170.644V170.643V170.642V170.642V170.641V170.641V170.64V170.639V170.639V170.638V170.637V170.637V170.636V170.636V170.635V170.634V170.634V170.633V170.633V170.632V170.631V170.631V170.63V170.63V170.629V170.628V170.628V170.627V170.627V170.626V170.626V170.625V170.624V170.624V170.623V170.623V170.622V170.622V170.621V170.62V170.62V170.619V170.619V170.618V170.618V170.617V170.617V170.616V170.616V170.615V170.614V170.614V170.613V170.613V170.612V170.612V170.611V170.611V170.61V170.61V170.609V170.609V170.608V170.608V170.607V170.607V170.606V170.606V170.605V170.605V170.604V170.604V170.603V170.603V170.602V170.602V170.601V170.601V170.6V170.6V170.599V170.599V170.598V170.598V170.597V170.597V170.597V170.596V170.596V170.595V170.595V170.594V170.594V170.593V170.593V170.592V170.592V170.592V170.591V170.591V170.59V170.59V170.589V170.589V170.588V170.588V170.588V170.587V170.587V170.586V170.586V170.585V170.585V170.585V170.584V170.584V170.583V170.583V170.582V170.582V170.582V170.581V170.581V170.58V170.58V170.58V170.579V170.579V170.578V170.578V170.578V170.577V170.577V170.576V170.576V170.576V170.575V170.575V170.574V170.574V170.574V170.573V170.573V170.572V170.572V170.572V170.571V170.571V170.57V170.57V170.57V170.569V170.569V170.569V170.568V170.568V170.567V170.567V170.567V170.566V170.566V170.566V170.565V170.565V170.565V170.564V170.564V170.563V170.563V170.563V170.562V170.562V170.562V170.561V170.561V170.561V170.56V170.56V170.559V170.559V170.559V170.558V170.558V170.558V170.557V170.557V170.557V170.556V170.556V170.556V170.555V170.555V170.555V170.554V170.554V170.554V170.553V170.553V170.553V170.552V170.552V170.552V170.551V170.551V170.55V170.55V170.55V170.549V170.549V170.549V170.548V170.548V170.548V170.547V170.547V170.547V170.546V170.546V170.546V170.545V170.545V170.545V170.544V170.544V170.544V170.543V170.543V170.543V170.542V170.542V170.542V170.542V170.541V170.541V170.541V170.54V170.54V170.54V170.539V170.539V170.539V170.538V170.538V170.538V170.537V170.537V170.537V170.536V170.536V170.536V170.535V170.535V170.535V170.534V170.534V170.534V170.533V170.533V170.533V170.532V170.532V170.532V170.531V170.531V170.531V170.53V170.53V170.53V170.529V170.529V170.529V170.528V170.528V170.528V170.527V170.527V170.527V170.527V170.526V170.526V170.526V170.525V170.525V170.525V170.524V170.524V170.524V170.523V170.523V170.523V170.522V170.522V170.522V170.521V170.521V170.521V170.52V170.52V170.52V170.519V170.519V170.519V170.518V170.518V170.518V170.517V170.517V170.517V170.516V170.516V170.515V170.515V170.515V170.514V170.514V170.514V170.513V170.513V170.513V170.512V170.512V170.512V170.511V170.511V170.511V170.51V170.51V170.51V170.509V170.509V170.509V170.508V170.508V170.507V170.507V170.507V170.506V170.506V170.506V170.505V170.505V170.505V170.504V170.504V170.504V170.503V170.503V170.502V170.502V170.502V170.501V170.501V170.501V170.5V170.5V170.499V170.499V170.499V170.498V170.498V170.498V170.497V170.497V170.496V170.496V170.496V170.495V170.495V170.494V170.494V170.494V170.493V170.493V170.492V170.492V170.492V170.491V170.491V170.491V170.49V170.49V170.489V170.489V170.488V170.488V170.488V170.487V170.487V170.486V170.486V170.486V170.485V170.485V170.484V170.484V170.483V170.483V170.483V170.482V170.482V170.481V170.481V170.48V170.48V170.48V170.479V170.479V170.478V170.478V170.477V170.477V170.477V170.476V170.476V170.475V170.475V170.474V170.474V170.473V170.473V170.472V170.472V170.471V170.471V170.471V170.47V170.47V170.469V170.469V170.468V170.468V170.467V170.467V170.466V170.466V170.465V170.465V170.464V170.464V170.463V170.463V170.462V170.462V170.461V170.461V170.46V170.46V170.459V170.459V170.458V170.458V170.457V170.457V170.456V170.456V170.455V170.455V170.454V170.454V170.453V170.453V170.452V170.451V170.451V170.45V170.45V170.449V170.449V170.448V170.448V170.447V170.446V170.446V170.445V170.445V170.444V170.444V170.443V170.443V170.442V170.441V170.441V170.44V170.44V170.439V170.438V170.438V170.437V170.437V170.436V170.435V170.435V170.434V170.434V170.433V170.432V170.432V170.431V170.431V170.43V170.429V170.429V170.428V170.427V170.427V170.426V170.426V170.425V170.424V170.424V170.423C171.268 170.373 171.277 170.336 171.287 170.312C171.289 170.308 171.29 170.305 171.291 170.303C171.297 170.305 171.304 170.308 171.313 170.312C172.01 170.688 172.474 171.305 172.866 172.079C173.063 172.468 173.235 172.884 173.412 173.32C173.433 173.373 173.455 173.427 173.477 173.482C173.611 173.813 173.749 174.155 173.898 174.487L173.808 174.556Z" fill="#FFD2D7" stroke="#BB6BD9"/>
<path fill-rule="evenodd" clip-rule="evenodd" d="M249.077 167.538C248.188 167.116 247.299 166.756 245.918 166.24C245.747 166.176 245.596 166.12 245.272 166C244.17 165.591 243.56 165.358 242.939 165.101C242.786 165.214 242.572 165.377 242.447 165.467C241.492 166.575 241.087 168.725 241.763 169.829L241.837 169.949V170.09C241.837 170.271 241.834 170.342 241.817 170.449C241.801 170.543 241.775 170.633 241.737 170.728C241.752 170.782 241.776 170.812 241.78 170.812C242.015 170.812 242.015 170.812 242.222 170.812C242.429 170.812 242.429 170.812 242.664 170.812L242.877 170.859C243.704 171.247 244.374 171.456 245.901 171.852C246.845 172.097 247.268 172.214 247.801 172.392C249.293 172.892 250.704 173.804 252.818 175.473L252.933 175.601C253.448 176.429 253.882 177.351 254.432 178.744C254.45 178.817 254.428 178.809 254.721 178.809C254.844 178.809 254.881 178.807 254.915 178.802C254.948 178.796 254.985 178.783 255.05 178.751L255.155 178.698H255.274C255.239 178.698 255.327 178.559 255.327 178.42V177.92H255.827C255.936 177.92 255.991 177.871 255.991 177.726C256.096 175.826 255.893 174.154 255.394 172.804C252.786 170.044 251.165 168.634 249.077 167.538Z" fill="white" stroke="#BB6BD9"/>
<path fill-rule="evenodd" clip-rule="evenodd" d="M216.892 122.551C215.786 121.996 214.68 121.885 213.684 121.107C212.689 120.33 212.247 119.108 211.804 117.997C211.14 116.665 210.366 115.665 208.928 115.11C207.269 114.443 206.052 115.11 204.504 115.776C202.513 116.553 200.301 114.665 198.31 116.109C196.651 117.22 195.987 118.997 194.77 120.441C193.885 121.552 192.005 121.774 191.341 123.107C190.125 125.661 192.779 127.883 195.102 128.66C195.102 128.771 195.213 128.771 195.213 128.882C196.54 129.993 197.646 130.66 199.305 131.104C201.628 131.659 201.628 134.103 202.623 135.88C203.177 136.879 204.725 137.546 205.831 137.213C206.716 136.991 207.49 136.435 208.265 135.88C209.481 134.991 210.809 136.324 212.025 136.546C213.242 136.768 214.901 136.213 215.786 135.436C216.118 135.213 216.228 134.769 216.228 134.325C216.228 132.881 216.671 132.215 217.445 130.993C219.104 128.438 220.321 124.217 216.892 122.551Z" fill="white" stroke="#BB6BD9"/>
<path fill-rule="evenodd" clip-rule="evenodd" d="M205.823 137.733C205.481 135.817 205.438 134.254 205.774 132.658C205.779 131.762 205.906 130.814 206.141 130.075C206.196 129.929 206.184 129.964 206.332 129.537C206.371 129.426 206.4 129.345 206.429 129.264C206.552 128.931 206.675 128.658 206.821 128.404C207.153 127.704 207.153 127.704 207.464 127.055C207.673 126.47 207.621 126.225 207.173 126.069C206.516 126.482 205.532 125.908 205.62 125.115C205.568 124.987 205.552 124.848 205.552 124.675C205.552 124.617 205.552 124.617 205.552 124.559C205.552 124.536 205.552 124.518 205.552 124.502C205.456 124.325 205.442 124.119 205.442 123.743C205.442 122.961 205.167 122.006 204.726 121.192C204.028 119.813 202.617 119.362 200.862 119.824C198.839 120.343 197.855 122.388 197.604 125.742C197.518 126.887 197.52 127.941 197.576 129.632C197.584 129.889 197.584 129.889 197.593 130.152C197.593 131.443 198.103 132.517 198.961 132.668C199.445 132.77 199.813 132.77 200.179 132.674L200.251 132.66C201.243 132.556 201.572 133.491 201.617 135.017C201.628 135.4 201.62 135.78 201.598 136.261C201.58 136.616 201.575 136.727 201.575 136.795C201.575 137.775 201.586 137.172 201.575 137.733C201.563 138.326 205.941 138.392 205.823 137.733Z" fill="white" stroke="#BB6BD9"/>
<path fill-rule="evenodd" clip-rule="evenodd" d="M234.643 147.265H180.338V170.146H176.029L175.899 170.053C173.955 168.676 171.843 167.924 169.662 167.924C163.926 167.924 159.211 172.626 159.211 178.42C159.211 184.182 163.894 188.916 169.662 188.916C171.997 188.916 174.204 188.168 175.872 186.807L176.01 186.695H180.338V209.575H234.643V186.695H237.735L237.865 186.787C239.809 188.164 241.921 188.916 244.102 188.916C249.838 188.916 254.553 184.214 254.553 178.429C254.446 172.662 249.761 167.924 244.102 167.924C241.767 167.924 239.56 168.672 237.892 170.033L237.754 170.146H234.643V147.265Z" fill="white" stroke="#BB6BD9"/>
<path fill-rule="evenodd" clip-rule="evenodd" d="M157.28 183.402C157.321 183.431 157.364 183.467 157.406 183.509L157.407 183.51C157.736 183.841 158.049 184.029 158.368 184.039C159.589 184.284 160.671 183.361 161.002 181.928C161.533 180.328 161.258 178.206 160.318 177.073L160.307 177.06C159.756 176.348 159.181 176.252 158.518 176.632L158.331 176.74L158.125 176.678C157.515 176.494 157.042 177.062 156.738 178.38C156.484 179.48 156.426 180.986 156.55 181.67C156.662 182.345 156.876 182.895 157.222 183.329L157.28 183.402Z" fill="white" stroke="#BB6BD9"/>
<path fill-rule="evenodd" clip-rule="evenodd" d="M253.877 179.069L253.881 179.086C254.2 180.473 255.282 181.396 256.503 181.151C256.911 181.069 257.162 180.925 257.464 180.622C257.533 180.553 257.533 180.553 257.574 180.511C257.616 180.469 257.616 180.469 257.648 180.441C257.994 180.007 258.208 179.457 258.322 178.775C258.444 178.098 258.386 176.592 258.133 175.492C257.829 174.174 257.355 173.606 256.746 173.79L256.539 173.852L256.353 173.745C255.748 173.398 255.131 173.522 254.569 174.166C253.722 175.3 253.444 177.438 253.877 179.069Z" fill="white" stroke="#BB6BD9"/>
<path fill-rule="evenodd" clip-rule="evenodd" d="M110.739 282.22C110.541 282.229 110.355 282.237 109.952 282.256C108.395 282.327 107.667 282.35 106.775 282.341C105.469 282.328 104.321 282.227 103.243 282.009C103.243 282.077 103.243 282.16 103.243 282.272H102.243H103.243H102.243H103.243L103.229 282.387C103.175 282.614 103.151 282.719 103.121 282.847C102.916 283.726 102.795 284.353 102.727 284.976C102.515 286.885 102.902 288.182 104.089 288.942C104.596 289.219 105.377 289.394 106.381 289.479C107.035 289.534 107.584 289.547 108.605 289.547C109.475 289.547 110.172 289.533 111.744 289.491C113.325 289.45 114.028 289.436 114.91 289.436C115.104 289.436 115.105 289.436 115.814 289.463C116.635 289.494 117.167 289.5 117.731 289.47C119.189 289.393 120.128 289.068 120.453 288.457C120.881 287.741 120.242 286.574 119.258 286.179L119.167 286.13C118.938 285.977 118.748 285.898 118.291 285.745L118.225 285.717C118.176 285.693 118.127 285.677 117.996 285.645C117.795 285.594 117.696 285.563 117.553 285.491C117.38 285.4 117.204 285.307 116.973 285.185C116.685 285.033 116.685 285.033 116.398 284.881C115.932 284.635 115.592 284.456 115.257 284.283C113.469 283.356 112.119 282.73 110.739 282.22Z" fill="white" stroke="#BB6BD9"/>
<path fill-rule="evenodd" clip-rule="evenodd" d="M59.8839 279.269V279.292L59.826 279.396L58.8839 281.288V281.266C58.1447 283.002 58.1577 284.162 59.0946 285.161C59.4936 285.612 60.1937 285.983 61.1876 286.314C61.4464 286.4 61.7191 286.482 62.0403 286.572C62.2248 286.623 62.82 286.784 62.8519 286.793C63.5754 287.02 64.1722 287.175 65.5304 287.506C66.9098 287.842 67.5205 288.001 68.2935 288.244C68.3129 288.251 68.6831 288.388 68.8083 288.433C69.033 288.514 69.2341 288.585 69.4352 288.652C69.9581 288.826 70.4359 288.96 70.8833 289.053C72.0226 289.288 72.8184 289.212 73.165 288.83C73.6818 288.237 73.4312 287.118 72.6881 286.559L72.5723 286.436C72.4362 286.231 72.2132 286.052 71.9903 285.94L71.8603 285.846C71.7291 285.714 71.6747 285.67 71.5478 285.606L71.4179 285.512C69.469 283.555 67.9739 282.22 66.3629 281.069C66.1492 281.019 65.9301 280.968 65.5856 280.888C65.0416 280.762 64.9407 280.739 64.7026 280.683C62.6021 280.186 61.215 279.747 59.9452 279.082C59.9253 279.154 59.9066 279.212 59.8839 279.269Z" fill="white" stroke="#BB6BD9"/>
<path fill-rule="evenodd" clip-rule="evenodd" d="M98.5029 186.802C97.4581 184.78 96.8634 182.401 96.7235 179.876C96.1172 179.402 95.0493 179.317 93.4695 179.475C92.0865 179.525 90.759 179.401 88.7846 179.095C88.5314 179.055 88.3405 179.025 87.8693 178.949C86.068 178.66 85.2495 178.547 84.2938 178.475C81.6905 178.594 79.7772 178.006 75.754 176.226C75.724 176.212 75.724 176.212 75.6941 176.199C73.556 175.253 72.4516 174.808 71.2664 174.481C70.5591 177.747 69.8285 180.637 68.3226 186.319C67.4623 189.565 67.1543 190.739 66.7337 192.397C66.2371 196.305 66.1597 200.391 66.4056 205.235C66.7391 207.803 67.1591 210.029 68.0643 214.322C68.1107 214.542 68.1107 214.542 68.1571 214.762C69.5529 221.376 70.0642 224.355 70.2803 228.152C70.7623 236.768 69.1375 244.359 64.9451 256.553C64.1485 258.892 63.5597 260.764 62.2708 264.98C61.6252 267.091 61.3361 268.03 60.9673 269.203C59.3885 274.276 58.7455 276.931 58.5596 279.998C62.3854 280.426 66.3605 281.375 70.5171 282.806C70.5284 282.756 70.5298 282.684 70.5126 282.615L70.4725 282.454L70.5367 282.3C74.7705 272.203 77.8 264.253 80.2546 256.464C82.9514 247.906 84.6432 239.083 85.432 229.692C85.5088 228.797 85.5718 228.081 85.7148 226.47C86.4281 218.429 86.681 214.858 86.7575 210.4L86.8079 207.467L87.732 210.251C87.7486 210.301 87.7486 210.301 87.7652 210.351C87.8269 210.537 87.8269 210.537 87.8887 210.723C87.9763 210.987 87.9763 210.987 88.0622 211.246C88.3702 212.143 88.6102 212.86 89.1453 214.472C89.4125 215.277 89.5315 215.634 89.6811 216.081C90.334 218.031 90.8398 219.477 91.376 220.897C91.9468 222.425 92.5171 223.778 93.5714 226.165C93.5795 226.184 93.9377 226.994 94.0408 227.228C94.2194 227.633 94.3665 227.968 94.5066 228.29C97.0104 234.044 98.0927 237.747 98.1548 242.175C98.1548 247.32 98.5483 252.531 99.3715 259.724C99.3715 260.455 99.4755 261.186 99.7008 262.007C99.7457 262.458 99.7955 262.807 99.9185 263.59C100.044 264.39 100.096 264.753 100.14 265.202C100.19 265.528 100.243 265.869 100.31 266.293C100.344 266.506 100.463 267.261 100.485 267.402C100.747 269.059 100.902 270.096 101.043 271.187C101.185 272.286 101.291 273.287 101.362 274.275C101.362 274.582 101.376 274.818 101.416 275.347C101.459 275.901 101.473 276.155 101.473 276.496C101.473 276.829 101.473 276.829 101.473 277.051C101.473 278.15 101.482 278.664 101.527 279.293C101.586 280.123 101.702 280.833 101.894 281.459L101.916 281.605C101.916 281.76 101.928 281.877 101.966 282.146C102.009 282.451 102.025 282.603 102.026 282.81C102.026 282.773 102.026 282.772 102.04 282.776C102.578 282.854 102.786 282.886 104.079 283.094C105.82 283.373 106.768 283.506 107.825 283.597C109.245 283.719 110.485 283.713 111.574 283.565C113.229 283.128 113.751 282.041 113.636 279.63L113.636 279.623C113.591 278.26 113.459 277.162 113.088 274.682C112.712 272.163 112.577 271.04 112.53 269.627C112.434 266.823 112.395 264.087 112.377 260.004C112.375 259.471 112.374 259.044 112.37 258.087C112.357 254.253 112.345 252.547 112.308 250.399C112.192 237.565 110.859 225.737 108.119 214.411C107.067 209.977 105.779 206.052 103.236 199.098C103.101 198.729 102.983 198.409 102.73 197.718C102.089 195.968 101.761 195.067 101.415 194.09C99.5872 190.587 98.8864 188.96 98.5029 186.802Z" fill="white" stroke="#BB6BD9"/>
<path d="M112.961 158.782C113.396 157.41 113.792 156.365 114.718 154.058C115.169 152.937 115.372 152.425 115.628 151.757C113.542 151.466 112.075 150.695 109.173 148.699C109.125 148.666 109.125 148.666 109.078 148.634C108.054 147.93 107.577 147.612 106.99 147.259C106.447 146.94 105.995 146.697 104.965 146.16C103.921 145.614 103.46 145.367 102.881 145.027C101.893 144.396 101.097 143.996 99.2928 143.172L99.2753 143.16L98.7655 142.961C96.8878 142.228 94.8634 141.885 92.532 141.885C90.9448 141.885 89.6667 141.653 87.1563 141.023C87.0675 141 87.0675 141 86.9788 140.978C84.536 140.364 83.4303 140.151 81.9895 140.106C77.6253 139.804 70.0023 146.432 69.5344 151.757C69.4415 152.877 66.2948 168.183 66.2644 169.153C66.2644 169.579 66.2411 169.858 66.1295 170.961C66.0846 171.405 66.0587 171.686 66.0376 171.978C65.9448 173.268 66.0188 174.138 66.3157 174.692C66.6859 175.382 67.4714 175.834 68.7361 176.182C68.9739 176.248 69.2217 176.308 69.5344 176.379C69.6145 176.397 70.1531 176.517 70.1888 176.539L70.3071 176.553C71.5188 176.848 72.4896 177.066 74.676 177.545C77.9694 178.267 79.4351 178.608 81.2834 179.114C83.3424 179.735 85.5901 180.088 88.0304 180.205C88.14 180.212 88.2569 180.221 88.4019 180.232C88.593 180.247 88.593 180.247 88.7886 180.262C89.4637 180.314 89.8783 180.339 90.3167 180.346C91.6129 180.366 92.5334 180.188 93.1037 179.759C93.9498 179.079 94.512 177.901 94.9212 176.257C95.4745 173.911 95.7687 171.795 96.1969 167.682C96.2196 167.463 96.2196 167.463 96.2423 167.245C96.4458 165.284 96.5426 164.403 96.6826 163.306C96.7062 163.14 96.7285 162.972 96.7611 162.717C96.8495 162.025 96.8585 161.957 96.9001 161.675C97.1172 160.203 97.415 159.212 97.9905 158.417C98.7108 157.431 99.7501 157.237 101.024 157.607C101.431 157.725 101.835 157.888 102.365 158.133C102.49 158.191 102.909 158.389 102.89 158.38C103.083 158.47 103.22 158.532 103.354 158.588C106.067 159.799 107.695 160.388 109.443 160.665C109.927 160.762 110.295 160.762 110.661 160.67L110.881 160.665C111.384 160.766 111.697 160.748 112.023 160.585C112.292 160.469 112.504 160.156 112.698 159.611C112.76 159.437 112.934 158.864 112.961 158.782ZM98.9463 142.96C98.941 142.956 98.9358 142.953 98.9306 142.949C98.9384 142.948 98.9517 142.946 98.9801 142.946C99.05 142.946 99.1131 142.933 99.1686 142.909V142.995C99.0842 142.995 99.0179 142.983 98.9463 142.96Z" fill="white" stroke="#BB6BD9"/>
<path fill-rule="evenodd" clip-rule="evenodd" d="M78.4316 178.156C78.7604 178.262 79.127 178.377 79.527 178.5C80.8816 178.917 82.3405 179.333 83.8476 179.722C85.649 180.186 87.3977 180.579 89.0469 180.877C92.5756 181.515 95.4268 181.68 97.3175 181.266C98.091 181.081 98.7329 180.417 99.2356 179.399C99.4583 178.948 99.637 178.46 99.7745 177.972C99.8567 177.68 99.9064 177.456 99.928 177.333C99.9494 177.212 99.9897 176.983 100.046 176.658C100.14 176.115 100.245 175.501 100.358 174.827C100.681 172.903 101.004 170.891 101.305 168.891C101.467 167.818 101.618 166.776 101.757 165.774C102.268 162.081 102.589 159.099 102.663 157.095C102.699 156.114 102.674 155.388 102.592 154.964C102.296 155.297 101.568 156.119 101.42 156.286C100.832 156.948 100.32 157.517 99.7901 158.096C98.3794 159.639 97.0256 161.047 95.6501 162.381C92.9248 165.023 90.3311 167.156 87.8748 168.673C86.8508 169.305 85.8604 169.822 84.9051 170.218C83.5917 170.763 82.5269 171.363 81.6897 172.008C80.5685 172.872 79.8987 173.777 79.5835 174.685C79.3711 175.297 79.3414 175.836 79.4141 176.263C79.4255 176.33 79.4355 176.371 79.4391 176.382L79.5128 176.618L78.4316 178.156Z" fill="white" stroke="#BB6BD9"/>
<path fill-rule="evenodd" clip-rule="evenodd" d="M89 143.319C89.0032 143.327 89.0004 143.355 89.0042 143.395C90.6908 145.076 92.0628 146.121 93.3561 146.562C94.9513 147.105 96.2667 146.628 97.3934 144.868L97.4183 144.824C97.5274 144.652 97.6421 144.445 97.8009 144.14C97.7628 144.213 98.1281 143.505 98.2342 143.307C99.0884 141.711 99.8499 140.894 101.015 140.816L101.242 140.801L101.403 140.962C102.201 141.764 103.412 142.068 104.234 141.656C104.911 141.278 105.347 140.339 105.408 139.248C105.196 139.072 105.083 138.846 105.083 138.538C105.083 137.258 106.124 136.522 107.227 136.927C107.245 136.927 107.264 136.927 107.296 136.927C107.296 136.899 107.296 136.868 107.296 136.817C107.296 136.692 107.296 136.692 107.296 136.539C107.296 136.428 107.296 136.428 107.296 136.428C107.296 136.358 107.296 136.358 107.296 136.317C107.296 136.293 107.296 136.283 107.296 136.266C107.256 136.103 107.238 135.991 107.191 135.684C107.168 135.536 107.151 135.439 107.13 135.358C107.121 135.348 107.117 135.345 107.109 135.337L106.982 135.209L106.966 135.029C106.658 131.628 106.044 129.618 104.631 128.616L104.508 128.492C103.523 127.064 102.291 126.23 100.729 126.033C100.247 125.936 99.3496 126.057 98.7019 126.335L98.5941 126.368C97.3651 126.592 96.3268 127.14 95.6814 127.972C94.8498 128.974 94.6397 129.971 94.5591 132.262C94.5577 132.301 94.5577 132.301 94.5563 132.34C94.514 133.547 94.4752 134.083 94.349 134.748C93.5593 138.713 91.6287 142.357 89 143.319Z" fill="white" stroke="#BB6BD9"/>
<path fill-rule="evenodd" clip-rule="evenodd" d="M152.46 181.03H150.739C148.482 183.335 145.407 184.696 142.231 184.696C135.687 184.696 130.448 179.4 130.448 172.866C130.448 166.297 135.722 161.037 142.231 161.037C145.513 161.037 148.597 162.4 150.747 164.703H152.46V141.822H98.1548V204.022H152.46V181.03Z" fill="white" stroke="#BB6BD9"/>
<path fill-rule="evenodd" clip-rule="evenodd" d="M137.76 141.328C138.316 140.604 137.808 139.49 136.697 138.881C136.05 138.557 135.407 138.557 134.265 138.811L134.149 138.837L134.035 138.808L134.034 138.808C133.724 138.73 133.453 138.712 132.995 138.709C131.429 138.884 130.886 140.194 131.812 141.497C132.603 142.733 134.256 143.277 136.038 143.056C136.786 142.889 137.396 142.449 137.587 142.002C137.566 141.942 137.555 141.877 137.555 141.808C137.555 141.623 137.635 141.462 137.76 141.328Z" fill="white" stroke="#BB6BD9"/>
<path fill-rule="evenodd" clip-rule="evenodd" d="M81.6273 158.416C81.2821 159.17 81.5004 160.151 82.2503 161.339C82.815 162.233 83.6473 163.193 84.7165 164.233C85.1833 164.688 85.6731 165.136 86.2451 165.64C86.4927 165.858 87.3212 166.577 87.4732 166.712C88.6428 167.719 89.61 168.423 90.59 168.871L90.579 168.866C91.5061 169.331 91.9149 169.479 92.5004 169.481C93.0729 169.532 93.6655 169.518 94.2828 169.443C96.0841 169.226 97.7844 168.603 100.612 167.277C100.779 167.199 101.674 166.777 101.926 166.659C102.426 166.425 102.827 166.243 103.213 166.075C105.278 165.208 107.15 164.37 110.428 162.866C110.827 162.683 110.827 162.683 111.227 162.5C116.133 160.248 118.473 159.214 121.322 158.092C121.375 158.065 121.424 157.997 121.541 157.76L121.616 157.611L121.765 157.536C121.799 157.519 121.821 157.481 121.821 157.428V157.262L121.92 157.129C122.463 156.402 122.701 155.576 122.817 154.181C122.937 151.896 123.316 150.196 124.196 148.208C124.457 147.684 124.569 147.273 124.697 146.543C124.697 146.234 124.068 146.047 123.641 146.217C121.951 147.016 121.011 148.19 120.367 150.238C120.217 150.755 120.139 151.021 120.057 151.288C119.389 153.475 118.689 154.759 117.477 155.559C116.614 156.426 115.542 157.032 114.125 157.548C111.704 158.67 109.663 159.397 105.009 160.899C100.297 162.537 97.9547 163.048 95.5468 162.468L95.3508 162.371C94.2877 161.517 93.7111 160.482 92.6517 157.974C92.6243 157.91 92.6243 157.91 92.5971 157.845C91.272 154.709 90.4729 153.553 88.9334 153.143C87.1057 152.793 82.6971 156.152 81.6273 158.416H81.6273Z" fill="white" stroke="#BB6BD9"/>
<path d="M97 157.647C96.9905 157.628 96.9808 157.609 96.9708 157.589C96.7601 157.17 96.5158 156.702 96.241 156.199C95.4558 154.76 94.5842 153.321 93.6513 151.981C92.6671 150.567 91.6715 149.347 90.6758 148.373C86.9334 144.588 85.1469 143.804 80.477 144.038C77.3403 144.114 76.0457 145.448 74.9797 148.628C74.9288 148.78 74.8771 148.939 74.8144 149.134C74.7833 149.23 74.7332 149.387 74.6522 149.64C74.5294 150.023 74.4417 150.287 74.3495 150.546C73.5431 152.813 74.166 155.443 75.8677 158.771C76.2467 159.595 77.4385 161.121 79.2011 163.097C79.4334 163.358 79.6741 163.625 79.9225 163.897C80.8593 164.923 81.8637 165.984 82.8683 167.017C83.2174 167.376 83.5416 167.706 83.8329 168C83.8828 167.959 83.9362 167.916 83.9931 167.869C84.4495 167.496 84.9591 167.081 85.5093 166.634C87.0813 165.356 88.6636 164.079 90.155 162.886C90.284 162.783 90.284 162.783 90.413 162.68C94.1063 159.73 96.0007 158.245 97 157.647ZM97.5799 158.519L97.4201 158.479C97.5568 158.513 97.561 158.528 97.5799 158.519Z" fill="white" stroke="#BB6BD9"/>
<path d="M269.113 59.5563L253.557 44L238 59.5564L253.557 75.1127L269.113 59.5563Z" fill="#4D49FF"/>
<path d="M397.626 144.463C394.966 143.535 393.012 139.866 392.216 135.866C392.09 135.206 392.052 134.67 392.009 133.463C392.008 133.424 392.008 133.424 392.006 133.384C391.926 131.094 391.716 130.097 390.874 129.082C390.239 128.262 389.2 127.715 387.971 127.49L387.864 127.458C387.216 127.179 386.318 127.059 385.801 127.161C384.275 127.353 383.042 128.186 382.058 129.615L381.935 129.739C380.522 130.741 379.908 132.751 379.6 136.152L379.584 136.331L379.456 136.459C379.448 136.467 379.445 136.471 379.435 136.48C379.415 136.561 379.398 136.658 379.375 136.807C379.328 137.114 379.309 137.225 379.27 137.388C379.27 137.405 379.27 137.416 379.27 137.439C379.27 137.481 379.27 137.481 379.27 137.55C379.27 137.55 379.27 137.55 379.27 137.661C379.27 137.814 379.27 137.814 379.27 137.939C379.27 137.991 379.27 138.021 379.27 138.05C379.291 138.05 379.312 138.05 379.338 138.05C380.441 137.645 381.482 138.38 381.482 139.661C381.482 139.763 381.337 140.448 381.33 140.483C381.266 140.819 381.223 141.122 381.205 141.405C381.163 142.051 381.264 142.454 381.428 142.546C382.386 143.027 384.371 142.791 385.184 142.064L385.341 141.925L385.551 141.939C386.716 142.017 387.477 142.833 388.331 144.429C388.437 144.627 388.803 145.336 388.765 145.263C388.923 145.568 389.038 145.774 389.141 145.937C390.345 147.749 391.67 148.227 393.25 147.685C394.548 147.239 395.897 146.189 397.6 144.493C397.61 144.477 397.619 144.468 397.626 144.463Z" fill="#FFFEFE" stroke="#BB6BD9"/>
<path fill-rule="evenodd" clip-rule="evenodd" d="M438.193 280.627C436.608 280.952 435.096 280.968 432.104 280.835C431.757 280.82 431.57 280.812 431.382 280.804C429.088 281.747 427.088 282.726 425.217 283.847C425.133 283.889 425.056 283.921 424.974 283.948C424.919 283.966 424.919 283.966 424.868 283.981C424.727 284.019 424.652 284.041 424.551 284.074C424.499 284.092 424.283 284.16 424.229 284.178C424.016 284.249 423.891 284.309 423.847 284.353L423.679 284.464C422.831 284.803 422.247 285.918 422.627 286.552C422.904 287.035 423.784 287.322 425.141 287.402C425.678 287.433 426.172 287.433 426.97 287.414C427.484 287.401 427.53 287.4 427.693 287.4C428.491 287.4 429.139 287.412 430.606 287.45C432.064 287.487 432.707 287.5 433.493 287.5C434.476 287.5 435.008 287.484 435.639 287.415C436.49 287.322 437.168 287.144 437.636 286.871C439.02 286.041 439.061 284.049 438.211 280.931L438.193 280.8C438.193 280.715 438.193 280.666 438.193 280.627Z" stroke="#BB6BD9"/>
<path fill-rule="evenodd" clip-rule="evenodd" d="M401.193 283.627C399.608 283.952 398.096 283.968 395.104 283.835C394.757 283.82 394.57 283.812 394.382 283.804C392.088 284.747 390.088 285.726 388.217 286.847C388.133 286.889 388.056 286.921 387.974 286.948C387.919 286.966 387.919 286.966 387.868 286.981C387.727 287.019 387.652 287.041 387.551 287.074C387.499 287.092 387.283 287.16 387.229 287.178C387.016 287.249 386.891 287.309 386.847 287.353L386.679 287.464C385.831 287.803 385.247 288.918 385.627 289.552C385.904 290.035 386.784 290.322 388.141 290.402C388.678 290.433 389.172 290.433 389.97 290.414C390.484 290.401 390.53 290.4 390.693 290.4C391.491 290.4 392.139 290.412 393.606 290.45C395.064 290.487 395.707 290.5 396.493 290.5C397.476 290.5 398.008 290.484 398.639 290.415C399.49 290.322 400.168 290.144 400.636 289.871C402.02 289.041 402.061 287.049 401.211 283.931L401.193 283.8C401.193 283.715 401.193 283.666 401.193 283.627Z" stroke="#BB6BD9"/>
<path d="M385.844 123.676C385.515 123.62 385.273 123.645 384.99 123.746C384.831 123.803 384.061 124.163 384.122 123.8L383.743 124.285C383.532 124.338 383.354 124.362 382.969 124.401C382.877 124.41 382.877 124.41 382.786 124.419C382.088 124.494 381.809 124.611 381.65 124.957C381.73 124.824 381.384 125.404 381.303 125.536C380.68 126.541 380.115 127.025 379.022 127.2C378.853 127.2 378.63 127.328 378.607 127.421L378.589 127.417C378.454 127.713 377.949 128.281 377.857 128.414C377.194 129.373 377.038 130.336 377.656 131.352C377.965 131.893 378.497 132.2 379.122 132.2H379.24L379.345 132.253C379.552 132.356 379.976 132.314 380.298 132.153L380.464 132.07L380.643 132.115C380.71 132.132 380.857 132.112 381.078 132.046C381.144 132.026 381.213 132.004 381.309 131.971C381.681 131.844 381.674 131.847 381.736 131.836C383.077 131.299 384.143 131.486 384.861 132.309C385.342 132.86 385.625 133.641 385.773 134.606C385.778 134.608 385.783 134.609 385.788 134.611C385.946 134.653 385.946 134.653 386.101 134.695C386.221 134.728 386.318 134.755 386.412 134.783C386.718 134.872 386.986 134.963 387.266 135.077C387.3 135.033 387.328 134.995 387.344 134.974C387.404 134.895 387.456 134.824 387.504 134.757C387.676 134.519 387.798 134.329 387.874 134.176C388.015 133.895 388.091 133.659 388.224 133.13C388.232 133.003 388.261 132.894 388.307 132.777C388.316 132.754 388.322 132.739 388.324 132.75C388.417 131.824 389.422 131.658 390.375 132.05C391.303 132.433 391.942 133.228 391.821 134.134C391.775 134.791 391.688 135.312 391.564 135.762C391.509 135.964 391.309 136.531 391.31 136.553C391.313 136.603 391.444 136.779 391.975 137.346C391.962 137.333 392.032 137.322 392.03 137.402C392.151 136.484 392.441 135.763 393.029 134.68C393.05 134.641 393.247 134.281 393.302 134.179C393.401 133.995 393.478 133.845 393.547 133.704C393.891 132.993 394.014 132.455 393.927 131.874L393.925 131.855C393.884 131.485 393.929 131.21 394.06 130.766C394.123 130.552 394.135 130.506 394.151 130.424C394.19 130.22 394.164 130.09 394.068 129.954C393.87 129.755 393.858 129.604 393.833 128.605C393.824 128.253 393.822 127.925 393.826 127.662C393.806 127.507 393.711 127.386 393.397 127.113C393.377 127.095 393.377 127.095 393.356 127.077C392.838 126.627 392.622 126.33 392.622 125.8C392.622 125.605 392.54 125.318 392.544 125.316C392.379 125.206 392.253 125.163 391.926 125.09C391.894 125.083 391.894 125.083 391.861 125.075C391.412 124.973 391.128 124.856 390.768 124.554C390.609 124.394 390.184 123.927 390.11 123.854C389.842 123.588 389.643 123.5 389.222 123.5C388.719 123.5 388.181 123.679 387.445 124.047L387.266 124.137L387.075 124.078C386.922 124.031 386.695 123.96 386.467 123.887C386.449 123.882 386.449 123.882 386.432 123.876C386.252 123.819 386.106 123.771 386.003 123.735C385.937 123.712 385.888 123.694 385.851 123.678C385.848 123.677 385.846 123.676 385.844 123.676ZM387.329 135.103C387.359 135.115 387.389 135.128 387.419 135.14L387.238 135.562L387.222 135.55V135.136C387.231 135.124 387.24 135.112 387.249 135.1C387.279 135.1 387.305 135.101 387.329 135.103Z" fill="white" stroke="#BB6BD9"/>
<path d="M100.823 123.676C101.153 123.62 101.395 123.645 101.678 123.746C101.836 123.803 102.606 124.163 102.768 124.216L102.924 124.285C103.135 124.338 103.314 124.362 103.698 124.401C103.791 124.41 103.791 124.41 103.881 124.419C104.579 124.494 104.859 124.611 105.017 124.957C104.937 124.824 105.283 125.404 105.365 125.536C105.987 126.541 106.553 127.025 107.646 127.2C107.814 127.2 108.037 127.328 108.061 127.421L108.079 127.417C108.214 127.713 108.718 128.281 108.811 128.414C109.474 129.373 109.63 130.336 109.012 131.352C108.703 131.893 108.17 132.2 107.546 132.2H107.428L107.322 132.253C107.116 132.356 106.691 132.314 106.369 132.153L106.204 132.07L106.024 132.115C105.957 132.132 105.81 132.112 105.589 132.046C105.523 132.026 105.454 132.004 105.359 131.971C104.987 131.844 104.994 131.847 104.931 131.836C103.591 131.299 102.524 131.486 101.806 132.309C101.326 132.86 101.043 133.641 100.894 134.606C100.89 134.608 100.885 134.609 100.88 134.611C100.721 134.653 100.721 134.653 100.566 134.695C100.447 134.728 100.35 134.755 100.256 134.783C99.9495 134.872 99.6816 134.963 99.4011 135.077C99.3676 135.033 99.3394 134.995 99.3235 134.974C99.264 134.895 99.2119 134.824 99.1636 134.757C98.9912 134.519 98.869 134.329 98.793 134.176C98.713 134.016 98.6467 133.847 98.5855 133.651C98.5402 133.506 98.5077 133.385 98.4437 133.13C98.436 133.003 98.407 132.894 98.36 132.777C98.351 132.754 98.3458 132.739 98.3433 132.75C98.2507 131.824 97.2456 131.658 96.2929 132.05C95.364 132.433 94.7251 133.228 94.8469 134.134C94.8922 134.791 94.9791 135.312 95.1033 135.762C95.1589 135.964 95.3588 136.531 95.3575 136.553C95.3546 136.603 95.2234 136.779 94.6922 137.346C94.7058 137.333 94.6356 137.322 94.6372 137.402C94.5169 136.484 94.227 135.763 93.6389 134.68C93.6172 134.641 93.4208 134.281 93.3654 134.179C93.2662 133.995 93.189 133.845 93.1205 133.704C92.7763 132.993 92.6531 132.455 92.7402 131.874L92.7427 131.855C92.7838 131.485 92.7382 131.21 92.6076 130.766C92.5447 130.552 92.532 130.506 92.5164 130.424C92.4773 130.22 92.503 130.09 92.5993 129.954C92.7975 129.755 92.809 129.604 92.8343 128.605C92.8432 128.253 92.8458 127.925 92.8419 127.662C92.8613 127.507 92.9561 127.386 93.2701 127.113C93.2905 127.095 93.2905 127.095 93.3114 127.077C93.8293 126.627 94.0458 126.33 94.0458 125.8C94.0458 125.605 94.1278 125.318 94.1231 125.316C94.2886 125.206 94.4141 125.163 94.7414 125.09C94.7735 125.083 94.7735 125.083 94.8066 125.075C95.2551 124.973 95.5392 124.856 95.8993 124.554C96.0585 124.394 96.4834 123.927 96.557 123.854C96.8258 123.588 97.0247 123.5 97.4458 123.5C97.9485 123.5 98.4863 123.679 99.2222 124.047L99.4013 124.137L99.5928 124.078C99.745 124.031 99.9725 123.96 100.201 123.887C100.218 123.882 100.218 123.882 100.236 123.876C100.415 123.819 100.561 123.771 100.665 123.735C100.73 123.712 100.78 123.694 100.817 123.678C100.819 123.677 100.821 123.676 100.823 123.676ZM99.3386 135.103C99.3089 135.115 99.279 135.128 99.2488 135.14L99.4295 135.562L99.4458 135.55V135.136C99.4366 135.124 99.4275 135.112 99.4187 135.1C99.3887 135.1 99.3625 135.101 99.3386 135.103Z" fill="white" stroke="#BB6BD9"/>
</svg>
