<svg width="120" height="43" viewBox="0 0 120 43" fill="none" xmlns="http://www.w3.org/2000/svg">
    <g clip-path="url(#clip0)">
        <path opacity="0.4" d="M9.07746 16.9624L5.48206 24.9447H3.58351L0 16.9624H2.07654L4.60398 22.6641L7.16704 16.9624H9.07746Z" fill="white"/>
        <path d="M16.6263 23.9097V24.9446H12.5059V20.0269H16.5284V21.0617H13.8942V21.9597H16.2258V22.9433H13.8942V23.9097H16.6263Z" fill="white"/>
        <path d="M26.1009 20.0269V24.9446H24.944L22.5856 22.2334V24.9446H21.2062V20.0269H22.3631L24.7215 22.7466V20.0269H26.1009Z" fill="white"/>
        <path d="M30.387 21.0788H31.9978V24.9446H33.4039V21.0788H35.0147V20.0269H30.387V21.0788Z" fill="white"/>
        <path d="M41.6637 25.0386C40.9042 25.0386 40.3109 24.8419 39.8838 24.4485C39.4566 24.0551 39.243 23.5134 39.243 22.8235V20.0269H40.6492V22.7808C40.6492 23.1627 40.7352 23.4507 40.9072 23.6446C41.0852 23.8384 41.3433 23.9354 41.6815 23.9354C42.0137 23.9354 42.2659 23.8384 42.438 23.6446C42.61 23.4507 42.696 23.1627 42.696 22.7808V20.0269H44.0843V22.8235C44.0843 23.5134 43.8708 24.0551 43.4436 24.4485C43.0164 24.8419 42.4231 25.0386 41.6637 25.0386Z" fill="white"/>
        <path fill-rule="evenodd" clip-rule="evenodd" d="M49.8493 23.9696H52.2433L52.6616 24.9446H54.0499L51.7449 20.0269H50.3566L48.0606 24.9446H49.4222L49.8493 23.9696ZM51.0508 21.2157L51.8161 22.9946H50.2765L51.0508 21.2157Z" fill="white"/>
        <path fill-rule="evenodd" clip-rule="evenodd" d="M60.4887 23.6275H59.6251V24.9446H58.219V20.0269H60.551C61.2568 20.0269 61.8176 20.1894 62.2329 20.5144C62.6481 20.8337 62.8554 21.2755 62.8554 21.84C62.8554 22.1992 62.7637 22.5128 62.5798 22.7808C62.4018 23.043 62.1466 23.2483 61.8146 23.3965L62.9537 24.9446H61.4407L60.4887 23.6275ZM61.4407 21.84C61.4407 21.5948 61.3575 21.4067 61.1915 21.2755C61.0255 21.1444 60.7793 21.0788 60.4527 21.0788H59.6251V22.6012H60.4527C60.7793 22.6012 61.0255 22.5356 61.1915 22.4045C61.3575 22.2733 61.4407 22.0852 61.4407 21.84Z" fill="white"/>
        <path d="M70.1052 24.9446V23.311L72.179 20.0269H70.7637L69.4467 22.1222L68.1207 20.0269H66.6348L68.6995 23.311V24.9446H70.1052Z" fill="white"/>
        <g opacity="0.4">
            <path d="M108.92 23.508C109.41 23.508 109.854 23.4016 110.249 23.1887C110.644 22.9682 110.953 22.6642 111.174 22.2764C111.404 21.8888 111.519 21.4478 111.519 20.9537C111.519 20.4596 111.404 20.0186 111.174 19.6309C110.953 19.2432 110.644 18.9429 110.249 18.73C109.854 18.5096 109.41 18.3994 108.92 18.3994C108.429 18.3994 107.987 18.5096 107.591 18.73C107.196 18.9429 106.883 19.2432 106.653 19.6309C106.432 20.0186 106.321 20.4596 106.321 20.9537C106.321 21.4478 106.432 21.8888 106.653 22.2764C106.883 22.6642 107.196 22.9682 107.591 23.1887C107.987 23.4016 108.429 23.508 108.92 23.508Z" fill="white"/>
            <path d="M88.3426 22.7667C87.8519 23.2076 87.1916 23.428 86.3611 23.428H84.605V18.479H86.3611C87.1916 18.479 87.8519 18.7033 88.3426 19.1518C88.8411 19.5927 89.0898 20.1933 89.0898 20.9535C89.0898 21.7137 88.8411 22.3181 88.3426 22.7667Z" fill="white"/>
            <path d="M97.6977 18.7755L99.0147 21.8316H96.3808L97.6977 18.7755Z" fill="white"/>
            <path fill-rule="evenodd" clip-rule="evenodd" d="M75.6074 0H120.352V43H75.6074V0ZM108.92 25.0817C108.058 25.0817 107.278 24.903 106.582 24.5457C105.894 24.1884 105.352 23.6981 104.956 23.0747C104.569 22.4437 104.375 21.7367 104.375 20.9537C104.375 20.1707 104.569 19.4675 104.956 18.844C105.352 18.2131 105.894 17.719 106.582 17.3617C107.278 17.0043 108.058 16.8257 108.92 16.8257C109.782 16.8257 110.558 17.0043 111.245 17.3617C111.934 17.719 112.476 18.2131 112.871 18.844C113.267 19.4675 113.465 20.1707 113.465 20.9537C113.465 21.7367 113.267 22.4437 112.871 23.0747C112.476 23.6981 111.934 24.1884 111.245 24.5457C110.558 24.903 109.782 25.0817 108.92 25.0817ZM86.4558 16.9624H82.6822V24.9447H86.4558C87.3576 24.9447 88.1527 24.7812 88.8411 24.4543C89.5368 24.1198 90.0748 23.6523 90.4547 23.0517C90.8424 22.4512 91.0359 21.7518 91.0359 20.9535C91.0359 20.1553 90.8424 19.4559 90.4547 18.8554C90.0748 18.2547 89.5368 17.791 88.8411 17.4641C88.1527 17.1297 87.3576 16.9624 86.4558 16.9624ZM95.7636 23.2342H99.6199L100.356 24.9447H102.373L98.6588 16.9624H96.7606L93.0583 24.9447H95.0278L95.7636 23.2342Z" fill="white"/>
        </g>
    </g>
    <defs>
        <clipPath id="clip0">
            <rect width="120" height="43" fill="white"/>
        </clipPath>
    </defs>
</svg>
