<svg width="80" height="40" viewBox="0 0 80 40" fill="none" xmlns="http://www.w3.org/2000/svg">
    <g opacity="0.4">
        <path d="M49.375 14.2188H45.8281V24H43.8672V14.2188H40.3516V12.625H49.375V14.2188ZM48.7109 19.6953C48.7109 18.8672 48.875 18.1224 49.2031 17.4609C49.5312 16.7943 49.9922 16.2839 50.5859 15.9297C51.1797 15.5703 51.862 15.3906 52.6328 15.3906C53.7734 15.3906 54.6979 15.7578 55.4062 16.4922C56.1198 17.2266 56.5052 18.2005 56.5625 19.4141L56.5703 19.8594C56.5703 20.6927 56.4089 21.4375 56.0859 22.0938C55.7682 22.75 55.3099 23.2578 54.7109 23.6172C54.1172 23.9766 53.4297 24.1562 52.6484 24.1562C51.4557 24.1562 50.5 23.7604 49.7812 22.9688C49.0677 22.1719 48.7109 21.112 48.7109 19.7891V19.6953ZM50.6094 19.8594C50.6094 20.7292 50.7891 21.4115 51.1484 21.9062C51.5078 22.3958 52.0078 22.6406 52.6484 22.6406C53.2891 22.6406 53.7865 22.3906 54.1406 21.8906C54.5 21.3906 54.6797 20.6589 54.6797 19.6953C54.6797 18.8411 54.4948 18.1641 54.125 17.6641C53.7604 17.1641 53.263 16.9141 52.6328 16.9141C52.013 16.9141 51.5208 17.1615 51.1562 17.6562C50.7917 18.1458 50.6094 18.8802 50.6094 19.8594ZM65.5781 19.8594C65.5781 21.1667 65.2812 22.2109 64.6875 22.9922C64.0938 23.7682 63.2969 24.1562 62.2969 24.1562C61.3698 24.1562 60.6276 23.8516 60.0703 23.2422V27.25H58.1719V15.5469H59.9219L60 16.4062C60.5573 15.7292 61.3151 15.3906 62.2734 15.3906C63.3047 15.3906 64.112 15.776 64.6953 16.5469C65.2839 17.3125 65.5781 18.3776 65.5781 19.7422V19.8594ZM63.6875 19.6953C63.6875 18.8516 63.5182 18.1823 63.1797 17.6875C62.8464 17.1927 62.3672 16.9453 61.7422 16.9453C60.9661 16.9453 60.4089 17.2656 60.0703 17.9062V21.6562C60.4141 22.3125 60.9766 22.6406 61.7578 22.6406C62.362 22.6406 62.8333 22.3984 63.1719 21.9141C63.5156 21.4245 63.6875 20.6849 63.6875 19.6953Z" fill="white"/>
        <path fill-rule="evenodd" clip-rule="evenodd" d="M14.1953 21.4636L15.712 23L20.6953 17.9519L25.6786 23L27.1953 21.4636L20.6953 14.8792L14.1953 21.4636Z" fill="white"/>
    </g>
</svg>
